<svg xmlns="http://www.w3.org/2000/svg" width="63" height="46" viewBox="0 0 63 46" fill="none"><path d="M1.49388 14.8899C4.78155 13.1201 8.45536 12.7394 11.9653 11.8039C25.2993 8.25201 38.6645 4.83787 52.0024 1.29817C54.6193 0.601574 57.166 0.0548386 59.775 1.16049C61.2219 2.44433 62.0488 4.10481 62.8717 6.33231C61.573 11.4272 60.1807 16.8825 58.7884 22.3379C57.634 24.2414 57.478 26.9144 54.9274 27.7406C49.1125 27.4895 43.598 28.4858 38.7075 32.0214C34.554 33.8844 31.1961 37.1487 27.1051 39.1332C23.5249 41.2675 20.0149 43.5315 16.1773 45.1799C14.2858 45.2447 13.0963 44.2281 12.2383 42.5595C8.24865 34.7876 4.75035 26.7726 1.19747 18.782C0.596878 17.4293 0.553978 16.1171 1.48997 14.8899H1.49388Z" fill="#333333"></path></svg>