<svg xmlns="http://www.w3.org/2000/svg" width="87" height="40" viewBox="0 0 87 40" fill="none"><path d="M82.6031 78.0591C79.3778 74.5113 75.1229 72.4013 71.4296 69.4974C65.0843 64.5119 58.4349 59.9394 51.9219 55.1847C49.0671 53.099 46.2085 51.0335 42.8038 50.6406C34.9766 39.8069 25.9559 30.4515 17.1264 20.9097C13.8036 17.3173 10.7967 13.4091 7.64553 9.64663C7.28673 9.31453 6.94743 8.95409 6.56913 8.64629C6.29613 8.69084 6.01928 8.71511 5.74239 8.71916C5.00139 9.03911 4.31497 8.88929 3.66757 8.44379C1.89309 6.42284 -0.618495 4.73802 0.645096 1.32387C0.754296 0.817623 0.867441 0.319514 1.56944 0.149414C2.56003 0.862213 3.61691 1.62352 4.6777 2.38897C9.06907 5.84767 12.657 10.1772 16.5414 14.1826C24.6728 22.5701 32.7224 31.0427 40.8421 39.4464C41.8639 40.5035 42.6556 41.9656 44.7499 42.164C48.4159 38.029 50.7442 32.5533 54.6286 28.3292C55.2565 28.8881 55.5645 29.6211 55.6737 30.4554C53.0452 35.4207 50.4166 40.382 47.5657 45.7644C53.4858 52.0379 60.5175 56.8453 67.0851 62.2155C73.5902 67.5372 80.1617 72.7698 86.7019 78.0429C85.3331 78.0429 83.9681 78.051 82.5992 78.055L82.6031 78.0591Z" fill="#565656"></path></svg>