<svg xmlns="http://www.w3.org/2000/svg" width="6" height="8" viewBox="0 0 6 8" fill="none"><path d="M4.89994 0.696289H4.1326C4.02111 0.696289 3.96208 0.755309 3.96208 0.866798V5.56901C3.96208 5.62147 3.949 5.64771 3.91621 5.64771C3.88342 5.64771 3.86376 5.62148 3.84408 5.57557L1.76511 0.98485C1.71265 0.866803 1.65362 0.788101 1.60116 0.75531C1.54214 0.715961 1.47001 0.702844 1.37164 0.702844H0.407606C0.309234 0.702844 0.223968 0.735637 0.151828 0.807777C0.0796883 0.873359 0.046875 0.958614 0.046875 1.06355V7.1692C0.046875 7.21511 0.0665207 7.25446 0.0993116 7.29381C0.132102 7.3266 0.178051 7.34628 0.223958 7.34628H0.984729C1.03064 7.34628 1.06994 7.3266 1.10273 7.29381C1.13552 7.25446 1.14868 7.21511 1.14868 7.1692V2.67686C1.14868 2.63095 1.16176 2.60472 1.19456 2.60472C1.22735 2.60472 1.25358 2.63095 1.27325 2.67686L3.25383 7.03149C3.32597 7.19544 3.40467 7.28725 3.49648 7.31348C3.58829 7.33972 3.68664 7.35283 3.79813 7.35283H4.70316C4.80153 7.35283 4.8868 7.32005 4.95894 7.24791C5.02452 7.18232 5.06389 7.09707 5.06389 6.99214V0.879917C5.06389 0.768428 5.00486 0.709408 4.89337 0.709408" fill="#0B5463"></path></svg>