<svg xmlns="http://www.w3.org/2000/svg" width="21" height="50" viewBox="0 0 21 50" fill="none"><path d="M9.46505 18.6887C11.4813 18.8102 12.3159 17.498 12.9516 15.7646C14.1723 12.4274 15.4866 9.1226 16.797 5.81781C17.4834 4.09251 18.1269 2.3267 19.4217 0.949707C19.5504 1.77591 19.8351 2.52112 20.4513 3.09217C17.1636 11.3177 13.8681 19.5392 10.5882 27.7688C8.25216 33.6291 5.95507 39.5056 3.60338 45.3619C3.02619 46.7956 2.42561 48.201 2.50361 49.8007C0.908524 50.145 1.49741 48.1119 0.495117 47.8081C2.5933 40.7085 5.91605 34.1192 8.41203 27.1815C9.04773 25.4117 9.81994 23.7026 10.0851 21.6695C9.51184 21.0417 8.95025 20.4261 8.38475 19.8105C8.74355 19.4379 9.10625 19.0653 9.46505 18.6927V18.6887Z" fill="#515151"></path></svg>