<svg xmlns="http://www.w3.org/2000/svg" width="30" height="41" viewBox="0 0 30 41" fill="none"><path d="M28.5352 37.3112C26.0353 37.8458 24.3934 40.4014 21.6869 40.45C16.0085 29.8633 9.05875 20.1271 2.77589 9.94541C1.8009 8.36591 0.498333 6.96462 0.0693359 4.88697C1.13403 2.32738 3.56761 1.54169 5.8257 0.0917969C10.8333 4.33214 12.522 10.885 16.6715 15.5263V15.5304C16.9757 15.907 17.3618 16.2108 17.6504 16.6077L17.6231 16.5874C18.2783 17.1139 18.0755 18.098 18.6605 18.6569V18.6488C19.2689 19.1794 19.0505 20.1635 19.6862 20.6779L19.7057 20.7184C20.0216 21.0748 20.3375 21.4312 20.6573 21.7876L20.6378 21.7714C21.2696 22.2939 21.0512 23.2861 21.6829 23.8086L21.6986 23.8369C22.0067 24.2055 22.3537 24.5376 22.6579 24.9102L22.6346 24.8899C23.2742 25.4164 23.0636 26.4046 23.6759 26.9473V26.9554C24.0074 27.3118 24.3545 27.6479 24.6548 28.0327L24.6274 28.0125C25.2748 28.539 25.076 29.5231 25.6649 30.082C26.0042 30.4222 26.3552 30.7624 26.6516 31.1552L26.6243 31.135C27.2834 31.6574 27.0805 32.6456 27.6616 33.2086L27.6538 33.2005C28.2037 34.5127 30.025 35.5333 28.5391 37.3153L28.5352 37.3112Z" fill="#333333"></path></svg>