<svg xmlns="http://www.w3.org/2000/svg" width="149" height="41" viewBox="0 0 149 41" fill="none"><path d="M143.22 79.0426C127.339 71.9268 111.474 64.7704 95.574 57.7032C75.8479 48.935 56.0751 40.268 36.3529 31.4917C30.2495 28.7741 23.9822 26.4777 18.3468 22.6343C13.9593 19.6454 10.3167 16.045 7.19675 11.7196C5.32476 9.12352 3.58148 6.26024 0.208008 5.40164C0.988002 2.16974 3.61269 1.31109 6.18277 0.387695C5.72647 1.66749 4.37707 2.48559 4.44337 4.03269C9.95013 14.1455 18.1284 21.1317 28.2995 25.6596C50.7477 35.655 73.2233 45.5816 95.7027 55.5C112.371 62.8548 129.067 70.1489 145.739 77.4915C146.644 77.8925 147.463 78.5039 148.321 79.0183C146.621 79.0264 144.916 79.0345 143.216 79.0426H143.22Z" fill="#515252"></path></svg>