<svg xmlns="http://www.w3.org/2000/svg" width="30" height="27" viewBox="0 0 30 27" fill="none"><path d="M26.7044 9.70576C27.4844 12.1277 29.5241 13.9623 29.7737 17.1942C25.4759 20.6529 19.3373 21.5439 16.077 26.8372C9.8175 22.196 4.73584 17.6599 0.477065 12.1681C0.406866 11.0341 0.921687 10.2404 1.81868 9.66932C5.37935 8.34902 8.56563 6.22275 12.0015 4.62705C13.1481 4.19775 14.2596 3.69154 15.3087 3.04354C16.0029 2.58589 16.7556 2.25375 17.4926 1.88925C22.9994 -0.836392 24.5945 -0.176203 26.5913 5.67604C26.8682 6.48603 26.9462 7.3284 27.0554 8.1708C27.0944 8.72159 26.9774 9.23596 26.7005 9.70576H26.7044Z" fill="#333333"></path></svg>