<svg xmlns="http://www.w3.org/2000/svg" width="39" height="37" viewBox="0 0 39 37" fill="none"><path d="M11.4566 36.1123C8.03629 29.8267 4.61989 23.537 1.19571 17.2514C0.688716 16.3199 0.388441 15.3682 0.63414 14.2949C1.04364 12.197 2.58417 11.3141 4.29236 10.6094C4.68626 10.4352 5.07625 10.249 5.45845 10.0465C5.82505 9.83994 6.21503 9.67388 6.61283 9.53618C7.75162 9.09068 8.8592 8.56016 9.92 7.93646C10.6103 7.55171 11.324 7.20743 11.9948 6.79028C12.3419 6.63233 12.7046 6.527 13.0751 6.45815C13.6016 6.3326 14.1164 6.15039 14.5961 5.88714C15.0407 5.58744 15.4307 5.21487 15.8753 4.90707C16.1795 4.71267 16.5071 4.57496 16.8542 4.49396C17.2013 4.44536 17.5522 4.43724 17.8993 4.46559C18.0709 4.47774 18.2465 4.49398 18.422 4.50613C21.6745 3.27493 24.3421 0.654547 28.4136 0.0146484C31.8924 6.87129 36.1941 13.3593 38.9709 21.4472C30.1452 27.429 20.9101 31.9772 11.4566 36.1001V36.1123Z" fill="#333333"></path></svg>