<svg xmlns="http://www.w3.org/2000/svg" width="30" height="34" viewBox="0 0 30 34" fill="none"><path d="M0.482701 11.9302C0.338402 11.0878 0.194116 10.2454 0.0576172 9.43947C1.07551 7.59268 2.94359 7.11075 3.99658 6.22786C6.05966 5.69731 7.23355 7.13096 8.81304 7.19981C12.8612 6.08607 14.8853 1.45698 19.2767 0.371582C23.3054 5.16272 26.4175 10.61 29.6506 15.5591C29.4595 17.9526 27.0727 18.2847 26.7958 21.3384C26.7412 22.1079 28.543 23.578 27.9814 26.2996C24.1906 28.8795 20.7197 32.9254 15.3884 33.8893C13.4969 32.9457 12.6038 31.0624 11.5274 29.3776C7.82247 23.578 4.16428 17.746 0.486605 11.9261L0.482701 11.9302Z" fill="#333333"></path></svg>