<svg xmlns="http://www.w3.org/2000/svg" width="30" height="44" viewBox="0 0 30 44" fill="none"><path d="M27.6539 38.0881C28.4105 38.3027 29.1437 38.5619 29.6429 39.2504C27.0378 42.782 23.9177 44.5316 19.6629 42.373C19.6746 42.0409 19.6668 41.7088 19.6395 41.3767C19.0351 40.2508 17.6739 40.271 16.8861 39.4246C14.8153 38.9386 14.1132 37.1445 13.3488 35.4151C9.46447 26.6712 5.54887 17.9394 1.7191 9.16711C0.716809 6.87076 -0.776812 4.57846 0.521879 1.84472C1.27457 1.49237 2.03119 1.13596 2.78779 0.779566C4.16838 0.030317 5.62689 0.115354 7.68608 0.386704C14.1171 11.6457 22.3227 22.1433 27.9815 34.3297C28.2467 35.6135 26.6165 36.7232 27.6539 38.0881Z" fill="#343433"></path></svg>