<svg xmlns="http://www.w3.org/2000/svg" width="45" height="37" viewBox="0 0 45 37" fill="none"><path d="M44.6718 18.9174C44.352 20.5779 43.3887 21.5256 41.8755 22.2059C31.7044 26.7865 21.5723 31.4562 11.4206 36.0772C10.9877 36.2757 10.4651 36.2635 9.54472 36.4336C6.07375 30.3505 3.5427 23.7288 0.949219 17.2366C2.19721 14.6487 5.09098 14.7742 6.54957 12.8829C6.65487 12.4536 6.86936 12.0931 7.17746 11.7853C7.68446 11.3925 8.30063 11.2305 8.85833 10.9389C9.39652 10.5703 9.98543 10.3516 10.625 10.2787C11.0462 10.2423 11.4674 10.2261 11.8925 10.2261C13.1288 10.1653 14.4353 10.6149 15.5429 9.66719C20.5855 6.54059 25.7959 3.80685 31.5562 2.3772C33.007 0.384602 34.6996 -0.388959 36.864 1.25129C38.9427 2.93204 39.9333 5.42279 40.5963 7.84064C41.6493 11.68 43.4238 15.1914 44.6757 18.9255L44.6718 18.9174Z" fill="#333333"></path></svg>