<svg xmlns="http://www.w3.org/2000/svg" width="4" height="7" viewBox="0 0 4 7" fill="none"><path d="M1.58163 4.98179C1.58163 5.27691 1.60786 5.51956 1.66032 5.70975C1.71279 5.89994 1.79805 6.04422 1.90954 6.14259C2.02102 6.24752 2.17189 6.3131 2.34896 6.34589C2.53259 6.37868 2.749 6.39836 2.99821 6.39836C3.09659 6.39836 3.20149 6.39836 3.29987 6.37868C3.39824 6.36557 3.50323 6.35245 3.60816 6.33277C3.71965 6.3131 3.7786 6.26063 3.7786 6.16882V5.60482C3.7786 5.513 3.71307 5.47365 3.58847 5.47365H3.10973C3.02448 5.47365 2.95886 5.47365 2.91296 5.46053C2.86705 5.45398 2.83423 5.42775 2.808 5.39496C2.78177 5.36217 2.76869 5.30971 2.76213 5.24412C2.75557 5.17854 2.75557 5.08672 2.75557 4.97524V2.16834H3.56877C3.61468 2.16834 3.66055 2.14866 3.69334 2.11587C3.73269 2.08308 3.74586 2.03717 3.74586 1.99127V1.46661C3.74586 1.4207 3.72613 1.37479 3.69334 1.342C3.66055 1.30265 3.61468 1.28954 3.56877 1.28954H2.75557V0.371396C2.75557 0.279581 2.70968 0.240234 2.6113 0.240234H2.57848L1.75215 0.384515C1.70624 0.397631 1.66693 0.4173 1.62758 0.450091C1.59479 0.482882 1.57506 0.515678 1.57506 0.568143V1.30266H0.735677C0.68977 1.30266 0.643821 1.32233 0.61103 1.35512C0.578239 1.38791 0.558594 1.43382 0.558594 1.47973V1.87978C0.558594 1.92568 0.578239 1.96503 0.61103 1.99782C0.643821 2.03061 0.68977 2.05029 0.735677 2.06341L1.57506 2.18801V4.99491L1.58163 4.98179Z" fill="#0B5463"></path></svg>