<svg xmlns="http://www.w3.org/2000/svg" width="78" height="30" viewBox="0 0 78 30" fill="none"><path d="M11.2703 26.594C10.2524 25.3021 8.64951 25.2696 7.25332 24.65C4.71834 19.9925 2.69817 15.1042 1.32148 9.92827C0.502486 8.35687 0.865193 6.94341 2.15998 5.15332C8.73144 3.14047 15.9151 2.02674 23.0326 0.617343C24.148 0.394594 25.4506 0.34195 26.4685 0.977798C35.4189 6.58704 45.5393 5.13309 55.1645 5.52999C63.6079 5.87424 70.234 10.1915 77.1252 12.7228C78.2952 14.9422 78.2328 16.9509 76.938 17.607C72.2581 19.9803 70.1482 24.3017 68.1631 28.8377C66.8566 29.7773 65.3356 29.8218 63.8614 29.8137C48.4916 29.7206 33.118 29.6477 17.7599 28.7526C15.3302 28.6109 13.2671 27.8535 11.2703 26.5899V26.594Z" fill="#333333"></path></svg>