<svg xmlns="http://www.w3.org/2000/svg" width="64" height="39" viewBox="0 0 64 39" fill="none"><path d="M50.5198 -63.9525C61.0614 -47.9753 63.3312 -29.7909 63.1869 -11.1123C63.1284 -3.29175 60.5973 4.22909 57.6021 11.3085C53.8036 20.2914 49.5097 29.096 43.6558 36.9247C42.1894 38.9983 40.2356 38.7877 39.0071 37.1393C36.4838 33.7535 33.4145 30.149 33.7577 25.7021C34.682 13.7668 31.4645 2.33369 30.6221 -9.36674C31.016 -6.46695 31.5035 -3.5793 31.8974 -0.67141C32.2874 2.19598 31.7609 4.33439 28.5941 5.28209C25.6419 6.16499 22.7832 6.71172 21.1179 3.49603C14.6557 -8.96985 7.86578 -21.2413 1.34113 -33.6707C-0.195462 -36.5948 0.0892432 -38.9357 3.20142 -40.5233C17.3817 -47.7445 30.7898 -56.4681 44.9935 -63.6407C46.8811 -64.5924 48.5815 -65.532 50.5159 -63.9525H50.5198Z" fill="#333333"></path></svg>