<svg xmlns="http://www.w3.org/2000/svg" width="195" height="153" viewBox="0 0 195 153" fill="none"><path d="M183.397 21.5185C183.44 23.2235 183.592 24.9367 183.506 26.6377C183.206 32.6398 183.393 38.569 185.562 44.2552C180.542 45.2677 175.668 46.7054 171.241 49.4594C170.722 49.8117 170.184 50.1276 169.665 50.484C169.338 50.7554 169.014 51.0227 168.714 51.3265C168.055 51.9825 167.29 52.424 166.386 52.5941C161.004 53.481 156.733 56.9195 151.663 58.989C152.166 63.8004 154.354 67.3361 156.788 70.9689C162.1 70.0941 166.425 66.9554 171.261 65.2665C172.364 64.8615 173.363 64.0799 174.622 64.1892C176.167 64.2054 177.309 65.5257 178.542 65.5986C183.869 64.8048 187.75 61.0383 192.632 59.8841C193.713 61.0586 194.126 62.5449 194.45 64.0718C193.494 66.7772 191.108 67.7127 188.939 68.9682C185.511 70.9568 181.58 72.0786 178.694 75.0999C178.858 79.7776 182.301 82.8637 183.503 86.9218C182.126 88.1449 180.488 88.7808 178.749 89.1777C176.533 88.4487 176.093 86.3386 175.25 84.4756C173.643 80.9319 172.438 77.133 169.646 74.0104C165.933 74.9946 162.419 76.2339 159.284 78.834C160.22 82.8475 161.565 86.5006 163.773 89.7568C164.939 91.4781 166.058 93.1588 165.754 95.4066C164.287 96.9496 162.361 97.5693 160.469 98.2537C157.579 95.8602 157.462 91.8952 155.575 88.9266C154.233 86.8165 153.785 84.1111 151.476 82.3858C148.157 83.1027 145.068 84.5242 141.968 86.695C142.479 93.1183 147.549 98.0188 147.447 104.535C146.691 105.434 145.716 105.795 144.589 105.775C141.64 105.26 140.821 102.697 139.788 100.36C138.766 98.0471 138.208 95.4551 135.771 93.4221C130.931 95.0866 126.407 97.7191 122.277 100.23C121.282 106.248 127.16 109.019 126.762 114.15C124.656 116.082 122.125 117.151 119.481 117.997C118.751 112.502 115.682 107.763 114.773 102.324C114.337 100.74 113.724 99.2541 112.605 98.0431C109.789 93.0171 107.648 87.6184 104.852 82.3656C100.457 82.6207 97.0012 84.8644 93.6121 87.262C92.3095 88.5297 91.5724 90.3522 89.95 91.312C84.6734 93.3289 79.6736 95.933 74.8611 98.8166C74.4867 103.478 77.7821 106.71 78.1643 110.801C78.5933 112.396 79.2134 113.879 80.4653 114.992C83.5541 120.723 86.3153 126.616 88.6163 132.735C86.3777 134.108 84.104 135.388 81.5027 135.874C78.6323 133.047 78.2072 128.868 76.2143 125.551C75.0911 123.68 74.6036 121.391 72.6498 119.775C69.2295 120.269 66.2967 121.906 63.7266 124.514C63.8748 130.913 69.5688 135.538 68.6406 142.103C67.4628 143.205 66.1368 144.002 64.53 144.193C61.8274 140.564 61.6168 135.445 57.7636 131.962C52.8691 133.679 48.0371 135.704 43.2284 138.154C43.6067 143.662 46.3795 147.587 49.48 151.345C46.1884 152.702 42.9125 152.706 39.6443 151.252C39.7496 150.58 40.2254 149.855 39.9563 149.247C36.4502 141.346 33.9971 132.926 29.1261 125.713C27.8157 125.048 26.2284 124.838 25.4445 123.303C25.1091 122.266 24.7698 121.225 24.4344 120.188C24.6489 119.966 24.8634 119.743 25.0779 119.52C24.8634 119.743 24.6489 119.97 24.4344 120.193C23.1825 118.739 22.5702 116.989 22.2504 115.106C23.0343 113.64 22.8939 112.259 22.2232 110.728C20.2615 106.216 18.7093 101.51 16.4473 97.5004C15.1954 96.2368 13.9786 97.2696 12.8944 96.9091C10.3672 94.6533 8.81891 91.8871 8.77211 88.3434C9.1816 87.2053 10.3828 86.7477 10.9522 85.8931C10.8118 83.2606 9.79393 81.1911 8.79943 79.644C7.50854 77.9713 5.93686 79.0932 4.85657 78.2629C3.96347 77.6635 3.61245 76.7887 3.65535 75.7114C3.71385 74.2534 5.20753 73.4637 5.26213 72.1313C4.29494 66.0887 -0.56441 61.419 0.207784 54.939C2.24357 51.452 3.94008 53.3798 5.64437 55.2914C8.79945 59.4588 9.93824 64.655 12.2275 69.2639C12.4303 69.9119 12.5629 70.5882 12.9217 71.1795C13.1674 71.5521 13.3507 71.9571 13.495 72.3783C13.7641 73.4353 13.8811 74.5531 14.6611 75.4117C16.7242 78.6963 17.7889 82.5964 20.1951 85.5286C29.9061 83.4915 32.0277 77.0722 31.2789 68.9196C31.1736 67.7572 30.963 66.5382 30.6354 65.3799C30.0426 63.5939 29.8125 61.8443 31.0683 60.2324C35.054 56.4011 40.3424 54.8216 44.7611 51.7395C45.1121 51.4722 45.4942 51.2495 45.8764 51.0308C46.8553 50.5853 47.8381 50.1357 48.9067 49.917C49.3669 49.8806 49.8116 49.9373 50.2562 50.0628C52.327 51.2819 54.0274 50.7878 55.5172 48.941C58.9726 44.644 63.6681 42.6311 68.6757 41.0152C73.7457 39.379 78.5465 37.0462 83.2148 33.5348C81.8342 28.124 78.8312 23.4868 77.0607 18.3554C76.0584 15.4597 74.393 12.7462 74.9741 9.44952C75.1379 8.11302 75.5279 6.92638 76.8812 6.39178C79.9193 6.11233 80.7695 8.61522 81.7094 10.7415C83.7101 15.2734 85.6835 19.8175 87.5672 24.4021C88.2808 26.1314 88.8425 27.958 91.0499 29.6873C101.338 25.9006 111.295 20.3481 121.216 15.6784C122.051 12.0537 119.933 9.28753 120.857 6.34318C121.193 5.08363 121.509 3.80787 122.858 3.26112C128.084 2.93307 127.425 8.93111 130.95 11.3368C136.036 9.27536 141.746 8.72457 147.085 8.56662C148.996 6.54568 148.145 4.09544 149.378 2.39444C149.811 1.73429 150.392 1.28877 151.137 1.08222C154.007 0.964772 154.97 3.36239 156.277 5.30233C159.557 10.1623 162.068 10.9116 167.279 8.59903C171.561 6.69958 175.367 3.89293 179.509 1.72618C181.108 0.887833 182.594 -0.416258 184.598 0.341091C185.745 1.88819 188.186 2.60503 187.586 5.29828C176.12 13.8154 163.835 18.7605 149.335 15.9052C143.883 14.832 138.668 17.0473 133.092 19.1816C137.229 30.5338 143.072 40.3955 147.311 50.4476C149.39 51.7476 150.739 50.8566 152.084 50.237C159.085 47.0213 165.859 43.2426 172.973 40.3469C178.651 38.0344 181.046 34.3975 180.504 28.124C180.293 25.6697 179.645 22.373 183.409 21.5225L183.397 21.5185Z" fill="#555655"></path></svg>