<svg xmlns="http://www.w3.org/2000/svg" width="21" height="26" viewBox="0 0 21 26" fill="none"><path d="M4.57346 0.129883C7.79094 4.64967 9.30799 10.1455 12.0887 14.483C13.5239 16.0261 15.0605 15.7021 16.4996 15.7912C17.9075 16.0585 19.7092 15.1189 20.5243 17.2087C18.1765 18.0875 16.0277 19.5455 13.4888 19.8898L13.4459 19.906C10.2206 22.7167 6.31282 23.9438 2.34655 25.0333C1.64455 24.4055 0.720257 23.9924 0.443359 22.9475C2.02285 21.3154 4.12885 20.7281 6.11393 19.906C7.64272 19.2701 9.24559 18.772 10.3844 16.7591C8.8595 11.401 5.45096 6.66657 3.45417 1.29223C3.82857 0.903429 4.19907 0.518682 4.57346 0.129883Z" fill="#525250"></path></svg>