<svg xmlns="http://www.w3.org/2000/svg" width="15" height="25" viewBox="0 0 15 25" fill="none"><path d="M2.65656 7.04027C2.62536 6.70817 2.60589 6.38012 2.59419 6.04802C2.28609 5.68757 1.97795 5.32712 1.66985 4.96262C1.64255 4.62647 1.61918 4.29033 1.60358 3.95418C1.29158 3.60183 0.983445 3.24947 0.683147 2.88497C0.655847 2.54072 0.628566 2.20053 0.605167 1.85628C0.219069 0.758736 0.706589 0.576496 1.60358 0.827595H1.61139C1.94289 1.14349 2.25485 1.48773 2.54735 1.84818C2.58634 2.17623 2.61754 2.50428 2.64484 2.83638C2.94514 3.22112 3.27664 3.57752 3.61593 3.92582C3.94353 4.25792 4.25949 4.60623 4.55589 4.96668C7.46527 9.47432 10.3629 13.986 13.284 18.4815C14.2863 20.0245 15.585 21.4623 14.6061 23.548C13.7637 24.2001 12.8706 24.7266 11.7981 24.84C11.1078 24.1191 10.1562 23.5278 9.7701 22.6611C7.63292 17.8538 5.63619 12.9776 3.5887 8.12566C3.265 7.77736 2.99585 7.36831 2.65265 7.03622L2.65656 7.04027Z" fill="#363636"></path></svg>