<svg xmlns="http://www.w3.org/2000/svg" width="14" height="43" viewBox="0 0 14 43" fill="none"><path d="M3.58386 21.5085C3.69306 15.5186 3.78662 9.52863 2.56983 4.02469C4.14152 1.78099 5.79903 0.809034 7.90501 0.521484C10.5843 2.70848 11.9688 5.91604 13.9968 8.17998C13.9422 15.146 11.805 21.4316 11.7387 27.9804C14.4959 32.2774 11.4969 35.971 10.5765 39.8874C10.4868 41.1145 10.3542 42.3134 8.6733 42.9978C5.66252 42.6981 3.07685 41.2563 1.61826 37.9677C0.35467 36.1573 1.27504 34.3267 1.64164 32.5448C2.40213 28.8836 3.40836 25.275 3.57996 21.5045L3.58386 21.5085Z" fill="#343434"></path></svg>