<svg xmlns="http://www.w3.org/2000/svg" width="34" height="26" viewBox="0 0 34 26" fill="none"><path d="M7.49156 25.6183C7.37456 24.784 7.06648 24.051 6.44249 23.48C5.68589 18.8994 8.40805 14.412 7.05086 10.0866C4.84737 7.96035 2.6439 10.7953 0.432617 9.31303C1.59091 7.19489 3.55648 6.89114 5.44017 6.93569C10.4243 7.06124 15.2798 5.75715 20.2679 5.7288C24.3277 5.7045 27.904 3.78888 30.6379 0.492188C31.5934 1.56544 32.545 2.63461 33.4966 3.70786C30.9226 8.0778 26.5819 9.11867 22.2257 10.0097C20.459 10.3701 18.6104 10.2202 16.7969 10.285C13.6847 10.3984 11.8478 11.8727 11.6372 15.2301C11.4968 17.4576 10.787 19.5798 10.5179 21.7911C10.2956 23.6257 10.0421 25.671 7.49156 25.6224V25.6183Z" fill="#505151"></path></svg>