<svg xmlns="http://www.w3.org/2000/svg" width="6" height="6" viewBox="0 0 6 6" fill="none"><path d="M4.55488 1.32071C4.37781 1.12397 4.15482 0.966568 3.88594 0.855079C3.62361 0.74359 3.31535 0.68457 2.96121 0.68457C2.60707 0.68457 2.29881 0.74359 2.03649 0.855079C1.77416 0.966568 1.55117 1.12397 1.36754 1.32071C1.19047 1.51746 1.05275 1.75356 0.960938 2.02244C0.869124 2.29133 0.823242 2.58644 0.823242 2.91434V3.63575C0.823242 3.9571 0.869124 4.25222 0.960938 4.52766C1.05275 4.79654 1.19047 5.03264 1.36754 5.22939C1.54461 5.42613 1.7676 5.58352 2.03649 5.69501C2.29881 5.8065 2.60707 5.86552 2.96121 5.86552C3.31535 5.86552 3.62361 5.8065 3.88594 5.69501C4.14826 5.58352 4.37125 5.42613 4.55488 5.22939C4.73195 5.03264 4.86967 4.79654 4.96149 4.52766C5.0533 4.25877 5.09918 3.9571 5.09918 3.63575V2.91434C5.09918 2.59299 5.0533 2.29789 4.96149 2.02244C4.86967 1.75356 4.73195 1.51746 4.55488 1.32071ZM3.91868 3.63575C3.91868 4.00301 3.83999 4.29812 3.67603 4.51454C3.51208 4.73096 3.27601 4.84245 2.96121 4.84245C2.64642 4.84245 2.41035 4.73096 2.24639 4.51454C2.08244 4.29812 2.00375 4.00301 2.00375 3.63575V2.91434C2.00375 2.54709 2.08244 2.25197 2.24639 2.03555C2.41035 1.81913 2.64642 1.70764 2.96121 1.70764C3.27601 1.70764 3.51208 1.81913 3.67603 2.03555C3.83999 2.25197 3.91868 2.54709 3.91868 2.91434V3.63575Z" fill="#0B5463"></path></svg>