<svg xmlns="http://www.w3.org/2000/svg" width="35" height="50" viewBox="0 0 35 50" fill="none"><path d="M12.6916 49.6991C10.4296 49.6829 9.18161 48.553 8.25342 46.3296C6.83773 42.9398 5.81593 39.404 5.75743 35.832C5.66773 30.2835 4.57183 24.8484 4.53283 19.3202C4.51333 16.3029 3.74118 13.5449 2.13439 11.0055C1.23349 9.57588 0.301381 8.11384 0.0673828 6.36019C5.56244 1.62575 12.9295 -0.950046 17.044 0.435052C18.8068 2.37095 19.2552 4.99937 20.277 7.34431C23.5647 14.9016 26.8758 22.4467 30.2259 29.9716C30.5612 30.729 31.2087 31.3365 31.7118 32.0169C32.4645 33.7179 33.221 35.4189 34.2662 37.7719C27.2034 41.9434 20.9361 47.6255 12.6955 49.6991H12.6916Z" fill="#333333"></path></svg>