<svg xmlns="http://www.w3.org/2000/svg" width="16" height="41" viewBox="0 0 16 41" fill="none"><path d="M5.56409 4.3748C6.18028 3.6296 6.79647 2.88439 7.41267 2.1392C9.14036 1.7018 10.7043 0.454421 12.4514 0.89587C13.2821 1.41022 13.4498 2.10683 13.4264 2.78318C13.1027 11.7539 14.8616 20.6234 14.6042 29.5941C14.5535 31.2951 14.8421 33.0245 15.1346 34.7093C15.4739 36.6735 15.4466 38.4676 13.7228 40.1119C9.21058 38.5122 5.79419 36.0579 4.0587 30.8779C2.48701 26.184 -0.180545 21.887 0.377151 16.622C1.35994 12.1994 3.8988 8.48555 5.57189 4.37885L5.56409 4.3748Z" fill="#333333"></path></svg>