<svg xmlns="http://www.w3.org/2000/svg" width="29" height="30" viewBox="0 0 29 30" fill="none"><path d="M4.46385 4.27891C6.42164 2.36732 8.98786 1.9461 11.4292 1.2252C11.7139 1.533 12.022 1.80842 12.3613 2.05547C13.4806 2.41997 14.4244 1.79626 15.4306 1.48846C17.0374 0.439516 18.6325 -0.702584 20.3758 1.23331C23.3514 7.33665 26.2881 13.4562 28.5852 19.8835C23.7141 24.5815 17.3338 26.2137 11.9401 29.4456C8.73434 27.2221 8.13762 24.0105 6.80383 21.3172C6.05114 19.8025 5.87954 17.976 4.46775 16.8258C4.23765 16.7569 4.00755 16.6921 3.77745 16.6233C1.88596 15.0438 1.21909 12.8325 0.821289 10.7346C1.14109 8.08588 2.94678 7.23135 4.67446 6.34035C4.88896 6.1419 5.01765 5.87867 5.00205 5.55467C4.98645 5.27522 4.92406 5.13346 4.81486 5.13751C4.59646 4.88641 4.49115 4.59886 4.46775 4.27891H4.46385Z" fill="#333333"></path></svg>