<svg xmlns="http://www.w3.org/2000/svg" width="46" height="38" viewBox="0 0 46 38" fill="none"><path d="M19.7828 33.3621C16.0311 33.5606 13.344 36.9423 9.33089 37.1853C5.22422 31.7057 2.8764 25.3715 0.71582 18.1908C12.3572 11.808 24.5798 7.06144 36.5254 0.597656C40.1329 6.5309 42.387 12.4479 44.9922 17.4902C45.351 19.6691 44.0016 20.556 43.635 21.8561C43.5648 22.0869 43.4907 22.3178 43.4244 22.5486C40.71 24.9422 37.3366 25.8129 34.0567 26.8983C33.5887 26.8862 33.1402 26.7849 32.7151 26.5743C32.2627 26.4609 31.8376 26.2787 31.4437 26.0195C28.8112 27.7245 26.1788 29.4336 23.5463 31.1387C23.1251 33.4067 22.0526 34.4758 19.7828 33.354V33.3621Z" fill="#333333"></path></svg>