<svg xmlns="http://www.w3.org/2000/svg" width="6" height="6" viewBox="0 0 6 6" fill="none"><path d="M4.57629 0.867101C4.39922 0.670355 4.17631 0.512965 3.90742 0.401476C3.64509 0.289987 3.33684 0.230957 2.9827 0.230957C2.62856 0.230957 2.3203 0.289987 2.05797 0.401476C1.79565 0.512965 1.57265 0.670355 1.38903 0.867101C1.21196 1.06385 1.07424 1.29994 0.982423 1.56883C0.890608 1.83771 0.844727 2.13283 0.844727 2.46074V3.18213C0.844727 3.50348 0.890608 3.7986 0.982423 4.07405C1.07424 4.34293 1.21196 4.57903 1.38903 4.77578C1.5661 4.97252 1.78909 5.12991 2.05797 5.2414C2.3203 5.35289 2.62856 5.41192 2.9827 5.41192C3.33684 5.41192 3.64509 5.35289 3.90742 5.2414C4.16975 5.12991 4.39266 4.97252 4.57629 4.77578C4.75336 4.57903 4.89108 4.34293 4.98289 4.07405C5.07471 3.80516 5.12067 3.50348 5.12067 3.18213V2.46074C5.12067 2.13939 5.07471 1.84427 4.98289 1.56883C4.89108 1.29994 4.75336 1.06385 4.57629 0.867101ZM3.94016 3.18213C3.94016 3.54939 3.86147 3.84451 3.69752 4.06093C3.53356 4.27735 3.29749 4.38884 2.9827 4.38884C2.6679 4.38884 2.43183 4.27735 2.26788 4.06093C2.10392 3.84451 2.02523 3.54939 2.02523 3.18213V2.46074C2.02523 2.09348 2.10392 1.79836 2.26788 1.58194C2.43183 1.36552 2.6679 1.25403 2.9827 1.25403C3.29749 1.25403 3.53356 1.36552 3.69752 1.58194C3.86147 1.79836 3.94016 2.09348 3.94016 2.46074V3.18213Z" fill="#0B5463"></path></svg>