<svg xmlns="http://www.w3.org/2000/svg" width="52" height="43" viewBox="0 0 52 43" fill="none"><path d="M7.35997 42.3575C6.61117 42.7098 5.88577 43.1837 4.72358 42.8718C2.7736 41.5151 1.76353 39.1701 0.464844 36.5417C5.8897 31.6452 12.4455 28.5713 18.3696 23.9016C17.7027 17.7781 21.2283 14.1007 25.9122 11.29C30.1163 8.76687 32.3705 4.56295 34.4765 0.32666C38.9692 0.55346 42.1984 2.18965 44.1718 6.08979C46.5391 10.7797 50.0881 14.7811 51.9874 19.88C47.3152 23.7559 41.8708 23.9543 36.6917 24.6063C32.9126 25.0802 29.6561 26.1616 26.7272 28.705C21.0996 33.5893 14.5944 37.1249 8.45198 41.2154C8.40908 41.9201 8.06197 42.317 7.36777 42.3534L7.35997 42.3575Z" fill="#333333"></path></svg>