<svg xmlns="http://www.w3.org/2000/svg" width="34" height="29" viewBox="0 0 34 29" fill="none"><path d="M0.518555 20.6343C0.573154 18.7105 1.91084 17.6049 3.04963 16.3858C5.22582 14.049 7.55411 11.862 9.2974 9.11201C9.74199 8.41136 10.3309 7.65403 11.029 7.30573C15.4477 5.10658 19.722 2.53078 24.2616 0.975586C27.5259 3.09778 27.6351 6.73871 29.2769 9.4117C32.7128 10.0435 32.5764 13.1539 33.4617 15.5151C31.9641 19.3869 28.0407 19.5084 25.5759 21.6508C25.1625 21.9181 24.7218 22.1328 24.2655 22.2988C20.1471 23.9229 16.4071 26.4136 12.3004 28.0782C11.3956 28.5075 10.4986 28.5763 9.60941 28.0417C7.46053 27.7906 6.29443 26.0613 4.87874 24.6843C3.45525 23.3032 1.97324 21.9829 0.518555 20.6383V20.6343Z" fill="#333333"></path></svg>