<svg xmlns="http://www.w3.org/2000/svg" width="100" height="150" viewBox="0 0 100 150" fill="none"><path d="M32.7227 2.93244C34.5752 3.66144 36.4394 4.37425 38.284 5.1235C47.8312 9.00744 53.6265 16.8644 58.2363 25.819C67.955 44.6919 77.393 63.7269 87.2404 82.527C91.078 89.8534 94.1043 97.5119 96.6588 105.32C99.2211 113.153 100.555 121.366 98.9675 129.746C98.9052 130.082 98.8389 130.434 98.8506 130.775C99.0651 136.683 98.2383 142.451 96.6939 148.121C94.4982 150.895 93.5427 148.882 92.3649 147.015C88.6287 141.09 85.8637 134.581 82.0886 128.685C81.6323 127.972 81.3709 127.121 79.9942 126.307C72.7052 128.689 66.2274 134.023 59.2698 136.971C56.5905 136.339 55.869 134.521 55.0578 132.832C38.0539 97.4714 20.0204 62.6536 3.24276 27.1757C2.20926 24.9887 -0.477839 23.3971 0.586853 20.315C1.90114 18.934 3.66398 18.3305 5.31757 17.6582C13.2696 14.4101 20.0672 9.4813 25.769 2.90006C26.1824 2.09411 27.1535 2.31684 27.7073 1.76604L27.7424 1.75793C29.8289 0.198685 31.4162 0.935797 32.7227 2.93649V2.93244Z" fill="#333333"></path></svg>