<svg xmlns="http://www.w3.org/2000/svg" width="32" height="36" viewBox="0 0 32 36" fill="none"><path d="M3.79057 23.8803C3.04568 23.0176 2.29689 22.1549 1.55199 21.2923C1.3453 20.7658 1.02943 20.3527 0.510732 20.13L0.495117 20.1542C3.2095 12.6698 8.52908 7.07679 12.8035 1.02611C18.6924 0.572507 23.8793 0.758846 28.4735 4.30664C29.7293 5.27864 31.184 6.38427 31.145 7.83011C30.9968 13.3543 32.7089 19.2309 28.9221 24.1962C25.9815 28.0477 23.8521 32.697 19.3281 35.042C17.8422 35.1999 16.7736 34.3656 15.748 33.422L15.7869 33.4625C15.3345 33.2843 15.046 32.8753 14.6755 32.5837L14.5897 32.527C14.1529 31.8466 13.0881 32.1463 12.78 31.2675L12.8424 31.3282C12.3237 31.2391 12.0429 30.7977 11.688 30.4696L11.6257 30.4291C11.1694 29.777 10.0812 30.0849 9.81992 29.1453L9.88238 29.2141C9.32468 29.1371 9.01269 28.7281 8.72019 28.2907L8.728 28.2988C8.377 28.0072 8.01821 27.7277 7.65551 27.4604L7.51507 27.3754C6.32948 26.1523 4.79677 25.3261 3.79838 23.8884L3.79057 23.8803Z" fill="#333333"></path></svg>