<svg xmlns="http://www.w3.org/2000/svg" width="46" height="48" viewBox="0 0 46 48" fill="none"><path d="M1.5232 11.7913C9.46744 7.98433 17.482 4.35554 25.6836 1.1844C28.593 0.0908972 30.3947 1.30589 31.6544 4.06799C35.6987 12.9375 39.6064 21.8718 44.341 30.3929C46.7317 34.6981 46.1818 35.8442 41.1704 39.3961C40.7687 39.6836 40.3475 39.9428 39.9107 40.1696C39.4778 40.3762 39.0488 40.603 38.6354 40.8541C38.222 41.089 37.7891 41.2834 37.3406 41.4413C33.8696 42.8872 30.6209 44.8271 27.2046 46.3985C26.3193 46.8319 25.4808 47.3705 24.4707 47.4596C21.6783 47.9011 19.8531 46.6658 18.2776 44.252C12.4315 35.3056 7.05728 26.0432 1.24632 17.0725C0.0646277 15.25 -0.898681 13.4235 1.5232 11.7913Z" fill="#333333"></path></svg>