<svg xmlns="http://www.w3.org/2000/svg" width="32" height="47" viewBox="0 0 32 47" fill="none"><path d="M19.4282 7.04752C21.4795 14.7223 25.594 21.4777 28.4722 28.7879C29.5993 31.6472 31.0267 34.3728 31.7443 37.7303C25.9606 41.4441 19.7441 44.0726 13.5665 46.458C10.4349 43.0601 8.64475 39.407 6.17607 31.6512C6.37887 29.8814 8.52775 29.768 9.10105 27.4838C6.36717 21.2833 3.80881 14.4023 0.302734 7.95474L0.341725 7.93447C0.708322 7.71577 1.04761 7.45657 1.35571 7.14877C5.55208 4.67827 9.93956 2.6128 14.3816 0.664749C19.4438 -0.0885494 18.4376 4.32997 19.4282 7.04752Z" fill="#333333"></path></svg>