<svg xmlns="http://www.w3.org/2000/svg" width="31" height="24" viewBox="0 0 31 24" fill="none"><path d="M17.4776 19.4041C18.1523 18.9059 18.8621 18.4442 19.0532 17.4722C18.9986 17.1806 19.0493 16.719 18.8543 16.5367C13.2422 11.2393 7.52879 6.08772 0.540039 2.76268C1.12113 2.10253 1.70222 1.44238 2.28332 0.782227C9.30326 5.37897 15.8279 10.7006 22.4579 15.8563C25.2112 17.9987 28.6627 19.2947 30.5269 22.5995C27.8203 23.7376 25.1137 24.1102 22.4072 22.5995C22.5944 22.3606 22.7738 22.1176 22.9493 21.8706C22.7699 22.1136 22.5944 22.3565 22.4111 22.5914C20.5079 21.9637 18.9752 20.7163 17.4776 19.4081V19.4041Z" fill="#505251"></path></svg>