<svg xmlns="http://www.w3.org/2000/svg" width="62" height="22" viewBox="0 0 62 22" fill="none"><path d="M61.7475 1.8161C59.6688 3.27409 57.5901 4.72801 55.5076 6.186C49.0258 7.5711 42.5557 9.03318 36.0545 10.317C31.9361 11.127 27.9425 12.0221 24.9825 15.5091C24.3585 16.2421 23.3718 16.8213 22.4514 17.0724C16.2153 18.7653 10.147 21.1791 3.66911 21.8473C3.25181 21.7582 2.84622 21.6287 2.45622 21.4505C1.21213 20.8146 0.32683 19.9155 0.35413 18.3481C0.37753 18.1254 0.400954 17.9026 0.428254 17.6799C6.41861 14.5614 13.107 13.7433 19.3626 11.4834C28.0088 8.36493 37.0256 6.72466 45.9643 4.82927C51.0226 3.75602 55.804 1.83631 60.6205 0.00976562C61.5058 0.268965 61.9035 0.856248 61.7436 1.8161H61.7475Z" fill="#565656"></path></svg>