<svg xmlns="http://www.w3.org/2000/svg" width="39" height="47" viewBox="0 0 39 47" fill="none"><path d="M11.5567 36.804C9.24397 31.0813 7.17698 25.2534 4.3417 19.7616C2.77782 16.7322 1.15155 13.6947 0.65625 9.75408C5.84711 5.74459 12.0129 3.69934 18.1749 0.916992C21.5484 4.00309 22.8666 8.42973 25.0623 12.1841C28.7828 18.5345 32.0705 25.1562 35.6078 31.624C36.4229 33.1185 37.511 34.4509 38.4743 35.8603C38.6264 38.0838 38.7784 40.3072 38.9422 42.7129C35.4752 45.4062 31.5089 43.6323 27.8547 44.0656C24.2043 44.499 21.1896 47.3218 17.3403 46.9735C14.0058 44.3815 14.349 39.6147 11.5488 36.804H11.5567Z" fill="#333333"></path></svg>