<svg xmlns="http://www.w3.org/2000/svg" width="27" height="26" viewBox="0 0 27 26" fill="none"><path d="M5.66333 21.3925C3.18685 18.4562 2.2274 14.7829 0.928711 11.1055C1.49811 10.4454 2.04029 9.81357 2.58239 9.18178C2.45369 7.36333 3.59248 6.44803 4.91457 5.66638C7.87464 4.22864 10.9244 2.99337 13.8455 1.47057C15.4172 1.40982 16.7198 -0.242564 18.4514 0.644384C19.0402 0.944083 19.8826 1.08177 20.179 1.57182C22.7959 5.93772 25.0929 10.4697 26.5827 15.2162C23.5213 18.2254 13.2293 23.7131 8.29581 25.078C7.80441 24.2518 7.29347 23.3891 6.78257 22.5265C6.08838 22.49 5.72963 22.1012 5.65943 21.3965L5.66333 21.3925Z" fill="#333333"></path></svg>