<svg xmlns="http://www.w3.org/2000/svg" width="148" height="157" viewBox="0 0 148 157" fill="none"><path d="M141.576 8.37082C140.23 9.41572 139.384 10.8858 138.452 12.2831C138.772 14.6483 137.368 16.1711 135.94 17.621C126.37 27.3653 115.672 35.846 106.503 46.0439C105.442 47.2224 104.085 47.834 102.498 47.7854C101.542 48.1418 100.891 48.806 100.571 49.8104C100.571 50.0574 100.571 50.3003 100.575 50.5433C100.622 51.0334 100.587 51.5194 100.49 52.0014C97.8414 56.4564 95.478 61.1017 91.7341 64.7791C89.2303 67.2415 87.1945 70.1332 85.8373 73.4785C80.3071 80.4202 75.6077 88.022 70.0502 94.9435C69.3326 95.7616 68.264 96.2637 67.952 97.4544C67.8194 97.8918 67.6401 98.3009 67.4295 98.6978C67.1409 99.3296 66.8639 99.9695 66.4739 100.545C59.8752 110.086 52.3287 118.956 47.4226 129.688C47.0365 130.523 46.5919 131.325 46.1473 132.131C45.9211 132.523 45.6559 132.892 45.3751 133.24C44.6029 134.394 44.0959 135.65 43.9711 137.067C41.1592 146.743 34.1237 153.409 27.989 160.594C21.1758 168.568 16.0902 177.628 10.9227 186.692C9.08585 189.916 7.75596 193.67 3.79748 194.938C3.61808 195.088 3.43478 195.237 3.25148 195.387C2.34668 195.274 1.44581 195.16 0.541016 195.047C2.4988 191.268 4.45656 187.486 6.41435 183.707C7.10075 183.245 6.81998 182.225 7.46737 181.743L7.47518 181.727C7.61558 180.058 7.98997 178.519 9.51486 177.592C11.9289 174.477 13.4577 170.804 15.2166 167.309C17.4045 162.955 20.115 159.136 23.6405 155.896C24.2606 155.325 24.7989 154.661 25.4111 154.077C31.9865 147.832 37.31 140.733 40.3285 131.863C42.5554 125.318 46.2565 119.604 50.2851 114.076C54.1851 108.726 57.7653 103.128 61.4859 97.6407C62.6598 96.1382 62.2854 94.0808 63.2018 92.481C64.4381 90.6059 65.6823 88.7389 67.2462 87.127C68.5995 86.0213 69.9878 84.9602 71.4932 84.0732C77.1794 76.2203 83.1619 68.582 88.4737 60.4658C94.9749 50.5271 103.032 42.1356 111.269 33.8615C121.054 24.0362 130.847 14.2149 140.636 4.3937C142.309 3.3002 141.903 -0.757852 145.417 0.785195C145.99 1.53039 146.774 1.88272 147.648 2.07307C145.55 4.04946 143.027 5.57635 141.63 8.28984L141.556 8.37082H141.576Z" fill="#DFBD62"></path></svg>