<svg xmlns="http://www.w3.org/2000/svg" width="305" height="144" viewBox="0 0 305 144" fill="none"><path d="M2.87612 143.192C1.79192 141.811 0.434783 140.56 0.78188 138.49C7.64583 127.62 14.3421 116.632 21.2763 105.807C22.8401 104.397 24.4859 103.061 25.1333 100.878C33.994 85.2489 44.1807 70.5312 54.0789 55.6151C55.8222 52.9908 56.8869 50.1801 57.6162 47.1507C58.7238 45.636 60.077 45.2634 61.7033 46.2111C63.197 46.3447 63.8327 45.1176 64.2149 44.0767C66.7148 37.2606 72.0305 32.4006 75.556 26.2891C77.7244 22.5267 81.4177 20.1696 84.5922 17.4035C116.759 -10.6184 148.907 -38.6687 181.257 -66.4597C188.807 -72.9438 194.883 -80.6874 200.85 -88.5362C216.197 -108.705 234.066 -126.355 251.741 -144.199C257.521 -150.035 262.517 -156.244 266.311 -163.732C273.367 -177.66 280.995 -191.276 288.401 -205.01C289.134 -206.367 290.051 -207.638 289.832 -209.323H292.835C294.836 -207.416 296.837 -208.173 298.837 -209.323H304.839C301.115 -205.978 296.821 -203.993 291.673 -203.653C287.289 -195.493 282.91 -187.36 278.55 -179.216C274.587 -171.812 270.66 -164.389 266.678 -156.993C264.966 -153.81 262.657 -151.177 260.072 -148.667C253.149 -141.931 246.624 -134.747 239.647 -128.072C222.928 -112.075 208.721 -93.7567 194.217 -75.7059C191.428 -72.2391 188.429 -69.0477 185.087 -66.16C159.987 -44.4926 134.765 -22.975 109.919 -1.00377C99.4122 8.28693 89.1396 17.8935 78.754 27.3462C77.8882 28.1359 77.0497 29.0269 76.4257 30.0232C72.4322 36.3939 68.501 42.805 64.5464 49.2081C63.8951 50.5243 64.5425 52.1362 63.6572 53.3998C61.4849 57.3688 59.301 61.3256 56.1888 64.6142C55.2801 65.651 54.5468 66.8174 53.8643 68.0243C51.7896 72.4307 48.7944 76.2053 46.1308 80.2067C44.7307 81.3853 43.7868 82.8959 43.1628 84.6374C41.6536 87.4279 40.1482 90.2264 38.128 92.6766C37.2583 93.7175 36.5914 94.9001 35.9635 96.107C35.1133 98.2697 33.8263 100.157 32.477 101.996C31.7672 102.781 30.9403 103.466 30.3982 104.414C30.2032 104.786 29.9887 105.151 29.782 105.515C29.4115 106.289 29.1737 107.131 28.7564 107.888C27.6098 109.832 26.5919 111.861 25.0982 113.558C24.0765 115.065 22.961 116.499 21.986 118.038C20.3012 121.905 17.4465 124.987 15.4458 128.645C15.204 129.05 14.8998 129.398 14.5527 129.706C14.2251 130.022 13.8858 130.329 13.5504 130.641C12.7626 131.516 11.5887 131.702 10.6839 132.375C7.68479 135.671 6.10529 140.07 2.87221 143.18L2.87612 143.192Z" fill="#DEBC61"></path></svg>