<svg xmlns="http://www.w3.org/2000/svg" width="254" height="222" viewBox="0 0 254 222" fill="none"><path d="M0.444266 122.523C2.75695 122.288 3.69295 120.384 4.84345 118.683C11.0561 109.498 17.2961 100.333 23.5282 91.1595C23.8129 90.7383 24.0859 90.3091 24.5149 89.6611C31.2658 93.3385 37.1859 97.7408 43.1685 102.03C44.7753 103.18 45.2004 105.051 45.6957 106.93C47.0801 112.191 49.2914 115.913 53.1992 120.068C54.7046 120.51 55.7186 119.477 56.8184 118.748C62.1418 115.212 67.1533 111.207 72.3286 107.465C83.2446 99.5714 94.4609 92.1275 105.478 84.3839C108.914 81.9661 112.459 80.5081 116.675 80.9171C118.656 81.1115 120.688 80.7551 122.662 80.986C131.643 82.0511 136.932 76.8307 140.999 69.5164C141.912 67.8721 142.727 66.1549 143.413 64.3972C145.153 59.9463 148.616 58.3505 152.886 58.148C155.207 58.0387 157.527 58.1521 159.832 58.6908C163.264 59.4886 166.743 59.1039 170.811 59.1363C168.365 54.2196 165.85 50.5989 160.679 49.5702C151.962 47.8368 144.049 43.6815 135.914 40.1985C131.409 38.2707 128.317 34.7027 125.208 31.1022C124.108 29.8265 123.379 28.1619 121.46 27.9675C120.77 26.4731 121.261 25.3715 122.517 24.525C124.218 24.2091 125.438 25.1528 126.417 26.3597C134.818 36.7357 146.685 40.5468 158.483 44.1918C163.931 45.8725 168.685 47.8489 172.176 52.8102C174.804 56.5443 178.252 59.3388 183.255 57.3178C184.718 55.5439 183.938 53.7214 183.606 51.8665C182.128 43.5316 179.738 35.4398 177.694 27.2547C177.031 24.5979 176.064 21.9047 177.71 19.2317C178.626 18.1301 179.742 17.6238 181.146 18.0329C183.688 20.8112 183.54 24.6303 184.698 27.9513C185.537 30.3489 185.471 33.0705 187.417 35.6787C195.162 32.7181 202.631 28.7168 210.38 25.4484C211.756 24.8693 213.067 24.1119 214.424 23.4801C221.304 20.2644 222.427 15.5745 217.887 8.96496C217.396 8.25216 217.049 7.49078 216.975 6.60383C217.096 5.21063 218.082 4.42896 218.944 3.55012C220.765 3.03577 222.201 1.86937 223.558 0.561219C225.258 0.31822 226.288 1.38337 227.247 2.59027C229.388 9.16746 235.336 7.72563 239.953 8.98923C241.135 9.31323 242.516 8.31288 243.771 9.19578C245.714 11.6622 245.152 14.3838 244.547 17.1135C240.827 20.1348 235.96 20.5722 232.001 23.0873C230.309 24.1605 228.32 24.6911 226.381 26.469C224.899 32.8234 226.097 39.676 225.36 46.6744C233.21 47.5735 240.269 44.7021 247.507 45.3258C249.957 47.938 248.912 51.1578 248.958 54.1872C245.94 58.9419 240.827 58.1562 236.428 59.1039C234.17 59.5899 231.849 59.7073 229.314 60.8737C231.561 65.5839 233.62 70.1523 237.512 73.5745C241.615 72.2421 245.538 71.3389 246.731 66.41C247.039 65.1343 247.757 63.7492 249.567 64.2474C252.082 66.7827 250.787 69.8849 250.768 72.7928C249.282 74.7409 247.184 75.968 245.405 77.5718C247.773 77.7865 247.933 73.7932 250.647 74.6639C253.003 77.2802 251.875 80.3501 251.704 83.2864C248.674 87.1865 244.996 85.3762 241.65 84.2057C236.467 82.3954 231.912 83.3917 227.493 86.3846C226.767 90.3253 229.189 92.5608 231.607 95.5133C237.808 92.5649 245.581 92.9092 249.691 85.5098C250.031 84.9023 250.768 84.7646 251.482 84.9712C254.032 87.1582 252.776 90.0499 252.831 92.6986C246.786 98.5022 239.076 100.454 231.428 102.455C229.809 102.88 228.218 101.876 226.865 100.762C223.017 97.5977 218.775 97.3304 214.139 99.9602C221.721 104.415 223.979 113.163 229.369 119.433C233.998 119.445 237.621 116.747 241.642 115.346C244.598 114.313 247.465 111.491 250.873 114.249C251.002 115.01 251.103 115.763 250.351 116.278C249.73 117.314 249.114 118.351 248.494 119.388C243.65 121.875 238.502 123.709 233.928 126.18C233.07 128.825 233.745 130.594 235.071 131.805C238.144 133.749 240.796 130.153 243.522 131.927C243.533 133.624 243.545 135.321 243.553 137.022C237.005 141.311 230.04 142.307 222.259 139.715C217.326 142.412 212.568 145.822 208.145 149.37C207.23 153.933 208.058 157.822 210.629 161.038C220.769 152.659 233.713 149.492 244.657 142.129C245.46 143.453 245.507 144.931 245.437 146.426C243.806 151.148 239.984 153.023 235.858 154.761C230.387 157.061 224.166 157.608 219.603 162.079C214.561 162.784 211.573 167.073 207.537 169.535C204.518 165.254 201.827 160.759 199.542 155.579C184.839 163.699 172.261 174.399 158.916 183.584C159.392 187.553 161.771 189.7 163.186 192.361C164.216 194.297 165.807 196.075 164.551 198.545C163.709 199.375 162.671 199.614 161.552 199.598C159.041 198.841 158.342 196.362 156.962 194.495C155.57 192.608 154.579 190.388 152.594 188.651C148.347 189.793 145.609 193.312 142.388 195.54C142.087 199.651 145.866 200.797 146.678 203.741C144.751 204.904 142.559 205.102 140.445 205.592C138.753 204.227 137.817 202.056 135.43 200.607C128.668 204.049 122.767 209.176 116.909 213.611C116.468 216.345 118.754 217.394 118.75 219.37C117.046 221.424 114.745 221.367 112.436 221.294C109.433 219.852 108.431 216.823 107.159 214.04C105.814 211.084 104.437 208.184 101.617 206.196C96.2588 208.492 93.1271 214.162 87.4878 215.737C86.0175 214.923 84.4263 214.32 83.2134 213.06C85.1478 209.193 89.2505 207.88 92.0546 205.017C93.6926 203.344 95.7596 202.129 97.0622 199.485C94.9406 194.872 91.9844 190.603 88.5642 186.083C83.0067 188.736 78.3228 192.389 73.7169 196.111C74.2395 199.93 76.7706 202.178 78.2058 205.025C79.1652 206.929 80.9397 208.694 79.3095 211.112C77.1606 210.27 74.8869 209.695 73.1358 207.994C72.313 204.985 69.349 203.932 68.2648 201.672C65.9092 201.364 64.201 202.048 62.4499 202.433C60.9562 202.052 59.4314 201.745 58.3043 200.509C58.9595 197.796 62.0834 197.229 63.1714 194.118C61.0811 189.396 57.9728 184.88 54.4394 180.251C48.6635 182.139 45.0132 187.529 39.3699 189.056C37.7592 188.392 36.3825 187.395 35.3529 185.925C37.3497 181.588 42.4977 181.045 45.1848 176.967C45.294 174.075 44.865 170.73 46.9124 167.895C44.3697 163.367 42.2598 158.928 38.0946 155.51C33.8514 158.479 30.0919 162.443 25.1233 160.815C22.873 161.585 22.0189 163.302 20.4472 163.958C18.3491 162.974 17.8264 160.941 17.3195 158.896C19.6828 153.902 25.3027 152.999 28.8049 149.232C28.5514 146.406 27.0109 144.494 25.0024 142.655C20.0066 142.995 17.3389 148.775 12.1949 148.718C11.2472 147.803 10.709 146.653 10.4204 145.361C15.4046 139.103 20.9659 133.944 30.1075 134.426C35.7507 130.643 41.9868 126.779 47.9849 121.692C44.3892 116.209 42.0843 110.62 39.6078 103.751C28.1068 117.582 20.7007 132.579 10.4087 145.34C8.86042 143.19 8.10771 140.659 7.26922 138.172C9.6443 133.004 14.1488 129.525 17.027 124.689C20.9425 118.108 25.6615 112.058 29.698 105.537C30.6691 103.97 31.9288 102.512 31.8547 100.41C30.4585 98.3078 28.567 97.0847 25.8877 96.4245C20.9815 100.75 18.1423 106.886 14.3867 112.24C11.2667 116.691 8.12331 121.105 4.78103 125.374C4.11024 126.228 3.38874 126.82 2.29285 126.787C1.32176 125.54 0.530079 124.207 0.40918 122.551L0.444266 122.523Z" fill="#525353"></path></svg>