<svg xmlns="http://www.w3.org/2000/svg" width="443" height="313" viewBox="0 0 443 313" fill="none"><path d="M339.843 -209.318H448.898C451.461 -208.063 451.964 -205.434 452.822 -203.021C458.317 -187.501 462.244 -171.649 464.724 -155.235C466.744 -141.854 469.677 -128.606 471.206 -115.111C471.534 -112.228 470.699 -109.255 471.908 -106.473V-82.5779C471.385 -82.1446 470.793 -81.5249 470.145 -81.7963C464.28 -84.2505 460.38 -80.885 456.55 -77.0416C450.205 -70.675 443.54 -64.6648 436.816 -58.7437C432.6 -55.0339 426.895 -55.0623 421.829 -53.7744C411.388 -51.1257 401.003 -48.2178 390.481 -45.9133C388.039 -45.3787 385.933 -44.2245 384.432 -41.7904C381.811 -37.542 378.586 -33.7957 374.027 -31.6371C365.86 -27.7693 361.558 -19.7949 356.36 -13.0112C350.853 -5.82245 344.473 -0.865265 336.556 3.45609C321.919 11.4467 306.697 18.684 293.909 30.024C289.838 33.6326 290.435 39.1446 288.106 43.4498C287.104 45.3047 286.971 47.7914 285.93 49.7475C280.93 59.1718 283.851 68.4544 286.273 77.7451C286.535 78.7495 286.819 79.7336 286.878 80.7704C286.905 81.2848 286.753 81.7951 286.402 82.4755C284.46 84.6422 281.433 84.8164 278.805 85.3226C270.865 86.8576 264.274 90.7861 258.572 96.4803C251.365 103.677 243.549 110.169 235.737 116.564C230.629 120.748 228.07 125.997 226.011 131.768C221.003 145.83 215.668 159.761 210.544 173.774C208.789 178.578 204.783 181.798 201.585 185.414C185.67 203.388 185.537 203.267 181.77 226.991C181.15 230.887 179.921 234.638 179.348 238.554C179.024 240.769 177.87 242.665 176.185 244.269C173.486 246.84 171.236 249.991 168.326 252.239C161.24 257.702 158.202 265.154 157.859 273.923C157.578 281.132 155.113 287.045 150.398 292.37C144.583 298.939 140.021 306.715 131.94 312.223C124.417 310.688 116.398 307.129 107.534 309.158C104.082 305.841 101.364 302.094 100.256 297.21C100.175 272.015 100.249 246.828 100.213 221.641C100.21 218.891 100.436 216.109 99.5388 213.452C98.7588 211.549 97.2222 210.97 95.3775 210.921C90.1633 209.88 84.7969 210.277 79.5944 209.111C77.4104 208.621 75.3005 209.03 73.2491 209.908C67.1145 212.533 61.0383 215.125 55.5939 219.313C49.7323 223.82 43.4728 227.757 37.0456 231.442C32.4944 234.051 29.4095 238.967 24.4643 241.223C22.8263 241.968 21.59 243.657 18.9731 243.418C14.262 239.396 11.3448 233.419 7.88945 227.882C7.64375 227.457 7.402 227.024 7.1524 226.598C4.87092 223.484 2.98332 220.118 1.29463 216.623C1.20883 215.08 0.604304 213.663 0.284507 212.172C0.190907 211.119 0.183081 210.07 0.354679 209.022C1.27117 206.211 1.3375 203.339 0.865599 200.44C0.7369 197.835 2.24623 195.778 3.44352 193.834C14.1489 176.403 25.8839 159.685 36.5503 142.225C40.2709 139.269 41.2849 133.959 45.3409 131.29C50.6332 131.25 53.9598 135.336 57.8597 138.021C65.4296 143.233 72.6368 149.021 80.7683 154.156C87.6478 146.194 91.6219 136.494 98.2206 129.536C103.31 130.597 103.813 135.466 107.83 137.786C120.123 120.493 131.066 102.138 142.314 84.9217C141.822 81.4995 139.935 80.6003 138.293 79.4461C126.577 71.2287 114.753 63.1813 103.041 54.9558C101.06 53.5626 98.4507 52.5461 98.3688 49.3546C103.595 37.4639 110.619 26.9298 120.517 18.7043C130.633 10.2925 139.962 0.945099 149.954 -7.61255C160.956 -17.0369 171.891 -26.5544 182.846 -36.0354C193.801 -45.5164 204.69 -55.0866 215.742 -64.4461C228.725 -75.4418 238 -89.8841 248.947 -102.775C254.754 -109.616 260.639 -116.331 267.269 -122.458C277.826 -132.219 287.833 -142.704 297.302 -153.611C302.252 -159.309 304.919 -166.915 308.593 -173.666C313.581 -182.835 318.436 -192.086 323.397 -201.271C324.801 -203.875 326.498 -205.276 329.481 -205.88C332.999 -206.589 336.349 -208.269 339.839 -209.318L339.843 -209.318Z" fill="#333333"></path></svg>