<svg xmlns="http://www.w3.org/2000/svg" width="82" height="104" viewBox="0 0 82 104" fill="none"><path d="M24.5706 0.681527C23.6268 6.54997 25.1672 11.6368 28.1234 16.7519C32.0078 23.4709 34.8704 30.8053 38.9849 37.6134C42.3856 38.9053 44.7607 36.0744 47.5998 35.0336C47.904 35.3049 48.2473 35.5074 48.6334 35.6289C49.2301 35.7261 49.819 35.8436 50.3065 36.2526C50.5795 36.5766 50.7355 36.9492 50.7901 37.3745C47.8495 38.8973 44.5189 39.6546 42.0541 41.9996C42.7483 46.7097 59.1126 80.9484 62.5056 84.6419C68.7417 82.1958 74.498 78.3726 80.7029 75.5578C81.397 76.0965 81.7441 76.7971 81.6349 77.7124C77.5633 81.568 72.3569 83.3338 67.6028 85.9339C65.8907 86.8735 63.8667 87.4972 63.6678 90.0122C63.6054 91.0166 63.5586 92.0211 62.6655 92.6893C56.7492 94.3458 51.6948 97.8733 46.3441 100.773C43.5166 102.308 40.8256 104.75 37.2143 103.053C36.4694 102.344 36.0014 101.482 35.8883 100.429C36.5084 96.5773 39.7337 95.5242 42.4247 93.9245C46.9837 91.215 52.116 89.5222 56.5152 85.7881C52.1628 76.3233 48.1498 67.0771 43.7701 58.0132C43.3606 57.1708 42.9784 56.3122 42.5767 55.4658C41.0323 52.6591 40.1392 49.4678 38.0449 46.9932C35.8024 46.6247 33.8252 48.3743 31.6412 47.5967C30.4985 46.7057 29.0165 46.5356 27.8504 45.6851C27.7256 45.5514 27.6008 45.4137 27.476 45.276C30.1358 42.9959 33.8993 42.4977 36.5161 39.2699C33.5795 35.556 31.0874 31.5628 26.7623 29.3839C22.7453 27.3629 18.5256 25.7186 14.5788 23.641C9.59074 21.0166 5.12917 17.3108 0.441406 14.0708C1.198 13.0502 2.1574 12.3374 3.37029 12.0215C7.83576 13.1029 11.2132 16.3105 15.0897 18.5339C18.1278 20.2754 21.1853 21.94 24.5861 23.2481C23.3459 16.7884 20.0777 11.1103 19.2314 4.69103C19.0559 3.35048 18.5022 2.01401 19.3875 0.718013C21.0996 -0.537485 22.8234 0.138828 24.5472 0.681527H24.5706Z" fill="#535353"></path></svg>