<svg xmlns="http://www.w3.org/2000/svg" width="106" height="62" viewBox="0 0 106 62" fill="none"><path d="M105.394 4.99017C100.391 7.28246 95.2816 9.352 90.4145 11.9197C83.6363 15.4958 76.3746 18.0595 70.2711 21.8827C69.5301 23.2678 69.7095 24.1061 70.0605 24.8999C74.6547 35.195 79.28 45.4779 83.8547 55.7852C84.7712 57.8507 86.0504 59.1993 88.3904 59.0535C87.0449 60.4386 85.3601 61.0259 83.531 61.2648C79.1708 51.3828 74.9082 41.4482 70.3764 31.6513C69.2454 29.2051 69.1128 26.2283 67.1277 24.4018C65.5482 23.5675 64.3627 24.3451 63.1771 24.9242C56.4067 28.229 49.5544 31.3759 42.9011 34.9318C35.3468 38.9696 27.3207 41.8532 19.669 45.6278C14.716 48.0699 9.80592 50.6052 4.87635 53.1C3.52696 53.7845 2.16198 54.4446 1.37809 55.8945C0.410896 54.716 0.348514 53.2701 0.274414 51.8283C9.03375 48.5438 17.4733 44.4614 25.7295 40.0671C37.1331 33.9962 49.2503 29.6587 60.7669 23.8753C64.0701 22.2148 67.0926 20.1007 70.3998 18.4969C80.0249 13.8353 89.3965 8.5663 99.5521 5.16026C101.763 4.41911 103.526 3.36613 103.655 0.644531C104.759 1.87168 105.012 3.45927 105.39 4.99422L105.394 4.99017Z" fill="#535453"></path></svg>