<svg xmlns="http://www.w3.org/2000/svg" width="36" height="46" viewBox="0 0 36 46" fill="none"><path d="M23.2732 1.91168C25.4455 2.93228 27.0289 4.47533 28.1832 6.73118C30.3672 11.0039 32.8125 15.1309 35.0706 19.1768C35.3982 21.4812 34.7508 23.4657 34.3218 25.7459C32.1573 26.7057 30.8586 28.5809 30.3672 31.0959C29.5911 35.0568 27.0951 37.3815 23.5423 38.6087C16.9123 40.8969 10.2668 43.1325 3.62513 45.3924C-0.540038 44.8011 0.774254 41.2573 0.0683594 38.8435C1.85065 35.5023 5.84031 34.2589 6.49941 30.3386C3.07523 20.1407 2.70863 16.5038 4.98622 9.32719C8.54689 6.17629 12.755 3.76656 16.6744 0.931562C18.1798 -0.157886 19.7983 0.0365312 21.448 0.291681C22.2592 0.58733 22.852 1.14218 23.2654 1.91573L23.2732 1.91168Z" fill="#333333"></path></svg>