<svg xmlns="http://www.w3.org/2000/svg" width="6" height="7" viewBox="0 0 6 7" fill="none"><path d="M4.85298 0.149902H4.08573C3.97424 0.149902 3.91521 0.208922 3.91521 0.320411V5.02262C3.91521 5.07508 3.90205 5.10132 3.86926 5.10132C3.83647 5.10132 3.8168 5.08165 3.79713 5.02918L1.71824 0.438464C1.66577 0.320416 1.60675 0.241714 1.55428 0.208923C1.49526 0.176133 1.42306 0.156457 1.32468 0.156457H0.360651C0.262279 0.156457 0.177013 0.18925 0.104873 0.26139C0.0327332 0.326972 0 0.412228 0 0.517158V6.62282C0 6.66872 0.0196457 6.71463 0.0524366 6.74742C0.0852274 6.78021 0.131096 6.79989 0.177003 6.79989H0.937774C0.983681 6.79989 1.02307 6.78021 1.05586 6.74742C1.08865 6.71463 1.10173 6.66872 1.10173 6.62282V2.13047C1.10173 2.08457 1.11489 2.05833 1.14768 2.05833C1.18047 2.05833 1.2067 2.08457 1.22637 2.13047L3.20688 6.4851C3.27902 6.64905 3.35771 6.74086 3.44952 6.7671C3.54134 6.79333 3.63977 6.80644 3.75126 6.80644H4.65629C4.75466 6.80644 4.83992 6.77365 4.91206 6.70151C4.97765 6.62937 5.01694 6.55067 5.01694 6.44574V0.33353C5.01694 0.222041 4.95791 0.163021 4.84642 0.163021" fill="#0B5463"></path></svg>