<svg xmlns="http://www.w3.org/2000/svg" width="211" height="46" viewBox="0 0 211 46" fill="none"><path d="M22.542 -209.318H134.596C137.072 -208.151 138.02 -205.729 139.245 -203.457C146.549 -189.894 152.622 -175.589 161.35 -162.885C166.47 -155.433 171.412 -147.851 176.314 -140.257C181.614 -132.048 184.012 -122.292 188.306 -113.519C191.126 -107.76 192.163 -100.936 197.62 -96.6632C199.355 -95.3024 201.184 -94.1279 202.97 -92.8643C204.3 -91.8113 205.825 -91.1228 207.288 -90.329C209.265 -89.2558 210.341 -87.5021 209.939 -85.2706C208.61 -77.8915 208.103 -70.4071 207.046 -62.9996C206.695 -60.5413 204.897 -58.7674 204.113 -56.5075C203.844 -55.7178 203.411 -55.0414 202.803 -54.4947C193.63 -45.1351 181.77 -40.1861 170.854 -33.7304C150.547 -21.7262 129.998 -10.1594 109.562 1.60986C96.3724 9.20766 83.4713 17.34 70.1802 24.6989C58.6206 31.1019 47.1898 37.7358 35.7122 44.2765C32.834 45.9168 29.8466 46.7349 26.9373 44.2036C25.9467 42.207 26.8709 40.6356 27.8459 38.9467C30.5681 34.2245 33.7622 29.8302 36.4727 25.0998C46.1017 8.2883 50.1499 -9.7382 47.5798 -29.2106C47.1274 -32.6409 47.1274 -36.0551 47.1703 -39.4813C47.4355 -50.0194 41.8663 -58.0587 36.5468 -66.1991C30.3068 -73.9225 26.4303 -83.1727 21.4266 -91.6898C15.1164 -102.43 9.16896 -113.402 2.9134 -124.179C2.05151 -125.661 1.09602 -127.083 1.06482 -128.909C0.823022 -132.83 1.11942 -136.693 2.14122 -140.484C3.52181 -144.988 7.4608 -146.972 10.7407 -149.447C14.0829 -151.966 17.2692 -154.72 20.8611 -156.915C27.3545 -160.88 29.7062 -172.273 26.1338 -178.943C23.3142 -184.208 20.6466 -189.562 17.8113 -194.811C15.9978 -198.168 15.1203 -201.424 16.2942 -205.142C17.3862 -208.127 20.4594 -207.929 22.5381 -209.334L22.542 -209.318Z" fill="#333333"></path></svg>