<svg xmlns="http://www.w3.org/2000/svg" width="24" height="28" viewBox="0 0 24 28" fill="none"><path d="M11.4321 26.4957C10.6365 26.601 9.83702 26.7063 8.79963 26.844C6.22955 21.1456 3.69458 15.5688 1.2064 9.97169C0.9451 9.38444 0.956793 8.6676 0.808594 7.82926C5.12196 4.37056 10.1217 2.6817 14.9343 0.753906C17.2314 3.04215 22.8044 14.9248 23.8067 19.5175C23.1671 21.0322 21.3146 21.1618 20.5424 22.5388C20.2577 22.8304 19.9925 23.1423 19.7507 23.4784C19.5479 23.847 19.3061 24.1831 19.0175 24.4909C18.6665 24.7258 18.296 24.9081 17.8982 25.0458C16.4474 25.9975 14.6847 26.1514 13.1988 27.0141C12.5241 27.1558 11.904 27.091 11.4282 26.4997L11.4321 26.4957Z" fill="#333333"></path></svg>