<svg xmlns="http://www.w3.org/2000/svg" width="34" height="58" viewBox="0 0 34 58" fill="none"><path d="M1.49135 1.75576C4.81413 2.20531 7.9575 0.735116 11.2335 0.751316C13.3434 0.759416 15.4923 0.390895 17.454 1.18469C19.9148 2.81279 19.2167 6.47802 21.779 7.89956C22.6175 7.78616 23.2571 8.15474 23.7836 8.79059C27.3131 16.7205 30.9011 24.622 33.631 32.3696C33.4321 34.828 32.2309 36.0916 30.8737 37.0555C23.3624 42.3974 16.7091 48.8976 9.27573 54.3084C7.44664 55.6409 5.75403 59.0186 2.52876 56.6736C2.31036 55.1549 2.09194 53.6321 1.87354 52.1174C5.53951 46.5082 13.5735 45.4551 15.8744 38.072C10.5159 33.7871 5.66433 29.9113 0.426667 25.7236C1.00386 17.7978 -0.626336 9.7342 1.48745 1.75976L1.49135 1.75576Z" fill="#333333"></path></svg>