<svg xmlns="http://www.w3.org/2000/svg" width="107" height="78" viewBox="0 0 107 78" fill="none"><path d="M1.37372 45.7524C3.6162 43.9664 5.85478 42.1804 8.09727 40.3943C12.4028 36.9599 15.8426 32.8087 17.8589 27.5194C18.6779 25.3769 19.6529 23.4208 22.3634 22.1734C28.4941 23.6071 35.0266 22.0762 41.6254 21.3472C45.9933 20.8652 50.0259 19.5166 54.1286 18.01C63.8942 14.4177 73.0396 9.55368 81.9745 4.20364C83.2575 3.43414 84.4314 2.458 85.656 1.57915C86.8767 -0.0691951 88.2885 1.12557 89.6301 1.29567C90.0708 1.52652 90.4413 1.84652 90.7416 2.25557C95.7804 9.81285 101.221 17.1068 105 25.4944C105.756 27.1711 106.911 28.7303 106.653 30.7634C105.015 34.5704 101.408 35.5545 98.2061 37.1259C97.4612 37.2758 96.7242 37.4702 96.0066 37.7253C88.9671 42.7757 81.0891 44.1811 72.751 43.3549C64.9901 42.5854 59.0231 45.8416 53.6879 51.467C47.7717 57.7 41.7384 63.9045 33.6109 67.2012C31.7506 67.9545 30.2374 69.3922 29.1883 71.2552C27.6596 73.9647 25.4873 76.0464 23.4398 77.8082C20.9048 78.3104 19.6178 76.9009 18.4868 75.3862C12.6875 67.6183 7.3524 59.5022 1.64284 51.6655C0.39095 49.9483 -1.02086 47.8423 1.37762 45.7606L1.37372 45.7524Z" fill="#333333"></path></svg>