<svg xmlns="http://www.w3.org/2000/svg" width="87" height="22" viewBox="0 0 87 22" fill="none"><path d="M86.4355 3.27479C86.1079 3.97139 85.7803 4.67205 85.4566 5.36865L85.4682 5.35244C84.306 6.45403 82.5979 5.23094 81.4435 6.36899C69.5915 10.9495 57.9033 16.089 45.825 19.896C38.9611 22.0587 31.477 22.5568 24.695 17.9844C18.2795 13.659 11.6496 9.66976 5.14832 5.48206C3.58053 4.47362 2.04004 3.46921 0.21875 3.04802C0.464448 1.77227 1.16255 0.824558 2.17654 0.0996094C12.5934 6.21915 23.0102 12.3387 32.92 18.1585C43.2705 18.8308 51.4683 13.6468 60.2198 10.5932C67.1462 8.17936 73.7566 4.76522 81.0574 3.55832C82.8397 3.26267 84.5908 2.39999 86.4315 3.27074L86.4355 3.27479Z" fill="#555656"></path></svg>