<svg xmlns="http://www.w3.org/2000/svg" width="179" height="96" viewBox="0 0 179 96" fill="none"><path d="M9.58127 92.6639C8.42298 93.7129 7.16719 94.5836 5.6852 95.0696C5.7281 94.5674 5.76713 94.0692 5.81003 93.5508C1.96465 92.7125 0.65814 89.9666 0.619141 86.2608C1.61363 88.0104 2.61208 89.756 3.50127 91.3193C4.73366 91.9673 5.6657 91.5177 6.5666 91.1208C17.7985 86.1434 29.0305 81.1619 40.2429 76.1318C41.4363 75.5972 42.497 74.7386 43.6163 74.0299C44.7551 74.0704 45.8081 73.8557 46.6466 72.9728C46.9079 72.5719 47.1185 72.1426 47.2823 71.6809C47.6099 71.0005 48.0857 70.4537 48.6707 70.0042C57.5431 65.6991 65.9983 60.588 74.473 55.5174C76.341 54.3996 78.2793 53.2939 80.5842 54.2092C82.581 53.7394 84.2112 52.6135 85.6737 51.1758C85.7322 50.9247 85.7867 50.6776 85.8452 50.4265C86.2898 49.4464 86.9958 48.7377 87.9122 48.2355C91.4066 47.1541 94.7294 44.4852 98.6294 46.9192C100.384 47.1379 102.015 46.6722 103.61 45.9756C104.202 45.1453 104.768 44.2219 105.782 43.9425C114.323 41.6056 120.894 35.5955 128.218 30.9947C130.18 29.7635 131.978 28.0341 134.568 29.0871C136.143 28.4148 137.649 27.6372 138.748 26.2238C139.014 24.3324 140.16 23.9558 141.747 24.3324C143.655 23.652 145.324 22.6031 146.599 20.9466C148.093 16.1879 150.589 14.252 155.744 13.851C157.41 13.2435 158.841 12.3242 159.742 10.6799C159.785 10.449 159.832 10.2223 159.875 9.99142C160.775 8.32282 162.378 7.33462 163.517 5.88877C165.865 4.11893 168.181 2.29238 170.818 0.97613C171.255 0.85058 171.703 0.76552 172.156 0.71287C173.068 0.546821 173.961 0.514416 174.757 1.13811C175.818 2.34906 176.141 4.11081 177.705 4.98966C178.821 5.61741 178.544 6.62181 177.705 7.44396C177.483 7.50471 177.261 7.56546 177.038 7.63026C176.613 7.82466 176.176 7.97452 175.728 8.09197C173.7 8.01502 172.007 8.83716 170.42 10.0846C168.981 11.2145 167.374 11.9557 165.483 11.4737C163.872 12.0934 162.601 13.2031 161.431 14.4667C161.782 16.9128 160.311 18.3627 158.588 19.3914C155.124 21.461 152.149 24.7536 147.648 24.3851C146.295 25.268 144.938 26.1549 143.584 27.0378C138.717 32.1773 133.398 36.5877 126.541 38.556C125.364 38.9205 124.354 39.5482 123.577 40.5567C121.093 45.3964 116.429 47.6725 112.061 49.4829C105.989 51.9979 99.3196 52.7917 92.8691 54.1404C91.6796 54.3915 90.5954 53.9176 89.5853 53.2858C87.6237 53.6787 86.0169 54.7357 84.5934 56.137C84.3243 56.538 84.1097 56.9632 83.9459 57.4249C83.6807 58.1418 83.2517 58.725 82.694 59.2191C74.6991 65.5249 65.6083 69.7976 56.6228 74.2445C54.7625 75.1639 52.7461 76.4639 50.5075 75.0545C48.971 75.1922 47.7191 75.9779 46.5569 76.9499C36.9435 81.1417 27.3379 85.3577 17.7088 89.513C15.7355 90.3635 13.844 91.5056 11.6483 91.7202C10.7942 91.6352 10.061 91.8256 9.60079 92.6599L9.58127 92.6639Z" fill="#DEBC61"></path></svg>