<svg xmlns="http://www.w3.org/2000/svg" width="35" height="49" viewBox="0 0 35 49" fill="none"><path d="M2.39658 48.8211C2.10018 48.7968 1.79991 48.7887 1.49962 48.7968C0.399824 47.0553 0.548029 45.249 1.26172 43.4224C6.16789 30.8877 11.0507 18.3408 16.3741 5.98835C17.0449 4.43315 17.8249 2.87796 19.4473 2.09226C19.4902 1.79661 19.5058 1.50501 19.5019 1.20531C20.1375 0.40746 20.785 0.415565 21.4363 1.18506C24.1779 10.0707 29.0412 17.9763 32.3016 26.6231C32.8983 28.2066 34.0254 29.5836 34.0137 32.0257C29.9772 35.0511 25.0203 36.9546 20.3443 39.3886C15.0325 42.1548 9.37753 44.2203 4.44016 47.7519C3.92147 48.4525 2.95822 48.2257 2.38882 48.817L2.39658 48.8211Z" fill="#333333"></path></svg>