<svg xmlns="http://www.w3.org/2000/svg" width="1256" height="837" viewBox="0 0 1256 837" fill="none"><path d="M1255.8 -209.318C1250.79 -203.105 1245.51 -197.225 1238.4 -193.478C1227.27 -187.614 1215.55 -183.037 1204.9 -176.12C1200.2 -173.07 1196.09 -169.312 1191.63 -165.999C1185.13 -161.18 1179.07 -155.591 1172.16 -151.541C1164.02 -146.766 1156.37 -141.25 1148.38 -136.26C1146.36 -134.996 1144.66 -133.372 1143.03 -131.623C1137.48 -125.669 1132.02 -119.578 1124.88 -115.581C1123.71 -114.925 1123.81 -113.507 1122.86 -112.875C1112.67 -113.71 1090.65 -101.377 1085.85 -92.0016C1084.04 -91.6452 1082.26 -90.8798 1081.16 -88.9196C1080.5 -87.7289 1079.7 -86.5949 1078.82 -85.5581C1072.94 -78.6245 1070 -70.5407 1068.13 -61.4768C1066.06 -51.364 1061.29 -42.0126 1057.72 -32.325C1057.09 -30.6402 1055.75 -29.5467 1054.62 -28.2952C1048.69 -21.7302 1042.7 -15.2259 1036.77 -8.66899C1035.64 -7.41754 1034.65 -6.02029 1033.6 -4.69189C1033.32 -3.22984 1033.78 -1.60175 1032.72 -0.305756C1032.15 1.3588 1031.02 2.62642 1029.98 3.97913C1018.32 19.1544 1010.93 36.5006 1005.97 55.0739C1004.75 58.1316 1005.59 61.323 1005.39 64.4455C1005.7 67.8597 1006.1 71.2941 1005.45 74.6961C1004.9 77.5351 1006.39 79.6208 1007.54 81.8889C1013.8 94.3588 1020.6 106.529 1026.96 118.946C1027.75 120.287 1028.48 121.66 1029.38 122.931C1030.91 127.909 1033.36 132.635 1033.33 138.054C1033.7 139.739 1034.57 141.371 1033.87 143.181C1029.92 151.614 1024 158.685 1019.04 166.416C1013.34 175.318 1007.52 184.147 1001.71 192.968C1000.28 195.131 999.054 197.338 998.683 199.966C997.35 203.048 998.906 206.426 997.79 209.528C997.775 210.496 997.759 211.464 997.744 212.436C996.511 213.263 995.684 212.4 994.819 211.691C994.507 211.391 994.261 211.035 994.078 210.642C993.719 209.65 993.972 208.678 994.198 207.751C994.179 207.795 994.261 207.341 994.234 207.386C994.206 207.431 994.187 207.066 994.148 207.115C994.113 207.163 993.848 207.082 993.816 207.135C993.547 207.337 993.329 207.52 993.118 207.759C992.529 208.374 992.436 209.144 992.346 209.913C992.159 210.764 992.365 211.586 992.545 212.412C992.564 217.349 987.888 214.98 986.02 216.984C984.234 218.317 982.822 220.156 980.806 221.168C979.773 221.618 979.008 222.476 978.103 223.12C975.1 225.477 972.051 227.753 968.56 229.301C967.417 229.961 966.361 230.759 965.366 231.637C963.092 232.909 961.06 234.598 958.787 235.87C957.262 236.335 956.322 237.579 955.296 238.705C953.038 240.487 950.835 242.346 948.401 243.88C947.083 244.265 946.096 245.217 945.024 246.027C940.367 249.583 935.917 253.455 930.723 256.192C929.564 256.861 928.433 257.578 927.458 258.525C925.653 260.166 923.586 261.421 921.604 262.806C919.966 263.551 918.676 264.827 917.26 265.912C915.743 266.824 914.183 267.666 912.697 268.634C911.71 269.007 910.692 269.327 909.951 270.185C909.655 270.501 909.335 270.785 909 271.056C908.384 271.696 907.709 272.259 907.019 272.81C893.794 282.019 880.897 291.731 867.574 300.795C866.12 302.346 863.873 302.755 862.59 304.553C849.56 314.217 835.828 322.859 822.994 333.126C824.815 340.226 829.046 345.434 832.053 351.274C832.42 352.619 833.024 353.838 833.917 354.899C834.873 355.907 835.481 357.126 835.969 358.426C836.382 359.812 837.482 360.755 838.118 361.999C841.249 366.899 842.727 372.496 844.463 377.992C844.588 380.057 845.266 381.916 846.421 383.601C848.102 387.995 850.048 392.305 850.383 397.12C849.74 399.992 851.717 402.077 852.466 404.532C852.895 408.46 854.268 412.235 854.248 416.236C854.154 417.743 854.455 419.184 855.001 420.574C855.223 420.995 855.375 421.444 855.508 421.902C855.789 423.008 856.026 424.129 856.338 425.231C856.658 427.228 857.317 429.119 857.996 431.01C858.249 431.901 858.745 432.675 859.127 433.501C862.181 439.122 865.554 444.485 870.386 448.689C871.369 450.078 871.275 451.884 872.047 453.358C872.835 454.5 873.916 455.452 874.232 456.906C874.82 458.425 875.331 459.976 876.022 461.454C875.944 463.451 877.106 464.957 877.925 466.602C878.49 468.4 879.321 470.081 880.003 471.826C880.982 475.046 882.698 477.893 884.223 480.837C884.562 482.502 885.261 484.005 886.13 485.434C889.196 492.663 893.915 499.05 896.173 506.689C896.352 508.45 897.226 509.864 898.283 511.188C900.685 517.551 903.259 523.828 906.317 529.895C909.487 536.181 911.012 536.881 917.19 534.289C918.41 533.779 919.627 533.261 920.844 532.738C923.044 532.523 924.479 530.871 926.136 529.648C932.216 526.299 938.733 523.901 944.766 520.446C945.141 520.199 945.546 520.021 945.964 519.883C946.365 519.758 946.779 519.644 947.184 519.523C947.988 519.316 948.69 518.843 949.454 518.519C949.836 518.349 950.211 518.166 950.566 517.935C951.322 517.498 952.094 517.093 952.89 516.733C963.541 511.536 973.794 505.506 984.569 500.589C986.102 500.124 987.619 499.617 988.973 498.702C989.717 498.107 990.54 497.677 991.433 497.382C993.649 496.539 995.684 495.34 997.654 494C1007.5 489.067 1013.62 481.534 1017.35 470.388C1020.36 461.41 1020.06 452.597 1020.95 443.65C1021.1 425.227 1021.97 406.804 1020.29 388.409C1019.96 384.812 1020.07 381.167 1020.23 377.559C1020.62 369.276 1019.57 361.067 1019.24 352.829C1019.7 349.12 1020.93 345.552 1021.22 341.805C1022.56 334.86 1024.65 328.23 1028.98 322.584C1029.31 321.932 1029.67 321.3 1030.01 320.656C1030.19 320.219 1030.4 319.79 1030.63 319.38C1032.02 317.732 1032.5 315.626 1033.31 313.678C1033.71 313.087 1034.15 312.524 1034.52 311.912C1037.55 305.764 1039.26 299.629 1035.98 292.833C1028.72 277.795 1018.87 264.45 1010.56 250.105C1009.87 248.801 1009.18 247.509 1008.23 246.387C1007.15 245.189 1006.6 243.771 1006.54 242.143C1006.76 239.948 1007.86 238.705 1010.31 238.62C1013.3 240.073 1014.6 243.419 1016.65 245.986C1019.19 249.154 1021.25 252.726 1023.26 256.261C1026.1 261.259 1029.79 265.406 1033.81 269.323C1033.94 269.809 1033.98 270.311 1033.95 270.813C1033.86 271.542 1033.78 272.275 1034.14 272.976C1038.76 278.949 1041.74 285.895 1044.87 292.732C1046.33 295.947 1045.94 299.471 1045.48 302.913C1044.43 305.566 1043.77 308.336 1043.23 311.139C1042.7 316.278 1039.04 319.798 1037 324.151C1033.72 331.138 1028.41 337.208 1028.06 345.527C1027.61 347.078 1027.22 348.642 1027.19 350.282C1027.16 351.173 1027.07 352.052 1026.83 352.914C1025.81 364.635 1025.77 376.36 1026.8 388.06C1027.56 396.687 1026.96 405.313 1027.2 413.932C1027.27 416.333 1026.9 418.784 1027.97 421.068C1027.4 428.062 1026.92 435.064 1027.32 442.091C1027.87 451.507 1027.17 460.895 1026.73 470.287C1026.35 471.312 1025.91 472.324 1025.57 473.369C1025.25 475.354 1024.01 476.921 1023.3 478.736C1022.98 479.614 1022.5 480.408 1022.11 481.242C1021.9 481.643 1021.65 482.02 1021.38 482.376C1020.3 483.49 1019.43 484.734 1019.08 486.313C1018.96 486.767 1018.77 487.184 1018.54 487.585C1018.05 488.387 1017.5 489.132 1016.93 489.873C1010.09 498.212 1000.9 502.703 991.398 506.693C990.486 507.005 989.698 507.58 988.848 508.017C983.298 511.152 977.542 513.857 971.766 516.477C959.89 521.864 947.91 526.999 936.885 534.184C931.623 537.614 925.532 539.06 919.97 541.766C918.032 542.709 915.883 543.321 914.596 545.455C914.206 548.071 914.916 550.53 916.031 552.875C920.606 562.518 926.565 570.091 936.779 574.631C947.247 579.281 956.041 587.433 965.526 594.12C967.858 595.764 970.034 597.732 972.48 599.146C984.203 605.93 992.607 616.565 1001.5 626.475C1011.87 638.038 1025.23 642.371 1039.22 645.826C1044.08 647.94 1049.29 649.042 1054.12 651.241C1058.45 653.626 1062.56 656.32 1065.79 660.24C1066.09 660.904 1066.18 661.621 1066.26 662.334C1066.34 662.767 1066.43 663.209 1066.55 663.638C1066.9 664.642 1067.35 665.594 1068.14 666.323C1069.31 667.429 1071.04 666.55 1072.23 667.562C1074.49 669.899 1071.23 673.439 1073.86 675.699C1089.03 691.243 1107.17 702.732 1124.32 715.555C1142.57 729.203 1161.08 742.483 1179.31 756.164C1186.9 761.854 1193.49 768.792 1199.14 776.548C1205.54 785.348 1212.07 794.072 1217.52 803.589C1219.09 806.339 1220.09 809.178 1220.49 812.293C1220.76 814.35 1220.8 816.46 1221.25 818.469C1223.27 827.379 1220.21 834.661 1214.91 841.416C1211.35 845.944 1206.88 849.78 1204.77 855.438C1204.21 856.823 1203.67 858.22 1203.05 859.581C1204.3 863.574 1206.24 867.053 1209.14 869.957C1210.33 871.143 1211.31 872.533 1211.33 874.387C1211.25 874.886 1211.03 875.291 1210.63 875.586C1209.24 875.837 1207.84 875.692 1206.44 875.708C1205.98 875.647 1205.54 875.517 1205.12 875.315C1200.6 871.54 1195.96 869.965 1190.39 873.334C1187.3 875.201 1185.01 873.926 1184.6 869.969C1184.83 867.162 1186.7 864.91 1187.16 861.889C1186.08 857.924 1183.49 854.956 1180.18 852.469C1159.33 836.803 1138.2 821.563 1117.36 805.894C1116.14 804.983 1114.88 804.152 1113.78 803.091C1111.86 800.779 1109.65 798.863 1107.01 797.486C1102.26 793.44 1097.17 789.872 1092.06 786.353C1090.72 785.441 1089.21 784.874 1087.75 784.222C1081.34 780.018 1075.29 775.284 1069.23 770.558C1068.1 769.456 1067.03 768.278 1065.57 767.617C1060.7 763.823 1055.46 760.615 1050.27 757.326C1049.23 756.435 1048.08 755.723 1046.91 755.042C1045.05 753.827 1043.32 752.442 1041.75 750.834C1040.75 749.891 1039.57 749.235 1038.37 748.603C1023.21 738.016 1008.59 726.648 993.688 715.68C989.218 712.392 984.632 709.273 980.252 705.851C978.291 704.316 975.974 702.996 975.99 699.902C976.134 699.399 976.372 698.954 976.715 698.565C977.222 697.933 977.854 697.536 978.638 697.403C979.936 697.346 981.067 698.006 982.276 698.326C993.957 706.536 1005.97 714.259 1016.92 723.549C1021.19 727.182 1026.09 729.742 1030.68 732.816C1043.96 741.698 1056.01 752.381 1069.39 761.101C1069.78 761.372 1070.12 761.708 1070.43 762.077C1070.58 762.259 1070.71 762.458 1070.85 762.64C1071.76 763.721 1072.95 764.398 1074.16 765.058C1087.33 773.64 1099.7 783.416 1112.46 792.622C1113.34 793.768 1114.44 794.635 1115.71 795.283C1136.03 809.673 1155.88 824.767 1175.93 839.562C1180.25 842.749 1184.76 845.616 1188.81 849.281C1193.94 853.935 1197.47 853.526 1202.1 848.277C1206.24 843.579 1210.93 839.088 1213.49 833.316C1217.8 823.584 1217.09 813.326 1211.48 804.59C1205.97 796.012 1200.6 787.252 1194.17 779.294C1186.2 769.432 1177.23 760.805 1166.92 753.657C1162.08 750.304 1157.3 746.857 1152.77 743.058C1151.42 741.398 1149.92 739.956 1147.81 739.389C1136.41 731.334 1125.34 722.776 1113.84 714.878C1112.45 713.923 1111.09 712.934 1110.04 711.557C1108.99 710.614 1107.82 709.856 1106.6 709.176C1099.44 703.96 1092.19 698.881 1085.2 693.434C1084.62 693.053 1084.12 692.587 1083.66 692.065C1083.31 691.777 1082.98 691.453 1082.67 691.117C1082 690.149 1081 689.562 1080.17 688.784C1074.89 682.875 1067.59 679.437 1062.6 673.168C1061.43 671.689 1060.65 670.017 1059.75 668.372C1057.11 663.508 1053.59 659.685 1048.27 657.652C1036.29 653.084 1023.72 650.496 1011.9 645.466C1009.27 644.348 1006.76 643.028 1004.92 640.674C1003.86 639.686 1003.25 638.301 1002.11 637.382C997.693 634.474 994.023 630.586 990.829 626.463C982.432 615.625 971.325 608.315 960.702 600.345C953.959 595.286 946.779 590.884 940.102 585.72C938.647 584.594 937.095 583.517 935.278 583.055C923.402 580.038 916.519 571.294 911.285 560.61C909.405 556.771 907.373 553.008 904.382 550.048C900.42 549.351 897.066 551.117 893.552 552.032C885.003 554.264 876.209 555.321 867.672 557.512C857.684 560.08 847.579 562.696 840.512 571.573C838.492 574.113 836.874 576.948 834.807 579.435C834.171 580.394 833.215 581.103 832.841 582.116C832.463 583.557 833.27 584.453 833.921 585.404C836.764 590.297 841.078 593.468 845.653 596.355C867.368 610.057 889.246 623.482 910.794 637.459C918.851 642.683 925.426 649.892 932.7 656.166C941.381 663.654 950.043 671.183 958.475 678.979C959.181 679.874 959.957 680.692 960.889 681.34C961.263 681.579 961.622 681.843 961.977 682.11C962.355 682.349 962.691 682.641 962.999 682.964C963.865 683.957 964.629 685.038 965.366 686.136C965.908 687.023 966.497 687.857 967.417 688.371C967.776 688.554 968.1 688.788 968.416 689.027C968.747 689.23 969.044 689.485 969.336 689.744C969.484 689.858 969.621 689.995 969.769 690.109C970.073 690.319 970.342 690.57 970.608 690.822C970.752 690.927 970.877 691.06 971.021 691.166C971.321 691.356 971.59 691.587 971.863 691.814C972.171 691.992 972.448 692.211 972.729 692.429C973.041 692.608 973.322 692.826 973.603 693.049C973.755 693.146 973.887 693.268 974.043 693.365C974.363 693.551 974.648 693.786 974.94 694.017C975.264 694.228 975.545 694.487 975.818 694.758C976.114 695.025 976.36 695.333 976.582 695.665C976.688 695.839 976.773 696.022 976.875 696.196C977.187 696.99 977.238 697.771 976.727 698.508C976.341 698.97 975.923 699.391 975.311 699.509C974.917 699.553 974.527 699.529 974.145 699.444C973.767 699.355 973.408 699.205 973.057 699.031C972.885 698.946 972.725 698.84 972.55 698.759C972.207 698.597 971.895 698.383 971.586 698.168C971.255 697.998 970.955 697.775 970.654 697.557C970.327 697.378 970.034 697.156 969.738 696.933C969.582 696.836 969.442 696.714 969.282 696.617C968.954 696.439 968.658 696.212 968.357 695.985C968.026 695.799 967.729 695.568 967.433 695.333C967.105 695.131 966.817 694.88 966.532 694.628C966.376 694.515 966.244 694.377 966.088 694.268C965.331 693.628 964.426 693.292 963.537 692.915C961.766 692.065 960.113 691.02 958.561 689.801C957.262 688.165 955.534 687.128 953.779 686.128C943.507 678.979 934.931 669.729 925.532 661.504C923.254 659.511 921.047 657.393 918.847 655.287C917.716 654.076 916.558 652.901 915.345 651.775C904.191 641.881 891.22 634.859 878.869 626.864C877.184 625.775 875.394 624.839 873.99 623.336C872.792 622.17 871.424 621.307 869.836 620.834C858.85 615.463 847.899 610.057 839.046 601.074C837.392 599.397 835.325 598.182 833.27 597.04C831.737 595.331 829.241 595.626 827.603 594.16C827.42 593.889 827.307 593.565 827.287 593.241C827.533 593.055 827.553 592.816 827.334 592.589C827.315 592.621 826.956 592.597 826.956 592.597C826.956 592.597 826.597 592.633 826.586 592.658C826.316 592.755 826.055 592.804 825.786 592.848C825.513 592.962 825.24 593.026 824.959 593.091C824.682 593.229 824.398 593.318 824.105 593.411C823.82 593.581 823.524 593.699 823.228 593.824C822.947 594.01 822.647 594.14 822.346 594.249C822.089 594.395 821.812 594.488 821.551 594.561C821.324 594.687 821.211 594.885 821.262 595.205C821.317 595.57 821.289 595.898 821.215 596.242C821.005 597.06 820.669 597.789 820.193 598.465C817.14 601.584 813.801 604.362 810.557 607.25C809.316 607.776 808.193 608.489 807.304 609.558C805.186 611.114 803.061 612.669 800.74 613.892C799.719 614.188 798.822 614.755 797.929 615.326C797.593 615.593 797.242 615.832 796.887 616.067C796.244 616.678 795.538 617.205 794.828 617.723C785.55 623.62 776.756 630.347 766.826 635.106C764.997 636.138 763.195 637.208 761.698 638.751C750.205 646.895 737.697 653.039 724.418 657.012C716.037 659.519 707.192 660.629 697.469 660.009C692.575 668.753 686.62 677.197 677.38 682.308C676.082 682.564 674.885 683.26 673.531 683.28C672.385 683.195 671.492 682.677 670.918 681.628C670.711 681.142 670.622 680.624 670.641 680.089C671.87 675.314 676.183 673.617 679.369 670.835C682.942 667.716 686.245 664.513 686.99 659.426C687.107 658.685 687.411 657.968 687.286 657.207C687.099 656.968 686.873 656.797 686.561 656.753C685.855 656.842 685.208 657.093 684.529 657.251C684.12 657.381 683.714 657.441 683.297 657.486C682.419 657.603 681.542 657.697 680.664 657.778C673.594 659.11 666.659 660.985 659.819 663.225C657.456 663.743 655.81 665.307 654.417 667.247C641.836 678.534 628.873 689.327 613.542 696.342C606.736 699.456 599.217 700.61 592.065 702.822C581.328 706.143 572.452 712.736 563.291 718.924C562.093 719.394 560.896 719.848 559.648 720.147C550.206 722.897 541.568 721.249 532.789 716.579C517.587 708.492 502.455 700.213 486.812 693.037C479.106 689.501 473.318 683.685 468.806 676.489C465.007 670.43 460.862 664.594 457.582 658.195C456.88 656.615 456.049 655.121 454.809 653.91C453.358 651.411 451.603 649.078 450.726 646.243C450.523 643.732 449.138 641.817 447.742 639.905C445.34 634.332 442.22 629.124 439.993 623.458C439.743 621.648 438.421 620.441 437.614 618.942C429.943 601.268 423.828 582.893 415.439 565.584C415.267 565.336 415.185 564.883 414.678 565.292C410.494 568.828 407.183 573.303 402.67 576.373C398.642 580.103 394.137 583.343 391.294 588.292C390.963 589.191 390.881 590.159 390.596 591.074C389.052 594.557 385.6 596.023 383.159 598.575C372.258 609.967 362.115 622.073 351.721 633.939C350.146 635.64 348.504 637.289 347.575 639.512C344.838 642.975 342.381 646.713 338.843 649.41C338.547 649.747 338.239 650.075 337.935 650.403C337.794 650.577 337.65 650.747 337.514 650.921C336.64 651.946 336.067 653.165 335.447 654.359C333.27 657.628 330.552 660.402 327.99 663.322C327.662 663.634 327.311 663.913 326.948 664.177C326.792 664.335 326.629 664.484 326.469 664.642C325.626 665.683 324.87 666.797 324.047 667.858C323.844 668.271 323.637 668.68 323.45 669.101C323.244 669.527 322.982 669.907 322.698 670.276C319.726 673.743 317.374 677.809 313.661 680.571C313.072 681.251 312.343 681.79 311.844 682.559C311.61 682.952 311.372 683.341 311.15 683.746C310.943 684.175 310.674 684.556 310.378 684.917C307.281 688.76 304.11 692.527 300.14 695.455C298.292 696.066 297.176 697.589 296.03 699.067C291.268 702.4 287.531 707.228 282.044 709.52C280.051 710.201 278.441 711.537 276.807 712.833C272.15 715.044 267.751 717.831 262.958 719.751C261.343 720.229 259.935 721.103 258.641 722.193C236.473 733.691 213.978 744.468 191.569 755.439C180.856 760.684 171.277 767.921 161.172 774.235C148.786 781.975 136.466 789.832 124.247 797.867C121.237 798.636 119.135 800.771 117.111 803.031C111.635 805.112 106.756 808.474 101.355 810.762C89.9589 815.594 78.6412 815.845 67.5692 810.325C58.0298 805.57 47.8353 803.087 37.7812 800.139C33.3196 798.831 28.5811 799.402 23.9363 800.37C7.56809 803.78 -8.01229 809.822 -23.7058 815.5C-26.194 816.4 -28.647 817.643 -31.4238 817.226C-31.9542 817.084 -32.4183 816.809 -32.82 816.424C-33.6195 815.164 -33.2061 813.759 -33.2646 812.41C-33.1437 811.864 -32.9058 811.382 -32.547 810.965C-32.1375 810.608 -31.689 810.308 -31.2054 810.065C-23.0545 805.619 -13.9832 803.784 -5.50461 800.264C2.23683 797.049 10.3722 795.072 18.4178 793.064C30.1762 790.127 41.8449 791.804 53.1354 796.316C59.6483 798.92 66.3095 801.135 72.6586 804.177C76.3051 805.922 80.2012 805.635 83.9724 805.351C93.1413 804.659 102.181 803.241 109.868 797.304C112.551 796.061 115.391 795.068 117.208 792.411C137.141 779.241 156.921 765.799 177.685 754.03C202.964 739.697 229.375 727.778 255.232 714.672C270.173 707.102 285.324 699.772 296.93 686.767C298.28 685.253 299.992 684.111 301.712 683.049C303.085 681.822 304.126 680.219 305.674 679.186C305.955 678.834 306.232 678.473 306.47 678.084C306.704 677.683 306.988 677.327 307.3 676.995C310.05 674.018 312.421 670.701 315.163 667.72C316.403 666.153 318.322 665.173 318.911 663.043C321.719 659.122 324.862 655.51 328.243 652.112C329.46 651.063 330.447 649.836 330.981 648.26C343.297 631.951 355.824 615.864 370.262 601.434C377.317 594.387 383.564 586.457 390.662 579.414C391.801 578.284 392.515 577.033 392.671 575.417C392.963 574.696 393.427 574.129 394.036 573.68C399.89 570.905 403.552 565.681 406.668 560.306C409.168 555.997 409.663 551.044 407.401 545.961C405.256 541.138 402.998 536.31 401.746 531.098C399.539 525.881 397.959 520.39 395.237 515.404C394.87 514.258 394.492 513.116 393.794 512.128C392.261 507.446 389.555 503.388 387.312 499.083C386.903 497.819 387.511 496.483 387.043 495.223C386.911 494.83 386.786 494.433 386.638 494.049C386.439 493.457 386.314 492.85 386.22 492.234C386.099 491.627 386.049 491.011 385.947 490.399C385.897 489.33 385.51 488.375 385.046 487.443C384.715 486.665 384.243 485.957 383.993 485.139C383.791 484.312 383.311 483.596 383.1 482.769C382.96 482.368 382.827 481.963 382.671 481.566C382.09 480.145 381.111 478.974 380.351 477.666C378.744 474.507 377.395 471.251 376.81 467.703C376.576 465.82 375.772 464.151 374.981 462.475C374.864 462.021 374.743 461.568 374.602 461.118C374.13 459.518 373.292 458.093 372.633 456.582C372.157 454.565 371.549 452.641 370.316 450.924C366.923 446.19 363.413 441.601 367.138 435.085C368.23 433.177 366.705 430.37 366.892 427.945C366.596 423.737 367.212 419.537 366.951 415.337C366.284 403.782 371.221 394.289 377.488 385.42C383.982 376.23 392.047 368.527 399.972 360.69C408.551 352.206 416.234 342.972 420.209 331.057C420.755 329.424 421.312 327.8 422.342 326.399C427.782 319.332 425.801 311.167 425.431 303.286C425.353 301.621 424.955 299.924 424.775 298.235C424.678 294.918 426.148 292.055 427.225 289.074C427.712 287.965 428.281 286.895 428.812 285.81C429.003 285.389 429.264 285.008 429.549 284.648C430.551 283.498 431.986 282.898 432.993 281.748C433.948 280.549 434.459 279.156 434.631 277.617C435.235 271.85 432.178 267.423 429.611 262.818C426.082 254.415 423.469 245.671 420.731 236.975C421.07 234.464 419.542 232.654 418.496 230.665C412.128 216.503 406.371 202.064 400.677 187.598C400.553 185.338 399.523 183.426 398.486 181.519C398.185 181.134 397.951 180.709 397.753 180.259C397.285 179.125 396.805 177.995 396.411 176.829C392.76 167.23 389.527 157.494 386.595 147.632C384.325 140.002 380.753 133.32 371.935 132.048C370.359 131.821 368.721 131.088 367.824 129.407C367.298 127.925 367.676 126.666 368.682 125.556C371.276 123.507 374.579 124.017 377.441 122.923C378.619 122.636 379.508 123.693 380.569 123.652C380.312 123.454 380.125 123.288 379.895 123.11C379.403 122.672 379.099 122.154 378.845 121.571C378.151 104.476 370.628 89.2315 366.72 73.0153C365.96 69.8604 364.466 66.9039 364.33 63.5748C364.314 62.1897 364.848 60.9301 365.192 59.626C365.414 59.136 365.745 58.7391 366.174 58.4272C367.606 57.8643 368.561 58.8565 369.618 59.545C370 59.8771 370.308 60.2781 370.558 60.7276C370.995 62.1492 371.354 63.6153 372.297 64.81C376.767 77.2597 379.731 90.1792 383.385 102.88C384.851 107.983 386.251 113.114 388.049 117.816C393.186 120.356 401.461 117.804 404.971 112.62C408.505 107.4 411.882 102.017 414.518 96.2663C419.148 86.1616 426.671 79.6776 436.588 75.8746C441.124 74.1331 445.34 71.6991 449.642 69.4513C450.067 69.2205 450.519 69.0625 450.987 68.9613C451.428 68.8235 451.884 68.7102 452.336 68.617C454.271 68.5117 455.593 67.1631 457.044 66.0777C464.407 62.3071 471.926 58.8768 479.32 55.1791C481.547 54.0654 483.723 52.8625 485.439 50.955C486.793 49.8615 488.185 48.8247 489.952 48.5574C491.001 48.0633 492.089 47.1399 493.196 47.5125C497.143 48.8288 499.784 46.581 502.412 44.1632C513.449 37.9545 525.145 33.2484 536.595 27.9834C538.304 27.7607 539.766 26.9628 541.096 25.8612C550.643 20.6894 560.611 16.4329 570.248 11.4595C570.857 11.0828 571.5 10.7831 572.151 10.4956C572.565 10.2688 573.009 10.1149 573.458 9.98526C576.461 9.38992 578.891 7.61603 581.309 5.82188C598.675 -2.40366 616.135 -10.4064 633.545 -18.5267C634.902 -19.2111 636.138 -20.0859 637.355 -21.0053C650.634 -25.4967 657.842 -36.5046 663.746 -48.4521C666.64 -54.3083 666.96 -61.1609 666.16 -67.7665C664.421 -82.148 665.025 -96.4323 668.099 -110.502C669.701 -117.841 673.683 -124.256 678.94 -129.424C689.338 -139.646 689.275 -139.698 682.197 -152.318C673.067 -168.595 664.043 -184.941 654.995 -201.27C653.684 -203.636 651.344 -206.13 653.532 -209.326H657.534C660.79 -207.273 662.366 -203.83 664.191 -200.606C667.943 -193.98 671.671 -187.338 675.193 -180.575C675.68 -178.635 676.928 -177.226 678.258 -175.873C683.554 -167.724 688.601 -159.402 693.608 -151.055C697.149 -145.154 700.094 -144.336 705.285 -148.734C710.37 -153.039 716.072 -156.154 721.704 -159.466C728.057 -163.205 730.065 -169.344 726.625 -176.027C722.733 -183.58 720.393 -192.097 714.185 -198.257C713.748 -198.849 713.467 -199.533 713.05 -200.136C712.391 -201.226 712.235 -202.372 712.679 -203.575C712.862 -203.943 713.135 -204.243 713.467 -204.474C713.97 -204.62 714.454 -204.575 714.863 -204.227C714.847 -204.247 714.625 -203.903 714.625 -203.903C714.625 -203.903 715.023 -203.935 715.019 -203.96C714.879 -204.271 714.672 -204.478 714.372 -204.604C713.833 -204.685 713.299 -204.741 712.894 -205.183C712.632 -205.531 712.453 -205.912 712.34 -206.333C712.106 -207.621 712.718 -208.524 713.568 -209.326H720.573C721.895 -208.289 724.133 -207.738 722.597 -205.191C722.082 -202.182 722.675 -199.513 724.227 -196.84C726.965 -192.134 729.238 -187.132 731.98 -182.426C736.29 -175.026 735.307 -167.672 732.308 -160.224C731.625 -158.523 730.116 -157.705 728.821 -156.652C722.183 -151.233 714.988 -146.571 708.709 -140.666C707.738 -140.014 708.163 -138.625 707.356 -137.884C705.597 -136.426 706.135 -134.401 706.127 -132.51C706.619 -131.112 706.81 -129.598 707.656 -128.342C718.771 -110.854 728.252 -92.354 738.587 -74.3842C739.979 -71.9623 741.496 -69.7753 743.61 -68.0257C745.466 -58.9659 750.95 -51.4329 753.523 -42.6687C753.8 -41.721 753.999 -40.7004 754.483 -39.8094C754.74 -38.9953 755.454 -37.9018 755.181 -37.4077C753.368 -34.1839 754.721 -31.1019 755.279 -27.9713C755.984 -24.0185 755.318 -20.0616 755.173 -16.1169C754.924 -9.21573 753.625 -2.44821 752.377 4.31934C750.556 14.1811 746.082 22.7509 740.466 30.7739C738.516 33.5603 736.512 36.3143 734.691 39.1898C733.719 40.7207 732.261 42.0977 732.507 44.228C732.873 44.5276 733.162 44.8922 733.38 45.3215C733.692 46.2935 733.326 47.1926 733.107 48.1078C732.975 51.4127 729.238 50.8821 728.135 53.1582C727.745 53.9925 727.214 54.7336 726.723 55.4991C725.292 57.2527 724.512 59.383 723.556 61.3959C723.447 61.7523 723.346 62.1168 723.303 62.4975C723.377 62.8904 723.424 63.2791 723.502 63.672C723.658 64.5589 723.634 65.4256 723.377 66.2883C720.779 70.0548 718.541 73.9833 716.965 78.3694C715.694 81.901 715.471 85.3516 716.216 88.9561C717.878 92.6578 715 97.21 718.287 100.596C720.541 105.719 722.764 110.858 724.863 116.055C725.28 117.687 726.118 119.084 727.132 120.38C728.287 122.599 729.16 124.977 730.635 127.018C731.434 128.63 733.084 129.756 733.224 131.724C733.306 132.028 733.45 132.315 733.708 132.522C734.047 132.591 734.367 132.611 734.71 132.514C736.059 132.089 737.241 131.096 738.75 131.4C739.09 131.505 739.437 131.578 739.917 131.611C739.659 131.505 739.519 131.449 739.374 131.388C739.261 130.963 739.285 130.554 739.445 130.149C740.529 128.711 742.241 128.229 743.579 127.172C745.353 126.188 747.014 124.94 749.085 124.657C750.731 124.43 752.022 123.466 753.29 122.462C757.798 120.623 761.963 117.93 766.678 116.613C767.938 116.172 769.006 115.301 770.27 114.864C770.648 114.621 771.03 114.398 771.413 114.163C772.134 113.576 772.914 113.094 773.745 112.689C784.181 107.793 793.876 101.256 804.863 97.5907C806.551 97.3517 807.959 96.5174 809.227 95.3753C820.182 89.3651 831.55 84.2743 842.821 78.9688C843.242 78.8189 843.683 78.7015 844.116 78.6003C844.506 78.418 844.911 78.256 845.313 78.1021C846.117 77.9077 846.924 77.7173 847.63 77.2233C847.953 76.9398 848.308 76.713 848.679 76.5023C849.432 76.0528 850.192 75.6235 850.98 75.2307C861.783 69.6052 872.613 64.0446 883.814 59.3102C885.319 58.6945 886.899 58.2409 888.182 57.1353C889.172 56.3779 890.319 56.0782 891.501 55.8676C898.092 52.9435 904.994 50.7322 911.047 46.581C914.479 45.1595 917.841 43.5638 921.253 42.0733C924.44 41.9316 926.928 39.7365 929.876 38.8901C948.417 33.2849 967.308 29.1255 986.001 24.1521C992.334 22.4673 998.134 19.3893 1004.1 16.7447C1006.77 15.5581 1007.33 13.1402 1007.52 10.366C1008.06 2.54948 1006.87 -5.16574 1006.34 -12.9093C1005.73 -21.8598 1004.35 -30.7333 1002.59 -39.5299C1002.88 -41.5266 1002.75 -43.4746 1001.93 -45.3417C998.801 -59.1157 997.229 -73.1813 994.651 -87.0606C992.135 -100.604 990.349 -114.285 987.725 -127.804C987.428 -129.343 987.764 -130.918 987.514 -132.465C987.389 -132.939 987.311 -133.425 987.26 -133.911C987.253 -135.665 986.204 -137.09 985.802 -138.722C983.751 -145.615 982.257 -152.626 979.62 -159.402C972.725 -177.1 958.713 -188.525 946.568 -201.651C944.622 -203.753 941.498 -205.43 942.699 -209.326H947.703C958.206 -205.227 964.126 -195.621 971.477 -187.796C980.01 -178.716 984.02 -166.744 989.339 -155.688C992.931 -148.224 993.212 -139.634 994.596 -131.505C999.066 -105.322 1003.89 -79.2037 1008.37 -53.0245C1011.18 -36.5491 1014.82 -20.1831 1014.99 -3.31084C1015.02 -0.435349 1015.67 2.45634 1016.55 5.77328C1020.74 4.0723 1023.15 0.516388 1025.34 -2.5211C1031.78 -11.427 1039.13 -19.3974 1046.77 -27.1248C1049.71 -30.0975 1051.77 -33.4914 1053.1 -37.5252C1055.64 -45.2121 1058.81 -52.656 1061.55 -60.2659C1062.96 -64.1539 1064.21 -68.0459 1064.85 -72.2012C1066.04 -80.038 1070.33 -86.2223 1075.56 -91.6857C1079.67 -95.9706 1084.43 -99.5265 1088.64 -103.722C1093.88 -108.931 1099.74 -112.968 1107.07 -114.479C1118.48 -116.832 1127.32 -124.078 1135.49 -131.995C1141.34 -137.657 1147.78 -142.594 1153.38 -148.535C1155.78 -151.087 1159.32 -151.545 1162.28 -153.128C1175.09 -160.001 1186.63 -168.794 1197.55 -178.42C1207.2 -186.929 1219 -190.842 1230.26 -195.888C1234.94 -197.982 1239.14 -200.716 1242.91 -204.081C1245.36 -206.268 1248.03 -207.86 1250.85 -209.334H1255.85L1255.8 -209.318Z" fill="#E4C163"></path></svg>