<svg xmlns="http://www.w3.org/2000/svg" width="100" height="71" viewBox="0 0 100 71" fill="none"><path d="M84.4168 0.000996016H98.4914C99.2825 0.000996016 99.2353 -0.0580477 99.2353 0.73306C99.2353 1.65405 99.2353 2.58686 99.2353 3.50785C99.2353 3.82665 99.129 3.99196 98.8102 4.06281C96.8029 4.53511 94.8783 5.23175 93.0127 6.11732C90.8637 7.13277 88.8564 8.37257 87.0027 9.84852C86.2824 10.4271 85.5857 11.0293 84.9245 11.6905C84.5349 12.0801 84.5349 12.0683 84.1334 11.7259C82.6575 10.4507 81.1107 9.25813 79.4694 8.18364C77.3559 6.79035 75.1242 5.59778 72.7155 4.77125C71.8063 4.45245 70.8735 4.18088 69.9171 4.07461C69.5983 4.03919 69.492 3.8975 69.5038 3.60231C69.5038 2.55144 69.5038 1.50056 69.5038 0.44969C69.5038 0.0246169 69.5156 0.0246047 69.9761 0.0127971C70.1178 0.0127971 70.2595 0.0127971 70.413 0.0127971H84.4286L84.4168 0.000996016Z" fill="#5FB1D1"></path><path d="M84.3815 70.976C79.6702 70.976 74.959 70.976 70.2478 70.976C69.4449 70.976 69.5039 71.035 69.5039 70.2557C69.5039 69.3702 69.5039 68.4846 69.5039 67.599C69.5039 67.0323 69.5039 67.0323 70.0353 66.9024C72.3141 66.3238 74.5103 65.5091 76.6003 64.4346C79.2334 63.0767 81.6421 61.4118 83.7557 59.3337C84.1807 58.9204 84.1925 58.9086 84.6412 59.2983C86.1526 60.6089 87.7348 61.8133 89.4115 62.8996C91.7139 64.3873 94.1345 65.6508 96.7676 66.4537C97.417 66.6544 98.0664 66.8197 98.7513 66.9024C99.2 66.9614 99.2354 67.0086 99.2354 67.4455C99.2354 68.4728 99.2354 69.5001 99.2354 70.5273C99.2354 70.8343 99.1527 70.9996 98.8221 70.9642C98.6804 70.9524 98.5387 70.9642 98.3852 70.9642H84.3815" fill="#5FB1D1"></path><path d="M99.1765 10.2853C99.2592 10.5097 99.2238 10.7458 99.2238 10.9702C99.2238 17.8186 99.2238 24.667 99.2238 31.5036C99.2238 32.2829 99.33 32.2947 98.4681 32.2829C97.3109 32.2829 96.1656 32.2829 95.0085 32.2829C94.2882 32.2829 94.2882 32.2829 94.2055 31.539C94.0284 29.7324 93.6269 27.9731 93.1074 26.2374C92.1392 22.9431 90.6987 19.8613 88.7032 17.0511C88.5025 16.7677 88.5497 16.6142 88.774 16.3899C90.4153 14.7368 92.3163 13.4498 94.3354 12.328C95.7405 11.5487 97.2047 10.8875 98.7042 10.3444C98.8341 10.2971 98.964 10.2027 99.1647 10.2735" fill="#C74E80"></path><path d="M88.5147 54.2687C90.9589 51.3995 92.2223 48.0343 93.2024 44.5275C93.6983 42.7682 94.0761 40.9852 94.3477 39.1669C94.4304 38.6001 94.4421 38.6001 94.9971 38.6001C96.2487 38.6001 97.5121 38.6001 98.7637 38.6001C99.2124 38.6001 99.2124 38.6119 99.2242 39.037C99.2242 39.1432 99.2242 39.2377 99.2242 39.344V59.8301C99.2242 60.3496 98.9802 60.5386 98.4921 60.3969C95.9653 59.6884 93.7337 58.3896 91.6201 56.8664C90.5339 56.0871 89.4948 55.2488 88.5029 54.2687" fill="#9BBC62"></path><path d="M69.7763 10.2261C70.5792 10.474 71.2994 10.781 72.0079 11.0998C74.8535 12.3514 77.4866 13.9336 79.7655 16.059C80.4385 16.6848 80.4385 16.673 79.9308 17.4287C77.3449 21.2425 75.7155 25.446 74.9126 29.9802C74.8063 30.606 74.6764 31.2318 74.6646 31.8694C74.6646 32.1764 74.5347 32.3063 74.2159 32.3063C72.858 32.3063 71.5002 32.3063 70.1423 32.3063C69.8235 32.3063 69.6818 32.2 69.7172 31.8812C69.7172 31.7749 69.7172 31.6804 69.7172 31.5742C69.7172 24.7022 69.7172 17.842 69.7172 10.9699C69.7172 10.7456 69.6936 10.5213 69.7763 10.2379" fill="#9BBC62"></path><path d="M69.7756 60.5267C69.6693 60.3377 69.7165 60.1252 69.7165 59.9245C69.7165 53.017 69.7165 46.0978 69.7165 39.1903C69.7165 38.4465 69.6811 38.5055 70.3659 38.5055C71.6175 38.5055 72.881 38.5055 74.1326 38.5055C74.6167 38.5055 74.6167 38.5055 74.6639 38.966C75.2543 44.2794 77.049 49.1441 80.06 53.5602C80.0836 53.5956 80.1072 53.631 80.1308 53.6665C80.4024 54.0797 80.4142 54.0797 80.0718 54.4221C78.584 55.9335 76.8601 57.1143 75.0417 58.1651C73.5068 59.0507 71.9009 59.7828 70.2479 60.4086C70.0944 60.4676 69.9527 60.5385 69.7756 60.5267Z" fill="#C74E80"></path><path d="M84.5712 22.1051C84.7601 22.2113 84.8309 22.4121 84.9254 22.5774C86.4722 25.2341 87.405 28.1151 87.8891 31.1379C88.1489 32.7437 88.2079 34.3613 88.1607 35.9908C88.0544 39.8637 87.0744 43.5358 85.4804 47.0427C85.2088 47.6331 84.9136 48.2235 84.6302 48.7902C84.3941 48.7902 84.3704 48.6131 84.3232 48.5068C82.7882 45.5431 81.761 42.4141 81.2296 39.1316C80.9344 37.3605 80.8046 35.5775 80.8754 33.7946C81.0289 29.7328 82.127 25.9425 84.2642 22.4711C84.3468 22.3412 84.394 22.1641 84.583 22.0933" fill="#DE7126"></path><path d="M28.4847 44.0194C28.3194 44.6216 27.9298 45.0113 27.3276 45.1766C27.0088 45.2592 26.6782 45.3065 26.3476 45.2829C25.2731 45.212 24.7181 44.7043 24.5174 43.6416C24.3875 42.9686 24.3875 42.2955 24.5528 41.6343C24.7889 40.6543 25.4974 40.1466 26.5365 40.1466C27.5519 40.1466 28.2249 40.6543 28.4965 41.5871C28.6146 41.9885 28.6264 42.39 28.6264 42.8623C28.65 43.2165 28.6028 43.6298 28.4847 44.0194ZM9.87597 41.4336H9.85236C9.85236 41.776 9.88779 42.1302 9.85236 42.4726C9.76971 43.3228 9.29739 43.8659 8.47086 44.0903C7.85687 44.2556 7.25468 44.2084 6.6643 43.9722C6.18019 43.7715 5.88499 43.4054 5.76691 42.8859C5.63703 42.3428 5.69606 41.8232 5.83776 41.3037C5.99125 40.7724 6.38093 40.4417 6.90047 40.2882C7.80965 40.0285 8.73063 40.1702 9.65162 40.1466C9.84054 40.1466 9.87597 40.2882 9.87597 40.4417C9.87597 40.7724 9.87597 41.103 9.87597 41.4218M32.0388 44.7633C32.3576 43.4291 32.3458 42.0594 32.0034 40.7251C31.5193 38.8477 30.3385 37.6552 28.4257 37.2183C27.1623 36.9231 25.8989 36.9349 24.6354 37.2419C22.5337 37.7378 21.3175 39.2728 20.9751 41.2683C20.7507 42.5553 20.7626 43.8423 21.2113 45.153C21.0459 45.1648 20.9633 45.1766 20.8924 45.1766H14.906C14.7997 45.1766 14.7053 45.1766 14.599 45.1648C13.9968 45.0939 13.7134 44.8342 13.619 44.2438C13.5836 44.0194 13.5953 43.7951 13.5953 43.5707C13.5953 41.1266 13.5953 38.6706 13.5953 36.2264C13.5953 35.6715 13.5836 35.6597 13.0522 35.6597C12.1903 35.6597 11.3283 35.6597 10.4545 35.6597C9.9468 35.6597 9.92319 35.6951 9.91139 36.1792C9.87596 37.0294 9.87598 37.0175 9.00222 37.0294C7.96315 37.053 6.90046 36.9467 5.86139 37.1592C4.26737 37.478 3.09841 38.34 2.53165 39.8632C1.95308 41.41 1.95309 43.004 2.50804 44.5744C2.76781 45.3065 3.21649 45.9441 3.86591 46.3691C5.68428 47.5381 7.58531 47.668 9.55717 46.7588C9.69886 46.688 9.80512 46.5462 9.98223 46.5462C10.1239 46.6053 10.1239 46.747 10.1593 46.8651C10.3955 47.5617 10.8796 47.9868 11.5999 48.1639C11.9423 48.2466 12.2847 48.2938 12.6389 48.2938C15.0241 48.2938 17.4092 48.3056 19.7943 48.3174C21.9079 48.3174 24.0333 48.3174 26.1468 48.3174C26.9497 48.3174 27.7526 48.3174 28.5438 48.1403C30.4212 47.7506 31.6255 46.6407 32.0742 44.7751" fill="#808184"></path><path d="M42.0158 45.1773C41.3428 45.1655 40.658 45.2127 39.9849 45.1536C38.8514 45.0474 38.3083 44.457 38.2256 43.3117C38.1784 42.7095 38.1784 42.1191 38.3791 41.5405C38.7924 40.3125 40.1975 39.7576 41.3428 40.3716C41.8269 40.6313 42.0631 41.0682 42.2166 41.5878C42.3937 42.2372 42.311 42.8984 42.3346 43.4415C42.3346 43.9729 42.3346 44.4098 42.3346 44.8348C42.3346 45.0592 42.2638 45.1773 42.0158 45.1655M45.9242 48.8848C45.9242 47.834 45.9242 46.7831 45.9242 45.744C45.9242 44.7049 45.9242 43.6423 45.9242 42.5914C45.9242 42.0364 45.8887 41.4815 45.7706 40.9383C45.3574 39.1082 44.3419 37.8211 42.4881 37.3016C41.2602 36.9592 40.0086 36.9001 38.7688 37.1717C36.7497 37.5968 35.4626 38.8248 34.9077 40.8084C34.5653 42.0601 34.5653 43.3353 34.7896 44.5987C35.132 46.6414 36.3954 47.834 38.45 48.1292C39.2057 48.2354 39.9613 48.2826 40.7288 48.2826C41.1657 48.2826 41.5908 48.2945 42.0277 48.3063C42.2048 48.3063 42.3347 48.3535 42.3583 48.5778C42.4409 49.428 41.8623 50.2309 41.0122 50.3726C40.6462 50.4316 40.2801 50.4671 39.9023 50.4553C39.0639 50.4553 38.2138 50.4553 37.3755 50.4553C36.9032 50.4553 36.8914 50.4789 36.8914 50.9512C36.8914 51.6478 36.8914 52.3445 36.8914 53.0529C36.8914 53.5488 36.9149 53.5724 37.4227 53.5724C38.6979 53.5724 39.9731 53.5724 41.2484 53.5724C41.7089 53.5724 42.1575 53.5252 42.5944 53.4308C44.3655 53.1001 45.44 52.0493 45.8179 50.3018C45.9242 49.8295 45.9478 49.369 45.9478 48.8967" fill="#808184"></path><path d="M53.9179 38.0214C53.9179 37.5019 53.8707 37.4429 53.3629 37.4429C52.501 37.4429 51.6391 37.4429 50.7771 37.4429C50.2812 37.4429 50.2457 37.4901 50.2339 37.9624C50.2339 38.0805 50.2339 38.2104 50.2339 38.3284C50.2339 41.5755 50.2339 44.8226 50.2339 48.0697C50.2339 48.4593 50.2339 48.849 50.1159 49.2269C49.9387 49.8645 49.5609 50.2541 48.8997 50.3958C48.5573 50.4666 48.2031 50.4784 47.8606 50.4666C47.5773 50.4666 47.4355 50.5729 47.4355 50.8563C47.4355 51.6356 47.4355 52.4149 47.4355 53.1942C47.4355 53.4421 47.5418 53.5838 47.8016 53.572C48.7462 53.572 49.6908 53.6311 50.6236 53.4067C52.2531 53.0171 53.2921 52.0134 53.6818 50.384C53.8353 49.7227 53.9179 49.0497 53.9179 48.3649C53.9179 46.7236 53.9179 45.0824 53.9179 43.4293C53.9179 41.6228 53.9179 39.8162 53.9179 38.0096" fill="#808184"></path><path d="M60.566 39.6036V31.6453C60.566 31.5036 60.566 31.3619 60.566 31.2084C60.566 30.9014 60.4244 30.7598 60.1174 30.7598C59.7041 30.7598 59.2908 30.7598 58.8894 30.7598C58.3699 30.7598 57.8621 30.7598 57.3426 30.7598C57.0356 30.7598 56.8821 30.8896 56.9057 31.2084C56.9057 31.3147 56.9057 31.4092 56.9057 31.5155V47.5501C56.9057 47.6682 56.9057 47.7981 56.9057 47.9162C56.9057 48.1759 57.0356 48.294 57.2835 48.294C57.5551 48.294 57.8149 48.294 58.0864 48.294C58.7595 48.294 59.4443 48.294 60.1174 48.294C60.4244 48.294 60.5779 48.1759 60.566 47.8571C60.566 47.7155 60.566 47.5738 60.566 47.4203V39.5918" fill="#808184"></path><path d="M5.5662 64.27C5.03486 64.27 4.5035 64.27 3.96035 64.27C3.65335 64.27 3.61795 64.1283 3.6888 63.8803C4.03122 62.8531 4.36181 61.814 4.70423 60.7395C4.94038 60.9048 4.94037 61.1055 4.9876 61.2708C5.28279 62.121 5.55439 62.983 5.82596 63.8449C5.94404 64.2109 5.90861 64.2463 5.55438 64.2582M9.39184 67.5879C8.8605 66.0765 8.34097 64.5652 7.80963 63.0538C7.24287 61.4243 6.6761 59.7949 6.10934 58.1655C5.93222 57.6695 5.93224 57.6695 5.42451 57.6577C5.01125 57.6577 4.59796 57.6577 4.18469 57.6577C3.67697 57.6577 3.66516 57.6577 3.48805 58.1655C2.88586 59.8658 2.28368 61.5778 1.68149 63.2781C1.15015 64.7895 0.607019 66.2891 0.0756775 67.8122C-0.0660135 68.2019 -0.0305908 68.2373 0.370867 68.2491C0.866786 68.2609 1.3627 68.2491 1.84681 68.2491C2.16562 68.2609 2.34272 68.1311 2.42537 67.8359C2.54345 67.4226 2.69696 67.0093 2.80323 66.5961C2.87407 66.3363 3.02757 66.2419 3.28734 66.2419C3.78326 66.2537 4.27918 66.2419 4.76329 66.2419C5.21198 66.2419 5.67247 66.2655 6.12115 66.2419C6.46357 66.2182 6.65249 66.3245 6.74695 66.6787C6.85322 67.092 7.00671 67.5053 7.13659 67.9067C7.19563 68.0956 7.2901 68.2491 7.51444 68.2491C8.10482 68.2491 8.70702 68.2491 9.2974 68.2491C9.48632 68.2491 9.54536 68.131 9.48632 67.9539C9.4509 67.8359 9.40366 67.7178 9.36824 67.5997" fill="#808184"></path><path d="M24.4809 65.1907C24.4809 65.2144 24.4809 65.238 24.4809 65.2498C24.4809 65.2262 24.4809 65.2025 24.4809 65.1907ZM27.6336 60.7157C27.0786 60.7157 26.5237 60.7157 25.9687 60.7157C25.768 60.7157 25.6735 60.8219 25.6381 61.0108C25.6145 61.1525 25.5673 61.2942 25.5318 61.4241C25.2012 62.6285 24.8824 63.8447 24.5518 65.0491C24.5046 65.0491 24.4691 65.0491 24.4219 65.0491C24.0913 63.9746 23.7725 62.8883 23.4419 61.8138C23.0876 60.6448 23.0995 60.6448 21.8479 60.7157C21.5763 60.7275 21.4346 60.822 21.3638 61.0817C21.2339 61.554 21.104 62.0263 20.9623 62.4986C20.7143 63.3724 20.4546 64.2462 20.1712 65.2144C19.9232 64.7657 19.8642 64.3524 19.7461 63.9627C19.4745 63.0417 19.2384 62.0972 18.9786 61.1762C18.9314 60.9872 18.9078 60.7393 18.6362 60.7275C17.9868 60.7275 17.3374 60.7275 16.6761 60.7275C16.6761 60.8574 16.6643 60.9164 16.6761 60.9754C17.4436 63.2897 18.2229 65.604 18.9904 67.9301C19.0731 68.1663 19.203 68.2725 19.4391 68.2607C19.5808 68.2607 19.7225 68.2607 19.876 68.2607C21.0567 68.2371 20.856 68.4733 21.2339 67.2453C21.5763 66.1354 21.9069 65.0254 22.2493 63.8919C22.4264 64.0336 22.4382 64.1989 22.4855 64.3642C22.757 65.2852 23.0286 66.218 23.312 67.139C23.7371 68.4969 23.3947 68.2371 24.8234 68.2607C25.4728 68.2607 25.4728 68.2607 25.6853 67.6467C26.382 65.5804 27.0668 63.5259 27.7634 61.4595C27.8107 61.3178 27.8579 61.188 27.8934 61.0463C27.9524 60.8456 27.8933 60.7275 27.6572 60.7275" fill="#808184"></path><path d="M41.6274 65.6869C41.4149 66.3009 41.0725 66.5489 40.4348 66.5371C39.8327 66.5371 39.4194 66.2419 39.2895 65.6279C39.136 64.8604 39.136 64.0693 39.2895 63.3018C39.4076 62.6878 39.8208 62.4044 40.4348 62.3808C41.037 62.3572 41.4267 62.6524 41.6274 63.2428C41.7573 63.6442 41.7101 64.0575 41.7337 64.4589C41.7101 64.8722 41.7691 65.2737 41.6274 65.6751M43.9417 70.162V63.0066C43.9417 62.3926 43.9417 61.7668 43.9417 61.1528C43.9417 60.7278 43.9181 60.7159 43.4812 60.7041C43.0915 60.7041 42.7019 60.7041 42.3122 60.7041C42.1469 60.7041 41.9816 60.6687 41.8281 60.7632C41.6864 60.8576 41.7927 61.0702 41.651 61.1883C41.5684 61.141 41.5211 61.1056 41.4739 61.0702C39.75 59.8422 37.6364 60.6333 37.1287 62.676C36.9988 63.1955 36.9752 63.7387 36.9516 64.2582C36.928 65.0847 36.9752 65.8995 37.2586 66.6906C37.5656 67.5289 38.1206 68.0957 38.9943 68.2846C39.9507 68.4853 40.8717 68.4263 41.7219 67.5998V68.0602C41.7219 68.8868 41.7219 69.7133 41.7219 70.5281C41.7219 70.9649 41.7455 70.9767 42.1823 70.9767C42.631 70.9767 43.0916 70.9767 43.5402 70.9767C43.8354 70.9767 43.9535 70.8586 43.9299 70.5753C43.9299 70.4336 43.9299 70.2919 43.9299 70.1502" fill="#808184"></path><path d="M60.7433 64.7186C60.7433 64.1282 60.7551 63.526 60.7197 62.9356C60.6489 61.8139 60.0113 60.6095 58.3228 60.5505C57.5789 60.5269 56.9058 60.704 56.2446 61.318V60.5269C56.2446 59.7476 56.2446 58.9683 56.2446 58.189C56.2446 57.6931 56.221 57.6812 55.7133 57.6694C55.2764 57.6694 54.8513 57.6694 54.4145 57.6694C54.1547 57.6694 54.0366 57.7757 54.0484 58.0355C54.0484 58.1535 54.0484 58.2834 54.0484 58.4015V67.5288C54.0484 67.635 54.0484 67.7295 54.0484 67.8358C54.013 68.1664 54.1901 68.2608 54.4853 68.249C54.875 68.2372 55.2646 68.249 55.6542 68.249C56.2328 68.249 56.2328 68.249 56.2328 67.6586C56.2328 66.4661 56.2328 65.2735 56.2328 64.0809C56.2328 63.8566 56.2328 63.6323 56.2564 63.4079C56.3509 62.7703 56.7642 62.4279 57.4018 62.4279C58.0394 62.4279 58.4172 62.7703 58.4999 63.4315C58.5235 63.6559 58.5235 63.8802 58.5235 64.1046C58.5235 65.3208 58.5235 66.5251 58.5235 67.7413C58.5235 68.2136 58.5589 68.2372 59.0076 68.249C59.4445 68.249 59.8696 68.249 60.3064 68.249C60.637 68.2608 60.7315 68.1191 60.7315 67.8121C60.7315 66.7849 60.7315 65.7576 60.7315 64.7304" fill="#808184"></path><path d="M33.2896 63.6672C32.9353 63.6672 32.5929 63.6672 32.2387 63.6672C31.9081 63.6672 31.5775 63.6672 31.2469 63.6672C31.0343 63.6672 30.9635 63.5609 30.9753 63.3602C31.0107 62.7108 31.5539 62.2149 32.2623 62.2149C32.9944 62.2149 33.5375 62.6754 33.573 63.3248C33.5848 63.5491 33.5257 63.679 33.2778 63.679M32.8527 60.5736C32.4394 60.5382 32.0262 60.5382 31.6247 60.5854C30.3377 60.7271 29.3577 61.53 28.9916 62.7698C28.7082 63.7735 28.6846 64.8007 28.9208 65.8162C29.2632 67.2803 30.1606 68.1304 31.6129 68.3312C32.345 68.4374 33.1007 68.4138 33.8209 68.1895C34.4113 68.0124 34.9545 67.7054 35.4268 67.2921C35.6393 67.1032 35.6865 66.9497 35.4386 66.749C35.2142 66.5718 35.0017 66.3711 34.8009 66.1704C34.5057 65.887 34.4467 65.8043 34.0925 66.1113C33.7029 66.442 33.2187 66.5719 32.7228 66.6073C31.8845 66.6663 31.2587 66.2531 31.0461 65.5446C30.9517 65.2022 30.9753 65.1431 31.3413 65.1431C32.0025 65.1431 32.652 65.1431 33.3132 65.1431C33.998 65.1431 34.6711 65.1431 35.3559 65.1431C35.6747 65.1431 35.7928 65.025 35.7928 64.7062C35.7928 64.1277 35.7574 63.5491 35.6275 62.9942C35.3087 61.5891 34.305 60.7271 32.8645 60.5736" fill="#808184"></path><path d="M50.0926 65.8165C50.0336 66.2416 49.8093 66.5368 49.396 66.6549C49.0181 66.7612 48.6285 66.8084 48.2388 66.6903C47.8374 66.5722 47.6603 66.3597 47.6367 66.0055C47.6249 65.6276 47.8138 65.3797 48.2152 65.238C48.2979 65.2144 48.3687 65.179 48.4514 65.179C48.6994 65.179 48.9473 65.179 49.1952 65.179V65.1553C49.3015 65.1553 49.396 65.1553 49.5023 65.1553C50.1162 65.1553 50.1753 65.2262 50.0926 65.8284M50.1871 60.6566C49.1953 60.4677 48.1916 60.4795 47.1998 60.7393C46.8455 60.8338 46.5031 60.9872 46.1843 61.1762C45.9954 61.2942 45.9246 61.4241 46.0545 61.6367C46.2198 61.9201 46.3968 62.2034 46.5385 62.4986C46.6802 62.7584 46.8101 62.8646 47.1053 62.6757C47.7665 62.2506 48.5104 62.2743 49.2543 62.3569C49.8093 62.416 50.0926 62.782 50.1045 63.3133C50.1045 63.5731 50.0218 63.6912 49.762 63.6912C49.2425 63.6912 48.7348 63.6912 48.2152 63.703C47.6721 63.7148 47.1644 63.8565 46.6803 64.1162C45.7593 64.6004 45.4877 65.4151 45.5585 66.3951C45.6294 67.3279 46.1725 68.0246 47.0817 68.2725C48.1444 68.5559 49.1598 68.4969 50.0454 67.7412C50.2107 68.2607 50.1989 68.2607 50.6948 68.2607C51.0491 68.2607 51.3915 68.2607 51.7457 68.2607C52.0527 68.2607 52.1944 68.1663 52.1944 67.8357C52.1944 66.218 52.2298 64.5885 52.1708 62.9709C52.1236 61.6248 51.4859 60.9282 50.1871 60.6802" fill="#808184"></path><path d="M15.7916 60.7273C15.6381 60.6565 15.4845 60.6093 15.3192 60.5857C14.4455 60.444 13.6426 60.6093 13.005 61.3059C12.9105 60.9123 12.6704 60.7116 12.2847 60.7037C11.9541 60.7037 11.6235 60.7037 11.2929 60.7037C10.7143 60.7037 10.7143 60.7037 10.7143 61.2823C10.7143 63.2778 10.7143 65.2733 10.7143 67.2569C10.7143 67.4459 10.7143 67.623 10.7143 67.8119C10.6907 68.1425 10.8442 68.2488 11.1512 68.237C11.5408 68.2252 11.9305 68.237 12.3201 68.237C12.8987 68.237 12.9105 68.237 12.9105 67.6584C12.9105 66.4894 12.9105 65.3205 12.9105 64.1397C12.9105 63.8564 12.9105 63.573 13.0168 63.2896C13.2411 62.6638 13.7134 62.3922 14.3628 62.5221C14.5399 62.5575 14.7171 62.6166 14.8824 62.6874C15.3074 62.8645 15.3074 62.8645 15.5436 62.4631C15.7207 62.1561 15.8742 61.8491 16.0395 61.5421C16.3111 61.0461 16.2757 60.9399 15.7679 60.7155" fill="#808184"></path><path d="M61.6991 28.3395C61.6755 28.0679 61.5693 27.9853 61.3213 27.9853C60.7309 27.9853 60.1287 27.9853 59.5383 27.9853C58.7945 27.9853 58.3104 27.572 58.1923 26.8399C58.0742 26.037 58.7 25.4112 59.4911 25.5529C59.7154 25.5883 59.9162 25.6828 60.1169 25.8127C60.6719 26.1905 60.6719 26.1787 61.1324 25.7182C61.1914 25.6592 61.2504 25.6001 61.3095 25.5411C61.6637 25.1633 61.6755 25.116 61.2859 24.7618C60.4003 23.9825 59.3494 23.8998 58.2749 24.136C57.1532 24.384 56.4566 25.2931 56.3975 26.4385C56.3739 26.9344 56.4684 27.4185 56.6809 27.9026C56.3149 28.0443 55.9252 27.8318 55.7245 28.0797C55.5238 28.3159 55.6536 28.6701 55.6536 28.9771C55.6536 29.473 55.6537 29.4848 56.1614 29.4848C57.661 29.4848 59.1605 29.4848 60.6601 29.4848C61.8172 29.4848 61.8172 29.4848 61.7109 28.3277" fill="#808184"></path><path d="M8.71823 33.8296C9.10788 33.8296 9.49756 33.8296 9.88721 33.8296C10.3005 33.8296 10.7137 33.8296 11.1152 33.8296C11.3277 33.8296 11.4812 33.7587 11.4812 33.5226C11.4812 32.7197 11.4812 31.9167 11.4812 31.1256C11.4812 30.9013 11.3632 30.7832 11.1388 30.7832C10.3359 30.7832 9.53297 30.7832 8.73005 30.7832C8.48209 30.7832 8.35221 30.9131 8.36402 31.1611C8.36402 31.9404 8.36402 32.7197 8.36402 33.499C8.36402 33.7351 8.48211 33.8296 8.70645 33.8296" fill="#808184"></path><path d="M4.77511 33.8296C5.16476 33.8296 5.55444 33.8296 5.94409 33.8296C6.33374 33.8296 6.72338 33.8296 7.11303 33.8296C7.34918 33.8296 7.51448 33.7587 7.51448 33.4871C7.51448 32.6842 7.51448 31.8931 7.51448 31.0902C7.51448 30.8895 7.39639 30.7832 7.20747 30.7832C6.39275 30.7832 5.56623 30.7832 4.75151 30.7832C4.52717 30.7832 4.4209 30.9013 4.4209 31.1374C4.4209 31.9167 4.4209 32.696 4.4209 33.4753C4.4209 33.7351 4.53897 33.8532 4.78693 33.8414" fill="#808184"></path><path d="M27.2802 34.845C27.6698 34.845 28.0595 34.845 28.4491 34.845C28.8624 34.845 29.2756 34.845 29.6771 34.845C29.9251 34.845 30.0668 34.7387 30.0668 34.479C30.0668 33.7233 30.0668 32.9558 30.0668 32.2001C30.0668 31.9522 29.9487 31.8223 29.6889 31.8223C28.886 31.8223 28.0831 31.8223 27.292 31.8223C27.044 31.8223 26.9023 31.9285 26.9023 32.1883C26.9023 32.944 26.9023 33.7115 26.9023 34.4672C26.9023 34.7269 27.0086 34.845 27.2684 34.845" fill="#808184"></path><path d="M23.3123 34.8454C23.702 34.8454 24.0916 34.8454 24.4813 34.8454C24.8709 34.8454 25.2605 34.8454 25.6502 34.8454C25.8864 34.8454 26.0399 34.7746 26.0399 34.503C26.0399 33.7237 26.0399 32.9444 26.0399 32.1651C26.0399 31.9407 25.9336 31.8345 25.7093 31.8345C24.9063 31.8345 24.1152 31.8345 23.3123 31.8345C23.0526 31.8345 22.9463 31.9526 22.9463 32.2005C22.9463 32.9562 22.9463 33.7119 22.9463 34.4794C22.9463 34.7391 23.0644 34.8572 23.3123 34.8572" fill="#808184"></path></svg>