<svg xmlns="http://www.w3.org/2000/svg" width="93" height="57" viewBox="0 0 93 57" fill="none"><path d="M68.778 0.282227C74.3198 9.31776 78.9842 18.8717 83.9644 28.2353C86.2966 32.6214 88.5976 37.0319 90.8362 41.4707C91.5928 42.9692 92.7784 44.326 92.6419 46.2051C90.1069 50.5386 85.5517 51.211 81.5347 51.6929C76.3868 52.3126 71.0633 52.4097 65.8452 51.4823C65.2953 51.1866 64.8936 50.7493 64.6323 50.1661C62.9865 49.1293 61.1535 49.2467 59.3439 49.2508C53.9035 49.2629 48.4591 49.4086 43.0225 49.279C38.3543 49.1697 34.3802 50.7978 30.7922 53.73L30.8897 54.1917L30.5349 54.4833C29.8329 54.9369 29.1269 55.3905 28.0115 56.1114C18.402 49.3439 9.8728 40.9118 0.0136719 34.1118C7.06482 27.4131 13.6518 21.1721 20.2194 14.9068C22.9026 12.3472 26.3814 12.1609 29.6028 12.0961C34.7858 11.9908 39.8558 10.9539 45.0194 10.7028C49.5199 10.4841 53.7553 8.51588 57.8035 6.47468C61.5435 4.58738 65.1276 2.35987 68.7819 0.282227H68.778Z" fill="#333333"></path></svg>