<svg xmlns="http://www.w3.org/2000/svg" width="90" height="55" viewBox="0 0 90 55" fill="none"><path d="M84.3959 3.20013C84.5168 2.36988 84.8249 1.63684 85.445 1.07389C86.8607 0.389438 87.6173 1.38979 88.4051 2.32129C88.8224 3.19204 89.1032 4.1033 89.1149 5.08744C88.994 5.55319 88.7795 5.96224 88.4675 6.32269L88.4753 6.30244C87.8123 6.90994 87.6719 7.90623 86.9816 8.49753C86.6189 8.75673 86.2601 9.01999 85.9208 9.31564C85.1798 9.83404 84.3998 10.2714 83.6159 10.721C74.4432 16.1399 64.2604 19.4973 55.1344 25.5034C55.852 33.729 60.3019 40.4398 62.4585 47.9282C62.7393 48.9205 62.8993 49.9289 62.9344 50.9617C62.95 51.5003 62.8641 52.0188 62.7003 52.525C62.2401 53.497 61.7761 54.4771 60.4384 54.0397C60.4033 53.7279 60.3838 53.4119 60.3838 53.1001C60.0874 52.7194 59.7949 52.3347 59.4517 51.9945C57.2287 50.0059 56.125 47.4139 55.3216 44.5182C53.629 38.4391 52.5097 32.1292 49.4014 26.8521C48.1886 26.0462 47.1902 26.1717 46.2893 26.6617C42.5219 28.707 38.5751 28.4316 34.6323 27.6094C27.9477 26.2162 21.505 26.5362 15.2377 29.6425C12.106 31.1977 8.77935 32.3277 5.54237 33.6642C4.15398 34.2352 2.68761 34.7253 2.28981 36.5194C1.21732 34.9521 0.667391 33.166 0.308594 31.303C7.45724 28.1683 14.6215 25.0701 21.7506 21.8868C25.8495 20.0562 29.4804 21.5142 33.1464 23.2922C38.8715 26.0705 39.8036 26.034 45.7706 23.2476C46.5974 22.0245 45.8057 20.9634 45.4547 19.8578C46.1684 18.4403 45.3884 17.9624 44.2184 17.7315C42.6272 14.9411 40.685 12.3572 39.5306 9.30348C40.2443 8.10063 41.3207 7.60653 42.6389 7.58223C47.393 9.31157 48.2705 14.9816 52.5331 18.0596C58.7692 15.1557 65.052 11.8469 71.2374 8.28692C75.3558 5.91363 79.244 2.74248 84.3998 3.20013H84.3959Z" fill="#555656"></path></svg>