<svg xmlns="http://www.w3.org/2000/svg" width="18" height="18" viewBox="0 0 18 18" fill="none"><path d="M1.54355 17.5719C0.198058 13.0319 1.51241 8.32578 0.728516 3.74929C1.02491 2.4938 1.31739 1.2383 2.65508 0.6875L3.12696 0.792804C3.22836 1.13705 3.43892 1.37195 3.76651 1.4975C7.14389 3.80194 11.1102 3.89103 14.1911 4.80228C16.1177 4.45803 16.6364 3.21468 17.6231 2.64768C17.471 4.59168 16.4063 5.57179 14.5889 5.87554C13.181 6.11044 11.7888 6.47493 10.3926 6.78273C7.55338 6.21573 4.65576 5.41788 2.85008 8.87657C0.864992 11.5253 2.25334 14.7248 1.53965 17.58L1.54355 17.5719Z" fill="#CBB15F"></path></svg>