<svg xmlns="http://www.w3.org/2000/svg" width="124" height="158" viewBox="0 0 124 158" fill="none"><path d="M26.7537 150.985C28.6451 147.32 27.8378 143.197 28.3058 139.33C29.1287 132.53 29.3861 125.58 27.518 118.788C26.1062 113.653 25.3574 108.254 23.4153 103.357C21.0831 97.485 17.8071 92.0135 14.9289 86.3759C10.2606 77.2351 5.58071 68.0983 0.920241 58.9494C0.378145 57.8883 -0.167813 56.8028 0.0817847 54.8629C2.91316 52.0522 6.93788 50.3431 10.6546 48.2574C19.8585 43.0896 29.2029 38.185 38.4731 33.1387C39.9395 32.3409 41.3083 31.3527 42.724 30.4496C47.2675 28.5056 50.8906 25.2291 54.5214 21.904C61.9977 15.0555 69.5753 8.33253 77.1257 1.56904C77.4923 1.24099 77.972 1.04255 78.3464 0.815749C79.9922 0.72665 80.8151 1.91737 81.638 2.96227C90.4636 14.1888 99.2697 25.4356 108.064 36.6906C111.414 40.9755 114.729 45.2928 118.052 49.6019C122.896 55.8794 124.838 62.7685 123.157 70.8806C122.151 75.7366 122.299 80.8355 121.952 85.8129C121.519 91.9973 120.848 98.1735 120.568 104.386C120.135 114.013 118.754 123.587 117.951 133.202C117.537 138.183 117.892 143.23 116.726 148.146C116.57 148.802 116.371 149.446 116.231 149.961C114.48 151.427 112.576 150.852 110.794 150.957C99.9678 151.581 89.1922 150.285 78.4049 149.823C63.0858 149.171 48.2191 151.034 33.5942 155.643C31.0748 156.437 28.5242 157.421 25.7826 157.089C25.7904 156.813 25.7825 156.542 25.763 156.271C26.8901 154.671 25.4979 152.561 26.7537 150.985Z" fill="#333333"></path></svg>