<svg xmlns="http://www.w3.org/2000/svg" width="98" height="23" viewBox="0 0 98 23" fill="none"><path d="M33.4549 -59.6108C32.3512 -69.995 32.5969 -80.4277 32.3668 -90.8443C32.2849 -94.5258 34.4455 -96.7776 36.567 -99.1509C36.7542 -100.941 38.2401 -102.059 38.79 -103.573C38.4897 -105.27 37.1442 -106.283 36.6996 -107.777C37.1325 -119.101 44.5152 -128.323 55.8095 -131.344C74.0614 -114.026 85.344 -91.5814 96.7085 -69.1931C97.8122 -65.945 95.9675 -64.4141 93.5105 -63.1869C79.2873 -56.0792 65.9182 -47.2988 51.6833 -40.2113C50.6147 -39.6808 49.8074 -38.806 49.2263 -37.2143C53.3135 -28.4218 58.559 -19.9978 63.0127 -11.1364C64.8535 -7.47523 66.6982 -3.78568 68.8237 -0.266235C70.4149 2.36626 70.3057 5.01495 67.564 7.00755C66.8932 7.41255 66.2419 7.84996 65.4931 8.10106C64.4519 8.31976 63.3949 8.2914 62.3419 8.31569C55.7666 8.78549 49.2809 10.0491 42.7017 10.5553C39.5271 10.7984 36.9882 13.1635 34.3753 14.9496C30.7756 17.4079 27.1252 19.7488 23.2252 21.6888C20.3666 23.1103 18.1708 22.7499 16.4549 19.8339C10.5932 9.85469 4.92268 -0.221695 0.648306 -11.0757C-0.0926885 -12.963 0.43381 -14.4007 1.479 -15.8466C3.48749 -17.0494 5.40236 -18.4588 7.51225 -19.4186C18.7052 -24.5095 25.495 -33.6098 29.5978 -45.2131C30.2881 -47.1611 31.0564 -49.0565 32.4682 -50.5833C32.8699 -50.7656 33.1624 -51.0653 33.3379 -51.4824L33.451 -51.5999C33.8605 -51.7862 34.153 -52.1021 34.3402 -52.5233L34.4493 -52.6367C34.8471 -52.8189 35.1357 -53.1186 35.2839 -53.5479C35.5296 -53.7504 35.6544 -54.0137 35.6661 -54.3417C35.9001 -54.7913 35.8728 -55.2327 35.6154 -55.662V-55.6863C33.6966 -56.2898 34.4572 -58.4727 33.4549 -59.6148V-59.6108Z" fill="#333333"></path></svg>