<svg xmlns="http://www.w3.org/2000/svg" width="16" height="7" viewBox="0 0 16 7" fill="none"><path d="M6.49738 5.56445C4.45769 5.6495 2.68705 7.05892 0.584961 6.85642C0.947658 6.12742 1.30647 5.39436 1.66916 4.66536C2.58566 3.94041 3.76733 3.64071 4.57462 2.73756C4.89442 1.70481 4.07934 -0.494324 6.54023 0.672074C6.31013 0.894824 6.23991 1.10541 6.32961 1.31196C6.41541 1.51446 6.49736 1.61571 6.57926 1.61571C6.86006 1.59546 7.14473 1.5752 7.42943 1.56305C8.12363 1.72505 8.55658 2.15032 8.65407 2.89957C10.7094 4.41832 13.7084 2.51078 15.518 4.92862C14.2115 4.70587 12.9206 4.21578 11.5712 4.68153C9.78506 4.37778 8.09247 4.68155 6.49738 5.56445Z" fill="#CDAB5C"></path></svg>