<svg xmlns="http://www.w3.org/2000/svg" width="72" height="58" viewBox="0 0 72 58" fill="none"><path d="M71.5287 33.966C62.5354 38.8381 53.0428 42.5641 43.874 47.0272C36.7956 50.4737 29.5572 53.5558 22.978 57.298C22.2955 57.3385 21.9639 57.3749 21.6325 57.3749C14.8075 57.3547 11.2585 53.572 9.31245 46.9462C6.99197 39.0366 3.29869 31.5967 1.26291 23.5534C0.354214 21.0748 1.3604 19.7019 3.59508 18.7825C15.0415 14.0805 25.6767 7.60455 36.8658 2.32336C42.7196 -0.438731 43.2422 -0.418456 47.2397 4.72908C51.7597 14.0036 59.665 20.0623 66.8059 26.838C68.9391 28.863 71.361 30.5802 71.5365 33.9619L71.5287 33.966Z" fill="#333333"></path></svg>