<svg xmlns="http://www.w3.org/2000/svg" width="114" height="34" viewBox="0 0 114 34" fill="none"><path d="M113.361 3.92937C107.488 3.77142 101.849 4.93782 96.2014 6.61452C83.9009 10.2636 71.6238 14.1192 59.1361 16.9258C39.3008 21.3849 20.0428 27.9783 0.390798 33.0691C0.277699 30.55 0.020312 28.0187 1.1825 25.6495C1.3463 26.9981 1.50619 28.3468 1.70899 30.0235C5.84296 29.825 9.57135 28.4075 13.327 27.3181C35.7519 20.8219 58.0987 14.0179 80.5859 7.74854C88.7525 5.47244 96.8293 2.71844 105.249 1.41434C107.745 1.0296 110.194 0.835194 112.694 1.05794C113.396 1.89629 114.328 2.67388 113.365 3.92937H113.361Z" fill="#535454"></path></svg>