<svg xmlns="http://www.w3.org/2000/svg" width="46" height="50" viewBox="0 0 46 50" fill="none"><path d="M31.5946 0.420898C36.1536 8.08348 39.4491 16.3617 42.4053 24.7816C43.6494 28.3213 44.4762 32.023 45.3771 35.2225C44.9559 37.045 43.9419 37.6849 42.8616 38.1385C35.4517 41.257 28.4005 45.1369 21.3845 49.0816C20.4056 49.6324 19.5164 49.6566 18.5336 49.3164C16.2872 49.8713 15.7256 48.0124 15.0314 46.5463C11.537 39.1631 6.82193 32.5981 2.32136 25.8832C1.01097 23.9271 -1.21194 22.064 0.940847 19.2817C8.63159 15.3653 15.6203 10.2259 22.9445 5.66967C25.1986 4.26838 27.4606 2.88731 29.7226 1.49816C30.1906 0.947362 31.0173 1.0527 31.4658 0.469496L31.5907 0.420898H31.5946Z" fill="#333333"></path></svg>