<svg xmlns="http://www.w3.org/2000/svg" width="69" height="98" viewBox="0 0 69 98" fill="none"><path d="M52.7357 88.2767C52.3691 85.8953 50.5088 84.4657 49.3154 82.6311C34.0549 59.1168 18.728 35.6471 3.4206 12.1612C2.11801 10.1646 0.581396 8.26912 0.663295 5.64068C2.84728 3.87083 5.05859 2.13747 7.61698 0.967021C9.97256 -0.0576275 11.2401 1.27481 12.5154 3.13781C20.7014 15.061 28.5793 27.2029 36.4143 39.3771C47.1119 56.0024 57.8681 72.5871 68.4175 89.3216C68.6515 89.7914 68.788 90.2896 68.8426 90.8161C68.8582 91.622 68.6476 92.3551 68.2186 93.0233C65.3365 94.5461 63.3553 97.8712 59.6191 97.7254C58.7299 97.612 57.9851 97.1948 57.3845 96.5144C57.131 96.2269 56.8775 95.9191 56.624 95.6275C56.3822 95.3561 56.1443 95.0686 55.9025 94.7932C55.7855 94.6636 55.6763 94.5178 55.5593 94.3882C55.337 94.129 55.1304 93.8455 54.9276 93.5661C54.7014 93.315 54.5297 93.0233 54.3893 92.7196C54.2567 92.4239 54.1124 92.1323 53.9369 91.8569C53.7341 91.6058 53.5586 91.3385 53.387 91.0631C53.1998 90.7958 53.0516 90.5083 52.9268 90.2086L52.7865 89.7428C52.728 89.4229 52.7045 89.0989 52.7201 88.7708L52.7435 88.2849L52.7357 88.2767Z" fill="#333333"></path></svg>