<svg xmlns="http://www.w3.org/2000/svg" width="102" height="156" viewBox="0 0 102 156" fill="none"><path d="M54.7293 155.166C54.7449 145.154 55.6809 135.236 57.3891 125.386C57.9429 122.191 58.7619 119.036 57.8649 115.703C57.3267 113.69 58.3212 111.632 58.5084 109.543C56.1918 105.258 53.0914 102.844 48.0565 103.249C43.4506 103.621 38.8954 103.273 34.3324 104.998C30.9629 106.274 27.0239 105.707 23.4516 105.161C18.4869 104.399 13.5339 104.322 8.55758 104.257C6.8767 104.233 5.24255 104.043 3.71766 103.253C3.69036 93.9177 2.8597 84.6392 1.90421 75.3647C1.65851 72.963 1.77552 70.525 1.71702 68.1031C1.61172 63.6157 1.68584 59.1445 0.960446 54.6611C0.0712523 49.145 0.644468 47.5818 4.09594 41.4663C1.79886 32.775 6.58804 25.1975 9.18152 17.0651C10.7532 12.1362 13.4091 8.79499 18.1671 6.84695C22.6286 5.02445 26.8133 2.47293 31.3178 0.140137C37.0312 5.06898 42.8422 9.34983 47.0503 15.4937C54.9828 27.0645 61.5426 39.5101 68.3948 51.7613C72.0725 58.3385 75.5396 65.0413 79.1471 71.667C79.892 73.0359 80.6797 74.34 80.6719 75.9844C80.6446 83.0718 82.1929 90.0783 81.6508 97.1901C80.9137 106.894 83.9908 115.099 90.3906 122.162C94.6104 126.82 97.6758 132.393 101.662 137.949C95.3593 143.733 89.6926 149.71 82.7428 155.174H54.7254L54.7293 155.166Z" fill="#333333"></path></svg>