<svg xmlns="http://www.w3.org/2000/svg" width="18" height="20" viewBox="0 0 18 20" fill="none"><path d="M15.4601 17.8179C14.0015 17.6438 13.475 18.5105 13.358 19.8389C11.8058 17.8665 12.0242 14.9424 9.97282 13.0227C7.00884 12.4071 4.94965 14.906 2.36787 15.6309C1.50598 15.0882 0.390575 14.8007 0.359375 13.4399C2.87486 11.9617 5.38643 10.4834 7.90971 9.00108C7.89021 6.25518 6.34973 4.43268 5.28114 2.41173L5.60877 2.10393C6.22497 1.43568 6.58372 0.488005 7.51581 0.151855C9.0485 2.108 9.12654 4.91467 11.0687 6.70476C12.8315 7.32036 14.0444 5.94336 15.4601 5.28321C15.8462 5.33181 16.2362 5.38446 16.6223 5.43306C17.4062 6.23091 18.0457 7.07735 17.5153 8.3126C16.1075 9.1631 14.6957 10.0095 13.3697 10.8114C13.2215 13.614 15.3782 15.3798 15.4562 17.822L15.4601 17.8179Z" fill="#555554"></path></svg>