<svg xmlns="http://www.w3.org/2000/svg" width="53" height="39" viewBox="0 0 53 39" fill="none"><path d="M1.69088 2.63717C8.94092 -0.436777 15.4461 -4.9444 22.2437 -8.8891C26.8379 -11.554 31.4983 -14.1014 36.4591 -16.8838C42.7185 -5.20766 48.0615 6.36721 52.5426 19.1692C41.3535 26.2851 29.2051 31.2544 18.1955 38.3055C14.5724 34.5066 13.8822 30.0232 11.6241 26.4754C11.0196 25.9206 10.2006 25.7019 9.62726 25.0903C9.36986 24.7461 9.1593 24.3775 8.98381 23.9847C8.62891 23.4217 8.3052 22.8466 8.0985 22.1987C7.92691 21.7612 7.75136 21.3279 7.56026 20.8986C6.14067 16.4963 4.05815 12.4179 2.06916 8.29096C1.21507 6.52517 -0.110909 4.65812 1.69088 2.64122V2.63717Z" fill="#333333"></path></svg>