<svg xmlns="http://www.w3.org/2000/svg" width="121" height="71" viewBox="0 0 121 71" fill="none"><path d="M24.3986 27.7159C24.0437 27.3433 23.6849 26.9707 23.33 26.6022C18.6929 22.9369 13.2759 22.7304 7.76909 22.6089C5.11321 22.5522 1.95814 23.5404 0.21875 20.1708C1.33024 18.2916 2.48073 16.4448 4.09142 14.9706C5.05471 16.6271 6.55619 17.0726 8.31898 17.2468C18.4082 18.2633 28.5481 18.9639 38.5633 20.5272C50.2944 22.3537 62.1191 22.0459 73.8736 23.0422C74.1505 23.0665 74.4547 22.7588 74.9383 22.5077C75.1567 19.1543 72.0835 17.352 70.972 14.3996C73.1014 13.0793 73.7995 15.9871 75.8821 15.6388C81.3772 12.6742 86.4042 8.11402 91.7901 4.08833C93.003 3.18113 93.3696 1.92962 93.549 0.52832C94.7307 1.67447 95.0661 3.20944 95.3703 4.75654C94.5981 6.44538 93.7362 8.08559 92.7417 9.87569C94.0053 14.355 97.1759 17.6639 99.2585 21.074C101.068 22.1634 102.293 21.074 103.58 21.159C105.011 23.0949 106.216 25.1361 106.481 27.6349C101.895 30.6117 97.0472 33.1834 92.8275 36.7596C92.9835 39.793 94.4382 41.7168 96.4817 43.3733C102.152 42.2595 105.475 37.0957 110.459 34.933C111.61 36.0144 112.144 37.4399 112.538 38.9425C107.32 41.984 102.496 45.625 97.3827 49.27C99.8474 55.7378 103.896 60.7558 106.91 66.2233C111.879 66.7012 115.521 62.7079 120.127 63.0036C120.127 63.6597 120.213 64.1902 120.116 64.2307C113.361 66.9888 106.93 70.9172 99.2117 70.0789C89.1342 68.9854 79.0216 68.3131 68.8855 68.1268C67.7194 68.1065 66.5534 68.1592 65.3912 68.1795C66.3896 67.4748 67.3918 66.774 68.3902 66.0693C73.2457 61.8857 78.8071 64.0647 84.0642 64.4332C88.8378 64.7694 93.5529 65.1378 98.6696 64.4453C97.2812 60.7922 95.3859 58.0666 92.5623 55.0008C85.4644 58.5283 77.6722 59.6744 69.6461 59.3261C67.9067 60.7639 68.476 64.3198 65.4302 64.0646C65.2079 61.9424 65.8904 59.6582 64.3928 57.7628C58.9679 59.6136 53.5197 57.7345 48.0909 57.7183C44.1441 57.7062 40.1545 56.9853 36.157 56.8314C34.0393 56.7504 31.6642 56.7584 31.3093 53.6359C33.037 53.5103 34.87 53.9436 36.3676 52.5991C36.7693 50.7685 38.8089 50.4445 39.8229 48.2696C40.9071 45.7627 39.121 41.6439 42.3463 39.0762C43.8555 40.4532 42.9078 42.8629 44.3664 44.2602C46.7493 45.3253 46.1799 48.1927 48.1338 50.7402C56.9828 51.1857 66.4169 52.506 75.4804 52.182C77.6722 49.4968 78.2611 47.3382 77.1262 44.3533C72.6139 43.1181 67.9067 42.466 63.098 42.4174C60.2666 42.3891 57.4274 42.5105 54.5999 42.2675C52.6032 42.0974 50.505 41.9517 50.31 39.0964C51.1134 38.979 51.8193 38.6671 52.3692 38.0272C53.5041 35.7632 55.61 35.8119 57.5834 35.8321C63.7181 35.901 69.8801 35.2165 75.9835 36.4396C77.3017 36.7029 78.6316 36.6705 79.9537 35.4514C79.8055 31.9118 78.1363 28.781 74.8837 28.3032C66.5495 27.0841 58.1333 25.9541 50.0682 27.08C47.7165 28.7608 49.023 32.8797 45.396 32.904C45.0333 32.5273 44.6745 32.1547 44.3118 31.7781C42.0576 30.6198 42.6115 27.8212 41.0359 25.8165C37.327 23.6498 32.92 25.2575 29.2774 24.3463C27.2924 25.1684 27.1324 27.1125 25.744 27.8212C25.2683 28.0359 24.8159 27.9954 24.383 27.7078L24.3986 27.7159Z" fill="#525353"></path></svg>