<svg xmlns="http://www.w3.org/2000/svg" width="90" height="80" viewBox="0 0 90 80" fill="none"><path d="M66.3202 0.740833C70.0954 5.69802 71.8893 11.6798 74.1864 17.3822C79.311 30.0952 84.8918 42.6137 89.5523 55.5291C90.6404 58.0522 89.5523 59.6115 87.6686 61.2477C82.8054 65.4759 77.5131 69.0439 72.0219 72.6686C71.6553 74.9204 73.7964 77.9255 71.3473 79.0433C53.5439 79.991 36.7662 77.3505 19.93 75.7588C14.5168 75.2485 9.13098 74.2117 3.69052 73.7986C1.38174 73.6245 -0.162649 72.7173 0.0869494 69.9714C4.88392 63.1431 10.847 57.3759 16.1899 51.0458C20.3395 46.1331 24.6373 41.3541 28.9584 36.6035C31.5363 33.7685 33.693 30.3584 37.7334 29.3378C38.3769 29.1758 38.8059 28.1107 39.3363 27.4627C41.5007 25.628 44.2151 27.1994 46.7267 26.0978C48.6026 25.0165 48.4037 22.2787 49.9559 20.7235C48.4973 22.1653 48.5948 24.571 46.6565 26.1626C44.5661 26.1383 41.8869 28.1512 40.0539 24.737C42.3705 21.3674 45.4865 18.7876 48.236 15.8513C49.4489 14.5553 50.9075 13.8426 52.6937 14.6688C55.525 15.5557 58.4266 14.932 61.2892 15.1224C63.4849 15.2803 65.7274 14.7497 67.8802 15.5476C68.3716 15.8108 68.8786 16.0741 69.1984 16.552C69.3076 16.7464 69.3817 16.9853 69.3934 17.1797C69.3778 17.119 69.3661 17.3782 69.3544 17.3093C69.3388 17.2364 69.4597 17.2202 69.4402 17.1635C69.4207 17.1068 69.3894 16.9529 69.3738 16.9043C69.3075 16.6249 69.2022 16.4265 69.0267 16.2321C68.6367 15.8878 68.2 15.6812 67.7593 15.4342C67.3615 15.2722 66.9676 15.1831 66.5464 15.1507C63.91 15.0899 61.2892 15.1345 58.6606 15.1224C56.0906 14.4906 52.3505 16.8436 51.4301 12.0443C53.1617 10.2421 54.9557 8.50463 56.6092 6.62949C58.8439 4.09824 61.3594 2.00441 64.4014 0.623367C65.08 -0.0286813 65.7235 -0.0975114 66.3124 0.744887L66.3202 0.740833Z" fill="#333333"></path></svg>