<svg xmlns="http://www.w3.org/2000/svg" width="50" height="54" viewBox="0 0 50 54" fill="none"><path d="M44.5614 23.7198C46.332 25.7569 47.0964 28.272 47.6853 30.868C48.3405 31.8967 48.9254 32.974 49.5845 33.9987C49.4441 35.3068 48.8435 36.3072 47.6423 36.781C36.2661 41.2603 26.0833 48.3599 14.7577 52.9445C14.4613 53.066 14.1103 53.0377 13.7827 53.0782C10.6862 49.6883 0.647691 25.927 0.183594 20.6783C3.42057 17.8676 7.52722 16.2921 11.1776 13.9593C16.7 10.4358 22.4642 7.32948 28.0879 3.97203C29.6635 3.03243 31.0948 1.82958 32.5963 0.74823C34.8154 -0.519418 35.9034 0.910228 36.7497 2.69627C39.6318 8.78341 42.6737 14.8058 44.4014 21.4032C44.6432 22.1605 44.6004 22.9382 44.5614 23.7198Z" fill="#333333"></path></svg>