<svg xmlns="http://www.w3.org/2000/svg" width="40" height="57" viewBox="0 0 40 57" fill="none"><path d="M27.6572 -1.61523C31.5766 1.28051 35.8744 3.67 39.2557 7.74835C37.2628 12.5071 33.4058 15.9374 30.3521 19.9145C21.3354 31.6555 12.0378 43.1655 2.82216 54.7404C2.30737 55.3884 1.55081 55.8299 0.907312 56.3645C-0.0169814 55.8947 0.158464 55.2102 0.560161 54.4812C0.419762 51.1319 1.24264 47.9607 2.59203 45.0002C5.66521 38.261 6.51931 30.4769 11.4684 24.6125C11.7843 24.2359 11.9909 23.7215 12.1313 23.2355C14.6195 14.5807 20.0016 7.83745 25.5785 1.21976C26.3312 0.328762 26.9669 -0.667532 27.6572 -1.61118V-1.61523Z" fill="#333333"></path></svg>