<svg xmlns="http://www.w3.org/2000/svg" width="71" height="73" viewBox="0 0 71 73" fill="none"><path d="M39.502 72.3595C29.6741 65.843 20.3103 58.63 10.8841 51.5223C7.5262 48.991 3.48187 47.5533 0.595896 44.3254C-0.230898 42.9282 0.23709 41.7901 1.07558 40.5427C9.72182 27.7326 18.3876 14.9387 27.1235 2.20147C27.6032 1.50487 28.2038 0.877092 29.4518 0.144043C43.324 9.51573 57.0441 19.1102 70.2611 30.0654C64.1031 40.3484 57.6252 49.4649 51.4477 58.7798C48.8191 62.7448 46.3933 66.8556 43.558 70.6788C42.4466 72.1773 41.4871 73.4327 39.4981 72.3554L39.502 72.3595Z" fill="#333333"></path></svg>