<svg xmlns="http://www.w3.org/2000/svg" width="25" height="26" viewBox="0 0 25 26" fill="none"><path d="M24.8611 24.2427C23.0905 24.6193 21.3238 24.996 19.5532 25.3686C19.5571 25.1135 19.5532 24.8624 19.5376 24.6072C19.5805 23.0885 18.547 22.2339 17.6422 21.3024C14.8342 22.2947 12.4436 24.3197 8.88288 25.1337C5.09601 19.6298 3.34489 13.0566 0.412109 6.8966C4.35498 3.7376 8.43049 2.00825 12.2954 0.736549C14.0659 0.586699 14.647 1.88674 15.6415 2.42944C17.8801 5.81929 19.4206 9.50479 20.5945 13.4535C21.6943 17.1512 23.4103 20.6504 24.8572 24.2346L24.8611 24.2427Z" fill="#343433"></path></svg>