<svg xmlns="http://www.w3.org/2000/svg" width="54" height="66" viewBox="0 0 54 66" fill="none"><path d="M8.28725 1.60512C8.70845 1.88862 9.12574 2.17211 9.54693 2.45561C13.8876 4.13636 18.3999 2.7148 22.7951 3.25345C23.2319 3.39115 23.6453 3.59365 24.0236 3.86095C24.5657 4.2133 25.1351 4.52514 25.7552 4.71143C26.1413 4.80053 26.5157 4.9504 26.8706 5.1367C27.1826 5.35945 27.5102 5.57413 27.8417 5.76853C28.0094 5.85358 28.1771 5.94263 28.3448 6.02768C28.6841 6.17753 29.0312 6.30716 29.3861 6.41246C29.7371 6.52181 30.0647 6.68787 30.3806 6.87822C30.7004 7.04832 30.9968 7.25485 31.2932 7.4614C31.4414 7.5586 31.5779 7.67605 31.73 7.77325C32.0381 7.95145 32.315 8.17827 32.5919 8.40102C32.896 8.58732 33.1652 8.81817 33.4304 9.05712C33.6995 9.28392 33.953 9.53498 34.2143 9.77798C34.3469 9.89543 34.4678 10.025 34.6003 10.1465C34.8538 10.3936 35.1035 10.6447 35.3648 10.8877C35.4974 11.0092 35.6183 11.1388 35.747 11.2603C36.0083 11.5073 36.2578 11.7625 36.5113 12.0217C36.64 12.1513 36.7609 12.2809 36.8896 12.4105C37.1548 12.6575 37.4045 12.9208 37.6502 13.1881C37.7711 13.3258 37.8841 13.4675 38.005 13.6012C38.395 13.9859 38.8162 14.3261 39.2842 14.6056C39.6274 14.7392 39.9433 14.9215 40.2475 15.1321C40.54 15.3508 40.813 15.5978 41.0743 15.853C41.2069 15.9745 41.3356 16.1041 41.4682 16.2256C41.7217 16.4686 41.9674 16.7237 42.217 16.9708C42.3418 17.0882 42.4627 17.2178 42.5875 17.3353C42.8254 17.5742 43.0633 17.8213 43.3129 18.0521C43.3168 18.044 43.6678 18.4166 43.6717 18.4085C43.8979 18.6556 44.1358 18.8905 44.3932 19.097C44.3971 19.0889 44.7637 19.4332 44.7676 19.4251C45.025 19.6357 45.298 19.826 45.6022 19.9718C45.9064 20.1257 46.1833 20.3242 46.4485 20.5388C46.7176 20.7494 46.9671 20.9843 47.2167 21.2192C47.3454 21.3326 47.4625 21.4582 47.5873 21.5756C47.8369 21.8146 48.0748 22.0616 48.3205 22.3046C48.4453 22.4261 48.5622 22.5557 48.687 22.6732C48.9405 22.9202 49.1863 23.1754 49.4398 23.4224C49.5724 23.548 49.6972 23.6776 49.8298 23.8072C50.1145 24.0664 50.3757 24.3377 50.6448 24.6172C50.7852 24.767 50.914 24.9128 51.0505 25.0626C51.3586 25.3623 51.6393 25.6742 51.9201 26.0063C52.0683 26.1845 52.2048 26.3546 52.353 26.5328C52.6338 26.9297 52.8561 27.3468 53.0472 27.7923C53.2929 28.5416 53.2812 29.2827 53.0472 30.0239C50.0833 33.5838 46.3198 35.5926 41.7919 35.3456C37.0145 35.0864 32.3657 37.6986 28.103 35.949C30.8018 36.0908 31.0202 38.4682 30.9578 40.9994C30.8681 44.77 29.6708 48.4271 29.8424 52.2381C28.6139 56.2962 29.4524 60.9173 26.4767 64.8984C20.9466 66.6359 15.2799 64.2018 9.59764 64.0317C6.65706 63.9426 6.84816 60.4758 7.26156 57.7177C8.15855 51.7076 9.48845 45.8594 9.27005 39.5657C8.98925 31.3726 5.25306 24.767 2.42168 17.6795C-0.339502 10.7702 0.354723 4.5778 4.50039 1.13531C5.04639 0.681709 5.67429 0.539944 6.35678 0.612844L6.54788 0.673604C7.04708 1.14745 7.81926 1.07052 8.29506 1.60107L8.28725 1.60512Z" fill="#333333"></path></svg>