<svg xmlns="http://www.w3.org/2000/svg" width="89" height="98" viewBox="0 0 89 98" fill="none"><path d="M88.7035 46.2154H86.4727C85.5835 46.6568 85.681 47.5033 85.5952 48.2647C73.2869 62.4113 62.1135 77.534 50.4331 92.2233C48.7444 94.3495 47.1493 96.5325 44.6104 97.6665C42.5083 97.5612 41.4163 96.3543 41.1395 94.2523C44.2945 87.0312 50.2069 81.993 54.7972 75.914C61.4661 67.0769 68.5095 58.5476 75.4943 49.9697C76.6643 48.532 77.8693 47.078 78.1501 44.2957C66.5282 33.9601 54.5475 23.4625 42.3835 13.0379C37.3526 17.2013 34.1858 22.1017 30.6212 26.5851C22.7901 36.4508 14.9199 46.2802 7.1161 56.1703C5.75111 57.9037 4.25736 59.6452 1.69508 59.1794C0.755187 58.661 0.408109 57.7903 0.349609 56.7454C6.14497 44.7128 15.8364 35.7543 23.4804 25.1797C27.5402 19.5624 32.4308 14.593 35.8745 8.74891C34.3652 3.84437 28.1057 3.64591 27.6533 -1.61098C28.0004 -2.84623 28.5698 -3.92757 29.6033 -4.68896C30.7616 -2.74902 32.423 -1.32748 34.0883 0.11432C43.6354 8.3763 53.1943 16.6302 62.7024 24.9448C69.8004 31.1535 76.8593 37.4107 83.8559 43.7449C85.3105 45.0652 87.4126 44.725 88.7035 46.2154Z" fill="#515252"></path></svg>