<svg xmlns="http://www.w3.org/2000/svg" width="42" height="42" viewBox="0 0 42 42" fill="none"><path d="M40.6113 25.0273C40.233 26.0479 39.8547 27.0685 39.4764 28.0851C38.8719 29.2879 38.2635 30.4867 37.4991 32.0055C27.4216 35.6707 16.8254 38.2506 5.95614 41.4379C3.63566 35.4763 1.49459 29.9602 0.5625 24.0027C5.45306 18.2436 11.9075 14.469 17.5625 9.68194C20.6395 7.07779 23.4475 4.10103 26.899 1.96668C28.6384 0.893433 30.2686 -0.479501 32.3356 1.2215C33.7824 2.77264 34.5625 4.71259 35.2683 6.68899C36.8127 10.4919 38.1816 14.3759 39.9327 18.0816C41.0013 20.3415 41.442 22.5973 40.6113 25.0273Z" fill="#333333"></path></svg>