<svg xmlns="http://www.w3.org/2000/svg" width="168" height="208" viewBox="0 0 168 208" fill="none"><path d="M40.4181 184.876C39.369 183.612 38.9596 182.065 38.6164 180.49C39.4471 179.003 40.6716 177.849 42.2823 176.257C37.7349 170.235 35.5549 162.528 28.5271 158.676C27.517 157.486 26.8579 156.117 26.5966 154.549C28.0864 150.123 24.5492 148 22.5992 145.149C21.4058 143.679 20.7857 141.954 20.4932 140.083C20.3957 138.135 20.9299 135.911 18.4613 134.98C17.8802 133.522 17.2991 132.068 16.7141 130.61C17.0495 129.881 17.7008 129.285 17.6111 128.35C16.9325 127.107 15.782 127.281 14.6744 127.305C13.0637 126.009 14.0894 123.972 13.4069 122.417C14.7758 119.679 17.3186 120.193 19.5689 120.116C28.5388 119.812 37.5438 120.708 46.4709 119.116C47.7462 118.889 49.1697 119.262 50.8155 117.419C47.7189 108.363 41.9196 100.34 37.9884 90.8348C32.0839 92.2969 27.4313 95.3222 22.7474 98.0803C17.6696 101.069 12.4086 103.649 7.20989 106.375C5.4198 107.314 3.51659 108.108 1.53151 106.755C0.833414 106.257 0.529265 105.552 0.509766 104.694C1.41846 101.243 4.40971 100.211 7.01099 98.8497C15.8327 94.2368 24.7442 89.8021 32.7625 84.5573C33.9325 82.7996 33.2149 81.0905 33.9208 79.6892C34.264 78.9886 34.7866 78.4904 35.473 78.1705C42.5241 79.3328 47.2743 74.3068 52.4222 71.7999C53.4674 69.949 52.0205 69.0499 52.1999 67.8552C52.8434 65.6803 54.5633 65.5183 56.3378 65.4494C57.5273 65.6479 58.1123 66.8184 58.9859 67.3246C60.6785 67.523 61.8797 66.713 63.0497 65.8423C63.7244 64.5098 62.0825 63.8052 62.2853 62.6185C63.1901 60.2209 65.1595 60.0427 67.2226 60.0468C68.4472 60.1764 69.0128 61.5452 70.5182 61.8409C73.9111 60.3626 77.2495 58.0906 80.9856 56.7339C82.374 56.7379 83.7273 56.3289 85.1196 56.3046C85.845 56.4909 86.4144 56.9161 86.8512 57.5358C89.8152 62.8737 91.7378 68.815 95.3024 74.0719C100.329 72.8488 104.335 69.9854 108.644 67.8835C116.035 64.2831 118.156 64.9149 122.392 72.2575C123.995 75.0358 125.02 78.2353 127.777 80.398C130.968 80.321 133.07 77.9923 135.792 76.2224C135.523 71.2936 132.719 67.5474 130.667 63.5055C126.335 54.9802 121.709 46.5927 119.358 37.14C119.369 36.6013 119.482 36.0911 119.689 35.597C120.52 34.1147 121.538 32.9847 123.41 33.4869C127.594 41.9028 131.311 50.5738 135.749 58.8642C136.26 60.4801 137.056 61.9584 137.867 63.4326C139.548 66.1582 140.722 69.2483 143.526 71.7269C149.348 70.0138 154.695 66.9844 159.773 63.5095C161.949 62.0191 161.462 59.1638 161.469 56.7825C161.532 43.1704 161.547 29.5584 161.465 15.9464C161.438 11.8154 161.976 7.71274 161.778 3.5777C162.69 1.47171 163.696 -0.456074 166.43 1.01407C169.129 4.32697 166.621 7.72896 166.586 11.0905C165.077 15.5657 165.841 20.3649 164.773 24.9009C165.997 51.2988 166.859 77.7047 166.691 104.139C166.66 108.797 166.746 113.458 166.777 118.116C165.58 119.646 163.868 120.286 162.218 121.096C152.484 125.863 142.874 130.901 133.335 136.069C131.752 136.928 130.106 137.831 128.862 139.414C128.355 141.816 129.907 143.622 130.843 145.538C133.982 151.973 136.74 158.62 140.472 164.739C141.275 166.059 141.876 167.477 141.759 169.105C139.864 170.409 137.921 171.62 135.71 172.264C132.376 164.609 128.963 156.995 124.938 149.697C124.037 148.065 123.32 146.328 121.986 144.939C124.794 152.33 128.526 159.272 131.81 166.428C132.805 168.591 134.212 170.62 133.674 173.232C132.504 174.244 131.151 174.868 129.689 175.269C127.758 174.289 126.853 172.446 125.964 170.567C123.023 164.367 120.067 158.17 117.021 152.022C116.206 150.374 115.695 148.43 113.121 147.211C103.36 151.852 93.7074 157.757 83.2906 163.16C86.3326 171.337 90.2052 178.379 93.1419 185.835C94.0662 188.176 95.7159 190.473 93.7191 193.073C93.3057 193.806 92.6661 194.13 91.8705 194.154C88.7193 193.134 87.951 190.141 86.8317 187.488C83.9691 180.704 80.7946 174.099 77.1403 167.246C68.849 170.417 61.634 174.726 54.2163 179.594C58.475 187.407 63.9155 193.717 68.5682 200.59C69.4145 201.841 70.7249 202.801 70.8146 204.518C69.1454 205.608 67.9012 207.462 65.6978 207.596C58.9781 199.828 53.9004 190.667 46.9974 183.369C44.3922 183.138 42.6684 185.155 40.4259 184.888L40.4181 184.876Z" fill="#535454"></path></svg>