<svg xmlns="http://www.w3.org/2000/svg" width="51" height="36" viewBox="0 0 51 36" fill="none"><path d="M5.77491 3.59285C7.7639 3.4511 9.22648 4.6499 10.7436 5.7029C14.195 8.10455 17.6425 10.5143 21.0979 12.9078C22.4668 13.8555 23.7694 15.0098 26.008 14.7465C29.7637 10.6398 32.0802 4.95364 36.4092 0.454102C41.5767 3.28505 46.1903 6.4724 50.8313 10.413C46.1279 19.6875 39.8958 27.4068 34.8883 35.28C32.8564 35.4096 32.0959 34.6684 31.2808 34.1014C21.6401 27.3461 12.0032 20.5826 2.38586 13.7867C1.71897 13.3169 1.22759 12.5757 0.654297 11.9601C2.07779 8.9834 3.82103 6.21724 5.77491 3.58879V3.59285Z" fill="#333333"></path></svg>