<svg xmlns="http://www.w3.org/2000/svg" width="14" height="22" viewBox="0 0 14 22" fill="none"><path d="M12.3767 21.1097C10.8987 19.7651 9.41666 18.4165 7.68897 16.8451H1.46073C0.747031 16.2619 0.778222 15.5774 1.20722 14.8403C2.72431 13.5606 4.24139 12.2767 4.99798 11.6368C5.55958 7.0441 5.96909 3.69881 6.37859 0.353516C7.50178 1.51181 7.5915 3.19254 8.34809 4.53714L8.34028 4.52908C9.27628 5.39173 9.31918 6.54598 9.31528 7.72048C8.71468 9.00838 9.42837 9.45386 10.4814 9.67661C11.472 10.8511 11.3511 12.3294 11.5227 13.7307C11.5227 13.7307 11.5071 14.164 11.5032 14.164C11.4993 14.164 11.4759 14.5893 11.472 14.5893C11.4681 14.5893 11.5071 15.0145 11.5071 15.0145C11.8074 15.6341 12.1076 16.2498 12.4079 16.8694L12.4703 16.9382C13.8704 18.3679 13.0085 19.7408 12.3689 21.1178L12.3767 21.1097Z" fill="#CCAD5D"></path></svg>