<svg xmlns="http://www.w3.org/2000/svg" width="100" height="26" viewBox="0 0 100 26" fill="none"><path d="M95.4458 64.0788C92.0021 58.3116 88.0436 53.3179 81.8037 50.3047C60.8296 40.1636 40.6044 28.5523 20.9797 15.811C15.6251 12.3361 10.0832 9.17701 4.66225 5.80742C3.32456 4.97717 2.06484 4.24411 0.485352 4.98931C0.69595 3.38552 1.36288 2.02477 2.46657 0.886719C6.15984 5.02986 11.183 7.10746 15.6914 9.95055C26.0536 16.4791 36.5523 22.7648 46.9809 29.18C58.0061 35.9637 69.6085 41.6093 81.1524 47.3158C87.8097 50.6084 93.2735 54.9136 97.3217 61.2478C97.9613 62.2482 98.7881 63.1189 99.5252 64.0504C98.1641 64.0585 96.803 64.0707 95.4419 64.0788H95.4458Z" fill="#515252"></path></svg>