<svg xmlns="http://www.w3.org/2000/svg" width="21" height="7" viewBox="0 0 21 7" fill="none"><path d="M20.4801 0.186523H19.6669C19.621 0.186523 19.5751 0.206199 19.5424 0.23899C19.5096 0.278339 19.4898 0.317686 19.4898 0.370151V5.54455C19.4898 5.68883 19.4702 5.77409 19.4243 5.80032C19.3784 5.82655 19.2866 5.83967 19.1423 5.83967H17.8176V2.90161C17.8176 2.8557 17.811 2.81635 17.7913 2.79012C17.7716 2.76389 17.7323 2.73766 17.6667 2.72454C17.588 2.70487 17.4962 2.69175 17.3781 2.67208C17.2666 2.6524 17.1421 2.63928 17.0175 2.61961C16.8863 2.60649 16.7551 2.59338 16.6174 2.58682C16.4796 2.58682 16.3485 2.58026 16.2239 2.58026C15.8763 2.58026 15.5615 2.62617 15.2795 2.71142C14.9975 2.79668 14.7549 2.92784 14.5516 3.0918C14.3483 3.25575 14.1908 3.46561 14.0793 3.71482C13.9679 3.96403 13.9154 4.25259 13.9154 4.5805V4.75102C13.9154 5.00678 13.9482 5.2232 14.0072 5.40683C14.0728 5.59046 14.1581 5.73474 14.2696 5.83967H12.6169C12.6169 5.83967 12.6366 5.76753 12.6497 5.71507C12.6563 5.6626 12.6628 5.60358 12.6694 5.53799C12.676 5.47241 12.6694 5.41339 12.676 5.35437C12.676 5.29534 12.676 5.24288 12.676 5.20353V5.00678C12.676 4.56739 12.6169 4.19357 12.4989 3.88533C12.3808 3.5771 12.2103 3.33445 11.9939 3.14427C11.7775 2.95408 11.5152 2.82291 11.2004 2.73765C10.8921 2.6524 10.5445 2.61305 10.1641 2.61305C10.0658 2.61305 9.93462 2.61305 9.77066 2.62616C9.61326 2.63272 9.43617 2.65895 9.2591 2.68519C9.07547 2.71798 8.89187 2.77045 8.70824 2.83603C8.52461 2.90161 8.35408 2.98686 8.19668 3.09835V0.370151C8.19668 0.317686 8.17704 0.271781 8.14425 0.23899C8.11146 0.206199 8.06551 0.186523 8.0196 0.186523H7.21296C7.16705 0.186523 7.12118 0.206199 7.08839 0.23899C7.04904 0.278339 7.03587 0.317686 7.03587 0.370151V5.83967H2.50423C2.34028 5.83967 2.20907 5.81344 2.13037 5.76753C2.04512 5.71507 2.00581 5.59046 2.00581 5.38716V0.363597C2.00581 0.31769 1.99265 0.271781 1.95986 0.23899C1.92706 0.206199 1.88775 0.186523 1.82872 0.186523H1.03521C0.982745 0.186523 0.93679 0.206199 0.903999 0.23899C0.871208 0.278339 0.851562 0.31769 0.851562 0.363597V5.72818C0.851562 5.9905 0.884363 6.20037 0.943387 6.36432C1.00241 6.52828 1.09417 6.65945 1.21221 6.75126C1.33026 6.84308 1.46799 6.90865 1.63195 6.94144C1.7959 6.97423 1.97959 6.99391 2.18289 6.99391H18.9258C19.0439 6.99391 19.175 6.99391 19.3259 6.99391C19.4702 6.99391 19.6145 6.98735 19.7522 6.97424C19.8899 6.96768 20.0146 6.95456 20.1326 6.94144C20.2507 6.92833 20.3424 6.91521 20.408 6.89553C20.4801 6.8693 20.526 6.82996 20.5523 6.79061C20.5785 6.75126 20.5982 6.69879 20.6113 6.63976C20.631 6.48237 20.6375 6.29874 20.6441 6.10855C20.6441 5.91181 20.6506 5.73474 20.6506 5.57734V0.383271C20.6506 0.330805 20.631 0.2849 20.5982 0.252109C20.5654 0.219318 20.526 0.199643 20.4801 0.199643M11.561 5.27567C11.561 5.51177 11.5479 5.66915 11.5152 5.74785C11.4824 5.82655 11.4299 5.8659 11.3512 5.8659H9.23941C9.00987 5.8659 8.8132 5.8659 8.6558 5.8659C8.49841 5.8659 8.34754 5.85934 8.21638 5.85278V4.0952C8.32787 4.00994 8.45901 3.94436 8.60985 3.8919C8.76069 3.83943 8.91158 3.80008 9.06897 3.77384C9.22637 3.74761 9.37717 3.72794 9.52145 3.72138C9.66573 3.71482 9.78381 3.70827 9.88874 3.70827C10.1773 3.70827 10.433 3.73449 10.6429 3.7804C10.8527 3.82631 11.0298 3.90501 11.1676 4.02306C11.3053 4.13455 11.4036 4.28538 11.4692 4.46245C11.5348 4.64608 11.5676 4.86906 11.5676 5.1445V5.28223L11.561 5.27567ZM16.6896 5.87902H16.0075C15.6665 5.87902 15.4238 5.78721 15.273 5.60358C15.1221 5.41995 15.0435 5.15106 15.0435 4.79692V4.63296C15.0435 3.94436 15.3976 3.59677 16.1059 3.59677C16.3157 3.59677 16.5059 3.60989 16.6896 3.62301V5.87246V5.87902Z" fill="#0B5463"></path></svg>