<svg xmlns="http://www.w3.org/2000/svg" width="144" height="150" viewBox="0 0 144 150" fill="none"><path d="M62.5005 1.19296C64.2087 2.25811 65.9169 3.32321 67.629 4.38836C68.5884 5.14166 69.77 5.57097 70.5929 6.53082L70.5734 6.5065C70.9478 6.77785 71.3144 7.06139 71.6693 7.35704L71.7863 7.42585C72.1841 8.1508 73.2333 7.85112 73.5804 8.65707L73.5335 8.60842C74.0054 8.77042 74.2941 9.1836 74.6529 9.50355L74.7152 9.54399C75.1676 10.2001 76.2518 9.90046 76.5287 10.8279L76.4624 10.759C77.0279 10.8076 77.3087 11.2571 77.6246 11.654L77.6441 11.6662C78.116 12.3304 79.3679 11.8201 79.5005 12.9946C90.2488 21.0622 100.993 29.1257 111.742 37.1933C122.084 44.9571 132.427 52.721 142.774 60.4808C144.049 62.5544 142.75 64.0813 141.701 65.6041C131.206 80.8482 121.394 96.5946 110.673 111.665C106.855 117.031 103.563 122.859 99.2812 127.407C97.2415 128.391 95.2018 127.451 93.3532 129.027C92.6746 132.486 90.4633 135.523 88.6147 138.759C86.0134 142.331 83.9777 146.288 81.5792 150.002C78.7361 154.408 76.2713 154.833 72.344 150.925C64.6806 143.303 57.2043 135.475 49.9114 127.468C45.4771 122.604 40.9336 117.857 36.4604 113.033C33.3443 108.542 29.3273 104.832 25.6692 100.908C18.2397 92.9374 13.0723 83.6224 8.36505 73.9227C5.61947 68.2648 2.34347 62.8095 0.350586 55.5883C13.6807 50.052 22.8807 38.4772 35.0642 32.1754C36.0587 28.6398 33.0713 26.4568 33.9761 23.1601C35.7857 20.1712 39.3971 19.2438 42.4469 17.7736C48.8272 14.6997 52.5829 9.11063 56.3269 3.45684C57.961 0.990396 59.6613 -0.341985 62.5044 1.19701L62.5005 1.19296Z" fill="#333333"></path></svg>