<svg xmlns="http://www.w3.org/2000/svg" width="124" height="160" viewBox="0 0 124 160" fill="none"><path d="M0.494136 17.3428C10.2714 11.1989 19.2375 5.27783 28.535 0.146484C30.1886 0.915983 29.6777 2.29704 29.7011 3.39864C29.7791 6.86138 29.627 10.3282 29.7791 13.7828C29.9741 18.1568 32.158 21.166 36.2764 21.7451C40.7262 22.3688 43.8696 24.6814 46.896 27.8687C58.1396 39.6987 69.5198 51.387 80.8687 63.1118C89.6124 72.1432 97.3929 82.0698 105.544 91.6561C109.842 96.7105 114.252 101.66 118.691 106.58C120.52 108.609 122.228 110.687 123.417 113.105C121.467 116.649 79.3087 155.33 72.6203 159.741C69.1727 158.351 67.7492 154.763 65.5379 152.078C58.8377 143.933 52.3014 135.643 45.7885 127.337C43.7956 124.793 41.9626 122.092 40.2583 119.326C37.1579 114.283 37.3138 108.399 36.8536 102.773C36.4207 97.4395 36.5728 92.0449 36.6976 86.6786C36.799 82.3573 35.6446 78.4977 33.5893 74.8284C25.3799 60.1795 17.229 45.4943 8.94544 30.89C6.42996 26.4512 3.55561 22.2352 0.486328 17.3387L0.494136 17.3428Z" fill="#333333"></path></svg>