<svg xmlns="http://www.w3.org/2000/svg" width="158" height="84" viewBox="0 0 158 84" fill="none"><path d="M53.5377 0.946391C56.5875 4.62378 59.0289 8.75888 61.482 12.8494C63.9506 16.9642 66.8522 20.7347 69.5315 24.6753C72.2927 28.7334 76.2122 31.4064 80.3968 33.5732C94.2339 40.7416 108.129 47.7926 122.002 54.8923C125.73 56.7998 129.536 58.5697 133.163 60.6716C138.721 63.8914 144.493 64.2033 150.538 62.7696C151.817 62.4658 153.174 62.5387 154.5 62.4375C158.794 66.1311 157.14 70.9506 156.251 75.2355C155.44 79.1397 152.024 80.7312 148.33 81.0228C136.775 81.93 125.18 81.4279 113.617 82.1002C97.6893 82.2095 81.7462 81.5899 65.8382 83.1046C63.6971 83.3071 61.5131 83.2625 59.3604 82.9709C58.5024 82.7603 57.6288 82.6834 56.7474 82.7806C55.8933 82.9831 55.0314 83.1208 54.15 83.1249C48.8187 83.4489 43.4836 82.9183 38.1523 83.1896C27.4586 81.8774 16.6635 83.3192 5.95416 81.7559C2.12049 81.197 0.80619 79.5527 0.87249 75.7984C1.03239 66.532 2.2336 57.3507 3.27879 48.1856C3.93398 42.4224 3.3217 36.4973 5.13908 30.8881C6.00878 28.7132 7.85342 28.5917 9.72931 28.62C19.994 28.7861 30.2315 29.5191 40.4572 30.4141C45.6598 30.8718 50.6088 29.6446 55.3902 27.5791C53.0424 28.458 50.7844 29.673 47.4577 29.7338C43.5616 24.9548 40.1686 19.3456 37.3411 13.3637C36.7561 12.1285 37.1734 10.476 38.3044 9.56479C42.493 6.18709 46.6582 2.73655 51.6267 0.606255C52.2624 0.334905 52.9332 0.642634 53.5455 0.938283L53.5377 0.946391Z" fill="#333333"></path></svg>