<svg xmlns="http://www.w3.org/2000/svg" width="82" height="113" viewBox="0 0 82 113" fill="none"><path d="M50.4851 47.3392C47.2716 47.5498 44.5806 49.2386 41.8116 50.6804C34.1365 54.6696 26.3405 58.3795 18.3494 61.6275C18.2948 61.1375 18.2402 60.6515 18.1895 60.1857C16.9961 59.3555 15.6623 60.0642 14.4534 59.6876C15.5219 58.6589 16.8596 58.5779 18.2012 58.6022C19.7378 58.6265 21.2159 58.339 22.5263 57.529C30.8098 52.3976 40.1815 49.7368 48.6639 45.055C51.2925 43.6051 54.3539 43.0381 56.7719 41.1062C57.9419 40.1707 59.4395 39.6158 60.5159 37.2547C59.3225 31.9289 57.4232 26.1456 54.6971 20.3743C47.8527 21.8121 42.3654 26.0848 35.6848 28.0531C34.8892 27.7979 33.7972 27.4456 32.479 27.0244C23.9732 30.8557 14.972 34.0633 9.00115 41.0941C8.15486 43.9979 10.8926 45.1967 9.73825 47.6186C7.48797 46.7397 6.94981 44.4556 5.77592 42.7546C4.27053 40.5797 3.67379 37.5341 0.620117 36.797C1.06081 35.2864 2.26592 34.5695 3.46321 33.8486C5.0115 33.7798 6.12691 35.2013 8.30699 35.177C14.0322 30.236 21.4616 27.3241 28.2943 23.8937C29.0587 21.0547 27.409 19.6089 26.8669 18.2319C24.878 16.5754 21.8984 17.7701 21.2666 14.7732C23.6885 12.6348 26.3443 10.9054 29.3473 9.77953C32.0227 11.3995 32.3503 14.599 33.8401 17.0169C34.8931 18.726 35.3182 20.8887 37.5412 22.1847C41.9793 21.0304 46.3044 18.9933 50.4072 16.4539C50.6178 16.1866 50.8283 15.8991 50.9726 15.5872C51.0194 15.2673 51.1053 14.9554 51.1482 14.6355C51.0858 14.3155 51.0701 13.9996 51.0272 13.6837C50.9025 13.3759 50.8323 13.0641 50.7582 12.7482C50.5827 12.2905 50.4189 11.8329 50.2317 11.3833C50.0484 11.0998 49.9236 10.7961 49.8066 10.4883C49.5765 10.0468 49.3698 9.59321 49.1514 9.14771C48.9525 8.86826 48.8082 8.56453 48.6756 8.25268C48.4845 7.96513 48.348 7.65327 48.2232 7.33332C48.036 7.04172 47.9073 6.7218 47.7864 6.40185C47.5446 5.94015 47.3301 5.47033 47.0922 5.00863C46.8855 4.70488 46.7373 4.37683 46.5891 4.04473C46.4214 3.70453 46.3161 3.34813 46.2381 2.97958C46.1289 2.40853 46.3122 1.85371 46.3317 1.29076C46.8894 0.606314 47.6577 0.501006 48.4533 0.472656C49.0617 0.472656 49.6506 0.569854 50.1771 0.926253C50.5125 1.1652 50.7972 1.45274 51.0624 1.77269C51.3315 2.07644 51.5498 2.41662 51.7565 2.76492C51.9827 3.08892 52.1622 3.44534 52.3299 3.80174C52.5327 4.12979 52.6847 4.48616 52.8329 4.83851C53.0201 5.16251 53.1567 5.51487 53.2932 5.86317C53.4687 6.18312 53.5973 6.52737 53.7221 6.87162C53.8898 7.18751 54.0108 7.52774 54.1278 7.86389C54.3501 8.34584 54.5411 8.83588 54.7556 9.32188C54.9467 9.62968 55.0871 9.95774 55.2275 10.2898C55.481 10.7799 55.7034 11.2821 55.9412 11.7843C56.1558 12.1164 56.3156 12.4687 56.4755 12.8251C56.8577 13.5663 57.2711 14.2872 57.6845 15.0121C60.7226 20.6781 61.9628 27.2067 65.4143 32.8321C70.8079 32.4757 74.8327 27.1094 80.5111 28.855C81.1429 29.2802 81.568 29.8634 81.7669 30.6208C81.1936 34.3387 77.9956 35.1204 75.4528 36.5257C73.144 37.7974 70.4101 38.2834 68.6746 40.5635C68.3353 45.2939 72.598 48.6595 71.9974 53.3777C71.272 54.9613 69.7276 55.022 68.386 55.4634C66.5335 53.244 67.0172 49.753 64.4003 47.5984C60.4769 50.0203 57.7586 53.6612 55.1495 56.5407C54.6543 70.4444 58.8389 82.5498 63.8153 94.4608C65.27 97.9438 66.5686 101.496 67.9024 105.031C68.8891 107.644 70.1878 110.005 72.4654 111.645C70.2463 112.516 68.0779 113.066 66.3775 110.62C61.6118 103.027 59.732 94.0963 55.8788 86.0774C55.0715 84.3966 54.7595 82.4202 52.2869 80.9379C45.3723 83.2747 37.1278 82.8252 30.3223 87.8391C26.3755 86.8914 23.7742 84.3601 22.3118 80.4924C23.5753 80.9176 24.7883 81.3267 26.204 81.0391C34.5304 79.3422 42.8763 77.7303 51.2144 76.0779C52.2167 75.8794 53.0904 75.4137 54.1278 74.2919C53.3868 68.7717 52.6106 63.0086 51.854 57.4034C52.6496 54.135 54.8882 52.2802 57.1736 50.5508C59.0807 49.109 60.7421 47.4323 62.2943 45.622C63.4331 44.2936 63.71 42.8882 61.6118 41.2156C57.8483 42.5521 54.4943 45.4923 50.5983 47.2176L50.4774 47.3351L50.4851 47.3392Z" fill="#535353"></path></svg>