<svg xmlns="http://www.w3.org/2000/svg" width="337" height="698" viewBox="0 0 337 698" fill="none"><path d="M365.909 -80.504V620.708C364.91 623.008 362.843 623.68 360.78 624.446C328.843 636.308 297.222 649.054 265.336 661.066C256.573 664.367 248.956 670.251 240.7 674.726C232.003 679.445 223.497 684.503 214.945 689.493C206.404 694.478 196.654 697.516 187.337 697.605C174.19 697.73 161.503 693.373 151.059 683.928C141.758 675.52 135.229 664.881 128.229 654.578C118.764 640.642 106.405 632.056 89.2993 632.647C88.6324 632.671 89.4669 632.647 88.8001 632.647C79.4401 632.639 78.1142 630.828 79.5571 621.307C80.8675 612.648 81.3004 603.872 82.2208 595.16C83.6052 582.03 84.2722 568.823 86.1481 555.746C88.2813 540.866 83.8159 528.501 73.9997 517.404C63.6648 505.72 54.7026 492.772 44.7226 480.728C43.4941 479.245 41.9926 477.621 41.8951 474.337C58.3101 457.691 77.4122 443.079 94.3848 425.907C89.6464 417.848 83.7652 411.939 78.8317 405.276C70.2908 393.734 60.4589 383.317 50.4555 373.31C39.6916 362.537 29.8091 350.768 18.0312 341.064C13.3902 337.241 9.76712 332.012 3.48427 330.627C2.36888 330.38 1.27685 329.315 1.00775 328.197C-0.388443 322.43 -0.0998066 316.553 0.754287 310.762C1.03899 308.83 3.11768 308.619 4.85707 308.55C9.19383 308.384 13.8075 307.915 17.6295 309.952C24.9107 313.836 29.3644 309.551 33.6622 304.841C38.35 299.705 42.25 293.849 46.6999 288.487C51.4188 282.801 51.1263 275.592 52.0467 268.889C52.7448 263.81 54.0162 259.432 57.9747 256.314C69.3899 247.323 75.232 235.408 76.4761 220.625C76.9051 215.534 78.5041 210.496 79.5142 205.421C80.1928 202.011 81.7645 199.043 84.3696 196.564C90.5121 190.72 96.2139 184.402 101.514 177.723C104.981 173.354 106.085 167.76 108.039 162.674C112.602 150.799 117.161 138.904 121.213 126.831C123.381 120.376 128.478 116.99 132.948 113.082C141.586 105.528 150.209 97.9427 158.925 90.4785C163.574 86.4974 169.393 86.3233 174.623 84.2659C176.468 83.5409 178.558 83.4599 180.059 81.4835C180.379 77.4254 179.151 73.2296 177.852 69.5887C175.539 63.1006 176.635 57.4185 178.885 51.5055C180.169 48.1399 181.6 44.7946 182.181 41.2144C183.757 31.5269 190.379 26.0513 197.808 21.653C210.659 14.039 223.244 5.88637 236.835 -0.31012C244.296 -3.71211 247.997 -11.0102 252.716 -17.1095C257.977 -23.9094 263.168 -30.5069 271.003 -34.2815C274.645 -36.0351 276.217 -40.0243 278.795 -42.912C280.367 -44.6697 281.927 -46.0224 284.06 -46.476C297.421 -49.311 310.416 -53.7498 323.855 -56.2608C326.64 -56.7792 329.37 -57.8686 331.433 -59.9989C338.039 -66.8191 345.481 -72.6592 352.231 -79.3093C357.165 -84.1693 360.995 -84.3677 365.897 -80.5121L365.909 -80.504Z" fill="#333333"></path></svg>