<svg xmlns="http://www.w3.org/2000/svg" width="46" height="30" viewBox="0 0 46 30" fill="none"><path d="M1.44706 27.316C1.20136 26.5101 0.955653 25.7001 0.706055 24.8941C3.98203 20.346 7.41404 16.1543 11.3179 12.404C15.214 8.66179 19.1881 5.00465 23.712 0.760254C26.9256 1.69175 29.6244 5.54328 33.3878 7.58043C34.0508 7.67763 34.4096 8.07049 34.4603 8.76304C37.9196 11.9382 41.375 15.1134 45.0878 18.5195C42.7283 21.719 40.166 24.4244 36.2114 26.2833C30.6618 23.0757 26.0832 27.3768 21.6216 29.0819C16.38 28.9968 12.8272 24.3677 7.88592 25.5786C6.05683 26.4413 5.78772 28.8065 4.07173 29.5881C2.64434 29.4464 2.41425 27.9195 1.44316 27.312L1.44706 27.316Z" fill="#333333"></path></svg>