<svg xmlns="http://www.w3.org/2000/svg" width="53" height="56" viewBox="0 0 53 56" fill="none"><path d="M22.5329 10.8051C23.6522 9.7197 24.9781 9.10409 26.4913 8.91779C29.2096 10.2502 29.7556 13.0934 30.8593 15.5841C31.7485 17.5929 32.3257 19.8325 34.2874 21.4363C38.2615 20.922 41.6661 18.9861 44.9031 16.3374C44.2596 11.117 40.1607 7.48816 39.5211 2.45402C40.6014 1.24307 42.0483 0.858323 43.5225 0.530273C46.701 7.65826 50.1213 14.685 52.4691 22.1451C50.2266 23.1859 50.1603 20.44 48.5223 20.3347C36.4714 26.0898 24.4244 31.8448 12.0263 37.7659C13.91 43.4926 15.7196 48.9925 17.5253 54.4883C16.6985 55.3753 15.7196 55.6223 14.5886 55.2578C13.2627 54.6827 12.4593 53.5001 12.0927 52.2163C9.46018 42.9782 4.91279 34.5826 1.44181 25.7172C0.880214 24.2835 0.412244 22.8214 0.591643 21.2338C1.69143 20.1525 3.10319 19.7961 4.50328 19.4154C8.31745 22.4367 8.82839 27.8637 13.0755 31.4682C17.8568 30.97 22.1117 27.6369 26.8111 25.6807C27.4936 19.7515 22.5797 16.0417 22.529 10.8092L22.5329 10.8051Z" fill="#525352"></path></svg>