<svg xmlns="http://www.w3.org/2000/svg" width="117" height="204" viewBox="0 0 117 204" fill="none"><path d="M5.94454 0.287109C5.37124 2.04886 6.49056 3.23147 7.34076 4.45457C13.1439 12.8057 18.6819 21.3308 23.5373 30.3218C23.7167 31.6867 24.4617 32.6992 25.4211 33.578C27.4374 34.1896 27.917 35.6597 27.5075 37.6199C28.1393 39.3655 27.9677 41.4553 29.5628 42.7877C31.2671 42.7958 32.3396 43.9015 33.1274 45.242C37.0196 51.8476 40.8377 58.4976 44.332 65.338C45.1978 67.0309 45.736 68.8657 44.7766 70.7732C45.0457 72.0327 45.6385 73.106 46.5355 74.001C48.6688 74.5599 49.5657 76.2812 50.2287 78.2211C50.5212 79.6872 51.6874 80.6916 52.1437 82.0767C54.5773 87.1068 57.2136 92.0235 59.9046 96.9078C61.1253 99.1272 62.4708 101.355 61.4646 104.113C61.761 105.704 62.4786 107.069 63.5589 108.232C65.6844 108.381 66.7724 109.933 67.6031 111.658C70.5749 117.83 74.3189 123.581 76.9046 129.964C77.0801 131.438 77.9771 132.592 78.5777 133.88C78.8429 134.285 79.0924 134.694 79.3732 135.091C79.9777 135.909 80.4769 136.784 80.8591 137.736C86.3698 147.61 87.3019 158.622 88.2301 169.633C87.6607 173.287 88.8619 176.709 89.5444 180.196C90.3361 189.118 92.3446 197.825 93.9396 206.602C94.5207 209.793 96.7437 212.098 98.6274 214.418C104.185 221.267 109.103 228.63 114.532 235.58C115.928 237.366 117.687 239.297 116.548 242.055L116.267 242.46C115.179 242.46 114.099 242.46 113.018 242.46C112.866 242.339 112.718 242.209 112.578 242.072C106.002 239.144 103.522 232.153 98.9862 227.204C98.0892 226.228 97.4535 224.948 96.5448 223.936C84.9463 210.976 81.8185 195.108 81.37 178.07C80.8513 158.387 75.641 140.109 65.6531 123.152C58.5435 111.079 52.1554 98.5278 46.0909 85.827C45.2992 84.5107 44.1448 83.397 43.9225 81.7567C37.8191 69.1127 31.037 56.8493 24.5319 44.428C23.046 41.593 21.0102 38.8754 21.7785 35.2831C21.6693 34.2139 21.4704 33.1892 20.6046 32.4602C17.2506 23.8459 12.0597 16.3737 6.97418 8.83669C6.04209 7.45564 4.79409 6.26083 4.42749 4.51528L4.39631 4.47484C3.31601 3.41779 2.10313 2.96005 0.652344 3.57565C2.09143 1.91516 4.40795 1.77346 5.94844 0.287109H5.94454Z" fill="#DEBC61"></path></svg>