<svg xmlns="http://www.w3.org/2000/svg" width="132" height="125" viewBox="0 0 132 125" fill="none"><path d="M87.3681 13.8319C94.9964 20.486 102.363 27.4439 109.473 34.6934C110.089 38.1237 107.453 39.8936 105.811 42.0725C103.783 44.7617 101.174 47.0094 100.413 50.6179C100.558 52.0678 101.591 53.0236 102.562 53.9065C111.002 61.557 118.158 70.7585 128.138 76.546C130.35 77.8298 132.343 79.4296 131.917 82.5764C132.202 85.946 130.443 88.3396 128.396 90.5995C128.045 90.9235 127.643 91.1746 127.222 91.3811C126.836 91.612 126.438 91.8307 126.044 92.0453C125.451 92.3045 124.858 92.5759 124.289 92.8958C123.919 93.0943 123.521 93.2279 123.115 93.3211C122.304 93.4709 121.567 93.8476 120.814 94.1878C120.413 94.3093 120.011 94.4105 119.601 94.4996C118.985 94.694 118.404 94.9734 117.8 95.2124C117.581 95.265 117.367 95.3096 117.144 95.3582C116.684 95.4028 116.228 95.4311 115.768 95.4392C114.804 95.4514 113.845 95.4514 112.878 95.4514C112.355 95.4514 111.844 95.4514 111.326 95.4514C103.42 95.4514 96.1157 98.4322 88.5849 100.307C61.0433 107.176 34.2154 116.714 6.74396 123.838C5.00068 124.291 3.27297 125.081 1.36589 124.121C0.542994 122.339 0.761403 120.497 1.1826 118.646C1.1397 113.83 2.8323 109.748 5.18788 105.572C12.2897 92.9768 22.3594 83.1961 32.4292 73.387C43.4349 62.6667 51.9953 50.3749 56.1215 35.0741C57.0263 31.7166 57.5489 28.3592 57.6269 24.8721C57.7556 19.1698 58.0598 13.4714 58.3094 7.77309C58.3913 5.8696 58.4498 3.94986 59.924 2.11522C60.977 1.17967 62.5291 0.600534 64.1437 0.155035C68.0515 -0.254014 72.7471 4.11186 73.6441 9.10145C74.1589 11.9567 73.2229 13.8156 70.5436 13.9047C73.9171 12.795 77.9145 13.6577 81.7287 12.4751C83.6709 11.8717 85.6404 12.6655 87.3642 13.8359L87.3681 13.8319Z" fill="#333333"></path></svg>