<svg xmlns="http://www.w3.org/2000/svg" width="214" height="88" viewBox="0 0 214 88" fill="none"><path d="M206.794 126.01C205.468 126.083 204.142 126.212 202.819 126.212C150.107 126.225 97.3993 126.221 44.6873 126.212C43.3613 126.212 42.0314 126.103 40.7055 126.042C34.9764 124.904 31.4273 120.235 27.0672 116.91C19.4427 111.098 11.7482 105.379 4.33041 99.28C-0.489959 95.315 -0.704457 93.7274 2.38042 88.4057C4.43571 84.8579 6.59237 81.3709 8.40195 77.6773C10.075 74.7005 12.2512 72.0235 13.3198 68.6823C13.7605 67.3012 14.6731 65.904 16.003 65.8675C20.6557 65.742 22.4067 61.9188 24.6453 58.8448C36.9809 41.8875 48.1582 24.0878 59.9283 6.71736C61.617 4.22257 62.5492 0.52494 66.535 0.55734C68.5318 1.56984 70.3296 2.86575 71.8857 4.5222C73.2195 7.02915 71.6127 8.84761 70.392 10.6134C65.5755 17.5875 61.3792 24.9707 56.2078 32.7629C69.226 41.5595 81.6435 50.8946 94.3184 60.238C102.754 55.0054 105.332 44.8399 112.82 38.8945C120.101 42.6003 126.489 47.3225 132.811 52.5389C131.438 57.7432 128.038 61.3112 126.091 64.8671C128.661 60.9386 131.645 56.4067 133.669 51.9882C135.974 50.3682 137.355 51.571 138.794 52.3891C161.261 69.0225 183.694 85.7043 206.224 102.244C209.8 104.873 211.688 108.615 213.938 112.264C213.232 115.569 212.113 118.578 209.906 121.065C208.642 121.915 209.921 123.361 209.317 124.114C208.658 125.301 207.675 125.568 206.801 126.006L206.794 126.01Z" fill="#333333"></path></svg>