<svg xmlns="http://www.w3.org/2000/svg" width="30" height="25" viewBox="0 0 30 25" fill="none"><path d="M5.40711 0.113281C7.5755 4.95707 10.3133 9.41202 13.6049 13.7415C18.3316 12.6682 22.1107 10.0398 26.2174 8.2983C27.4419 7.7799 27.4459 6.34621 27.6565 5.16361C28.9708 6.59731 29.3764 8.41171 29.6494 10.2828C25.141 12.5954 20.0671 13.5835 15.9722 16.2201C15.0011 19.4236 17.1305 21.4203 17.6258 23.8422L17.3917 24.0771C17.2474 24.2067 17.1031 24.3322 16.9588 24.4618C16.7716 24.4861 16.5845 24.5104 16.3973 24.5347C15.6953 24.235 14.9894 23.9596 14.2055 24.0973C10.3952 18.7635 7.27131 12.976 3.96024 7.31413C3.01254 5.69008 2.07263 4.12678 0.481445 3.11024C2.12333 2.10989 3.76913 1.11363 5.41102 0.117335L5.40711 0.113281Z" fill="#555555"></path></svg>