<svg xmlns="http://www.w3.org/2000/svg" width="46" height="40" viewBox="0 0 46 40" fill="none"><path d="M2.77287 12.592C9.63292 9.91896 15.6233 5.50444 22.1363 2.13485C23.0177 1.6772 23.8678 1.16283 24.5035 0.802383C25.9231 0.733533 26.5354 1.68122 27.3622 2.21177C27.7951 2.23202 28.2007 2.34546 28.5868 2.55201C28.9339 2.81526 29.242 3.11901 29.4994 3.47136C29.7217 3.83586 29.9049 4.22055 30.0492 4.62555C30.5718 5.6826 30.9853 6.80854 31.7614 7.70764C32.05 7.88989 32.3698 7.95873 32.7091 7.89798C33.0367 7.82913 33.3058 7.65901 33.5125 7.37551C33.7894 7.56586 34.2379 7.69949 34.3159 7.95869C35.7394 12.6567 39.7836 15.6295 41.3748 19.7969C42.7983 21.097 44.175 21.664 45.6804 21.9272C44.565 23.0167 43.3638 23.8914 41.449 23.697C38.6215 21.9717 38.4888 18.2862 36.7923 15.6294C35.5872 15.8238 35.4196 17.1441 34.6201 17.784C34.8892 20.7567 38.4186 22.2997 37.7946 25.6815C34.741 28.3909 16.2356 38.0542 11.6453 39.2611C9.27412 36.8756 8.31082 33.5993 6.96143 30.4281C8.57992 27.6701 12.2265 27.504 13.8567 24.2357C10.6821 24.1263 8.75546 26.694 5.43658 26.8722C3.54119 22.6845 -0.690319 19.3109 0.616171 13.4627C1.11537 12.5838 1.63407 11.7658 2.76896 12.6001L2.77287 12.592Z" fill="#333333"></path></svg>