<svg xmlns="http://www.w3.org/2000/svg" width="25" height="52" viewBox="0 0 25 52" fill="none"><path d="M24.3773 6.49345C22.8875 6.56635 21.4133 6.59473 20.0951 7.53028C16.4096 10.1425 12.689 12.7061 9.04257 15.2495C7.52938 22.985 8.15728 30.1252 12.5057 36.7753C9.72116 39.2984 7.26029 41.5299 4.91251 43.6562C4.01552 46.4628 4.83842 48.5607 6.62851 50.3832C5.75491 51.1365 4.72918 51.416 3.61769 51.4484C2.4438 47.6778 1.48443 44.0612 2.27612 39.8532C3.09902 35.4671 1.49224 30.9716 0.96574 26.5247C0.766841 24.8318 0.0765596 23.1875 0.930654 21.0734C3.11074 22.738 2.64661 25.3502 3.4773 27.3347C5.12699 29.064 4.63951 31.6156 5.3493 32.8751C3.86732 30.6517 5.4039 27.2537 4.46791 24.2081C4.16761 21.203 4.98272 18.4855 6.43741 15.934C6.58951 11.5641 9.80307 9.58767 12.2639 7.63153C9.56517 9.13812 7.62297 12.1472 5.38049 14.8486C5.07239 14.8607 4.76429 14.8769 4.4562 14.9012C4.1247 14.561 3.7854 14.233 3.43441 13.9171C3.9024 9.91973 5.90698 7.04831 9.27265 5.08407C12.4043 3.25752 15.5438 1.4755 18.7691 0.556152C20.801 0.746502 21.2534 2.51232 22.3922 3.41142C23.6753 4.00677 25.1105 4.49681 24.3812 6.49345H24.3773Z" fill="#535454"></path></svg>