<svg xmlns="http://www.w3.org/2000/svg" width="42" height="73" viewBox="0 0 42 73" fill="none"><path d="M1.63653 30.9933C10.9887 23.8977 20.372 16.8466 29.6773 9.6903C33.3901 6.83506 37.485 4.49825 40.7025 0.970703C41.9778 2.4044 41.7087 4.19041 41.7087 5.89141C41.6892 22.4599 41.5254 39.0325 41.7048 55.601C41.7516 60.0317 40.3086 62.6359 36.436 64.426C31.1437 66.8681 26.0425 69.7558 20.3914 72.7001C17.6147 68.4962 15.1343 64.5475 13.5899 60.0074C13.2038 59.0233 12.0338 58.3105 12.6344 56.9902C10.7507 55.2284 9.68601 52.9159 8.59792 50.5993C6.42954 45.9823 4.22996 41.3775 1.97578 36.805C1.02808 34.8813 0.40804 33.0223 1.64043 31.0014L1.63653 30.9933Z" fill="#333333"></path></svg>