<svg xmlns="http://www.w3.org/2000/svg" width="58" height="63" viewBox="0 0 58 63" fill="none"><path d="M19.6106 52.2366C19.2323 51.9167 18.8501 51.5967 18.4718 51.2808C12.1383 47.008 7.37245 40.9331 1.90079 35.6681C0.859502 34.6677 0.968724 33.1287 0.949224 31.7396C0.906324 28.7993 1.10522 25.8428 0.898522 22.9146C0.200427 12.9557 6.56519 6.95765 11.5338 0.611312C16.7519 0.153663 20.0162 3.47871 23.7563 4.61676C31.4574 1.84117 36.8017 0.873249 39.789 1.71295C41.4699 4.20369 42.6516 7.12373 42.831 10.2139C43.2522 17.431 46.5672 22.3598 52.6824 25.6767C59.1602 29.1921 59.2733 31.0146 54.3164 36.4092C49.9914 41.1153 44.9916 45.1045 42.3201 51.4549C40.4442 55.914 36.0061 58.5384 32.2465 61.3329C29.4502 63.4146 26.7202 61.3531 24.7508 59.2147C22.8125 57.1168 20.9171 54.8812 19.6067 52.2326L19.6106 52.2366Z" fill="#333333"></path></svg>