<svg xmlns="http://www.w3.org/2000/svg" width="28" height="17" viewBox="0 0 28 17" fill="none"><path d="M16.698 0.77181C17.6418 0.678661 18.5856 0.581431 19.5294 0.488281C21.5613 2.17308 23.4489 4.19403 26.4246 3.67968L26.331 3.7526C27.6921 4.8785 26.8887 5.81405 25.941 6.44585C24.8958 7.14245 24.4044 8.02936 24.3108 9.24031C23.9832 10.0665 24.069 10.9615 23.9481 11.8161C23.3241 13.2862 24.5058 15.4814 22.2789 16.3359C17.248 17.15 12.7747 15.5218 8.5042 12.9825C6.30462 13.2093 4.51456 14.6349 2.43587 15.2181C0.598984 15.1007 0.797896 13.8452 1.23079 12.6626C1.86649 10.9413 3.32115 9.90856 4.86164 9.34561C8.71091 7.93217 11.9206 5.79783 14.1124 2.11233C14.6311 1.23753 15.6451 0.836606 16.6941 0.767756L16.698 0.77181Z" fill="#C9AD5F"></path></svg>