<svg xmlns="http://www.w3.org/2000/svg" width="4" height="8" viewBox="0 0 4 8" fill="none"><path d="M3.64839 1.00575C3.6156 0.986073 3.57623 0.966394 3.54344 0.959836C3.45818 0.940161 3.37948 0.927054 3.29422 0.907379C3.20897 0.894263 3.11719 0.887695 3.0057 0.887695C2.77616 0.887695 2.55968 0.907374 2.3695 0.953281C2.17931 0.99263 2.01536 1.07133 1.8842 1.17626C1.75304 1.28119 1.64812 1.42547 1.56942 1.61565C1.49728 1.79928 1.4579 2.03538 1.4579 2.32394V2.76333H0.664388C0.618481 2.76333 0.572612 2.78301 0.539821 2.8158C0.50703 2.84859 0.487305 2.8945 0.487305 2.94041V3.35357C0.487305 3.39948 0.50703 3.43883 0.539821 3.46506C0.572612 3.49129 0.618481 3.51097 0.664388 3.52408L1.4579 3.64869V7.61639C1.4579 7.66229 1.47763 7.7082 1.51698 7.74755C1.55633 7.7869 1.60221 7.80657 1.64811 7.80657H2.46132C2.50723 7.80657 2.55318 7.7869 2.58597 7.74755C2.61876 7.7082 2.6384 7.66885 2.6384 7.61639V3.64869H3.49756C3.54347 3.64869 3.58934 3.63557 3.62213 3.60278C3.65492 3.56999 3.67457 3.53064 3.67457 3.48474V2.94696C3.67457 2.90105 3.65492 2.85515 3.62213 2.82236C3.58934 2.78302 3.54347 2.7699 3.49756 2.7699H2.6384V2.3305C2.6384 2.10752 2.67122 1.96324 2.74336 1.89766C2.80894 1.83208 2.95324 1.79928 3.16965 1.79928H3.56969C3.56969 1.79928 3.62873 1.78617 3.66152 1.75993C3.69431 1.7337 3.70739 1.69436 3.70739 1.64189V1.11724C3.70739 1.07789 3.68774 1.0451 3.65495 1.02542" fill="#0B5463"></path></svg>