<svg xmlns="http://www.w3.org/2000/svg" width="40" height="67" viewBox="0 0 40 67" fill="none"><path d="M36.1499 63.6439C32.7141 64.1826 29.2236 64.2676 25.9008 65.6365C23.869 66.4749 21.6225 65.8796 19.4697 65.6487C17.0869 65.5434 15.4801 64.3891 14.5012 62.0766C10.0903 51.6519 5.76135 41.1543 2.41127 30.3449C0.578288 24.4279 1.02679 17.8021 0.0751953 11.0102C3.06257 6.94001 6.56864 2.97909 10.7923 0.15625C15.2305 1.32265 14.7352 5.49416 16.5253 7.97681C16.8763 8.66126 17.3014 9.30522 17.6914 9.96537C20.1835 14.6148 22.855 19.171 24.7309 24.1525C25.8111 25.979 27.18 27.6152 28.0341 29.5876C30.8031 33.512 32.6244 37.9873 34.8785 42.2114C35.3387 43.1348 35.834 44.0379 35.9081 45.1112C35.9978 46.4679 35.9706 47.8287 36.072 49.1814C35.9784 52.956 38.0843 56.1109 38.8058 59.6425C39.2387 61.7566 40.1981 64.5957 36.146 63.648L36.1499 63.6439Z" fill="#333333"></path></svg>