<svg xmlns="http://www.w3.org/2000/svg" width="117" height="62" viewBox="0 0 117 62" fill="none"><path d="M72.5506 -89.933C74.9296 -86.3609 76.6807 -82.3919 78.0964 -78.3946C81.5556 -68.6422 86.7309 -59.7565 90.6504 -50.2512C98.1734 -32.01 106.527 -14.1658 114.475 3.87696C115.302 5.75211 115.942 7.72043 116.667 9.64417C116.971 10.9888 117.311 12.3374 116.199 14.3219C110.298 16.8248 103.832 19.514 97.4558 22.3328C88.092 26.4678 79.6447 32.397 70.2067 36.3134C52.4502 43.6843 35.4931 52.9183 17.912 60.7024C16.3715 61.3868 14.8661 62.286 13.2867 60.8239C13.0644 60.7227 12.8303 60.6781 12.5885 60.6821C11.5434 56.5107 10.4942 52.3392 9.44905 48.1677L9.46857 48.2851C8.68467 36.7386 8.01387 25.184 6.53188 13.7022C6.12628 13.5929 5.9781 13.4511 6.0834 13.2689C6.2004 13.0704 6.31348 12.9732 6.43828 12.9732C6.77368 8.11731 6.1731 3.33022 5.475 -1.45282C4.10611 -10.8407 2.74502 -20.2326 1.38393 -29.6246C0.45574 -31.0623 0.935432 -32.5973 1.11093 -34.7964C9.11367 -39.9237 16.2428 -47.485 27.3227 -47.5012C26.9678 -56.3869 24.7253 -64.3087 23.9102 -72.0239C24.6278 -73.6885 25.6301 -74.1218 26.8741 -74.2555C38.0047 -75.4502 47.8365 -80.4884 57.6215 -85.6036C61.0457 -87.3937 64.7039 -88.6046 68.0968 -90.4514C69.6646 -91.3019 71.2441 -91.6988 72.5623 -89.9371L72.5506 -89.933Z" fill="#333333"></path></svg>