<svg xmlns="http://www.w3.org/2000/svg" width="178" height="188" viewBox="0 0 178 188" fill="none"><path d="M104.684 93.9224C110.705 91.7921 116.083 88.2564 121.797 85.4538C125.412 83.6799 128.946 81.7318 132.533 79.8972C134.008 79.1439 135.435 78.1436 137.826 78.6296C141.886 83.684 144.604 90.3098 149.179 95.7489C156.776 91.9662 163.667 87.6367 168.702 80.6829C169.295 79.8607 170.32 78.7105 170.121 78.0544C169.267 75.2721 172.278 74.9157 172.715 73.0487C174.583 73.6481 176.159 74.7335 177.5 76.1955C175.718 76.2036 174.279 76.8961 173.241 78.4392C172.578 79.4314 171.787 80.3386 171.206 81.3795C167.196 88.5358 161.14 93.1245 153.96 96.3361C152.899 96.81 151.912 97.4741 150.918 98.0978C150.649 98.2639 150.485 98.6041 150.224 98.92C150.103 101.941 152.872 104.019 152.899 107.32C149.623 109.442 146.328 111.718 142.9 113.759C138.251 116.525 134.129 119.976 130.326 123.844C128.368 125.836 125.989 126.995 123.517 128.039C121.384 128.943 119.106 129.574 117.503 131.389C117.086 133.195 118.131 134.467 118.794 135.799C123.213 144.697 127.725 153.542 132.105 162.46C133.267 164.826 134.979 166.729 136.652 168.588C141.285 173.731 144.881 179.9 150.606 183.974C151.741 184.784 152.474 185.926 152.677 187.38C150.977 188.64 149.783 185.788 148.102 186.789C139.109 180.556 131.726 172.658 126.902 162.639C118.42 145.029 109.422 127.687 101.353 109.859C100.445 107.846 99.6295 105.74 97.7185 103.76C92.4653 105.1 88.0231 108.332 82.7231 111.086C85.6363 116.938 84.4391 121.491 79.4588 124.317C79.2716 127.719 82.4891 130.615 79.0844 133.875C71.7135 131.109 71.4444 122.454 66.6786 117.117C61.2498 118.733 56.8507 122.576 51.8353 125.119C48.3097 126.905 45.3263 130.069 40.9778 129.854C39.0668 128.963 38.3882 127.416 38.7197 125.326C40.0106 122.365 42.8615 121.503 45.3106 120.126C51.4102 116.695 57.9427 114.071 63.976 109.738C62.2288 102.95 58.4185 97.7982 55.5754 92.4603C51.9718 92.1444 49.6123 95.5018 46.3988 94.0843C45.2717 93.2703 45.0454 92.0269 44.905 90.735C45.2365 87.5031 48.4267 86.932 50.7316 84.016C44.7256 85.9478 40.268 89.0178 35.4476 91.2169C31.7387 92.9098 28.5056 96.0162 24.0285 95.599C22.4646 94.8295 21.7977 93.5781 22.1292 91.788C24.3951 88.7222 28.0884 88.2118 31.0875 86.4663C36.4187 83.368 42.179 81.0798 47.6545 77.3659C44.285 67.7553 39.2189 59.5217 34.2776 50.1338C24.5784 54.0299 15.6631 58.6387 7.14558 64.167C4.76659 63.2233 4.38045 61.2591 4.65734 58.9547C7.77732 54.5686 12.9993 53.5641 17.0982 50.7251C20.1129 48.6353 23.6034 47.315 26.7819 45.4479C21.8406 47.8536 17.0281 50.5307 12.0868 52.9242C9.23203 54.3053 6.35386 55.7552 3.02718 55.2732C1.43989 54.5847 0.60524 53.4346 0.917237 51.5797C1.98193 49.1294 4.34532 48.4085 6.3811 47.3272C12.5899 44.0264 18.8299 40.7823 25.5651 37.5464C24.8904 31.8602 23.4591 26.5993 21.24 21.626C19.2783 17.2317 17.4843 12.7564 15.472 8.39051C14.5906 6.48296 13.873 4.56736 14.5867 2.41277C15.3745 1.46102 16.2909 0.7077 17.5155 0.46875C20.0154 1.69185 20.9085 4.18662 21.8133 6.57612C25.0425 15.0852 29.5899 22.9665 32.6748 31.5403C32.9088 32.1924 33.3689 32.7067 34.2815 33.1603C40.0262 32.2288 44.4994 27.1947 50.56 26.4495C51.0631 26.4697 51.539 26.6074 51.9953 26.8139C52.9468 27.6361 53.914 28.4501 54.0427 29.8676C52.3267 33.9784 48.4229 35.0435 44.9753 36.461C42.1751 37.6153 39.9443 39.0125 38.7275 42.2363C39.7298 46.6346 42.1867 50.5834 44.2108 54.6941C47.9236 62.219 51.9835 69.5576 55.4935 77.1918C56.4412 79.2492 57.7048 81.0352 59.3974 82.4932C60.0331 83.2587 60.5205 84.1173 60.8949 85.0488C61.6164 88.8112 62.7631 92.3792 65.2513 95.3519C68.0241 96.4333 71.1518 92.8977 73.7414 96.1174C74.2328 99.7624 70.5474 100.617 69.2838 103.168C69.1746 105.214 70.2081 106.684 71.8226 108.421C79.5134 105.222 86.8337 101.37 93.7054 97.138C94.15 94.1896 91.7554 92.1484 92.8201 89.6253C93.3895 88.4548 94.2865 87.6651 95.4487 87.1831C99.0016 87.9405 97.8862 92.4603 101.002 94.1815C101.907 94.4812 103.295 94.7404 104.672 93.9102L104.684 93.9224Z" fill="#535353"></path></svg>