<svg xmlns="http://www.w3.org/2000/svg" width="51" height="50" viewBox="0 0 51 50" fill="none"><path d="M37.8312 44.4434C33.7206 44.5244 30.3238 46.9949 26.5174 48.1005C24.9418 48.5582 23.5261 49.6517 21.6658 49.2791C20.0435 48.785 19.0139 47.408 18.0818 45.9865C12.2903 37.1615 6.52613 28.3123 0.777573 19.459C0.516274 19.054 0.465632 18.4991 0.348633 18.1063C0.645031 16.5835 1.83839 16.2109 2.84848 15.6844C12.0368 10.873 21.2329 6.07375 30.4408 1.29476C31.4431 0.772312 32.4415 -0.0619746 33.6856 0.699424C34.0015 1.04772 34.3173 1.39603 34.6293 1.74838L34.6137 1.76863C37.683 4.04067 37.999 7.89627 39.4537 11.0634C43.3419 19.536 46.8051 28.211 50.475 36.5419C50.28 38.6155 48.8019 39.2351 47.6436 40.1423C44.5236 41.9365 41.2359 43.3175 37.839 44.4434H37.8312Z" fill="#333333"></path></svg>