<svg xmlns="http://www.w3.org/2000/svg" width="6" height="6" viewBox="0 0 6 6" fill="none"><path d="M4.57629 1.32071C4.39922 1.12397 4.17631 0.966568 3.90742 0.855079C3.64509 0.74359 3.33684 0.68457 2.9827 0.68457C2.62856 0.68457 2.3203 0.74359 2.05797 0.855079C1.79565 0.966568 1.57265 1.12397 1.38903 1.32071C1.21196 1.51746 1.07424 1.75356 0.982423 2.02244C0.890608 2.29133 0.844727 2.58644 0.844727 2.91434V3.63575C0.844727 3.9571 0.890608 4.25222 0.982423 4.52766C1.07424 4.79654 1.21196 5.03264 1.38903 5.22939C1.5661 5.42613 1.78909 5.58352 2.05797 5.69501C2.3203 5.8065 2.62856 5.86552 2.9827 5.86552C3.33684 5.86552 3.64509 5.8065 3.90742 5.69501C4.16975 5.58352 4.39266 5.42613 4.57629 5.22939C4.75336 5.03264 4.89108 4.79654 4.98289 4.52766C5.07471 4.25877 5.12067 3.9571 5.12067 3.63575V2.91434C5.12067 2.59299 5.07471 2.29789 4.98289 2.02244C4.89108 1.75356 4.75336 1.51746 4.57629 1.32071ZM3.94016 3.63575C3.94016 4.00301 3.86147 4.29812 3.69752 4.51454C3.53356 4.73096 3.29749 4.84245 2.9827 4.84245C2.6679 4.84245 2.43183 4.73096 2.26788 4.51454C2.10392 4.29812 2.02523 4.00301 2.02523 3.63575V2.91434C2.02523 2.54709 2.10392 2.25197 2.26788 2.03555C2.43183 1.81913 2.6679 1.70764 2.9827 1.70764C3.29749 1.70764 3.53356 1.81913 3.69752 2.03555C3.86147 2.25197 3.94016 2.54709 3.94016 2.91434V3.63575Z" fill="#0B5463"></path></svg>