<svg xmlns="http://www.w3.org/2000/svg" width="38" height="23" viewBox="0 0 38 23" fill="none"><path d="M37.6562 2.13568C33.4091 3.33853 29.9733 6.16949 26.2488 8.37673C18.3123 13.0828 10.5085 18.0441 2.65396 22.9C2.31856 22.5517 1.98323 22.2075 1.64783 21.8592C1.31634 21.5068 0.984824 21.1545 0.657227 20.8021C4.5455 16.339 10.1185 14.6704 14.8687 11.641C18.7882 9.1422 23.1522 7.41287 26.6661 4.20932C27.4656 3.17252 28.5966 2.67028 29.712 2.13568C32.1963 3.00643 33.2883 -0.508933 35.6868 0.0945155C36.2211 0.702014 36.8996 0.989536 37.6718 1.07864C37.6718 1.43099 37.664 1.78333 37.6601 2.13568H37.6562Z" fill="#515252"></path></svg>