<svg xmlns="http://www.w3.org/2000/svg" width="94" height="86" viewBox="0 0 94 86" fill="none"><path d="M22.6114 32.1957C22.241 31.8191 21.8744 31.4424 21.5039 31.0657C14.1992 28.6519 11.3444 21.7953 8.03726 16.1456C5.26828 14.9589 2.4642 17.1945 0.529813 14.5863C0.510313 14.1692 0.494707 13.7521 0.475207 13.3309C0.381608 8.00917 4.48047 8.9771 7.48345 8.30075C7.59654 7.4786 7.89298 6.74555 8.49357 6.1745C15.1742 3.59871 21.9172 1.31449 29.179 1.50079C31.3045 1.23754 33.1765 -0.977793 35.5438 0.597654C35.7271 5.70469 32.6734 8.79081 26.8975 9.32946C22.0408 9.78036 18.1642 10.998 15.2678 12.9825C19.8035 19.3775 22.9664 26.5419 31.2577 29.5915C41.0895 33.2122 50.7341 37.4809 60.3359 41.7861C62.2742 42.6568 64.2592 43.6936 67.0516 43.2846C62.4106 32.8316 62.9021 20.5115 54.6341 11.6946C53.3744 10.3541 52.6802 8.47895 52.9766 6.43371C53.4056 5.05266 54.4274 4.38845 55.6988 4.04015C64.0954 16.6842 72.6676 29.2028 80.37 42.0129C79.3638 49.7646 77.2929 56.9047 76.7586 64.8386C82.3005 67.4671 87.9165 69.9335 93.782 71.7803C92.5223 73.5947 90.7635 74.0807 88.7277 73.8215C86.4306 73.7567 84.1725 73.2667 81.8637 73.2019C79.8747 73.1492 78.5995 73.5664 78.736 75.9397C76.6846 76.5998 74.6332 77.264 72.5818 77.9242C70.8307 76.7983 71.9383 74.2913 70.1365 72.8333C64.9846 72.566 67.855 78.2077 65.5969 80.0545C62.6213 81.2978 60.7766 84.4406 57.5318 85.2263C56.9819 84.477 56.7635 83.4565 57.251 82.8166C61.5916 77.1101 60.1682 70.4155 60.3242 64.0084C60.3866 61.4285 60.527 58.873 60.9599 56.358C60.9131 56.1757 60.8663 55.9692 60.8234 55.7869C60.7181 55.6452 60.6127 55.4832 60.5113 55.3374C60.3632 55.2564 60.2111 55.1551 60.0629 55.0619C59.8952 55.0457 59.7197 55.0214 59.5481 55.0012C58.9085 54.9202 58.265 54.8392 57.563 54.7541C57.524 53.2151 57.9881 51.992 58.5887 50.8054C58.8383 50.4855 58.9631 50.1169 58.9631 49.6998C58.8461 49.2826 58.6394 48.9262 58.3508 48.6144C53.0663 46.9093 48.3513 43.3129 42.4974 43.56C41.5341 44.3983 41.0505 45.5647 40.5435 46.7068L40.5513 46.6946C39.9312 46.1357 39.627 45.4149 39.5178 44.5846C37.7316 39.429 33.0907 38.3314 28.9294 36.5697C26.527 35.5531 23.8672 34.9578 22.6036 32.1795L22.6114 32.1957Z" fill="#565656"></path></svg>