<svg xmlns="http://www.w3.org/2000/svg" width="85" height="177" viewBox="0 0 85 177" fill="none"><path d="M65.8566 152.397C65.2599 152.96 64.8425 153.588 65.2442 154.637C65.9969 155.196 66.8589 155.836 67.7169 156.475C66.6678 156.961 65.6226 157.448 64.3941 158.019C61.8708 164.381 57.4872 169.8 54.687 176.15C53.5677 175.417 51.8829 175.753 51.1965 174.182C50.631 169.075 54.7222 166.22 56.5161 162.247C56.9724 161.51 57.612 160.926 58.119 160.226C58.3179 159.853 58.5207 159.485 58.7157 159.112C59.1681 158.1 59.2227 157.01 59.3202 155.925C59.4723 154.005 60.9776 152.664 61.3286 150.83C61.7381 149.445 62.8613 148.416 63.0914 146.942C64.5461 140.352 64.6359 133.597 65.1858 126.919C65.802 119.455 64.6164 112.104 62.2725 105.012C58.5285 93.6885 53.2246 83.0896 47.7373 72.6123C40.499 58.7856 33.2801 44.9468 26.3576 30.95C21.0576 20.2378 14.7942 10.7446 3.39455 6.24102C1.99446 5.68617 0.625575 4.93692 0.375977 3.10633C0.481276 2.56768 0.746478 2.13028 1.15987 1.78603C4.77905 -0.68447 8.38264 2.7337 12.0057 1.8103C19.6146 5.28114 24.5715 11.6883 28.7327 18.7555C31.841 24.0367 33.9938 29.8889 36.9733 35.2673C37.9366 37.0088 38.7557 38.9892 40.7017 40.1354C43.6696 40.3824 46.0213 38.5438 48.3964 37.1182C57.6042 31.6021 67.2605 27.0053 76.757 22.0805C78.8785 20.9789 81.1288 19.2334 83.6404 21.3799C84.007 21.7363 84.3697 22.0927 84.7363 22.4491C84.6076 26.1346 81.6553 27.1187 79.2179 28.4228C68.8751 33.9551 58.5831 39.5846 48.4159 45.4611C47.2615 46.1294 46.0213 46.7045 45.1945 48.3407C44.9644 51.5564 47.0158 54.2374 48.4861 57.036C54.7026 68.8498 61.2819 80.5219 66.539 92.7893C71.9834 105.498 74.4716 119.126 72.35 133.18C71.8352 136.582 72.3539 140.126 71.0162 143.402C70.3844 145.002 69.6551 146.557 68.7269 148.003C68.4344 148.38 68.1224 148.74 67.7909 149.084C68.1029 149.817 68.4149 150.55 68.7269 151.283C68.1575 152.729 67.2956 153.361 65.8605 152.393L65.8566 152.397Z" fill="#565656"></path></svg>