<svg xmlns="http://www.w3.org/2000/svg" width="85" height="90" viewBox="0 0 85 90" fill="none"><path d="M41.5887 3.07777C38.73 6.39876 35.9103 9.75209 34.2762 13.8385C36.819 17.1312 68.6467 40.7832 73.6738 43.0471C75.6081 38.9809 80.4246 36.5995 79.9098 30.9335C81.6921 31.6544 83.1156 32.906 84.4689 34.2546C81.4035 34.3113 80.444 37.0855 79.0556 39.0659C74.5629 45.4771 70.2261 52.0138 65.905 58.5505C59.1385 68.7808 52.4344 79.0556 45.7031 89.3102C44.4239 89.0348 43.2578 88.5568 42.5012 87.354C44.0846 87.0462 45.1064 86.0338 45.9956 84.677C54.244 72.1139 62.5354 59.5751 70.8033 47.0241C70.9866 46.7447 71.0647 46.3924 71.4235 45.4852C59.045 35.421 45.7617 26.3976 33.3987 17.034C31.558 17.0988 30.9066 17.921 30.3333 18.7634C21.9913 31.043 13.6649 43.3387 5.33066 55.6304C4.55846 56.7684 3.84079 57.9268 3.58729 59.324C2.66689 58.5424 1.74657 57.7567 0.826172 56.975C3.59515 55.1485 5.0225 52.1231 6.83209 49.4866C16.8511 34.8823 26.7648 20.197 36.7331 5.55631C37.7081 4.12667 38.5077 2.64439 38.8392 0.915039C40.0131 1.27954 40.8711 2.08147 41.5848 3.07372L41.5887 3.07777Z" fill="#525252"></path></svg>