<svg xmlns="http://www.w3.org/2000/svg" width="204" height="181" viewBox="0 0 204 181" fill="none"><path d="M34.5037 177.239C33.6925 175.931 32.8267 174.651 32.6551 173.043C37.1712 168.244 43.4814 165.777 47.9742 160.678C46.6521 157.195 44.858 158.362 42.9236 159.654C38.7702 162.432 35.1861 166.134 30.4671 168.001C29.3713 166.782 28.8526 165.287 28.5562 163.688C29.6989 160.286 32.8969 159.164 35.2836 157.139C37.4325 155.316 40.1742 154.243 42.0774 151.274C38.4933 143.174 33.0606 136.123 28.4001 128.7C23.1976 129.255 20.5885 134.722 15.5771 134.584C14.4383 133.053 13.4087 131.482 13.5608 129.408C15.3353 127.331 18.3772 126.934 19.9411 124.042C18.8023 114.456 22.8739 105.141 23.3653 94.9025C17.9171 96.2269 13.8611 99.3373 9.36835 101.391C7.11027 102.423 5.0627 104.132 2.35612 103.626C1.43182 102.334 0.749385 100.921 0.367188 99.3535C5.92855 94.5461 12.7339 92.1242 19.1338 88.9652C26.0017 85.5754 33.0451 82.5622 38.7156 77.3418C38.4153 73.0447 34.2423 70.6917 34.9209 66.4918C35.7594 64.4992 37.2024 63.7621 39.2343 64.2522C42.1125 66.1192 41.9954 70.5783 46.0436 72.2712C55.2163 66.0463 64.7401 59.6797 73.4721 53.0823C74.0259 50.0003 72.1267 48.0481 72.7312 45.7356C73.8973 43.4352 75.5391 42.0056 78.2301 42.5361C80.5428 45.0026 79.1388 49.4454 83.3897 51.6567C84.0488 51.8956 85.1565 50.8831 86.1705 50.146C93.596 44.7353 101.275 39.7173 108.86 34.5617C110.53 33.4277 111.501 32.0709 111.828 30.1107C112.515 28.5961 113.689 27.7982 115.26 27.5836C116.391 27.4418 117.639 28.5718 118.595 27.782C123.107 24.0479 129.23 22.2781 131.827 16.1869C133.126 14.6398 134.452 13.1332 136.734 13.5665C140.77 17.0536 142.634 22.2052 145.785 26.3807C147.104 28.1262 147.985 30.2241 150.153 31.998C154.432 30.6332 157.805 27.4904 161.534 24.5339C158.398 17.0171 152.614 11.659 149.966 4.38924C150.352 1.9147 151.651 0.614639 154.163 0.885988C158.207 5.15873 160.644 10.6262 164.041 15.3931C165.699 17.7178 167.068 20.2693 169.341 22.0634C170.028 22.7357 170.808 23.3148 171.276 24.1977C172.184 28.3085 174.068 31.8036 177.024 34.5455C180.854 34.1445 183.139 30.3983 186.895 30.6899C188.455 31.0179 189.742 31.674 190.019 33.5208C188.198 36.9552 184.173 37.8948 181.673 41.6451C183.561 46.7684 187.032 51.3205 190.417 55.8646C194.991 62.0004 198.665 68.7315 202.76 75.1831C203.63 76.552 203.7 78.087 203.833 79.626C203.029 80.9017 201.992 81.8858 200.603 82.4285C197.281 80.6344 196.388 76.8396 194.262 74.0613C192.242 71.4166 190.994 68.128 188.088 66.0099C184.29 67.0143 181.279 69.2985 177.991 71.8985C180.616 78.9334 185.604 84.3725 188.634 90.9416C187.574 92.3348 186.08 93.08 184.598 93.8374C181.443 92.7601 180.448 89.6051 178.678 87.1954C177.001 84.9112 176.03 82.0478 173.198 80.1686C168.904 82.4771 165.188 85.6564 161.978 89.4026C163.093 95.4857 168.979 98.5394 169.638 104.46C168.226 105.902 166.639 107.057 164.767 107.761C161.397 106.036 160.309 102.399 158.382 99.479C156.35 96.397 154.79 92.9626 152.018 90.322C147.942 91.1441 145.333 93.9427 142.529 96.6319C143.383 100.71 146.113 103.351 148.028 106.477C149.857 109.466 152.735 111.908 152.673 115.902C151.526 117.198 150.157 118.166 148.613 118.874C145.384 117.254 144.339 113.751 142.338 111.066C141.039 109.321 140.271 107.101 137.642 105.639C132.74 107.976 128.158 111.471 123.583 115.193C124.46 121.568 130.049 125.452 130.794 131.579C130.045 132.713 128.945 133.305 127.733 133.722C124.995 133.406 124.156 130.947 122.85 129.028C121.056 126.387 119.968 123.236 117.44 120.895C114.34 121.308 112.094 123.005 110.374 125.836C112.179 131.397 116.972 134.767 119.468 139.72C118.256 141.396 116.391 142.069 114.714 143.029C111.536 142.842 110.44 140.121 108.95 137.897C107.273 135.398 106.283 132.361 103.241 130.178C98.8142 133.398 93.9392 136.119 90.0119 140.096C91.4627 146.111 96.9266 149.452 97.6052 155.361C96.482 156.681 95.0819 157.592 93.5609 158.321C90.1211 156.997 89.0369 153.473 87.0986 150.772C85.8311 149.002 84.7742 147.075 82.8905 145.224C74.2482 149.865 66.9358 156.228 59.0032 161.796C60.0172 168.106 64.9624 171.897 66.8227 177.332C65.6839 178.729 64.1591 179.535 62.5952 180.276C59.3777 178.871 58.5353 175.42 56.7101 172.824C55.4504 171.034 54.6626 168.872 52.4591 167.329C48.0795 168.608 44.7059 172.091 40.7708 174.509C38.7897 175.724 37.0932 177.563 34.4998 177.235L34.5037 177.239Z" fill="#525353"></path></svg>