<svg xmlns="http://www.w3.org/2000/svg" width="46" height="51" viewBox="0 0 46 51" fill="none"><path d="M3.55019 39.5377C1.81471 34.3781 1.40907 28.951 0.590079 23.6091C0.328781 21.9 0.77339 20.2354 1.38179 18.6397C9.43523 12.7308 17.4886 6.8219 25.5421 0.908909C28.1902 -0.516688 29.7931 1.48803 30.9046 3.20522C36.6648 12.1355 43.0725 20.7417 45.4983 31.5268C46.1184 34.2889 46.7813 37.1847 42.5928 37.4641C38.1819 38.9181 33.736 40.2586 29.3758 41.8584C26.2051 43.0248 23.7052 45.3211 21.5251 47.9374C20.6632 48.9702 20.0003 50.1771 17.9684 50.6631C14.1074 45.9894 10.0787 40.9147 3.55019 39.5418V39.5377Z" fill="#333333"></path></svg>