<svg xmlns="http://www.w3.org/2000/svg" width="15" height="9" viewBox="0 0 15 9" fill="none"><path d="M1.6791 0.500977C1.98329 0.529327 2.28743 0.541463 2.59163 0.537413L2.67361 0.614388C3.03241 0.910038 3.39502 1.20165 3.75772 1.4892C3.75772 1.4892 3.75001 1.45677 3.75391 1.45677C4.7757 2.82162 5.79744 1.84557 6.81923 1.45677C8.82772 2.85402 10.8362 4.25531 12.8486 5.65256C13.1996 6.41395 14.2759 6.08999 14.5879 6.90809H14.5685C14.4203 7.36979 14.2682 7.83149 14.0108 8.62934C10.9883 7.43864 7.88786 6.77444 4.70938 6.55169C4.38179 5.94014 4.05028 5.32453 3.72268 4.71298C3.66808 4.54693 3.61351 4.38494 3.55501 4.21889C3.21571 4.16219 2.87637 4.13382 2.53317 4.14192C1.89747 4.02852 1.1019 4.44162 0.708008 3.54252C1.03171 2.53003 1.3593 1.51347 1.683 0.500977H1.6791Z" fill="#D8B960"></path></svg>