<svg xmlns="http://www.w3.org/2000/svg" width="107" height="5" viewBox="0 0 107 5" fill="none"><path d="M75.4446 1.0678C77.0124 2.40429 78.8922 2.0803 80.6862 2.0884C89.2973 2.1208 97.9085 2.12075 106.52 2.1329C104.78 3.53824 102.729 3.14134 100.771 3.14539C86.6921 3.18589 72.6094 3.19 58.5305 3.2062C57.4619 3.1252 56.3933 3.1252 55.3247 3.1981C41.6592 2.78905 28.0483 4.93962 14.3789 4.13367C13.0646 3.90687 11.7503 3.91092 10.436 4.13367C7.08981 4.14582 3.74754 4.16196 0.401367 4.17411C0.401367 3.48561 0.401367 2.80122 0.401367 2.11272C6.06413 2.09247 11.7269 2.07622 17.3858 2.05597C17.8109 2.06812 18.2321 2.06405 18.6572 2.03975C19.3124 1.9547 19.8466 1.62265 20.3341 1.17715C22.8769 2.31115 25.6069 2.38402 28.2082 1.95877C37.3224 0.468376 46.4796 1.32697 55.6172 1.04347C60.2582 0.897672 64.9069 1.40391 69.5557 0.427865C71.4043 0.0390654 73.4791 0.820746 75.4525 1.0678H75.4446Z" fill="#505150"></path></svg>