<svg xmlns="http://www.w3.org/2000/svg" width="52" height="55" viewBox="0 0 52 55" fill="none"><path d="M49.5198 35.464C46.5948 37.0071 43.2604 37.9507 41.6185 41.3649C41.4859 41.6362 41.1115 41.8104 40.819 41.9643C32.863 46.2127 24.9032 50.4571 15.9995 54.0859C10.7853 42.8512 5.69973 31.8839 0.555664 20.8031C4.94313 15.2182 9.42809 10.2488 15.9449 7.78236C17.813 7.07361 19.6031 6.1421 21.4283 5.3159C21.986 4.70436 22.9415 4.93522 23.4719 4.26697L23.4524 4.27911C24.0101 3.68781 24.9422 3.88223 25.4726 3.23423L25.457 3.24231C26.0069 2.64291 26.939 2.84138 27.4733 2.19743H27.4616C34.3801 0.0630832 34.4113 0.0468785 37.3441 6.47017C38.1124 8.15496 39.5281 8.96901 40.8891 9.91266C44.6877 15.6434 46.3959 22.4757 49.8162 28.4049C50.0385 28.8018 50.2335 29.219 50.4012 29.6442C50.5572 30.2922 50.7405 30.9321 50.9628 31.5599C51.033 31.9892 51.0486 32.4225 51.0135 32.8559C51.1188 34.0992 50.3973 34.8322 49.512 35.464H49.5198Z" fill="#333333"></path></svg>