<svg xmlns="http://www.w3.org/2000/svg" width="40" height="55" viewBox="0 0 40 55" fill="none"><path d="M28.6257 44.0049C28.4814 45.8841 28.2241 47.739 27.1555 49.6749C24.2071 51.3597 21.0364 53.1214 17.6239 54.3728C15.1396 54.8872 14.5195 52.8217 13.7629 51.1896C9.23115 41.4372 5.2142 31.4418 0.811127 21.6287C-0.643562 18.3806 0.304131 15.9992 3.44361 14.4764C12.5968 10.0336 21.7657 5.63121 30.9384 1.23291C32.7402 0.370266 34.6083 -0.593648 36.492 1.11545C37.5723 2.33045 38.0714 3.83706 38.4809 5.38821C39.7211 8.9603 39.2961 12.338 37.974 15.8736C35.1036 23.5686 31.7418 31.1421 30.9228 39.5013C30.7395 41.3724 28.9182 42.2472 28.6219 44.0049H28.6257Z" fill="#333333"></path></svg>