<svg xmlns="http://www.w3.org/2000/svg" width="30" height="22" viewBox="0 0 30 22" fill="none"><path d="M14.6804 18.135C13.4909 19.2771 12.1025 19.9534 10.4723 20.0506C7.81249 18.9652 5.25799 23.6147 2.55531 20.2005C1.88061 18.4671 1.20594 16.7337 0.527344 15.0003C3.90082 12.1046 8.05431 10.679 11.8568 8.60536C16.9735 5.81492 22.1839 3.21487 27.1212 0.655273C29.196 1.87027 29.7343 3.39704 29.8318 5.33699C27.6907 8.04238 23.8336 8.15991 21.673 10.8856C21.5872 11.0962 21.5014 11.3107 21.4156 11.5213C20.0311 13.7205 17.6482 14.5467 15.7138 15.9804C15.2809 16.4178 14.891 16.8917 14.735 17.5235C14.7194 17.726 14.6999 17.9325 14.6804 18.135Z" fill="#373735"></path></svg>