<svg xmlns="http://www.w3.org/2000/svg" width="35" height="33" viewBox="0 0 35 33" fill="none"><path d="M34.5135 19.5517C33.8817 20.5966 33.0471 21.3944 31.959 21.9128C26.2221 24.6344 21 28.2024 16.4215 32.2929C14.7172 32.4144 14.0113 31.3371 13.3756 30.3975C9.47951 24.6425 5.64194 18.847 1.80437 13.0514C1.05167 11.9134 0.486184 10.666 0.396484 9.24847C0.907381 7.00072 2.89635 6.77798 4.49924 6.06518C8.55911 4.27103 12.6229 2.49309 16.7295 0.808296C23.8821 -0.119152 24.6465 0.261529 27.3726 6.10567C30.6408 10.0787 33.6087 14.2178 34.5096 19.5476L34.5135 19.5517Z" fill="#333333"></path></svg>