<svg xmlns="http://www.w3.org/2000/svg" width="6" height="6" viewBox="0 0 6 6" fill="none"><path d="M1.37348 4.76844C1.55055 4.96519 1.77346 5.12259 2.04235 5.23408C2.30467 5.34556 2.61293 5.40458 2.96707 5.40458C3.32121 5.40458 3.62947 5.34556 3.8918 5.23408C4.15412 5.12259 4.37711 4.96519 4.56074 4.76844C4.73781 4.5717 4.87553 4.33561 4.96735 4.06672C5.05916 3.79784 5.10504 3.50272 5.10504 3.17481V2.45341C5.10504 2.13206 5.05916 1.83694 4.96735 1.5615C4.87553 1.29261 4.73781 1.05652 4.56074 0.859776C4.38367 0.663031 4.16068 0.505631 3.8918 0.394142C3.62947 0.282653 3.32121 0.223633 2.96707 0.223633C2.61293 0.223633 2.30467 0.282653 2.04235 0.394142C1.78002 0.505631 1.55711 0.663031 1.37348 0.859776C1.19641 1.05652 1.05869 1.29261 0.966878 1.5615C0.875063 1.83038 0.829102 2.13206 0.829102 2.45341V3.17481C0.829102 3.49616 0.875063 3.79128 0.966878 4.06672C1.05869 4.33561 1.19641 4.5717 1.37348 4.76844ZM2.0096 2.45341C2.0096 2.08615 2.0883 1.79103 2.25225 1.57461C2.41621 1.35819 2.65228 1.24671 2.96707 1.24671C3.28186 1.24671 3.51794 1.35819 3.68189 1.57461C3.84584 1.79103 3.92454 2.08615 3.92454 2.45341V3.17481C3.92454 3.54207 3.84584 3.83718 3.68189 4.0536C3.51794 4.27002 3.28186 4.38151 2.96707 4.38151C2.65228 4.38151 2.41621 4.27002 2.25225 4.0536C2.0883 3.83718 2.0096 3.54207 2.0096 3.17481V2.45341Z" fill="#0B5463"></path></svg>