<svg xmlns="http://www.w3.org/2000/svg" width="45" height="37" viewBox="0 0 45 37" fill="none"><path d="M17.4783 33.3457C14.3856 33.9046 11.8272 36.371 8.39137 36.1118C4.0273 31.2883 3.07573 24.8366 0.373047 18.6766C12.0652 11.901 23.9016 6.21882 36.2411 0.548828C38.9204 7.19486 43.3156 12.5733 44.2867 19.7134C42.3835 21.8275 39.2519 21.8072 37.5632 24.0793C37.4774 24.2899 37.3955 24.4964 37.3136 24.7111C36.7481 25.4522 35.8745 25.7317 35.1608 26.2541C34.7513 26.4526 34.334 26.6105 33.9011 26.7361C28.7102 29.1418 23.9172 32.5276 18.1569 33.5036C17.9307 33.455 17.7045 33.4024 17.4783 33.3497V33.3457Z" fill="#333333"></path></svg>