<svg xmlns="http://www.w3.org/2000/svg" width="24" height="28" viewBox="0 0 24 28" fill="none"><path d="M7.49795 25.343C6.20706 21.8438 4.9162 18.3406 3.62531 14.8414C1.03182 13.6791 -0.239595 11.6135 0.0373033 8.70565C0.310301 5.81396 2.43579 4.78526 4.76797 4.04411C8.34425 2.90606 11.511 0.0386888 15.645 1.28204L15.6255 1.30226C15.8088 1.74776 16.0662 2.14063 16.3821 2.49298C18.9444 7.92807 21.6236 13.3024 23.6711 18.9805C23.9363 20.078 23.6438 21.1311 22.8014 21.6859C19.2135 24.0551 15.138 25.339 11.2263 26.9468C9.90036 27.4936 8.29744 26.9914 7.49405 25.339L7.49795 25.343Z" fill="#343333"></path></svg>