<svg xmlns="http://www.w3.org/2000/svg" width="53" height="55" viewBox="0 0 53 55" fill="none"><path d="M52.4878 39.034C42.8159 45.2224 31.974 48.8067 21.8068 53.8935C21.0736 54.2458 20.0635 53.9745 19.6072 54.9505L19.6384 54.9789C18.3748 54.6346 16.9747 54.9141 15.4381 53.8287C9.94304 42.3996 5.18118 30.1929 0.0410156 18.1604C1.7258 14.9609 5.61017 15.6737 7.44315 13.1465C7.46265 12.9035 7.47826 12.6605 7.49386 12.4135C7.65765 11.9518 7.91117 11.5427 8.24267 11.1944C8.61316 10.9068 9.01875 10.6841 9.44775 10.5059C12.5755 8.71177 16.1986 8.08805 19.2406 6.07115C19.615 5.8241 20.0089 5.62164 20.4184 5.45559C22.618 4.45929 24.8215 3.47513 27.0328 2.50719C28.1364 2.18319 29.2206 2.30873 30.2931 2.64893C32.052 2.26823 33.4794 0.76975 35.562 1.0006C37.8747 2.0293 38.4284 4.56055 39.2825 6.67464C42.6716 15.0581 46.7783 23.0771 50.7173 31.1771C51.9419 33.6962 52.7608 36.2072 52.4917 39.0381L52.4878 39.034Z" fill="#333333"></path></svg>