<svg xmlns="http://www.w3.org/2000/svg" width="35" height="32" viewBox="0 0 35 32" fill="none"><path d="M14.4051 -13.1611C17.5251 -10.9215 19.2333 -7.46684 20.9961 -4.22685C25.6293 4.29029 29.9153 13.014 34.2599 21.5068C34.2872 23.0863 33.4916 23.8923 32.4152 24.5038C31.1516 25.2936 29.771 25.8403 28.4333 26.4762C25.0482 28.2744 21.7683 30.3155 18.2895 31.4576C16.3161 31.0121 15.9027 29.38 15.2826 28.0233C12.4162 21.8065 9.63936 15.5452 6.78068 9.32848C5.28309 6.07228 3.59831 2.9052 2.15532 -0.379345C1.27002 -2.38409 0.240431 -4.47794 1.37532 -6.79049C5.59899 -9.17594 9.94357 -11.2981 14.4051 -13.1611Z" fill="#333333"></path></svg>