<svg xmlns="http://www.w3.org/2000/svg" width="91" height="39" viewBox="0 0 91 39" fill="none"><path d="M0.290039 36.1393C3.14482 34.2844 6.3272 35.4873 9.33798 35.0944C19.9225 36.6051 29.1654 31.6316 38.775 28.4848C42.1016 27.3954 45.284 25.7875 48.6458 24.856C57.1321 22.503 64.6279 18.2343 71.8077 13.0787C77.8176 8.76137 84.1356 4.90575 90.317 0.847656C91.6391 2.45955 89.7788 3.01846 89.3381 4.04716C89.8763 5.32291 89.4161 6.45285 88.5815 7.2831C85.3874 10.4704 81.7098 12.9571 77.6967 14.8849C76.5969 15.4114 75.4581 15.1522 74.4558 14.4111C73.2624 14.8809 72.0963 15.3871 71.3046 16.509C68.0638 19.7895 64.3978 22.3775 60.0883 23.9164C48.1661 28.1689 36.2283 32.3809 24.3334 36.7104C20.8 37.9983 17.3797 38.4276 13.6162 37.6702C9.24437 36.7873 4.73601 36.6212 0.290039 36.1393Z" fill="#545555"></path></svg>