<svg xmlns="http://www.w3.org/2000/svg" width="206" height="134" viewBox="0 0 206 134" fill="none"><path d="M105.474 64.9343C104.608 65.8132 104.483 66.9512 104.452 68.1217C101.906 68.4497 101.707 66.1088 100.825 64.6103C99.7216 62.7352 99.3004 60.3983 96.6094 58.5596C86.251 62.9255 75.4793 67.5142 65.0001 72.3782C64.8207 75.8815 65.8932 78.4006 67.1295 80.8184C70.6239 87.667 73.1822 94.9731 76.7741 101.777C77.8427 103.802 79.1024 106.09 77.5112 108.557C77.2382 108.549 76.9691 108.541 76.6961 108.533C76.076 109.181 74.945 108.804 74.4653 109.735C74.4419 110.059 74.4185 110.383 74.3951 110.707C72.1878 110.877 71.8563 109.047 71.2362 107.516C69.9102 104.244 68.7831 100.886 67.3869 97.6421C66.8994 96.5324 66.4626 95.3984 65.9088 94.317C63.0384 88.5539 61.4511 82.1104 57.3054 76.5214C52.1419 78.2224 47.4346 80.5511 42.4466 83.6777C43.9051 88.8131 44.6383 94.0983 50.2465 96.4595C51.67 97.0589 52.8829 98.0592 53.5693 99.4727C55.96 104.402 58.3468 109.33 60.5502 114.352C61.2093 115.851 61.0494 117.382 60.5385 118.892C59.0838 120.286 59.8755 121.744 60.4254 123.193C54.9655 129.127 47.8948 131.694 40.4537 133.493C39.3695 132.427 40.0559 131.35 40.4381 130.277C40.364 126.361 43.636 125.883 46.0072 124.684C49.0999 123.121 52.4773 122.124 55.1254 119.496C53.9398 115.061 52.2082 111.258 49.4938 107.747C43.2656 108.962 38.2697 113.068 32.3963 114.802C31.8386 113.992 31.2848 113.182 30.7856 112.457C29.7326 112.416 29.6235 113.137 29.4402 113.777C26.7843 114.271 26.1525 112.06 25.3257 110.306C23.5863 106.625 21.7494 102.988 20.1036 99.2621C19.2534 97.3343 18.2005 96.1355 16.0009 96.6579C13.423 95.7183 12.5572 93.7298 12.8107 91.0568C13.0954 89.858 14.4526 89.3396 14.632 87.6183C10.8334 76.8373 4.84694 66.6596 0.783166 55.591C0.595967 53.3068 2.24176 52.4887 3.75885 51.5653C4.33214 51.2008 4.90541 50.8323 5.4826 50.4678C7.77579 51.0348 7.95521 52.995 8.04491 54.8863C8.18921 57.9481 9.51131 60.4186 11.6095 63.1483C16.9993 61.8361 21.5505 58.4057 26.7063 56.0811C26.4645 50.7796 22.3305 47.001 22.3812 41.902C23.247 41.2216 24.2259 40.9341 25.3023 40.9543C27.6267 41.1771 28.6602 42.9631 29.6391 44.814C31.7294 48.7668 33.1568 53.0233 34.9313 57.126C35.6294 58.7379 35.9531 60.5482 35.2316 62.1844C32.642 68.0569 36.4523 71.8558 38.9288 76.5092C44.2756 74.9014 48.9556 72.8804 53.6746 69.689C52.3174 63.0146 49.0258 57.2191 46.3699 51.1725C44.7359 47.4505 42.3608 43.9068 43.6672 39.4437C44.2795 38.5243 45.118 38.1234 46.1905 38.2449C49.4158 39.5206 50.0008 42.8011 51.3073 45.5349C54.5443 52.2984 56.8179 59.564 61.0182 66.5543C72.0512 61.6174 82.4447 55.996 93.0721 50.9092C92.9824 46.677 90.9427 43.599 89.5855 40.3509C87.2026 34.6485 84.1022 29.2499 82.1054 23.3855C80.873 19.7688 77.8349 18.3635 75.5144 16.055C78.2093 14.0745 81.2006 12.7583 84.344 11.7822C86.8907 14.7023 87.1793 18.6632 88.5911 22.0935C91.9918 30.3677 96.4027 38.0626 100.638 46.7863C111.749 42.87 121.912 36.9367 133.207 31.9107C128.09 19.3881 121.823 8.23444 117.455 -3.78189C119.249 -5.17104 121.265 -6.08635 123.383 -6.78699C127.056 0.142544 130.352 7.26243 133.402 14.5079C135.395 19.2342 137.356 23.9889 140.195 28.1685C143.846 28.2252 146.334 25.6494 149.434 25.1067C150.924 24.9002 152.418 24.7017 152.878 22.8185C153.877 20.753 152.629 19.1249 151.763 17.5656C147.083 9.13354 143.471 0.0858507 138.113 -7.95744C137.087 -9.49643 136.081 -11.1124 136.409 -13.1576C138.101 -14.0527 139.794 -14.9477 141.482 -15.8428C141.728 -10.6507 144.361 -6.31719 146.471 -1.8865C149.633 4.75954 153.331 11.1342 156.841 17.6021C157.488 18.7928 158.194 19.9916 159.278 20.7408C160.585 21.3402 161.637 20.7165 162.648 20.1455C165.857 18.323 169.387 16.8852 172.152 14.4957C178.345 9.14569 185.677 8.29114 193.165 7.86184C196.328 7.67959 199.358 6.40788 202.56 6.81288C203.348 7.94283 206.035 6.27425 205.684 9.08899C201.094 13.1592 195.236 12.1832 189.967 12.8271C180.174 14.0219 172.99 20.1657 165.101 24.3332C164.691 28.5492 166.708 31.0521 168.15 33.6846C171.777 40.2942 175.502 46.8471 178.988 53.5377C179.979 55.4371 181.391 57.4904 179.535 59.7463C179.184 60.1229 178.829 60.4956 178.478 60.8722C174.773 61.18 173.911 57.9441 172.616 55.5343C168.482 47.8474 164.274 40.2051 159.996 32.5992C159.337 31.4288 158.908 30.0396 157.176 29.2944C152.395 30.3595 147.894 32.6883 143.417 35.823C144.922 42.7768 149.052 48.2362 150.983 54.6068C151.7 56.9801 153.631 59.2157 151.552 61.8158C150.647 62.6744 150.507 63.8084 150.484 64.987C146.775 64.7521 147.239 61.2448 146.088 58.993C145.932 57.3568 145.324 55.9353 144.177 54.7729C142.723 51.537 140.699 48.54 140.238 44.8747C140.219 44.2186 140.558 43.6395 140.628 42.9955C140.32 43.2709 139.989 43.4572 139.556 43.356C137.618 42.7282 137.493 40.278 135.055 38.9455C124.716 43.0765 114.023 47.6611 104.893 54.6028C104.101 58.5758 108.329 61.4919 105.466 64.9465L105.474 64.9343Z" fill="#535353"></path></svg>