<svg xmlns="http://www.w3.org/2000/svg" width="31" height="38" viewBox="0 0 31 38" fill="none"><path d="M30.6617 30.8109C28.3491 34.1804 24.6987 35.5615 21.9804 37.631C20.1747 37.1774 19.5117 36.169 18.8721 35.1565C13.2289 26.1979 7.57388 17.2474 1.97742 8.25642C1.36123 7.26417 1.09208 6.03703 0.663086 4.92328C2.32837 3.46528 3.99759 2.00731 5.66288 0.549316C7.74546 0.650566 9.8281 0.747758 11.8639 0.844958C13.8178 1.89391 15.1827 3.55034 16.653 5.08123C18.6186 9.32968 21.0756 13.2784 23.517 17.2393C24.8664 17.7699 25.1433 18.8147 24.8118 20.1512C26.1222 22.5893 27.4287 25.0275 28.7391 27.4615C29.7531 28.3484 30.1937 29.5918 30.6617 30.8149V30.8109Z" fill="#333333"></path></svg>