<svg xmlns="http://www.w3.org/2000/svg" width="14" height="8" viewBox="0 0 14 8" fill="none"><path d="M13.2645 3.60804C11.9125 1.34949 9.57059 1.88423e-07 6.99884 1.88423e-07C4.4271 -0.00058219 2.08637 1.34888 0.734361 3.60804L0.5 4L0.734361 4.39197C2.08632 6.65051 4.42825 8 7 8C9.57174 8 11.9136 6.65054 13.2656 4.39197L13.5 4L13.2656 3.60804H13.2645ZM4.45428 3.97146C4.45428 2.5224 5.59332 1.34703 6.99899 1.34703C8.40403 1.34703 9.5437 2.52176 9.5437 3.97146C9.5437 5.42052 8.40465 6.59589 6.99899 6.59589C5.59395 6.59589 4.45428 5.42116 4.45428 3.97146ZM1.34893 4C2.30161 2.40763 3.87036 1.24928 5.71087 0.874748C4.54697 1.39076 3.73042 2.58476 3.73042 3.97152C3.73042 5.45786 4.66843 6.72105 5.96561 7.16835C4.01565 6.85384 2.344 5.66573 1.34791 4H1.34893ZM8.03237 7.16835C9.32898 6.72105 10.2676 5.45833 10.2676 3.97152C10.2676 2.58479 9.45097 1.39078 8.2871 0.874748C10.1286 1.24924 11.6958 2.40763 12.649 4C11.6529 5.66573 9.98304 6.8539 8.03136 7.16835H8.03237Z" fill="#343434"></path><path d="M6.99886 2.77112C6.35564 2.77112 5.83496 3.30927 5.83496 3.97148C5.83496 4.63369 6.35677 5.17184 6.99886 5.17184C7.64095 5.17184 8.16276 4.63369 8.16276 3.97148C8.16276 3.30927 7.64095 2.77112 6.99886 2.77112Z" fill="#343434"></path></svg>