<svg xmlns="http://www.w3.org/2000/svg" width="63" height="111" viewBox="0 0 63 111" fill="none"><path d="M62.4845 35.3986C62.4299 35.7388 62.3753 36.0749 62.3246 36.4151C62.2232 37.2251 61.806 37.7435 61.026 37.9258C59.7273 38.0634 59.1072 36.7108 57.516 36.3058C52.9842 38.8977 46.7404 39.57 44.6968 46.3052C44.8801 46.7021 45.0829 47.0868 45.3364 47.4432C45.6523 47.7834 45.9096 48.156 46.128 48.5691C46.4478 49.2455 46.5688 49.9583 46.5142 50.7075C45.4027 53.3278 45.5898 56.1669 45.2544 58.9209C44.7397 60.0549 44.416 61.3712 43.0237 61.7113C40.0246 61.521 41.9356 63.8781 42.1072 64.4167C44.1859 70.8886 41.5846 77.64 43.285 84.1078C43.3864 84.4966 42.8677 85.0069 42.622 85.4524H42.5869C41.8966 85.8048 41.0074 85.6427 40.4536 86.3434C32.2871 90.1868 25.3607 96.1079 17.8025 100.976C13.0407 104.046 8.3763 107.274 3.66514 110.433C1.87505 110.773 1.23937 109.582 1.05218 108.108C0.0654829 100.271 2.79936 93.1353 5.68144 86.2705C6.80073 83.6056 10.494 82.5567 12.3387 79.6528C17.787 71.0912 18.1692 63.546 12.7209 54.6441C17.8494 43.4783 24.7406 33.1387 30.5749 22.1794C31.3432 17.6839 33.8431 13.7999 34.4983 9.18697C35.056 5.26657 38.0668 2.85683 41.4247 1.13558C42.0604 1.01003 42.6961 0.884485 43.714 0.686035C47.493 7.08502 52.2744 12.8968 54.1152 20.6849C58.53 23.1311 59.544 28.5055 62.5859 32.2962C63.05 33.3492 63.1748 34.3901 62.4884 35.4026L62.4845 35.3986Z" fill="#333333"></path></svg>