<svg xmlns="http://www.w3.org/2000/svg" width="48" height="111" viewBox="0 0 48 111" fill="none"><path d="M13.5273 39.8467C10.4113 32.6539 7.28351 25.4652 4.18693 18.2603C3.44984 16.5471 2.44367 14.9393 2.20967 13.0155C4.08556 9.91729 3.82423 6.75423 2.47094 3.55878L2.44756 3.5993C1.93277 3.67625 1.42187 3.75724 0.205078 3.94354C2.29936 0.253995 5.07614 0.541537 7.75542 0.569887C6.95202 1.87804 6.1486 3.18618 5.34131 4.49433C7.61109 14.3196 12.4471 23.019 16.5732 32.0302C17.7159 34.521 19.1082 36.9753 17.6575 39.8548C18.3048 41.8029 19.0029 43.7226 20.3133 45.3223C22.4739 45.6625 23.1564 47.5093 23.9403 49.2144C28.0977 58.2418 31.8104 67.4839 35.999 76.4951C36.9233 78.4796 36.9818 80.4641 36.4007 82.5256C36.389 83.368 36.6269 84.0969 37.2899 84.6275C37.6682 84.8867 38.066 85.1135 38.4872 85.3038C39.1424 85.6076 39.6572 86.0814 40.0784 86.6808C41.2523 89.3052 43.0345 91.8203 41.6032 94.9631C42.2233 98.0654 44.3918 100.394 45.4448 103.278C46.876 103.857 47.4532 104.796 46.6459 106.327C46.174 106.299 45.7061 106.271 45.008 106.23C45.1445 107.785 45.2732 109.227 45.4019 110.669C41.9075 104.464 39.5402 97.6968 36.4982 91.2654C35.7728 89.7345 35.0318 88.2158 34.2947 86.693C32.7191 85.806 31.7129 84.344 30.6989 82.886C26.0268 72.6071 21.4872 62.2634 16.7955 51.9967C15.9453 50.1337 15.0756 48.1857 16.3587 46.1121C16.191 44.5083 15.4734 43.1758 14.4555 41.9973L14.4439 41.9568C13.8277 41.4019 14.0265 40.4623 13.5313 39.8508L13.5273 39.8467Z" fill="#DDBB62"></path></svg>