<svg xmlns="http://www.w3.org/2000/svg" width="80" height="61" viewBox="0 0 80 61" fill="none"><path d="M79.505 47.0769C78.8186 48.7212 77.945 50.2238 76.4631 51.2444C70.1802 48.9359 64.8567 44.7239 58.9132 41.7431C57.1543 40.8602 55.6255 39.4467 53.1919 39.2726C52.8292 42.8447 53.6365 45.5704 57.01 47.1053C60.9529 48.8994 64.7904 50.9285 68.6241 52.9575C70.2153 53.7999 72.06 54.3872 72.6489 56.4891C71.9118 58.1293 70.9173 59.563 69.4938 60.6444C69.603 58.5384 68.3433 57.6758 66.6702 56.9265C62.388 55.0149 58.1917 52.9008 53.9212 50.965C51.2692 49.7621 49.8145 47.8748 49.1554 44.8535C47.5096 37.2759 45.5518 29.7713 43.7071 22.2423C43.5043 21.4202 43.4302 20.5212 42.4435 19.6747C39.0467 20.8897 35.3261 21.4607 31.5197 21.1408C21.6645 22.2221 11.7859 21.3676 1.91897 21.5822C0.979076 21.6025 0.351169 21.1935 0.444769 20.0757C11.47 18.8809 22.5381 19.132 33.5984 19.051C38.8244 19.0105 42.2447 15.4141 42.3578 10.06C42.4202 7.16834 42.7946 4.20373 41.4959 1.44163C42.4709 1.06499 43.4459 0.684266 44.4209 0.307617C44.4209 3.92426 44.5066 7.54091 44.3935 11.1495C44.2804 14.6851 45.1931 17.9008 46.4683 21.1408C48.8005 27.0618 52.1467 31.7112 57.907 34.7082C63.8115 37.7781 69.2949 41.7309 74.9342 45.3435C76.3616 46.2588 77.7383 47.1903 79.5089 47.0891L79.505 47.0769Z" fill="#545454"></path></svg>