<svg xmlns="http://www.w3.org/2000/svg" width="31" height="46" viewBox="0 0 31 46" fill="none"><path d="M23.7161 42.9256C20.9745 42.9418 18.9387 45.2341 16.2789 45.5014C13.9506 44.1932 13.4592 41.6741 12.5037 39.5722C8.82996 31.5086 5.31606 23.3682 1.70468 15.2763C1.00269 13.7008 0.425505 12.1173 0.253906 10.3839C4.65307 5.20801 10.815 3.0453 16.5441 0.145508C18.0456 0.315607 19.6212 0.461409 20.2179 2.22316C21.5868 6.2529 24.0827 9.78854 25.0655 13.6603C24.6521 15.8433 22.5267 16.2483 21.9222 18.3097C24.7068 24.7533 27.5966 31.4317 30.3149 37.7213C29.4335 40.69 26.7698 40.1676 25.4399 41.6418C25.2683 42.6502 24.7106 43.1078 23.7161 42.9296V42.9256Z" fill="#333333"></path></svg>