<svg xmlns="http://www.w3.org/2000/svg" width="49" height="58" viewBox="0 0 49 58" fill="none"><path d="M20.4391 2.32923C23.1028 2.29683 25.1698 -0.0359449 28.2235 0.219205C30.3958 3.4268 31.7686 7.25409 33.6289 10.8019C34.2529 11.3648 34.0072 12.3611 34.6039 12.9403C39.5685 22.4294 43.1409 32.6151 48.3317 41.675C47.427 44.5221 45.1962 45.1134 43.3593 46.1704C37.4352 49.5764 30.9886 51.9984 25.5364 56.3075C25.3024 57.3929 24.7564 57.9478 23.6332 57.5063C21.9718 57.559 20.7863 56.8382 20.0648 55.2546C14.0237 42.0395 6.5631 29.5776 0.896437 16.1641C0.834038 16.0142 0.861265 15.8239 0.822266 15.346C3.14665 12.0533 5.62315 9.04818 10.2056 8.10858C13.1579 7.50513 15.7982 5.26955 18.5749 3.767C18.5203 3.3782 18.6296 3.05018 18.9026 2.78288C19.2146 2.59658 19.55 2.47107 19.9049 2.41437C20.0804 2.38602 20.2597 2.36164 20.4352 2.33329L20.4391 2.32923Z" fill="#333333"></path></svg>