<svg xmlns="http://www.w3.org/2000/svg" width="4" height="8" viewBox="0 0 4 8" fill="none"><path d="M3.411 0.545298C3.37821 0.525624 3.33884 0.505945 3.30605 0.499386C3.22079 0.479712 3.14217 0.466594 3.05692 0.44692C2.97166 0.433803 2.8798 0.427246 2.76832 0.427246C2.53878 0.427246 2.32238 0.446925 2.13219 0.492832C1.94201 0.532181 1.77806 0.610877 1.64689 0.715807C1.51573 0.820738 1.41081 0.965017 1.33211 1.1552C1.25997 1.33883 1.2206 1.57493 1.2206 1.86349V2.30288H0.427083C0.381176 2.30288 0.335227 2.32256 0.302437 2.35535C0.269646 2.38814 0.25 2.43405 0.25 2.47996V2.89313C0.25 2.93903 0.269646 2.97838 0.302437 3.00461C0.335227 3.03085 0.381176 3.05052 0.427083 3.06363L1.2206 3.18824V7.15594C1.2206 7.20184 1.24025 7.24775 1.2796 7.2871C1.31895 7.32645 1.35834 7.34612 1.41081 7.34612H2.22402C2.26992 7.34612 2.31579 7.32645 2.34858 7.2871C2.38137 7.24775 2.4011 7.20184 2.4011 7.15594V3.18824H3.26018C3.30609 3.18824 3.35203 3.17512 3.38483 3.14233C3.41762 3.10954 3.43726 3.07019 3.43726 3.02429V2.48651C3.43726 2.4406 3.41762 2.3947 3.38483 2.3619C3.34548 2.32911 3.30609 2.30945 3.26018 2.30945H2.4011V1.87004C2.4011 1.64706 2.43383 1.50279 2.50597 1.43721C2.57155 1.37163 2.71585 1.33228 2.93227 1.33228H3.33231C3.33231 1.33228 3.39134 1.31916 3.42413 1.29948C3.45692 1.27325 3.47001 1.23391 3.47001 1.18144V0.656786C3.47001 0.617437 3.45036 0.584647 3.41757 0.564972" fill="#0B5463"></path></svg>