<svg xmlns="http://www.w3.org/2000/svg" width="35" height="39" viewBox="0 0 35 39" fill="none"><path d="M16.5568 31.6144C10.0867 25.0372 5.60568 17.0101 0.882812 9.23414C5.21178 5.11529 13.468 1.2192 19.0488 0.725098C24.9027 9.81328 29.372 20.0517 34.8242 29.6866C34.8086 30.0227 34.6838 30.3103 34.4537 30.5452C34.2587 30.9421 34.0131 31.3025 33.7167 31.6265C33.0186 32.963 32.3204 34.2995 31.6223 35.6401C28.4009 39.3904 23.6001 39.4997 17.5318 35.96C17.2003 35.5388 16.9896 35.0569 16.896 34.5182C16.8609 33.5422 17.6098 32.4608 16.5529 31.6103L16.5568 31.6144Z" fill="#333333"></path></svg>