<svg xmlns="http://www.w3.org/2000/svg" width="76" height="82" viewBox="0 0 76 82" fill="none"><path d="M33.6402 9.38826C34.7946 6.64236 37.8365 6.20093 39.5681 4.16378C39.455 3.27278 39.6305 2.71792 40.6601 3.16342C42.5945 2.21977 44.5288 1.27612 47.0482 0.0449219C56.6851 19.2257 66.1894 38.1432 75.99 57.648C61.837 65.8816 48.1832 73.8844 34.1472 81.2716C30.9141 77.8939 29.124 74.1315 27.3222 70.531C21.6829 59.2518 13.5358 49.7829 6.91365 39.2246C4.65947 35.6282 1.63703 32.4935 0.615234 28.1397C0.740033 27.0624 1.34838 26.3456 2.21807 25.8272C6.05954 24.1181 9.63587 21.7893 13.6801 20.5581C14.3821 20.307 15.0568 20.2828 15.673 20.7931C19.2219 19.25 22.654 17.4842 25.6804 14.9772C25.5946 13.9242 26.0586 13.171 26.8815 12.6202C28.1061 12.1504 29.5998 12.6202 30.6372 11.474L30.6489 11.4619C31.3353 10.2914 32.6457 10.0849 33.6363 9.38826H33.6402Z" fill="#333333"></path></svg>