<svg xmlns="http://www.w3.org/2000/svg" width="4" height="7" viewBox="0 0 4 7" fill="none"><path d="M3.0953 5.94095H2.61657C2.53131 5.94095 2.4657 5.94095 2.41979 5.92783C2.37388 5.92127 2.34115 5.89503 2.31492 5.86224C2.28869 5.82945 2.27552 5.77699 2.26897 5.71141C2.26897 5.64583 2.2624 5.55401 2.2624 5.44252V2.63562H3.07561C3.12152 2.63562 3.16746 2.61595 3.20026 2.58316C3.23305 2.55037 3.25269 2.50447 3.25269 2.45856V1.9339C3.25269 1.888 3.23305 1.84209 3.20026 1.8093C3.16091 1.77651 3.12152 1.75683 3.07561 1.75683H2.2624V0.838691C2.2624 0.746877 2.21651 0.70752 2.11814 0.70752H2.08532L1.25898 0.8518C1.21307 0.864916 1.16721 0.884595 1.13441 0.917386C1.10162 0.950177 1.08198 0.982963 1.08198 1.03543V1.76995H0.242513C0.196606 1.76995 0.150657 1.78963 0.117866 1.82242C0.0850754 1.86177 0.0654297 1.90111 0.0654297 1.94701V2.34706C0.0654297 2.39297 0.0850754 2.43232 0.117866 2.46511C0.150657 2.49791 0.196606 2.51758 0.242513 2.5307L1.08198 2.6553V5.46219C1.08198 5.75731 1.10821 5.99996 1.16067 6.19015C1.21314 6.38034 1.2984 6.52462 1.40989 6.62299C1.52138 6.72137 1.67216 6.7935 1.84923 6.8263C2.03286 6.85909 2.24928 6.87876 2.49849 6.87876C2.59686 6.87876 2.70184 6.87876 2.80022 6.85909C2.89859 6.84597 3.0035 6.83286 3.10843 6.81319C3.21992 6.79351 3.27895 6.74105 3.27895 6.64923V6.08523C3.27895 5.99341 3.21334 5.95406 3.08874 5.95406" fill="#0B5463"></path></svg>