<svg xmlns="http://www.w3.org/2000/svg" width="181" height="175" viewBox="0 0 181 175" fill="none"><path d="M20.5901 170.616C19.0106 168.481 18.7376 165.97 18.6635 163.399C21.6041 161.025 25.2662 160.28 28.55 158.684C30.7808 157.599 33.1285 156.651 34.7626 154.254C33.8383 150.933 31.6153 148.474 29.482 145.996C23.9948 145.648 19.9232 150.406 14.5959 149.827C13.6209 148.252 12.9423 146.563 12.7356 144.688C15.8789 141.618 20.4653 141.735 24.5486 138.949C22.3724 134.344 19.697 130.205 16.5419 126.592C12.7902 126.422 9.93925 129.439 6.46047 128.196C5.34898 127.41 4.74841 126.301 4.53391 124.944C5.4894 121.299 9.50641 121.631 12.5679 118.695C8.12582 118.828 5.98469 122.644 2.57612 121.83C1.53482 121.04 0.906925 119.983 0.719727 118.654C4.2258 113.288 10.064 111.028 14.8337 107.363C22.3255 101.608 30.3167 96.5819 38.0035 91.1023C39.5011 90.0331 41.143 89.138 42.2935 87.032C40.0744 80.3171 34.3765 75.4774 31.7674 68.7989C33.0622 67.3085 34.7743 66.4662 36.424 65.5266C39.1228 65.7979 40.281 68.0051 41.5797 70.0058C46.4157 77.4659 51.1854 84.9786 56.0409 92.4225C57.2265 94.245 58.0766 96.4442 60.8651 97.7888C73.618 89.8386 85.5636 80.0539 98.3438 70.9859C93.231 61.5535 87.5994 53.2267 82.2682 44.7055C80.5171 41.9029 77.7286 39.4081 78.571 35.4392C79.2418 34.3214 80.2089 33.6328 81.4257 33.3007C83.5902 33.8961 84.4209 35.8928 85.5129 37.5735C90.9845 45.9894 95.9298 54.7657 101.585 63.052C102.724 64.7206 103.714 67.3693 106.421 64.996C106.963 62.7037 105.481 61.3429 104.564 59.7877C99.3773 50.9749 93.8199 42.4092 88.2234 33.8718C87.4785 32.7338 86.5699 31.6969 86.566 30.2065C87.7242 28.9713 89.1204 28.1087 90.6141 27.3918C92.7825 27.9912 93.6015 29.9919 94.7051 31.6807C99.7439 39.3919 104.28 47.4474 109.42 55.0857C110.543 56.7543 111.346 58.7306 113.148 59.7229C114.798 59.8525 115.734 59.0425 116.373 57.3941C115.04 52.6354 111.756 48.8689 109.19 44.6853C105.886 39.2988 102.369 34.0622 98.9873 28.7324C97.8953 27.0152 96.6629 25.3263 96.7721 23.0867C97.5053 22.0701 98.492 21.4586 99.662 21.1305C102.415 21.3249 103.429 23.6456 104.779 25.5896C109.841 32.8877 114.026 40.7811 118.982 48.1521C120.117 49.8369 121.046 51.7039 123.066 53.1417C127.348 51.9429 130.511 48.6786 133.997 46.2932C133.6 42.1986 131.349 39.7686 129.571 37.1159C125.012 30.3078 120.359 23.5646 115.898 16.6877C114.693 14.8287 113.238 13.0022 114.642 10.56C115.387 9.55158 116.26 8.72947 117.508 8.47027C123.362 15.5456 127.956 23.5727 133.311 31.0287C134.692 32.9524 135.694 35.184 137.48 36.5893C139.621 36.8161 140.682 35.5242 142.141 34.0054C139.75 28.3719 136.072 23.678 132.812 18.7573C130.546 15.3391 128.276 11.9209 126.061 8.46621C125.016 6.83407 124.201 5.18572 124.513 3.15263C125.367 2.04293 126.365 1.1276 127.676 0.641602C129.173 1.2005 130.015 2.41957 130.866 3.75202C146.469 28.1897 162.771 52.1332 178.325 76.6073C179.58 78.5837 181.199 80.5156 180.676 83.2169C180.364 84.2253 179.853 85.0799 178.921 85.5983C175.953 86.1207 174.9 83.6908 173.641 81.7508C171.238 78.0491 169.23 74.0639 166.309 70.8442C164.047 70.1031 162.073 72.5006 159.928 71.1722C159.425 70.666 158.938 70.1435 158.462 69.6089C157.873 66.9319 160.517 65.8668 161.43 63.1938C157.175 55.5069 152.214 47.901 147.019 40.7325C144.465 40.7163 143.287 42.0852 141.762 43.8672C146.477 53.0404 153.259 60.6949 158.388 69.4631C158.809 70.0342 159.269 70.5688 159.882 70.9292C160.088 72.0794 159.417 72.7031 158.602 73.2418C157.503 73.5617 156.625 74.4851 155.42 74.5418C152.405 74.0639 151.933 70.5121 149.34 69.1472C146.392 69.8074 146.902 71.723 148.139 73.6387C149.433 75.6475 150.888 77.555 152.121 79.6084C153.181 81.3782 154.145 83.225 153.638 85.4606C153.283 86.4326 152.768 87.2628 151.824 87.7205C148.895 88.1093 147.854 85.7076 146.579 83.7758C145.179 81.6496 143.989 79.3775 142.441 77.3525C141.236 75.7771 139.999 74.959 138.475 76.988C138.049 79.3492 139.687 80.8436 140.721 82.5122C145.12 89.5916 149.831 96.4644 154.117 103.621C155.728 106.31 158.068 108.87 157.288 112.547C156.953 113.256 156.43 113.746 155.716 114.017C152.444 114.175 151.188 111.494 149.745 109.254C141.536 96.4928 133.155 83.8406 125.562 70.6579C124.298 68.4628 123.042 66.1907 121.159 64.591C119.146 64.2305 118.358 65.4456 117.337 67.3531C128.537 84.4967 138.993 102.256 151.079 118.897C149.901 122.344 147.573 123.883 144.063 123.478C141.524 115.394 136.411 108.861 131.926 101.952C130.792 100.203 129.559 97.7645 126.619 100.81C129.263 106.646 133.327 111.652 136.583 117.156C138.042 119.622 140.027 121.894 139.489 125.155C139.013 126.447 138.244 127.362 136.805 127.414C132.987 124.944 131.267 120.683 128.76 117.107C126.127 113.357 124.025 109.214 121.096 105.8C119.497 105.111 118.433 105.69 117.664 106.873C117.333 107.703 117.539 108.355 117.918 108.942C121.354 114.228 124.797 119.509 128.14 124.859C129.423 126.916 130.546 128.998 130.214 131.582C129.758 132.643 128.924 133.02 127.867 132.991C124.735 132.007 123.362 129.132 121.619 126.669C118.113 121.724 115.34 116.216 111.463 111.709C108.421 112.126 106.545 113.608 104.829 116.184C107.134 121.384 110.761 125.871 113.675 130.796C115.125 133.251 117.103 135.543 116.483 138.803C115.847 140.407 114.837 141.411 113.027 141.128C108.729 136.75 106.471 130.873 102.809 126.021C101.401 124.158 100.614 121.728 98.2229 120.534C94.7325 121.623 96.2574 123.684 97.3923 125.584C100.961 131.57 104.872 137.313 109.057 142.865C108.102 145.931 105.824 146.595 103.082 146.425C99.2525 140.881 96.1833 134.794 92.0337 129.46C91.3083 128.524 90.7506 127.447 89.3427 126.775C86.4255 127.09 84.2611 129.01 82.2643 131.541C83.6293 136.15 86.9013 139.492 89.0892 143.481C90.3996 145.874 92.0064 148.118 91.4955 151.115C91.0197 152.403 90.2513 153.322 88.824 153.411C85.5792 152.107 84.6276 148.701 82.7205 146.174C80.1895 142.817 78.6373 138.682 74.9089 135.514C69.445 138.52 64.3712 142.181 59.4338 146.158C60.4127 150.171 63.0257 152.735 64.7339 155.821C66.0365 158.174 67.9787 160.304 67.2533 163.395C66.9257 164.103 66.4031 164.589 65.6933 164.857C62.6513 164.909 61.6529 162.281 60.167 160.296C57.8582 157.214 56.4152 153.391 52.9014 151.107C49.953 151.901 47.652 153.735 45.4368 155.975C46.5249 162.001 52.9716 165.44 52.4412 172.078C51.8016 173.661 50.7993 174.67 48.9975 174.374C44.9259 170.551 43.3113 164.747 38.6274 160.402C33.1129 164.654 26.1475 166.153 20.6057 170.616H20.5901Z" fill="#525353"></path></svg>