<svg xmlns="http://www.w3.org/2000/svg" width="84" height="114" viewBox="0 0 84 114" fill="none"><path d="M25.5798 86.9737C24.2811 87.7392 22.6509 87.8404 21.6096 89.1243C21.6369 89.3794 21.6681 89.6305 21.6993 89.8857C21.6837 90.4 21.5784 90.8941 21.3912 91.372C16.4539 95.4706 12.3823 101.015 5.44033 101.833C3.82184 99.3627 5.64702 96.6978 5.04643 94.2354C5.03473 94.3083 5.04643 94.2434 5.04643 94.3082C4.89043 95.3126 5.33504 96.7342 3.55666 96.3657C3.52546 95.1993 3.40847 94.0653 2.49588 93.2188C2.17218 93.7291 1.85626 93.7008 1.54816 93.2066C1.20887 92.8584 0.873477 92.506 0.53418 92.1577C1.13478 90.7038 2.02007 90.0841 3.45525 91.0845C5.13614 89.3794 4.26647 87.6419 3.52157 85.9045L3.46306 85.3901C3.47086 85.0378 3.55667 84.7098 3.71657 84.3979C3.93107 84.1225 4.20406 83.9362 4.53555 83.8471C6.43874 85.8721 4.57457 89.0878 6.64545 91.0642C7.24215 90.4648 7.76863 89.5981 8.57592 89.4726C16.7893 88.1887 22.8147 83.4826 27.5181 76.6381C27.8691 76.2696 28.224 75.901 28.575 75.5325C29.2848 75.006 30.1662 75.3786 30.9501 75.0303C30.8916 72.3532 28.8558 70.0488 29.5461 67.2259C28.7622 66.2053 27.639 65.7153 26.5626 65.1442C24.6672 64.7352 23.8482 63.3299 23.5089 61.5236C20.8764 47.5349 18.5052 33.4976 15.7402 19.5373C15.5764 18.703 15.826 17.8282 16.0951 17.006C16.6138 15.5116 17.8072 14.7097 19.0357 13.9564C19.5505 13.7701 20.0731 13.7741 20.5918 13.9564C22.92 15.2888 23.1969 17.6824 23.7273 20.08C24.9129 25.4138 25.1079 30.9947 27.0072 35.9964C31.1373 36.8915 31.5936 36.8226 36.8546 34.4574C37.3265 24.1745 33.8945 14.0658 33.4772 3.66537C35.4428 2.65692 37.4084 1.65249 39.3779 0.644043C41.2304 7.48448 43.6367 14.2602 41.5463 21.542C40.5284 23.9558 39.8771 26.3736 41.5385 28.7915C45.146 30.7922 45.1694 33.7325 43.5509 37.098C43.6328 38.88 43.2271 40.7633 44.5336 42.2983C47.0569 43.084 47.2363 45.4167 47.8993 47.5389C48.5467 49.6044 48.3517 52.0182 50.0287 53.7921C54.4552 55.0517 59.2131 51.1394 63.429 54.7114C64.1427 54.7276 64.8564 54.7398 65.5701 54.756C66.5685 56.3477 66.2214 58.5225 67.641 59.9359C71.8178 61.641 72.2351 62.6818 70.5659 67.2219C70.6127 68.206 70.5543 69.2145 71.2953 70.2837C71.9349 70.6117 72.7694 71.041 73.604 71.4663C77.6873 75.7269 79.7816 80.9392 80.4446 86.8401C80.1677 87.2734 80.1716 88.1199 79.2863 87.7513C79.7192 88.4439 80.234 87.4638 80.6942 87.8121C82.7962 89.0514 83.8337 90.6835 82.574 93.1823C82.5545 93.5711 82.5389 93.964 82.5194 94.3528C81.8876 94.9684 81.2597 95.5921 80.6474 96.2279L80.4095 96.5884C78.6584 99.1925 75.9635 98.2894 73.5845 98.5851C71.5955 98.8321 69.2946 97.9411 67.4772 100.343C71.268 103.076 76.4627 99.1561 79.4774 103.534C80.1365 103.542 80.7956 103.55 81.4547 103.562C82.3868 104.992 81.2129 105.64 80.4719 106.458C80.1248 106.746 79.7426 106.981 79.3448 107.183C78.6155 107.766 77.8823 108.341 77.1101 108.88C72.2624 110.994 67.0326 110.095 62.0094 110.715C56.764 111.363 51.5731 111.703 46.667 113.91C42.4745 114.19 41.129 110.751 39.3428 107.876C38.126 103.696 39.5612 99.6947 40.154 95.6366C40.8599 90.805 40.544 86.4269 36.0083 83.6689C33.4148 84.9608 34.616 87.002 34.4795 88.784C34.152 93.0649 36.3632 97.7872 32.5803 101.513C31.4688 100.233 31.5819 98.6539 31.5468 97.0987C31.5117 95.3896 31.7613 93.6117 30.5367 92.1618C27.4323 91.9269 28.2396 87.6622 25.5759 86.9737H25.5798Z" fill="#565656"></path></svg>