<svg xmlns="http://www.w3.org/2000/svg" width="102" height="57" viewBox="0 0 102 57" fill="none"><g clip-path="url(#clip0_6001_3555)"><path d="M5.59122 40.3746C5.59457 40.5691 5.56757 40.7629 5.5112 40.9491C5.46183 41.1043 5.3947 41.2533 5.31117 41.3931C5.24645 41.5052 5.16927 41.6097 5.08112 41.7044L4.89708 41.9053C4.81027 41.99 4.7166 42.0673 4.61703 42.1363C4.49183 42.2218 4.35767 42.2932 4.21695 42.3493C4.03013 42.4223 3.83644 42.4761 3.63884 42.51C3.37458 42.5555 3.10678 42.577 2.83868 42.5743C2.59463 42.5743 2.35259 42.5743 2.11654 42.5462C1.88049 42.518 1.63845 42.518 1.3944 42.518C1.21036 42.518 1.02833 42.518 0.844289 42.5401C0.660253 42.5622 0.478218 42.5662 0.294182 42.5743C0.323521 41.9047 0.344858 41.2123 0.358194 40.4971C0.37153 39.7819 0.377531 39.1123 0.376198 38.4882C0.376198 37.8521 0.370197 37.2173 0.358194 36.5838C0.346192 35.9503 0.32152 35.3155 0.28418 34.6794C0.430208 34.6954 0.566235 34.7055 0.69626 34.7135C0.826286 34.7216 1.02032 34.7296 1.28037 34.7356C1.34239 34.7356 1.44841 34.7356 1.60044 34.7236C1.75247 34.7115 1.9145 34.7095 2.08253 34.7055C2.25057 34.7015 2.4086 34.6954 2.55863 34.6874C2.70866 34.6794 2.81268 34.6754 2.87469 34.6754C3.18057 34.6738 3.48593 34.7007 3.78687 34.7557C4.05658 34.8027 4.31511 34.9002 4.54902 35.043C4.77139 35.1813 4.95354 35.376 5.07712 35.6075C5.21961 35.8925 5.2884 36.2089 5.27716 36.5275C5.28181 36.7762 5.22256 37.0218 5.10512 37.2407C4.98837 37.4417 4.835 37.6189 4.65304 37.763C4.46686 37.9149 4.25834 38.0369 4.03492 38.1246C3.81008 38.2152 3.57489 38.2772 3.33478 38.3094C3.63295 38.337 3.92814 38.3908 4.21695 38.4701C4.47784 38.5399 4.72299 38.6592 4.93909 38.8217C5.14709 38.9809 5.3144 39.1874 5.42719 39.4244C5.54864 39.7257 5.60457 40.0497 5.59122 40.3746ZM1.75847 38.0503L1.99852 38.0684C2.07453 38.0684 2.15055 38.0684 2.22856 38.0684C2.65057 38.0999 3.06801 37.9635 3.39079 37.6887C3.53258 37.5359 3.64132 37.3553 3.71018 37.1582C3.77903 36.9611 3.80651 36.7519 3.79087 36.5436C3.80693 36.1994 3.69659 35.8613 3.48081 35.5934C3.36657 35.4686 3.22577 35.3712 3.06887 35.3086C2.91197 35.246 2.74303 35.2198 2.57463 35.2318C2.30658 35.2318 2.04252 35.2439 1.78447 35.266C1.78447 35.4186 1.77047 35.5753 1.76647 35.732C1.76247 35.8887 1.76647 36.0454 1.76647 36.1981L1.75847 38.0503ZM1.75847 40.9511C1.75847 41.0435 1.75847 41.1861 1.75847 41.377C1.75847 41.5678 1.76847 41.7446 1.77647 41.9073C1.89049 41.9234 1.99451 41.9375 2.08653 41.9535C2.18907 41.9698 2.2928 41.9772 2.39659 41.9756C2.84916 42.0071 3.29656 41.8634 3.64684 41.5739C3.93756 41.306 4.08292 40.8895 4.08292 40.3243C4.09151 40.0433 4.0446 39.7634 3.9449 39.5007C3.86436 39.2947 3.73451 39.1119 3.56682 38.9683C3.39161 38.8285 3.18599 38.7321 2.96671 38.6871C2.70713 38.6308 2.4421 38.6038 2.17655 38.6067C2.03853 38.6077 1.90078 38.6191 1.76447 38.6409V40.9551L1.75847 40.9511Z" fill="#1E1E1E"></path><path d="M8.52211 35.5291C8.50611 35.967 8.4981 36.4471 8.4941 36.9674C8.4901 37.4877 8.4941 38 8.4941 38.4982C8.4941 38.9576 8.4981 39.3352 8.50611 39.6312C8.50611 39.9265 8.52811 40.1696 8.55211 40.3625C8.56774 40.5234 8.60266 40.682 8.65614 40.8345C8.70647 40.9622 8.77376 41.0825 8.85617 41.1921C9.03837 41.4255 9.2804 41.6047 9.55631 41.7104C9.89244 41.8401 10.2505 41.9029 10.6105 41.8952C11.0337 41.9049 11.4506 41.7912 11.8108 41.5678C12.1344 41.369 12.3823 41.0669 12.5149 40.71C12.5406 40.6404 12.5619 40.5693 12.5789 40.497C12.6003 40.3963 12.6157 40.2943 12.6249 40.1917C12.6369 40.0692 12.6449 39.9245 12.6529 39.7598C12.6609 39.5951 12.6649 39.3942 12.6649 39.1571C12.6649 38.4058 12.6649 37.6545 12.6469 36.9072C12.6289 36.1599 12.6069 35.4085 12.5609 34.6572L12.813 34.7034C12.9001 34.7191 12.9885 34.7265 13.077 34.7255C13.1694 34.7252 13.2617 34.7178 13.3531 34.7034L13.6171 34.6572L13.5831 35.2097C13.5671 35.4548 13.5551 35.7762 13.5431 36.1719C13.5311 36.5677 13.5211 36.9755 13.5151 37.4094C13.5091 37.8433 13.4991 38.2612 13.4931 38.675C13.4871 39.0888 13.4771 39.4424 13.4691 39.7337C13.4654 40.0309 13.4367 40.3273 13.3831 40.6196C13.34 40.8533 13.2646 41.0798 13.159 41.2926C13.0652 41.4787 12.9438 41.6494 12.7989 41.7988C12.6478 41.9503 12.4808 42.085 12.3009 42.2006C12.0149 42.3865 11.6966 42.5167 11.3627 42.5843C11.0342 42.6578 10.699 42.6962 10.3625 42.6988C10.0088 42.6983 9.65594 42.6654 9.30826 42.6003C8.95886 42.5386 8.62132 42.422 8.30807 42.2548C7.99541 42.0895 7.72236 41.8578 7.50791 41.5758C7.27285 41.2533 7.12658 40.8743 7.08383 40.477C7.06674 40.3687 7.05938 40.2591 7.06182 40.1495V36.7344C7.06182 36.5898 7.06182 36.425 7.06182 36.2463C7.06182 36.0675 7.06182 35.8826 7.04982 35.6998C7.03782 35.517 7.03982 35.3342 7.03182 35.1534C7.02382 34.9726 7.01581 34.8099 7.00781 34.6633L7.40789 34.7095C7.66912 34.7389 7.93281 34.7389 8.19404 34.7095L8.55412 34.6633L8.52211 35.5291Z" fill="#1E1E1E"></path><path d="M15.3647 40.8245C15.4687 41.0726 15.6031 41.3068 15.7647 41.5216C15.8839 41.6794 16.0294 41.8154 16.1948 41.9233C16.3355 42.0115 16.4906 42.074 16.6529 42.1082C16.8138 42.1391 16.9772 42.1546 17.141 42.1544C17.352 42.1578 17.5618 42.121 17.7591 42.0459C17.9342 41.9787 18.094 41.8769 18.2292 41.7466C18.361 41.6182 18.4646 41.4636 18.5333 41.2925C18.6067 41.1094 18.6434 40.9134 18.6413 40.716C18.6476 40.5163 18.6086 40.3178 18.5273 40.1354C18.4596 39.9907 18.3683 39.8583 18.2572 39.7437C18.1658 39.648 18.0589 39.5686 17.9412 39.5087C17.8331 39.4551 17.7531 39.4169 17.7011 39.3942C17.5411 39.3259 17.343 39.2455 17.101 39.1531C16.8589 39.0607 16.6709 38.9803 16.5109 38.912C16.2661 38.8069 16.0334 38.6756 15.8167 38.5203C15.6504 38.393 15.507 38.2381 15.3927 38.0623C15.2821 37.8982 15.2028 37.715 15.1586 37.5219C15.1109 37.3083 15.0881 37.0899 15.0906 36.871C15.0928 36.6036 15.1353 36.3381 15.2166 36.0835C15.3032 35.8067 15.4501 35.5528 15.6467 35.3402C15.8771 35.0987 16.1569 34.9103 16.4669 34.7878C16.8798 34.6303 17.3196 34.5559 17.7611 34.5688C18.1176 34.56 18.4732 34.6067 18.8153 34.7074C19.1043 34.8019 19.3875 34.9133 19.6635 35.0409C19.6015 35.1795 19.5555 35.294 19.5195 35.3864C19.4835 35.4788 19.4555 35.5612 19.4335 35.6335C19.4114 35.7058 19.3894 35.7822 19.3694 35.8585C19.3494 35.9349 19.3294 36.0273 19.3074 36.1357H19.1474C19.1101 35.9801 19.0418 35.8336 18.9465 35.7051C18.8513 35.5767 18.7311 35.469 18.5933 35.3884C18.3023 35.2156 17.9691 35.1279 17.6311 35.1353C17.4458 35.1211 17.2596 35.1465 17.0847 35.2099C16.9099 35.2732 16.7505 35.3731 16.6169 35.5029C16.3948 35.7387 16.2735 36.0524 16.2788 36.3768C16.2733 36.5577 16.3103 36.7373 16.3869 36.9011C16.4618 37.0469 16.5676 37.1745 16.6969 37.2748C16.8484 37.3929 17.0153 37.4896 17.193 37.5621C17.3931 37.6464 17.6171 37.7388 17.8691 37.8393C18.0912 37.9237 18.2692 37.998 18.4373 38.0643C18.6053 38.1306 18.7333 38.1928 18.8553 38.2551C18.9663 38.3128 19.072 38.38 19.1714 38.456C19.2646 38.526 19.351 38.6047 19.4295 38.691C19.5448 38.8108 19.6431 38.946 19.7215 39.0928C19.7907 39.2268 19.8464 39.3675 19.8875 39.5127C19.9232 39.6412 19.9499 39.7721 19.9676 39.9044C19.9817 40.0036 19.9898 40.1036 19.9916 40.2037C19.9893 40.5061 19.9351 40.8058 19.8315 41.0896C19.7206 41.391 19.5467 41.665 19.3214 41.8932C19.0649 42.1505 18.7585 42.3522 18.4213 42.4858C17.9938 42.6501 17.5385 42.7286 17.081 42.7168C16.8482 42.7172 16.6159 42.6964 16.3869 42.6546C16.1836 42.6164 15.9832 42.5647 15.7867 42.4999C15.6067 42.4376 15.4447 42.3753 15.3006 42.309C15.1566 42.2427 15.0326 42.1845 14.9346 42.1303C14.9812 41.9843 15.0193 41.8597 15.0486 41.7566C15.0775 41.6604 15.1002 41.5624 15.1166 41.4633C15.1326 41.3709 15.1446 41.2765 15.1566 41.1821C15.1686 41.0876 15.1806 40.9691 15.1966 40.8305H15.3527L15.3647 40.8245Z" fill="#1E1E1E"></path><path d="M21.6805 37.315C21.6805 36.9474 21.6805 36.5516 21.6685 36.1297C21.6565 35.7079 21.6265 35.2177 21.5645 34.6572C21.6705 34.6733 21.8125 34.6874 21.9885 34.7034C22.1646 34.7195 22.2946 34.7255 22.3886 34.7255C22.5223 34.725 22.6558 34.7176 22.7887 34.7034L23.2008 34.6572C23.1708 34.8722 23.1448 35.1474 23.1268 35.4809C23.1088 35.8143 23.0948 36.1699 23.0868 36.5456C23.0788 36.9212 23.0747 37.2949 23.0747 37.6685V38.673C23.0747 39.5328 23.0828 40.2787 23.0988 40.9109C23.1148 41.543 23.1454 42.0934 23.1908 42.5622C23.0607 42.5622 22.9267 42.5421 22.7907 42.522C22.6582 42.503 22.5245 42.4936 22.3906 42.4939C22.2528 42.4947 22.1152 42.5041 21.9785 42.522C21.8345 42.5401 21.6965 42.5541 21.5665 42.5622C21.6291 41.8711 21.6651 41.0729 21.6745 40.1676C21.6838 39.2623 21.6858 38.3114 21.6805 37.315Z" fill="#1E1E1E"></path><path d="M25.2114 37.8897C25.2114 37.3453 25.2114 36.8029 25.2114 36.2666C25.2114 35.7302 25.2114 35.1918 25.1934 34.6595L25.3314 34.6775H25.4694C25.5148 34.6775 25.5588 34.6775 25.6014 34.6775L25.7335 34.6595L26.5476 35.5454C26.8157 35.8367 27.0897 36.128 27.3738 36.4192C27.6578 36.7105 27.9499 37.0219 28.256 37.3232C28.562 37.6246 28.8861 37.958 29.2302 38.2955L30.5824 39.6314C30.6678 39.7207 30.7579 39.8052 30.8525 39.8846C30.9245 39.9468 31.0265 40.0272 31.1565 40.1256V37.5623C31.1565 37.0721 31.1432 36.5826 31.1165 36.0938C31.0905 35.6056 31.0565 35.1255 31.0185 34.6494L31.2365 34.6956C31.3276 34.7123 31.4201 34.7197 31.5126 34.7177C31.6031 34.7188 31.6935 34.7114 31.7827 34.6956C31.8567 34.6816 31.9267 34.6655 31.9947 34.6494C31.9707 34.9949 31.9507 35.3123 31.9307 35.6056C31.9107 35.8989 31.8987 36.1902 31.8907 36.4855C31.8827 36.7808 31.8767 37.0882 31.8727 37.4177C31.8687 37.7471 31.8727 38.1188 31.8727 38.5406V39.1975C31.8727 39.4667 31.8727 39.7439 31.8727 40.0312C31.8727 40.3185 31.8727 40.5937 31.8727 40.8548V41.7066C31.8727 41.8071 31.8727 41.9075 31.8727 42.024C31.8727 42.1405 31.8727 42.243 31.8727 42.3454V42.6046L31.7586 42.5865C31.7207 42.5845 31.6826 42.5845 31.6446 42.5865H31.5246C31.4843 42.5903 31.4442 42.5963 31.4046 42.6046C31.1605 42.3434 30.8825 42.0501 30.5744 41.7247C30.2664 41.3993 29.9423 41.0638 29.6062 40.7203C29.2702 40.3767 28.9261 40.0252 28.574 39.6736C28.222 39.3221 27.8819 38.9826 27.5538 38.6692C27.2258 38.3558 26.9197 38.0505 26.6376 37.7772C26.3556 37.504 26.1135 37.277 25.9155 37.0922V38.1449C25.9155 38.4542 25.9155 38.7475 25.9155 39.0308C25.9155 39.314 25.9155 39.5852 25.9275 39.8544C25.9395 40.1236 25.9375 40.4109 25.9455 40.7182C25.9455 40.887 25.9455 41.0276 25.9455 41.1381C25.9455 41.2486 25.9455 41.3671 25.9635 41.4897C25.9815 41.6122 25.9815 41.7568 25.9915 41.9216C26.0015 42.0863 26.0195 42.2992 26.0435 42.5604C25.9815 42.5604 25.9015 42.5403 25.8035 42.5202C25.7126 42.5017 25.6201 42.4923 25.5274 42.4921C25.4469 42.4921 25.3666 42.4995 25.2874 42.5142L25.0693 42.5604L25.1614 40.9533C25.1614 40.8769 25.1754 40.7705 25.1794 40.6359C25.1834 40.5013 25.1794 40.3587 25.1914 40.21C25.2034 40.0613 25.1914 39.9187 25.1914 39.7841V37.8877L25.2114 37.8897Z" fill="#1E1E1E"></path><path d="M35.3545 38.0743H35.8986C36.1166 38.0743 36.3427 38.0743 36.5807 38.0623L37.2688 38.0342C37.4909 38.0221 37.6689 38.0101 37.831 37.994C37.815 38.0563 37.803 38.1185 37.791 38.1848C37.7783 38.2591 37.7722 38.3344 37.7729 38.4098C37.7666 38.543 37.7863 38.676 37.831 38.8016C37.6789 38.7855 37.5289 38.7754 37.3829 38.7674L36.9468 38.7453L36.1466 38.7272C35.8826 38.7272 35.6165 38.7272 35.3465 38.7272V41.841H35.7646L36.4647 41.8229L37.2889 41.7988C37.5749 41.7988 37.841 41.7807 38.089 41.7647C38.0444 41.886 38.0247 42.0151 38.031 42.1443C38.0262 42.2846 38.0458 42.4247 38.089 42.5582C37.4009 42.5126 36.6981 42.4899 35.9806 42.4899C35.2631 42.4899 34.545 42.5126 33.8262 42.5582C33.8422 42.3131 33.8522 42.072 33.8602 41.839C33.8682 41.6059 33.8762 41.3649 33.8822 41.1198C33.8822 40.9511 33.8962 40.7461 33.9002 40.5031C33.9042 40.26 33.9002 40.0169 33.9122 39.7658C33.9242 39.5147 33.9122 39.2797 33.9242 39.0527C33.9362 38.8257 33.9242 38.6509 33.9242 38.5183C33.9242 38.3857 33.9242 38.1808 33.9242 37.8734C33.9242 37.5661 33.9242 37.2226 33.9062 36.8429C33.8882 36.4632 33.8882 36.0775 33.8782 35.6858C33.8682 35.294 33.8502 34.9525 33.8262 34.6612C33.9642 34.6612 34.1222 34.6773 34.2983 34.6833L34.8464 34.7074L35.4065 34.7255H35.9126C36.1806 34.7255 36.4947 34.7255 36.8588 34.7034L38.023 34.6572C38.007 34.7255 37.995 34.7878 37.983 34.842C37.9703 34.9028 37.9642 34.9648 37.965 35.0269C37.9584 35.1712 37.9781 35.3155 38.023 35.4527L36.9448 35.3945L36.6647 35.3764C36.5847 35.3764 36.4907 35.3764 36.3847 35.3764H35.3565V38.0804L35.3545 38.0743Z" fill="#1E1E1E"></path><path d="M39.5597 40.8244C39.6638 41.0725 39.7982 41.3067 39.9598 41.5215C40.079 41.6793 40.2245 41.8152 40.3899 41.9232C40.5306 42.0114 40.6857 42.0739 40.848 42.108C41.0088 42.139 41.1723 42.1545 41.3361 42.1542C41.5471 42.1577 41.7568 42.1209 41.9542 42.0458C42.1293 41.9786 42.2891 41.8768 42.4243 41.7464C42.5561 41.6181 42.6597 41.4634 42.7283 41.2924C42.8017 41.1092 42.8384 40.9133 42.8364 40.7159C42.8427 40.5162 42.8037 40.3177 42.7223 40.1353C42.6546 39.9906 42.5634 39.8582 42.4523 39.7436C42.3609 39.6479 42.254 39.5685 42.1362 39.5086C42.0282 39.455 41.9482 39.4168 41.8962 39.394C41.7362 39.3257 41.5381 39.2454 41.3061 39.153C41.074 39.0606 40.876 38.9802 40.706 38.9119C40.4612 38.8068 40.2285 38.6755 40.0118 38.5202C39.8379 38.3961 39.687 38.2424 39.5657 38.0662C39.4552 37.9021 39.3759 37.7189 39.3317 37.5258C39.284 37.3122 39.2612 37.0938 39.2637 36.8749C39.2659 36.6075 39.3084 36.342 39.3897 36.0874C39.4763 35.8107 39.6232 35.5567 39.8198 35.3441C40.0502 35.1026 40.33 34.9142 40.6399 34.7917C41.0529 34.6342 41.4927 34.5598 41.9342 34.5727C42.2906 34.5639 42.6463 34.6107 42.9884 34.7113C43.2773 34.8059 43.5605 34.9172 43.8366 35.0448C43.7746 35.1834 43.7285 35.2979 43.6925 35.3903C43.6565 35.4828 43.6285 35.5651 43.6065 35.6374C43.5845 35.7098 43.5625 35.7861 43.5425 35.8624C43.5225 35.9388 43.5025 36.0312 43.4805 36.1397H43.3205C43.285 35.9853 43.2192 35.8396 43.1268 35.7113C43.0343 35.5829 42.9172 35.4745 42.7824 35.3924C42.4914 35.2195 42.1581 35.1318 41.8202 35.1392C41.6348 35.125 41.4486 35.1504 41.2738 35.2138C41.099 35.2772 40.9395 35.377 40.806 35.5069C40.5839 35.7426 40.4625 36.0563 40.4679 36.3807C40.4624 36.5616 40.4994 36.7412 40.5759 36.905C40.6509 37.0508 40.7567 37.1784 40.886 37.2787C41.0426 37.3967 41.215 37.4921 41.3981 37.5619C41.5981 37.6463 41.8222 37.7387 42.0742 37.8392C42.2963 37.9235 42.4743 37.9979 42.6423 38.0642C42.8104 38.1305 42.9384 38.1927 43.0604 38.255C43.1714 38.3127 43.2771 38.3799 43.3765 38.4559C43.4697 38.5259 43.5561 38.6046 43.6345 38.6909C43.7498 38.8107 43.8481 38.9459 43.9266 39.0927C43.9958 39.2267 44.0514 39.3674 44.0926 39.5126C44.1283 39.6411 44.155 39.772 44.1726 39.9043C44.1868 40.0035 44.1948 40.1034 44.1966 40.2036C44.1943 40.506 44.1402 40.8056 44.0366 41.0895C43.9257 41.3909 43.7518 41.6649 43.5265 41.8931C43.27 42.1504 42.9636 42.3521 42.6263 42.4857C42.1989 42.65 41.7436 42.7285 41.2861 42.7167C41.0533 42.7171 40.821 42.6963 40.5919 42.6545C40.3887 42.6162 40.1882 42.5646 39.9918 42.4998C39.8118 42.4375 39.6497 42.3752 39.5057 42.3089C39.3617 42.2426 39.2377 42.1844 39.1396 42.1301C39.185 41.9842 39.223 41.8596 39.2537 41.7565C39.2826 41.6603 39.3053 41.5623 39.3217 41.4632C39.3377 41.3708 39.3497 41.2764 39.3617 41.1819C39.3737 41.0875 39.3857 40.969 39.4017 40.8304H39.5577L39.5597 40.8244Z" fill="#1E1E1E"></path><path d="M45.7153 40.8244C45.8194 41.0725 45.9538 41.3067 46.1154 41.5215C46.2346 41.6793 46.3801 41.8152 46.5455 41.9232C46.6862 42.0114 46.8413 42.0739 47.0036 42.108C47.1645 42.139 47.3279 42.1545 47.4917 42.1542C47.7027 42.1577 47.9125 42.1209 48.1098 42.0458C48.2849 41.9786 48.4447 41.8768 48.5799 41.7464C48.7117 41.6181 48.8153 41.4634 48.884 41.2924C48.9573 41.1092 48.994 40.9133 48.992 40.7159C48.9983 40.5162 48.9593 40.3177 48.878 40.1353C48.8102 39.9906 48.719 39.8582 48.6079 39.7436C48.5165 39.6479 48.4096 39.5685 48.2918 39.5086C48.1838 39.455 48.1038 39.4168 48.0518 39.394C47.8918 39.3257 47.6937 39.2454 47.4517 39.153C47.2096 39.0606 47.0216 38.9802 46.8616 38.9119C46.6168 38.8068 46.3841 38.6755 46.1674 38.5202C45.9935 38.3961 45.8426 38.2424 45.7213 38.0662C45.6108 37.9021 45.5315 37.7189 45.4873 37.5258C45.4396 37.3122 45.4168 37.0938 45.4193 36.8749C45.4215 36.6075 45.464 36.342 45.5453 36.0874C45.6319 35.8107 45.7788 35.5567 45.9754 35.3441C46.2058 35.1026 46.4856 34.9142 46.7955 34.7917C47.2085 34.6342 47.6483 34.5598 48.0898 34.5727C48.4462 34.5639 48.8019 34.6107 49.144 34.7113C49.4329 34.8059 49.7161 34.9172 49.9922 35.0448C49.9302 35.1834 49.8842 35.2979 49.8481 35.3903C49.8121 35.4828 49.7841 35.5651 49.7621 35.6374C49.7401 35.7098 49.7181 35.7861 49.6981 35.8624C49.6781 35.9388 49.6581 36.0312 49.6361 36.1397H49.4761C49.4407 35.9853 49.3748 35.8396 49.2824 35.7113C49.1899 35.5829 49.0728 35.4745 48.938 35.3924C48.647 35.2195 48.3137 35.1318 47.9758 35.1392C47.7905 35.125 47.6042 35.1504 47.4294 35.2138C47.2546 35.2772 47.0951 35.377 46.9616 35.5069C46.7395 35.7426 46.6181 36.0563 46.6235 36.3807C46.618 36.5616 46.655 36.7412 46.7315 36.905C46.8065 37.0508 46.9123 37.1784 47.0416 37.2787C47.1937 37.397 47.3613 37.4937 47.5397 37.566C47.7397 37.6503 47.9638 37.7427 48.2158 37.8432C48.4679 37.9436 48.6259 38.0019 48.7839 38.0682C48.942 38.1345 49.08 38.1968 49.202 38.259C49.313 38.3167 49.4187 38.3839 49.5181 38.4599C49.6113 38.5299 49.6977 38.6086 49.7761 38.695C49.8915 38.8147 49.9897 38.9499 50.0682 39.0967C50.1374 39.2307 50.193 39.3714 50.2342 39.5166C50.2699 39.6452 50.2966 39.776 50.3142 39.9083C50.3284 40.0075 50.3364 40.1075 50.3382 40.2076C50.3359 40.51 50.2818 40.8097 50.1782 41.0936C50.0673 41.3949 49.8934 41.6689 49.6681 41.8971C49.4116 42.1544 49.1052 42.3561 48.7679 42.4897C48.3405 42.654 47.8852 42.7325 47.4277 42.7207C47.1949 42.7211 46.9626 42.7003 46.7335 42.6585C46.5303 42.6203 46.3298 42.5686 46.1334 42.5038C45.9534 42.4415 45.7914 42.3792 45.6473 42.3129C45.5033 42.2467 45.3793 42.1884 45.2812 42.1342C45.3266 41.9882 45.3646 41.8636 45.3953 41.7605C45.4242 41.6643 45.4469 41.5663 45.4633 41.4672C45.4793 41.3748 45.4913 41.2804 45.5033 41.186C45.5153 41.0915 45.5273 40.973 45.5433 40.8344H45.6993L45.7153 40.8244Z" fill="#1E1E1E"></path><path d="M54.8508 40.8244C54.9549 41.0725 55.0893 41.3067 55.2509 41.5215C55.3701 41.6793 55.5156 41.8152 55.681 41.9232C55.8217 42.0114 55.9768 42.0739 56.1391 42.108C56.3 42.139 56.4634 42.1545 56.6272 42.1542C56.8382 42.1577 57.048 42.1209 57.2453 42.0458C57.4204 41.9786 57.5802 41.8768 57.7154 41.7464C57.8472 41.6181 57.9508 41.4634 58.0195 41.2924C58.0928 41.1092 58.1295 40.9133 58.1275 40.7159C58.1338 40.5162 58.0948 40.3177 58.0135 40.1353C57.9458 39.9906 57.8545 39.8582 57.7434 39.7436C57.652 39.6479 57.5451 39.5685 57.4273 39.5086C57.3193 39.455 57.2393 39.4168 57.1873 39.394C57.0273 39.3257 56.8292 39.2454 56.5972 39.153C56.3651 39.0606 56.1671 38.9802 56.0071 38.9119C55.7623 38.8068 55.5296 38.6755 55.3129 38.5202C55.1391 38.3961 54.9881 38.2424 54.8668 38.0662C54.7563 37.9021 54.677 37.7189 54.6328 37.5258C54.5851 37.3122 54.5623 37.0938 54.5648 36.8749C54.567 36.6075 54.6095 36.342 54.6908 36.0874C54.7774 35.8107 54.9243 35.5567 55.1209 35.3441C55.3513 35.1026 55.6311 34.9142 55.9411 34.7917C56.354 34.6342 56.7938 34.5598 57.2353 34.5727C57.5917 34.5639 57.9474 34.6107 58.2895 34.7113C58.5784 34.8059 58.8616 34.9172 59.1377 35.0448C59.0757 35.1834 59.0297 35.2979 58.9937 35.3903C58.9576 35.4828 58.9296 35.5651 58.9076 35.6374C58.8856 35.7098 58.8636 35.7861 58.8436 35.8624C58.8236 35.9388 58.8036 36.0312 58.7816 36.1397H58.6216C58.5862 35.9853 58.5203 35.8396 58.4279 35.7113C58.3354 35.5829 58.2183 35.4745 58.0835 35.3924C57.7925 35.2195 57.4592 35.1318 57.1213 35.1392C56.936 35.125 56.7497 35.1504 56.5749 35.2138C56.4001 35.2772 56.2406 35.377 56.1071 35.5069C55.885 35.7426 55.7637 36.0563 55.769 36.3807C55.7635 36.5616 55.8005 36.7412 55.877 36.905C55.952 37.0508 56.0578 37.1784 56.1871 37.2787C56.3392 37.397 56.5068 37.4937 56.6852 37.566C56.8852 37.6503 57.1093 37.7427 57.3613 37.8432C57.6134 37.9436 57.7714 38.0019 57.9294 38.0682C58.0875 38.1345 58.2255 38.1968 58.3475 38.259C58.4585 38.3167 58.5642 38.3839 58.6636 38.4599C58.7568 38.5299 58.8432 38.6086 58.9216 38.695C59.037 38.8147 59.1352 38.9499 59.2137 39.0967C59.2829 39.2307 59.3385 39.3714 59.3797 39.5166C59.4154 39.6452 59.4421 39.776 59.4597 39.9083C59.4739 40.0075 59.4819 40.1075 59.4837 40.2076C59.4814 40.51 59.4273 40.8097 59.3237 41.0936C59.2128 41.3949 59.0389 41.6689 58.8136 41.8971C58.5571 42.1544 58.2507 42.3561 57.9134 42.4897C57.486 42.654 57.0307 42.7325 56.5732 42.7207C56.3404 42.7211 56.1081 42.7003 55.879 42.6585C55.6758 42.6203 55.4754 42.5686 55.2789 42.5038C55.0989 42.4415 54.9369 42.3792 54.7928 42.3129C54.6488 42.2467 54.5248 42.1884 54.4268 42.1342C54.4721 41.9882 54.5101 41.8636 54.5408 41.7605C54.5697 41.6643 54.5924 41.5663 54.6088 41.4672C54.6248 41.3748 54.6368 41.2804 54.6488 41.186C54.6608 41.0915 54.6728 40.973 54.6888 40.8344H54.8448L54.8508 40.8244Z" fill="#1E1E1E"></path><path d="M67.4473 36.2664H67.3333C67.2952 36.1981 67.2372 36.1017 67.1612 35.9792C67.0668 35.8379 66.9459 35.7164 66.8051 35.6216C66.6074 35.4884 66.391 35.3855 66.163 35.3162C65.8319 35.2192 65.4877 35.1744 65.1428 35.1837C64.1813 35.1837 63.4518 35.483 62.9544 36.0816C62.457 36.6803 62.2062 37.528 62.2022 38.6249C62.2022 38.7253 62.2022 38.8619 62.2142 39.0387C62.2242 39.2411 62.2489 39.4426 62.2883 39.6414C62.3333 39.8775 62.4003 40.1088 62.4883 40.3324C62.5892 40.5852 62.7238 40.8231 62.8884 41.0395C62.9908 41.1854 63.1081 41.32 63.2384 41.4413C63.377 41.5682 63.5286 41.6799 63.6905 41.7748C63.8682 41.8791 64.0594 41.9582 64.2586 42.0098C64.4884 42.0703 64.7253 42.0993 64.9628 42.0962C65.2783 42.101 65.5929 42.0604 65.897 41.9757C66.1499 41.9032 66.3926 41.7985 66.6191 41.6643C66.8192 41.5452 67.0057 41.4044 67.1752 41.2445C67.3284 41.0987 67.4739 40.9452 67.6113 40.7844L67.7373 40.8648L67.6113 42.0038C66.7227 42.4921 65.7236 42.7419 64.7107 42.729C64.1726 42.7323 63.6377 42.6447 63.1284 42.4699C62.6485 42.3074 62.2062 42.0491 61.8282 41.7105C61.4477 41.3628 61.1468 40.9366 60.946 40.461C60.7196 39.9181 60.6086 39.3338 60.6199 38.7454C60.616 38.1927 60.7073 37.6436 60.89 37.1222C61.0631 36.6257 61.3431 36.1737 61.7102 35.7984C62.1073 35.4031 62.585 35.0988 63.1104 34.9064C63.7474 34.675 64.4216 34.5639 65.0988 34.579C65.5529 34.577 66.006 34.6215 66.4511 34.7116C66.9096 34.8093 67.3558 34.9582 67.7813 35.1555L67.4473 36.2664Z" fill="#1E1E1E"></path><path d="M74.3705 38.6728C74.0585 38.6567 73.7504 38.6467 73.4443 38.6387C73.1383 38.6306 72.8302 38.6266 72.5182 38.6266C72.2061 38.6266 71.864 38.6266 71.542 38.6387C71.2199 38.6507 70.8918 38.6587 70.5658 38.6728V39.8239C70.5658 40.1915 70.5658 40.5089 70.5658 40.7741C70.5658 41.0393 70.5778 41.2723 70.5898 41.4772C70.6018 41.6821 70.6118 41.8649 70.6238 42.0297C70.6358 42.1944 70.6478 42.3692 70.6638 42.554C70.5798 42.554 70.4638 42.5339 70.3257 42.5138C70.1759 42.4939 70.0248 42.4845 69.8736 42.4857C69.74 42.4861 69.6064 42.4934 69.4736 42.5078L69.0735 42.554C69.1202 41.6727 69.1488 40.8022 69.1595 39.9424C69.1702 39.0826 69.1762 38.2121 69.1775 37.3309C69.1775 36.8796 69.1682 36.4342 69.1495 35.995C69.1295 35.557 69.1015 35.1171 69.0635 34.6711C69.1775 34.6872 69.3215 34.7013 69.4936 34.7173C69.6656 34.7334 69.7976 34.7394 69.8936 34.7394H70.0937L70.3237 34.7213L70.5358 34.6972L70.6898 34.6751C70.6738 34.8358 70.6618 34.9966 70.6498 35.1533C70.6378 35.3099 70.6258 35.5088 70.6158 35.7459C70.6058 35.9829 70.5958 36.2782 70.5918 36.6258C70.5878 36.9733 70.5918 37.4293 70.5918 37.9556C70.8818 37.9717 71.1679 37.9818 71.4539 37.9898C71.74 37.9978 72.0281 38.0018 72.3161 38.0018C72.6662 38.0018 73.0123 38.0018 73.3563 37.9898C73.7004 37.9777 74.0465 37.9717 74.3965 37.9556V37.5539C74.3965 37.365 74.3965 37.1662 74.3965 36.9512C74.3965 36.7363 74.3965 36.5494 74.3845 36.3485C74.3725 36.1476 74.3845 36.0311 74.3845 35.9628V35.7278C74.3845 35.6635 74.3845 35.5852 74.3725 35.4968C74.3605 35.4084 74.3565 35.2959 74.3505 35.1753C74.3445 35.0548 74.3345 34.878 74.3265 34.6631C74.4345 34.6792 74.5686 34.6932 74.7266 34.7093C74.8846 34.7254 75.0346 34.7314 75.1667 34.7314C75.2987 34.7314 75.4087 34.7314 75.5668 34.7093C75.7248 34.6872 75.8628 34.6792 75.9668 34.6631C75.9282 34.9617 75.8995 35.3434 75.8808 35.8081C75.8608 36.2722 75.8468 36.7543 75.8348 37.2525C75.8228 37.7507 75.8148 38.2329 75.8108 38.6969C75.8068 39.161 75.8108 39.5427 75.8108 39.842C75.8108 40.3027 75.8148 40.7667 75.8228 41.2341C75.8285 41.6772 75.8632 42.1195 75.9268 42.558L75.5067 42.5118C75.3666 42.4965 75.2257 42.4891 75.0847 42.4897C74.951 42.4902 74.8175 42.4975 74.6846 42.5118L74.2845 42.558C74.2845 42.5037 74.2845 42.3892 74.3025 42.2125C74.3205 42.0357 74.3245 41.8408 74.3365 41.6259C74.3485 41.4109 74.3565 41.202 74.3645 40.9991C74.3725 40.7962 74.3765 40.6395 74.3765 40.533L74.3705 38.6728Z" fill="#1E1E1E"></path><path d="M81.742 34.5626C82.2715 34.5615 82.7984 34.6373 83.3063 34.7876C83.8014 34.9303 84.2631 35.1707 84.6646 35.4947C85.0701 35.8267 85.3968 36.2453 85.6208 36.7201C85.8742 37.2774 85.9974 37.8855 85.9808 38.498C85.9893 39.0938 85.8841 39.6857 85.6708 40.2417C85.478 40.7402 85.1813 41.1916 84.8006 41.5655C84.4133 41.9387 83.9527 42.2268 83.4483 42.4113C82.8903 42.616 82.3 42.7174 81.706 42.7106C81.1377 42.7149 80.5723 42.6274 80.0317 42.4515C79.5335 42.2908 79.0718 42.0327 78.6734 41.6921C78.2823 41.3521 77.9708 40.9296 77.7612 40.4546C77.5314 39.9247 77.4181 39.3511 77.4291 38.7732C77.4132 38.1261 77.5324 37.4828 77.7792 36.8848C77.9924 36.3832 78.3134 35.9353 78.7194 35.573C79.118 35.2248 79.5848 34.964 80.0897 34.8077C80.6249 34.6423 81.182 34.5596 81.742 34.5626ZM79.0055 38.6366C79.0052 39.0646 79.0536 39.4912 79.1495 39.9082C79.2369 40.3062 79.3963 40.6848 79.6196 41.0251C79.8358 41.349 80.1215 41.6202 80.4557 41.8187C80.8385 42.0327 81.2721 42.1383 81.71 42.124C82.1454 42.1374 82.576 42.0296 82.9542 41.8126C83.2895 41.6113 83.5753 41.3366 83.7904 41.0091C84.0126 40.6653 84.1737 40.2853 84.2665 39.8861C84.3657 39.4791 84.4161 39.0616 84.4165 38.6426C84.4185 38.1933 84.3702 37.7452 84.2725 37.3067C84.1878 36.9117 84.0326 36.5353 83.8144 36.1958C83.6042 35.8779 83.319 35.617 82.9842 35.4364C82.5904 35.2368 82.1529 35.1401 81.712 35.1552C81.272 35.1408 80.837 35.2523 80.4577 35.4766C80.1223 35.688 79.8369 35.9705 79.6216 36.3043C79.4003 36.6501 79.2411 37.0322 79.1515 37.4333C79.0569 37.8274 79.0079 38.2312 79.0055 38.6366Z" fill="#1E1E1E"></path><path d="M91.5057 34.563C92.0352 34.562 92.5621 34.6378 93.07 34.788C93.565 34.9308 94.0268 35.1711 94.4282 35.4952C94.8338 35.8271 95.1604 36.2458 95.3844 36.7206C95.6379 37.2779 95.761 37.886 95.7445 38.4984C95.753 39.0942 95.6477 39.6861 95.4344 40.2422C95.2416 40.7407 94.9449 41.192 94.5643 41.566C94.1769 41.9392 93.7164 42.2273 93.212 42.4117C92.654 42.6164 92.0637 42.7179 91.4697 42.7111C90.9013 42.7154 90.336 42.6279 89.7953 42.4519C89.2971 42.2912 88.8355 42.0332 88.4371 41.6926C88.0459 41.3526 87.7345 40.93 87.5249 40.4551C87.295 39.9251 87.1818 39.3516 87.1928 38.7737C87.1769 38.1266 87.2961 37.4833 87.5429 36.8853C87.756 36.3837 88.0771 35.9357 88.4831 35.5735C88.8817 35.2252 89.3484 34.9645 89.8533 34.8081C90.3886 34.6431 90.9457 34.5604 91.5057 34.563ZM88.7671 38.6371C88.7669 39.0651 88.8152 39.4917 88.9112 39.9087C88.9986 40.3067 89.1579 40.6853 89.3813 41.0256C89.5975 41.3495 89.8832 41.6206 90.2174 41.8191C90.6002 42.0332 91.0337 42.1388 91.4717 42.1245C91.9071 42.1379 92.3377 42.0301 92.7159 41.8131C93.0512 41.6117 93.337 41.3371 93.5521 41.0095C93.7743 40.6657 93.9354 40.2858 94.0282 39.8866C94.1274 39.4796 94.1778 39.0621 94.1782 38.6431C94.1802 38.1938 94.1318 37.7457 94.0342 37.3072C93.9495 36.9121 93.7943 36.5358 93.5761 36.1963C93.3659 35.8783 93.0807 35.6175 92.7459 35.4369C92.3521 35.2373 91.9145 35.1406 91.4737 35.1557C91.0337 35.1413 90.5987 35.2527 90.2194 35.4771C89.884 35.6885 89.5986 35.971 89.3833 36.3047C89.1619 36.6505 89.0028 37.0327 88.9132 37.4337C88.8186 37.8279 88.7696 38.2317 88.7671 38.6371Z" fill="#1E1E1E"></path><path d="M97.4215 37.7972V37.4757C97.4215 37.3833 97.4215 37.2749 97.4215 37.1704C97.4215 37.0659 97.4215 36.9253 97.4095 36.7686C97.3975 36.6119 97.3995 36.405 97.3915 36.1519C97.3915 36.0896 97.3915 35.9892 97.3915 35.8465C97.3915 35.7039 97.3815 35.5553 97.3735 35.3966C97.3655 35.2378 97.3595 35.0892 97.3555 34.9486C97.3515 34.8079 97.3555 34.7095 97.3555 34.6553C97.4874 34.6838 97.6211 34.7033 97.7556 34.7135C97.873 34.7216 98.0063 34.7256 98.1557 34.7256C98.2997 34.7256 98.4337 34.7256 98.5558 34.7075C98.6778 34.6894 98.8118 34.6794 98.9558 34.6553C98.9332 35.0932 98.9158 35.5144 98.9038 35.9189C98.8918 36.3206 98.8818 36.7224 98.8698 37.1242C98.8578 37.526 98.8498 37.9277 98.8478 38.3396C98.8458 38.7514 98.8478 39.1732 98.8478 39.6192C98.8478 40.021 98.8478 40.4127 98.8598 40.7783C98.8718 41.144 98.8758 41.4875 98.8818 41.8109H99.5459C99.768 41.8109 100.014 41.8109 100.286 41.7989C100.558 41.7868 100.826 41.7768 101.086 41.7607C101.346 41.7446 101.57 41.7225 101.74 41.6964C101.724 41.7587 101.712 41.8169 101.7 41.8752C101.686 41.9682 101.68 42.0623 101.682 42.1564C101.681 42.2236 101.685 42.2908 101.694 42.3573C101.706 42.4217 101.722 42.4854 101.74 42.5482C101.594 42.5482 101.428 42.5321 101.242 42.5261L100.664 42.502L100.064 42.4839H99.5419C99.1759 42.4839 98.8238 42.4839 98.4877 42.502C98.1517 42.52 97.7736 42.5301 97.3535 42.5542C97.3535 42.5247 97.3535 42.4323 97.3535 42.277C97.3535 42.1243 97.3635 41.9375 97.3715 41.7185C97.3795 41.4995 97.3855 41.2665 97.3895 41.0154C97.3935 40.7643 97.3995 40.5292 97.4075 40.3083C97.4155 40.0873 97.4215 39.8924 97.4255 39.7277C97.4295 39.563 97.4255 39.4565 97.4255 39.4103V37.8032L97.4215 37.7972Z" fill="#1E1E1E"></path><path d="M4.29889 56.3893C4.18908 56.4416 4.07454 56.4833 3.95683 56.5138C3.8228 56.55 3.67477 56.5841 3.50874 56.6123C3.33838 56.6425 3.16564 56.6573 2.99264 56.6565C2.63196 56.6605 2.27309 56.6048 1.93043 56.4917C1.61723 56.3889 1.3304 56.2181 1.09027 55.9915C0.849877 55.7604 0.661612 55.4802 0.538157 55.1699C0.272437 54.4575 0.272437 53.6725 0.538157 52.9601C0.663226 52.6486 0.854361 52.3683 1.09827 52.1385C1.34693 51.9087 1.64057 51.7336 1.96044 51.6242C2.31684 51.5042 2.69077 51.4451 3.06665 51.4494C3.36162 51.4462 3.65586 51.4793 3.94283 51.5479C4.1834 51.6058 4.41837 51.6852 4.64496 51.7849C4.60003 51.8721 4.56834 51.9655 4.55094 52.0621C4.52694 52.1787 4.50694 52.2771 4.49293 52.3554L4.44892 52.3695C4.38869 52.2964 4.32171 52.2291 4.24889 52.1686C4.15244 52.0905 4.05011 52.02 3.94283 51.9577C3.81588 51.8861 3.68178 51.8282 3.54275 51.7849C3.3872 51.7371 3.22531 51.7134 3.06265 51.7146C2.78976 51.7115 2.51859 51.7585 2.2625 51.8532C2.01909 51.9443 1.79999 52.0908 1.62237 52.2811C1.42984 52.4914 1.28454 52.7408 1.19629 53.0123C0.993619 53.6966 0.993619 54.4253 1.19629 55.1096C1.28664 55.3826 1.43472 55.6327 1.63037 55.8429C1.80836 56.0328 2.02735 56.1791 2.2705 56.2708C2.52659 56.3655 2.79776 56.4124 3.07065 56.4094C3.23436 56.4108 3.39741 56.3885 3.55475 56.3431C3.69203 56.3016 3.82581 56.2492 3.95483 56.1864C4.07164 56.129 4.1834 56.0618 4.28889 55.9855C4.38891 55.9152 4.47293 55.8529 4.53894 55.7987L4.56895 55.8288L4.50293 56.2607C4.44 56.3112 4.37154 56.3543 4.29889 56.3893Z" fill="#1E1E1E"></path><path d="M5.49313 52.4862C5.48113 52.1769 5.46713 51.8615 5.45312 51.54L5.63516 51.5662C5.69287 51.5735 5.75102 51.5769 5.80919 51.5762C5.86734 51.5759 5.92543 51.5725 5.98323 51.5662C6.04124 51.5662 6.10125 51.5501 6.16526 51.54C6.15126 51.8615 6.13726 52.1769 6.12526 52.4862C6.11325 52.7956 6.10725 53.111 6.10725 53.4324V54.69C6.10725 55.0114 6.10725 55.3288 6.12526 55.6402C6.14326 55.9515 6.15126 56.2589 6.16526 56.5602C6.05324 56.5502 5.93522 56.5462 5.80919 56.5462C5.68317 56.5462 5.56515 56.5462 5.45312 56.5602C5.46713 56.2589 5.48113 55.9576 5.49313 55.6402C5.50514 55.3228 5.51114 55.0114 5.51114 54.69V53.4324C5.51114 53.111 5.50514 52.7956 5.49313 52.4862Z" fill="#1E1E1E"></path><path d="M8.43726 51.9193H8.03718C7.89915 51.9193 7.76113 51.9193 7.6231 51.9334L7.22302 51.9595C7.095 51.9696 6.97897 51.9816 6.87695 51.9957C6.89917 51.9199 6.91128 51.8416 6.91296 51.7626C6.90949 51.6859 6.89741 51.6097 6.87695 51.5356L7.81514 51.5618C8.1192 51.5618 8.43326 51.5718 8.75332 51.5718C9.07338 51.5718 9.38745 51.5718 9.6915 51.5618C9.99556 51.5517 10.3096 51.5457 10.6297 51.5356C10.6089 51.6117 10.5968 51.6899 10.5937 51.7687C10.5957 51.8456 10.6078 51.9219 10.6297 51.9957C10.5277 51.9816 10.4116 51.9696 10.2836 51.9595L9.88354 51.9334C9.74552 51.9334 9.60749 51.9214 9.46946 51.9193H9.06938C9.05605 52.4216 9.04871 52.9258 9.04738 53.432V54.6896C9.04738 55.011 9.04738 55.3284 9.06538 55.6398C9.08339 55.9512 9.09139 56.2585 9.10539 56.5599C8.99337 56.5498 8.87535 56.5458 8.74932 56.5458C8.6233 56.5458 8.50527 56.5458 8.39325 56.5599C8.40725 56.2585 8.42126 55.9572 8.43326 55.6398C8.44526 55.3224 8.45126 55.011 8.45126 54.6896V53.432C8.4566 52.9258 8.45193 52.4216 8.43726 51.9193Z" fill="#1E1E1E"></path><path d="M12.4085 54.1453C12.3145 53.9866 12.2085 53.8119 12.0965 53.619L11.3763 52.4137C11.2623 52.2128 11.1583 52.0481 11.0663 51.8954L10.8662 51.5479L11.0663 51.574C11.1327 51.5814 11.1995 51.5847 11.2663 51.584C11.3343 51.584 11.4003 51.584 11.4663 51.574L11.6664 51.5479C11.8837 51.9724 12.1058 52.3889 12.3325 52.7974C12.5592 53.2058 12.7979 53.6324 13.0486 54.077C13.1607 53.9023 13.2767 53.7094 13.3987 53.4985C13.5207 53.2875 13.6408 53.0746 13.7628 52.8556C13.8848 52.6367 14.0008 52.4157 14.1128 52.1947C14.2249 51.9737 14.3289 51.7568 14.4249 51.5479C14.6112 51.5961 14.8067 51.5961 14.993 51.5479C14.761 51.9034 14.5509 52.2248 14.3669 52.5121C14.1829 52.7994 14.0208 53.0605 13.8788 53.2936C13.7368 53.5266 13.6147 53.7375 13.5067 53.9264C13.3987 54.1152 13.3067 54.2839 13.2307 54.4346V55.0112C13.2307 55.0112 13.2307 55.4129 13.2307 55.6138C13.2307 55.8147 13.2407 55.9935 13.2487 56.1623C13.2567 56.331 13.2647 56.4656 13.2747 56.564C13.1627 56.554 13.0446 56.55 12.9186 56.55C12.7926 56.55 12.6726 56.55 12.5625 56.564C12.5952 56.2584 12.6119 55.9513 12.6126 55.644V54.511L12.4085 54.1453Z" fill="#1E1E1E"></path><path d="M21.4885 52.3151C21.4895 52.0562 21.4775 51.7974 21.4525 51.5397L21.6045 51.5658C21.6528 51.5732 21.7017 51.5765 21.7505 51.5759C21.8245 51.5742 21.898 51.562 21.9686 51.5397C21.9546 51.7105 21.9386 51.9134 21.9246 52.1424C21.9106 52.3714 21.8986 52.6325 21.8886 52.9017C21.8786 53.1709 21.8686 53.4502 21.8586 53.7354C21.8486 54.0207 21.8426 54.2979 21.8365 54.5651C21.8372 54.8642 21.7865 55.1612 21.6865 55.443C21.6017 55.6883 21.4652 55.9123 21.2864 56.0999C21.1051 56.2815 20.8848 56.4189 20.6423 56.5017C20.3604 56.5984 20.064 56.6453 19.7661 56.6403C19.038 56.6403 18.5092 56.4749 18.1798 56.1441C17.8504 55.8133 17.6857 55.2896 17.6857 54.5731C17.6857 54.3441 17.6857 54.1412 17.7037 53.9705C17.7217 53.7997 17.7217 53.6109 17.7217 53.4261C17.7217 53.0243 17.7217 52.6546 17.7077 52.3372C17.6937 52.0198 17.6877 51.7527 17.6777 51.5337C17.7357 51.5437 17.7998 51.5518 17.8678 51.5598C17.9344 51.564 18.0012 51.564 18.0678 51.5598C18.1198 51.5629 18.1719 51.5629 18.2238 51.5598C18.2739 51.5598 18.3279 51.5437 18.3799 51.5337C18.3799 51.6402 18.3599 51.7808 18.3499 51.9536C18.3399 52.1263 18.3299 52.3232 18.3199 52.5422C18.3099 52.7611 18.3039 52.9982 18.2979 53.2513C18.2919 53.5044 18.2979 53.7676 18.2979 54.0408C18.2979 54.2075 18.2979 54.3783 18.2979 54.5571C18.303 54.7307 18.3197 54.9039 18.3479 55.0754C18.3757 55.2412 18.4233 55.4031 18.4899 55.5575C18.5545 55.7094 18.6499 55.8462 18.7699 55.9593C18.8971 56.0837 19.0482 56.1807 19.214 56.2445C19.4349 56.316 19.6662 56.3493 19.8982 56.343C20.1284 56.3499 20.3576 56.3103 20.5723 56.2264C20.7417 56.157 20.8944 56.0523 21.0204 55.9191C21.1375 55.7915 21.2298 55.6429 21.2924 55.4811C21.3582 55.314 21.4058 55.1402 21.4345 54.9629C21.464 54.7842 21.4807 54.6036 21.4845 54.4225C21.4845 54.2417 21.4845 54.0769 21.4845 53.9263C21.4965 53.2312 21.4925 52.6908 21.4885 52.3151Z" fill="#1E1E1E"></path><path d="M25.5955 54.6657C24.966 53.9867 24.3353 53.3104 23.7031 52.6368C23.7031 52.7734 23.7031 52.9562 23.6891 53.1852C23.6751 53.4142 23.6891 53.7256 23.6891 54.1213C23.6891 54.2238 23.6891 54.3503 23.6891 54.501C23.6891 54.6517 23.6891 54.8104 23.6891 54.9771C23.6891 55.1438 23.6891 55.3106 23.6891 55.4813C23.6891 55.6521 23.6891 55.8108 23.7031 55.9574C23.7171 56.1041 23.7131 56.2306 23.7171 56.3411C23.7211 56.4516 23.7171 56.5259 23.7311 56.5641C23.6468 56.554 23.562 56.5493 23.4771 56.55C23.3869 56.5494 23.2967 56.554 23.207 56.5641C23.207 56.5159 23.227 56.4255 23.239 56.2929C23.251 56.1603 23.263 56.0036 23.271 55.8208C23.279 55.638 23.291 55.4391 23.3031 55.2182C23.3151 54.9972 23.3251 54.7903 23.3331 54.5753C23.3411 54.3604 23.3471 54.1514 23.3511 53.9465C23.3551 53.7416 23.3511 53.5588 23.3511 53.3981C23.3511 52.9294 23.3511 52.5276 23.3511 52.1928C23.3511 51.858 23.3451 51.6069 23.3331 51.4395H23.4491L24.3993 52.474C24.738 52.8423 25.0714 53.2053 25.3995 53.5628L26.3456 54.5793C26.6437 54.8987 26.9058 55.1699 27.1278 55.3949V54.4005C27.1278 53.8876 27.1278 53.3894 27.1278 52.9059C27.1278 52.4218 27.1038 51.9638 27.0798 51.5359C27.1608 51.5578 27.244 51.5699 27.3278 51.572C27.4063 51.5691 27.4842 51.5569 27.5599 51.5359C27.5499 51.6424 27.5399 51.8031 27.5279 52.018C27.5159 52.233 27.5039 52.462 27.4919 52.7051C27.4799 52.9481 27.4679 53.1872 27.4599 53.4222C27.4519 53.6573 27.4459 53.8441 27.4459 53.9847V54.4367C27.4459 54.6014 27.4459 54.7762 27.4459 54.955C27.4459 55.1338 27.4459 55.3166 27.4459 55.4994C27.4459 55.6822 27.4459 55.853 27.4459 56.0117C27.4459 56.1704 27.4459 56.307 27.4459 56.4255V56.6666H27.3438C26.8091 56.0117 26.2263 55.3447 25.5955 54.6657Z" fill="#1E1E1E"></path><path d="M28.8359 52.4862C28.8239 52.1769 28.8099 51.8615 28.7959 51.54L28.9779 51.5662C29.0356 51.5735 29.0938 51.5769 29.152 51.5762C29.2101 51.5759 29.2682 51.5725 29.326 51.5662C29.384 51.5662 29.444 51.5501 29.508 51.54C29.494 51.8615 29.48 52.1769 29.468 52.4862C29.456 52.7956 29.45 53.111 29.45 53.4324V54.69C29.45 55.0114 29.45 55.3288 29.468 55.6402C29.486 55.9515 29.494 56.2589 29.508 56.5602C29.396 56.5502 29.278 56.5462 29.152 56.5462C29.0259 56.5462 28.9079 56.5462 28.7959 56.5602C28.8099 56.2589 28.8239 55.9576 28.8359 55.6402C28.8479 55.3228 28.8539 55.0114 28.8539 54.69V53.4324C28.8539 53.111 28.8479 52.7956 28.8359 52.4862Z" fill="#1E1E1E"></path><path d="M31.8245 55.5237C31.6644 55.1219 31.4924 54.692 31.3124 54.244C31.1323 53.796 30.9443 53.338 30.7523 52.8699C30.5602 52.4019 30.3782 51.9579 30.2021 51.54L30.4022 51.5662C30.4626 51.5734 30.5234 51.5768 30.5842 51.5762C30.6422 51.5762 30.7022 51.5762 30.7663 51.5662C30.8303 51.5561 30.8943 51.5501 30.9663 51.54C31.073 51.8615 31.191 52.1963 31.3204 52.5445C31.4497 52.8927 31.5831 53.2523 31.7204 53.6233C31.8645 53.9889 32.0112 54.3592 32.1605 54.7342C32.3106 55.1098 32.4646 55.4815 32.6186 55.8531C32.7066 55.6522 32.8007 55.4312 32.9027 55.1842C33.0047 54.9371 33.1027 54.6819 33.2127 54.4168C33.3228 54.1516 33.4128 53.8804 33.5228 53.6132L33.8169 52.8297C33.9109 52.5766 33.9969 52.3396 34.0749 52.1206C34.1529 51.9016 34.2169 51.7188 34.2749 51.5501C34.3634 51.5719 34.4539 51.5841 34.545 51.5862C34.636 51.5838 34.7266 51.5717 34.8151 51.5501C34.4376 52.3978 34.0736 53.2382 33.7228 54.0712C33.3721 54.9042 33.0387 55.7373 32.7226 56.5703C32.643 56.5605 32.5628 56.5558 32.4826 56.5562C32.4023 56.5548 32.3221 56.5595 32.2425 56.5703C32.1239 56.2783 31.9845 55.9294 31.8245 55.5237Z" fill="#1E1E1E"></path><path d="M35.539 52.4762C35.527 52.1648 35.513 51.8534 35.499 51.54L36.1512 51.5662C36.3672 51.5662 36.5852 51.5762 36.8033 51.5762C37.0213 51.5762 37.2374 51.5762 37.4514 51.5662C37.6655 51.5561 37.8815 51.5501 38.0995 51.54C38.0702 51.6845 38.0702 51.8335 38.0995 51.978L37.6735 51.9478L37.2734 51.9177C37.1293 51.9177 36.9733 51.8996 36.8033 51.8916C36.6332 51.8836 36.4292 51.8816 36.1912 51.8816C36.1912 52.0382 36.1852 52.1869 36.1732 52.3275C36.1732 52.4681 36.1632 52.6289 36.1632 52.8097C36.1632 52.9905 36.1632 53.1853 36.1632 53.3661C36.1632 53.5469 36.1632 53.6835 36.1632 53.7679H36.7393C36.7393 53.7679 37.0633 53.7578 37.2054 53.7498L37.6054 53.7277L37.9435 53.7016C37.929 53.7764 37.9216 53.8524 37.9215 53.9286C37.9219 54.0021 37.9293 54.0754 37.9435 54.1476C37.8175 54.1335 37.6715 54.1215 37.5034 54.1114C37.3354 54.1014 37.1694 54.0953 37.0013 54.0933H36.5272H36.1752V54.236C36.1752 54.236 36.1752 54.3525 36.1752 54.4368V55.16V55.8471C36.1752 55.8471 36.1752 56.1645 36.1852 56.2489H36.6953H37.2374C37.2374 56.2489 37.5814 56.2328 37.7395 56.2187C37.8777 56.2082 38.0153 56.1901 38.1515 56.1645C38.1412 56.2012 38.1351 56.2389 38.1335 56.277V56.3895C38.1322 56.4538 38.1396 56.518 38.1555 56.5803C37.9375 56.5703 37.7195 56.5663 37.5034 56.5663H36.1832C35.9651 56.5663 35.7431 56.5663 35.521 56.5803C35.535 56.269 35.549 55.9576 35.561 55.6482C35.573 55.3388 35.579 55.0234 35.579 54.702V53.4324C35.559 53.105 35.551 52.7876 35.539 52.4762Z" fill="#1E1E1E"></path><path d="M39.0918 52.4862C39.0798 52.1769 39.0658 51.8615 39.0518 51.54L39.4658 51.5662C39.5999 51.5662 39.7399 51.5762 39.8799 51.5762C40.0199 51.5762 40.158 51.5762 40.294 51.5581C40.43 51.5401 40.5681 51.54 40.7081 51.54C40.9036 51.5395 41.0986 51.559 41.2902 51.5983C41.4625 51.6349 41.6266 51.703 41.7743 51.7992C41.911 51.8881 42.0237 52.0096 42.1024 52.1528C42.1876 52.3225 42.2289 52.5111 42.2224 52.7012C42.2283 52.9129 42.1742 53.1219 42.0663 53.3038C41.9676 53.4665 41.8378 53.6078 41.6843 53.7197C41.5365 53.8285 41.3733 53.9145 41.2002 53.9748C41.0477 54.0302 40.8903 54.0706 40.7301 54.0953L40.9701 54.4027C41.0722 54.5353 41.1862 54.6799 41.3122 54.8386C41.4382 54.9973 41.5703 55.1621 41.7123 55.3348C41.8543 55.5076 41.9783 55.6743 42.1124 55.831C42.2464 55.9877 42.3564 56.1344 42.4684 56.2669C42.5805 56.3995 42.6685 56.498 42.7385 56.5663C42.6662 56.5566 42.5934 56.5519 42.5204 56.5522H42.0924C42.0214 56.5518 41.9506 56.5565 41.8803 56.5663C41.8083 56.4638 41.6963 56.3111 41.5482 56.1062C41.4002 55.9013 41.2362 55.6824 41.0561 55.4493C40.8761 55.2163 40.6941 54.9833 40.506 54.7502C40.318 54.5172 40.148 54.3224 39.9919 54.1616H39.7159V54.696C39.7159 55.0174 39.7159 55.3348 39.7339 55.6462C39.7519 55.9576 39.7599 56.2649 39.7739 56.5663C39.6619 56.5562 39.5439 56.5522 39.4178 56.5522C39.2918 56.5522 39.1738 56.5522 39.0618 56.5663C39.0758 56.2649 39.0898 55.9636 39.1018 55.6462C39.1138 55.3288 39.1198 55.0174 39.1198 54.696V53.4324C39.1098 53.111 39.1038 52.7956 39.0918 52.4862ZM39.9299 53.8784C40.0099 53.8784 40.098 53.8784 40.196 53.8784C40.354 53.8778 40.5115 53.861 40.6661 53.8282C40.8246 53.795 40.9762 53.7345 41.1142 53.6494C41.2515 53.5623 41.3672 53.4448 41.4522 53.3059C41.5475 53.1408 41.594 52.952 41.5863 52.7615C41.5922 52.5975 41.5556 52.4349 41.4802 52.2894C41.4145 52.1698 41.3203 52.0683 41.2062 51.9941C41.0951 51.9218 40.9716 51.8707 40.8421 51.8434C40.715 51.8173 40.5857 51.8039 40.456 51.8032C40.286 51.8032 40.146 51.8032 40.0339 51.8133C39.9219 51.8233 39.8339 51.8293 39.7499 51.8394C39.7499 52.1066 39.7299 52.3737 39.7199 52.6429C39.7099 52.9121 39.7059 53.1693 39.7059 53.4324V53.8483C39.7797 53.8641 39.8546 53.8742 39.9299 53.8784Z" fill="#1E1E1E"></path><path d="M43.4665 55.8792C43.6102 56.0752 43.8097 56.223 44.0386 56.303C44.1741 56.3513 44.317 56.3751 44.4607 56.3734C44.6097 56.3755 44.7574 56.3467 44.8948 56.289C45.0185 56.2367 45.1301 56.1594 45.2229 56.062C45.3108 55.9644 45.3788 55.8504 45.4229 55.7265C45.4716 55.594 45.496 55.4538 45.4949 55.3127C45.5049 55.1194 45.4437 54.9291 45.3229 54.7783C45.2034 54.6419 45.0587 54.53 44.8968 54.4488C44.7188 54.3567 44.5351 54.2761 44.3467 54.2078C44.1537 54.1368 43.9692 54.0445 43.7966 53.9326C43.6269 53.8241 43.4817 53.681 43.3705 53.5127C43.2473 53.3071 43.1874 53.0694 43.1985 52.8297C43.1954 52.6378 43.2329 52.4475 43.3085 52.2712C43.3812 52.1047 43.4891 51.9559 43.6246 51.8353C43.7705 51.7085 43.9397 51.6116 44.1227 51.55C44.334 51.4789 44.5559 51.4442 44.7788 51.4476C44.982 51.444 45.1845 51.4724 45.3789 51.5319C45.551 51.5893 45.7116 51.6771 45.853 51.7911C45.8086 51.8754 45.7718 51.9634 45.743 52.0543C45.7077 52.1699 45.6783 52.2872 45.655 52.4058H45.5669C45.5388 52.3296 45.5061 52.2551 45.4689 52.1828C45.4258 52.0996 45.3689 52.0242 45.3009 51.9598C45.2265 51.8892 45.1414 51.8309 45.0488 51.7871C44.9391 51.737 44.8193 51.7129 44.6988 51.7168C44.5711 51.7153 44.4442 51.7378 44.3247 51.7831C44.214 51.8249 44.1127 51.8884 44.0266 51.9699C43.9402 52.0509 43.872 52.1495 43.8266 52.2592C43.7796 52.3752 43.7558 52.4995 43.7566 52.6248C43.7466 52.8199 43.8078 53.012 43.9286 53.1652C44.0492 53.3015 44.1936 53.4145 44.3547 53.4986C44.5319 53.5925 44.7158 53.6731 44.9048 53.7397C45.0962 53.8077 45.2805 53.8945 45.4549 53.9989C45.623 54.1018 45.7681 54.2386 45.881 54.4006C46.0032 54.5918 46.0627 54.8166 46.051 55.0435C46.0522 55.2615 46.0115 55.4778 45.931 55.6803C45.8532 55.8777 45.7338 56.0559 45.5809 56.2026C45.4208 56.3559 45.2298 56.473 45.0208 56.5461C44.7784 56.6301 44.5231 56.6709 44.2667 56.6666C44.0171 56.6754 43.7683 56.6345 43.5345 56.5461C43.3666 56.4761 43.2086 56.3842 43.0645 56.2729C43.1043 56.175 43.1345 56.0734 43.1545 55.9696C43.1705 55.8792 43.1865 55.7687 43.2025 55.622H43.2905C43.341 55.7131 43.4 55.7992 43.4665 55.8792Z" fill="#1E1E1E"></path><path d="M46.999 52.4862C46.987 52.1769 46.973 51.8615 46.959 51.54L47.141 51.5662C47.1987 51.5735 47.2569 51.5769 47.3151 51.5762C47.3732 51.5759 47.4313 51.5725 47.4891 51.5662C47.5471 51.5662 47.6071 51.5501 47.6711 51.54C47.6571 51.8615 47.6431 52.1769 47.6311 52.4862C47.6191 52.7956 47.6131 53.111 47.6131 53.4324V54.69C47.6131 55.0114 47.6131 55.3288 47.6311 55.6402C47.6491 55.9515 47.6571 56.2589 47.6711 56.5602C47.5591 56.5502 47.4411 56.5462 47.3151 56.5462C47.189 56.5462 47.071 56.5462 46.959 56.5602C46.973 56.2589 46.987 55.9576 46.999 55.6402C47.011 55.3228 47.017 55.0114 47.017 54.69V53.4324C47.0197 53.111 47.0137 52.7956 46.999 52.4862Z" fill="#1E1E1E"></path><path d="M49.8894 51.9193H49.4893C49.3513 51.9193 49.2133 51.9193 49.0753 51.9334L48.6752 51.9595C48.5471 51.9696 48.4311 51.9816 48.3291 51.9957C48.3513 51.9199 48.3634 51.8416 48.3651 51.7626C48.3616 51.6859 48.3496 51.6097 48.3291 51.5356L49.2673 51.5618C49.5713 51.5618 49.8854 51.5718 50.2055 51.5718C50.5255 51.5718 50.8396 51.5718 51.1437 51.5618C51.4477 51.5517 51.7618 51.5457 52.0818 51.5356C52.061 51.6117 52.0489 51.6899 52.0458 51.7687C52.0479 51.8456 52.06 51.9219 52.0818 51.9957C51.9798 51.9816 51.8638 51.9696 51.7358 51.9595L51.3357 51.9334C51.1977 51.9334 51.0596 51.9214 50.9216 51.9193H50.5215C50.5082 52.4216 50.5009 52.9258 50.4995 53.432V54.6896C50.4995 55.011 50.4995 55.3284 50.5175 55.6398C50.5355 55.9512 50.5435 56.2585 50.5575 56.5599C50.4455 56.5498 50.3275 56.5458 50.2015 56.5458C50.0754 56.5458 49.9574 56.5458 49.8454 56.5599C49.8594 56.2585 49.8734 55.9572 49.8854 55.6398C49.8974 55.3224 49.9034 55.011 49.9034 54.6896V53.432C49.9087 52.9258 49.9041 52.4216 49.8894 51.9193Z" fill="#1E1E1E"></path><path d="M53.9547 54.1456C53.8607 53.9869 53.7547 53.8121 53.6426 53.6192L52.9225 52.4139C52.8085 52.213 52.7044 52.0483 52.6124 51.8956L52.4004 51.54L52.6004 51.5662C52.6668 51.5736 52.7336 51.5769 52.8005 51.5762C52.8685 51.5762 52.9345 51.5762 53.0005 51.5662L53.2005 51.54C53.4193 51.9646 53.6413 52.3811 53.8667 52.7896C54.0921 53.198 54.3308 53.6246 54.5828 54.0692C54.6948 53.8945 54.8109 53.7016 54.9329 53.4907C55.0549 53.2797 55.1749 53.0668 55.297 52.8478C55.419 52.6289 55.535 52.4079 55.647 52.1869C55.7591 51.9659 55.8631 51.749 55.9591 51.54C56.1454 51.5883 56.3409 51.5883 56.5272 51.54C56.2952 51.8956 56.0851 52.217 55.9011 52.5043C55.717 52.7916 55.555 53.0527 55.413 53.2858C55.271 53.5188 55.1489 53.7297 55.0409 53.9186C54.9329 54.1074 54.8409 54.2761 54.7649 54.4268V55.0034C54.7649 55.0034 54.7649 55.4051 54.7649 55.606C54.7649 55.8069 54.7749 55.9857 54.7829 56.1544C54.7909 56.3232 54.7989 56.4578 54.8089 56.5562C54.6968 56.5462 54.5788 56.5422 54.4528 56.5422C54.3268 56.5422 54.2067 56.5422 54.0967 56.5562C54.1293 56.2506 54.146 55.9435 54.1467 55.6362V54.5031L53.9547 54.1456Z" fill="#1E1E1E"></path><path d="M59.0431 52.9543C59.1682 52.6429 59.3593 52.3625 59.6032 52.1327C59.8521 51.9037 60.1457 51.7292 60.4654 51.6204C61.1807 51.3882 61.9506 51.3882 62.6658 51.6204C62.9859 51.7284 63.2797 51.903 63.528 52.1327C63.7715 52.3629 63.9625 52.6431 64.0881 52.9543C64.3538 53.6668 64.3538 54.4517 64.0881 55.1641C63.9631 55.4756 63.7719 55.756 63.528 55.9857C63.2811 56.2145 62.9866 56.3854 62.6658 56.486C62.308 56.5986 61.9347 56.6542 61.5596 56.6507C61.1872 56.6549 60.8164 56.5993 60.4614 56.486C60.1414 56.3838 59.8472 56.2132 59.5992 55.9857C59.3551 55.7561 59.164 55.4757 59.0391 55.1641C58.7734 54.4517 58.7734 53.6668 59.0391 52.9543H59.0431ZM63.428 53.0126C63.3397 52.741 63.1944 52.4917 63.0019 52.2814C62.8239 52.0915 62.6049 51.9451 62.3618 51.8535C61.849 51.6687 61.2882 51.6687 60.7755 51.8535C60.5321 51.9446 60.313 52.091 60.1354 52.2814C59.9428 52.4917 59.7975 52.741 59.7093 53.0126C59.5066 53.6969 59.5066 54.4256 59.7093 55.1099C59.7975 55.3814 59.9428 55.6308 60.1354 55.8411C60.3133 56.031 60.5323 56.1774 60.7755 56.269C61.2882 56.4538 61.849 56.4538 62.3618 56.269C62.6047 56.178 62.8237 56.0323 63.0019 55.8431C63.1944 55.6328 63.3397 55.3834 63.428 55.1119C63.6307 54.4276 63.6307 53.6989 63.428 53.0146V53.0126Z" fill="#1E1E1E"></path><path d="M65.2031 52.4862C65.1911 52.1769 65.1771 51.8615 65.1631 51.54L65.8153 51.5662C66.0313 51.5662 66.2493 51.5762 66.4674 51.5762C66.6854 51.5762 66.9075 51.5762 67.1295 51.5662L67.8577 51.54C67.8283 51.6845 67.8283 51.8335 67.8577 51.978C67.7256 51.9639 67.5696 51.9499 67.3836 51.9378C67.1975 51.9257 67.0115 51.9157 66.8195 51.9077L66.2653 51.8896C66.0873 51.8896 65.9413 51.8896 65.8253 51.8896C65.8253 52.0603 65.8253 52.2231 65.8153 52.3798C65.8053 52.5364 65.8153 52.6911 65.8153 52.8478C65.8153 53.0045 65.8153 53.1753 65.8153 53.3199C65.8153 53.4646 65.8153 53.6132 65.8153 53.7699C66.1353 53.7699 66.4514 53.7699 66.7654 53.7558C67.0795 53.7418 67.3876 53.7257 67.6936 53.6976C67.6533 53.8407 67.6533 53.9924 67.6936 54.1355C67.5716 54.1215 67.4356 54.1094 67.2815 54.1034C67.1275 54.0973 66.9695 54.0893 66.8055 54.0853C66.6414 54.0813 66.4734 54.0853 66.3034 54.0853H65.8153V54.706C65.8153 55.0275 65.8153 55.3449 65.8333 55.6562C65.8513 55.9676 65.8593 56.275 65.8733 56.5763C65.7613 56.5663 65.6432 56.5622 65.5172 56.5622C65.3912 56.5622 65.2732 56.5622 65.1611 56.5763C65.1751 56.275 65.1891 55.9736 65.2011 55.6562C65.2131 55.3388 65.2191 55.0275 65.2191 54.706V53.4324C65.2271 53.111 65.2211 52.7956 65.2031 52.4862Z" fill="#1E1E1E"></path><path d="M70.6956 52.4862C70.6836 52.1769 70.6696 51.8615 70.6556 51.54L70.8376 51.5662C70.8953 51.5735 70.9535 51.5769 71.0116 51.5762C71.0698 51.5759 71.1279 51.5725 71.1857 51.5662C71.2437 51.5662 71.3037 51.5501 71.3677 51.54C71.3537 51.8615 71.3397 52.1769 71.3277 52.4862C71.3157 52.7956 71.3097 53.111 71.3097 53.4324C71.3097 54.0471 71.3097 54.5795 71.3097 55.0295C71.3097 55.4795 71.3197 55.8832 71.3237 56.2348C71.6678 56.2348 71.9978 56.2348 72.3139 56.2248C72.6545 56.2147 72.9944 56.1865 73.3321 56.1404C73.3107 56.2115 73.2986 56.2851 73.2961 56.3593C73.298 56.4277 73.3102 56.4954 73.3321 56.5602C73.108 56.5502 72.886 56.5462 72.6619 56.5462H71.3177C71.1016 56.5462 70.8776 56.5462 70.6436 56.5602C70.6576 56.2589 70.6716 55.9576 70.6836 55.6402C70.6956 55.3228 70.7016 55.0114 70.7016 54.69V53.4324C70.7136 53.111 70.7076 52.7956 70.6956 52.4862Z" fill="#1E1E1E"></path><path d="M74.059 52.9543C74.1841 52.6429 74.3752 52.3625 74.6191 52.1327C74.868 51.9037 75.1616 51.7292 75.4813 51.6204C76.1965 51.3882 76.9665 51.3882 77.6817 51.6204C78.0018 51.7284 78.2956 51.903 78.5439 52.1327C78.7874 52.3629 78.9784 52.6431 79.104 52.9543C79.3697 53.6668 79.3697 54.4517 79.104 55.1641C78.9789 55.4756 78.7878 55.756 78.5439 55.9857C78.2969 56.2145 78.0024 56.3854 77.6817 56.486C77.3238 56.5986 76.9505 56.6542 76.5755 56.6507C76.203 56.6549 75.8323 56.5993 75.4773 56.486C75.1572 56.3838 74.8631 56.2132 74.6151 55.9857C74.371 55.7561 74.1798 55.4757 74.055 55.1641C73.9161 54.8121 73.8481 54.4358 73.855 54.0572C73.8508 53.6798 73.9201 53.3051 74.059 52.9543ZM78.4459 53.0126C78.3576 52.741 78.2123 52.4917 78.0198 52.2814C77.8418 52.0915 77.6228 51.9451 77.3797 51.8535C76.8669 51.6687 76.3061 51.6687 75.7933 51.8535C75.5499 51.9446 75.3308 52.091 75.1532 52.2814C74.9607 52.4917 74.8154 52.741 74.7271 53.0126C74.5245 53.6969 74.5245 54.4256 74.7271 55.1099C74.8154 55.3814 74.9607 55.6308 75.1532 55.8411C75.3312 56.031 75.5502 56.1774 75.7933 56.269C76.3061 56.4538 76.8669 56.4538 77.3797 56.269C77.6228 56.1774 77.8418 56.031 78.0198 55.8411C78.2123 55.6308 78.3576 55.3814 78.4459 55.1099C78.6485 54.4256 78.6485 53.6969 78.4459 53.0126Z" fill="#1E1E1E"></path><path d="M82.5562 54.6657C81.9267 53.9867 81.296 53.3104 80.6638 52.6368C80.6638 52.7734 80.6538 52.9562 80.6498 53.1852C80.6458 53.4142 80.6498 53.7256 80.6498 54.1213C80.6498 54.2238 80.6498 54.3503 80.6498 54.501C80.6498 54.6517 80.6498 54.8104 80.6498 54.9771C80.6498 55.1438 80.6498 55.3106 80.6598 55.4813C80.6698 55.6521 80.6598 55.8108 80.6738 55.9574C80.6878 56.1041 80.6838 56.2306 80.6878 56.3411C80.6918 56.4516 80.6978 56.5259 80.7018 56.5641C80.6175 56.554 80.5327 56.5493 80.4478 56.55C80.3576 56.5494 80.2674 56.554 80.1777 56.5641C80.1877 56.5159 80.1977 56.4255 80.2097 56.2929C80.2217 56.1603 80.2337 56.0036 80.2417 55.8208C80.2497 55.638 80.2618 55.4391 80.2738 55.2182C80.2858 54.9972 80.2958 54.7903 80.3038 54.5753C80.3118 54.3604 80.3178 54.1514 80.3218 53.9465C80.3258 53.7416 80.3218 53.5588 80.3218 53.3981C80.3218 52.9294 80.3218 52.5276 80.3218 52.1928C80.3218 51.858 80.3158 51.6069 80.3038 51.4395H80.4198L81.37 52.474C81.7074 52.8423 82.0408 53.2053 82.3702 53.5628L83.3164 54.5793C83.6144 54.8987 83.8765 55.1699 84.0985 55.3949V54.4005C84.0985 53.8876 84.0985 53.3894 84.0985 52.9059C84.0985 52.4218 84.0745 51.9638 84.0505 51.5359C84.1315 51.5578 84.2147 51.5699 84.2985 51.572C84.377 51.5691 84.4549 51.5569 84.5306 51.5359C84.5206 51.6424 84.5106 51.8031 84.4986 52.018C84.4866 52.233 84.4746 52.462 84.4626 52.7051C84.4506 52.9481 84.4386 53.1872 84.4306 53.4222C84.4226 53.6573 84.4166 53.8441 84.4166 53.9847V54.4367C84.4166 54.6014 84.4166 54.7762 84.4166 54.955C84.4166 55.1338 84.4166 55.3166 84.4166 55.4994C84.4166 55.6822 84.4166 55.853 84.4166 56.0117C84.4166 56.1704 84.4166 56.307 84.4166 56.4255V56.6666H84.3146C83.7744 56.0117 83.1883 55.3447 82.5562 54.6657Z" fill="#1E1E1E"></path><path d="M85.8066 52.4861C85.7946 52.1767 85.7806 51.8613 85.7666 51.5399L86.3167 51.566C86.4987 51.566 86.6808 51.5761 86.8668 51.5761C87.0529 51.5761 87.2349 51.5761 87.4169 51.558C87.599 51.5399 87.783 51.5399 87.967 51.5399C88.3395 51.5313 88.7105 51.5884 89.0633 51.7087C89.3451 51.8075 89.6 51.9712 89.8074 52.1868C90.0066 52.4029 90.1526 52.663 90.2335 52.9461C90.3264 53.2726 90.3716 53.611 90.3675 53.9506C90.3809 54.3752 90.2946 54.7971 90.1155 55.182C89.9636 55.494 89.745 55.7683 89.4753 55.9856C89.2212 56.1871 88.9294 56.3353 88.6172 56.4215C88.3247 56.5037 88.0227 56.5469 87.719 56.5501C87.553 56.5501 87.3909 56.5501 87.2309 56.5501C87.0709 56.5501 86.9088 56.5501 86.7428 56.5501H86.2547C86.0947 56.5501 85.9326 56.5501 85.7666 56.5641C85.7806 56.2628 85.7946 55.9615 85.8066 55.6441C85.8186 55.3267 85.8246 55.0153 85.8246 54.6939V53.4323C85.8186 53.1109 85.8066 52.7955 85.8066 52.4861ZM86.4667 56.2407C86.6032 56.2695 86.7416 56.2876 86.8808 56.2949C87.0549 56.307 87.2349 56.313 87.4189 56.313C87.6884 56.3124 87.9568 56.2807 88.2191 56.2186C88.4824 56.1573 88.7277 56.0349 88.9352 55.861C89.1617 55.6658 89.3386 55.4193 89.4513 55.1418C89.702 54.4236 89.7175 53.6437 89.4953 52.916C89.4076 52.6679 89.2598 52.4456 89.0653 52.2691C88.8774 52.1083 88.6537 51.9953 88.4131 51.9397C88.1409 51.8771 87.8622 51.8468 87.583 51.8493C87.3649 51.8493 87.1609 51.8493 86.9708 51.8714C86.7808 51.8935 86.6108 51.9035 86.4607 51.9216C86.4467 52.1566 86.4347 52.3997 86.4287 52.6569C86.4227 52.914 86.4067 53.1731 86.4067 53.4323V54.6898C86.4067 55.2162 86.4287 55.7324 86.4587 56.2447L86.4667 56.2407Z" fill="#1E1E1E"></path><path d="M91.1857 52.9542C91.3108 52.6428 91.5019 52.3624 91.7458 52.1326C91.995 51.905 92.2886 51.7319 92.608 51.6244C93.3232 51.3921 94.0932 51.3921 94.8084 51.6244C95.1285 51.7323 95.4223 51.9069 95.6706 52.1366C95.9141 52.3668 96.1051 52.647 96.2307 52.9583C96.4964 53.6707 96.4964 54.4556 96.2307 55.168C96.1056 55.4795 95.9145 55.7599 95.6706 55.9897C95.4236 56.2185 95.1292 56.3893 94.8084 56.4899C94.4505 56.6025 94.0773 56.6581 93.7022 56.6546C93.3297 56.6588 92.959 56.6032 92.604 56.4899C92.2839 56.3877 91.9898 56.2171 91.7418 55.9897C91.4977 55.76 91.3066 55.4796 91.1817 55.168C90.916 54.4556 90.916 53.6707 91.1817 52.9583L91.1857 52.9542ZM95.5706 53.0125C95.4823 52.7409 95.337 52.4915 95.1445 52.2813C94.9665 52.0914 94.7475 51.945 94.5044 51.8534C93.9916 51.6686 93.4308 51.6686 92.9181 51.8534C92.6746 51.9445 92.4555 52.0909 92.2779 52.2813C92.0854 52.4915 91.9401 52.7409 91.8518 53.0125C91.6492 53.6968 91.6492 54.4255 91.8518 55.1098C91.9401 55.3813 92.0854 55.6307 92.2779 55.841C92.4559 56.0309 92.6749 56.1773 92.9181 56.2689C93.4308 56.4537 93.9916 56.4537 94.5044 56.2689C94.7475 56.1773 94.9665 56.0309 95.1445 55.841C95.337 55.6307 95.4823 55.3813 95.5706 55.1098C95.7732 54.4255 95.7732 53.6968 95.5706 53.0125Z" fill="#1E1E1E"></path><path d="M99.6832 54.6657C99.0537 53.9867 98.4229 53.3104 97.7908 52.6368C97.7908 52.7734 97.7808 52.9562 97.7768 53.1852C97.7728 53.4142 97.7768 53.7256 97.7768 54.1213C97.7768 54.2238 97.7768 54.3503 97.7768 54.501C97.7768 54.6517 97.7768 54.8104 97.7768 54.9771C97.7768 55.1438 97.7768 55.3106 97.7868 55.4813C97.7968 55.6521 97.7868 55.8108 97.8008 55.9574C97.8148 56.1041 97.8008 56.2306 97.8148 56.3411C97.8288 56.4516 97.8248 56.5259 97.8288 56.5641C97.7445 56.554 97.6596 56.5493 97.5747 56.55C97.4845 56.5494 97.3943 56.554 97.3047 56.5641C97.3147 56.5159 97.3247 56.4255 97.3367 56.2929C97.3487 56.1603 97.3607 56.0036 97.3687 55.8208C97.3767 55.638 97.3887 55.4391 97.4007 55.2182C97.4127 54.9972 97.4227 54.7903 97.4307 54.5753C97.4387 54.3604 97.4447 54.1514 97.4487 53.9465C97.4527 53.7416 97.4487 53.5588 97.4487 53.3981C97.4487 52.9294 97.4487 52.5276 97.4487 52.1928C97.4487 51.858 97.4427 51.6069 97.4307 51.4395H97.5467L98.4969 52.474C98.8343 52.8423 99.1677 53.2053 99.4971 53.5628L100.443 54.5793C100.741 54.8987 101.003 55.1699 101.225 55.3949V54.4005C101.225 53.8876 101.222 53.3894 101.215 52.9059C101.215 52.4218 101.191 51.9638 101.167 51.5359C101.248 51.5578 101.332 51.5699 101.415 51.572C101.494 51.5691 101.572 51.5569 101.648 51.5359C101.638 51.6424 101.628 51.8031 101.616 52.018C101.604 52.233 101.592 52.462 101.58 52.7051C101.568 52.9481 101.556 53.1872 101.548 53.4222C101.54 53.6573 101.534 53.8441 101.534 53.9847V54.4367C101.534 54.6014 101.534 54.7762 101.534 54.955C101.534 55.1338 101.534 55.3166 101.534 55.4994C101.534 55.6822 101.534 55.853 101.534 56.0117C101.534 56.1704 101.534 56.307 101.534 56.4255V56.6666H101.431C100.898 56.0117 100.315 55.3447 99.6832 54.6657Z" fill="#1E1E1E"></path><path d="M14.3164 56.9998C14.6318 56.6362 14.9062 56.2387 15.1346 55.8146C15.04 55.8203 14.9451 55.8203 14.8505 55.8146C14.7743 55.812 14.6989 55.7985 14.6265 55.7744C14.5725 55.903 14.5085 56.0536 14.4265 56.2304C14.3444 56.4072 14.2624 56.594 14.1684 56.7969L14.1084 56.9255C14.1763 56.9541 14.2458 56.979 14.3164 56.9998Z" fill="#1E1E1E"></path><path d="M101.61 47.6063H0.400078C0.293971 47.6063 0.19221 47.564 0.11718 47.4886C0.042151 47.4133 0 47.3111 0 47.2045C0 47.098 0.042151 46.9958 0.11718 46.9204C0.19221 46.8451 0.293971 46.8027 0.400078 46.8027H101.61C101.716 46.8027 101.818 46.8451 101.893 46.9204C101.968 46.9958 102.01 47.098 102.01 47.2045C102.01 47.3111 101.968 47.4133 101.893 47.4886C101.818 47.564 101.716 47.6063 101.61 47.6063Z" fill="#E30613"></path><path d="M101.61 0.799646H0.400078C0.293971 0.799646 0.19221 0.757316 0.11718 0.681969C0.042151 0.606621 0 0.504428 0 0.39787C0 0.291312 0.042151 0.189119 0.11718 0.113771C0.19221 0.0384236 0.293971 -0.00390625 0.400078 -0.00390625L101.61 -0.00390625C101.716 -0.00390625 101.818 0.0384236 101.893 0.113771C101.968 0.189119 102.01 0.291312 102.01 0.39787C102.01 0.504428 101.968 0.606621 101.893 0.681969C101.818 0.757316 101.716 0.799646 101.61 0.799646Z" fill="#E30613"></path><path d="M0.459695 14.952C0.459695 13.0168 0.436357 11.2978 0.389681 9.79519C0.343006 8.29254 0.276326 6.78387 0.189642 5.26918C0.589721 5.31538 1.0138 5.35757 1.47789 5.39172C1.94199 5.42587 2.46409 5.44395 3.0442 5.44395C4.04173 5.44395 5.08594 5.41516 6.17682 5.35757C7.2677 5.29998 8.3119 5.27052 9.30943 5.26918C10.2701 5.25938 11.2284 5.36526 12.164 5.58457C12.9589 5.76643 13.7141 6.09253 14.3924 6.54683C15.0096 6.97299 15.5048 7.5541 15.8287 8.23228C16.1816 9.00176 16.354 9.84225 16.3328 10.6891C16.3538 11.5497 16.1467 12.4003 15.7327 13.154C15.3648 13.8086 14.8775 14.3879 14.2964 14.8616C13.739 15.309 13.1171 15.6687 12.452 15.9283C11.8706 16.1621 11.2675 16.3377 10.6517 16.4526V16.5229C11.2912 16.5671 11.9228 16.6906 12.5321 16.8906C13.2704 17.1213 13.9663 17.4714 14.5925 17.9271C15.2584 18.4125 15.8203 19.0273 16.2448 19.7351C16.7169 20.5446 16.9519 21.4714 16.9229 22.409C16.9546 23.5193 16.7221 24.6212 16.2448 25.6232C15.821 26.4766 15.2045 27.2189 14.4444 27.7907C13.6688 28.3596 12.7828 28.7586 11.8439 28.9619C10.8498 29.1851 9.83399 29.2962 8.81533 29.2934C7.88182 29.2934 7.01498 29.282 6.21482 29.2592C5.41467 29.2365 4.57317 29.2251 3.69033 29.2251H1.76595C1.23694 29.218 0.707966 29.2415 0.181641 29.2954C0.273659 27.8517 0.340338 26.3785 0.38168 24.8759C0.423021 23.3732 0.446359 21.6543 0.451694 19.7191V14.952H0.459695ZM11.1798 11.3521C11.1799 10.8154 11.1127 10.2808 10.9798 9.76104C10.8651 9.28649 10.6448 8.84419 10.3356 8.46732C10.0219 8.09609 9.63144 7.7979 9.19141 7.59345C8.64271 7.35551 8.04842 7.24232 7.45107 7.26199C6.94163 7.26199 6.58756 7.26801 6.38886 7.28007C6.17246 7.29426 5.95726 7.32312 5.74473 7.36645C5.69939 8.22893 5.66472 9.10279 5.64071 9.98804C5.61671 10.874 5.6067 11.6193 5.6067 12.2259C5.6067 12.8326 5.6067 13.4554 5.62471 14.0339C5.64271 14.6125 5.64271 15.1931 5.64271 15.7997H7.20902C7.70365 15.7987 8.19364 15.704 8.6533 15.5205C9.1272 15.3348 9.55916 15.0554 9.92355 14.6989C10.3152 14.3053 10.6228 13.8357 10.8277 13.3188C11.0737 12.6931 11.1934 12.0246 11.1798 11.3521ZM11.4238 22.642C11.4238 21.0108 11.0584 19.7934 10.3276 18.9898C9.59682 18.1863 8.53528 17.7845 7.143 17.7845C6.81894 17.7845 6.54289 17.7845 6.30684 17.8026C6.0708 17.8207 5.85475 17.8207 5.64471 17.8207C5.64471 18.3108 5.63871 18.8177 5.62671 19.3414C5.61471 19.865 5.6087 20.4885 5.6087 21.2117C5.6087 21.7701 5.6087 22.3427 5.62671 22.9252C5.64471 23.5078 5.64471 24.0783 5.64471 24.6388C5.64471 25.1993 5.64471 25.7116 5.66272 26.1776C5.68072 26.6437 5.68072 27.0294 5.68072 27.3307C6.00478 27.3548 6.30684 27.3709 6.5849 27.3829C6.86295 27.395 7.19902 27.401 7.59509 27.401C8.09943 27.4027 8.59819 27.2951 9.05738 27.0856C9.52716 26.8721 9.94341 26.5556 10.2756 26.1595C10.6421 25.7193 10.9255 25.2155 11.1118 24.673C11.3308 24.0189 11.4364 23.3319 11.4238 22.642Z" fill="#1E1E1E"></path><path d="M42.3322 29.2837C41.7761 29.2381 41.248 29.2147 40.7479 29.2134H37.7973C37.2972 29.2134 36.7971 29.2355 36.317 29.2837C35.945 28.1426 35.5622 26.9775 35.1688 25.7882C34.7754 24.599 34.358 23.4104 33.9166 22.2225C33.1751 22.1997 32.4323 22.1823 31.6881 22.1702C30.944 22.1582 30.2012 22.1521 29.4597 22.1521C28.8596 22.1521 28.2594 22.1521 27.6493 22.1702C27.0392 22.1883 26.4491 22.2004 25.849 22.2225C25.3849 23.4117 24.9555 24.6003 24.5607 25.7882C24.166 26.9761 23.8066 28.1413 23.4825 29.2837C23.2122 29.2378 22.9385 29.2143 22.6643 29.2134H20.994C20.6913 29.2145 20.3891 29.238 20.0898 29.2837C20.3686 28.6797 20.74 27.8406 21.2041 26.7665C21.6682 25.6925 22.1789 24.4804 22.7364 23.1305L24.5367 18.7792C25.1742 17.231 25.8123 15.6641 26.4511 14.0784C27.0899 12.4928 27.7167 10.9312 28.3315 9.39373C28.9449 7.85493 29.5077 6.42193 30.0198 5.09473C30.2518 5.14093 30.4719 5.18111 30.6819 5.21727C30.9008 5.25348 31.1223 5.27096 31.3441 5.2695C31.5624 5.27009 31.7805 5.25329 31.9962 5.21928C32.2062 5.18513 32.4243 5.14294 32.6583 5.09674C33.3998 7.07749 34.1946 9.1982 35.0428 11.4589C35.8909 13.7195 36.7424 15.9387 37.5973 18.1163C38.4548 20.2953 39.2903 22.3631 40.1038 24.3197C40.9173 26.2764 41.6601 27.931 42.3322 29.2837ZM30.0118 11.8486C29.4077 13.2468 28.8389 14.6275 28.3055 15.9909C27.772 17.3543 27.2499 18.7464 26.7391 20.1674H33.1084C32.5976 18.7411 32.0935 17.3462 31.5961 15.9829C31.0987 14.6195 30.5706 13.2414 30.0118 11.8486Z" fill="#1E1E1E"></path><path d="M55.1872 13.4658C55.6513 12.6167 56.104 11.7254 56.5454 10.7919C56.9869 9.85849 57.4163 8.92101 57.8337 7.97951C58.2511 7.04203 58.6572 6.13871 59.0519 5.26953C59.306 5.31574 59.568 5.35792 59.8361 5.39207C60.1074 5.42685 60.3807 5.4443 60.6542 5.4443C60.9278 5.44424 61.2011 5.42679 61.4724 5.39207C61.7385 5.35792 62.0225 5.31574 62.3246 5.26953C61.9245 5.92309 61.4317 6.77954 60.8463 7.83889C60.2608 8.89824 59.6287 10.046 58.9499 11.2821C58.2751 12.5169 57.5963 13.7812 56.9135 15.0749C56.2307 16.3686 55.6099 17.5625 55.0511 18.6567C55.0511 19.2152 55.0391 19.7817 55.0171 20.3522C54.9951 20.9227 54.9831 21.4993 54.9831 22.0819C54.9831 23.2711 55.0005 24.4477 55.0351 25.6115C55.0698 26.7753 55.1685 27.9987 55.3312 29.2817C54.8431 29.2355 54.351 29.2114 53.8509 29.2114H50.8923C50.3922 29.2114 49.8921 29.2335 49.414 29.2817C49.4607 28.2103 49.5421 27.1148 49.6581 25.9952C49.7739 24.8807 49.8319 23.7609 49.8321 22.6403C49.8321 22.104 49.8321 21.5636 49.8141 21.0151C49.7961 20.4667 49.7841 19.9263 49.7621 19.39C49.182 18.2248 48.5152 16.9257 47.7617 15.4927C47.0082 14.0597 46.2748 12.6676 45.5613 11.3163C44.8531 9.96362 44.2037 8.74021 43.6129 7.64604C43.0221 6.55187 42.5867 5.7597 42.3066 5.26953C42.8407 5.31574 43.3628 5.35792 43.8729 5.39207C44.383 5.42622 44.9052 5.4443 45.4393 5.4443C45.9734 5.4443 46.4895 5.42622 46.9876 5.39207C47.4857 5.35792 48.0018 5.31574 48.5359 5.26953C48.9359 6.13201 49.3827 7.08757 49.8761 8.13621C50.3696 9.18484 50.863 10.21 51.3564 11.2118C51.8445 12.2149 52.2973 13.1236 52.7147 13.9379C53.1321 14.7521 53.4688 15.3548 53.7249 15.7458H53.8009C54.259 15.0809 54.7231 14.3175 55.1872 13.4658Z" fill="#1E1E1E"></path><path d="M67.9512 9.79554C67.9046 8.2929 67.8379 6.78423 67.7512 5.26953C68.7954 5.29364 69.8283 5.32846 70.8498 5.37399C71.8714 5.41953 72.9042 5.44296 73.9484 5.4443C75.6648 5.4443 77.1904 5.42689 78.5253 5.39207C79.8603 5.35725 80.7598 5.31641 81.2239 5.26953C81.12 5.75182 81.073 6.24471 81.0838 6.73802C81.0838 7.11168 81.0958 7.40296 81.1178 7.61189C81.1398 7.82081 81.1758 8.05585 81.2219 8.31098C80.5444 8.25875 79.8056 8.21187 79.0054 8.17036C78.2053 8.12884 77.4271 8.08263 76.671 8.03174C75.9175 7.98487 75.2387 7.95005 74.6346 7.92728C74.0344 7.90518 73.6024 7.89313 73.3463 7.89313C73.2543 9.1748 73.2023 10.4471 73.1903 11.71C73.1783 12.9729 73.1723 14.2452 73.1723 15.5269C74.6806 15.5041 76.0442 15.4693 77.2631 15.4224C78.482 15.3755 79.7489 15.3173 81.0638 15.2476C80.9938 15.6494 80.9478 15.9467 80.9238 16.1557C80.8999 16.3765 80.8885 16.5985 80.8898 16.8206C80.8907 17.0139 80.9081 17.2068 80.9418 17.3971C80.9758 17.598 81.0178 17.8813 81.0638 18.2529C78.4193 18.044 75.7855 17.9389 73.1623 17.9375C73.1623 18.6835 73.1563 19.4295 73.1443 20.1754C73.1323 20.9207 73.1263 21.668 73.1263 22.4133C73.1263 23.928 73.1609 25.3845 73.2303 26.7826C74.5532 26.7826 75.8761 26.7478 77.1991 26.6782C78.522 26.6085 79.8576 26.4867 81.2059 26.3126C81.1598 26.5697 81.1238 26.8027 81.1018 27.0117C81.0751 27.3021 81.0637 27.5938 81.0678 27.8855C81.0678 28.2592 81.0798 28.5505 81.1018 28.7594C81.1182 28.9373 81.1531 29.113 81.2059 29.2837C80.5797 29.2596 79.8056 29.2435 78.8914 29.2315C77.9772 29.2194 76.715 29.2134 75.1147 29.2134H69.6036C69.0808 29.2134 68.6861 29.2194 68.4193 29.2315C68.1533 29.2435 67.9252 29.2596 67.7412 29.2837C67.8332 27.84 67.8999 26.3668 67.9413 24.8642C67.9826 23.3615 68.0059 21.6426 68.0113 19.7074V14.9543C68.0193 13.0178 67.9993 11.2982 67.9512 9.79554Z" fill="#1E1E1E"></path><path d="M94.857 6.98263C93.7901 6.98263 92.9199 7.29736 92.2465 7.92681C91.9298 8.20058 91.6757 8.53969 91.5013 8.92103C91.327 9.30237 91.2366 9.71697 91.2363 10.1366C91.2213 10.5234 91.2829 10.9094 91.4175 11.2721C91.5521 11.6349 91.7571 11.9672 92.0204 12.2499C92.5986 12.8404 93.2614 13.3408 93.9868 13.7345C94.775 14.1778 95.6218 14.603 96.5273 15.0101C97.4271 15.4146 98.2792 15.9186 99.0678 16.5128C99.8536 17.1034 100.521 17.8382 101.034 18.6783C101.552 19.5274 101.81 20.6156 101.81 21.9428C101.824 23.0445 101.598 24.136 101.148 25.1409C100.714 26.0988 100.072 26.9466 99.2679 27.6219C98.4115 28.3332 97.4238 28.8677 96.3613 29.1948C95.1379 29.5708 93.8638 29.7537 92.5845 29.7372C91.4523 29.7517 90.3231 29.6166 89.2259 29.3355C88.2404 29.0676 87.4922 28.7328 86.9814 28.331C87.2135 27.5154 87.4135 26.7694 87.5816 26.0931C87.7496 25.4168 87.8916 24.6862 88.0076 23.9014H88.6698C88.7607 24.4111 88.9373 24.9016 89.1919 25.3518C89.4466 25.8059 89.776 26.2134 90.1661 26.5572C90.5846 26.9204 91.0688 27.1994 91.5924 27.3788C92.1976 27.5852 92.8336 27.6858 93.4727 27.6761C94.865 27.6761 95.8919 27.3266 96.5533 26.6275C96.8772 26.295 97.1324 25.9014 97.304 25.4693C97.4757 25.0373 97.5605 24.5754 97.5535 24.1104C97.5859 23.3157 97.3114 22.5391 96.7874 21.9428C96.2322 21.3485 95.5859 20.8473 94.873 20.4582C94.1062 20.027 93.2707 19.6078 92.3665 19.2006C91.4773 18.8026 90.6364 18.3039 89.86 17.7141C89.0901 17.1279 88.4401 16.3981 87.9456 15.5646C87.4349 14.7155 87.1795 13.626 87.1795 12.2961C87.1579 11.1903 87.3778 10.0932 87.8236 9.08191C88.2251 8.18686 88.8123 7.38826 89.5459 6.73956C90.2669 6.10584 91.1031 5.6181 92.0084 5.30321C92.9692 4.97463 93.9781 4.8103 94.993 4.81706C96.106 4.79771 97.2152 4.95085 98.2817 5.27107C99.1566 5.54062 99.9759 5.96665 100.7 6.52862C100.492 7.06433 100.312 7.58262 100.16 8.0835C100.008 8.58572 99.818 9.21852 99.5859 9.98792H99.0638C98.3263 7.98707 96.9241 6.98531 94.857 6.98263Z" fill="#1E1E1E"></path></g><defs><clipPath id="clip0_6001_3555"><rect width="102" height="57" fill="white"></rect></clipPath></defs></svg>