<svg xmlns="http://www.w3.org/2000/svg" width="63" height="38" viewBox="0 0 63 38" fill="none"><path d="M30.3225 37.8964C26.4772 35.0088 25.2955 30.2905 22.1872 27.2732C19.7575 26.7953 18.4666 28.6017 16.8754 29.7559C15.2608 30.9304 13.736 32.2912 11.0723 33.004C7.3049 27.3219 3.14755 21.8787 0.171875 14.9653C6.26363 10.5468 12.0629 6.34292 17.8855 2.11878C19.5391 3.47148 20.8261 4.52043 22.0351 5.51268C26.3485 5.00643 28.942 1.0253 33.2202 0.3125C34.9908 2.054 36.1335 4.33413 37.3347 6.57783C40.2987 12.1061 46.3046 13.5479 51.1913 9.96767C54.8339 7.29872 58.5038 4.67028 63.0043 1.41409C62.3491 6.24573 60.8632 9.42901 57.9344 11.7821C55.0445 14.1068 52.0376 16.2776 49.3427 18.3187C49.0814 18.7764 48.9293 18.9181 48.9215 19.072C48.5003 25.9489 44.1908 29.6627 38.8557 32.6435C35.9502 34.2676 33.1695 36.1266 30.3225 37.8883V37.8964Z" fill="#333333"></path></svg>