<svg xmlns="http://www.w3.org/2000/svg" width="34" height="46" viewBox="0 0 34 46" fill="none"><path d="M24.2644 0.833156C21.9712 4.17035 22.4276 7.37791 24.1357 10.9257C27.3688 17.6527 30.2392 24.5661 33.2617 31.4025C32.5129 32.2611 32.8444 33.6948 31.7914 34.3995C31.3585 34.5979 30.9178 34.6465 30.4576 34.5331C28.1215 33.5652 27.8446 30.5925 25.372 28.9725C20.4814 31.1271 15.0644 32.4676 11.379 37.5301C9.00387 40.7944 6.41036 44.0466 2.52209 45.6382C1.48469 44.8849 1.01279 43.7225 0.462891 42.6128C3.08367 40.7417 5.49387 38.4535 7.20205 35.8089C10.5716 30.5965 15.6962 28.3529 20.7389 25.7933C22.1936 25.0562 23.9876 24.8982 25.0171 23.2336C25.9414 21.0709 24.6155 19.3335 23.8589 17.4665C22.451 13.9956 20.1382 10.9338 19.526 7.10659C20.9923 5.81464 20.189 3.42513 21.7373 2.17368C22.5679 1.69983 23.2192 0.857452 24.2683 0.829102L24.2644 0.833156Z" fill="#525251"></path></svg>