<svg xmlns="http://www.w3.org/2000/svg" width="77" height="62" viewBox="0 0 77 62" fill="none"><path d="M30.2069 13.1003C31.486 20.8642 35.4328 27.413 38.9194 35.1323C46.1538 26.7002 52.8228 18.9363 59.5073 11.1441C57.8226 6.90785 54.7065 4.72898 51.3876 2.76068C52.4913 1.67933 53.7978 1.02322 55.2915 0.768066C54.843 2.17746 55.6971 2.89432 56.5785 3.76102C62.7833 9.89676 69.8657 14.8904 76.5619 20.3863L76.2538 20.7427C75.3256 21.5162 74.1946 21.8604 73.126 22.3464C69.2299 22.638 67.2137 18.6569 63.1772 17.7497C55.2641 24.6225 48.0999 32.7063 41.4426 41.3125C41.1034 41.6608 40.7602 42.0132 40.4209 42.3656C35.0506 47.0271 30.3512 52.3528 25.8779 57.9256C24.6416 59.4646 23.6042 61.3965 21.4592 61.9149C19.3688 60.6756 17.571 59.1042 16.2762 56.9658C17.4111 57.1602 18.5459 57.3546 19.8329 57.5733C25.5932 50.8098 31.3612 44.0341 37.1566 37.2261C35.2378 33.1964 34.6801 28.9965 31.9229 26.0927C29.2514 25.793 27.4379 27.2145 25.6361 28.3161C19.3415 32.1636 12.7233 35.3469 6.25321 38.8339C4.66202 39.6925 2.80176 40.2758 2.32596 42.4547C1.26907 41.6487 0.691874 40.5268 0.375977 39.2389C0.929772 36.9466 2.84854 36.1569 4.54893 35.0918C10.3872 31.4346 16.5219 28.3688 22.6019 25.1855C24.2165 24.339 25.9325 23.6222 26.8763 22.4315C28.1789 19.3332 25.4723 17.6322 25.4294 15.2427C26.7866 13.9629 28.5221 13.5904 30.2069 13.0963V13.1003Z" fill="#545454"></path></svg>