<svg xmlns="http://www.w3.org/2000/svg" width="35" height="45" viewBox="0 0 35 45" fill="none"><path d="M34.148 32.1138C34.2689 32.7618 34.3898 33.4138 34.5107 34.0618C35.0294 37.7109 31.8821 37.9296 29.9672 39.2985C29.3081 39.6265 28.5944 39.7561 27.8847 39.9019C25.4589 40.7808 22.8498 41.2141 20.8062 43.0366C16.0326 45.3168 15.2526 45.0697 12.9595 40.6593C12.3277 39.4443 11.8246 38.1685 11.2279 36.9373C11.0368 36.4432 10.8418 35.9492 10.6351 35.4632C7.17971 28.6875 4.63694 21.4664 1.28687 14.6462C-0.674821 10.6569 -0.30434 7.47366 3.26803 4.83307C9.02439 1.30148 9.85117 0.981522 14.7573 0.374023C19.1721 1.77127 21.8904 4.74802 23.8248 9.19086C27.1748 16.8696 30.0336 24.8076 34.1519 32.1179L34.148 32.1138Z" fill="#333333"></path></svg>