<svg xmlns="http://www.w3.org/2000/svg" width="55" height="34" viewBox="0 0 55 34" fill="none"><path d="M4.6876 7.93839C8.25607 4.8199 12.3354 3.67375 17.0232 3.68185C22.7679 3.68995 28.4696 2.41016 34.2533 2.58026C34.9982 2.60051 35.7626 2.0092 36.5153 1.70545C36.6713 1.54345 36.8233 1.37742 36.9793 1.21542C37.6345 1.13037 38.3053 1.19514 38.9371 0.939995C40.189 0.802295 41.3708 -0.404556 42.7007 0.684892C43.508 0.895492 44.4869 1.01694 44.8456 1.85124C47.2675 7.49693 50.7658 12.6809 51.6472 18.9868C52.1698 22.729 54.459 26.0338 54.2445 29.8651C53.2461 31.8901 51.4833 31.8455 49.8414 31.7726C40.4971 31.3554 31.2542 33.2144 21.9099 32.9633C18.942 32.8864 15.9663 33.6235 12.9828 33.826C11.181 33.9475 9.32854 34.1014 7.82705 33.5263C6.12666 32.1533 6.86376 29.938 5.53777 28.7189L5.54557 28.7391C5.58457 27.4229 4.88258 26.4226 4.13769 25.5032C1.44281 22.1701 0.241613 18.3388 0.428812 14.0134C-0.951778 9.87024 1.40383 8.55399 4.6915 7.93839H4.6876Z" fill="#333333"></path></svg>