<svg xmlns="http://www.w3.org/2000/svg" width="5" height="6" viewBox="0 0 5 6" fill="none"><path d="M3.72828 1.32071C3.55121 1.11741 3.32822 0.960014 3.0659 0.848525C2.80357 0.737036 2.49533 0.68457 2.1543 0.68457C1.81328 0.68457 1.51159 0.737039 1.24271 0.84197C0.97382 0.946901 0.750903 1.10429 0.567274 1.30104C0.383646 1.49779 0.245921 1.73388 0.154106 2.01588C0.0622918 2.29788 0.00976562 2.60612 0.00976562 2.9537V3.61607C0.00976562 4.05547 0.0819504 4.42273 0.219672 4.71129C0.357394 4.99985 0.534423 5.22939 0.750842 5.3999C0.967262 5.57041 1.19684 5.68846 1.45261 5.7606C1.70838 5.82618 1.94446 5.86552 2.17399 5.86552C2.3773 5.86552 2.55441 5.86553 2.70525 5.85897C2.85608 5.85897 2.99373 5.84586 3.1249 5.83274C3.2495 5.81962 3.38072 5.8065 3.50532 5.78683C3.62993 5.76715 3.76764 5.74748 3.90536 5.71469C3.99062 5.70157 4.04308 5.6819 4.06275 5.64255C4.08243 5.60976 4.09557 5.55073 4.09557 5.47859V4.88836C4.09557 4.84245 4.08241 4.80966 4.04962 4.78343C4.01683 4.76375 3.98409 4.75064 3.93162 4.75064H3.90536C3.71517 4.77031 3.47254 4.78999 3.18398 4.80967C2.89542 4.82934 2.58716 4.84245 2.25925 4.84245C2.04283 4.84245 1.86581 4.80967 1.72808 4.73753C1.59036 4.67194 1.47887 4.58013 1.40018 4.46864C1.32148 4.35715 1.26245 4.2391 1.23622 4.10138C1.20343 3.97022 1.19027 3.8325 1.19027 3.70133V3.6751H4.09557C4.21362 3.6751 4.27258 3.60296 4.27258 3.45212V2.9537C4.27258 2.61924 4.2267 2.31755 4.13488 2.03555C4.04307 1.76011 3.90535 1.51746 3.72828 1.31416M3.09215 2.84221H1.19683V2.80942C1.19683 2.45528 1.28867 2.17984 1.46574 1.98965C1.64281 1.79946 1.8723 1.70764 2.1543 1.70764C2.4363 1.70764 2.6593 1.79946 2.82981 1.9962C3.00032 2.18639 3.09215 2.45528 3.09215 2.80942V2.84221Z" fill="#0B5463"></path></svg>