<svg xmlns="http://www.w3.org/2000/svg" width="3" height="6" viewBox="0 0 3 6" fill="none"><path d="M2.54262 0.68457C2.36555 0.68457 2.16221 0.710806 1.93267 0.76983C1.70314 0.828853 1.48023 0.940341 1.26381 1.11741V0.927219C1.26381 0.881312 1.24408 0.835413 1.21129 0.802623C1.1785 0.769832 1.13263 0.750156 1.08673 0.750156H0.312826C0.266918 0.750156 0.22105 0.769832 0.188259 0.802623C0.155468 0.835413 0.135742 0.881312 0.135742 0.927219V5.6032C0.135742 5.64911 0.155468 5.69501 0.188259 5.73436C0.22105 5.77371 0.266918 5.79339 0.312826 5.79339H1.1326C1.1785 5.79339 1.22445 5.77371 1.25724 5.73436C1.29003 5.69501 1.30968 5.65566 1.30968 5.6032V2.00932C1.49987 1.91095 1.69006 1.83225 1.8868 1.77323C2.07699 1.71421 2.29997 1.68797 2.54262 1.68797C2.58853 1.68797 2.6344 1.66829 2.66719 1.6355C2.69998 1.60271 2.7197 1.5568 2.7197 1.5109V0.868198C2.7197 0.822291 2.69998 0.776382 2.66719 0.743591C2.6344 0.710801 2.58853 0.691125 2.54262 0.691125" fill="#0B5463"></path></svg>