<svg xmlns="http://www.w3.org/2000/svg" width="52" height="56" viewBox="0 0 52 56" fill="none"><path d="M4.47443 28.9344C3.95183 25.1477 0.859155 22.3167 0.722656 18.453C5.81212 13.1597 27.5194 1.81973 35.6313 0.171387C38.5524 1.53623 37.9596 4.90582 39.3129 7.16976C40.0851 7.05231 40.1241 7.83801 40.5063 8.20656C41.9727 11.6369 44.2775 14.7068 44.6363 18.611C45.4046 19.5749 46.1456 20.559 46.4576 21.8024C48.1073 23.9003 48.1151 26.7474 49.4879 28.9749C49.4255 32.1056 51.59 34.7826 51.1844 38.784C40.0656 44.2353 28.6542 49.8648 16.5604 55.1379C11.3579 46.6612 9.00229 37.2369 4.47443 28.9385V28.9344Z" fill="#333333"></path></svg>