<svg xmlns="http://www.w3.org/2000/svg" width="18" height="21" viewBox="0 0 18 21" fill="none"><path d="M4.01066 17.4421C4.11464 17.5584 4.24228 17.6511 4.38503 17.714C4.52777 17.7769 4.68231 17.8085 4.83829 17.8067C5.2739 17.7855 5.692 17.6287 6.03415 17.3583C6.39875 17.0921 6.7998 16.3812 7.18627 15.4186C7.80973 15.2436 8.46964 15.0832 9.07851 14.9592C9.71136 15.5923 10.5144 16.028 11.39 16.2135C11.5946 16.2377 11.802 16.2061 11.99 16.122C12.1781 16.0379 12.3399 15.9045 12.4583 15.7358C12.5645 15.5749 12.625 15.3881 12.6334 15.1955C12.6417 15.0029 12.5976 14.8116 12.5057 14.6421C12.3562 14.3613 11.9479 13.8873 10.8869 13.88C10.3691 13.9008 9.85353 13.9605 9.34467 14.0587C8.87696 13.5625 8.495 12.9921 8.21443 12.3706C8.35297 11.9112 8.48787 11.4373 8.62277 10.9597L8.76132 10.4857C8.86436 10.1521 8.89786 9.80093 8.85976 9.45388C8.75038 8.68459 8.25453 8.38562 7.82431 8.41843C7.28107 8.46583 6.75605 9.0273 6.80709 10.0117C6.84322 10.8294 7.01574 11.6353 7.31752 12.3962C7.03679 13.3113 6.78157 14.0842 6.54823 14.7077C5.45445 15.0468 4.49192 15.4369 4.15285 15.8015C3.92578 16.0061 3.78481 16.2892 3.75842 16.5938C3.73202 16.8983 3.82217 17.2015 4.01066 17.4421ZM10.8833 14.7077C11.5468 14.7077 11.7255 14.952 11.7656 15.0249C11.7873 15.0592 11.7988 15.0991 11.7988 15.1397C11.7988 15.1804 11.7873 15.2202 11.7656 15.2546C11.7311 15.2981 11.6854 15.3314 11.6333 15.3507C11.5812 15.37 11.5248 15.3746 11.4702 15.3639C10.992 15.2714 10.543 15.0651 10.1614 14.7624C10.3994 14.7295 10.6393 14.7112 10.8796 14.7077H10.8833ZM7.89723 9.23877C7.91546 9.23877 7.99567 9.30804 8.02484 9.53044C8.04729 9.76391 8.02249 9.9995 7.95192 10.2232L7.81337 10.7081C7.79514 10.7737 7.77327 10.843 7.75504 10.9123C7.70146 10.6012 7.66857 10.287 7.6566 9.9716C7.62014 9.4794 7.80973 9.26064 7.89358 9.25335L7.89723 9.23877ZM7.86442 13.4899C8.02735 13.752 8.20762 14.0029 8.40401 14.241C8.11963 14.303 7.8316 14.3723 7.54357 14.4452C7.6566 14.1389 7.75504 13.8181 7.86442 13.4899ZM4.76537 16.3885C5.18021 16.0886 5.64589 15.8663 6.13989 15.7322C6.01138 16.0825 5.80865 16.4009 5.5456 16.6655C5.04246 17.0301 4.72891 16.9973 4.63776 16.8916C4.54661 16.7859 4.58307 16.5853 4.76537 16.3848V16.3885Z" fill="#CCC5A3"></path><path d="M9.84409 3.80278H9.47949V4.44447H9.84409C9.93483 4.45413 10.0259 4.42941 10.0993 4.3752C10.1558 4.30916 10.1868 4.22511 10.1868 4.13821C10.1868 4.05131 10.1558 3.96726 10.0993 3.90122C10.0302 3.83653 9.93871 3.80123 9.84409 3.80278Z" fill="#CCC5A3"></path><path d="M12.0649 3.83179H11.7695V5.31933H12.0649C12.1649 5.32527 12.265 5.31124 12.3595 5.27807C12.4541 5.24489 12.541 5.19323 12.6154 5.1261C12.6839 5.05331 12.7368 4.9672 12.7707 4.87311C12.8045 4.77903 12.8187 4.67899 12.8123 4.5792C12.8193 4.48164 12.8053 4.38369 12.7712 4.29202C12.737 4.20035 12.6835 4.1171 12.6144 4.04793C12.5452 3.97876 12.4619 3.92528 12.3703 3.89113C12.2786 3.85698 12.1807 3.84296 12.0831 3.85002L12.0649 3.83179Z" fill="#CCC5A3"></path><path d="M16.4067 2.05631V0H4.13085L0 4.22564V20.4173H16.4067V7.16062H18V2.05631H16.4067ZM3.91938 1.25785V3.16103C3.91938 3.64594 3.37249 4.01053 2.91675 4.01053H1.23233L3.91938 1.25785ZM15.6775 2.05631H6.333V7.16062H15.6775V19.6881H0.729188V4.73972H2.91675C3.73709 4.73972 4.64857 4.09074 4.64857 3.16103V0.729188H15.6775V2.05631ZM15.1999 4.33867V4.82358H14.4197V5.85902H13.7962V3.30687H15.4624V3.80636H14.4197V4.33867H15.1999ZM13.4462 4.5793C13.4515 4.81276 13.3936 5.04331 13.2785 5.24651C13.1698 5.44029 13.0061 5.59759 12.8082 5.6986C12.5903 5.80875 12.3487 5.86383 12.1045 5.85902H11.1456V3.30687H12.1045C12.3499 3.30162 12.5928 3.3567 12.8118 3.46729C13.0078 3.56808 13.17 3.72396 13.2785 3.91574C13.3923 4.11814 13.4502 4.34715 13.4462 4.5793ZM10.8211 4.12356C10.8238 4.26514 10.7885 4.40486 10.7191 4.52826C10.646 4.65641 10.537 4.76035 10.4055 4.82722C10.2426 4.90794 10.0622 4.94679 9.88049 4.94025H9.47944V5.85902H8.87057V3.30687H9.88049C10.0589 3.30218 10.236 3.33835 10.3982 3.4126C10.5317 3.47447 10.6426 3.57642 10.7154 3.70427C10.7858 3.83276 10.8222 3.97707 10.8211 4.12356Z" fill="#CCC5A3"></path></svg>