<svg xmlns="http://www.w3.org/2000/svg" width="85" height="67" viewBox="0 0 85 67" fill="none"><path d="M20.877 2.49486C18.3304 4.09055 17.137 6.85262 15.5302 9.25022C12.3946 13.928 9.29027 18.6341 6.20929 23.3523C5.1992 24.8994 3.8693 26.325 4.04869 29.2491C9.12256 32.7767 14.5747 36.5634 19.8006 40.1922C22.6242 38.6411 23.4745 36.2515 24.816 34.3358C28.5444 29.0263 32.1206 23.6034 35.7866 18.2493C36.8786 16.6536 37.8848 15.0822 36.8708 13.0329C38.4854 13.3731 39.0861 14.7461 39.7412 16.0623C34.3944 24.7698 29.0475 33.4773 23.5017 42.5088C29.2191 47.3931 34.8857 51.4916 40.4627 55.5173C43.9337 53.9378 45.56 50.9773 47.2526 48.3083C50.1854 43.6832 53.5822 39.4389 56.6905 34.9636C57.763 33.4165 58.8471 31.8613 58.7847 29.808C60.0756 30.4641 61.3666 31.1243 62.6575 31.7804C62.6146 32.2947 62.4976 33.0075 62.8252 33.2667C67.5597 36.9886 71.721 41.6623 77.8166 43.1608C80.4647 44.4366 82.8164 46.1417 84.7898 48.3894C83.8031 48.3246 82.8203 48.2598 81.623 48.1788C76.7324 53.7921 74.3847 61.4303 68.757 66.5536C70.2273 60.0979 75.1413 55.5579 77.5476 49.09C71.409 44.8214 65.3719 40.6256 59.0461 36.2273C52.541 43.3107 48.6916 52.2693 41.153 58.5306C33.9068 54.2255 27.5655 48.6364 20.8225 43.6792C14.1067 38.7382 6.75523 34.6842 0.296875 28.8076C3.17505 24.2393 5.68279 20.2054 8.24507 16.2121C11.1076 11.7571 14.0404 7.35079 16.8952 2.89175C17.3476 2.18705 17.5543 1.31626 17.878 0.522461C18.9973 0.98416 20.0619 1.53096 20.8731 2.49486H20.877Z" fill="#525252"></path></svg>