<svg xmlns="http://www.w3.org/2000/svg" width="60" height="51" viewBox="0 0 60 51" fill="none"><path d="M54.3981 17.5189C52.6977 21.1396 53.5986 25.0195 53.5518 28.7577C53.505 32.5646 52.0035 34.9501 48.7977 36.4891C39.7264 40.8469 30.6785 45.2492 21.6149 49.6313C20.5619 50.1416 19.5245 50.7775 17.3678 49.9756C12.3759 38.267 5.89412 26.4775 0.785156 13.797C3.76083 11.5978 6.84572 11.7072 9.6654 10.9053C14.3766 9.56878 18.9941 8.95319 23.9393 9.95354C27.4766 10.6663 31.2634 10.3585 34.9138 10.1074C39.2623 9.80774 43.2441 8.25253 46.9374 5.69294C50.3772 3.31154 53.8872 0.837012 58.3215 0.873462C59.1131 0.764112 59.156 1.52145 59.4836 1.95075L59.4758 1.91431C60.8213 4.32811 59.2925 6.12224 58.2512 8.02168C56.387 10.9336 55.8605 14.4288 54.3981 17.5189Z" fill="#333333"></path></svg>