<svg xmlns="http://www.w3.org/2000/svg" width="34" height="15" viewBox="0 0 34 15" fill="none"><path d="M10.2186 0.171046C13.986 0.256096 17.7611 0.20748 21.5207 0.45858C25.097 0.697529 28.6576 1.24828 31.9492 1.62898C33.7276 3.14368 33.1816 4.96214 33.3337 6.59833C32.0935 8.91088 32.7565 11.6811 32.0038 13.783C30.2332 15.2653 28.4783 15.0628 26.9144 14.7793C19.0598 13.3497 11.0415 14.2326 3.19083 12.8354C2.20024 12.6612 1.22523 12.5559 0.398438 11.9039L0.472538 11.7905C0.729936 11.4341 0.999041 11.0898 1.28374 10.7577C3.83042 6.83729 7.25071 3.71074 10.2186 0.166992V0.171046Z" fill="#343434"></path></svg>