<svg xmlns="http://www.w3.org/2000/svg" width="168" height="97" viewBox="0 0 168 97" fill="none"><path d="M135.39 42.1829C134.54 51.2711 133.67 60.3552 132.843 69.4474C132.328 75.1093 131.825 80.7712 131.408 86.4412C131.295 87.9599 131.104 89.5557 132.114 91.3579C134.629 92.3866 137.519 92.9536 140.511 92.9941C149.484 93.1237 158.474 92.739 167.401 94.116C167.994 94.8004 167.994 95.4889 167.401 96.1774C166.605 96.3799 165.751 96.8862 165.022 96.7363C161.223 95.9547 157.39 96.2341 153.575 96.222C144.598 96.1936 135.694 95.3309 126.775 94.3387C118.367 93.4031 109.907 92.6336 101.413 93.0427C98.8511 91.6576 95.9105 93.4477 93.3521 92.0059C89.1362 90.1793 84.6942 91.3863 80.373 90.957C79.749 90.4143 79.1055 90.3171 78.4386 90.8719C76.824 90.147 75.1197 89.9485 73.3842 89.908C73.4193 87.3079 75.6657 87.4173 77.1438 86.5749C78.5829 86.2468 80.1507 86.7085 81.9057 85.5664C83.8128 83.586 84.5343 81.0305 82.791 77.4989C77.7405 76.1583 72.2494 76.2879 66.8791 75.7168C53.0303 74.2467 39.1347 73.2666 25.2742 71.8451C19.1785 71.2214 13.0634 70.5369 6.9209 70.3465C4.24552 70.2655 1.49606 70.1927 0.263672 66.9729C1.76126 65.6972 3.27054 64.4416 5.25173 64.0569C10.856 64.4538 16.4252 63.7127 22.0996 64.2999C33.8268 65.5108 45.632 65.9361 57.406 66.7258C62.6281 67.0782 63.6772 65.5473 63.0025 60.3471C60.0229 58.2411 56.3336 58.395 53.0069 58.2452C43.5261 57.8199 34.131 56.5807 24.6853 55.8436C22.5754 55.6775 20.2276 55.9893 19.1239 53.3568C20.1769 51.996 21.3196 50.7648 23.0239 50.295C30.4611 48.4563 37.836 50.3396 45.203 50.8742C50.4797 51.259 55.811 51.0565 61.0486 52.0852C62.0158 52.2755 63.0298 51.9231 63.8488 51.1577C65.6779 46.1154 64.6483 44.0945 59.6485 43.5518C52.8977 42.8187 46.1351 42.195 39.3999 41.2878C37.212 40.9922 35.0241 40.8019 34.3806 38.0033C34.6731 37.0151 35.1684 36.2051 36.1317 35.788C43.2648 33.6617 50.3042 35.9418 57.3787 36.3428C59.8708 36.4845 62.3239 37.0232 64.6834 36.039C66.1238 33.771 66.5697 31.3653 66.0211 28.8219C61.9729 26.5985 57.4489 26.878 52.9874 26.7281C50.3198 26.639 47.5157 26.7403 46.3145 23.4152C47.0555 21.8843 47.9018 20.4425 49.3643 19.5191C54.9374 18.4944 60.487 21.0946 66.1264 19.8472C67.6474 17.3686 67.3666 14.8617 67.1482 12.5046C64.5001 9.84374 60.0385 12.703 58.1704 8.74618C58.6384 7.57573 59.3248 6.58347 60.3778 5.90307C68.4508 3.48118 76.5198 6.31615 84.5967 5.98405C85.8876 5.9314 87.2018 6.51055 88.7579 5.7775C90.6611 4.6759 90.314 1.37107 92.7515 0.374773C93.5276 0.0750733 94.2413 0.216882 94.8848 0.739331C96.1445 2.38768 96.2692 4.7002 97.8253 6.1825C101.367 8.70969 105.59 7.3125 108.948 8.46675C111.432 7.98075 112.029 5.20651 114.279 5.12551C115.04 5.13766 115.683 5.43728 116.241 5.95568C117.165 9.37792 120.964 9.56429 122.676 12.1077C122.742 13.2538 122.114 13.9342 121.237 14.4526C118.62 15.137 116.448 16.6153 114.56 18.5877C112.415 18.8752 111.592 16.7571 110.052 15.9349C105.649 14.1732 101.191 13.5981 96.6866 14.9265C95.2163 17.3605 95.3723 19.6487 96.1796 22.099C99.1708 24.8287 104.744 22.0909 106.62 27.2506C105.614 29.2999 103.586 29.4133 101.819 30.0249C99.8807 30.2841 97.7903 29.5308 95.4113 31.4383C93.6056 38.5015 93.5705 46.3139 92.8334 54.6609C104.873 56.9694 116.385 57.0868 128.066 58.314C129.77 52.073 129.095 46.2856 130.203 40.7533C130.874 37.4039 130.741 33.7751 133.951 31.5719C137.075 31.2641 136.7 34.2652 137.784 35.8973C138.229 37.3432 138.869 38.7445 138.849 40.3159C138.408 42.3773 136.275 41.0449 135.37 42.1789L135.39 42.1829Z" fill="#545555"></path></svg>