<svg xmlns="http://www.w3.org/2000/svg" width="6" height="7" viewBox="0 0 6 7" fill="none"><path d="M4.92077 4.0193C4.82896 3.86846 4.7043 3.72418 4.54034 3.58646C4.37639 3.44874 4.17969 3.31102 3.93048 3.1733L2.67785 2.57651C2.53357 2.49781 2.41549 2.42567 2.32368 2.36008C2.22531 2.2945 2.15318 2.22893 2.09416 2.1699C2.03514 2.10432 1.99583 2.04529 1.97616 1.97971C1.95648 1.91413 1.94333 1.84855 1.94333 1.77641C1.94333 1.5731 2.01545 1.41571 2.15973 1.30422C2.30401 1.19273 2.54672 1.14026 2.88119 1.14026C3.17631 1.14026 3.64193 1.14682 3.93704 1.15994C4.23216 1.17305 4.52071 1.19929 4.82238 1.22552H4.84208C4.88798 1.22552 4.92728 1.2124 4.95351 1.17961C4.97975 1.14682 4.9929 1.11403 4.9929 1.06157V0.399198C4.9929 0.35329 4.97974 0.313933 4.94695 0.2877C4.91416 0.261467 4.88141 0.241795 4.82895 0.228679C4.75025 0.209004 4.64533 0.195887 4.51417 0.176212C4.383 0.156538 4.23869 0.136862 4.07474 0.123746C3.91079 0.104071 3.74683 0.0909564 3.58288 0.0843982C3.41892 0.07784 3.0779 0.0712891 2.93362 0.0712891C2.5139 0.0712891 2.16633 0.11063 1.88433 0.195886C1.60233 0.281142 1.37276 0.399195 1.19569 0.550033C1.01862 0.700871 0.894046 0.884494 0.815348 1.0878C0.73665 1.29766 0.697266 1.52064 0.697266 1.76985C0.697266 1.92725 0.716985 2.07809 0.743218 2.22237C0.776009 2.36665 0.835038 2.51093 0.913737 2.64209C0.992435 2.77325 1.10392 2.90442 1.23508 3.02902C1.36624 3.15363 1.54325 3.27823 1.74656 3.40283L3.10414 4.11112C3.25498 4.20293 3.37299 4.28163 3.47136 4.34721C3.56973 4.41279 3.64194 4.48493 3.70096 4.55051C3.75998 4.61609 3.79929 4.68168 3.82553 4.75382C3.85176 4.81941 3.85835 4.8981 3.85835 4.98992C3.85835 5.25224 3.78616 5.44898 3.64188 5.5867C3.4976 5.72443 3.22216 5.79001 2.82211 5.79001C2.73685 5.79001 2.44835 5.79001 2.31063 5.78345C2.17291 5.78345 2.02204 5.77034 1.8712 5.76378C1.71381 5.75722 1.56293 5.74411 1.41865 5.73755C1.27437 5.73099 1.15638 5.71787 1.06456 5.70476H1.04487C0.998961 5.70476 0.959576 5.71787 0.926786 5.75066C0.893995 5.78345 0.874349 5.8228 0.874349 5.86871V6.51141C0.874349 6.55732 0.893995 6.59667 0.926786 6.62946C0.959576 6.66225 0.998961 6.68192 1.04487 6.69504C1.26129 6.74094 1.49086 6.7803 1.74007 6.81309C1.98928 6.84588 2.46147 6.85899 2.80249 6.85899C3.24845 6.85899 3.62224 6.80653 3.92392 6.69504C4.22559 6.58355 4.46823 6.43927 4.6453 6.26876C4.82893 6.09169 4.95351 5.89494 5.03221 5.67196C5.11091 5.44899 5.15029 5.22601 5.15029 4.99647C5.15029 4.8194 5.13064 4.64889 5.09129 4.48494C5.05194 4.32098 4.98633 4.17014 4.89451 4.0193" fill="#0B5463"></path></svg>