<svg xmlns="http://www.w3.org/2000/svg" width="20" height="6" viewBox="0 0 20 6" fill="none"><path d="M6.44023 2.28505V3.85902C6.44023 4.09511 6.46645 4.27874 6.51892 4.42958C6.57139 4.57386 6.65007 4.69191 6.75501 4.7706C6.85994 4.85586 6.99108 4.90832 7.14191 4.94111C7.29931 4.9739 7.47643 4.98702 7.68629 4.98702H17.3923C17.5104 4.98702 17.6416 4.98702 17.7859 4.98702C17.9302 4.98702 18.0679 4.98046 18.1991 4.96734C18.3302 4.95422 18.4548 4.94767 18.5663 4.93456C18.6778 4.92144 18.763 4.90832 18.8286 4.88865C18.9008 4.85585 18.9467 4.82306 18.9794 4.78371C19.0057 4.74436 19.0253 4.6919 19.0385 4.63288C19.0581 4.46892 19.0647 4.25907 19.0713 4.0033C19.0713 3.74097 19.0713 3.42618 19.0713 3.03925V2.20636C19.0713 2.07519 19.0713 1.93747 19.0713 1.78663C19.0713 1.64235 19.0647 1.47184 19.0581 1.28165C19.0581 1.23574 19.0319 1.1964 19.0057 1.16361C18.9729 1.13082 18.9269 1.11114 18.8614 1.11114H18.1138C18.0613 1.11114 18.0154 1.12426 17.9826 1.16361C17.9498 1.1964 17.9367 1.23574 17.9367 1.28165C17.9498 1.70793 17.9563 2.10798 17.9563 2.4818V3.54422C17.9563 3.6885 17.9301 3.77375 17.8842 3.79999C17.8383 3.82622 17.74 3.83934 17.5957 3.83934H17.0054C16.9595 3.83934 16.9202 3.83278 16.8874 3.81311C16.8546 3.79343 16.8284 3.76064 16.7956 3.71474C16.7759 3.6885 16.7562 3.64915 16.73 3.59013C16.7037 3.53111 16.6775 3.46552 16.6513 3.39994C16.6185 3.33436 16.5923 3.26222 16.5595 3.19664C16.5267 3.13105 16.507 3.07204 16.4873 3.01957L16.3693 2.77036C16.1922 2.36375 15.9955 2.02928 15.7856 1.75384C15.5758 1.48496 15.3528 1.26854 15.1035 1.09802C14.8609 0.934069 14.5986 0.816023 14.3166 0.750441C14.0346 0.684859 13.7329 0.645508 13.405 0.645508C13.2476 0.645508 13.1033 0.645507 12.9656 0.665182C12.8279 0.678298 12.6836 0.697976 12.5328 0.730767C12.4147 0.757 12.3557 0.809462 12.3557 0.901276V1.56366C12.3557 1.66859 12.4212 1.72105 12.5458 1.70794C12.6114 1.70794 12.6967 1.69482 12.8082 1.69482C12.9131 1.69482 12.9919 1.69482 13.0312 1.69482C13.5952 1.69482 14.0411 1.80631 14.369 2.02273C14.6969 2.23915 14.9462 2.54082 15.1167 2.92119L15.2938 3.29501L15.5364 3.85245H7.97482C7.81742 3.85245 7.7125 3.83278 7.65347 3.79343C7.59445 3.75408 7.56165 3.66883 7.56165 3.53766V1.51119C7.56165 1.45217 7.54857 1.40626 7.52234 1.38658C7.49611 1.36691 7.45673 1.34723 7.41082 1.33412C7.25343 1.30133 7.06323 1.2751 6.82714 1.25542C6.5976 1.22919 6.36153 1.22263 6.11888 1.22263C5.37781 1.22263 4.81382 1.38003 4.41377 1.70794C4.02028 2.02929 3.81696 2.52771 3.81696 3.20976V3.2819C3.81696 3.39994 3.79726 4.48859 3.7907 4.63943C3.66609 4.65911 3.53495 4.67223 3.40379 4.67879C3.27262 4.68535 3.12176 4.6919 2.96436 4.6919C2.56431 4.6919 2.24299 4.63943 2.00689 4.52794C1.7708 4.41646 1.5872 4.26562 1.46259 4.07543C1.33799 3.87868 1.25273 3.64916 1.21338 3.38683C1.17403 3.11794 1.1543 2.83594 1.1543 2.52115C1.1543 2.43589 1.15431 2.33096 1.16743 2.19324C1.17399 2.05552 1.18714 1.92435 1.20025 1.79319C1.21337 1.6817 1.16092 1.62268 1.04943 1.62268H0.360787C0.262414 1.62268 0.19682 1.68171 0.183703 1.79975C0.164029 1.89157 0.150948 1.99649 0.137831 2.10798C0.124715 2.21947 0.11156 2.3244 0.0984439 2.43589C0.0918857 2.54082 0.0853884 2.64575 0.0788302 2.73757C0.0788302 2.82938 0.0722656 2.91463 0.0722656 2.98022C0.0722656 3.44585 0.124725 3.85246 0.229655 4.2066C0.334586 4.56074 0.505111 4.8493 0.734647 5.08539C0.964184 5.32149 1.25929 5.49855 1.62655 5.62316C1.98725 5.74776 2.42665 5.8068 2.93818 5.8068C3.26609 5.8068 3.58085 5.79368 3.88909 5.774C4.19732 5.74777 4.47278 5.71497 4.72199 5.67562C4.85315 5.64939 4.91877 5.58382 4.91877 5.47889C4.93188 5.26903 4.95151 3.31469 4.95151 3.31469C4.95151 2.9212 5.03678 2.65231 5.21385 2.49492C5.38436 2.34408 5.64016 2.26538 5.98119 2.26538C6.06644 2.26538 6.13855 2.26537 6.19758 2.27193C6.2566 2.27193 6.32872 2.28505 6.42053 2.29817" fill="#0B5463"></path></svg>