<svg xmlns="http://www.w3.org/2000/svg" width="31" height="41" viewBox="0 0 31 41" fill="none"><path d="M30.7329 33.8592C27.6831 36.2244 24.6373 38.5896 21.5875 40.9548C20.0275 40.971 18.7834 40.4931 17.7499 39.1039C10.9678 29.9874 5.06721 20.3443 1.12434 9.51871C0.785045 8.58722 0.823999 7.50588 0.6875 6.49744C1.1945 6.05599 1.72885 5.65503 2.30995 5.32698C3.47604 4.72353 4.68504 4.21728 5.83163 3.58144C6.56093 3.15619 7.25509 2.65804 8.03508 2.31784C8.63178 2.14369 9.24405 2.08699 9.86805 2.13964C10.0708 2.15989 10.2737 2.18015 10.4765 2.2004C11.9429 2.006 12.9647 0.422429 14.6027 0.758578C17.6953 3.66647 23.3386 15.2454 30.7329 33.8551V33.8592Z" fill="#333333"></path></svg>