<svg xmlns="http://www.w3.org/2000/svg" width="176" height="172" viewBox="0 0 176 172" fill="none"><path d="M156.492 5.61864C159.48 4.37934 162.385 3.0064 164.601 0.458952C166.605 0.272653 166.445 1.79142 166.547 3.10766C163.606 8.7898 157.713 10.0777 152.823 12.698C145.697 16.5131 137.691 16.5415 129.918 16.9992C123.846 17.3556 118.71 18.8176 114.396 23.7342C110.395 28.2945 105.243 31.7087 101.074 37.0871C107.072 41.7851 112.708 46.7746 118.659 51.3633C121.018 53.1817 122.886 55.9155 126.182 56.0856C127.473 56.1545 127.282 54.7289 127.941 54.1376C131.306 51.2823 135.113 49.954 139.477 50.0188C144.968 50.0998 150.463 49.9418 155.954 50.0795C157.932 50.1281 160.01 50.0228 161.449 51.8857C162.171 56.2071 157.456 54.4454 156.383 56.7741C153.201 58.1511 149.82 57.8271 146.559 57.6084C137.531 57.0009 131.049 61.3708 125.757 68.3733C123.405 71.4837 121.237 74.7399 118.842 77.8219C117.559 79.4743 116.221 80.9364 114.061 81.2159C112.973 81.2361 112.115 80.746 111.421 79.9117C110.095 77.506 111.51 75.639 112.672 73.8246C114.4 71.1233 116.37 68.596 118.222 65.9879C119.334 64.4246 120.293 62.9018 119.735 60.8647C119.583 59.755 118.807 59.2284 117.902 58.8153C115.578 57.5193 113.776 55.2959 110.414 54.5507C103.488 63.4526 96.6748 72.7109 90.3841 82.609C92.3965 86.7157 95.8206 88.6273 99.1278 90.628C104.014 87.9915 104.603 80.9768 110.434 79.9319C111.518 80.5111 112.544 81.1631 113.101 82.366C113.62 87.8416 108.336 90.4134 107.08 95.0871C108.652 98.5053 111.674 100.534 114.006 103.183C118.097 107.828 118.37 109.829 114.864 114.956C109.186 123.267 102.86 131.071 97.1466 139.357C96.3705 140.483 95.4463 141.504 95.4541 143.144C95.7544 144.91 97.1856 145.854 98.5038 146.895C123.347 166.59 148.006 186.532 173.021 205.996C174.331 207.017 175.914 207.867 175.579 210.022C173.875 210.03 172.17 210.038 170.462 210.046C161.566 207.547 155.596 200.375 148.595 194.964C128.701 179.582 109.447 163.309 89.3428 148.219C84.6394 144.691 80.2403 140.743 75.3536 137.466C73.3061 136.093 71.1026 134.583 70.7516 131.634C70.7438 130.549 71.1377 129.617 71.7617 128.779C79.3394 121.647 84.2533 112.3 90.6298 104.163C92.182 102.183 93.9136 100.259 94.7287 97.3956C92.3536 94.111 89.1712 91.8956 85.3219 90.2473C80.5133 94.52 77.4869 100.162 73.4972 104.945C71.0012 107.938 69.0083 111.372 66.4148 114.288C64.4727 116.479 64.1256 119.144 63.9072 121.906C62.9985 123.336 61.5594 123.656 60.0735 123.882C57.2733 123.453 54.8085 122.558 54.1416 119.213C54.5589 117.921 55.7367 117.164 56.2827 115.949C58.6149 113.766 60.7404 111.425 62.2458 108.092C59.3052 104.021 55.0932 101.684 51.3688 98.8576C46.3456 100.546 47.0671 104.872 46.6654 108.634C45.9595 109.805 44.6647 110.06 43.6507 110.756C40.7725 111.575 38.9083 113.66 37.2119 116.074C32.3408 123 27.3996 129.876 22.4271 136.725C19.9935 140.074 16.9827 143.444 12.4861 141.958C7.20161 140.208 1.91712 137.924 0.177734 131.448C0.583331 130.403 1.35554 129.824 2.38513 129.561C6.8779 129.885 9.76779 133.922 13.7536 134.98C15.6294 134.818 16.5732 133.602 17.4975 132.383C23.1252 124.96 28.2224 117.135 33.7253 109.614C34.6613 108.335 34.9655 106.828 35.2151 105.293C35.3126 104.795 35.4959 104.333 35.7182 103.888C36.4514 102.9 37.2431 101.964 38.1713 101.158C41.03 99.5461 43.2529 97.4077 44.0602 93.5966C36.0614 86.5334 27.3683 80.5071 19.2018 73.7881C15.9024 71.0746 11.5501 69.3899 10.0369 64.6878C10.1227 63.2055 10.9144 62.3672 12.2716 62.0472C16.0272 62.3591 18.4569 65.19 21.2259 67.2919C28.9985 73.1847 36.5567 79.3731 44.4424 85.1038C45.6709 85.9988 46.8331 86.9668 49.2706 87.4812C56.856 78.4052 63.4899 68.025 71.0558 57.9162C60.8925 49.2614 54.8202 37.9457 47.812 27.363C47.8393 24.9816 48.6622 23.2604 51.1933 22.9688C57.5151 28.7927 61.1382 36.7428 66.2004 43.563C68.6184 46.8232 71.0363 50.043 75.3848 50.7842C75.7163 46.8071 66.5904 32.5187 57.9597 23.1713C55.8264 22.3816 53.6152 25.5001 51.4429 23.1713C51.1816 18.5787 54.4926 17.9185 57.6477 17.0923C58.5525 16.6509 59.4534 16.2053 60.3582 15.7639C59.7927 17.4568 60.5493 18.769 61.4658 20.0569C67.4991 28.5336 73.5206 37.0224 79.5772 45.4828C79.9477 45.9971 80.5912 46.2968 81.3283 46.8679C83.4343 45.0251 85.0762 42.907 86.644 40.7078C88.6603 37.8769 91.0276 35.5683 94.4049 34.4829C97.1388 33.6 99.5295 31.9072 101.585 29.8863C105.691 25.8444 110.274 22.3533 114.127 18.0157C117.965 13.6984 122.851 11.8395 128.456 11.8476C130.62 11.8476 132.8 11.6734 134.953 11.8476C142.285 12.4389 148.759 10.264 154.519 5.61458C155.167 6.40028 155.822 6.25451 156.485 5.63891L156.492 5.61864Z" fill="#535454"></path></svg>