<svg xmlns="http://www.w3.org/2000/svg" width="42" height="59" viewBox="0 0 42 59" fill="none"><path d="M41.6426 53.5394C40.6832 55.9815 37.9025 56.5161 36.6545 58.6545C34.6109 58.8489 33.1679 57.8931 32.0642 56.1719C21.585 39.7937 11.0941 23.4196 0.622716 7.03739C0.458917 6.78224 0.50179 6.3813 0.400391 5.7819C2.18268 3.66781 4.4759 2.1369 7.55297 0.962402C11.0356 5.1177 13.9138 9.75896 16.4644 14.5015C19.6311 20.3942 23.3751 25.8618 26.9046 31.4872C30.6213 37.4164 34.4081 43.2929 38.234 49.1452C39.248 50.6963 40.0046 52.4985 41.6465 53.5353L41.6426 53.5394Z" fill="#333333"></path></svg>