<svg xmlns="http://www.w3.org/2000/svg" width="5" height="6" viewBox="0 0 5 6" fill="none"><path d="M4.12436 5.27419C4.15715 5.23484 4.17679 5.18894 4.17679 5.14303V2.2312C4.17679 1.94264 4.15714 1.68031 4.11123 1.43766C4.07188 1.19501 3.9932 0.985154 3.88171 0.801525C3.77022 0.624454 3.61284 0.480175 3.40954 0.381802C3.20624 0.276871 2.94386 0.230957 2.62251 0.230957C2.47167 0.230957 2.34052 0.237514 2.22247 0.250631C2.10442 0.263747 1.98644 0.28998 1.87495 0.322771C1.76346 0.355562 1.65196 0.401467 1.54048 0.453932C1.42899 0.506398 1.31091 0.578546 1.17974 0.657244V0.467052C1.17974 0.421144 1.1601 0.375236 1.12731 0.342445C1.09452 0.309654 1.04857 0.289978 1.00266 0.289978H0.228841C0.182934 0.289978 0.136985 0.309654 0.104194 0.342445C0.0714035 0.375236 0.0517578 0.421144 0.0517578 0.467052V5.14303C0.0517578 5.18894 0.0714035 5.23484 0.104194 5.27419C0.136985 5.31354 0.182934 5.33321 0.228841 5.33321H1.04861C1.09452 5.33321 1.14039 5.31354 1.17318 5.27419C1.20597 5.23484 1.22562 5.18894 1.22562 5.14303V1.54916C1.4158 1.45078 1.59291 1.37208 1.75687 1.31306C1.92082 1.2606 2.0782 1.2278 2.2356 1.2278C2.40611 1.2278 2.54384 1.24748 2.64877 1.28027C2.74714 1.31306 2.82582 1.36552 2.87829 1.43766C2.93075 1.5098 2.96356 1.61473 2.97668 1.73934C2.98979 1.8705 2.99637 2.0279 2.99637 2.22465V5.13648C2.99637 5.18238 3.01602 5.22829 3.04881 5.26764C3.0816 5.30699 3.12755 5.32666 3.17345 5.32666H3.99323C4.03913 5.32666 4.085 5.30699 4.11779 5.26764" fill="#0B5463"></path></svg>