<svg xmlns="http://www.w3.org/2000/svg" width="98" height="40" viewBox="0 0 98 40" fill="none"><path d="M25.6831 24.6602C25.2591 24.6685 24.8267 24.6103 24.4276 24.4441H24.411C23.6544 24.1198 23.2304 23.2967 23.3634 22.4819C23.4964 21.717 23.987 21.0019 24.5274 20.4532C25.1593 19.8712 26.0988 19.838 27.0383 20.4698C27.9778 21.1017 28.3686 22.1909 28.5681 24.4939C27.321 24.5854 26.9552 24.6353 25.6831 24.6686M29.624 15.4979C29.3996 15.2734 29.1169 15.1071 28.8259 14.8993C27.9196 14.2591 27.0632 14.2092 26.897 14.2092C26.2817 14.2092 24.7685 13.7602 23.2304 15.4896C21.1767 17.9007 19.5887 21.717 19.2395 22.3655C18.8155 23.2052 18.5993 24.5272 18.5993 25.2672C18.5993 25.6912 18.6741 26.0903 18.8155 26.4478C18.9568 26.8053 19.173 27.1462 19.4557 27.4705V27.4372C20.0876 28.1938 21.077 28.6178 22.4239 28.7176C22.5486 28.7425 22.6982 28.7509 22.8728 28.7675C23.0474 28.7758 23.2137 28.7841 23.38 28.7841C23.7043 28.7841 24.0202 28.7758 24.3112 28.7509C24.4775 28.7426 25.1842 28.7176 25.8078 28.6927C26.5311 28.6677 27.1131 29.3246 26.9468 30.023C26.9468 30.023 26.9468 30.0229 26.9468 30.0313C26.739 30.9126 21.2765 33.9722 19.3143 34.9949C16.5457 36.4333 14.384 37.3229 7.95703 39.9835C7.95703 39.9835 17.7429 39.9918 20.6031 39.9835C20.9938 39.9835 21.3846 39.9003 21.7338 39.734C22.1163 39.5594 22.5569 39.3599 22.5569 39.3599C25.5334 37.855 28.1025 35.5686 29.8568 32.7168C29.8568 32.7168 29.8568 32.7168 29.8568 32.7085C30.0065 32.4673 30.1479 32.2179 30.2892 31.9685C31.0458 30.58 31.5363 29.1749 31.952 27.7033C32.3678 26.2316 32.6006 24.7683 32.6421 23.2967V22.8727C32.6421 20.0126 31.6278 17.5515 29.6074 15.4896" fill="#052659"></path><path d="M2.97736 12.5791L0.158822 9.74392C-0.0490346 9.52775 -0.0490346 9.18685 0.158822 8.979L2.80276 6.35169C3.01894 6.14384 3.35983 6.14384 3.56768 6.35169L6.38622 9.18685C6.59408 9.40303 6.59408 9.74392 6.38622 9.95178L3.74228 12.5791C3.52611 12.7869 3.18522 12.7869 2.97736 12.5791Z" fill="#052659"></path><path d="M9.22932 12.5791L6.41078 9.74392C6.20292 9.52775 6.20292 9.18685 6.41078 8.979L9.05472 6.35169C9.27089 6.14384 9.61177 6.14384 9.81963 6.35169L12.6382 9.18685C12.846 9.40303 12.846 9.74392 12.6382 9.95178L9.99423 12.5791C9.77806 12.7869 9.43717 12.7869 9.22932 12.5791Z" fill="#052659"></path><path d="M75.8351 7.27466C80.1917 5.96932 84.856 4.95498 89.5619 4.11523C88.7222 5.32081 87.8824 6.52637 87.0427 7.73194C82.5364 8.82942 77.9386 9.81882 73.374 10.8498C74.1971 9.66085 75.0203 8.47192 75.8351 7.28297" fill="#052659"></path><path d="M54.6668 25.9738C54.2178 25.9572 53.7688 25.874 53.3614 25.6745C52.9623 25.4833 52.5965 25.2006 52.4053 24.7932C51.9979 23.5294 52.7877 22.3072 53.694 21.4924C54.3841 20.9187 55.8391 20.9021 56.3213 21.6504C57.0945 22.7229 57.5352 24.286 58.2669 25.9821C56.9532 26.0154 55.9971 26.0154 54.6668 25.9738ZM74.8289 24.4939C68.9174 24.9013 66.9969 24.9262 63.43 23.6791C59.5971 22.3322 60.8858 19.2642 58.3833 16.271C56.6123 14.1509 53.9767 14.6664 53.1369 14.9574C52.2889 15.2484 50.3849 16.4706 48.5807 22.3488C48.0569 24.0615 47.3835 26.0154 43.8915 26.0736C41.8877 26.1068 40.0669 25.1091 40.0669 22.3072C40.0669 20.4947 40.0669 20.3367 40.0669 19.0896C40.0669 12.8954 40.0669 6.33548 40.0669 0C38.8946 0.997714 38.0798 1.87902 36.9075 2.89337C36.7329 3.00977 36.1592 3.40885 36.1592 3.40885V26.4976C36.1592 28.3101 37.531 32.5504 41.6632 32.5504C42.9769 32.5504 43.6919 32.5255 44.8559 31.7855C46.4772 30.7628 47.7909 29.075 48.3562 27.2875C48.5059 28.8672 49.0546 30.5799 50.5512 31.4446C52.3055 32.459 54.1679 32.459 55.9804 32.5005C57.6932 32.5421 59.2479 31.4779 59.8466 29.8483C65.1095 30.5051 66.7641 30.9374 73.3822 30.8709C81.314 30.7878 86.6768 30.0146 92.688 28.9919C92.954 29.5739 93.2118 30.6215 93.4778 31.2035C94.7 28.2353 95.9305 24.8015 97.1528 21.8333C87.4832 23.2384 81.2226 24.0532 74.8123 24.4939" fill="#052659"></path><path d="M8.05619 26.3976C7.84834 26.3976 7.62385 26.3892 7.39106 26.3809C7.03354 26.3726 6.68434 26.2812 6.3684 26.1232C5.7864 25.8405 5.41226 25.2336 5.46214 24.5934C5.52866 23.7869 6.56794 22.4566 6.56794 22.4566C6.56794 22.4566 7.2996 21.5005 7.50745 21.251C7.55734 21.1928 7.64048 21.2011 7.68205 21.251C7.84834 21.4838 8.9292 22.6478 8.9292 22.6478C8.9292 22.6478 9.52782 23.3795 9.75231 23.87C10.2844 25.0673 9.36985 26.4225 8.05619 26.3892M13.1861 21.4921C12.7787 20.9184 11.8724 19.8709 11.3819 19.3969C8.82942 16.911 8.01463 16.0629 7.66543 15.6805C7.50746 15.5059 7.15826 15.1234 7.2414 14.7077C7.25803 14.6162 7.84834 13.71 7.84834 13.71C7.84834 13.71 4.59746 15.6971 4.215 15.9798C3.95726 16.171 3.71614 16.4121 3.65794 16.7696C3.65794 16.7946 3.65794 16.8278 3.64963 16.8528C3.64963 16.9525 3.61637 17.4181 4.03208 18.0999C4.23994 18.4408 4.7388 18.8233 4.60577 18.9646C4.48106 19.0893 4.39792 19.1974 4.33972 19.2722C4.33972 19.2722 3.6912 20.1369 3.10088 21.1596C1.73734 23.5458 -0.174943 27.1292 0.997371 29.6318C2.33597 32.4919 6.50142 32.6998 8.74628 32.442C10.0267 32.2924 12.5709 32.0014 14.3002 29.8979C16.4453 27.2789 14.849 23.8118 13.1944 21.4838" fill="#052659"></path></svg>