<svg xmlns="http://www.w3.org/2000/svg" width="48" height="77" viewBox="0 0 48 77" fill="none"><path d="M27.6808 4.44053C28.7299 2.72739 30.4381 1.72299 31.7914 0.337891C31.0426 6.28733 30.2431 12.2489 29.6308 18.1943C29.0692 23.6618 28.6519 29.267 31.69 34.6413C37.0486 44.1224 41.7909 53.98 46.7907 63.6798C47.6136 65.7088 47.2431 67.5191 45.4335 68.6369C41.3112 71.1844 37.3762 74.0842 33.3358 76.1335C29.6113 75.8581 28.18 73.2337 26.7994 70.6579C18.5588 55.2801 10.79 39.6269 2.10479 24.5042C1.0167 22.6128 -0.196215 20.6202 0.52138 18.1781C0.809978 17.4248 1.27412 16.8052 1.83572 16.2584C5.20139 13.7312 8.72302 11.4592 12.4124 9.47062C15.977 7.75747 19.4831 5.84994 23.5781 6.01599C23.9798 6.01599 24.3931 6.01597 24.7987 5.99977C25.1809 5.98357 25.567 5.93498 25.9453 5.85803C26.2885 5.70413 26.6044 5.50163 26.893 5.24648C27.1582 4.97918 27.4234 4.71188 27.6847 4.43648L27.6808 4.44053Z" fill="#333333"></path></svg>