<svg xmlns="http://www.w3.org/2000/svg" width="66" height="63" viewBox="0 0 66 63" fill="none"><path d="M61.563 37.2355C58.6927 39.297 56.8285 42.1563 55.5493 45.4692C54.5119 46.9029 53.8879 48.62 52.6906 49.9444C52.3708 50.2319 52.0549 50.5195 51.7351 50.803C46.7627 54.2536 41.6225 57.4166 36.2756 60.199C28.9203 64.0262 23.9322 62.4467 20.6679 55.1973C20.1142 53.9661 19.2562 52.8807 18.5386 51.7264C14.7829 43.2417 9.81436 35.4495 5.49319 27.2887C3.7343 23.9677 1.79209 20.7521 0.641602 16.9491C2.98158 13.2758 6.98686 12.0365 10.294 9.89809C13.531 7.80425 17.1658 6.38675 20.4964 4.4306C24.174 2.27196 28.3119 3.04954 32.1846 2.13829C36.2093 1.1906 40.4174 1.06909 44.5436 0.58714C45.9281 0.0930413 47.3009 0.0687503 48.6659 0.672199C50.7172 1.8953 52.6048 3.24394 52.5736 6.08704C56.0797 10.7688 64.0473 26.9161 65.4123 32.1082C65.2836 34.0401 63.084 34.5504 62.7291 36.3243L62.7058 36.2919C62.152 36.381 61.9179 36.8791 61.567 37.2315L61.563 37.2355Z" fill="#333333"></path></svg>