<svg xmlns="http://www.w3.org/2000/svg" width="18" height="39" viewBox="0 0 18 39" fill="none"><path d="M14.4379 33.1464C11.4505 26.9539 8.46702 20.7615 5.47964 14.565C2.60926 10.5677 -0.382005 6.61487 0.370689 1.13118C1.07658 0.762629 1.78636 0.390034 2.49225 0.0214844C4.00154 4.38738 5.51863 8.74518 8.00291 12.6615C9.37961 14.8323 10.2922 17.2542 10.9747 19.745C12.4801 25.2489 16.0486 29.8173 17.4838 35.3496C16.4464 36.3378 16.3099 38.2494 14.5159 38.464C14.8396 37.4353 15.1633 36.4107 15.4909 35.382C14.8591 34.7785 14.4769 34.0455 14.434 33.1423L14.4379 33.1464Z" fill="#51514F"></path></svg>