<svg xmlns="http://www.w3.org/2000/svg" width="5" height="89" viewBox="0 0 5 89" fill="none"><path d="M1.65722 32.6122C2.77651 32.3004 3.78665 31.9318 2.67906 30.4738C0.768072 28.9267 0.537977 26.7357 0.537977 24.4555C0.530177 17.2587 0.288299 10.0618 0.650996 2.86904C0.845995 1.51229 1.52459 0.629429 2.88958 0.422879C3.17817 0.39048 3.46686 0.358084 3.75545 0.325684C5.26864 2.29398 4.72655 4.63079 4.73045 6.82184C4.76555 34.1026 4.75378 61.3834 4.75768 88.6641C4.05958 88.3118 3.36154 87.9554 2.66344 87.603C0.752456 86.0357 0.549669 83.8122 0.530169 81.5321C0.40927 66.8792 0.428759 52.2263 0.518458 37.5734C0.530158 35.836 0.71733 34.1269 1.66112 32.6163L1.65722 32.6122Z" fill="#4F4F4F"></path></svg>