<svg xmlns="http://www.w3.org/2000/svg" width="4" height="7" viewBox="0 0 4 7" fill="none"><path d="M0.813259 1.34912C0.780468 1.38191 0.760742 1.42782 0.760742 1.47373V1.87378C0.760742 1.91968 0.780468 1.95903 0.813259 1.99182C0.84605 2.02461 0.891918 2.04429 0.937826 2.0574L1.77729 2.182V4.98891C1.77729 5.29058 1.80352 5.53323 1.85599 5.71685C1.90845 5.90704 1.99371 6.05132 2.1052 6.1497C2.21669 6.24807 2.36756 6.32021 2.54463 6.353C2.72825 6.39235 2.94467 6.40546 3.19388 6.40546C3.29225 6.40546 3.39716 6.40547 3.49553 6.38579C3.5939 6.37267 3.69881 6.35956 3.80374 6.33989C3.91523 6.32021 3.97426 6.26775 3.97426 6.18249V5.61849C3.97426 5.52667 3.90866 5.48732 3.78405 5.48732H3.30532C3.22006 5.48732 3.15453 5.48732 3.11518 5.47421C3.06928 5.46765 3.03646 5.44142 3.01023 5.40863C2.984 5.37584 2.97084 5.32337 2.96428 5.25778C2.96428 5.1922 2.95779 5.1004 2.95779 4.98891V2.182H3.771C3.81691 2.182 3.86278 2.16233 3.89557 2.12954C3.92836 2.09675 3.948 2.05084 3.948 2.00494V1.48028C3.948 1.43437 3.92836 1.38847 3.89557 1.35567C3.85622 1.32288 3.81691 1.30321 3.771 1.30321H2.95779V0.385068C2.95779 0.293253 2.91183 0.253906 2.81345 0.253906H2.78071L1.95437 0.398187C1.90847 0.411303 1.86252 0.430972 1.82973 0.463763C1.79694 0.496553 1.77729 0.529349 1.77729 0.581815V1.31633H0.937826C0.891918 1.31633 0.84605 1.336 0.813259 1.36879" fill="#0B5463"></path></svg>