<svg xmlns="http://www.w3.org/2000/svg" width="42" height="52" viewBox="0 0 42 52" fill="none"><path d="M16.7554 51.0973C15.5581 50.7774 14.7703 49.9795 14.1307 48.89C8.83843 39.9072 4.75511 30.2966 0.0400391 20.5361C3.26142 18.584 6.1552 16.6441 9.20497 15.016C17.4807 10.5934 25.8423 6.34896 34.1219 1.93851C36.5633 0.638466 39.0476 -0.0864904 41.7775 0.107909C41.719 5.0894 41.7073 10.0709 41.5786 15.0483C41.5435 16.401 41.4773 17.9279 40.8728 19.0538C38.5991 23.2982 37.3238 27.8909 36.3371 32.5605C35.6039 36.0232 33.147 38.0766 31.0956 40.5025C27.1215 45.2086 22.7418 49.3194 16.7593 51.0973H16.7554Z" fill="#333333"></path></svg>