<svg xmlns="http://www.w3.org/2000/svg" width="60" height="61" viewBox="0 0 60 61" fill="none"><path d="M0.408956 31.4129C5.17082 23.7503 10.4748 16.5089 16.1453 9.551C19.0547 6.82131 20.5328 2.75107 24.2027 0.442572C25.7471 -0.233777 27.1706 0.718003 28.6291 1.4875C29.0581 1.68595 29.491 1.88438 29.9239 2.07068C30.3217 2.31368 30.6961 2.5972 31.051 2.905C31.2304 3.0427 31.4137 3.18842 31.597 3.33017C32.8957 4.23332 33.9682 5.44428 35.3176 6.28263C36.3862 7.10883 37.4743 7.90261 38.5663 8.70046C40.7269 10.3812 42.6885 12.3374 45.0831 13.6901C45.7695 14.3016 46.2765 15.0793 46.881 15.7678C48.9597 17.3918 50.5899 19.6314 53.1093 20.6601C53.7099 20.9841 54.2598 21.3729 54.7122 21.8994C56.0888 23.6288 57.992 24.9531 58.6238 27.2657C59.0411 27.5087 59.4623 27.7476 59.8679 27.9825C57.5903 34.4058 40.255 57.6771 35.6608 60.1152C32.377 57.1871 27.6035 56.1178 24.6395 52.1326C23.6879 52.1974 22.7363 52.2582 21.7925 52.0233C15.6227 46.5761 9.18387 41.4892 2.63192 36.5523C0.986133 35.313 -0.538737 33.8995 0.408956 31.4007V31.4129Z" fill="#333333"></path></svg>