<svg xmlns="http://www.w3.org/2000/svg" width="62" height="61" viewBox="0 0 62 61" fill="none"><path d="M58.6888 57.228C57.2146 57.4791 55.6702 57.5195 54.2819 58.0217C44.5397 61.525 34.6065 60.711 24.6304 59.6863C21.1594 59.3299 17.6417 59.3016 14.1473 59.3583C9.40881 59.4393 5.20848 58.5037 2.381 54.0487C2.0612 53.5425 1.26177 53.3683 0.68457 53.0403C1.50746 49.695 1.62055 46.2808 1.64785 42.8545C1.73755 31.8912 1.81558 20.932 1.96768 9.96863C1.99888 7.74923 2.32254 5.53792 2.51363 3.32258C3.24683 3.29828 3.97998 3.27396 4.71318 3.24966C10.3642 0.85206 16.2221 1.92126 21.9589 2.44371C27.4696 2.94591 32.7813 3.23346 38.2568 1.63371C43.2371 0.179765 48.5488 0.584786 53.65 1.40288C57.9322 2.08733 61.372 7.17004 61.4773 11.5967C61.6216 17.8175 61.216 23.9573 59.9641 30.0606C58.642 36.5001 58.8136 43.1259 57.94 49.6342C57.6553 51.7443 57.4837 53.7612 55.7248 55.1706C56.7115 55.8591 57.6982 56.5435 58.6849 57.232L58.6888 57.228Z" fill="#545555"></path></svg>