<svg xmlns="http://www.w3.org/2000/svg" width="445" height="698" viewBox="0 0 445 698" fill="none"><path d="M31.7417 349.572C31.5935 348.033 31.7652 346.555 32.5373 345.194C34.577 344.671 34.031 342.614 34.4483 341.306C36.2735 335.575 38.7383 330.201 41.8739 325.138C44.3113 321.088 48.457 319.654 52.3258 317.824C54.4123 316.836 56.6899 316.208 58.168 314.033C58.5853 312.279 57.9379 310.817 56.7016 309.416C53.5387 308.906 51.2845 313.956 47.7316 311.141C48.2698 308.323 48.3985 305.411 49.6153 302.758C51.3118 302.892 52.3843 301.899 53.6635 300.19C52.1815 291.738 51.3937 282.82 43.5665 276.874C41.48 275.291 39.5924 273.258 38.6837 270.556C38.1494 267.859 35.8639 267.458 34.1207 267.049C28.3292 257.471 22.8498 248.245 16.7853 239.979C14.3517 239.821 13.7239 240.821 13.7395 242.47C9.65233 242.47 9.77323 238.813 8.66954 236.212C8.59934 234.904 8.41208 233.649 7.14459 232.912C4.12601 229.056 0.491271 225.512 0.943668 219.879C1.89916 218.393 3.22905 217.368 4.75004 216.578C7.17583 219.421 8.72413 222.839 10.522 226.096L10.5571 226.132C14.1255 231.47 17.694 236.808 21.594 242.644C25.9971 238.792 31.7144 237.585 34.7486 232.365C35.3765 231.284 36.4724 230.749 37.5254 230.255C44.5376 226.962 50.797 222.357 56.9511 217.692C62.5476 213.447 68.8149 210.888 75.0627 208.13C76.9775 207.283 78.9274 207.198 80.9242 207.425C86.5207 208.057 92.1133 208.717 97.7058 209.369C97.5849 212.301 95.0266 211.779 93.4393 212.646C90.7873 212.885 88.0808 212.897 85.4834 212.528C76.646 211.281 69.236 214.914 62.1381 219.547C51.0154 226.808 40.3646 234.783 29.9828 243.138C28.9455 243.972 27.7755 244.738 27.4557 246.475C27.8808 248.8 29.3511 250.537 31.4531 252.048C35.6495 251.116 38.8358 248.176 42.0767 245.649C49.1629 240.125 56.7483 237.549 65.7495 238.128C75.5306 238.756 85.3819 238.258 95.1982 238.278C97.6863 238.282 100.217 238.128 102.405 239.756C103.642 241.437 103.31 242.798 101.633 243.883C99.6285 244.997 97.4328 244.807 95.2801 244.811C84.286 244.835 73.2882 244.92 62.2942 244.774C57.778 244.713 53.796 245.766 50.1301 248.553C45.5983 251.995 40.5713 254.729 36.3593 258.532C37.1393 263.603 41.047 265.579 44.0968 267.952C51.7369 273.89 57.0213 281.058 58.827 291.078C60.0087 297.635 62.3916 303.936 64.7043 309.736C67.5513 310.757 69.1932 309.27 70.9286 308.391C77.5157 305.054 83.9897 301.482 90.6391 298.287C94.0945 296.626 97.6513 294.945 101.657 296.331C102.725 296.756 103.123 297.829 103.755 298.672C106.06 301.373 107.011 305.123 109.878 307.351C117.97 306.929 125.832 307.63 133.469 311.125C136.838 308.302 140.504 306.063 143.16 302.333C146.615 297.481 150.504 292.957 154.209 288.299C156.135 285.878 157.582 283.371 157.933 280.029C158.491 274.72 159.829 269.503 160.46 264.198C160.819 261.197 162.172 259.111 164.146 257.123C168.213 253.028 172.094 248.731 176.212 244.697C178.755 242.206 180.147 239.347 180.826 235.787C182.671 226.128 184.913 216.55 186.766 206.891C187.616 202.468 189.605 198.835 192.53 195.668C197.709 190.055 203.11 184.664 207.931 178.69C209.553 176.678 210.984 174.697 211.909 172.206C217.778 156.403 223.776 140.653 229.661 124.858C230.594 122.359 231.97 120.452 233.987 118.714C242.052 111.776 249.945 104.62 257.917 97.5691C260.826 94.9933 263.864 92.5674 266.707 89.9187C271.192 85.7431 277.171 85.7998 282.409 83.7789C284.101 83.1268 285.961 82.9365 287.51 81.5919C287.553 77.8902 286.702 74.3788 285.552 70.985C283.473 64.8573 283.38 58.9565 285.782 52.8005C288.216 46.5635 290.01 40.0592 292.081 33.6724C292.568 32.1698 293.286 30.8657 294.514 29.8411C299.83 25.4145 305.11 20.9756 311.186 17.6263C318.975 13.3374 326.704 8.91478 334.282 4.24514C337.468 2.28089 340.842 0.794548 344.219 -0.562202C349.589 -2.72085 352.468 -7.40265 355.861 -11.5944C359.924 -16.6164 363.844 -21.7639 367.822 -26.8588C369 -28.3695 370.54 -29.3536 372.135 -30.3256C377.47 -33.5696 382.731 -36.919 385.777 -42.8765C387.084 -45.4321 389.591 -46.1165 392.009 -46.7686C397.649 -48.2914 403.312 -49.7291 408.97 -51.1669C417.695 -53.3822 426.474 -55.391 435.131 -57.8534C438.875 -58.9186 441.422 -62.2274 444.253 -64.8518C449.834 -70.0277 455.45 -75.1712 460.863 -80.5374C464.026 -83.6721 467.454 -84.2188 471.425 -82.9552C472.212 -82.7041 473.066 -82.6879 473.889 -82.5624V-80.4848C467.525 -82.7973 462.907 -80.2134 458.387 -75.483C452.42 -69.242 445.806 -63.6732 439.476 -57.8048C437.526 -55.9985 435.089 -55.3505 432.663 -54.7471C419.395 -51.4342 406.112 -48.178 392.836 -44.8813C391.042 -44.4358 389.295 -43.8526 388.195 -42.103C384.264 -35.8457 378.664 -31.6783 372.439 -28.1427C368.547 -25.9314 366.5 -21.6627 363.696 -18.2688C359.905 -13.6842 356.321 -8.91328 352.756 -4.13024C350.171 -0.65535 346.45 0.976791 342.788 2.54414C334.122 6.26202 326.408 11.766 318.183 16.2979C310.843 20.3398 303.5 24.4384 297.236 30.2906C295.824 31.6109 294.631 32.8826 294.027 34.7618C291.612 42.307 289.214 49.8561 286.699 57.3648C285.724 60.2727 285.759 63.0186 286.57 65.9832C288.067 71.4426 289.245 76.9951 290.485 82.1994C289.432 84.3499 287.67 84.5524 286.117 85.0627C284.21 85.6824 282.303 86.4276 280.342 86.707C271.387 87.9666 265.128 93.8553 258.732 99.7197C251.63 106.236 244.38 112.599 236.962 118.722C234.072 121.108 232.169 123.882 230.89 127.353C225.173 142.852 219.397 158.335 213.668 173.83C213.001 175.633 212.057 177.188 210.852 178.674C205.579 185.162 199.873 191.221 194.004 197.102C191.099 200.014 189.538 203.408 188.758 207.441C186.758 217.777 184.605 228.084 182.499 238.399C182.004 240.817 180.978 242.899 179.211 244.669C175.019 248.881 171.096 253.393 166.763 257.439C163.545 260.444 162.227 264.064 161.743 268.321C161.311 272.091 160.336 275.809 160.144 279.584C159.93 283.881 157.867 287.032 155.414 290.13C151.397 295.201 147.563 300.433 143.363 305.33C141.062 308.011 138.328 310.376 135.493 312.446C133.122 314.175 130.341 313.251 127.782 312.365C122.997 310.704 118.122 309.728 113.048 310.153C112.218 310.222 111.383 310.254 110.116 311.291C109.195 316.192 109.944 321.655 109.772 326.892C110.549 327.657 110.95 328.386 111.508 328.556C120.271 331.225 125.786 338.487 132.104 344.485C139.112 351.135 145.426 358.575 152.442 365.213C157.863 370.344 162.551 376.18 167.882 381.364C178.373 391.566 187.085 403.384 196.274 414.773C199.039 418.199 201.8 421.625 204.975 425.562C196.594 434.796 186.945 442.151 178.139 450.445C169.286 458.788 159.735 466.317 151.135 475.194C153.222 479.921 156.896 483.29 159.864 487.146C169.325 499.417 179.153 511.381 188.618 523.649C193.263 529.671 196.297 536.297 195.911 544.559C195.533 552.679 194.881 560.738 194.047 568.81C193.177 577.218 192.534 585.65 191.754 594.07C190.865 603.685 189.932 613.299 189.012 622.914C188.782 625.307 188.458 627.705 189.464 630.013C192.733 631.824 196.149 631.131 199.39 631.067C206.055 630.933 212.307 632.427 218.18 635.521C225.262 639.252 230.952 644.824 235.886 651.175C238.702 654.799 241.229 658.7 243.596 662.665C247.671 669.481 252.726 675.377 258.233 680.971C263.997 686.827 270.939 690.184 278.423 692.886C288.715 696.595 298.617 696.389 309.139 693.104C317.118 690.614 324.197 686.726 331.341 682.688C340.401 677.568 349.593 672.656 358.392 667.083C372.939 657.873 389.365 653.572 405 647.23C423.463 639.746 442.112 632.747 460.692 625.575C465.064 623.886 469.486 622.339 473.885 620.727V623.845C466.339 625.441 459.397 628.88 452.217 631.581C436.102 637.64 420.035 643.828 403.943 649.96C393.94 653.771 383.929 657.558 373.933 661.377C368.586 663.422 363.887 666.779 358.91 669.562C345.732 676.929 333.003 685.296 319.411 691.691C306.202 697.908 291.979 700.281 277.643 694.89C269.652 691.885 262.125 688.155 255.869 681.752C249.52 675.252 244.185 668.015 239.528 660.243C234.969 652.637 229.283 646.124 222.474 640.859C217.731 637.194 212.424 634.643 206.082 634.011C190.985 632.512 175.881 632.152 160.745 632.006C156.112 631.962 151.463 631.386 146.826 631.042C137.127 630.321 128.024 632.512 118.968 635.679C111.391 638.328 103.603 640.187 95.7013 641.495C93.1234 641.078 90.2686 640.835 93.0844 637.02C101.469 638.154 109.086 634.983 116.804 632.415C117.557 632.132 118.352 631.986 118.941 631.751C117.639 631.937 116.375 632.808 114.944 633.181C108.918 635.027 102.979 637.271 96.5475 637.028C95.5999 636.255 95.1202 635.307 95.479 634.031C96.7698 632.626 98.4546 631.682 100.159 631.249C112.089 628.24 123.773 624.404 136.378 624.51C149.872 624.619 163.315 625.777 176.797 625.716C178.942 625.708 181.142 626.008 183.306 624.911C184.983 623.116 185.299 620.658 185.436 618.285C186.746 595.374 188.556 572.483 190.958 549.69C192.12 538.666 188.739 530.752 182.312 522.907C171.961 510.275 162.356 496.996 151.958 484.396C151.112 483.371 150.457 482.059 148.729 481.662C146.019 481.707 144.303 483.946 142.314 485.737C134.9 492.407 127.759 499.413 120.037 505.715C118.036 507.347 115.934 508.704 113.216 508.315C112.424 508.093 111.828 507.602 111.414 506.869C110.747 504.099 112.635 502.791 114.374 501.459C124.425 493.752 133.445 484.801 142.719 476.158C143.09 475.814 143.371 475.377 143.558 474.133C141.506 469.816 137.977 466.074 134.214 462.218C128.34 464.259 125.045 469.399 120.743 473.003C117.132 476.033 113.563 477.762 108.977 477.483C102.023 477.062 95.011 478.281 88.0846 476.713C86.86 475.766 85.1792 475.158 85.499 473.04C86.8211 471.035 88.8685 471.051 90.8692 471.007C95.5296 470.901 100.237 470.561 104.847 471.059C111.289 471.756 116.145 469.063 120.361 464.567C123.118 461.627 126.293 459.092 128.863 455.661C125.879 448.679 120.922 443.26 116.551 437.481C112.557 432.204 110.537 426.339 110.646 419.766C110.779 411.804 110.065 403.906 109.534 395.989C109.406 394.045 108.879 392.311 107.978 390.598C98.3416 372.256 88.5214 354.027 77.3831 336.6C73.4558 330.456 68.2649 325.713 62.025 321.457C56.2881 323.474 50.9101 326.487 45.649 329.747C44.9353 330.189 44.4049 330.942 44.1202 331.756C41.1368 340.277 35.9186 348.138 36.9404 357.846C37.0145 358.538 37.0261 359.284 36.761 359.899C31.5935 371.782 35.6963 383.956 35.6144 396.001C35.5715 402.582 36.9482 409.05 36.7961 415.623C36.7454 417.851 36.9365 420.2 34.7876 421.698C33.9647 421.994 33.2042 421.856 32.51 421.326C32.1707 417.919 31.4882 414.505 31.5545 411.103C31.8821 393.368 30.174 375.674 30.5952 357.943C30.6459 355.744 30.1233 353.435 31.4727 351.419C32.9508 352.621 31.7651 354.488 32.3111 355.918C31.7066 353.849 32.8025 351.572 31.7378 349.58L31.7417 349.572Z" fill="#525353"></path></svg>