<svg xmlns="http://www.w3.org/2000/svg" width="63" height="61" viewBox="0 0 63 61" fill="none"><path d="M17.1799 55.0602C11.5483 40.8771 5.91677 26.69 0.285208 12.5069C-0.666385 9.62331 1.1744 8.33136 3.21409 7.44441C10.6591 4.20847 17.9404 0.324547 26.3721 0.656646C28.3845 0.737646 30.354 1.00089 32.2455 1.66509C35.8295 2.92059 39.3668 3.08664 42.8807 1.49094C46.5467 -0.169553 48.5551 1.06569 50.2126 4.88079C52.3459 9.79748 53.239 15.0503 54.9316 20.0683C55.7116 22.3768 56.5657 24.5718 58.27 26.3133C58.7653 26.9694 59.1709 27.6863 59.5492 28.4153C59.7481 28.9175 59.9001 29.4399 60.0171 29.9705C60.957 33.5223 63.4296 36.7137 62.3727 40.7435C61.1716 43.1978 58.6054 43.461 56.5657 44.4694C46.9483 49.2322 37.4909 54.3271 27.8853 59.1142C25.7949 60.1591 23.7279 61.3498 21.5088 60.8517C18.9075 59.6205 18.8568 56.7085 17.176 55.0561L17.1799 55.0602Z" fill="#333333"></path></svg>