<svg xmlns="http://www.w3.org/2000/svg" width="73" height="69" viewBox="0 0 73 69" fill="none"><path d="M68.5255 32.9463C69.5083 37.7861 68.3461 39.1307 60.866 42.5286C59.0525 42.395 58.253 40.4267 55.7765 39.7625C41.8069 47.8057 29.5453 59.7006 14.7176 68.6349C9.90117 61.1262 5.2563 53.8848 0.677734 46.7487C2.70572 43.7963 5.13148 42.5651 7.43637 41.2772C15.3338 36.8627 21.8701 30.8484 27.2131 23.4248C28.1413 22.1369 29.1865 21.1123 30.4774 20.2982C34.0147 18.0707 36.2845 14.7133 38.2461 11.0521C39.5409 8.63831 40.9293 6.27717 42.228 3.86337C43.8231 0.894728 46.2684 -0.0853874 49.3845 0.453262C55.9364 1.58321 62.4845 2.73338 69.0208 3.87143C73.6462 10.0072 73.693 14.5877 68.8843 19.8851C66.9968 21.9668 65.9788 24.0323 66.8953 26.8551C67.1605 27.6773 67.3243 28.5319 66.8563 29.4067C65.8696 30.5892 64.454 30.4111 63.1709 30.326C59.8247 30.0992 57.005 31.3709 54.2906 33.2096C41.1906 42.0831 28.0633 50.9202 14.9555 59.7856C14.2769 60.2433 13.5047 60.6928 13.4696 62.001C15.2792 62.7948 16.5077 61.4097 17.7791 60.5511C26.4409 54.7232 35.0638 48.8304 43.7178 42.9863C47.7621 40.2525 51.8921 37.6484 55.8935 34.8458C59.7896 32.1161 63.9236 32.0229 68.5294 32.9423L68.5255 32.9463Z" fill="#333333"></path></svg>