<svg xmlns="http://www.w3.org/2000/svg" width="118" height="23" viewBox="0 0 118 23" fill="none"><path d="M1.79974 16.8095H1.78968L0.849659 14.3916H0.166016V17.5384H0.588284V14.9094H0.598317L1.63888 17.5384H1.92038L2.96094 14.9094H2.971V17.5384H3.41337V14.3916H2.72972L1.79974 16.8095Z" fill="#183660"></path><path d="M4.57446 15.4326H4.15723V17.5389H4.57446V15.4326Z" fill="#183660"></path><path d="M4.36342 14.4019C4.28801 14.4019 4.22266 14.427 4.16736 14.4773C4.11207 14.5275 4.08691 14.5929 4.08691 14.6683C4.08691 14.7437 4.11207 14.804 4.16736 14.8593C4.22266 14.9096 4.28299 14.9397 4.36342 14.9397C4.44384 14.9397 4.50414 14.9146 4.55944 14.8643C4.61473 14.8141 4.63989 14.7487 4.63989 14.6733C4.63989 14.5979 4.61473 14.5326 4.55944 14.4823C4.50414 14.432 4.43882 14.4069 4.36342 14.4069" fill="#183660"></path><path d="M6.99234 15.6284C6.92699 15.553 6.84657 15.4877 6.74603 15.4424C6.65052 15.3972 6.52987 15.3721 6.39415 15.3721C6.31874 15.3721 6.24334 15.3821 6.17296 15.4022C6.10259 15.4223 6.03723 15.4525 5.97691 15.4877C5.91659 15.5229 5.86632 15.5681 5.82108 15.6184C5.77584 15.6686 5.74066 15.7189 5.7105 15.7742H5.69541C5.69541 15.729 5.69541 15.6737 5.69541 15.6083C5.69541 15.543 5.68537 15.4827 5.68034 15.4274H5.2832C5.28823 15.4977 5.29327 15.5731 5.2983 15.6636C5.2983 15.7541 5.2983 15.8245 5.2983 15.8798V17.5336H5.71553V16.4126C5.71553 16.2015 5.7658 16.0356 5.87137 15.9099C5.97693 15.7843 6.11265 15.7189 6.27854 15.7189C6.37405 15.7189 6.45447 15.739 6.51982 15.7742C6.58014 15.8094 6.6304 15.8597 6.66559 15.915C6.70077 15.9753 6.72592 16.0406 6.741 16.1211C6.75608 16.1965 6.7611 16.2819 6.7611 16.3674V17.5336H7.17833V16.2266C7.17833 16.106 7.16324 15.9954 7.13308 15.8949C7.10292 15.7943 7.05266 15.6988 6.98731 15.6234" fill="#183660"></path><path d="M8.30981 15.4326H7.89258V17.5389H8.30981V15.4326Z" fill="#183660"></path><path d="M8.10365 14.4019C8.02825 14.4019 7.96289 14.427 7.9076 14.4773C7.8523 14.5275 7.82715 14.5929 7.82715 14.6683C7.82715 14.7437 7.8523 14.804 7.9076 14.8593C7.96289 14.9096 8.02322 14.9397 8.10365 14.9397C8.18408 14.9397 8.24438 14.9146 8.29967 14.8643C8.35497 14.8141 8.38012 14.7487 8.38012 14.6733C8.38012 14.5979 8.35497 14.5326 8.29967 14.4823C8.24438 14.432 8.17905 14.4069 8.10365 14.4069" fill="#183660"></path><path d="M10.2848 16.4979C10.2195 16.4477 10.1441 16.4075 10.0586 16.3773C9.97316 16.3471 9.87765 16.317 9.77712 16.2918C9.61626 16.2567 9.49563 16.2164 9.4152 16.1762C9.33477 16.131 9.29456 16.0656 9.29456 15.9802C9.29456 15.9299 9.30458 15.8897 9.32972 15.8545C9.34983 15.8193 9.38001 15.7942 9.42023 15.769C9.45542 15.7489 9.50066 15.7288 9.5459 15.7188C9.59114 15.7087 9.64139 15.7037 9.68664 15.7037C9.7922 15.7037 9.88771 15.7288 9.97317 15.7791C10.0586 15.8294 10.124 15.8897 10.1743 15.9701L10.4608 15.7238C10.3854 15.6132 10.2748 15.5278 10.134 15.4674C9.99328 15.4071 9.8475 15.377 9.6967 15.377C9.59616 15.377 9.49562 15.392 9.40513 15.4172C9.30962 15.4423 9.22417 15.4825 9.15379 15.5328C9.07839 15.5831 9.01807 15.6534 8.97283 15.7339C8.92759 15.8143 8.90245 15.9148 8.90245 16.0254C8.90245 16.1209 8.92255 16.2064 8.95774 16.2717C8.99293 16.3371 9.04321 16.3924 9.10354 16.4376C9.16386 16.4829 9.22918 16.5181 9.29956 16.5432C9.36994 16.5683 9.44536 16.5884 9.51574 16.6085C9.69671 16.6487 9.8324 16.694 9.92791 16.7443C10.0234 16.7895 10.0687 16.8649 10.0687 16.9604C10.0687 17.0207 10.0586 17.071 10.0335 17.1062C10.0084 17.1464 9.97819 17.1766 9.93798 17.2017C9.89776 17.2268 9.85252 17.2419 9.80728 17.252C9.75701 17.262 9.70674 17.2671 9.65144 17.2671C9.5308 17.2671 9.42526 17.2369 9.32472 17.1816C9.22418 17.1263 9.14877 17.0559 9.09347 16.9705L8.79688 17.2218C8.89741 17.3475 9.02309 17.443 9.17892 17.5033C9.32973 17.5636 9.48555 17.5988 9.64641 17.5988C9.75198 17.5988 9.85754 17.5888 9.95807 17.5636C10.0586 17.5385 10.1491 17.5033 10.2245 17.448C10.3049 17.3927 10.3653 17.3223 10.4155 17.2369C10.4608 17.1514 10.4859 17.0459 10.4859 16.9202C10.4859 16.8297 10.4658 16.7493 10.4306 16.6789C10.3954 16.6136 10.3451 16.5532 10.2798 16.503" fill="#183660"></path><path d="M11.4862 14.8291H11.074V15.4323H10.6719V15.7742H11.074V16.9152C11.074 17.1364 11.1243 17.2973 11.2298 17.4079C11.3354 17.5185 11.4862 17.5738 11.6873 17.5738C11.7526 17.5738 11.818 17.5687 11.8783 17.5587C11.9386 17.5486 11.9939 17.5335 12.0442 17.5185L12.0291 17.1766C11.9939 17.1917 11.9537 17.2068 11.9085 17.2118C11.8632 17.2219 11.823 17.2219 11.7828 17.2219C11.6772 17.2219 11.6018 17.1967 11.5566 17.1415C11.5114 17.0862 11.4862 16.9957 11.4862 16.87V15.7742H12.0442V15.4323H11.4862V14.8291Z" fill="#183660"></path><path d="M13.1457 15.4878C13.0301 15.5632 12.9446 15.6638 12.8843 15.7894H12.8692C12.8692 15.7442 12.8692 15.6889 12.8692 15.6185C12.8692 15.5482 12.8642 15.4878 12.8541 15.4325H12.457C12.4621 15.5029 12.4671 15.5783 12.4721 15.6688C12.4721 15.7593 12.4721 15.8297 12.4721 15.885V17.5388H12.8893V16.4329C12.8893 16.3424 12.8994 16.2569 12.9245 16.1765C12.9497 16.0961 12.9849 16.0257 13.0351 15.9604C13.0854 15.9 13.1457 15.8498 13.2211 15.8096C13.2965 15.7744 13.382 15.7543 13.4825 15.7543C13.5478 15.7543 13.6132 15.7593 13.6735 15.7744L13.6886 15.3873C13.6434 15.3772 13.5881 15.3672 13.5227 15.3672C13.382 15.3672 13.2513 15.4074 13.1407 15.4828" fill="#183660"></path><path d="M14.8847 17.0865L14.2312 15.4326H13.7637L14.6635 17.5389L14.5278 17.8907C14.4825 18.0013 14.4323 18.0918 14.382 18.1521C14.3267 18.2125 14.2463 18.2426 14.1357 18.2426C14.0653 18.2426 13.9999 18.2326 13.9296 18.2074L13.8893 18.5744C13.9346 18.5844 13.9849 18.5945 14.0301 18.5995C14.0754 18.6046 14.1206 18.6046 14.1658 18.6046C14.2714 18.6046 14.3568 18.5895 14.4323 18.5643C14.5077 18.5392 14.573 18.499 14.6283 18.4487C14.6836 18.3985 14.7339 18.3432 14.7741 18.2728C14.8143 18.2024 14.8545 18.122 14.8897 18.0365L15.9101 15.4326H15.4678L14.8847 17.0865Z" fill="#183660"></path><path d="M19.2372 15.6837C19.1367 15.5882 19.0161 15.5078 18.8753 15.4525C18.7346 15.3972 18.5888 15.3721 18.4279 15.3721C18.2671 15.3721 18.1162 15.4022 17.9805 15.4525C17.8398 15.5078 17.7191 15.5832 17.6186 15.6837C17.5181 15.7792 17.4376 15.8999 17.3823 16.0306C17.322 16.1663 17.2969 16.3121 17.2969 16.478C17.2969 16.6439 17.327 16.7896 17.3823 16.9254C17.4426 17.0611 17.5181 17.1767 17.6186 17.2772C17.7191 17.3778 17.8398 17.4532 17.9805 17.5085C18.1213 17.5638 18.2671 17.5889 18.4279 17.5889C18.5888 17.5889 18.7396 17.5587 18.8753 17.5085C19.0161 17.4532 19.1367 17.3778 19.2372 17.2772C19.3378 17.1767 19.4182 17.0611 19.4785 16.9254C19.5338 16.7896 19.564 16.6388 19.564 16.478C19.564 16.3171 19.5338 16.1663 19.4785 16.0306C19.4182 15.8949 19.3378 15.7792 19.2372 15.6837ZM19.0864 16.7695C19.0563 16.86 19.011 16.9404 18.9507 17.0159C18.8904 17.0862 18.82 17.1415 18.7295 17.1817C18.6441 17.2219 18.5435 17.2421 18.4279 17.2421C18.3123 17.2421 18.2168 17.2219 18.1263 17.1817C18.0408 17.1415 17.9655 17.0862 17.9051 17.0159C17.8448 16.9455 17.7996 16.865 17.7694 16.7695C17.7392 16.679 17.7241 16.5835 17.7241 16.483C17.7241 16.3825 17.7392 16.287 17.7694 16.1965C17.7996 16.106 17.8448 16.0256 17.9051 15.9552C17.9655 15.8848 18.0358 15.8295 18.1263 15.7893C18.2117 15.7491 18.3123 15.729 18.4279 15.729C18.5435 15.729 18.639 15.7491 18.7295 15.7893C18.815 15.8295 18.8904 15.8848 18.9507 15.9552C19.011 16.0256 19.0563 16.106 19.0864 16.1965C19.1166 16.287 19.1317 16.3825 19.1317 16.483C19.1317 16.5835 19.1166 16.679 19.0864 16.7695Z" fill="#183660"></path><path d="M20.6549 14.1905C20.5544 14.2357 20.4739 14.2961 20.4086 14.3715C20.3432 14.4469 20.298 14.5373 20.2729 14.6429C20.2427 14.7485 20.2326 14.8641 20.2326 14.9898V15.4321H19.8154V15.774H20.2326V17.5384H20.6499V15.774H21.1375V15.4321H20.6499V14.9898C20.6499 14.9244 20.6499 14.8641 20.665 14.7987C20.675 14.7384 20.6901 14.6831 20.7203 14.6379C20.7454 14.5926 20.7856 14.5524 20.8359 14.5223C20.8861 14.4921 20.9515 14.4821 21.0269 14.4821C21.0671 14.4821 21.1073 14.4821 21.1375 14.4921C21.1677 14.4971 21.2028 14.5072 21.238 14.5122L21.2883 14.1503C21.2129 14.1302 21.1274 14.1201 21.0269 14.1201C20.8861 14.1201 20.7655 14.1402 20.665 14.1855" fill="#183660"></path><path d="M23.1991 16.0957H24.687V15.7187H23.1991V14.7787H24.7775V14.3916H22.7617V17.5384H24.8428V17.1463H23.1991V16.0957Z" fill="#183660"></path><path d="M27.0998 15.6284C27.0344 15.553 26.954 15.4877 26.8535 15.4424C26.7529 15.3972 26.6373 15.3721 26.5016 15.3721C26.4262 15.3721 26.3508 15.3821 26.2804 15.4022C26.21 15.4223 26.1447 15.4525 26.0843 15.4877C26.024 15.5229 25.9737 15.5681 25.9285 15.6184C25.8833 15.6686 25.8481 15.7189 25.8179 15.7742H25.8028C25.8028 15.729 25.8028 15.6737 25.8028 15.6083C25.8028 15.543 25.7978 15.4827 25.7878 15.4274H25.3906C25.3957 15.4977 25.4007 15.5731 25.4057 15.6636C25.4057 15.7541 25.4057 15.8245 25.4057 15.8798V17.5336H25.823V16.4126C25.823 16.2015 25.8732 16.0356 25.9788 15.9099C26.0844 15.7843 26.2201 15.7189 26.386 15.7189C26.4865 15.7189 26.5619 15.739 26.6272 15.7742C26.6876 15.8094 26.7378 15.8597 26.773 15.915C26.8082 15.9753 26.8333 16.0406 26.8484 16.1211C26.8635 16.1965 26.8685 16.2819 26.8685 16.3674V17.5336H27.2858V16.2266C27.2858 16.106 27.2707 15.9954 27.2405 15.8949C27.2103 15.7943 27.1601 15.6988 27.0947 15.6234" fill="#183660"></path><path d="M28.7635 17.0915H28.7535L28.1352 15.4326H27.6777L28.5323 17.5389H28.9847L29.8292 15.4326H29.3869L28.7635 17.0915Z" fill="#183660"></path><path d="M30.4474 14.4019C30.372 14.4019 30.3066 14.427 30.2513 14.4773C30.2011 14.5275 30.1709 14.5929 30.1709 14.6683C30.1709 14.7437 30.196 14.804 30.2513 14.8593C30.3066 14.9096 30.3669 14.9397 30.4474 14.9397C30.5278 14.9397 30.5881 14.9146 30.6434 14.8643C30.6987 14.8141 30.7239 14.7487 30.7239 14.6733C30.7239 14.5979 30.6987 14.5326 30.6434 14.4823C30.5881 14.432 30.5228 14.4069 30.4474 14.4069" fill="#183660"></path><path d="M30.6545 15.4326H30.2373V17.5389H30.6545V15.4326Z" fill="#183660"></path><path d="M32.0568 15.4878C31.9412 15.5632 31.8558 15.6638 31.7954 15.7894H31.7804C31.7804 15.7442 31.7804 15.6889 31.7804 15.6185C31.7804 15.5482 31.7753 15.4878 31.7653 15.4325H31.3682C31.3732 15.5029 31.3782 15.5783 31.3833 15.6688C31.3833 15.7593 31.3833 15.8297 31.3833 15.885V17.5388H31.8005V16.4329C31.8005 16.3424 31.8105 16.2569 31.8357 16.1765C31.8608 16.0961 31.896 16.0257 31.9463 15.9604C31.9965 15.9 32.0569 15.8498 32.1323 15.8096C32.2077 15.7744 32.2931 15.7543 32.3936 15.7543C32.459 15.7543 32.5243 15.7593 32.5847 15.7744L32.5997 15.3873C32.5545 15.3772 32.4992 15.3672 32.4339 15.3672C32.2931 15.3672 32.1624 15.4074 32.0518 15.4828" fill="#183660"></path><path d="M34.7206 15.6837C34.6201 15.5882 34.4995 15.5078 34.3587 15.4525C34.218 15.3972 34.0722 15.3721 33.9113 15.3721C33.7505 15.3721 33.5996 15.4022 33.4639 15.4525C33.3232 15.5078 33.2025 15.5832 33.102 15.6837C33.0015 15.7792 32.921 15.8999 32.8657 16.0306C32.8104 16.1663 32.7803 16.3121 32.7803 16.478C32.7803 16.6439 32.8104 16.7896 32.8657 16.9254C32.926 17.0611 33.0015 17.1767 33.102 17.2772C33.2025 17.3778 33.3232 17.4532 33.4639 17.5085C33.6047 17.5638 33.7505 17.5889 33.9113 17.5889C34.0722 17.5889 34.223 17.5587 34.3587 17.5085C34.4995 17.4532 34.6201 17.3778 34.7206 17.2772C34.8212 17.1767 34.9016 17.0611 34.9619 16.9254C35.0223 16.7896 35.0474 16.6388 35.0474 16.478C35.0474 16.3171 35.0172 16.1663 34.9619 16.0306C34.9016 15.8949 34.8262 15.7792 34.7206 15.6837ZM34.5648 16.7695C34.5346 16.86 34.4894 16.9404 34.4291 17.0159C34.3688 17.0862 34.2984 17.1415 34.2079 17.1817C34.1225 17.2219 34.0219 17.2421 33.9063 17.2421C33.7907 17.2421 33.6952 17.2219 33.6047 17.1817C33.5192 17.1415 33.4438 17.0862 33.3835 17.0159C33.3232 16.9455 33.2779 16.865 33.2478 16.7695C33.2176 16.679 33.2025 16.5835 33.2025 16.483C33.2025 16.3825 33.2176 16.287 33.2478 16.1965C33.2779 16.106 33.3232 16.0256 33.3835 15.9552C33.4438 15.8848 33.5142 15.8295 33.6047 15.7893C33.6901 15.7491 33.7907 15.729 33.9063 15.729C34.0219 15.729 34.1174 15.7491 34.2079 15.7893C34.2934 15.8295 34.3688 15.8848 34.4291 15.9552C34.4894 16.0256 34.5346 16.106 34.5648 16.1965C34.595 16.287 34.6101 16.3825 34.6101 16.483C34.6101 16.5835 34.595 16.679 34.5648 16.7695Z" fill="#183660"></path><path d="M37.3146 15.6284C37.2493 15.553 37.1688 15.4877 37.0683 15.4424C36.9678 15.3972 36.8521 15.3721 36.7164 15.3721C36.641 15.3721 36.5656 15.3821 36.4952 15.4022C36.4249 15.4223 36.3595 15.4525 36.2992 15.4877C36.2389 15.5229 36.1886 15.5681 36.1433 15.6184C36.0981 15.6686 36.0629 15.7189 36.0328 15.7742H36.0177C36.0177 15.729 36.0177 15.6737 36.0177 15.6083C36.0177 15.543 36.0076 15.4827 36.0026 15.4274H35.6055C35.6105 15.4977 35.6155 15.5731 35.6206 15.6636C35.6206 15.7541 35.6206 15.8245 35.6206 15.8798V17.5336H36.0378V16.4126C36.0378 16.2015 36.088 16.0356 36.1936 15.9099C36.2992 15.7843 36.4349 15.7189 36.6008 15.7189C36.6963 15.7189 36.7767 15.739 36.8421 15.7742C36.9024 15.8094 36.9527 15.8597 36.9879 15.915C37.023 15.9753 37.0482 16.0406 37.0633 16.1211C37.0783 16.1965 37.0834 16.2819 37.0834 16.3674V17.5336H37.5006V16.2266C37.5006 16.106 37.4855 15.9954 37.4553 15.8949C37.4252 15.7943 37.3749 15.6988 37.3096 15.6234" fill="#183660"></path><path d="M41.2548 15.6284C41.1895 15.553 41.1091 15.4877 41.0085 15.4424C40.908 15.3972 40.7924 15.3721 40.6566 15.3721C40.5058 15.3721 40.3651 15.4073 40.2394 15.4827C40.1138 15.553 40.0132 15.6586 39.9428 15.7943C39.8775 15.6435 39.787 15.5329 39.6714 15.4676C39.5558 15.4022 39.4301 15.3721 39.2894 15.3721C39.1285 15.3721 38.9928 15.4123 38.8721 15.4877C38.7565 15.5681 38.671 15.6636 38.6157 15.7742H38.6007C38.6007 15.729 38.6007 15.6737 38.6007 15.6083C38.6007 15.543 38.5956 15.4827 38.5856 15.4274H38.1885C38.1935 15.4977 38.1985 15.5731 38.2035 15.6636C38.2035 15.7541 38.2035 15.8245 38.2035 15.8798V17.5336H38.6208V16.4126C38.6208 16.2015 38.671 16.0356 38.7716 15.9099C38.8721 15.7843 39.0028 15.7189 39.1536 15.7189C39.2391 15.7189 39.3044 15.734 39.3647 15.7591C39.42 15.7893 39.4653 15.8245 39.5005 15.8748C39.5357 15.925 39.5608 15.9803 39.5759 16.0507C39.591 16.1211 39.596 16.1965 39.596 16.2769V17.5286H40.0132V16.3925C40.0132 16.3071 40.0233 16.2266 40.0434 16.1462C40.0635 16.0658 40.0937 15.9954 40.1389 15.9301C40.1841 15.8647 40.2394 15.8144 40.3048 15.7742C40.3752 15.734 40.4556 15.7139 40.5511 15.7139C40.6466 15.7139 40.717 15.734 40.7773 15.7692C40.8376 15.8044 40.8829 15.8546 40.918 15.9099C40.9532 15.9703 40.9784 16.0356 40.9935 16.116C41.0085 16.1914 41.0136 16.2769 41.0136 16.3624V17.5286H41.4308V16.2216C41.4308 16.101 41.4157 15.9904 41.3855 15.8898C41.3554 15.7893 41.3051 15.6938 41.2398 15.6184" fill="#183660"></path><path d="M43.8446 15.6685C43.7591 15.573 43.6485 15.5026 43.5229 15.4524C43.3972 15.4021 43.2564 15.377 43.1006 15.377C42.9448 15.377 42.804 15.4021 42.6683 15.4574C42.5326 15.5127 42.4169 15.5881 42.3214 15.6886C42.2259 15.7892 42.1455 15.9048 42.0902 16.0405C42.0349 16.1762 42.0098 16.327 42.0098 16.4929C42.0098 16.6588 42.0399 16.8096 42.0952 16.9453C42.1505 17.0811 42.2259 17.1967 42.3265 17.2922C42.422 17.3877 42.5426 17.4631 42.6783 17.5184C42.8141 17.5737 42.9649 17.5988 43.1207 17.5988C43.3067 17.5988 43.4776 17.5636 43.6284 17.4933C43.7792 17.4229 43.9149 17.3123 44.0255 17.1615L43.734 16.9252C43.6736 17.0157 43.5932 17.0911 43.4877 17.1514C43.3821 17.2118 43.2615 17.2469 43.1207 17.2469C43.0302 17.2469 42.9448 17.2319 42.8593 17.1967C42.7789 17.1665 42.7035 17.1213 42.6432 17.0609C42.5828 17.0057 42.5326 16.9353 42.4924 16.8599C42.4572 16.7794 42.4371 16.699 42.432 16.6085H44.106C44.106 16.6085 44.106 16.5633 44.106 16.5382V16.4678C44.106 16.2969 44.0808 16.1461 44.0356 16.0103C43.9904 15.8746 43.92 15.759 43.8345 15.6635M42.4421 16.2969C42.4471 16.2114 42.4672 16.136 42.5074 16.0656C42.5426 15.9953 42.5929 15.9299 42.6482 15.8746C42.7085 15.8193 42.7738 15.7791 42.8543 15.7489C42.9347 15.7188 43.0151 15.7037 43.1056 15.7037C43.2011 15.7037 43.2866 15.7188 43.362 15.7489C43.4324 15.7791 43.4977 15.8243 43.543 15.8746C43.5932 15.9299 43.6284 15.9902 43.6536 16.0656C43.6787 16.136 43.6938 16.2164 43.6938 16.2969H42.4421Z" fill="#183660"></path><path d="M46.3879 15.6284C46.3225 15.553 46.2421 15.4877 46.1415 15.4424C46.041 15.3972 45.9254 15.3721 45.7897 15.3721C45.7143 15.3721 45.6388 15.3821 45.5685 15.4022C45.4981 15.4223 45.4327 15.4525 45.3724 15.4877C45.3121 15.5229 45.2618 15.5681 45.2166 15.6184C45.1713 15.6686 45.1362 15.7189 45.106 15.7742H45.0909C45.0909 15.729 45.0909 15.6737 45.0909 15.6083C45.0909 15.543 45.0859 15.4827 45.0759 15.4274H44.6787C44.6837 15.4977 44.6888 15.5731 44.6938 15.6636C44.6938 15.7541 44.6938 15.8245 44.6938 15.8798V17.5336H45.111V16.4126C45.111 16.2015 45.1613 16.0356 45.2669 15.9099C45.3724 15.7843 45.5082 15.7189 45.674 15.7189C45.7746 15.7189 45.85 15.739 45.9153 15.7742C45.9756 15.8094 46.0259 15.8597 46.0611 15.915C46.0963 15.9753 46.1214 16.0406 46.1365 16.1211C46.1516 16.1965 46.1566 16.2819 46.1566 16.3674V17.5336H46.5738V16.2266C46.5738 16.106 46.5587 15.9954 46.5286 15.8949C46.4984 15.7943 46.4482 15.6988 46.3828 15.6234" fill="#183660"></path><path d="M47.7548 14.8291H47.3426V15.4323H46.9404V15.7742H47.3426V16.9152C47.3426 17.1364 47.3929 17.2973 47.4984 17.4079C47.604 17.5185 47.7548 17.5738 47.9559 17.5738C48.0212 17.5738 48.0866 17.5687 48.1469 17.5587C48.2072 17.5486 48.2625 17.5335 48.3128 17.5185L48.2977 17.1766C48.2625 17.1917 48.2223 17.2068 48.177 17.2118C48.1318 17.2219 48.0916 17.2219 48.0514 17.2219C47.9458 17.2219 47.8704 17.1967 47.8252 17.1415C47.7799 17.0862 47.7548 16.9957 47.7548 16.87V15.7742H48.3128V15.4323H47.7548V14.8291Z" fill="#183660"></path><path d="M52.6262 16.9H52.6212L51.8872 14.3916H51.3996L50.6657 16.9H50.6556L49.9619 14.3916H49.4844L50.4093 17.5384H50.8668L51.6308 15.0099H51.6409L52.405 17.5384H52.8624L53.7874 14.3916H53.3199L52.6262 16.9Z" fill="#183660"></path><path d="M55.7419 17.1213V16.2014C55.7419 16.0857 55.7268 15.9802 55.6866 15.8796C55.6514 15.7791 55.5961 15.6936 55.5257 15.6182C55.4554 15.5428 55.3649 15.4875 55.2543 15.4423C55.1437 15.3971 55.013 15.377 54.8622 15.377C54.6913 15.377 54.5304 15.4071 54.3796 15.4624C54.2288 15.5177 54.1032 15.5981 54.0026 15.6936L54.2238 15.9601C54.2942 15.8897 54.3846 15.8294 54.4902 15.7841C54.5958 15.7389 54.7064 15.7138 54.827 15.7138C54.9828 15.7138 55.1085 15.7489 55.204 15.8294C55.2995 15.9048 55.3448 16.0204 55.3448 16.1762V16.2315C55.1688 16.2315 54.9929 16.2416 54.817 16.2516C54.641 16.2667 54.4852 16.2969 54.3444 16.3471C54.2037 16.3974 54.0931 16.4678 54.0076 16.5633C53.9222 16.6538 53.877 16.7845 53.877 16.9453C53.877 17.066 53.9021 17.1665 53.9523 17.252C54.0026 17.3324 54.0629 17.4028 54.1383 17.453C54.2137 17.5033 54.2942 17.5385 54.3846 17.5636C54.4751 17.5837 54.5606 17.5988 54.646 17.5988C54.8069 17.5988 54.9426 17.5687 55.0633 17.5083C55.1789 17.448 55.2794 17.3575 55.3548 17.2469H55.3699C55.3699 17.3475 55.38 17.448 55.4051 17.5486H55.7821C55.7721 17.4983 55.762 17.4329 55.757 17.3525C55.757 17.2721 55.752 17.2017 55.752 17.1263M55.3398 16.6437C55.3398 16.8197 55.2895 16.9705 55.1839 17.0861C55.0784 17.2017 54.9275 17.262 54.7315 17.262C54.6762 17.262 54.6259 17.257 54.5757 17.2469C54.5254 17.2369 54.4802 17.2168 54.44 17.1916C54.3997 17.1665 54.3645 17.1313 54.3394 17.0911C54.3143 17.0509 54.2992 16.9956 54.2992 16.9353C54.2992 16.8448 54.3293 16.7744 54.3897 16.7242C54.45 16.6689 54.5254 16.6286 54.6159 16.6035C54.7064 16.5784 54.8069 16.5583 54.9175 16.5482C55.0281 16.5382 55.1336 16.5331 55.2392 16.5331H55.3398V16.6437Z" fill="#183660"></path><path d="M56.8681 14.8291H56.4559V15.4323H56.0537V15.7742H56.4559V16.9152C56.4559 17.1364 56.5112 17.2973 56.6117 17.4079C56.7173 17.5185 56.8681 17.5738 57.0691 17.5738C57.1345 17.5738 57.1998 17.5687 57.2602 17.5587C57.3205 17.5486 57.3758 17.5335 57.4261 17.5185L57.411 17.1766C57.3758 17.1917 57.3356 17.2068 57.2903 17.2118C57.2451 17.2219 57.2049 17.2219 57.1647 17.2219C57.0591 17.2219 56.9837 17.1967 56.9384 17.1415C56.8932 17.0862 56.8681 16.9957 56.8681 16.87V15.7742H57.4261V15.4323H56.8681V14.8291Z" fill="#183660"></path><path d="M59.5536 15.6685C59.4681 15.573 59.3575 15.5026 59.2318 15.4524C59.1062 15.4021 58.9654 15.377 58.8096 15.377C58.6538 15.377 58.513 15.4021 58.3773 15.4574C58.2415 15.5127 58.1259 15.5881 58.0304 15.6886C57.9349 15.7892 57.8545 15.9048 57.7992 16.0405C57.7439 16.1762 57.7188 16.327 57.7188 16.4929C57.7188 16.6588 57.7489 16.8096 57.8042 16.9453C57.8595 17.0811 57.9349 17.1967 58.0354 17.2922C58.131 17.3877 58.2516 17.4631 58.3873 17.5184C58.5231 17.5737 58.6739 17.5988 58.8297 17.5988C59.0157 17.5988 59.1866 17.5636 59.3374 17.4933C59.4882 17.4229 59.6239 17.3123 59.7345 17.1615L59.443 16.9252C59.3826 17.0157 59.3022 17.0911 59.1966 17.1514C59.0911 17.2118 58.9704 17.2469 58.8297 17.2469C58.7392 17.2469 58.6537 17.2319 58.5683 17.1967C58.4879 17.1665 58.4125 17.1213 58.3521 17.0609C58.2918 17.0057 58.2416 16.9353 58.2013 16.8599C58.1662 16.7794 58.146 16.699 58.141 16.6085H59.815C59.815 16.6085 59.815 16.5633 59.815 16.5382V16.4678C59.815 16.2969 59.7898 16.1461 59.7446 16.0103C59.6993 15.8746 59.629 15.759 59.5435 15.6635M58.1461 16.2969C58.1511 16.2114 58.1712 16.136 58.2114 16.0656C58.2466 15.9953 58.2968 15.9299 58.3521 15.8746C58.4125 15.8193 58.4778 15.7791 58.5583 15.7489C58.6387 15.7188 58.7191 15.7037 58.8096 15.7037C58.9051 15.7037 58.9905 15.7188 59.0659 15.7489C59.1363 15.7791 59.2017 15.8243 59.2469 15.8746C59.2972 15.9299 59.3324 15.9902 59.3575 16.0656C59.3826 16.136 59.3977 16.2164 59.3977 16.2969H58.1461Z" fill="#183660"></path><path d="M61.0705 15.4878C60.9549 15.5632 60.8694 15.6638 60.8091 15.7894H60.794C60.794 15.7442 60.794 15.6889 60.794 15.6185C60.794 15.5482 60.789 15.4878 60.7789 15.4325H60.3818C60.3869 15.5029 60.3919 15.5783 60.3969 15.6688C60.3969 15.7593 60.3969 15.8297 60.3969 15.885V17.5388H60.8141V16.4329C60.8141 16.3424 60.8242 16.2569 60.8493 16.1765C60.8745 16.0961 60.9096 16.0257 60.9599 15.9604C61.0102 15.9 61.0705 15.8498 61.1459 15.8096C61.2213 15.7744 61.3068 15.7543 61.4073 15.7543C61.4777 15.7543 61.538 15.7593 61.5983 15.7744L61.6134 15.3873C61.5681 15.3772 61.5129 15.3672 61.4475 15.3672C61.3068 15.3672 61.1761 15.4074 61.0604 15.4828" fill="#183660"></path><path d="M65.8116 15.8597H65.3239L64.9268 16.5282L64.2985 15.8848C64.389 15.8446 64.4744 15.7943 64.5548 15.744C64.6353 15.6887 64.7057 15.6284 64.771 15.5631C64.8313 15.4927 64.8816 15.4173 64.9218 15.3369C64.957 15.2514 64.9771 15.1609 64.9771 15.0554C64.9771 14.9347 64.957 14.8291 64.9117 14.7336C64.8665 14.6432 64.8062 14.5627 64.7358 14.5024C64.6604 14.4421 64.5749 14.3918 64.4794 14.3616C64.3839 14.3315 64.2784 14.3164 64.1678 14.3164C64.0572 14.3164 63.9516 14.3315 63.8511 14.3616C63.7505 14.3918 63.6601 14.4421 63.5847 14.5024C63.5042 14.5678 63.4439 14.6431 63.3987 14.7387C63.3534 14.8342 63.3283 14.9448 63.3283 15.0704C63.3283 15.2112 63.3635 15.3419 63.4338 15.4575C63.5042 15.5731 63.5897 15.6837 63.6902 15.7893C63.5997 15.8295 63.5143 15.8798 63.4288 15.9351C63.3434 15.9903 63.268 16.0557 63.2026 16.1311C63.1373 16.2065 63.082 16.2869 63.0418 16.3824C63.0016 16.4779 62.9814 16.5835 62.9814 16.6991C62.9814 16.8449 63.0066 16.9706 63.0619 17.0862C63.1172 17.1968 63.1926 17.2923 63.283 17.3677C63.3786 17.4431 63.4841 17.4984 63.6098 17.5386C63.7355 17.5788 63.8662 17.5989 64.0019 17.5989C64.2231 17.5989 64.404 17.5587 64.5548 17.4733C64.7057 17.3878 64.8363 17.2722 64.957 17.1264L65.3491 17.5386H65.9322L65.2134 16.7946L65.8166 15.8546L65.8116 15.8597ZM63.8712 14.7789C63.9516 14.7035 64.0522 14.6633 64.1728 14.6633C64.2934 14.6633 64.389 14.7035 64.4644 14.7789C64.5398 14.8543 64.58 14.9498 64.58 15.0654C64.58 15.1358 64.5649 15.1961 64.5347 15.2514C64.5046 15.3067 64.4644 15.357 64.4191 15.4072C64.3739 15.4525 64.3186 15.4977 64.2583 15.5329C64.1979 15.5681 64.1326 15.6033 64.0672 15.6284C64.032 15.5983 63.9969 15.558 63.9567 15.5178C63.9215 15.4776 63.8863 15.4324 63.8561 15.3821C63.826 15.3318 63.8008 15.2816 63.7857 15.2313C63.7656 15.181 63.7556 15.1308 63.7556 15.0805C63.7556 14.9548 63.7958 14.8543 63.8762 14.7789M64.389 17.1465C64.2834 17.2119 64.1577 17.2471 64.0069 17.2471C63.9315 17.2471 63.8611 17.232 63.7908 17.2119C63.7204 17.1867 63.655 17.1516 63.5997 17.1013C63.5444 17.056 63.4992 16.9957 63.469 16.9253C63.4389 16.86 63.4188 16.7796 63.4188 16.6991C63.4188 16.5383 63.464 16.4076 63.5545 16.3121C63.645 16.2166 63.7707 16.1311 63.9215 16.0657L64.6654 16.8499C64.58 16.9806 64.4845 17.0812 64.3789 17.1465" fill="#183660"></path><path d="M68.3906 14.3916L67.0283 17.5384H67.5159L67.8326 16.7643H69.3256L69.6473 17.5384H70.145L68.7927 14.3916H68.3906ZM67.9884 16.3772L68.5816 14.9043L69.1698 16.3772H67.9935H67.9884Z" fill="#183660"></path><path d="M72.2163 15.7692H72.2063C72.1259 15.6385 72.0153 15.538 71.8796 15.4726C71.7438 15.4073 71.598 15.3721 71.4472 15.3721C71.2864 15.3721 71.1406 15.4022 71.0099 15.4575C70.8792 15.5128 70.7686 15.5933 70.6781 15.6938C70.5877 15.7943 70.5173 15.9099 70.467 16.0406C70.4167 16.1713 70.3916 16.3171 70.3916 16.4679C70.3916 16.6187 70.4167 16.7595 70.467 16.8902C70.5173 17.0209 70.5877 17.1365 70.6781 17.237C70.7686 17.3325 70.8792 17.413 71.0149 17.4683C71.1456 17.5236 71.2914 17.5537 71.4523 17.5537C71.6031 17.5537 71.7438 17.5236 71.8796 17.4582C72.0153 17.3979 72.1208 17.3074 72.1963 17.1868H72.2063V17.4582C72.2063 17.5688 72.1912 17.6693 72.1661 17.7648C72.1409 17.8604 72.1007 17.9408 72.0404 18.0112C71.9801 18.0815 71.9047 18.1368 71.8092 18.177C71.7137 18.2173 71.598 18.2374 71.4573 18.2374C71.3165 18.2374 71.1707 18.2072 71.035 18.1469C70.8993 18.0866 70.7837 18.0011 70.6882 17.8955L70.4218 18.2173C70.5525 18.3379 70.7133 18.4334 70.8993 18.4988C71.0853 18.5641 71.2663 18.5993 71.4523 18.5993C71.6734 18.5993 71.8544 18.5691 72.0052 18.5038C72.151 18.4384 72.2716 18.353 72.3671 18.2424C72.4576 18.1318 72.523 18.0112 72.5632 17.8704C72.6034 17.7297 72.6235 17.5839 72.6235 17.428V15.4274H72.2214V15.7642L72.2163 15.7692ZM72.1812 16.7545C72.146 16.8449 72.1007 16.9254 72.0354 16.9907C71.9751 17.0561 71.8946 17.1114 71.8092 17.1465C71.7237 17.1817 71.6232 17.2069 71.5176 17.2069C71.412 17.2069 71.3065 17.1868 71.221 17.1465C71.1356 17.1063 71.0602 17.051 70.9999 16.9807C70.9395 16.9103 70.8943 16.8349 70.8591 16.7444C70.8289 16.6539 70.8139 16.5634 70.8139 16.4629C70.8139 16.3624 70.8289 16.2668 70.8591 16.1764C70.8893 16.0859 70.9345 16.0054 70.9999 15.9401C71.0602 15.8747 71.1356 15.8195 71.221 15.7792C71.3065 15.739 71.407 15.7189 71.5176 15.7189C71.6282 15.7189 71.7237 15.739 71.8092 15.7792C71.8946 15.8195 71.97 15.8747 72.0354 15.9401C72.1007 16.0105 72.146 16.0859 72.1812 16.1764C72.2163 16.2668 72.2314 16.3624 72.2314 16.4629C72.2314 16.5634 72.2163 16.664 72.1812 16.7545Z" fill="#183660"></path><path d="M74.0002 15.4878C73.8846 15.5632 73.7991 15.6638 73.7388 15.7894H73.7237C73.7237 15.7442 73.7237 15.6889 73.7237 15.6185C73.7237 15.5482 73.7187 15.4878 73.7086 15.4325H73.3115C73.3166 15.5029 73.3216 15.5783 73.3266 15.6688C73.3266 15.7593 73.3266 15.8297 73.3266 15.885V17.5388H73.7438V16.4329C73.7438 16.3424 73.7539 16.2569 73.779 16.1765C73.8042 16.0961 73.8394 16.0257 73.8896 15.9604C73.9399 15.9 74.0002 15.8498 74.0756 15.8096C74.151 15.7744 74.2365 15.7543 74.337 15.7543C74.4074 15.7543 74.4677 15.7593 74.528 15.7744L74.5431 15.3873C74.4979 15.3772 74.4426 15.3672 74.3772 15.3672C74.2365 15.3672 74.1058 15.4074 73.9901 15.4828" fill="#183660"></path><path d="M75.3625 15.4326H74.9453V17.5389H75.3625V15.4326Z" fill="#183660"></path><path d="M75.1515 14.4019C75.0761 14.4019 75.0107 14.427 74.9554 14.4773C74.9002 14.5275 74.875 14.5929 74.875 14.6683C74.875 14.7437 74.9002 14.804 74.9554 14.8593C75.0107 14.9096 75.071 14.9397 75.1515 14.9397C75.2319 14.9397 75.2922 14.9146 75.3475 14.8643C75.4028 14.8141 75.428 14.7487 75.428 14.6733C75.428 14.5979 75.4028 14.5326 75.3475 14.4823C75.2922 14.432 75.2269 14.4069 75.1515 14.4069" fill="#183660"></path><path d="M77.3785 17.1819C77.2931 17.2221 77.1925 17.2423 77.0869 17.2423C76.9814 17.2423 76.8808 17.2221 76.7954 17.1819C76.7099 17.1417 76.6345 17.0864 76.5792 17.016C76.5189 16.9457 76.4737 16.8652 76.4435 16.7748C76.4133 16.6843 76.3983 16.5888 76.3983 16.4882C76.3983 16.3877 76.4133 16.2922 76.4435 16.2017C76.4737 16.1112 76.5189 16.0308 76.5792 15.9604C76.6396 15.89 76.7099 15.8347 76.7954 15.7945C76.8808 15.7543 76.9764 15.7342 77.0869 15.7342C77.1875 15.7342 77.283 15.7593 77.3735 15.8046C77.464 15.8498 77.5293 15.9051 77.5745 15.9755L77.8762 15.7292C77.7907 15.6186 77.6751 15.5281 77.5293 15.4728C77.3835 15.4125 77.2378 15.3823 77.0869 15.3823C76.9261 15.3823 76.7803 15.4075 76.6395 15.4627C76.5038 15.518 76.3832 15.5934 76.2826 15.689C76.1821 15.7895 76.1017 15.9051 76.0464 16.0408C75.9911 16.1766 75.9609 16.3274 75.9609 16.4933C75.9609 16.6591 75.9911 16.815 76.0464 16.9507C76.1017 17.0864 76.1821 17.202 76.2826 17.2976C76.3832 17.3931 76.5038 17.4685 76.6395 17.5238C76.7753 17.5791 76.9261 17.6042 77.092 17.6042C77.2579 17.6042 77.4137 17.574 77.5444 17.5187C77.6801 17.4634 77.7907 17.378 77.8762 17.2774L77.5947 17.0261C77.5394 17.0965 77.464 17.1518 77.3785 17.197" fill="#183660"></path><path d="M80.1476 17.0865V15.4326H79.7304V16.5536C79.7304 16.7647 79.6801 16.9306 79.5746 17.0563C79.469 17.182 79.3333 17.2473 79.1674 17.2473C79.0719 17.2473 78.9914 17.2272 78.9261 17.192C78.8658 17.1568 78.8155 17.1116 78.7803 17.0513C78.7451 16.9909 78.72 16.9256 78.7049 16.8452C78.6898 16.7647 78.6848 16.6843 78.6848 16.5988V15.4326H78.2676V16.7396C78.2676 16.8602 78.2827 16.9708 78.3128 17.0714C78.343 17.1769 78.3882 17.2674 78.4536 17.3428C78.5189 17.4232 78.5993 17.4836 78.6999 17.5288C78.8004 17.5741 78.916 17.5942 79.0518 17.5942C79.2076 17.5942 79.3433 17.5539 79.474 17.4785C79.5997 17.3981 79.6902 17.3026 79.7455 17.192H79.7555C79.7555 17.2373 79.7555 17.2926 79.7555 17.3579C79.7555 17.4232 79.7605 17.4836 79.7706 17.5389H80.1677C80.1627 17.4685 80.1577 17.3931 80.1526 17.3026C80.1526 17.2121 80.1526 17.1417 80.1526 17.0865" fill="#183660"></path><path d="M81.2991 14.1807H80.8818V17.5386H81.2991V14.1807Z" fill="#183660"></path><path d="M82.5009 14.8291H82.0887V15.4323H81.6865V15.7742H82.0887V16.9152C82.0887 17.1364 82.144 17.2973 82.2445 17.4079C82.3501 17.5185 82.5009 17.5738 82.702 17.5738C82.7673 17.5738 82.8327 17.5687 82.893 17.5587C82.9533 17.5486 83.0086 17.5335 83.0589 17.5185L83.0438 17.1766C83.0086 17.1917 82.9684 17.2068 82.9231 17.2118C82.8779 17.2219 82.8377 17.2219 82.7975 17.2219C82.6919 17.2219 82.6165 17.1967 82.5713 17.1415C82.526 17.0862 82.5009 16.9957 82.5009 16.87V15.7742H83.0589V15.4323H82.5009V14.8291Z" fill="#183660"></path><path d="M85.3507 17.0865V15.4326H84.9335V16.5536C84.9335 16.7647 84.8832 16.9306 84.7777 17.0563C84.6721 17.182 84.5364 17.2473 84.3705 17.2473C84.275 17.2473 84.1946 17.2272 84.1292 17.192C84.0689 17.1568 84.0186 17.1116 83.9834 17.0513C83.9482 16.9909 83.9231 16.9256 83.908 16.8452C83.893 16.7647 83.8879 16.6843 83.8879 16.5988V15.4326H83.4707V16.7396C83.4707 16.8602 83.4858 16.9708 83.5159 17.0714C83.5461 17.1769 83.5964 17.2674 83.6567 17.3428C83.722 17.4232 83.8025 17.4836 83.903 17.5288C84.0035 17.5741 84.1192 17.5942 84.2549 17.5942C84.4107 17.5942 84.5464 17.5539 84.6771 17.4785C84.8028 17.3981 84.8933 17.3026 84.9436 17.192H84.9536C84.9536 17.2373 84.9536 17.2926 84.9536 17.3579C84.9536 17.4232 84.9586 17.4836 84.9687 17.5389H85.3658C85.3608 17.4685 85.3558 17.3931 85.3507 17.3026C85.3507 17.2121 85.3507 17.1417 85.3507 17.0865Z" fill="#183660"></path><path d="M86.7434 15.4878C86.6277 15.5632 86.5423 15.6638 86.482 15.7894H86.4669C86.4669 15.7442 86.4669 15.6889 86.4669 15.6185C86.4669 15.5482 86.4619 15.4878 86.4518 15.4325H86.0547C86.0597 15.5029 86.0648 15.5783 86.0698 15.6688C86.0698 15.7593 86.0698 15.8297 86.0698 15.885V17.5388H86.487V16.4329C86.487 16.3424 86.4971 16.2569 86.5222 16.1765C86.5473 16.0961 86.5825 16.0257 86.6328 15.9604C86.6831 15.9 86.7434 15.8498 86.8188 15.8096C86.8942 15.7744 86.9796 15.7543 87.0802 15.7543C87.1506 15.7543 87.2109 15.7593 87.2712 15.7744L87.2863 15.3873C87.241 15.3772 87.1857 15.3672 87.1204 15.3672C86.9796 15.3672 86.8489 15.4074 86.7333 15.4828" fill="#183660"></path><path d="M89.5027 16.0105C89.4575 15.8748 89.3871 15.7591 89.3016 15.6636C89.2162 15.5681 89.1056 15.4977 88.9799 15.4475C88.8542 15.3972 88.7135 15.3721 88.5576 15.3721C88.4018 15.3721 88.261 15.3972 88.1253 15.4525C87.9896 15.5078 87.874 15.5832 87.7785 15.6837C87.683 15.7792 87.6025 15.8999 87.5472 16.0356C87.4919 16.1713 87.4668 16.3221 87.4668 16.488C87.4668 16.6539 87.497 16.8047 87.5523 16.9404C87.6076 17.0762 87.683 17.1918 87.7835 17.2873C87.879 17.3828 87.9997 17.4582 88.1354 17.5135C88.2711 17.5688 88.4169 17.5939 88.5777 17.5939C88.7637 17.5939 88.9347 17.5587 89.0855 17.4884C89.2363 17.418 89.372 17.3074 89.4826 17.1566L89.191 16.9203C89.1307 17.0108 89.0503 17.0862 88.9447 17.1465C88.8391 17.2069 88.7185 17.2421 88.5777 17.2421C88.4873 17.2421 88.4018 17.227 88.3163 17.1918C88.2359 17.1616 88.1605 17.1164 88.1002 17.0561C88.0399 17.0008 87.9896 16.9304 87.9494 16.855C87.9142 16.7746 87.8941 16.6941 87.8891 16.6036H89.563C89.563 16.6036 89.563 16.5584 89.563 16.5333V16.4629C89.563 16.292 89.5379 16.1412 89.4926 16.0054M87.8941 16.297C87.8991 16.2116 87.9192 16.1361 87.9594 16.0658C87.9946 15.9954 88.0449 15.93 88.1002 15.8748C88.1555 15.8195 88.2259 15.7792 88.3063 15.7491C88.3867 15.7189 88.4672 15.7038 88.5576 15.7038C88.6532 15.7038 88.7386 15.7189 88.814 15.7491C88.8844 15.7792 88.9447 15.8245 88.995 15.8748C89.0452 15.93 89.0804 15.9904 89.1056 16.0658C89.1307 16.1361 89.1458 16.2166 89.1458 16.297H87.8941Z" fill="#183660"></path><path d="M61.0111 4.87097H60.3073V4.63974C60.3073 4.32305 60.5988 4.2024 60.9004 4.2024V3.52881C60.7698 3.53886 60.5838 3.55897 60.5234 3.56902C60.252 3.61427 60.0409 3.72988 59.88 3.9209C59.694 4.14208 59.6035 4.44369 59.6035 4.77044V5.50938H61.0111V4.86092V4.87097Z" fill="#183660"></path><path d="M57.2354 5.61997C57.4063 5.61997 57.552 5.55965 57.6727 5.439C57.7883 5.31836 57.8486 5.17258 57.8486 5.00669C57.8486 4.84081 57.7883 4.68498 57.6727 4.56936C57.4415 4.33812 57.0443 4.3331 56.803 4.56936C56.6824 4.68498 56.6221 4.83075 56.6221 5.00669C56.6221 5.18263 56.6824 5.31333 56.803 5.439C56.9237 5.55965 57.0644 5.61997 57.2354 5.61997Z" fill="#183660"></path><path d="M55.667 5.61991C55.8329 5.61991 55.9736 5.55959 56.0943 5.43895C56.2099 5.3183 56.2702 5.17252 56.2702 5.00664C56.2702 4.84075 56.2099 4.68492 56.0943 4.56931C55.853 4.32802 55.4659 4.33807 55.2297 4.56931C55.1141 4.68995 55.0537 4.8307 55.0537 5.00664C55.0537 5.17252 55.1141 5.3183 55.2297 5.43895C55.3453 5.55959 55.4961 5.61991 55.667 5.61991Z" fill="#183660"></path><path d="M77.001 5.62032C77.1769 5.62032 77.3177 5.56 77.4383 5.43935C77.5539 5.31871 77.6142 5.17293 77.6142 5.00704C77.6142 4.83613 77.5539 4.68533 77.4383 4.56971C77.2071 4.33345 76.815 4.32842 76.5687 4.56971C76.448 4.69036 76.3877 4.8311 76.3877 5.00704C76.3877 5.18298 76.448 5.31871 76.5687 5.43935C76.6893 5.56 76.8351 5.62032 77.001 5.62032Z" fill="#183660"></path><path d="M75.4277 5.61991C75.5936 5.61991 75.7344 5.55959 75.855 5.43895C75.9757 5.31328 76.0309 5.17252 76.0309 5.00664C76.0309 4.84075 75.9706 4.68492 75.855 4.56931C75.6188 4.32802 75.2216 4.33807 74.9904 4.56931C74.8698 4.68995 74.8145 4.8307 74.8145 5.00664C74.8145 5.17252 74.8748 5.3183 74.9904 5.43895C75.1111 5.55959 75.2518 5.61991 75.4277 5.61991Z" fill="#183660"></path><path d="M79.3184 11.0892C79.615 10.8328 79.811 10.496 79.8915 10.0939C79.9015 10.0335 79.9216 9.67162 79.9216 9.67162L79.9417 6.23828H78.9162C78.9162 8.60592 78.9112 9.7269 78.9062 9.7822C78.881 10.0034 78.8006 10.1743 78.6448 10.31C78.509 10.4307 78.318 10.496 78.0566 10.5111V11.5416C78.1622 11.5315 78.2979 11.5215 78.303 11.5215C78.695 11.4712 79.0369 11.3254 79.3134 11.0842" fill="#183660"></path><path d="M74.7188 9.76706C75.0103 9.943 75.337 10.0285 75.6839 10.0285C76.0308 10.0285 76.3575 9.93798 76.6491 9.76706C76.9406 9.59112 77.1769 9.35487 77.3528 9.06331C77.5288 8.77175 77.6192 8.44501 77.6142 8.09816C77.6142 7.43461 77.6142 6.87161 77.6142 6.23822L75.6186 6.22314C75.2717 6.22314 74.95 6.30357 74.6685 6.46945C74.387 6.63534 74.1658 6.86155 74.005 7.14305C73.8491 7.42958 73.7637 7.7513 73.7637 8.09816C73.7637 8.44501 73.8491 8.77175 74.02 9.06331C74.1909 9.35487 74.4272 9.59112 74.7188 9.76706ZM75.0204 7.48488C75.1762 7.32402 75.3672 7.24359 75.6135 7.24359L76.5837 7.25364V8.09816C76.5837 8.35452 76.4983 8.56063 76.3223 8.73657C75.9704 9.08845 75.4175 9.0985 75.0555 8.73657C74.8796 8.56063 74.7942 8.3495 74.7942 8.09816C74.7942 7.84681 74.8696 7.64071 75.0254 7.48488" fill="#183660"></path><path d="M82.2395 4.44385H81.209C81.209 5.63521 81.209 9.94824 81.209 9.94824H82.2395V4.44385Z" fill="#183660"></path><path d="M47.0262 4.44385H46.0107C46.0107 5.64526 46.0107 9.95327 46.0107 9.95327H47.0312V4.44385" fill="#183660"></path><path d="M71.683 4.44385H70.6475C70.6475 5.64024 70.6475 9.95327 70.6475 9.95327H71.688V4.44385H71.683Z" fill="#183660"></path><path d="M20.2137 4.44385H19.1982C19.1982 5.63521 19.1982 9.95327 19.1982 9.95327H20.2187V4.44385" fill="#183660"></path><path d="M65.972 11.0489C65.8514 11.1645 65.791 11.3103 65.791 11.4862C65.791 11.6621 65.8514 11.7978 65.972 11.9185C66.0926 12.0391 66.2384 12.0995 66.4043 12.0995C66.5702 12.0995 66.726 12.0391 66.8416 11.9185C66.9573 11.7978 67.0176 11.6521 67.0176 11.4862C67.0176 11.3203 66.9573 11.1645 66.8416 11.0489C66.6104 10.8176 66.2183 10.8126 65.972 11.0489Z" fill="#183660"></path><path d="M69.2545 4.44385H68.2642L68.2542 8.92277H67.6509C67.3594 8.90769 67.1583 8.84737 67.0527 8.73678C66.9472 8.62619 66.8969 8.42008 66.8969 8.12852V6.25351L66.9019 6.24346H65.8664L65.8564 8.19388C65.8564 8.41003 65.8312 8.56586 65.781 8.6664C65.7257 8.77196 65.6302 8.84233 65.4894 8.8725C65.3889 8.89763 65.1023 8.91272 64.7655 8.91774H64.5595C64.3232 8.88758 64.1623 8.82725 64.0668 8.73174C63.9612 8.62115 63.911 8.41506 63.911 8.1235L63.921 6.23843H62.8855L62.8754 8.18884C62.8754 8.405 62.8503 8.56083 62.8001 8.66137C62.7448 8.76693 62.6492 8.83731 62.5085 8.86747C62.408 8.89261 62.1114 8.90768 61.7595 8.91271C61.7092 8.91271 61.5835 8.91271 61.5584 8.90769C61.3171 8.88255 61.1512 8.82725 61.0608 8.73174C60.9552 8.62115 60.9049 8.41506 60.9049 8.1235V6.25351L60.91 6.23843H59.8694V8.18884C59.8644 8.405 59.8392 8.56083 59.7839 8.66137C59.7287 8.76693 59.6331 8.83731 59.4924 8.86747C59.3768 8.89261 58.3764 8.89261 58.3764 8.89261C57.9944 8.89261 57.8536 8.6664 57.8536 8.21901C57.8536 7.69622 57.8536 6.23843 57.8536 6.23843H55.853C55.5061 6.23341 55.1844 6.31384 54.9029 6.4747C54.6214 6.63556 54.4002 6.86679 54.2393 7.14829C54.0785 7.43482 53.998 7.75654 53.998 8.10339C53.998 8.45024 54.0835 8.77699 54.2544 9.06854C54.4253 9.3601 54.6565 9.59637 54.9531 9.77231C55.2447 9.94322 55.5664 10.0337 55.9183 10.0337C56.1646 10.0337 56.4009 9.98846 56.6271 9.89798C56.8533 9.80749 57.0493 9.68182 57.2454 9.50588L57.2605 9.49583C57.2605 9.49583 57.5369 9.77733 57.7883 9.86278C57.9843 9.93316 58.1854 9.93316 58.4619 9.93819C58.9696 9.94825 59.3366 9.93819 59.3366 9.93819C59.5326 9.93316 59.7035 9.91305 59.8392 9.87786C60.1157 9.80246 60.4073 9.56118 60.4073 9.56118L60.4475 9.59636C60.6284 9.74717 60.8044 9.84268 60.9803 9.88792C61.1361 9.92311 61.3322 9.94322 61.5735 9.94322H62.2019C62.4431 9.94322 62.6442 9.91808 62.8051 9.87786C62.9659 9.83262 63.1368 9.74214 63.3429 9.58631L63.358 9.60139C63.539 9.7522 63.7149 9.8477 63.8909 9.89294C64.0467 9.92813 64.2427 9.94824 64.484 9.94824H65.2431C65.4844 9.94824 65.6855 9.92311 65.8463 9.8829C66.0072 9.83765 66.1781 9.74717 66.3842 9.59134C66.3842 9.59134 66.4244 9.62652 66.4395 9.63658C66.6054 9.76728 66.7712 9.85776 66.9321 9.89798C67.0879 9.93316 67.284 9.95327 67.5253 9.95327H69.2947L69.3048 4.45893V4.44888H69.2595L69.2545 4.44385ZM56.8231 8.10842C56.8231 8.35976 56.7377 8.57089 56.5567 8.74682C56.2098 9.09368 55.6519 9.10876 55.2899 8.74682C55.114 8.57089 55.0285 8.35976 55.0285 8.10842C55.0285 7.85708 55.104 7.656 55.2598 7.49515C55.4156 7.33429 55.6117 7.25385 55.853 7.25385L56.8231 7.26391V8.10842Z" fill="#183660"></path><path d="M63.9922 12.0994C64.1681 12.0994 64.3089 12.0391 64.4295 11.9184C64.5451 11.7978 64.6055 11.652 64.6055 11.4861C64.6055 11.3102 64.5451 11.1644 64.4295 11.0488C64.1983 10.8176 63.8112 10.8075 63.5599 11.0488C63.4392 11.1644 63.3789 11.3102 63.3789 11.4861C63.3789 11.652 63.4392 11.7978 63.5599 11.9184C63.6805 12.0391 63.8213 12.0994 63.9922 12.0994Z" fill="#183660"></path><path d="M61.9806 11.0488C61.865 11.1644 61.8047 11.3102 61.8047 11.4861C61.8047 11.662 61.865 11.7978 61.9806 11.9184C62.1013 12.039 62.242 12.0994 62.418 12.0994C62.5939 12.0994 62.7246 12.039 62.8452 11.9184C62.9609 11.7978 63.0212 11.657 63.0212 11.4861C63.0212 11.3152 62.9609 11.1644 62.8452 11.0488C62.5989 10.8024 62.2169 10.8175 61.9806 11.0488Z" fill="#183660"></path><path d="M3.23728 5.5999C3.4082 5.5999 3.55397 5.53957 3.67462 5.41893C3.79023 5.29828 3.85057 5.15251 3.85057 4.98662C3.85057 4.82073 3.79023 4.66993 3.67462 4.54929C3.44338 4.31805 3.0513 4.308 2.80498 4.54929C2.68434 4.6649 2.62402 4.81068 2.62402 4.98662C2.62402 5.16256 2.68434 5.29828 2.80498 5.41893C2.92563 5.53957 3.06637 5.5999 3.23728 5.5999Z" fill="#183660"></path><path d="M10.3096 9.96338V7.87724C10.3147 7.32429 10.3197 5.69056 10.3197 4.45898H9.29424C9.29424 5.63527 9.29423 7.36953 9.28418 7.87724V9.96338H10.3096Z" fill="#183660"></path><path d="M1.66892 5.5999C1.83481 5.5999 1.97558 5.53957 2.09622 5.41893C2.21184 5.29828 2.27215 5.15251 2.27215 4.98662C2.27215 4.82073 2.21184 4.6649 2.09622 4.54929C1.85494 4.308 1.46283 4.31805 1.23159 4.54929C1.11597 4.6649 1.05566 4.81068 1.05566 4.98662C1.05566 5.16256 1.11597 5.29828 1.23159 5.41893C1.34721 5.53957 1.49801 5.5999 1.66892 5.5999Z" fill="#183660"></path><path d="M8.36467 9.95295V8.92747H6.92701C6.68069 8.9325 6.48465 8.8571 6.33384 8.69624C6.18304 8.53538 6.1026 8.32928 6.1026 8.07793C6.1026 7.90199 6.14785 7.73612 6.24336 7.59034C6.47962 7.24348 6.87674 7.09771 7.24873 7.21332C7.25376 7.21332 7.34424 7.24348 7.43975 7.27364L8.04798 6.44924C7.95247 6.404 7.84692 6.35875 7.81173 6.34367C7.25376 6.08228 6.57009 6.11244 6.03724 6.42411C5.74569 6.59502 5.50944 6.82625 5.3335 7.12284C5.16259 7.41439 5.0721 7.74114 5.0721 8.08799C5.0721 8.36447 5.12236 8.62587 5.2229 8.87721L5.24803 8.93753H4.37839C3.99635 8.93753 3.85561 8.71132 3.85561 8.26393C3.85561 7.74114 3.85561 6.25822 3.85561 6.25822H1.85491C1.50805 6.25319 1.18636 6.33362 0.904856 6.49448C0.623353 6.65534 0.402168 6.88657 0.241309 7.16808C0.0804504 7.45461 0 7.77633 0 8.12318C0 8.47003 0.0854612 8.79678 0.256374 9.08833C0.427287 9.37989 0.658529 9.61615 0.955113 9.79209C1.24667 9.963 1.56838 10.0535 1.92026 10.0535C2.16657 10.0535 2.40285 10.0082 2.62906 9.91776C2.85527 9.82728 3.05131 9.70161 3.24735 9.52567L3.26245 9.51561C3.26245 9.51561 3.53892 9.79712 3.79026 9.88258C3.98631 9.95295 4.14214 9.95797 4.42365 9.963C4.93136 9.97305 5.34354 9.963 5.34354 9.963H8.36467V9.95295ZM2.82511 8.1081C2.82511 8.35944 2.73964 8.57056 2.55868 8.7465C2.21182 9.09336 1.65384 9.10844 1.2919 8.7465C1.11596 8.57056 1.03053 8.35944 1.03053 8.1081C1.03053 7.85676 1.10591 7.65568 1.26174 7.49483C1.41757 7.33397 1.61362 7.25353 1.85491 7.25353L2.82511 7.26359V8.1081Z" fill="#183660"></path><path d="M14.8291 5.62003C14.995 5.62003 15.1357 5.55971 15.2564 5.43907C15.372 5.31842 15.4323 5.17264 15.4323 5.00676C15.4323 4.84087 15.372 4.6951 15.2564 4.57446C15.0151 4.32814 14.628 4.33317 14.3917 4.57446C14.2761 4.6951 14.2158 4.84087 14.2158 5.00676C14.2158 5.17264 14.2761 5.31842 14.3917 5.43907C14.5124 5.55971 14.6531 5.62003 14.8291 5.62003Z" fill="#183660"></path><path d="M31.1723 6.24833L29.1615 6.23828C28.8147 6.23828 28.493 6.31871 28.2115 6.48459C27.93 6.64545 27.7088 6.87669 27.5479 7.15819C27.3871 7.44472 27.3066 7.76644 27.3066 8.11329C27.3066 8.46014 27.3921 8.78689 27.563 9.07844C27.7339 9.37 27.9702 9.61129 28.2618 9.7822C28.5533 9.95814 28.88 10.0436 29.2269 10.0436C29.5738 10.0436 29.9005 9.95311 30.192 9.7822C30.4836 9.61129 30.7199 9.37503 30.8958 9.07844C31.0667 8.78689 31.1723 8.46014 31.1723 8.11329V6.24833ZM30.1317 8.11329C30.1317 8.36463 30.0463 8.57576 29.8703 8.7517C29.5185 9.10358 28.9655 9.11364 28.6036 8.7517C28.4276 8.57576 28.3422 8.36463 28.3422 8.11329C28.3422 7.86195 28.4176 7.66088 28.5734 7.50002C28.7292 7.33916 28.9253 7.25873 29.1666 7.25873L30.1368 7.26878V8.11329H30.1317Z" fill="#183660"></path><path d="M34.7558 12.0848C34.9217 12.0848 35.0625 12.0244 35.1831 11.9038C35.3038 11.7781 35.3591 11.6374 35.3591 11.4715C35.3591 11.3056 35.3038 11.1548 35.1831 11.0341C34.9368 10.7929 34.5548 10.8029 34.3185 11.0341C34.2029 11.1498 34.1426 11.2955 34.1426 11.4715C34.1426 11.6474 34.2029 11.7831 34.3185 11.9038C34.4391 12.0244 34.5799 12.0848 34.7558 12.0848Z" fill="#183660"></path><path d="M43.6783 4.44385L43.6683 8.92779H42.7233C42.482 8.91774 42.296 8.84736 42.1703 8.70661C42.0446 8.57088 41.9642 8.35474 41.934 8.09334C41.934 7.74649 41.8486 7.41974 41.6777 7.12818C41.5067 6.83662 41.2705 6.60036 40.9789 6.42945C40.3908 6.08762 39.6368 6.08762 39.0486 6.42945C38.7571 6.60036 38.5208 6.83662 38.3449 7.12818C38.1689 7.41974 38.0835 7.74146 38.0835 8.09334L38.0935 8.92779C37.8824 8.92779 37.0329 8.92779 37.0077 8.92779H36.9223C36.6709 8.89763 36.5 8.84234 36.4045 8.7418C36.2989 8.63121 36.2487 8.43014 36.2487 8.13858V6.24848H35.2181L35.2081 8.20896C35.2081 8.42511 35.183 8.58094 35.1327 8.68148C35.0774 8.78704 34.9819 8.85741 34.8411 8.88758C34.7104 8.91774 34.5094 8.93282 34.243 8.93282H33.3582L33.3482 4.44888H32.3076L32.3177 9.9583H34.5948C34.8311 9.9583 35.0372 9.93819 35.1981 9.89294C35.3589 9.8477 35.5298 9.75723 35.7359 9.60139C35.7359 9.60139 36.1129 9.86278 36.2889 9.90802C36.4397 9.94321 36.6408 9.96332 36.8821 9.96332H40.0892C40.612 9.96332 41.0493 9.78738 41.4263 9.43048L41.4364 9.42043L41.4665 9.45059C41.8033 9.79241 42.2407 9.96332 42.7634 9.96332H44.6938L44.7038 4.4539H43.6884L43.6783 4.44385ZM40.8583 8.43014C40.8181 8.53068 40.7628 8.62116 40.6874 8.70158C40.6773 8.71164 40.6673 8.71667 40.6622 8.7217C40.6321 8.75186 40.5969 8.78201 40.5617 8.80212C40.431 8.88758 40.2651 8.93282 40.0791 8.93282H39.114C39.114 8.73678 39.114 8.26927 39.114 8.10339V8.08831C39.114 7.9928 39.1341 7.89729 39.1592 7.81183C39.1693 7.7867 39.1693 7.76156 39.1793 7.74146C39.2044 7.68616 39.2296 7.6359 39.2648 7.59066C39.3 7.54039 39.3351 7.49514 39.3804 7.45493C39.4709 7.36947 39.5664 7.2991 39.672 7.25888C39.687 7.24883 39.7071 7.2438 39.7272 7.23877C39.7474 7.23374 39.7675 7.22872 39.7926 7.21867C39.8077 7.21867 39.8227 7.20861 39.8378 7.20861C39.9434 7.1885 40.0791 7.18348 40.1897 7.20861C40.25 7.21867 40.3053 7.23375 40.3556 7.25888C40.4612 7.30412 40.5617 7.36947 40.6472 7.45995C40.7326 7.54541 40.803 7.64595 40.8432 7.75151C40.8583 7.79173 40.8734 7.83697 40.8834 7.88724C40.8985 7.95761 40.9085 8.02799 40.9085 8.10339C40.9085 8.22906 40.8884 8.33965 40.8533 8.44522" fill="#183660"></path><path d="M21.9667 10.7073V11.7428C23.2435 11.7428 24.3444 10.9838 24.8521 9.89797C24.9878 9.60642 25.0783 9.29475 25.1185 8.968C25.1185 8.95292 25.1386 8.56586 25.1386 8.56586V8.0682C25.1386 7.72135 25.0532 7.39461 24.8823 7.10305C24.7113 6.81149 24.4801 6.57523 24.1836 6.40432C23.6004 6.06249 22.8414 6.06249 22.2532 6.40432C21.9617 6.57523 21.7254 6.80647 21.5495 7.10305C21.3736 7.39461 21.2881 7.72135 21.2881 8.0682C21.2881 8.41505 21.3685 8.74683 21.5294 9.03336C21.6902 9.31989 21.9114 9.54609 22.1929 9.70695C22.4744 9.86781 22.7911 9.95327 23.143 9.95327C23.3139 9.95327 23.4597 9.95327 23.5904 9.95327C23.1983 10.4157 22.6202 10.7123 21.9667 10.7123M23.143 8.92276C22.8967 8.92276 22.7006 8.84234 22.5498 8.68148C22.399 8.52062 22.3186 8.31451 22.3186 8.06317C22.3186 7.81183 22.404 7.60071 22.58 7.42477C22.7559 7.24883 22.967 7.15834 23.2184 7.15834C23.4697 7.15834 23.6708 7.2438 23.8467 7.41974C24.0227 7.59567 24.1081 7.8068 24.1081 8.05815V8.91774H23.138L23.143 8.92276Z" fill="#183660"></path><path d="M48.7861 10.7073V11.7428C50.0629 11.7428 51.1638 10.9838 51.6715 9.89797C51.8072 9.60642 51.8977 9.29475 51.9379 8.968C51.9379 8.95292 51.958 8.56586 51.958 8.56586V8.0682C51.958 7.72135 51.8725 7.39461 51.7016 7.10305C51.5307 6.81149 51.2995 6.57523 51.0029 6.40432C50.4198 6.06249 49.6607 6.06249 49.0726 6.40432C48.781 6.57523 48.5448 6.80647 48.3688 7.10305C48.1929 7.39461 48.1074 7.72135 48.1074 8.0682C48.1074 8.41505 48.1879 8.74683 48.3487 9.03336C48.5096 9.31989 48.7307 9.54609 49.0122 9.70695C49.2938 9.86781 49.6104 9.95327 49.9623 9.95327C50.1332 9.95327 50.279 9.95327 50.4097 9.95327C50.0176 10.4157 49.4396 10.7123 48.7861 10.7123M49.9623 8.92276C49.716 8.92276 49.52 8.84234 49.3692 8.68148C49.2184 8.52062 49.1379 8.31451 49.1379 8.06317C49.1379 7.81183 49.2234 7.60071 49.3993 7.42477C49.5753 7.24883 49.7864 7.15834 50.0377 7.15834C50.2891 7.15834 50.4902 7.2438 50.6661 7.41974C50.842 7.59567 50.9275 7.8068 50.9275 8.05815V8.91774H49.9573L49.9623 8.92276Z" fill="#183660"></path><path d="M83.7167 9.78723C83.6916 10.0084 83.6061 10.1793 83.4553 10.3151C83.3146 10.4357 83.1286 10.501 82.8672 10.5161V11.5466C82.9728 11.5366 83.1085 11.5265 83.1135 11.5265C83.5056 11.4762 83.8474 11.3305 84.1239 11.0892C84.4305 10.8228 84.6316 10.4709 84.707 10.0436C84.7171 9.99836 84.7271 9.80734 84.7271 9.80734L84.7472 6.23828H83.7218C83.7218 8.60592 83.7167 9.7269 83.7117 9.7822" fill="#183660"></path><path d="M83.757 4.49393C83.6364 4.61457 83.5811 4.76035 83.5811 4.92624C83.5811 5.09212 83.6414 5.2379 83.757 5.35855C83.8777 5.47919 84.0184 5.53951 84.1943 5.53951C84.3703 5.53951 84.501 5.47919 84.6216 5.35855C84.7423 5.2379 84.7975 5.09212 84.7975 4.92624C84.7975 4.76035 84.7372 4.61457 84.6216 4.49393C84.3803 4.24259 83.9882 4.25767 83.762 4.49393" fill="#183660"></path><path d="M89.3118 7.10305C89.1409 6.81149 88.9097 6.57523 88.6181 6.40432C88.035 6.06249 87.2759 6.06249 86.6878 6.40432C86.3962 6.57523 86.16 6.80647 85.9841 7.10305C85.8081 7.39461 85.7227 7.72135 85.7227 8.0682C85.7227 8.41505 85.8031 8.74683 85.9639 9.03336C86.1198 9.31989 86.346 9.54609 86.6275 9.70695C86.909 9.86781 87.2257 9.95327 87.5776 9.95327C87.7485 9.95327 87.8943 9.95327 88.025 9.95327C87.6329 10.4107 87.0548 10.7123 86.4013 10.7123V11.7478C87.6781 11.7478 88.779 10.9888 89.2867 9.903C89.4224 9.61144 89.5129 9.29978 89.5531 8.97304C89.5531 8.95796 89.5732 8.57089 89.5732 8.57089V8.07323C89.5732 7.72637 89.4878 7.39963 89.3169 7.10807M88.5528 8.92276H87.5725C87.5725 8.92276 87.5424 8.92276 87.5273 8.92276C87.5022 8.92276 87.477 8.92277 87.4519 8.91774C87.4519 8.91774 87.4469 8.91774 87.4418 8.91774C87.2609 8.89261 87.1101 8.8172 86.9844 8.6865C86.8336 8.52564 86.7532 8.31954 86.7532 8.0682C86.7532 7.81686 86.8386 7.60573 87.0146 7.42979C87.1251 7.3192 87.2508 7.24882 87.3865 7.20861C87.3916 7.20861 87.4016 7.20861 87.4066 7.20358C87.4418 7.19353 87.477 7.1885 87.5122 7.17845C87.5424 7.17845 87.5725 7.17342 87.6027 7.16839C87.6178 7.16839 87.6379 7.16839 87.653 7.16839C87.653 7.16839 87.653 7.16839 87.658 7.16839C87.658 7.16839 87.658 7.16839 87.663 7.16839C87.9093 7.16839 88.1154 7.25385 88.2914 7.42979C88.4673 7.60573 88.5528 7.81686 88.5528 8.0682V8.92779V8.92276Z" fill="#183660"></path><path d="M36.7615 11.8984C36.8771 11.7778 36.9375 11.632 36.9375 11.4661C36.9375 11.3002 36.8771 11.1444 36.7615 11.0288C36.5303 10.7975 36.1432 10.7875 35.8919 11.0288C35.7713 11.1444 35.7109 11.2952 35.7109 11.4661C35.7109 11.637 35.7713 11.7727 35.8919 11.8984C36.0125 12.0191 36.1583 12.0794 36.3242 12.0794C36.5001 12.0794 36.6409 12.0191 36.7615 11.8984Z" fill="#183660"></path><path d="M12.8939 6.24331H11.8684C11.8684 8.61598 11.8634 9.75707 11.8583 9.81237C11.8332 10.0335 11.7477 10.2045 11.5969 10.3402C11.4612 10.4608 11.2702 10.5262 11.0088 10.5413V11.5718C11.1144 11.5617 11.2501 11.5517 11.2551 11.5517C11.6472 11.5014 11.989 11.3556 12.2655 11.1143C12.6023 10.8177 12.8134 10.4206 12.8687 9.93804L12.8888 6.23828L12.8939 6.24331Z" fill="#183660"></path><path d="M14.7587 11.1195C15.0955 10.8279 15.3015 10.4308 15.3619 9.94824H17.8502L17.8602 4.44385H16.8448L16.8348 8.92277H15.3921C15.3921 8.92277 15.382 8.92277 15.3719 8.92277L15.387 6.24346H14.3615C14.3615 8.61613 14.3565 9.75723 14.3515 9.81252C14.3264 10.0337 14.2409 10.2046 14.0901 10.3403C13.9493 10.461 13.7633 10.5263 13.502 10.5414V11.5719C13.6075 11.5619 13.7432 11.5518 13.7483 11.5518C14.1404 11.5015 14.4822 11.3558 14.7587 11.1145" fill="#183660"></path><path d="M106.685 0.990289C112.38 0.990289 117.015 5.62504 117.015 11.3205C117.015 17.0159 112.38 21.6506 106.685 21.6506C100.989 21.6506 96.3544 17.0159 96.3544 11.3205C96.3544 5.62504 100.989 0.990289 106.685 0.990289ZM106.685 0C100.446 0 95.3691 5.07711 95.3691 11.3154C95.3691 17.5537 100.446 22.6309 106.685 22.6309C112.923 22.6309 118 17.5537 118 11.3154C118 5.07711 112.923 0 106.685 0Z" fill="#64BD6B"></path><path d="M112.742 15.7138C112.657 15.6635 112.179 15.4775 111.43 15.4775C110.375 15.4775 108.751 15.8093 106.725 17.2973H106.715L106.675 17.2721C104.649 15.7792 103.05 15.4775 101.995 15.4775C101.246 15.4775 100.768 15.6635 100.683 15.7138C100.658 15.7289 100.612 15.754 100.623 15.7993C100.628 15.8294 100.653 15.8395 100.698 15.8395C100.713 15.8395 100.733 15.8395 100.738 15.8395C100.979 15.7792 101.236 15.749 101.502 15.749C102.875 15.749 104.644 16.7845 106.067 17.8201C105.78 18.0563 105.488 18.3127 105.187 18.5942C105.147 18.559 105.132 18.5489 105.091 18.5138C104.966 18.4082 104.845 18.3378 104.724 18.2926C104.654 18.2674 104.579 18.2624 104.508 18.2775C104.373 18.3077 104.282 18.4384 104.297 18.5992C104.307 18.7349 104.403 18.8405 104.513 18.8455C104.604 18.8455 104.679 18.8053 104.724 18.7249C104.78 18.7701 104.83 18.8103 104.875 18.8556C104.895 18.8757 104.92 18.9008 104.941 18.9209L104.855 18.9963C104.785 19.0567 104.719 19.117 104.649 19.1723C104.513 19.2829 104.368 19.3985 104.207 19.4689C104.156 19.494 104.091 19.5191 104.026 19.5141C103.996 19.5141 103.96 19.504 103.925 19.494H103.9C103.9 19.494 103.895 19.4839 103.89 19.4839C103.87 19.4739 103.85 19.4638 103.825 19.4588C103.815 19.4588 103.805 19.4588 103.794 19.4588C103.744 19.4588 103.699 19.4839 103.674 19.5292C103.644 19.5794 103.639 19.6498 103.654 19.7101C103.669 19.7604 103.694 19.7956 103.719 19.8258C103.825 19.9464 103.955 20.0168 104.106 20.0319C104.131 20.0319 104.161 20.0319 104.187 20.0319C104.212 20.0319 104.242 20.0319 104.272 20.0319C104.383 20.0218 104.503 19.9866 104.634 19.9263C104.83 19.8358 105.021 19.7152 105.242 19.5392L105.423 19.3935C105.483 19.4487 105.544 19.5091 105.604 19.5644C105.68 19.6297 105.77 19.7051 105.886 19.7453C105.916 19.7554 105.951 19.7604 105.986 19.7604C106.001 19.7604 106.011 19.7604 106.026 19.7604C106.041 19.7604 106.057 19.7604 106.072 19.7554C106.172 19.7353 106.248 19.6448 106.268 19.5292C106.288 19.4085 106.243 19.2879 106.157 19.2326C106.072 19.1773 105.966 19.1873 105.891 19.2628C105.881 19.2728 105.871 19.2829 105.86 19.2979C105.815 19.2527 105.77 19.2024 105.725 19.1522C106.021 18.8857 106.383 18.6093 106.725 18.3328C107.072 18.6042 107.454 18.8807 107.751 19.1522C107.705 19.2024 107.66 19.2527 107.615 19.2979C107.605 19.2879 107.595 19.2728 107.585 19.2628C107.504 19.1873 107.399 19.1773 107.313 19.2326C107.228 19.2929 107.183 19.4085 107.203 19.5292C107.223 19.6448 107.298 19.7353 107.399 19.7554C107.414 19.7554 107.429 19.7604 107.444 19.7604C107.459 19.7604 107.469 19.7604 107.484 19.7604C107.519 19.7604 107.555 19.7554 107.585 19.7453C107.7 19.7051 107.791 19.6347 107.866 19.5644C107.927 19.5091 107.992 19.4487 108.047 19.3935L108.228 19.5392C108.449 19.7152 108.64 19.8358 108.836 19.9263C108.967 19.9866 109.088 20.0218 109.198 20.0319C109.228 20.0319 109.254 20.0319 109.284 20.0319C109.314 20.0319 109.339 20.0319 109.369 20.0319C109.515 20.0168 109.646 19.9464 109.751 19.8258C109.776 19.7956 109.802 19.7604 109.817 19.7101C109.832 19.6498 109.822 19.5794 109.796 19.5292C109.771 19.4839 109.726 19.4588 109.676 19.4588C109.666 19.4588 109.656 19.4588 109.646 19.4588C109.621 19.4588 109.6 19.4739 109.58 19.4839C109.58 19.4839 109.575 19.4839 109.57 19.4839H109.545C109.51 19.499 109.475 19.5091 109.445 19.5141C109.379 19.5191 109.314 19.494 109.264 19.4689C109.098 19.3985 108.952 19.2829 108.821 19.1723C108.751 19.117 108.686 19.0567 108.615 18.9963L108.53 18.9209C108.53 18.9209 108.575 18.8757 108.595 18.8556C108.64 18.8103 108.696 18.7701 108.746 18.7249C108.791 18.8003 108.867 18.8455 108.957 18.8455C109.068 18.8455 109.163 18.7349 109.173 18.5992C109.188 18.4434 109.098 18.3077 108.962 18.2775C108.892 18.2624 108.821 18.2674 108.746 18.2926C108.625 18.3378 108.505 18.4082 108.379 18.5138C108.339 18.5489 108.324 18.559 108.283 18.5942C107.992 18.3227 107.69 18.0563 107.404 17.8201C108.821 16.7895 110.596 15.754 111.963 15.754C112.23 15.754 112.486 15.7842 112.727 15.8445C112.732 15.8445 112.747 15.8445 112.767 15.8445C112.808 15.8445 112.833 15.8294 112.843 15.8043C112.853 15.759 112.808 15.7339 112.782 15.7188" fill="#64BD6B"></path><path d="M107.308 15.0702C107.188 15.2763 107.017 15.8343 107.017 15.8444C107.198 15.6986 107.736 15.588 107.967 15.5377C109.621 15.1808 109.721 13.6778 109.772 13.3862C109.726 13.4717 109.611 13.6476 108.6 13.6929C108.072 13.718 107.193 13.7833 106.735 14.653C106.816 14.8138 106.876 14.9898 106.926 15.1909C107.494 13.8336 108.892 14.0196 109.128 13.9693C108.892 14.0749 107.876 14.1201 107.308 15.0753" fill="#64BD6B"></path><path d="M106.685 16.6641L106.931 16.5434C106.871 13.8842 105.433 13.7334 104.74 13.6982C103.729 13.653 103.614 13.4771 103.568 13.3916C103.619 13.6882 103.719 15.1862 105.373 15.5431C105.609 15.5934 105.956 15.6436 106.127 15.7944C105.936 14.0551 104.498 14.1004 104.212 13.9747C104.483 14.03 106.529 13.5977 106.434 16.5485L106.685 16.6691V16.6641Z" fill="#64BD6B"></path><path d="M105.845 8.99813C105.876 9.52092 106.212 9.94821 106.67 9.94821C107.127 9.94821 107.489 9.52092 107.494 8.99813C107.504 8.26924 106.67 6.88184 106.67 6.88184C106.67 6.88184 105.8 8.23405 105.845 8.99813ZM107.027 9.62146C106.926 9.70692 106.801 9.75216 106.665 9.75216C106.313 9.75216 106.026 9.42542 106.026 9.01824C106.026 8.89257 106.087 8.68647 106.172 8.46529C106.142 8.57085 106.127 8.66133 106.127 8.73171C106.127 9.22937 106.479 9.63152 106.906 9.63152C106.946 9.63152 106.987 9.63152 107.022 9.62146" fill="#64BD6B"></path><path d="M104.407 11.8129C104.407 13.331 106.559 13.8135 106.559 13.8135V13.341C106.559 11.7676 104.407 11.3403 104.407 11.3403V11.8129Z" fill="#64BD6B"></path><path d="M106.775 13.341V13.8135C106.775 13.8135 108.927 13.331 108.927 11.8129V11.3403C108.927 11.3403 106.775 11.7676 106.775 13.341Z" fill="#64BD6B"></path><path d="M104.945 10.1037C104.945 11.3353 106.579 11.7324 106.579 11.7324V11.3504C106.579 10.0685 104.945 9.72168 104.945 9.72168V10.1037Z" fill="#64BD6B"></path><path d="M106.75 11.3504V11.7324C106.75 11.7324 108.384 11.3403 108.384 10.1037V9.72168C108.384 9.72168 106.75 10.0685 106.75 11.3504Z" fill="#64BD6B"></path><path d="M100.949 7.47978C102.372 6.04713 103.282 5.79578 104.418 5.61482C103.257 6.35376 102.171 8.07797 102.508 9.28944C103.121 8.00257 104.192 6.74586 105.182 6.28841C104.624 7.0726 104.604 8.05283 105.142 8.88729C105.267 7.80149 106.021 6.76094 106.66 6.06221C107.293 6.76094 108.052 7.80149 108.178 8.88729C108.716 8.05283 108.701 7.0726 108.138 6.28841C109.128 6.74586 110.199 8.00257 110.812 9.28944C111.149 8.07797 110.063 6.35879 108.902 5.61482C110.038 5.79076 110.948 6.04713 112.37 7.47978C111.903 5.56455 110.254 4.90101 108.932 4.66474C110.385 4.53907 110.671 4.68988 111.953 5.2177C110.561 3.84537 109.585 3.59905 108.193 3.72975C108.434 3.51862 108.66 3.40803 109.012 3.31252C108.429 3.08129 107.514 3.20193 107.157 3.54376C107.157 3.54376 107.087 2.9154 106.67 2.66406C106.248 2.92546 106.182 3.55381 106.182 3.55381C105.825 3.21198 104.91 3.09134 104.327 3.32258C104.679 3.41306 104.905 3.52868 105.147 3.73981C103.754 3.60408 102.774 3.85542 101.387 5.22775C102.668 4.6949 102.955 4.54913 104.408 4.6748C103.091 4.91106 101.437 5.5746 100.969 7.48983" fill="#64BD6B"></path></svg>