<svg xmlns="http://www.w3.org/2000/svg" width="50" height="40" viewBox="0 0 50 40" fill="none"><path d="M1.2873 18.7712C13.8218 12.8056 26.3563 6.83995 38.8908 0.870263C39.9633 0.359964 41.0553 -0.0247679 42.2643 0.230382C43.2276 0.777131 43.7736 1.63166 43.9764 2.74136C45.2049 7.0546 47.5254 10.8656 49.2648 14.9399C50.5284 17.8964 50.2788 20.9258 47.3265 21.9181C38.571 24.8705 32.5534 31.3707 26.5006 37.952C25.8181 38.6931 25.0576 39.3776 24.0631 39.6732C23.56 39.7947 23.057 39.7907 22.5539 39.6854C14.6447 34.8051 7.36738 29.0703 0.975327 22.1651C-0.233664 20.861 -0.0308944 19.7797 1.2873 18.7672V18.7712Z" fill="#333333"></path></svg>