<svg xmlns="http://www.w3.org/2000/svg" width="12" height="12" viewBox="0 0 12 12" fill="none"><path d="M7.60191 5.7357C7.46654 5.4429 7.2803 5.17632 7.05138 4.94831C5.97085 3.87221 4.22324 3.87221 3.14281 4.94831L0.69378 7.40308C-0.274364 8.49804 -0.223493 10.1564 0.810285 11.1899C1.84406 12.2234 3.50296 12.2742 4.5983 11.3064L6.71589 9.20667C6.921 9.00162 6.921 8.66862 6.71589 8.46356C6.50995 8.25851 6.17767 8.25851 5.97173 8.46356L3.85498 10.5689C3.17727 11.1661 2.15252 11.1341 1.51349 10.4976C0.873527 9.86028 0.837422 8.83667 1.43144 8.15683L3.88635 5.69219C4.55666 5.02536 5.63968 5.02536 6.30997 5.69219C6.45191 5.83244 6.56678 5.9973 6.65046 6.17856C6.77845 6.432 7.08366 6.53698 7.34047 6.41724C7.59728 6.29831 7.71295 5.99648 7.6022 5.73565L7.60191 5.7357Z" fill="#343434"></path><path d="M11.1955 0.80769C10.1142 -0.26923 8.3657 -0.26923 7.28443 0.80769L5.17335 2.91811C4.96824 3.12316 4.96824 3.45616 5.17335 3.66122C5.37929 3.86627 5.71157 3.86627 5.91751 3.66122L8.04498 1.54513C8.72514 0.951311 9.74907 0.987404 10.3865 1.62715C11.0231 2.26609 11.0551 3.29052 10.4578 3.96791L8.00293 6.42205C7.33262 7.08887 6.24961 7.08887 5.57932 6.42205C5.43738 6.28179 5.32251 6.11694 5.23883 5.93567C5.11084 5.68224 4.80563 5.57725 4.54882 5.697C4.29201 5.81593 4.17634 6.11776 4.28709 6.37858C4.42247 6.67139 4.6087 6.93797 4.83762 7.16597C5.91733 8.24371 7.6666 8.24371 8.74619 7.16597L11.1952 4.7112C12.2684 3.63101 12.2684 1.88814 11.1952 0.807841L11.1955 0.80769Z" fill="#343434"></path></svg>