<svg xmlns="http://www.w3.org/2000/svg" width="55" height="56" viewBox="0 0 55 56" fill="none"><path d="M17.6945 55.2286C14.0597 53.1591 13.6229 49.1577 12.3399 45.6666C11.5638 44.7999 11.318 43.5971 10.6043 42.6939C7.57401 34.5089 3.37767 26.8139 0.791992 18.8799C1.94638 16.5998 3.6468 16.1462 5.11319 15.4051C14.4068 10.7233 23.7238 6.08602 33.0408 1.44878C34.5072 0.719779 35.9814 -0.442562 37.635 1.07619C41.4765 2.89058 42.0381 6.84742 43.2705 10.3628C43.5708 11.59 44.4912 12.4607 44.9865 13.5785C47.7828 19.9289 50.5907 26.2671 53.1335 32.7309C53.7497 34.2942 54.6623 35.817 53.7263 37.5828L53.7185 37.5626C53.3402 37.8177 52.9659 38.085 52.5993 38.3564C40.9656 43.9778 29.332 49.6032 17.6984 55.2246L17.6945 55.2286Z" fill="#333333"></path></svg>