<svg xmlns="http://www.w3.org/2000/svg" width="45" height="17" viewBox="0 0 45 17" fill="none"><path d="M11.3889 0.00341797C15.831 1.68011 20.5656 1.21027 25.1363 1.98382C29.5433 2.72902 34.0556 2.78571 38.5093 3.29196C40.2955 3.49446 42.1324 3.79828 43.8952 5.18743C44.683 8.56512 44.3437 12.0967 44.0083 15.6809C41.0404 17.2159 38.2207 16.5638 35.4596 16.3491C28.1861 15.7821 20.9127 15.1949 13.647 14.5226C9.06455 14.1014 4.39239 14.1824 0.0283203 12.2951C3.4837 8.51644 6.93515 4.74186 10.3905 0.963215C10.6908 0.663515 10.9989 0.36789 11.307 0.0762901L11.385 0.00747192L11.3889 0.00341797Z" fill="#333333"></path></svg>