<svg xmlns="http://www.w3.org/2000/svg" width="26" height="22" viewBox="0 0 26 22" fill="none"><path d="M25.3675 19.8322C18.601 20.4761 11.8345 21.1443 5.06419 21.7478C3.4925 21.8895 1.82722 22.4606 0.0488281 21.0269C2.95431 18.2445 6.87766 19.7309 10.4149 17.7869C9.60764 12.4044 7.17798 8.37472 2.14311 6.15532C2.02611 5.10637 1.29684 4.39358 0.657247 3.78203C1.59714 1.98384 2.68132 0.76481 4.34661 0.209961C6.03919 0.94301 6.77631 2.63993 7.8761 3.97642C10.7426 7.28122 13.7338 10.4929 15.1963 14.7332C17.5012 16.1305 20.0674 16.09 22.3879 16.9C23.6554 17.5804 24.6655 18.5402 25.3714 19.8322H25.3675Z" fill="#555351"></path></svg>