<svg xmlns="http://www.w3.org/2000/svg" width="103" height="106" viewBox="0 0 103 106" fill="none"><path d="M91.614 31.8524C95.5802 40.7259 100.237 49.2916 102.994 57.9019C102.081 61.0082 100.311 62.1463 98.6456 63.2074C87.2772 70.469 77.0593 79.4033 66.0692 87.2076C57.6998 93.153 49.2174 98.9283 40.7856 104.781C34.2298 105.923 28.6216 102.65 23.7076 99.3009C19.6985 96.5712 22.2022 91.1928 23.185 87.1914C24.1249 83.3561 25.1974 79.5937 25.5289 75.1832C17.4833 62.7133 9.33235 49.9558 1.01761 37.3036C-0.784176 33.6181 -0.179709 30.451 2.88957 27.8104C5.51425 26.2228 8.47436 25.6153 11.3525 24.7851C16.6175 23.2704 21.7537 21.8003 26.5273 18.5765C31.6831 15.0975 38.274 15.4701 44.1747 13.8704C47.6807 12.9186 51.2922 12.2504 54.845 11.412C63.308 13.1049 67.9295 6.43864 73.5805 2.06059C74.4775 1.36804 74.9689 0.104443 76.6966 0.132793C80.0818 1.73254 78.8533 5.96881 80.308 8.82001C82.2696 12.6594 83.2368 17.1752 85.3155 21.0672C87.324 24.8256 85.9551 27.9157 84.1962 31.014C86.7039 31.2003 89.4339 29.0619 91.6101 31.8524H91.614Z" fill="#333333"></path></svg>