<svg xmlns="http://www.w3.org/2000/svg" width="208" height="30" viewBox="0 0 208 30" fill="none"><path d="M104.446 -209.318C107.137 -202.797 110.83 -196.832 114.126 -190.647C121.376 -177.048 128.727 -163.508 136.044 -149.945C143.274 -136.531 150.52 -123.126 157.743 -109.708C164.724 -96.7403 171.678 -83.7601 178.655 -70.792C186.119 -56.9208 193.545 -43.0252 201.119 -29.2188C203.061 -25.6791 203.911 -21.3254 207.682 -19.0372C206.602 -18.4702 205.522 -17.9031 204.441 -17.3362C202.195 -17.814 201.376 -19.7823 200.343 -21.5441C196.025 -28.911 192.254 -36.602 188.054 -44.0377C186.81 -46.2409 185.8 -48.6507 183.144 -50.4813C167.532 -43.2277 151.683 -35.9418 135.876 -27.6596C137.693 -22.2042 139.827 -17.5751 141.933 -12.9297C145.107 -5.92326 148.957 0.738998 151.729 7.94798C149.245 9.86768 146.531 11.2852 143.497 11.9858C141.796 -1.29817 134.476 -12.0954 129.523 -24.3669C118.077 -20.1914 108.327 -14.2784 97.9918 -9.63307C97.945 -4.33568 100.172 -0.200607 102.134 3.88988C105.027 9.92842 107.769 16.0277 110.382 22.1999C111.123 23.9454 112.028 25.6221 111.603 27.639C110.401 28.7204 109.048 29.4615 107.437 29.6154C106.131 28.2708 105.023 26.8047 104.263 25.0227C96.3733 6.57097 87.7544 -11.5325 79.8842 -29.9964C71.8113 -48.9423 63.3249 -67.6897 55.0141 -86.5222C52.3816 -92.4878 49.7803 -98.4615 47.2297 -104.464C46.4341 -106.335 45.8102 -108.352 43.556 -109.664C38.6147 -108.19 34.04 -105.298 29.2041 -103.131C22.9524 -100.329 16.7826 -97.3032 10.5271 -94.4926C8.2144 -93.4558 6.03044 -92.2934 5.14515 -89.4908C4.79415 -88.3811 4.02974 -87.316 2.54385 -87.5873C-0.50203 -89.7784 0.921448 -92.7875 1.16715 -95.582C1.27245 -95.906 1.33876 -96.392 1.57276 -96.4892C7.58651 -98.9759 12.3718 -104.508 19.4736 -104.298C23.3892 -104.735 26.6886 -106.942 30.144 -108.554C44.4179 -115.212 58.5748 -122.134 72.7629 -128.99C76.1948 -130.651 79.9856 -131.603 82.9769 -134.243C82.6415 -138.358 80.3912 -141.489 78.9326 -144.935C77.4584 -148.418 75.8516 -151.84 74.432 -155.344C73.0865 -158.673 70.5867 -161.617 71.1561 -165.675C77.4233 -155.084 81.803 -143.57 86.9042 -132.429C91.978 -121.344 96.7243 -110.101 101.619 -98.9273C106.58 -87.5954 111.31 -76.1501 116.571 -64.9722C121.731 -54.0007 125.799 -42.4664 131.535 -32.0052C134.831 -32.5074 180.566 -54.5596 183.276 -56.8884C180.511 -62.2465 177.766 -67.7343 174.876 -73.1369C167.595 -86.7328 160.247 -100.288 152.931 -113.864C145.692 -127.285 138.45 -140.707 131.231 -154.137C125.631 -164.549 120.081 -174.994 114.473 -185.403C110.167 -193.397 105.803 -201.356 101.463 -209.33H104.466L104.446 -209.318Z" fill="#525353"></path></svg>