<svg xmlns="http://www.w3.org/2000/svg" width="22" height="34" viewBox="0 0 22 34" fill="none"><path d="M0.458982 20.9149C0.466782 19.6796 0.614986 18.4808 1.48858 17.5412C6.11005 12.5719 9.9905 6.90187 15.0254 2.31323C16.406 1.05773 17.654 0.182949 19.4245 1.36555C19.9783 2.61294 20.5283 3.8644 21.0158 4.966C20.93 5.49655 20.9845 5.92987 20.8013 6.15667C16.7765 11.0977 15.8834 16.8729 16.3982 23.1018C16.5971 25.4994 16.4138 27.9294 16.4099 30.3432C16.4099 31.8417 15.9965 33.0648 14.4521 33.5427C9.78772 29.3307 5.11944 25.1228 0.455078 20.9108L0.458982 20.9149Z" fill="#343433"></path></svg>