<svg xmlns="http://www.w3.org/2000/svg" width="15" height="15" viewBox="0 0 15 15" fill="none"><path d="M14.7459 10.5668C14.6484 11.7372 14.547 12.9077 14.4651 13.9C13.4355 15.1109 12.5424 14.3252 11.6532 14.0782C7.51531 13.8109 3.90006 12.1666 0.663086 9.54218C1.09208 8.81319 1.51715 8.08821 1.90325 7.43616C3.72064 6.49251 4.84779 9.35585 7.23458 7.63866C7.28138 7.60221 7.09418 7.01495 6.64958 6.41555C5.76429 5.6258 6.57936 4.27314 5.74476 3.46314C6.28296 1.98084 7.4218 1.02907 8.52549 0.0449219C8.70489 0.0773218 8.88425 0.113772 9.06754 0.146172C9.77734 0.332471 10.5183 0.381081 11.2203 0.611931C11.5752 0.76988 11.8014 1.04124 11.8911 1.43409C11.4894 2.41824 11.0838 3.40641 10.6821 4.39056C10.6197 4.68621 10.686 4.93734 10.8849 5.13984C11.1072 4.98594 11.2906 4.79152 11.4349 4.56067C12.4956 4.81177 12.9714 5.82429 13.7475 6.45204C14.5899 7.69134 14.274 9.2303 14.7498 10.5668H14.7459Z" fill="#C4A65C"></path></svg>