<svg xmlns="http://www.w3.org/2000/svg" width="105" height="97" viewBox="0 0 105 97" fill="none"><path d="M39.4697 1.25945C50.0504 9.06784 61.1458 16.1553 70.7475 25.3488C76.7768 31.1241 82.0886 37.5028 86.7061 44.5376C91.39 51.6737 96.6472 58.4534 100.793 65.9013C105.5 74.3537 106.05 91.9185 97.8796 99.9659C94.3931 103.4 91.5422 107.535 88.43 111.375C86.8973 113.27 85.2202 114.902 82.307 115.364C78.2354 113.699 73.6881 112.63 70.338 108.281C68.5362 105.94 65.1433 104.749 62.581 102.841C44.9648 89.7477 27.2823 76.7513 9.71684 63.5888C6.63976 61.2844 3.14924 59.4781 0.703962 56.315C-0.0799319 54.9461 0.196989 53.638 1.01988 52.4351C11.9866 36.3769 22.5126 19.9987 33.5729 4.01337C34.8521 2.16657 36.1704 -0.955895 39.4736 1.25945H39.4697Z" fill="#333333"></path></svg>