<svg xmlns="http://www.w3.org/2000/svg" width="57" height="51" viewBox="0 0 57 51" fill="none"><path d="M32.3531 29.1126C30.2705 27.9745 28.9484 29.4689 27.5327 30.6191C19.8693 36.8278 12.198 43.0283 4.55015 49.2613C3.62975 50.0105 2.72499 50.7233 1.5628 50.9987C1.2196 50.2252 0.876401 49.4476 0.533203 48.67C4.23038 47.6777 6.67177 44.6767 9.56165 42.4492C16.0863 37.4191 22.451 32.1582 28.8548 26.962C29.3579 26.557 29.6894 25.9212 30.1847 25.2853C27.8174 16.7804 23.2466 9.23927 20.6414 0.89224C21.5228 0.0336415 22.4277 0.0862578 23.3558 0.807156C26.5265 7.97969 29.6933 15.1482 32.7002 21.9522C34.2719 22.6002 35.1688 22.0615 35.9683 21.4743C40.972 17.7888 45.9601 14.079 50.9247 10.3409C52.3014 9.30406 53.3232 7.96351 53.6157 6.14507C54.9651 6.82142 55.8777 7.92299 56.4978 9.31214C56.1858 11.815 54.2592 12.9571 52.6095 14.3625C46.8961 19.2427 40.2232 22.8553 35.1922 28.6387C34.3226 29.2988 33.3242 29.1288 32.3531 29.1126Z" fill="#525252"></path></svg>