<svg xmlns="http://www.w3.org/2000/svg" width="208" height="185" viewBox="0 0 208 185" fill="none"><path d="M99.2183 130.187C99.7253 131.994 100.303 133.772 101.426 135.294C105.532 137.955 107.28 141.693 106.25 146.695C106.921 149.004 108.102 151.041 109.354 153.046C111.866 153.442 112.86 155.496 113.605 157.578C115.84 163.827 118.285 169.987 120.77 176.131C121.534 178.018 122.298 180.006 120.664 181.894C119.919 182.542 119.557 183.404 119.35 184.36C116.569 184.567 115.719 182.323 114.768 180.343C113.36 177.41 111.757 174.559 111.047 171.315C110.532 169.412 109.865 167.569 108.875 165.864C106.944 161.708 104.643 157.731 103.181 153.345C102.986 151.349 101.87 149.81 100.802 148.246C99.0897 144.532 97.4049 140.807 96.0711 136.923C95.7396 135.218 94.6943 133.869 93.9377 132.374C90.5604 125.813 87.612 119.05 85.038 112.112C84.8586 110.363 83.9811 108.957 82.9671 107.617C80.1357 102.664 78.5095 97.1233 75.8692 92.077C75.7327 91.6275 75.5962 91.1779 75.4402 90.7324C75.253 90.3071 75.097 89.8697 74.9683 89.4242C74.7967 87.4964 73.6618 86.0506 72.6712 84.5319C71.041 81.4174 69.949 78.0113 68.1082 74.6701C62.6483 75.5773 58.214 78.635 53.3819 80.5385C51.7361 81.9074 49.638 82.4704 47.9844 83.8231C44.3652 86.0709 40.4106 87.5369 36.5224 89.165C35.6605 89.4242 34.744 89.4809 33.9172 89.9021C33.0631 90.214 32.3182 90.7567 31.507 91.1658C26.1718 94.0656 20.6066 96.4631 15.2597 99.3386C12.2138 100.57 9.33565 102.101 6.88257 104.401C5.78278 105.138 4.58548 105.474 3.27509 105.361C2.2143 105.183 1.37581 104.66 0.888312 103.628C0.326716 100.902 2.02712 99.5411 3.8757 98.2654C4.2033 97.9819 4.56989 97.7389 4.93649 97.5161C5.29918 97.3339 5.66969 97.1395 6.01679 96.9248C6.17668 96.8033 6.34439 96.6859 6.50819 96.5644C6.82798 96.3214 7.14776 96.0784 7.45976 95.8192C7.78345 95.5681 8.13447 95.3656 8.50107 95.1995C9.22256 94.7662 9.93234 94.3126 10.6304 93.8266C15.7745 89.4566 22.1666 87.703 28.0009 84.7951C29.4595 84.4873 30.8362 83.9284 32.1739 83.248C32.4976 82.9686 32.8447 82.7296 33.1957 82.4907C33.9172 82.0249 34.6621 81.6037 35.4031 81.1663C38.8584 79.5706 42.1422 77.5659 45.8199 76.521C47.2824 75.9661 48.78 75.4761 49.9188 74.2732C54.3257 71.337 59.8559 70.5796 63.83 66.7159C63.6623 61.4104 59.813 57.6318 58.9433 52.7475C58.7756 50.9898 57.8591 49.6128 56.8412 48.2844C53.8967 42.3593 51.2253 36.3086 48.9516 30.0756C48.8697 28.3017 47.8011 26.8519 47.4267 25.1711C47.4033 24.3854 47.6022 23.6807 48.1443 23.1097C48.9711 22.4495 49.404 21.5423 49.6575 20.5217C51.1239 20.7202 51.5256 21.6881 51.3735 23.0651C51.5607 24.6851 52.2626 26.0499 53.3273 27.2285C53.7017 27.4755 54.0917 27.6983 54.4973 27.8886C55.1369 28.2005 55.6245 28.6825 56.0028 29.294C56.8139 30.6346 56.7788 32.044 56.303 33.4857C56.3693 35.5067 57.0869 37.2523 58.3544 38.767C62.3636 40.5814 63.2021 43.8861 62.3714 47.9766C62.4143 48.819 62.7029 49.5318 63.3815 50.0421C66.9343 51.3503 67.9288 54.6834 69.0871 57.8667C69.9568 60.2602 70.534 62.8806 73.6501 63.16C74.083 63.2896 74.5198 63.4071 74.9605 63.5083C75.1828 63.5448 75.4051 63.5772 75.6313 63.6136C76.4308 63.6501 77.1094 63.4152 77.5774 62.6983C77.7919 62.2812 78.022 61.8762 78.2638 61.4752C78.7006 60.5802 79.3714 59.9119 80.1592 59.349C83.4234 57.3969 86.9958 56.1211 90.3576 54.3756C91.9644 53.5413 93.7077 52.873 95.4744 54.1164C97.0188 53.8896 98.3175 53.1322 99.4874 52.0995C99.5615 51.8727 99.6356 51.6459 99.7058 51.4151C100.1 50.4998 100.689 49.7586 101.504 49.2159C105.096 47.8389 107.993 43.9428 112.517 45.8787C114.904 44.9472 117.774 45.3077 119.631 42.9789C119.678 42.7319 119.721 42.4808 119.763 42.2337C120.099 41.2334 120.668 40.4234 121.511 39.8159C129.966 35.0045 139.224 31.9791 147.707 27.2042C149.196 26.3659 150.858 26.0661 152.48 27.0381C154.555 26.0904 156.634 25.1387 158.709 24.191C162.741 18.8855 167.686 15.4268 174.507 15.7387C176.06 15.4592 177.503 14.9368 178.657 13.7663C181.434 9.04402 187.206 6.34675 192.494 7.30659C194.428 7.36329 196.062 6.62217 197.486 5.30592C198.375 1.78648 200.883 0.737508 204.038 0.676758C205.649 1.00481 207.794 0.579566 207.634 3.41861C204.56 5.09126 201.483 6.76796 198.41 8.44061C197.993 9.13721 197.053 8.85773 196.593 9.47738L196.519 9.53004C195.797 11.1986 194.378 12.1706 193.075 13.2641C188.773 15.2689 184.838 18.116 180.213 19.3918C178.52 19.5983 177.171 20.5217 175.919 21.6436C170.178 24.6325 164.266 27.2366 158.42 29.9906C156.79 30.4321 155.218 31.0031 153.884 32.1331C144.205 37.3292 134.306 42.0596 124.447 46.8791C122.47 47.847 120.508 48.7178 118.293 47.7255C117.236 47.7984 116.261 48.086 115.509 48.9203C112.942 53.6831 107.81 56.2184 102.483 55.3598C101.016 55.6716 99.6278 56.1698 98.4968 57.243C98.216 57.6075 97.9469 57.9841 97.7012 58.377C97.241 59.2518 96.5585 59.9039 95.7863 60.4708C92.0736 62.7591 88.1853 64.6585 84.1605 66.2785C82.2378 67.0521 80.3541 67.449 78.3886 66.5418C77.5852 66.5418 76.9183 66.8253 76.4308 67.5138C74.7772 70.1544 75.4246 72.6735 76.579 75.3302C79.9758 83.1629 83.8798 90.7567 86.91 98.7595C87.6861 100.809 88.9575 102.801 87.5496 105.086C87.7212 106.718 88.3764 108.123 89.3982 109.358C90.8607 109.557 91.8201 110.533 92.487 111.76C94.9518 116.276 97.1553 120.933 99.2339 125.655C99.8891 127.142 99.8423 128.681 99.2144 130.191L99.2183 130.187Z" fill="#E1BE62"></path></svg>