<svg xmlns="http://www.w3.org/2000/svg" width="24" height="29" viewBox="0 0 24 29" fill="none"><path d="M0.462287 6.47803C2.79057 4.08043 5.55564 2.28223 7.95802 0.471881C9.75591 0.0142322 10.6998 1.03482 11.7255 1.85697C12.0882 1.94607 12.3924 2.13239 12.6342 2.42803L12.6887 2.45233C14.5685 7.67277 18.3008 11.7147 20.9528 16.4451C21.8536 18.0529 23.2343 19.4178 23.2382 21.6493C20.8436 24.4681 17.2088 25.7195 14.6387 28.3844C13.1918 28.3034 12.1194 27.538 11.3394 26.3351C7.90349 21.0377 4.49487 15.7201 1.05899 10.4187C0.2595 9.18341 0.064494 7.89147 0.466191 6.47803H0.462287Z" fill="#333333"></path></svg>