<svg xmlns="http://www.w3.org/2000/svg" width="195" height="98" viewBox="0 0 195 98" fill="none"><path d="M22.4445 96.5239C14.4339 80.2227 7.36329 63.4881 0.807435 46.5106C0.499337 45.7127 -0.0271534 44.8298 0.0820458 44.0643C0.994639 37.6411 0.596867 30.8816 4.15364 25.0942C7.46082 19.7158 10.8616 14.3982 14.2194 9.05217C16.0524 7.68733 17.6397 8.51349 19.2738 9.57054C26.3249 14.1389 33.5594 18.3915 40.6691 22.8667C46.6984 26.6615 53.1802 26.3497 59.3967 24.2113C71.2136 20.1451 82.6405 14.9165 94.5511 11.0974C96.0058 10.7491 97.5229 10.656 98.9113 10.0201C99.3988 9.91078 99.8902 9.85405 100.389 9.83785C108.088 10.8422 115.174 14.8274 123.173 14.5925C127.268 14.471 130.677 13.9283 132.65 9.6313C134.803 4.9414 139.935 4.09091 143.375 1.02506C145.769 0.482362 147.006 2.01325 148.222 3.7993C151.502 8.60259 156.026 11.5956 161.237 13.8514C168.892 17.1643 176.521 20.4246 184.64 22.4172C189.578 23.6321 192.16 27.7064 194.113 32.8053C190.159 36.4017 185.6 34.7494 181.474 34.2148C178.802 33.8705 176.201 33.5344 173.596 34.0163C170.546 34.5752 168.116 36.0008 166.743 39.2894C165.433 42.4322 164.146 45.7694 161.833 48.2601C157.641 52.784 153.702 58.0206 146.405 56.5505C135.091 54.2703 126.644 60.5033 118.197 66.8537C106.228 75.8487 93.4903 83.6773 81.6071 92.8222C75.605 97.4433 74.4155 96.9491 70.2347 90.3679C68.9595 88.3591 67.497 86.4354 66.8925 84.0338C64.2327 73.4957 54.6622 71.6245 47.494 66.2704C42.4982 71.7703 39.1052 77.5011 35.4353 82.9726C32.873 86.7958 30.104 90.4651 27.6432 94.3693C26.5083 96.1675 25.1511 98.3626 22.4445 96.5361V96.5239Z" fill="#333333"></path></svg>