<svg xmlns="http://www.w3.org/2000/svg" width="72" height="101" viewBox="0 0 72 101" fill="none"><path d="M47.7093 29.76C43.6339 30.7846 40.9117 33.8018 37.6825 36.7867C48.3334 54.2057 59.6354 70.8795 70.0951 87.0471C70.996 89.6634 69.791 91.2834 69.9626 92.8305C70.3565 93.7053 70.9688 93.9563 71.6123 94.1588C71.4056 94.5436 71.1989 94.9324 70.9922 95.3212C68.8589 96.7994 66.7294 98.2736 64.3154 99.9463C63.4379 100.882 61.4919 97.2693 60.7002 100.424C55.9578 94.167 52.0149 87.3346 47.7328 80.7493C34.1219 59.8311 20.5967 38.8481 6.94293 17.9583C5.22304 15.3258 4.00626 12.0372 0.617188 10.9639C1.40108 9.91903 2.48912 9.42086 3.68642 9.12521C6.66989 9.19811 7.8399 11.6808 9.25559 13.7463C13.6782 20.1939 17.9915 26.7224 22.2191 33.3077C23.4086 35.1585 24.5396 37.0621 26.4662 38.0908C28.2758 38.0179 29.2898 36.9649 30.0893 35.5231C30.4559 33.2146 28.8764 31.712 27.8429 30.011C23.5139 22.875 18.5999 16.1357 14.6102 8.77286C13.5611 6.84102 12.1923 4.93348 13.6002 2.55613C14.0448 1.68134 14.739 1.14672 15.6594 0.919922C18.2919 1.78257 19.4229 4.15589 20.702 6.35908C24.8165 13.4344 29.4964 20.1209 33.8176 27.0545C34.5313 28.1966 35.2684 29.3671 36.6334 30.1001C40.0185 30.3593 42.0388 26.115 45.658 26.8156C46.6992 27.5324 47.331 28.553 47.7054 29.764L47.7093 29.76Z" fill="#525252"></path></svg>