<svg xmlns="http://www.w3.org/2000/svg" width="71" height="59" viewBox="0 0 71 59" fill="none"><path d="M28.4886 0.735519C39.5879 7.68531 50.7575 14.5217 61.7476 21.6577C65.0938 23.8326 68.0109 26.7567 70.6824 29.8509C71.2635 34.2897 67.5859 35.5776 65.0899 37.4487C63.4168 38.7042 61.2718 39.5263 59.1697 40.1136C56.2643 41.122 53.8423 43.1025 51.0967 44.4349C48.4525 45.7957 45.7031 46.9541 43.289 48.7644C42.4388 49.2302 41.4989 49.4933 40.6643 49.9996C36.0506 53.114 30.9261 55.2038 26.1136 57.9133C22.7908 59.7844 20.6614 58.8448 18.61 55.6939C16.157 51.9315 14.476 47.8004 12.7288 43.7262C9.47627 36.1446 5.66602 28.8587 2.21844 21.3864C-0.815737 14.8133 -0.534943 13.9506 5.82201 10.7187C7.0154 10.1112 8.2283 9.53619 9.43729 8.97324C10.0847 8.59659 10.7087 8.1794 11.3639 7.81895C14.4448 6.15845 17.5999 4.66403 20.5405 2.67953C22.8571 1.11624 25.4661 -0.272934 28.4847 0.731465L28.4886 0.735519Z" fill="#333333"></path></svg>