<svg xmlns="http://www.w3.org/2000/svg" width="5" height="6" viewBox="0 0 5 6" fill="none"><path d="M2.71197 1.2795C2.81035 1.31229 2.88903 1.36475 2.94149 1.43689C2.99396 1.50903 3.02677 1.61396 3.03988 1.73857C3.053 1.86317 3.05958 2.02713 3.05958 2.22388V5.13571C3.05958 5.18161 3.07922 5.22752 3.11201 5.26687C3.1448 5.30622 3.19075 5.32589 3.23666 5.32589H4.05643C4.10234 5.32589 4.14821 5.30622 4.181 5.26687C4.21379 5.22752 4.23351 5.18817 4.23351 5.13571V2.22388C4.23351 1.93532 4.21378 1.67299 4.16787 1.43033C4.12852 1.18768 4.04984 0.971261 3.93835 0.794191C3.82686 0.61712 3.66948 0.472841 3.46618 0.374468C3.26288 0.276095 3.0005 0.223633 2.67915 0.223633C2.52831 0.223633 2.39716 0.23019 2.27911 0.243307C2.16106 0.256423 2.04308 0.282656 1.93159 0.315447C1.8201 0.348238 1.70861 0.394143 1.59712 0.446608C1.48563 0.499074 1.36755 0.571212 1.23638 0.64991V0.459727C1.23638 0.41382 1.21674 0.367911 1.18395 0.335121C1.15116 0.30233 1.10521 0.282654 1.0593 0.282654H0.285482C0.239575 0.282654 0.193626 0.30233 0.160835 0.335121C0.128044 0.367911 0.108398 0.41382 0.108398 0.459727V5.13571C0.108398 5.18161 0.128044 5.22752 0.160835 5.26687C0.193626 5.30622 0.239575 5.32589 0.285482 5.32589H1.10525C1.15116 5.32589 1.19703 5.30622 1.22982 5.26687C1.26261 5.22752 1.28234 5.18817 1.28234 5.13571V1.54182C1.47252 1.44345 1.64955 1.36475 1.81351 1.30573C1.97746 1.2467 2.13485 1.22048 2.29224 1.22048C2.46275 1.22048 2.60048 1.24014 2.70541 1.27293" fill="#0B5463"></path></svg>