<svg xmlns="http://www.w3.org/2000/svg" width="185" height="146" viewBox="0 0 185 146" fill="none"><path d="M76.2811 28.9385C78.3247 27.1565 80.5828 25.9131 83.3283 25.8767C86.0388 27.3549 85.0716 30.518 86.226 32.7171C87.0957 34.3736 87.6144 36.2325 88.9365 37.5852C93.1952 37.4597 115.137 27.5089 120.23 23.3414C120.269 18.3842 116.576 14.7757 115.339 10.2275C117.11 8.71284 119.2 7.89474 121.373 7.26294C123.709 8.27544 123.892 10.7095 124.754 12.7142C125.756 15.0511 126.427 17.6188 129.102 19.7247C138.973 16.1891 148.321 10.5758 157.685 6.80123C159.311 4.60614 157.946 2.26524 159.69 0.900391C163.488 3.30609 164.651 7.31558 165.641 11.4304C161.772 13.0463 157.202 12.9451 153.738 16.987C155.01 21.7174 156.956 26.4234 159.456 30.5868C162.693 30.9878 165.002 28.4808 167.72 29.6918C168.948 30.6557 169.662 31.98 170.157 33.4583C170.177 33.9969 170.056 34.4991 169.802 34.9689C165.122 39.0068 159.46 40.9224 153.816 42.8948C153.025 42.9312 152.288 42.7328 151.613 42.2994C150.279 41.0763 150.42 39.509 150.65 37.9133C151.012 36.3945 152.342 35.3861 152.818 33.5838C151.297 29.06 149.168 24.6779 146.223 20.1217C141.138 21.7417 136.329 23.6492 131.813 26.8365C133.322 32.0448 135.112 36.7752 137.323 40.809C139.262 42.1415 141.079 41.2869 142.604 42.0564C143.719 42.6801 144.589 43.5306 144.987 44.8185C145.135 47.1716 142.943 48.2124 142.074 50.1321C143.474 55.4659 145.642 60.3907 148.899 65.4087C160.396 60.9982 171.152 54.9597 182.668 50.9137C183.76 52.0923 184.185 53.5827 184.497 55.1217C183.378 57.5314 181.155 58.3414 178.995 59.2891C171.475 62.5899 163.991 65.9635 156.628 69.6247C154.994 70.4347 153.263 71.1273 151.972 72.8242C152.436 78.1621 155.981 82.0987 157.943 86.7521C157.03 89.2064 155.08 89.4737 152.931 89.3279C149.784 87.7079 149.39 84.1358 147.799 81.4142C146.777 79.6687 146.208 77.6396 144.589 75.9386C140.525 75.9751 137.518 78.7453 133.993 80.5273C134.168 86.2013 137.877 90.1825 139.024 95.0992C138.337 97.2214 136.867 97.9179 134.835 97.598C131.867 96.2898 131.512 93.0944 130.167 90.6037C129.137 88.6921 128.767 86.3714 126.786 84.5247C121.575 85.9097 116.654 88.0684 111.888 90.952C112.992 96.7313 116.455 100.773 118.927 105.338C117.773 108.322 115.332 108.744 112.668 108.735C110.932 107.913 110.757 106.087 110.078 104.536C105.5 94.0218 100.188 83.8807 96.0227 74.0473C93.866 72.2977 92.0759 73.3629 90.5082 72.7878C89.1471 72.1438 87.8796 71.3784 87.1386 69.9487C86.7642 66.9396 89.6385 66.1741 91.1205 63.7401C90.1533 59.2365 88.1214 54.8544 85.3446 50.2374C80.5242 51.6103 76.2811 53.5705 72.8374 57.2074C72.3811 57.7825 71.8468 58.2604 71.2189 58.6209C65.8018 62.1808 60.0416 65.2102 55.1042 69.4384C55.6502 73.29 57.4442 76.1695 59.0354 79.0936C61.2428 80.0656 63.3761 78.2026 65.4625 79.207C66.4492 79.6039 66.9601 80.503 67.5607 81.313C67.7791 81.7706 67.8883 82.2607 67.8922 82.775C67.4749 85.3265 64.862 85.772 62.9744 88.3843C68.485 99.9915 71.6869 113.219 79.8067 124.113C78.9994 128.22 75.7975 127.532 73.0519 127.762C70.1425 126.029 69.7096 122.753 68.7112 119.905C67.4008 116.171 66.0359 112.518 63.4853 109.258C59.4488 109.72 56.5238 112.267 53.1932 114.385C54.2579 121.408 60.1469 126.422 60.0728 133.667C59.2187 135.644 57.7874 136.377 55.7633 135.822C52.2416 132.067 52.0896 126.252 48.0804 122.311C42.8856 123.226 38.4943 126.199 33.982 128.985C34.1185 134.587 39.282 138.292 38.2056 143.869C37.7025 144.861 36.8992 145.291 35.8423 145.266C32.8471 144.546 31.9735 141.812 30.7255 139.43C29.5555 137.199 29.1889 134.514 27.2428 132.724C25.9675 131.638 24.2866 132.497 22.9529 131.735C22.052 131.152 21.6893 130.298 21.7751 129.22C22.0558 127.702 23.7211 126.888 23.6665 124.753C23.4325 123.129 22.6448 121.327 21.3032 119.893C20.0552 119.27 18.9905 120.298 17.8556 120.035C15.617 119.075 14.9696 117.277 15.3635 114.936C15.5546 113.397 17.5982 112.777 17.2238 110.963C16.6076 108.063 14.1233 109.793 12.6842 108.954C10.9683 107.893 10.2818 106.366 10.7459 104.329C11.1086 103.155 12.2747 102.539 12.8714 100.806C9.61886 90.6806 3.6363 81.2523 0.34082 70.6575C0.45392 68.6041 1.6083 67.3121 3.25018 66.3726C5.50047 66.9882 6.15959 69.078 6.98639 70.9045C10.2351 78.0609 13.4447 85.2374 16.5725 92.4505C17.4461 94.4674 18.035 96.6787 19.9304 98.1002C22.1924 98.5295 24.466 96.7596 26.7358 98.0637C27.6367 98.6348 28.1281 99.4772 28.2763 100.546C28.2841 103.916 24.8443 104.459 23.2258 107.18C25.168 112.125 27.5275 117.127 30.3277 122.044C34.0678 121.1 37.2502 119.881 40.5612 117.313C37.8586 111.522 38.0107 104.224 31.2091 100.862C30.1093 99.9268 28.7677 99.2545 28.1203 97.8248C27.7576 95.8282 29.7232 94.921 30.0157 93.71C29.653 84.9863 20.1683 78.7129 25.1992 69.0455C24.193 64.4245 21.2681 60.5487 19.5443 56.1221C21.428 54.9759 23.2805 53.7568 25.4138 53.1291C28.5181 58.1956 30.0547 64.1046 33.1201 69.2521C37.5153 69.7381 40.4559 67.1137 43.7709 65.0766C43.845 59.8278 38.892 56.2354 39.6993 50.9259C40.374 49.5975 40.9902 48.2083 42.4137 47.5198C45.1398 47.5441 45.7092 49.9539 46.7973 51.8007C48.4938 54.6883 48.9891 58.2604 51.4694 60.901C55.2797 60.6216 58.2749 58.7019 61.2545 56.2233C60.0494 50.0228 56.6876 44.8914 54.2969 39.3429C55.7048 37.9538 57.5417 37.7067 59.3201 37.3058C62.1242 38.5653 62.1671 41.7243 63.5437 43.964C64.5928 45.665 64.9985 47.8114 67.2175 49.2897C71.7688 47.3254 76.7374 45.6893 80.9845 42.5465C81.0079 37.1559 77.4667 33.4785 76.285 28.9223L76.2811 28.9385Z" fill="#545454"></path></svg>