<svg xmlns="http://www.w3.org/2000/svg" width="29" height="47" viewBox="0 0 29 47" fill="none"><path d="M11.6175 0.914062C12.3975 3.80171 14.3513 5.98062 15.8801 8.40252C19.7645 14.5626 23.7698 20.6375 27.7283 26.749C29.2571 28.0612 29.0425 29.6852 28.6213 31.4389C27.8998 34.4602 27.9115 37.5219 28.5394 40.5716C28.5979 43.0542 28.4068 45.4154 25.8329 46.6345C24.2456 45.8123 23.4422 44.2368 22.6154 42.7708C16.8317 32.4716 9.62459 23.1809 3.32614 13.2463C2.34725 11.6992 0.927634 10.3303 0.865234 7.57225C3.97741 5.02481 6.58652 1.07202 11.6136 0.918116L11.6175 0.914062Z" fill="#343433"></path></svg>