<svg xmlns="http://www.w3.org/2000/svg" width="56" height="48" viewBox="0 0 56 48" fill="none"><path d="M7.38348 45.1683C4.49751 38.8057 1.57252 32.4554 0.30893 25.4651C-0.623164 22.8366 0.94855 21.6054 2.91804 20.8724C5.41792 19.9409 7.65261 18.3978 10.1876 17.5878C14.033 16.3607 16.6108 13.8983 18.5101 10.1156C21.9811 3.20227 29.2155 2.81752 35.3268 0.671021C36.7347 0.176922 38.0763 1.57012 38.8953 2.97952C39.1956 3.37237 39.4686 3.78952 39.7104 4.22287C39.9054 4.66432 40.116 5.10173 40.3461 5.52293C40.5723 5.93198 40.7478 6.36936 40.8882 6.81891C41.4497 8.30525 41.9802 9.81591 42.7524 11.2091C43.1345 12.0272 43.6259 12.7927 43.8833 13.6756C44.7803 16.7414 46.4807 19.4306 47.6624 22.3668C48.0446 23.189 48.5555 23.9382 48.926 24.7685C50.291 27.7169 52.4984 30.1307 53.8127 33.1155C54.2768 34.0065 54.7759 34.8732 55.162 35.8088C55.942 37.3356 55.7236 38.7896 54.8774 40.3124C49.2614 44.5527 43.5362 42.7342 38.0412 40.1625C35.0109 38.745 32.5734 38.7855 29.5939 40.2799C24.3835 42.8962 18.9508 45.0427 13.5455 47.2216C11.81 47.9223 10.0706 48.4609 8.30778 47.2986L8.31558 47.2905C7.82419 46.6709 8.02698 45.7231 7.38348 45.1723V45.1683Z" fill="#333333"></path></svg>