<svg xmlns="http://www.w3.org/2000/svg" width="68" height="59" viewBox="0 0 68 59" fill="none"><path d="M3.49425 22.7976C3.42405 22.4615 3.43182 22.0767 3.27192 21.7973C-0.56565 15.2322 1.01388 8.60644 2.97166 1.49465C19.4373 -0.526295 35.9693 4.6739 52.1776 0.737305C54.2251 2.3492 54.3343 4.74275 55.1494 6.76775C56.6079 10.3965 56.9394 14.4951 59.3808 17.7108C59.7786 22.7409 61.5336 27.4511 62.8323 32.2382C64.4118 38.0539 65.5662 43.9629 66.9507 49.8151C67.6215 52.6461 68.0466 55.5256 66.9507 58.1662C64.2246 58.1662 61.7598 58.1581 59.2911 58.1662C57.5088 58.1743 56.1088 57.3805 54.9115 56.0602C53.5426 54.5536 51.8266 53.2819 50.8165 51.5566C48.4492 47.5147 44.9353 45.8299 40.6727 44.8903C31.8314 42.9463 23.6181 39.1353 15.6504 34.8504C10.5454 32.1045 7.24992 27.1351 3.49034 22.7895L3.49425 22.7976Z" fill="#333333"></path></svg>