<svg xmlns="http://www.w3.org/2000/svg" width="55" height="70" viewBox="0 0 55 70" fill="none"><path d="M50.9272 52.7592C49.96 48.766 46.6489 47.389 43.2832 45.0481C36.8522 53.1805 30.2222 60.7863 24.5556 69.2265C23.7288 68.2829 22.9722 67.2906 22.6798 66.0108C25.7451 64.2734 27.2154 60.9848 29.3682 58.3928C33.2603 53.711 37.2812 49.1062 40.5494 44.0882C40.2452 41.2775 38.264 40.0666 36.6377 38.6855C26.3456 29.9254 15.9952 21.2382 5.66803 12.5226C4.25234 11.3278 2.93808 9.83337 0.820391 10.8904C0.796991 7.39933 0.559055 3.89203 1.56135 0.481934C1.67445 1.11373 1.7915 1.7415 1.9085 2.36924C2.1854 3.17924 2.46615 3.98924 2.74305 4.80329C8.86991 6.75539 12.8089 11.9556 17.6059 15.8274C24.6882 21.5419 31.5092 27.6128 38.4863 33.4732C40.522 35.1823 42.8854 36.782 42.6982 40.0747C43.7395 41.0831 44.7769 42.0916 45.8182 43.1C50.3929 41.8243 52.4209 45.1493 54.5425 48.3083C53.7391 50.143 52.4989 51.5969 50.9311 52.7633L50.9272 52.7592Z" fill="#545554"></path></svg>