<svg xmlns="http://www.w3.org/2000/svg" width="261" height="40" viewBox="0 0 261 40" fill="none"><path d="M-32.5586 77.9415C-32.5001 58.372 -32.4455 38.8024 -32.387 19.2329C-13.5774 12.3317 5.00594 4.61642 24.7125 0.785127C30.0516 -0.251672 35.4686 0.0601938 40.9676 1.51009C52.4647 4.53949 63.5172 8.72719 74.3747 13.575C76.937 14.7171 79.6319 14.134 82.2566 14.4094C92.7085 15.511 101.85 11.6918 110.598 6.40251C112.672 5.14702 114.814 4.38564 117.208 4.40184C118.3 3.54729 119.357 3.58372 120.34 4.57596C121.412 5.66136 122.684 6.62121 123.468 7.91315C129.731 18.2487 139.532 23.457 149.917 27.916C172.923 37.794 195.75 48.1133 218.678 58.1938C230.604 63.4345 242.514 68.7197 254.394 74.0738C256.5 75.0255 259.249 75.2078 260.224 78.0469C258.063 78.1076 255.899 78.221 253.738 78.221C160.467 78.2291 67.1949 78.2292 -26.0768 78.217C-28.2374 78.217 -30.3941 78.0387 -32.5547 77.9456L-32.5586 77.9415Z" fill="#333333"></path></svg>