<svg xmlns="http://www.w3.org/2000/svg" width="16" height="20" viewBox="0 0 16 20" fill="none"><path d="M11.7253 0.327825C12.3259 0.267075 12.9265 0.202291 13.5271 0.141541C14.038 1.12974 15.8982 1.63194 14.5722 3.27623C12.0685 5.04203 9.14348 6.56077 10.5631 10.631C9.80257 11.9432 9.6973 13.6361 8.39861 14.6365C6.08203 14.2679 6.64362 16.6372 5.75832 17.6254C5.04073 18.2288 4.72483 19.0631 4.48693 19.95C4.10083 19.5896 3.71084 19.2332 3.32474 18.8728C2.72805 17.5484 1.07837 18.3543 0.407572 17.4107C0.00587448 16.386 0.594757 15.6328 0.735156 14.8106C0.563557 14.11 0.606463 13.4296 0.887261 12.7613C1.77255 11.4532 2.52135 10.0802 2.84115 8.48452C4.31144 5.04607 5.87923 1.68458 9.5686 0.186085C10.0483 0.0767357 10.5319 0.0767278 11.0116 0.177978C11.2495 0.226578 11.4874 0.279225 11.7253 0.327825Z" fill="#D0B25F"></path></svg>