<svg xmlns="http://www.w3.org/2000/svg" width="110" height="85" viewBox="0 0 110 85" fill="none"><path d="M41.5585 0.390284C41.8588 0.459134 42.1592 0.536054 42.4595 0.613004C43.7777 0.912704 44.9047 1.62553 46.024 2.36668C49.1089 4.37143 51.2773 7.46154 54.1516 9.72143C54.838 10.6651 55.6219 11.5115 56.5462 12.2122C61.3626 15.8005 64.8141 21.1181 70.5938 24.1232C74.2247 21.8431 78.0779 19.6561 81.6269 17.3517C81.9935 14.8569 80.2502 13.0829 80.7689 10.9526C81.3695 9.5635 82.1183 8.29993 83.4989 7.59118C86.0065 7.49803 86.6851 9.56753 87.6562 11.3414C88.6975 13.2449 89.1811 15.5373 91.2754 16.9993C97.1526 16.4971 101.345 10.6448 107.581 10.8838C108.529 12.1109 109.184 13.4798 109.438 15.0391C108.018 17.9551 105.159 18.7246 102.609 19.9234C99.9099 21.1951 96.9499 21.9767 94.8166 24.4513C94.7386 29.9147 99.1611 33.7825 99.5472 39.0272C98.4435 40.3151 96.985 40.7808 95.4016 40.959C92.9368 40.392 92.2504 38.1686 91.2169 36.2124C89.2474 32.4784 88.0033 28.3028 85.0978 24.9697C81.3461 25.4273 78.7721 27.7885 75.773 30.3116C77.801 36.0667 82.4069 40.7646 82.3718 47.2608C81.233 48.3179 79.7471 48.6095 78.3899 49.1846C75.5702 47.4309 75.071 44.1302 73.7489 41.4329C68.913 31.5712 60.4968 25.4557 52.966 18.672C49.8694 19.8465 48.4108 21.8876 46.8352 24.4594C48.0403 31.5954 49.5574 38.683 56.6944 42.7735C59.5023 44.3813 61.9398 46.5238 62.2635 50.2173C62.5053 52.947 61.8501 55.2596 59.592 57.0335C57.7629 58.4753 55.7193 59.751 54.6196 62.0028C53.5822 63.7727 51.4021 64.1169 50.2555 65.7491C47.9311 71.901 43.0171 75.5622 38.1773 79.2963C36.6719 80.7826 35.1626 82.269 33.6572 83.7553C30.428 85.9504 28.5599 83.245 26.4033 81.5845C24.6093 78.5754 21.9144 76.0644 21.5985 72.2372C23.2872 73.8977 25.0032 75.5338 26.6607 77.2227C28.3689 78.9642 30.2447 80.3128 33.3725 80.4424C37.4987 76.6921 42.5219 73.2294 44.6045 66.9924C45.5677 64.1007 47.2525 61.9299 49.7212 60.2046C53.1571 57.7989 56.2458 54.9558 58.5507 50.8248C55.692 46.7506 50.8171 46.0013 48.9256 44.2071C42.8767 37.2735 44.1091 29.4287 40.8761 23.0257C35.3069 20.62 31.1417 25.3261 25.7441 26.2333C22.2342 25.6541 19.1688 22.3534 14.9217 22.0415C12.7416 22.9528 11.6419 25.1074 10.1599 26.9623C4.92221 33.5233 3.73273 41.036 4.32163 49.2737C4.55952 52.5825 5.26543 55.1462 7.60152 57.5276C11.989 62.0028 16.6533 66.2148 20.4636 71.2813C19.2819 72.2857 18.3342 71.6458 17.4411 70.7913C11.7745 65.3805 6.1156 59.9657 0.452836 54.5508C0.253938 50.108 0.285166 45.6611 0.238366 41.2142C0.195467 36.8685 0.456744 32.6525 3.09313 28.9913C4.48151 27.0635 3.97841 24.7105 4.35281 22.5518C4.61411 21.7742 5.07433 21.1586 5.74903 20.7212C7.05552 19.9558 8.68568 20.2109 9.96487 19.3037C13.506 16.7846 17.1447 17.1046 20.7834 19.0202C23.9541 20.6888 27.0194 20.8751 30.2291 18.9959C32.8811 17.4448 35.8646 16.8859 38.8832 17.3152C42.4009 17.8133 44.4445 15.9706 46.1176 13.172C44.5888 9.05724 39.9751 7.61952 38.9144 3.37918C38.8481 1.89688 39.8153 1.22052 40.8995 0.633274C41.1179 0.552274 41.3401 0.47128 41.5585 0.38623V0.390284Z" fill="#545555"></path></svg>