<svg xmlns="http://www.w3.org/2000/svg" width="41" height="44" viewBox="0 0 41 44" fill="none"><path d="M23.505 43.491C23.7624 42.6688 24.0432 41.8345 23.7234 40.9678C21.5667 35.1804 19.0824 29.559 15.8845 24.0632C11.8558 25.2701 8.31072 27.1006 4.72274 28.8138C3.41235 29.4375 2.62844 30.4743 2.51144 32.0011C1.33755 30.8388 1.20497 29.154 0.530273 27.7406C2.10976 24.8448 4.78901 23.6015 7.61259 22.4472C10.21 21.3861 12.8308 20.2764 14.8003 18.4782C15.9274 13.9341 10.4479 10.5038 13.5054 6.02856C14.9562 4.63941 13.993 2.2094 15.5724 0.876953C18.2088 3.57425 18.2361 7.48655 19.8078 10.6779C21.0714 13.2497 21.8241 16.1373 23.934 18.377C29.2223 17.7614 33.4577 14.1447 38.5511 13.2983C39.6392 14.5052 39.803 16.1616 40.4777 17.571C33.641 19.2882 27.6078 22.998 20.5176 25.5536C22.3194 31.5313 25.299 36.3184 27.5492 41.4255C26.3637 42.4461 25.0962 43.3006 23.5089 43.4829L23.505 43.491Z" fill="#525252"></path></svg>