<svg xmlns="http://www.w3.org/2000/svg" width="54" height="90" viewBox="0 0 54 90" fill="none"><path d="M51.5449 68.4613C52.2547 68.4856 52.9683 68.5099 53.6781 68.5342C54.0915 70.4903 52.0831 69.6884 51.5449 70.5551C50.9209 70.9035 50.3008 71.2558 49.6768 71.6041C48.538 71.6446 47.4382 71.7904 46.6036 72.73C44.482 75.6784 40.5587 76.1523 38.3981 79.1452C38.0822 81.5793 39.7514 83.6731 39.6071 86.0909C39.5759 87.2533 39.4628 88.3913 38.5853 89.258C36.9083 89.8898 35.9723 88.6343 35.4692 87.4841C34.1354 84.4223 31.7174 82.369 29.5997 80.02C29.5802 79.5907 29.5568 79.1655 29.5373 78.7362C29.4047 69.4698 25.3722 61.3252 22.5447 52.8486C21.3006 49.1185 19.8069 45.4978 19.6041 41.4924C18.8241 41.383 18.1299 41.0834 17.5917 40.4597C19.9356 39.1191 19.3155 37.2115 18.7266 35.1056C16.2931 26.4183 11.9212 18.7436 7.4011 11.1296C5.64611 8.17312 3.43869 5.69049 0.541016 3.90445C1.92161 2.2318 3.77413 1.2436 5.55642 0.158203C8.5594 2.04145 9.99848 4.55246 8.57109 8.22175C9.24969 8.9386 9.92437 9.65137 10.603 10.3682C16.5075 13.1789 19.4013 18.6586 21.4566 24.4986C22.8723 28.5203 25.7739 32.5095 23.5938 37.2642C23.9331 37.9973 24.2762 38.7303 24.6155 39.4674C29.1473 43.4647 30.4968 48.025 28.5858 52.8891C28.4103 54.7764 29.5802 55.9671 30.6644 57.1983C35.4341 60.1669 34.9973 66.3513 38.1407 70.3203C40.4027 71.1627 41.8925 69.3644 43.706 68.6759C46.28 67.6999 48.8656 65.7762 51.5488 68.4573L51.5449 68.4613Z" fill="#565656"></path></svg>