<svg xmlns="http://www.w3.org/2000/svg" width="5" height="6" viewBox="0 0 5 6" fill="none"><path d="M4.24214 1.26149C4.13065 1.08442 3.97319 0.940136 3.76989 0.841763C3.56659 0.743391 3.30429 0.690918 2.98294 0.690918C2.8321 0.690918 2.70095 0.697485 2.5829 0.710602C2.46486 0.723718 2.34679 0.749941 2.2353 0.782732C2.12381 0.815523 2.01232 0.85488 1.90083 0.913903C1.78934 0.966369 1.67134 1.03851 1.54018 1.11721V0.927013C1.54018 0.881105 1.52045 0.835207 1.48766 0.802416C1.45487 0.769625 1.409 0.749949 1.36309 0.749949H0.589193C0.543286 0.749949 0.497417 0.769625 0.464626 0.802416C0.431835 0.841765 0.412109 0.881105 0.412109 0.927013V5.60299C0.412109 5.6489 0.431835 5.6948 0.464626 5.73415C0.497417 5.7735 0.543286 5.79318 0.589193 5.79318H1.40896C1.45487 5.79318 1.50082 5.7735 1.53361 5.73415C1.5664 5.6948 1.58605 5.6489 1.58605 5.60299V2.00912C1.77623 1.91074 1.95334 1.83205 2.1173 1.77302C2.28125 1.714 2.43864 1.68776 2.59603 1.68776C2.76654 1.68776 2.90427 1.70088 3.0092 1.73367C3.10757 1.76647 3.18625 1.81893 3.23872 1.89763C3.29119 1.96977 3.32399 2.07469 3.33711 2.1993C3.35023 2.3239 3.35672 2.48786 3.35672 2.68461V5.59644C3.35672 5.64234 3.37645 5.68825 3.40924 5.7276C3.44203 5.76695 3.4879 5.78662 3.53381 5.78662H4.35358C4.39948 5.78662 4.44543 5.76695 4.47822 5.7276C4.51102 5.68825 4.53066 5.64234 4.53066 5.59644V2.68461C4.53066 2.39605 4.51101 2.13372 4.47166 1.89106C4.43231 1.64841 4.35363 1.43199 4.24214 1.25492" fill="#0B5463"></path></svg>