<svg xmlns="http://www.w3.org/2000/svg" width="43" height="56" viewBox="0 0 43 56" fill="none"><path d="M9.53776 55.3007C7.74767 55.4424 6.40215 54.5595 5.22046 53.2878C3.95297 51.923 2.41636 50.955 0.813477 50.0924C1.20737 46.901 3.77354 45.1271 5.48173 42.9158C16.1989 29.0607 27.1344 15.392 38.0115 1.67066C38.3196 1.28591 38.7915 1.03886 39.0879 0.808011C40.094 0.492111 40.8233 0.994308 41.5994 1.26161C43.6352 3.33115 42.1298 4.96734 40.9988 6.66834C35.6324 14.7359 30.3518 22.8724 24.8724 30.859C22.0059 35.0345 19.3267 39.3599 16.4524 43.5233C13.9369 47.1642 12.0454 51.4815 9.53776 55.3007Z" fill="#343433"></path></svg>