<svg xmlns="http://www.w3.org/2000/svg" width="5" height="6" viewBox="0 0 5 6" fill="none"><path d="M1.36998 4.94551C1.5864 5.11603 1.81598 5.23408 2.07175 5.29966C2.32752 5.36524 2.5636 5.40458 2.79314 5.40458C2.99644 5.40458 3.17347 5.40459 3.32431 5.39803C3.47514 5.39147 3.61943 5.38491 3.74404 5.37179C3.86864 5.35868 3.99978 5.34556 4.12438 5.32589C4.24899 5.30622 4.38022 5.28654 4.5245 5.25375C4.60976 5.24063 4.66222 5.22096 4.68189 5.18161C4.70157 5.14226 4.71463 5.0898 4.71463 5.01765V4.42742C4.71463 4.38152 4.70155 4.34872 4.66876 4.32249C4.63597 4.30282 4.60315 4.2897 4.55068 4.2897H4.5245C4.33432 4.30937 4.0916 4.32904 3.80304 4.34872C3.51448 4.36839 3.2063 4.38151 2.87839 4.38151C2.66197 4.38151 2.48487 4.34872 2.34714 4.27658C2.20942 4.211 2.09793 4.11919 2.01924 4.0077C1.94054 3.89621 1.88151 3.77816 1.85528 3.64043C1.82249 3.50927 1.80941 3.37155 1.80941 3.24039V3.21416H4.71463C4.83268 3.21416 4.89172 3.14202 4.89172 2.99118V2.49275C4.89172 2.15829 4.84584 1.85662 4.75402 1.57461C4.66221 1.29917 4.52449 1.05652 4.34742 0.853212C4.17035 0.649908 3.94736 0.492518 3.68504 0.387587C3.42271 0.276098 3.11447 0.223633 2.77344 0.223633C2.43242 0.223633 2.13073 0.276098 1.86185 0.387587C1.59296 0.492518 1.36996 0.643357 1.18633 0.840103C1.00271 1.03685 0.864981 1.27294 0.773167 1.55494C0.674794 1.83694 0.628906 2.14517 0.628906 2.49275V3.15514C0.628906 3.59453 0.701091 3.96179 0.838813 4.25035C0.976534 4.53891 1.15356 4.76845 1.36998 4.93896M1.81597 2.34848C1.81597 1.99434 1.90773 1.7189 2.0848 1.52871C2.26187 1.33853 2.49144 1.24671 2.77344 1.24671C3.05544 1.24671 3.27845 1.33852 3.45552 1.53527C3.62603 1.72545 3.71778 2.0009 3.71778 2.34848V2.38127H1.82254V2.34848H1.81597Z" fill="#0B5463"></path></svg>