<svg xmlns="http://www.w3.org/2000/svg" width="8" height="14" viewBox="0 0 8 14" fill="none"><path d="M4.5 0.5C4.5 0.223858 4.27614 -1.69882e-08 4 0C3.72386 1.69882e-08 3.5 0.223858 3.5 0.5L4.5 0.5ZM3.64645 13.8536C3.84171 14.0488 4.15829 14.0488 4.35355 13.8536L7.53553 10.6716C7.7308 10.4763 7.7308 10.1597 7.53553 9.96447C7.34027 9.7692 7.02369 9.7692 6.82843 9.96447L4 12.7929L1.17157 9.96447C0.976311 9.7692 0.659729 9.7692 0.464467 9.96447C0.269204 10.1597 0.269205 10.4763 0.464467 10.6716L3.64645 13.8536ZM3.5 0.5L3.5 13.5L4.5 13.5L4.5 0.5L3.5 0.5Z" fill="#343434"></path></svg>