<svg xmlns="http://www.w3.org/2000/svg" width="35" height="47" viewBox="0 0 35 47" fill="none"><path d="M10.6314 47.0022C9.80848 44.2765 12.2732 43.4787 13.5251 42.2313C16.0757 39.7 17.1638 36.9744 16.0445 33.2605C14.3519 31.0047 11.739 29.7411 9.41068 28.1332C6.2517 25.9543 3.80643 23.33 3.08103 19.3002C2.92894 18.4619 2.57015 17.66 2.30885 16.8419C-0.534232 7.95617 0.234053 5.90284 8.68529 0.358398C13.5915 4.52584 18.3104 9.04969 23.0528 13.5816C27.5728 17.8989 30.8683 22.9088 33.2434 28.7043C33.9727 30.4822 34.5967 32.2238 34.3978 34.1839C31.8199 36.4479 28.54 37.2053 25.5449 38.5458C22.0778 40.0969 18.5756 41.5387 15.4206 43.7298C14.9682 44.3859 13.9034 44.0538 13.5992 44.9488L13.611 44.9326C13.0923 44.9974 12.8231 45.4389 12.4721 45.7548L12.402 45.7953C12.1485 46.1395 11.8286 46.3825 11.4347 46.5283C11.2202 46.7835 10.9512 46.9374 10.6275 46.9941L10.6314 47.0022Z" fill="#333333"></path></svg>