<svg xmlns="http://www.w3.org/2000/svg" width="35" height="49" viewBox="0 0 35 49" fill="none"><path d="M14.5536 3.60108C13.3992 3.88053 12.2955 4.31794 11.5662 5.33043C8.79719 9.17388 5.90343 12.9323 3.63755 17.2455C5.63043 20.7164 8.39551 23.2557 11.1879 25.5804C14.4483 28.2939 17.4162 31.2828 20.2826 34.3851C23.6912 38.0706 27.9656 40.3629 32.123 42.8617C32.7938 43.2667 33.7297 43.1938 34.5409 43.3437C35.2663 45.6562 35.3989 47.7298 32.5676 48.6046C32.5091 45.96 30.715 44.6113 28.7846 43.5867C23.8238 40.9502 19.8068 37.1472 15.9849 33.0324C12.1863 28.9419 7.58433 25.7384 3.94566 21.4575C2.85757 20.1737 1.43798 19.1733 0.73599 17.367C0.64239 14.5523 1.74216 12.1466 3.78575 10.1743C6.72243 7.33926 9.05069 3.98586 11.4648 0.697266C12.7206 1.40601 13.8555 2.25244 14.5458 3.60513L14.5536 3.60108Z" fill="#515151"></path></svg>