<svg xmlns="http://www.w3.org/2000/svg" width="191" height="812" viewBox="0 0 191 812" fill="none"><path d="M-31.8292 -209.318V-137.694C-25.4645 -145.021 -17.5826 -146.507 -10.1883 -149.119C-5.67601 -150.715 -1.30414 -150.367 2.85323 -148.099C6.3749 -146.179 9.75228 -143.984 13.196 -141.91C15.4111 -140.549 14.0266 -145.126 16.1794 -143.862C18.8548 -141.526 21.9319 -140.772 25.4185 -140.635C29.7201 -140.464 33.9945 -139.65 38.5029 -139.087C41.3967 -140.347 44.5439 -141.509 47.504 -143.052C52.7924 -145.814 57.5854 -144.275 62.0587 -141.303C67.2769 -137.832 71.7111 -133.462 74.6478 -127.63C75.9309 -125.083 77.9745 -123.499 80.7513 -122.705C87.7946 -120.692 94.4753 -117.448 101.815 -116.371C106.507 -115.683 111.081 -115.488 115.64 -116.926C126.607 -120.381 137.562 -123.884 148.548 -127.29C150.619 -127.93 151.945 -129.448 153.271 -130.963C163.236 -142.356 173.731 -153.206 184.198 -164.088C185.485 -165.425 186.632 -166.951 188.328 -167.806C189.518 -168.166 190.262 -167.612 190.762 -166.542C191.128 -164.197 189.837 -162.577 188.383 -161.148C178.637 -151.541 169.729 -141.084 160.595 -130.89C152.522 -121.879 142.184 -119.336 131.435 -117.092C130.035 -116.804 129.049 -115.735 127.859 -115.039C109.755 -106.55 92.6462 -112.175 75.6501 -119.044C72.5106 -120.312 71.1144 -123.527 69.1645 -126.063C66.571 -129.44 64.1686 -132.903 60.7093 -135.523C57.1291 -138.237 53.4008 -139.164 49.454 -137.281C33.5265 -129.679 18.5311 -133.503 4.01152 -141.347C-1.67074 -144.417 -7.1463 -144.28 -12.8754 -142.364C-15.5702 -141.465 -18.2222 -140.4 -20.8313 -139.266C-26.1977 -136.929 -29.4268 -132.903 -29.5204 -126.593C-29.5672 -123.305 -29.5711 -120.016 -29.5711 -116.727C-29.5711 188.435 -29.5672 493.598 -29.6257 798.761C-29.6257 803.131 -28.4168 807.853 -31.7083 811.713C-31.9657 811.903 -32.2504 811.984 -32.5663 811.956C-34.0054 810.514 -33.3034 808.671 -33.3034 807.035C-33.3385 469.946 -33.3385 132.861 -33.319 -204.228C-33.319 -205.924 -33.7402 -207.698 -32.8393 -209.314H-31.837L-31.8292 -209.318Z" fill="#565656"></path></svg>