<svg xmlns="http://www.w3.org/2000/svg" width="65" height="42" viewBox="0 0 65 42" fill="none"><path d="M16.454 40.6881C15.3347 40.9756 14.2192 41.2632 12.7061 41.652C8.05338 35.4514 4.49273 28.4854 0.592763 21.888C0.452364 19.9764 1.71984 18.9882 2.62463 17.7934C7.0706 15.9466 6.8795 20.9322 8.75928 22.0054C17.0506 14.4684 25.5253 7.49025 37.428 6.95565C40.5363 6.81795 43.3911 4.96307 46.2653 3.57392C49.7909 1.86887 53.2385 -0.391031 57.4231 0.175968C60.8863 5.33566 62.1109 11.1109 63.8464 16.623C64.6732 19.2555 62.9533 21.0739 60.8785 22.6008C55.3796 26.6467 48.8159 28.368 42.9893 31.693C37.3656 34.9006 30.6576 35.6782 25.5019 39.9185C22.5769 42.3242 19.336 38.821 16.454 40.684V40.6881Z" fill="#333333"></path></svg>