<svg xmlns="http://www.w3.org/2000/svg" width="88" height="57" viewBox="0 0 88 57" fill="none"><path d="M51.7873 0.722417C58.0195 5.57836 63.573 11.2524 69.4736 16.5052C75.2534 21.6487 80.9707 26.8652 86.7115 32.0492C87.9244 33.6367 86.8988 34.8517 86.2085 36.2611C81.3335 46.2038 72.9602 51.7281 63.1206 56.1669C57.6723 52.0521 55.5703 45.1468 51.565 40.2544C49.069 39.169 47.3413 40.4529 45.5863 41.356C38.5781 44.9605 31.562 48.5529 24.5655 52.1857C22.6545 53.178 20.8215 54.5104 18.5166 54.397C11.8165 53.3764 10.6387 46.6453 7.0897 42.3807C6.49301 41.6638 6.23561 40.5744 5.53362 39.8413C3.65383 37.8163 2.87383 35.0826 1.33724 32.8308C0.947247 32.1625 0.604019 31.474 0.526019 30.6802C0.44022 27.7399 2.50727 26.6505 4.59376 25.5489C9.39462 23.0257 14.4762 21.0332 18.7818 17.5664C19.8153 17.0237 21.0789 17.0277 21.9759 16.1367C24.2885 14.6423 26.9093 13.7107 29.0816 11.9611C31.7453 10.41 34.5221 9.10189 37.2833 7.74919C40.7737 6.4289 44.3695 5.388 46.9396 2.23711C48.1369 0.771013 49.8295 0.0663103 51.7834 0.714309L51.7873 0.722417Z" fill="#333333"></path></svg>