<svg xmlns="http://www.w3.org/2000/svg" width="34" height="43" viewBox="0 0 34 43" fill="none"><path d="M5.48323 18.8818C5.46763 18.5416 5.44035 18.2014 5.40525 17.8653C5.09325 17.5089 4.78516 17.1484 4.48096 16.788C4.46536 16.4518 4.43808 16.1197 4.40298 15.7876C4.09488 15.4312 3.78674 15.0748 3.48254 14.7144C3.46694 14.3782 3.44356 14.0461 3.40456 13.71C3.09646 13.3536 2.78837 12.9972 2.48027 12.6367C2.46857 12.3006 2.44129 11.9685 2.40619 11.6323C2.0942 11.2759 1.7861 10.9195 1.4819 10.555C1.4663 10.2189 1.43897 9.88678 1.40387 9.55468C1.09578 9.19828 0.787684 8.84187 0.483486 8.48142C0.467886 8.14932 0.444505 7.81319 0.405506 7.48109C-0.20289 6.32279 0.752567 6.02714 1.39216 5.55734C5.33893 3.54449 9.28571 1.51947 13.486 0.11007C16.2979 -0.347579 17.7721 1.50736 19.0084 3.64576C22.1712 9.1173 25.6773 14.3782 28.4541 20.0847C28.6842 20.5099 28.8519 20.9594 28.9689 21.4292C30.408 24.3533 31.3167 27.5245 32.8182 30.4243C33.0093 31.3396 33.2705 32.2387 33.4187 33.1661C33.4187 33.644 33.3173 34.0976 33.134 34.535C32.8766 34.9279 32.5374 35.2316 32.124 35.4422C31.9017 35.4624 31.6755 35.4827 31.4493 35.507C25.8294 37.0055 20.9388 40.4116 15.2956 42.469C11.6608 35.4301 9.79271 27.8768 6.46603 20.9878C5.83423 20.437 6.09163 19.4407 5.48713 18.8778L5.48323 18.8818Z" fill="#333333"></path></svg>