<svg xmlns="http://www.w3.org/2000/svg" width="50" height="56" viewBox="0 0 50 56" fill="none"><path d="M35.4902 6.28552C34.3943 5.84812 33.2477 5.35401 32.1479 6.07086C29.6519 7.69086 26.8205 8.79653 24.3753 11.3602C26.0249 16.2404 29.1488 20.173 31.9217 24.3769C34.7453 28.6577 34.3943 34.3236 37.0775 38.9366C39.8192 38.9892 42.2566 38.1752 44.4328 37.1303C45.2089 35.247 44.0545 33.7607 44.4484 32.2338C47.0887 37.3975 50.0995 42.4479 49.2766 48.7051C48.9061 49.5637 48.2392 49.5394 47.5138 49.3491C45.9031 48.0247 47.0497 45.3234 45.0178 44.2825C44.7136 44.9508 45.3571 45.6353 45.3532 46.3845C44.3548 49.1102 49.0972 50.0579 47.2798 53.0306C46.219 54.1322 45.2947 55.4646 43.5319 55.3228C41.5234 51.3255 41.1958 46.668 38.8441 42.8083C38.0485 41.3544 36.0869 41.8364 34.8857 40.6214C33.2243 29.8443 28.0802 20.9627 20.8302 12.4334C14.8476 17.9495 7.92909 22.3316 3.47922 29.897C6.6343 32.9142 11.1895 32.2541 13.9116 34.9311C16.6221 37.596 18.8178 40.8846 20.0541 44.9346C18.2601 45.5421 17.6556 44.3595 17.2617 43.343C15.0465 37.6082 10.6201 35.0324 5.125 33.7769C3.56501 33.4205 1.72423 33.4448 0.796039 31.7073C0.374842 30.545 0.796015 29.6418 1.40441 28.763C6.72787 21.0923 13.7361 15.236 20.9316 9.67537C23.6811 7.54912 27.1091 6.34629 30.2759 4.83159C32.2844 3.87174 33.5363 2.49876 33.4154 0.0849609C34.7687 1.91556 35.2367 4.06208 35.4902 6.28958V6.28552Z" fill="#525252"></path></svg>