<svg xmlns="http://www.w3.org/2000/svg" width="4" height="6" viewBox="0 0 4 6" fill="none"><path d="M2.03033 5.27419C2.06312 5.23484 2.08277 5.18894 2.08277 5.14303V1.54916C2.27295 1.45078 2.46314 1.37208 2.65989 1.31306C2.85008 1.2606 3.07305 1.2278 3.31571 1.2278C3.36161 1.2278 3.40756 1.20813 3.44035 1.17534C3.4797 1.14254 3.49279 1.09664 3.49279 1.05073V0.40803C3.49279 0.362123 3.47314 0.316214 3.44035 0.283424C3.40756 0.250633 3.36161 0.230957 3.31571 0.230957C3.13864 0.230957 2.93538 0.257193 2.70584 0.316216C2.48286 0.37524 2.25331 0.486728 2.03689 0.663799V0.473616C2.03689 0.427709 2.01725 0.3818 1.98446 0.349009C1.95167 0.316218 1.90572 0.296543 1.85981 0.296543H1.07943C1.03352 0.296543 0.987571 0.316218 0.95478 0.349009C0.915431 0.3818 0.902344 0.427709 0.902344 0.473616V5.14959C0.902344 5.19549 0.921989 5.2414 0.95478 5.28075C0.987571 5.3201 1.03352 5.33978 1.07943 5.33978H1.8992C1.94511 5.33978 1.99097 5.3201 2.02377 5.28075" fill="#0B5463"></path></svg>