<svg xmlns="http://www.w3.org/2000/svg" width="469" height="117" viewBox="0 0 469 117" fill="none"><path d="M406.33 155.23C321.49 155.23 236.654 155.23 151.814 155.217C149.649 155.217 147.489 155.088 145.324 155.019C132.915 152.561 122.049 145.91 110.533 141.05C88.6577 131.817 66.9895 122.064 45.3953 112.146C35.2359 107.48 24.6553 103.88 15.0419 97.7602C8.28322 93.4591 4.69914 86.8252 0.190768 81.3739C0.108868 78.5106 1.57916 77.4009 3.18205 76.3884C8.65761 71.5486 15.0887 68.2357 21.1297 64.3072C34.9395 55.3284 48.8663 46.5359 62.7736 37.715C65.1799 36.1881 67.6564 34.7464 70.207 33.4949C91.5359 23.0054 112.888 12.5646 134.245 2.12775C135.59 1.47165 137.013 0.981513 138.398 0.414515C140.625 -0.727583 141.428 0.896483 142.048 2.56103C144.33 8.67652 148.998 10.8473 154.793 10.2479C167.562 8.92356 180.338 9.51493 193.118 9.40963C203.122 9.32863 212.95 11.0458 222.867 11.8234C224.845 11.9773 226.814 12.3823 228.815 12.3904C230.773 12.4147 232.746 12.2973 234.649 12.9453C235.468 13.1235 236.299 13.249 237.134 13.3219C241.314 13.7269 245.616 12.5524 249.695 14.3303C252.359 15.6142 255.202 15.5129 258.037 15.5129C271.676 15.0714 285.123 17.1734 298.644 18.4532C306.721 19.2146 314.907 18.6112 323.038 18.6922C326.221 18.5828 329.407 18.6435 332.589 18.6395C334.582 18.7164 336.571 18.6881 338.568 18.6395C351.512 19.4211 364.378 17.2018 377.31 17.6109C379.077 17.6878 380.848 17.6797 382.622 17.6109C395.414 17.5825 408.202 17.6108 420.99 17.5947C423.482 17.5947 425.978 17.5947 428.404 16.8981C432.916 17.052 437.296 15.193 441.543 15.3428C446.734 24.5647 446.613 34.7261 449.549 44.029C454.027 48.4313 460.216 49.3993 465.372 52.4449C467.197 53.5222 468.901 54.3767 468.885 56.8796C468.207 61.9745 464.428 65.2671 461.776 69.0539C455.789 77.5872 449.83 86.0719 446.441 96.124C443.462 104.965 437.011 111.077 431.036 117.467C426.325 122.51 422.874 128.305 419.508 134.263C418.603 135.862 417.995 137.786 416.134 138.616C414.727 139.183 413.365 138.949 412.57 138.426C413.077 138.556 413.603 139.386 414.083 140.277C414.278 140.743 414.387 141.229 414.426 141.735C414.454 142.76 414.075 143.695 413.833 144.659C411.724 148.369 410.507 152.755 406.544 155.072L406.326 155.25L406.33 155.23Z" fill="#333333"></path></svg>