<svg xmlns="http://www.w3.org/2000/svg" width="43" height="40" viewBox="0 0 43 40" fill="none"><path d="M21.4814 37.7022C26.0482 34.5918 29.2851 30.0923 31.6524 25.2566C33.8559 20.753 32.9629 15.5122 31.9996 10.632C31.5628 8.41261 29.2656 7.75649 27.5731 6.76019C22.078 3.52829 16.0643 4.99441 12.5192 10.2189C9.56695 14.5726 6.50541 18.8414 3.49074 23.1465C2.35195 22.7051 1.43937 21.968 0.78418 20.8988C3.05396 20.6112 3.96654 18.7199 5.15603 17.0634C8.60361 12.2642 11.513 7.03971 15.5963 2.48347C21.6334 2.09467 27.3937 2.49561 32.5885 6.32286C35.8995 8.765 36.0009 8.61512 39.8775 7.80512C40.9539 6.50102 40.4703 4.88106 40.6302 3.38661C40.3026 2.09466 39.1872 0.531318 41.6481 0.199219C42.6309 3.67411 43.1106 7.16932 42.4164 10.2878C40.6536 12.2156 38.8011 10.6198 37.0656 11.6121C36.4026 13.5318 35.5836 15.6662 35.7903 17.8816C36.2895 23.1749 33.6648 26.9697 30.7671 30.8334C28.5636 33.7697 25.5724 36.1632 24.4921 39.9419C23.5444 39.5004 22.6006 39.0589 21.6529 38.6175C21.2512 38.4879 21.0913 38.3137 21.1732 38.0829C21.2629 37.8318 21.3644 37.7022 21.4775 37.7022H21.4814Z" fill="#525352"></path></svg>