<svg xmlns="http://www.w3.org/2000/svg" width="166" height="33" viewBox="0 0 166 33" fill="none"><path d="M29.5477 71.055C22.3094 61.3634 15.1178 51.6312 7.79365 42.0085C5.76566 39.3436 4.54504 36.5045 4.05754 33.1592C2.93825 25.4804 1.64734 17.826 0.426645 10.1634C-0.127151 7.25957 0.00152142 4.37187 0.301819 1.80823C1.55371 0.204432 2.82119 0.366452 4.19398 0.613501C17.1497 2.94225 29.9455 6.0729 42.8154 8.8269C47.55 9.84345 51.6956 12.7108 56.1572 14.6264C65.5288 18.6562 71.5972 17.5911 78.703 10.3132C81.6669 7.27572 84.4866 4.08436 87.6417 1.24127C88.1136 0.93347 88.6244 0.763351 89.1782 0.714751C89.9933 0.702601 90.746 0.925287 91.4363 1.35864C101.299 11.8076 111.549 21.9772 120.366 33.3456C127.48 42.5148 137.768 46.6862 145.985 53.9843C151.749 59.1035 158.056 63.6071 164.276 68.1633C165.278 68.8964 166.199 69.5768 165.598 71.0591C164.436 71.1158 163.278 71.2171 162.115 71.2171C119.251 71.2252 76.3863 71.2252 33.5217 71.2171C32.1958 71.2171 30.8698 71.1117 29.5399 71.055H29.5477Z" fill="#333333"></path></svg>