<svg xmlns="http://www.w3.org/2000/svg" width="119" height="71" viewBox="0 0 119 71" fill="none"><path d="M82.6282 48.3829C80.7718 48.6826 79.204 49.7112 77.5816 50.5739C66.4706 56.4909 55.383 62.4444 44.2719 68.3615C42.517 69.297 40.8126 70.5606 38.2972 69.8073C35.9494 67.924 34.9081 64.7205 33.313 61.9503C31.7764 59.2854 30.3061 56.5233 29.261 53.6235C25.8563 44.1992 19.1522 37.5167 12.2648 30.9517C11.789 30.4981 11.1378 30.247 10.5684 29.9027C10.3344 29.927 10.1004 29.9513 9.8664 29.9716C9.1449 29.9392 8.45847 29.7407 7.77987 29.4977C5.52959 28.0073 2.42519 27.736 1.3215 24.6053C-0.0512937 21.5557 -0.199409 18.4129 0.627385 15.1891C0.978383 14.4682 1.33327 13.7473 1.68426 13.0264C3.07655 12.1435 4.25041 12.5364 5.1591 13.7959C7.62779 17.2141 11.13 18.0363 14.9051 17.7528C22.397 17.1858 29.7484 19.1621 37.2325 18.8827C42.3726 18.6923 47.5167 19.065 52.4307 16.9509C54.8408 15.9141 57.2979 16.3717 59.6925 17.2222C67.1648 17.2303 74.6371 17.1493 82.1095 17.2951C84.9799 17.3518 87.0585 16.2664 89.2035 14.3345C94.1994 9.83499 98.8208 4.85758 104.788 0.698242C110.334 5.07628 113.984 11.1432 118.336 16.6431C116.129 20.1261 112.943 21.8513 110.408 24.257C103.442 30.8707 96.1338 37.0955 89.0593 43.5957C87.0586 45.4344 84.2076 45.9731 82.6359 48.3788L82.6282 48.3829Z" fill="#333333"></path></svg>