<svg xmlns="http://www.w3.org/2000/svg" width="367" height="215" viewBox="0 0 367 215" fill="none"><path d="M395.908 1.82616V253.225C394.013 254.234 391.981 253.72 390.019 253.72C309.29 253.752 228.557 253.748 147.839 253.744C139.095 252.104 130.293 241.493 130.964 233.421C132.473 227.828 136.439 223.786 140.257 220.186C151.076 209.992 148.927 188.916 141.736 178.701C134.673 168.674 128.234 158.156 120.247 148.869C111.183 138.335 99.9084 130.555 88.9105 122.447C64.5083 104.461 39.7825 86.9409 15.6807 68.5215C9.99842 64.1799 4.29661 59.5872 0.318641 53.257C0.143142 48.1702 -0.398977 43.0187 2.7327 38.5232C6.00088 32.3875 10.3884 26.924 12.9039 20.3063C14.2415 18.901 16.0238 18.4717 17.7671 17.9452C29.1004 15.2762 40.5274 12.9758 51.2406 8.03483C53.4051 7.03854 55.7606 7.06686 58.1084 6.99396C74.266 6.49581 90.4509 7.44358 106.484 8.58973C115.66 9.24583 125.387 8.76384 134.333 12.0929C145.175 16.1267 153.182 23.9391 159.746 33.6267C165.182 41.6538 170.127 50.009 176.847 57.1451C184.967 65.7715 194.732 70.4493 205.687 73.5273C214.443 75.9896 222.625 74.1995 231.123 72.1867C242.601 69.4691 252.167 62.8313 261.976 56.8818C282.002 44.74 302.89 34.8133 324.816 27.0293C346.359 19.3829 367.544 10.6835 388.955 2.64022C391.135 1.82212 393.354 -0.24743 395.912 1.83022L395.908 1.82616Z" fill="#333333"></path></svg>