<svg xmlns="http://www.w3.org/2000/svg" width="57" height="64" viewBox="0 0 57 64" fill="none"><path d="M2.49577 21.6198C1.67288 20.2063 -0.0392183 19.3113 0.14798 17.0797C3.09636 13.9855 7.43309 13.5684 11.0289 11.6366C17.6042 8.10092 24.8894 6.09615 31.1254 1.79101C32.4475 0.879764 33.8905 0.74614 35.3881 0.75424C46.0155 22.527 55.395 45.2272 56.3154 51.4642C55.2273 54.8257 52.9809 56.5591 49.5099 57.2678C40.5712 59.0863 31.6871 61.2085 22.7795 63.2051C21.6875 62.8852 20.4396 63.0593 19.1877 61.7026C17.8968 57.4339 14.8782 53.4163 13.6068 48.5725C13.1193 47.9245 12.7722 47.2076 12.6357 46.3895C10.1982 41.7523 7.92455 37.0462 6.70386 31.8744L6.62968 31.8014C4.6485 28.9989 2.77262 26.1477 2.53862 22.5189C2.31632 22.3285 2.23837 22.1341 2.30077 21.9276C2.36317 21.721 2.42948 21.6158 2.49967 21.6158L2.49577 21.6198Z" fill="#333333"></path></svg>