<svg xmlns="http://www.w3.org/2000/svg" width="292" height="127" viewBox="0 0 292 127" fill="none"><path d="M217.641 -209.319C217.672 -201.531 216.026 -193.929 215.274 -186.226C214.287 -176.129 212.875 -166.077 211.67 -156.005C210.403 -145.418 209.147 -134.828 207.922 -124.237C207.111 -117.23 206.343 -110.22 205.61 -103.205C205.465 -101.816 205.212 -100.484 204.65 -99.2119C204.011 -96.0489 202.852 -92.7684 206.479 -90.5854C213.25 -71.6638 222.196 -53.7264 229.918 -35.2301C231.17 -32.2291 232.43 -29.2199 233.756 -26.2472C234.582 -24.3964 235.277 -22.2944 237.784 -22.2701C238.596 -22.2215 239.278 -22.5536 239.902 -23.0883C250.877 -29.5763 262.658 -34.2743 274.027 -39.8836C277.166 -41.4307 280.251 -43.1317 283.496 -44.4358C285.758 -45.347 288.051 -46.7888 290.59 -45.185C291.479 -43.5934 291.908 -41.9005 291.635 -40.0577C280.879 -36.4127 270.938 -30.8116 260.716 -25.9192C240.214 -16.1101 219.77 -6.15521 199.592 4.35048C198.578 4.89722 197.747 5.74365 196.753 6.3309C196.339 6.55769 195.902 6.70757 195.446 6.80882C194.994 6.90198 194.538 6.97485 194.085 7.06801C183.703 11.1261 174.187 16.95 163.728 22.2676C170.479 32.0767 175.841 41.9061 182.491 50.569C186.624 50.6054 189.663 48.6129 192.974 47.6652C195.013 47.0819 197.139 46.0289 198.827 48.4306C192.326 52.0391 185.587 55.0766 178.602 57.535C173.934 52.5049 171.27 46.1181 167.815 40.2739C167.639 39.8608 167.437 39.4639 167.199 39.0872C167.074 38.909 166.949 38.7268 166.828 38.5486C166.625 38.1679 166.399 37.7953 166.161 37.4349C165.919 37.0785 165.728 36.6937 165.588 36.2887C165.44 35.908 165.245 35.5516 165.015 35.2317C164.913 35.0818 164.804 34.9239 164.718 34.7983C164.621 34.6525 164.539 34.4541 164.547 34.3245C164.601 34.4095 164.477 34.4662 164.527 34.535C164.691 34.7821 164.808 34.9603 164.96 35.1628C165.182 35.4382 165.346 35.6974 165.49 35.9931C165.654 36.5236 165.849 37.0218 166.173 37.4592C166.391 37.771 166.582 38.0909 166.75 38.4312C167.07 38.9131 167.429 39.3708 167.655 39.9135C167.823 40.2861 168.002 40.6506 168.197 41.007C168.521 41.5699 168.727 42.1895 169.024 42.7687C171.906 47.8433 175.584 52.5454 175.798 58.8269C174.57 59.9123 173.181 60.6008 171.547 60.6616C168.673 60.0986 167.749 57.5876 166.563 55.3156C161.903 46.3975 157.593 37.281 152.523 27.9336C141.24 31.7527 131.03 37.5361 120.333 42.064C119.007 42.5662 118.172 43.9108 116.799 44.3441C112.658 45.142 109.109 47.4343 105.427 49.3459C99.5069 52.4158 93.5828 55.4573 87.5067 58.183C85.8687 58.916 84.1253 59.6167 82.7877 61.7551C84.5972 69.3366 89.1485 76.088 91.3832 83.7587C91.6055 85.1154 92.0384 86.375 92.9588 87.4158C94.3277 90.6274 96.6326 93.4624 96.695 97.2087C95.5562 98.3792 94.1561 98.9907 92.5922 99.2499C90.4473 97.4922 89.2967 95.1392 88.154 92.5593C84.0746 83.3496 79.9095 74.1683 75.3855 64.663C64.0912 68.7332 54.2282 74.5733 44.1897 79.1822C44.0805 82.8798 45.6912 84.998 46.7715 87.2741C50.2307 94.556 53.7329 101.814 57.2545 109.063C58.3075 111.23 59.3839 113.409 58.6391 115.976C57.5081 117.155 56.1158 117.742 54.5441 117.928C51.584 116.981 51.0458 114 49.7042 111.7C48.6863 109.946 48.1442 107.88 46.3152 106.289C42.7584 106.609 39.5955 108.257 36.5379 110.525C36.2727 115.64 41.2803 118.998 40.5471 124.113C39.4551 125.308 38.1213 126.008 36.5535 126.231C32.1972 123.594 32.5522 117.742 29.128 114.223C22.9621 115.255 18.0793 119.431 12.3269 121.294C11.114 120.124 10.6967 118.564 10.3691 116.961C10.9892 114.693 12.7871 113.765 14.6552 112.959C22.6384 109.504 30.3409 105.398 38.2851 101.854C39.9348 101.117 41.7327 100.509 43.1523 98.3224C42.2007 93.0615 39.4395 88.2177 36.9942 82.3331C25.5868 89.2221 12.7208 91.8587 3.39203 101.498C2.10894 99.4848 0.98967 97.4962 2.14796 94.9205C3.07226 92.8631 1.27827 91.4901 0.642578 89.8296C9.25372 88.3635 16.7806 83.9369 24.6118 80.3486C27.4705 79.0404 30.5203 78.0198 33.102 75.3387C30.7114 68.0447 27.6928 61.022 23.5978 54.4772C22.4785 52.6871 20.2711 52.922 19.1285 51.3628C18.7463 50.2369 19.1557 49.0867 19.0543 47.9527C18.9607 46.9766 20.5714 46.3246 19.5535 45.1663C19.3702 44.8666 19.3391 44.5466 19.4638 44.2146C23.3872 44.7168 26.5345 42.6472 29.7442 40.8368C40.5666 34.7497 51.4007 28.6869 62.1803 22.5187C70.7758 17.6021 79.2894 12.5355 87.8498 7.55806C98.8672 1.15503 109.881 -5.25613 120.933 -11.5944C141.022 -23.1166 161.138 -34.5943 181.246 -46.0841C185.794 -48.6842 189.546 -52.394 193.656 -55.6056C194.826 -54.8807 196.144 -54.3623 196.909 -53.0744C195.817 -48.6113 192.248 -46.5863 188.89 -44.4115C186.375 -42.7793 183.419 -41.8478 181.063 -38.786C185.057 -26.7373 191.269 -15.3892 196.039 -2.59933C207.532 -8.07086 218.518 -12.696 229.618 -18.8114C221.658 -38.4863 212.661 -57.096 204.338 -76.532C203.297 -69.8009 203.379 -63.2034 200.442 -57.3188C199.631 -55.6866 199.284 -53.5968 197.045 -53.2283C195.75 -53.9937 195.337 -55.4517 194.577 -56.6343C198.769 -63.6935 198.246 -71.8623 199.561 -79.5937C199.962 -81.9549 200.036 -84.3808 200.27 -86.8756C198.948 -89.7471 195.462 -89.7025 193.625 -91.9422C193.968 -94.3681 195.38 -93.465 196.655 -92.9952C197.626 -92.8372 198.601 -92.6833 199.787 -92.4889C200.984 -94.2709 201.281 -96.3283 201.483 -98.329C203.156 -114.804 205.27 -131.219 207.4 -147.638C209.041 -160.29 210.196 -173.007 211.721 -185.675C212.544 -192.524 213.913 -199.312 213.776 -206.261C214.665 -207.108 214.634 -208.554 215.632 -209.327H217.633L217.641 -209.319Z" fill="#545555"></path></svg>