<svg xmlns="http://www.w3.org/2000/svg" width="3" height="6" viewBox="0 0 3 6" fill="none"><path d="M2.66789 0.283424C2.6351 0.244075 2.58923 0.230957 2.54333 0.230957C2.36625 0.230957 2.16292 0.257193 1.93338 0.316216C1.7104 0.37524 1.48093 0.486732 1.26451 0.657244V0.467052C1.26451 0.421144 1.24479 0.375236 1.212 0.342445C1.17921 0.309654 1.13334 0.289978 1.08743 0.289978H0.306966C0.261059 0.289978 0.21519 0.309654 0.182399 0.342445C0.149609 0.375236 0.129883 0.421144 0.129883 0.467052V5.14303C0.129883 5.18894 0.149609 5.23484 0.182399 5.27419C0.21519 5.31354 0.261059 5.33321 0.306966 5.33321H1.12674C1.17264 5.33321 1.21859 5.31354 1.25138 5.27419C1.28418 5.23484 1.30382 5.18894 1.30382 5.14303V1.54916C1.49401 1.45078 1.6842 1.36553 1.88094 1.31306C2.07769 1.25404 2.29411 1.2278 2.53676 1.2278C2.58267 1.2278 2.62862 1.20813 2.66141 1.17534C2.6942 1.14254 2.71384 1.09664 2.71384 1.05073V0.40803C2.71384 0.362123 2.6942 0.316214 2.66141 0.283424" fill="#0B5463"></path></svg>