<svg xmlns="http://www.w3.org/2000/svg" width="60" height="47" viewBox="0 0 60 47" fill="none"><path d="M24.5087 0.982035C25.6436 -0.0304633 26.8838 0.27331 28.1708 0.601359C31.6145 1.48426 35.0699 2.30638 38.5214 3.15688C40.6273 2.95033 41.5906 4.58656 42.7021 5.97165L42.6787 6.05669C42.9049 6.51839 43.057 7.04084 43.3651 7.42964C49.6168 15.3028 53.9457 24.0144 55.1703 34.3338C55.6539 38.4121 58.5282 41.7695 59.7255 45.5117C58.6803 47.1074 57.4635 46.585 56.391 46.3825C52.1049 45.5684 48.166 43.7338 44.1685 41.9882C34.6682 37.837 25.0782 33.9004 15.5076 29.9152C13.6161 29.1295 11.8573 28.1737 10.6366 26.4484C7.58289 22.1392 4.56431 17.8057 1.57304 13.4479C1.21424 12.9255 1.13233 12.2046 0.832031 11.3095C6.51429 7.79412 12.5163 6.44146 18.4794 7.24336C21.1197 5.20216 23.1321 3.42013 24.5087 0.986089V0.982035Z" fill="#333333"></path></svg>