<svg xmlns="http://www.w3.org/2000/svg" width="84" height="91" viewBox="0 0 84 91" fill="none"><path d="M81.4077 40.058C73.6273 43.9824 65.8858 47.9919 58.043 51.7787C55.352 53.0787 53.3825 54.8567 51.8693 57.4932C47.2713 65.4879 42.4314 73.3368 37.8997 81.372C36.2266 84.3366 34.4014 86.7422 31.0708 87.6738C29.8033 88.0302 28.5748 88.6701 27.4321 89.3626C23.5672 91.7116 19.8428 91.3107 15.8882 88.824C10.7519 70.6273 5.56495 52.2566 0.377985 33.8858C-0.0432124 30.172 3.11966 29.9087 5.15155 28.9246C20.6344 21.4442 36.1057 13.9274 51.7835 6.88855C56.4752 4.78256 60.8237 1.83012 65.882 0.59082C70.0705 2.60367 69.856 7.27735 71.6071 10.5821C75.5188 17.9612 78.2682 25.964 81.9537 33.493C82.8312 35.2871 84.0909 37.1501 82.5309 39.2561V39.2318C82.1331 39.4748 81.7587 39.7461 81.4038 40.0499L81.4077 40.058Z" fill="#333333"></path></svg>