<svg xmlns="http://www.w3.org/2000/svg" width="51" height="43" viewBox="0 0 51 43" fill="none"><path d="M8.31974 40.4966C5.06716 35.9444 1.79507 31.4043 0.0673828 26.354C0.816177 23.6162 2.579 22.6199 4.34569 21.6277C7.98436 18.736 11.974 16.5004 16.2835 14.9168C20.9791 13.1875 25.2651 10.5753 29.7657 8.42472C31.704 7.49727 33.6618 6.52523 35.7912 6.04733C36.2514 5.80028 36.7115 5.57351 37.1873 5.36696C40.8923 4.24106 43.6886 1.21976 47.2532 0.0493164C51.3794 2.56841 51.5236 3.67404 48.6923 7.01934C45.74 10.5064 41.5592 12.7501 39.3674 16.8122C39.7145 23.1586 41.0054 29.2174 41.3915 34.9724C38.7824 38.7227 35.019 37.9005 31.9419 38.7227C26.5092 40.1766 20.8777 40.776 15.4489 42.3555C12.7501 43.1412 10.1566 43.3518 8.31974 40.5006V40.4966Z" fill="#333333"></path></svg>