<svg xmlns="http://www.w3.org/2000/svg" width="173" height="135" viewBox="0 0 173 135" fill="none"><path d="M1.79844 31.2179C4.80922 27.5324 7.32854 23.4419 10.6162 19.9711C12.7573 17.7112 15.1246 16.0061 17.8936 14.6494C28.5835 9.41681 40.0572 7.28652 51.5465 5.19267C56.1368 4.35433 60.6607 3.3013 65.1028 1.82305C67.942 0.879403 70.8123 -0.0399451 73.8309 0.304304C76.0539 1.82305 77.645 3.83188 78.7604 6.16063C81.3656 11.5957 84.7352 16.5448 87.668 21.7693C90.3941 26.6252 94.0913 29.9867 99.3133 31.5905C104.457 33.174 109.001 35.8471 113.427 39.0911C123.357 46.373 133.504 53.3349 143.395 60.6937C148.161 64.2415 152.606 68.1255 156.573 72.5765C161.779 78.4165 167.103 84.127 172.637 89.631C173.623 92.4822 171.666 92.6604 169.848 92.8994C168.245 93.1099 166.596 92.5186 164.657 93.0775C165.531 100.983 166.28 108.743 168.058 116.357C168.124 118.754 168.706 121.565 165.859 122.586C163.53 123.42 161.116 123.533 158.858 121.545C154.307 117.544 148.781 116.717 142.767 116.887C138.582 121.043 135.821 126.409 132.319 131.176C130.934 133.063 129.733 135.404 126.789 133.897C120.638 128.596 114.223 123.59 108.389 117.94C89.7389 99.8896 68.8312 85.2084 46.7612 72.1229C35.0418 65.1731 23.5759 57.7454 12.1295 50.3096C7.78489 47.4868 3.38574 44.5302 0.74156 39.6541C1.24856 36.8636 -0.143752 33.814 1.79453 31.2179H1.79844Z" fill="#333333"></path></svg>