<svg xmlns="http://www.w3.org/2000/svg" width="32" height="45" viewBox="0 0 32 45" fill="none"><path d="M7.53968 0.178711C6.80648 2.01336 7.72305 3.55641 8.38994 5.11565C12.247 14.1147 16.1235 23.1057 20.0196 32.0886C20.4213 33.016 20.7606 34.0366 22.0047 34.717C25.1832 33.6357 27.2814 30.4038 30.4715 29.0227C30.647 29.1442 30.8226 29.2698 30.9981 29.3913C31.6377 30.7157 30.764 31.9671 30.8303 33.2712C30.7445 33.7248 30.5807 34.1419 30.3545 34.5429C30.0854 34.9236 29.75 35.2233 29.3678 35.4744C28.775 35.8065 28.1277 35.9239 27.4686 35.9806C25.815 35.9968 25.6629 37.3779 25.3236 38.5848C23.0889 42.651 19.7154 44.6598 15.2032 44.595C13.339 43.5825 14.2399 42.0961 14.5987 40.707C15.8974 39.1275 18.0033 38.5159 19.1382 36.7137C18.912 33.7491 16.9855 31.6512 15.8077 29.2131C12.2119 21.7976 8.51857 14.4306 4.90329 7.02318C3.979 5.12779 3.11328 3.25265 0.683594 3.1838C2.82078 1.81085 5.1178 0.83886 7.53968 0.178711Z" fill="#555554"></path></svg>