<svg xmlns="http://www.w3.org/2000/svg" width="26" height="25" viewBox="0 0 26 25" fill="none"><path d="M11.6634 23.8043C9.96297 23.6706 8.62531 25.2299 6.33213 24.8492C4.35875 19.973 1.98364 14.9632 0.314453 8.96512C6.67921 5.86688 12.7398 2.91039 18.6833 0.0146484C21.6473 3.69609 24.7087 11.3303 25.1767 15.8177C24.1861 17.79 21.8735 17.9925 20.489 19.4627C20.2979 20.382 19.6934 20.9167 18.9056 21.2731C18.5624 21.4958 18.2192 21.7185 17.876 21.9453C17.1935 22.3827 16.4682 22.7432 15.7116 23.0227C14.9433 23.2049 14.171 23.3709 13.4144 23.618C13.0283 23.6868 12.6384 23.7355 12.2484 23.7598C12.0534 23.7719 11.8584 23.7881 11.6634 23.8002V23.8043Z" fill="#333333"></path></svg>