<svg xmlns="http://www.w3.org/2000/svg" width="23" height="29" viewBox="0 0 23 29" fill="none"><path d="M13.737 28.0086C12.7581 28.0937 11.7754 28.1746 10.3558 28.2961C6.83799 21.1763 3.65948 13.8539 0.8125 6.5882C2.21649 4.07721 4.43166 4.23919 5.72255 3.53044C7.86754 3.60334 7.80124 5.67292 9.33393 6.25612C10.6872 5.07352 9.0726 3.28744 9.88769 2.11294C10.5585 0.845292 11.5608 0.432238 13.1598 0.488938C15.7728 6.13868 18.4287 11.8734 21.0807 17.6042C21.2952 18.0699 21.4863 18.5559 21.7281 19.0055C22.4612 20.3622 22.0986 21.6825 21.6423 23.0068C19.1658 24.9427 16.5528 26.6438 13.7409 28.0046L13.737 28.0086Z" fill="#333333"></path></svg>