<svg xmlns="http://www.w3.org/2000/svg" width="52" height="55" viewBox="0 0 52 55" fill="none"><path d="M17.6426 54.9934C16.3868 53.7865 15.7472 52.1746 15.0023 50.6356C10.5446 41.3651 6.07137 32.0988 1.6488 22.8081C0.931204 21.2974 -0.188077 19.888 0.198021 17.1178C11.2934 11.7516 22.8061 6.1869 34.1784 0.687012C37.4778 2.95906 38.2968 6.29219 39.4824 9.20413C41.9472 15.2589 44.8059 21.1071 47.6763 26.9472C49.248 30.1426 49.7549 33.8079 51.8219 36.7846C52.0208 37.0722 51.6777 37.7647 51.588 38.2709C40.8123 43.0985 30.3526 48.6146 19.811 53.9525C19.109 54.3615 18.1262 54.1105 17.6153 54.965L17.6387 54.9893L17.6426 54.9934Z" fill="#333333"></path></svg>