<svg xmlns="http://www.w3.org/2000/svg" width="78" height="47" viewBox="0 0 78 47" fill="none"><path d="M68.6435 1.41921C70.5154 2.8367 72.6761 2.30616 74.747 2.38311C75.4061 1.77966 76.0535 1.81205 76.6852 2.4317C77.7538 4.2866 77.7187 6.34399 77.7148 8.40139C77.6992 16.0923 77.6954 23.7832 77.6837 31.4742C63.5268 31.4985 49.3659 31.5714 35.209 31.5106C31.9369 31.4944 29.0549 32.1222 26.2898 34.1148C21.372 37.6626 16.259 40.9228 11.2125 44.2802C9.83577 45.1955 8.63462 46.5158 6.47403 46.5482C4.03655 43.612 1.4899 40.5299 0.0664062 37.0348C0.284805 35.4553 1.06085 34.779 1.86814 34.1715C13.2015 25.6827 24.3632 16.955 36.067 8.99267C41.3085 5.42463 47.1507 3.48066 52.7745 0.921065C53.7105 0.495815 54.7284 0.374286 55.7151 0.637535C59.9778 1.78368 64.3301 1.26531 68.6435 1.42326V1.41921Z" fill="#333333"></path></svg>