<svg xmlns="http://www.w3.org/2000/svg" width="30" height="36" viewBox="0 0 30 36" fill="none"><path d="M2.66604 3.37353C6.06292 2.57163 9.02693 0.283377 12.6461 0.250977C17.369 5.84807 20.8517 12.3564 24.9818 18.3869C26.1206 20.0474 26.8342 22.0926 28.7062 23.1456C29.0455 23.5465 29.3263 23.9839 29.5525 24.4618C29.8684 25.612 29.4004 26.5233 28.7296 27.3738C26.3662 29.0788 23.9989 30.7798 21.6356 32.4849C19.7324 33.1248 18.11 34.2345 16.6943 35.6844H16.7294C14.99 35.5872 13.4534 35.1619 12.6344 33.307C8.48482 23.911 4.3197 14.5272 0.298828 5.44712C0.657626 3.74208 1.69105 3.59628 2.66214 3.36948L2.66604 3.37353Z" fill="#333333"></path></svg>