<svg xmlns="http://www.w3.org/2000/svg" width="222" height="193" viewBox="0 0 222 193" fill="none"><path d="M221.32 14.4985C216.605 14.2191 212.088 14.9683 207.607 16.645C200.104 19.4476 192.628 18.6214 185.143 16.0618C179.613 14.1705 173.884 12.9231 168.319 11.1451C165.137 10.1286 162.625 10.4121 160.152 12.9879C157.824 15.4098 155.051 17.37 152.481 19.5246C151.701 19.4193 151.003 19.4557 150.406 19.2168C146.194 17.5239 141.947 17.6211 137.685 18.8968C134.229 19.9296 130.832 19.8364 127.326 19.0183C124.557 18.3744 121.621 18.2043 119.058 19.8729C110.256 25.5996 100.265 27.7541 90.3625 30.0262C83.5921 31.5773 78.9316 34.9672 76.8686 42.1154C74.6222 49.8833 69.7979 56.1122 64.8528 62.2156C63.1485 64.3215 61.1322 65.3097 58.3983 65.5122C52.1077 65.978 45.7585 66.4113 39.5926 67.6911C34.745 68.6955 30.0806 70.7894 25.4514 72.709C22.5537 73.9119 19.2933 74.3331 16.9338 76.4432C16.7154 76.9494 16.4463 77.2693 16.4619 77.5731C16.7505 83.1904 14.8083 87.9978 11.7897 92.5338C10.0933 95.0853 9.04806 98.1228 7.24237 100.573C3.6661 105.433 3.0226 110.84 3.1864 116.712C3.5764 130.895 1.47821 126.282 10.8615 135.982C14.9565 140.214 17.9907 144.24 15.2763 150.384C18.2598 153.053 22.4289 153.644 23.8173 157.674C23.8407 159.124 23.2713 160.314 21.8049 161.554C17.5032 161.647 13.4979 163.36 10.4794 167.532C10.9201 169.962 12.7296 172.068 12.3318 174.842C11.9574 177.474 10.6236 179.706 9.95675 182.201C9.44195 184.124 7.80007 185.813 8.81796 187.988C9.92946 189.215 11.3295 189.065 12.6243 189.021C18.3066 188.81 23.8524 190.58 29.5424 190.195C30.5564 190.126 31.5158 190.479 32.3543 191.111C29.5697 193.622 26.1572 190.284 23.3064 192.155C17.1795 192.22 11.2281 190.932 4.78149 190.438C6.64958 184.043 9.32496 178.839 10.2805 173.1C9.77736 171.387 7.84297 170.901 7.47637 168.491C9.52386 162.53 14.8824 160.59 20.8182 159.282C21.0171 154.09 16.1733 155.167 13.9425 152.996C12.9285 151.506 13.2912 149.784 13.6578 148.1C13.9893 146.577 14.4066 145.074 13.8918 142.847C10.885 139.291 7.61677 135.16 4.0522 131.321C2.05151 129.162 0.998517 126.926 1.20912 123.937C1.35341 121.872 1.44311 119.758 1.19742 117.713C0.265322 109.912 2.34401 103.06 6.78218 96.8065C8.15887 94.8666 9.20407 92.6715 10.456 90.6262C12.8076 86.7706 14.7537 82.8097 14.2623 78.0186C14.157 76.998 14.3169 75.941 15.2373 74.7017C20.4009 71.571 26.7188 70.3196 32.4674 67.6344C37.397 65.33 42.5917 64.4309 48.001 64.3215C51.8112 64.2446 55.6176 63.6573 59.4162 63.2159C62.0058 62.9162 63.2499 60.6847 64.8255 58.927C69.9071 53.2489 73.3235 46.5177 75.7376 39.3007C77.7695 33.2297 82.0594 30.2327 87.5623 28.5358C90.4366 27.6529 93.3538 26.9036 96.2787 26.2313C103.455 24.583 110.521 22.6552 116.796 18.4554C119.784 16.4587 123.126 16.0537 126.426 16.807C130.275 17.6859 133.98 17.6454 137.782 16.7058C140.036 16.1469 142.388 15.6163 144.673 15.7054C146.955 15.7945 149.205 16.6774 151.818 17.293C155.387 14.2636 159.099 11.1127 162.957 7.84035C168.654 8.39925 173.923 10.7077 179.407 12.028C184.106 13.162 188.731 14.6443 193.365 16.074C196.941 17.1796 200.236 16.3129 203.579 15.0371C204.203 12.6031 202.35 10.0516 204.561 7.66618C208.458 6.45928 212.861 7.86059 217.287 6.921C218.672 5.01345 218.863 1.98808 221.53 0.975586C221.963 5.49538 221.324 9.99494 221.347 14.5107L221.32 14.4985Z" fill="#515252"></path></svg>