<svg xmlns="http://www.w3.org/2000/svg" width="28" height="52" viewBox="0 0 28 52" fill="none"><path d="M1.53903 51.0064C0.443141 48.3658 0.00246322 45.7374 1.55855 43.0927C2.77924 41.0191 2.25663 38.82 2.12793 36.5723C1.53124 26.1031 0.287142 15.6662 0.56404 5.15648C0.57964 4.49228 0.840961 3.83621 1.07496 2.80346C6.02792 1.02146 11.7141 3.5041 16.5929 0.114258C20.1224 3.74305 22.5638 7.59456 22.5326 12.7866C22.4975 18.647 23.6597 24.4102 23.8001 30.2786C23.882 33.6401 24.5879 37.119 26.3507 40.1767C27.1267 41.5213 27.5557 43.0117 27.5089 44.6155C19.0889 47.7988 10.938 52.1445 1.53513 51.0105L1.53903 51.0064Z" fill="#333333"></path></svg>