<svg xmlns="http://www.w3.org/2000/svg" width="90" height="21" viewBox="0 0 90 21" fill="none"><path d="M0.541852 0.543457C10.9704 3.58905 21.629 5.60599 32.2525 7.67148C41.1679 9.40083 49.7868 11.8389 57.7778 16.2574C62.3876 18.8049 67.1767 18.0152 71.9581 17.9301C73.7716 17.8977 74.8441 16.3547 76.0492 15.1721C80.2884 11.0168 84.0402 6.34305 88.6344 2.57251C89.001 2.95321 89.3676 3.33393 89.7381 3.71463C85.569 8.91077 80.6824 13.3779 76.1311 18.1852C75.4564 18.898 74.5204 19.7445 73.6585 19.8093C68.5418 20.194 63.3743 21.0162 58.3628 19.06C56.9627 18.5133 55.5704 17.9017 54.2562 17.1646C42.7239 10.6887 29.6863 9.98399 17.3 6.81689C12.4875 5.58569 7.56962 4.8122 2.71026 3.8321C0.768073 6.64279 2.04724 9.55881 1.42325 12.1589C-0.530637 8.42481 1.04494 4.39905 0.537948 0.543457H0.541852Z" fill="#515252"></path></svg>