<svg xmlns="http://www.w3.org/2000/svg" width="109" height="102" viewBox="0 0 109 102" fill="none"><path d="M2.42122 53.2996C14.4214 42.4862 28.7772 36.7028 43.9091 32.8593C52.2668 30.7371 59.9575 27.5944 66.8722 22.1431C75.7368 15.1568 85.4243 9.30866 93.626 1.39498C95.2133 0.313629 96.5314 0.9454 97.5259 2.27785C100.88 6.78549 104.569 11.0137 107.72 15.6915C108.824 17.3317 108.789 18.8748 108.025 20.5515C103.388 27.1408 97.7522 32.7743 91.7891 37.9988C74.0403 53.5507 59.08 71.6259 45.8357 91.3696C43.3748 95.0389 41.573 99.6396 37.0296 101.486C33.8706 101.859 31.7646 99.4818 29.4519 98.0197C23.364 94.1601 17.2801 90.3004 10.9777 86.8376C7.87336 85.1326 6.01307 82.6216 4.78458 79.1629C3.59119 75.7933 2.7176 72.2617 0.791016 69.127C2.4875 63.9309 0.225541 58.3986 2.42122 53.2996Z" fill="#333333"></path></svg>