<svg xmlns="http://www.w3.org/2000/svg" width="125" height="64" viewBox="0 0 125 64" fill="none"><path d="M124.495 5.11627C122.764 5.71972 120.958 6.15308 119.316 6.95093C109.835 11.5517 100.389 16.2335 90.9437 20.9112C90.5264 21.1178 90.2105 21.5592 89.6451 22.0776C89.9804 25.1556 91.7471 27.776 92.8352 30.5948C95.7953 38.2776 99.0401 45.843 102.215 53.4327C103.002 55.3159 103.677 57.3328 105.623 58.3737C104.418 59.3821 103.077 60.1071 101.556 60.4594C101.875 59.2606 101.868 58.1064 101.322 56.944C96.4544 46.5558 91.6184 36.1554 86.7395 25.7712C86.4626 25.1799 85.9167 24.7264 85.6476 24.3983C84.3957 23.884 83.4246 24.0743 82.4964 24.5117C73.8892 28.5657 65.044 32.1054 56.9867 37.3421C55.3019 38.4396 53.5352 39.4157 51.7646 40.3553C50.3723 41.0964 49.7171 42.0603 50.3996 43.6682C51.1757 44.9844 51.0275 45.8025 49.3388 45.7904C48.2118 44.5592 47.0886 43.328 45.6378 41.7404C40.7472 44.0246 35.7709 46.2602 30.8686 48.6577C23.0725 52.4688 15.5651 56.9278 7.46095 60.0423C5.76056 60.6943 4.53593 61.6056 4.25514 63.5496C2.38705 60.265 1.04937 56.7577 0.175781 53.056C2.30517 53.6757 2.53137 56.3366 4.51645 57.345C6.67704 57.7743 8.52563 56.4905 10.4249 55.5185C18.5876 51.3348 26.7112 47.0742 34.8816 42.9108C37.9977 41.3232 41.1957 39.9179 44.3586 38.4275C45.4818 37.3704 44.2728 35.228 46.0629 34.4787C57.6029 28.9181 69.4276 24.0257 81.0222 18.6028C82.5042 18.3355 83.7405 16.756 85.4565 17.6429C86.3964 18.0925 87.3324 18.1775 88.3112 17.7118C99.2429 12.5278 110.178 7.35997 121.102 2.15573C121.683 1.88033 122.14 1.3255 122.654 0.904297C123.672 2.11524 124.238 3.53679 124.495 5.10819V5.11627Z" fill="#555655"></path></svg>