<svg xmlns="http://www.w3.org/2000/svg" width="52" height="62" viewBox="0 0 52 62" fill="none"><path d="M0.366365 23.3042C6.09152 20.4368 12.3237 19.1773 18.3491 17.2778C24.6515 15.2893 29.6512 11.7293 33.13 5.86494C34.0738 4.2733 35.0761 2.63304 36.6946 1.60434C39.4128 0.648544 42.096 0.830831 44.4165 1.49098C45.1068 2.32123 45.255 3.00565 44.9976 3.3337C40.2007 9.48969 41.6826 15.6457 44.4438 22.1662C47.3454 29.0228 51.7017 35.4501 50.9997 43.5825C50.5863 48.398 49.3656 53.0636 48.8703 57.8547C48.6363 60.1146 47.1426 61.0623 45.06 61.1392C37.8295 61.6657 34.2649 56.745 30.9655 51.1641C28.5514 47.0817 26.1763 42.9103 22.6001 39.5609C17.9825 38.2811 14.1293 42.1529 9.63656 41.8167C2.91691 37.8882 -0.983033 31.3516 0.358558 23.3042H0.366365Z" fill="#333333"></path></svg>