<svg xmlns="http://www.w3.org/2000/svg" width="129" height="126" viewBox="0 0 129 126" fill="none"><path d="M105.613 52.3024C112.938 57.9643 120.862 62.7595 127.843 68.9235C128.97 70.8473 128.35 72.5159 127.204 74.1561C116.12 89.9916 105.641 106.269 94.522 122.076C93.3325 123.769 92.3146 125.611 89.8303 124.979L89.7367 124.931C89.3584 124.651 88.9722 124.384 88.5822 124.125C81.73 119.532 75.0962 114.64 68.5364 109.589C59.9994 103.02 51.5247 96.2772 42.0166 91.1701C40.5502 90.3804 39.1852 89.3233 37.9177 88.2096C27.5906 79.1416 15.9336 72.0136 5.02152 63.8043C3.81253 62.8971 2.66982 61.8968 1.49593 60.937C0.505339 59.3818 0.832872 57.9804 2.01456 56.7411C3.66035 55.0158 4.65489 52.8005 6.24997 51.0064C9.46355 47.3938 11.9049 43.4086 11.2263 38.0505C10.9221 35.6529 11.4642 33.2553 13.1334 31.3599C14.5062 29.9302 16.5342 31.4976 17.9616 30.072C19.9116 26.9657 17.712 23.8552 17.6769 20.6962C17.2557 14.2932 14.904 8.05211 15.8868 1.53972C19.1901 -0.574377 22.7702 1.95695 25.742 0.102051C30.7028 3.90904 36.2251 6.20942 42.2155 7.88207C52.137 10.6563 62.0859 13.6087 71.5979 17.5858C77.2451 19.947 81.2893 25.0337 82.5373 31.7041C83.0482 33.5023 84.9241 32.2589 85.9693 33.5428C86.0239 34.531 86.0863 35.6974 86.1409 36.718C87.3031 38.18 87.9583 36.2077 89.8966 37.1756C93.1764 40.7639 97.9969 44.4211 101.741 49.2486C102.384 50.6904 101.897 51.8366 101.043 53.0476C98.0124 57.3406 95.3175 61.8766 93.0828 65.2988C96.4953 61.4392 98.1255 54.6311 103.761 51.059C104.096 51.2412 104.428 51.4276 104.763 51.6098C105.11 51.7556 105.395 51.9824 105.613 52.2983V52.3024Z" fill="#333333"></path></svg>