<svg xmlns="http://www.w3.org/2000/svg" width="10" height="10" viewBox="0 0 10 10" fill="none"><path d="M1.0886 9.36344C1.16729 9.37656 1.26564 9.38312 1.39025 9.38312C1.51485 9.38312 1.60012 9.38312 1.64603 9.38312C2.01984 9.38312 2.32809 9.33066 2.56419 9.22573C2.80028 9.1208 2.99046 8.94372 3.12818 8.68795C3.19376 8.56335 3.23964 8.41251 3.26587 8.242C3.29211 8.07149 3.30526 7.8813 3.30526 7.678V7.25828H7.99437C8.18456 7.25828 8.36817 7.25827 8.5518 7.25171C8.73543 7.25171 8.90596 7.23859 9.06336 7.23859C9.22075 7.23859 9.34534 7.22548 9.45027 7.21892C9.57487 7.21236 9.64698 7.1599 9.66666 7.04841C9.66666 6.98283 9.67979 6.89758 9.68635 6.78609C9.69291 6.68116 9.69949 6.56966 9.70605 6.45161C9.70605 6.33357 9.71917 6.22208 9.71917 6.11715C9.71917 6.01222 9.71917 5.92041 9.71917 5.85483V5.63184C9.71917 5.199 9.66664 4.82519 9.56827 4.49073C9.4699 4.16282 9.30595 3.88737 9.08297 3.66439C8.85999 3.44797 8.57803 3.27746 8.22389 3.16597C7.86975 3.05448 7.44349 2.99546 6.93852 2.99546C6.81391 2.99546 6.67619 2.99546 6.52535 3.00202C6.37451 3.00202 6.17117 3.01513 5.9154 3.02825C5.9154 3.00201 5.92855 2.96267 5.94823 2.89709C5.9679 2.8315 5.99413 2.76592 6.02692 2.69378C6.05971 2.62164 6.09244 2.54951 6.12523 2.47081C6.15802 2.39211 6.19739 2.31997 6.23018 2.25439L7.06965 0.654192C7.08932 0.621401 7.09591 0.588615 7.09591 0.555824C7.09591 0.523033 7.08932 0.503351 7.06965 0.477119C7.04997 0.457444 7.01717 0.444336 6.97126 0.444336H6.16462C6.10559 0.444336 6.05315 0.464002 6.02036 0.496793C5.98101 0.529583 5.94819 0.575492 5.9154 0.621399L5.24646 1.87401C5.14808 2.04453 5.06938 2.20848 4.99724 2.35932C4.9251 2.51016 4.86606 2.65443 4.81359 2.7856C4.76113 2.92332 4.72839 3.06104 4.70216 3.19877C4.67592 3.33649 4.66933 3.48076 4.66933 3.62504V3.67751C4.66933 3.67751 4.66933 3.73653 4.66933 3.76932C4.66933 3.80211 4.66934 3.83491 4.6759 3.86114C4.6759 3.89393 4.6759 3.91361 4.6759 3.92672C4.68246 4.0251 4.74808 4.071 4.87924 4.071H6.78105C7.06305 4.071 7.31227 4.09724 7.52869 4.14314C7.74511 4.18905 7.92879 4.26774 8.07963 4.37267C8.23047 4.47761 8.34846 4.62189 8.42715 4.79896C8.50585 4.97603 8.54524 5.19245 8.54524 5.45478C8.54524 5.55315 8.54524 5.65152 8.54524 5.763C8.54524 5.87449 8.53866 5.97943 8.53211 6.0778C8.4862 6.0778 8.40095 6.09091 8.28946 6.09091C8.17797 6.09091 8.05333 6.09091 7.92873 6.09091H3.32496V3.55947C3.32496 3.51356 3.31179 3.47421 3.279 3.44142C3.24621 3.40862 3.20691 3.39551 3.161 3.39551H2.38054C2.32807 3.39551 2.2822 3.40862 2.24941 3.44142C2.21662 3.47421 2.20345 3.51356 2.20345 3.55947V7.57307C2.20345 7.75669 2.18381 7.90098 2.15102 8.00591C2.11823 8.11084 2.06577 8.18954 1.99363 8.242C1.92149 8.29447 1.82964 8.32725 1.71159 8.34693C1.59354 8.36004 1.45589 8.3666 1.28537 8.3666H1.09516C0.996789 8.3666 0.944336 8.41251 0.944336 8.49777V9.16014C0.944336 9.25196 0.983647 9.31098 1.0689 9.33065" fill="#0B5463"></path></svg>