<svg xmlns="http://www.w3.org/2000/svg" width="21" height="64" viewBox="0 0 21 64" fill="none"><path d="M11.6191 9.23177C12.2236 16.4286 14.3764 23.3177 15.5152 30.4133C16.8412 38.6914 18.2608 46.9575 19.6764 55.2195C19.848 56.2198 20.2654 57.1715 20.5657 58.1476C20.4487 59.8486 20.7957 61.6063 19.7661 63.8662C14.1931 64.4372 8.41335 62.8254 2.97679 63.1939C1.1087 61.2013 1.5806 59.2087 1.565 57.37C1.5065 50.1327 1.56498 42.8953 1.49868 35.658C1.45188 30.6765 1.64299 25.6991 0.777196 20.7216C0.254599 17.7206 0.258488 14.5292 1.05798 11.4795C1.76778 8.76199 1.45579 5.99992 1.50649 3.25403C3.64367 1.84058 6.07724 1.3667 8.51082 0.888798C14.1697 0.552649 11.1823 5.22228 12.1261 7.61583C12.1183 8.20713 11.9506 8.74577 11.6191 9.23177Z" fill="#333333"></path></svg>