<svg xmlns="http://www.w3.org/2000/svg" width="13" height="18" viewBox="0 0 13 18" fill="none"><path d="M9.68773 0.96806C11.2477 0.866811 12.4489 1.30022 12.6868 3.15512C9.29771 7.49266 9.36019 12.5592 9.84378 17.7148C8.82979 16.674 7.81577 15.6291 7.18397 14.9811C6.42348 12.9682 9.19242 12.0975 7.63243 10.4451C6.31034 7.93006 4.24334 9.79303 2.54295 9.51358C1.64206 8.59019 1.21309 7.40356 0.81529 6.19666C1.18579 6.00631 1.30275 5.82808 1.17015 5.65798C1.04535 5.49598 0.916659 5.41089 0.78406 5.41089C0.77236 4.65354 0.756817 3.9003 0.745117 3.14295C3.4751 1.30021 6.40395 0.348416 9.68773 0.972114V0.96806Z" fill="#CBAF5D"></path></svg>