<svg xmlns="http://www.w3.org/2000/svg" width="5" height="6" viewBox="0 0 5 6" fill="none"><path d="M3.0175 5.15615C3.0175 5.20206 3.03723 5.2414 3.07002 5.28075C3.10281 5.31354 3.14868 5.33321 3.19459 5.33321H3.95536C4.00126 5.33321 4.04713 5.31354 4.07992 5.28075C4.11271 5.2414 4.13244 5.20206 4.13244 5.15615V1.93609C4.13244 1.35897 3.96192 0.926123 3.62745 0.65068C3.29298 0.368678 2.80113 0.230957 2.16499 0.230957C1.85675 0.230957 1.57473 0.244078 1.31896 0.276869C1.06319 0.303102 0.846777 0.335889 0.669706 0.375238C0.558217 0.40147 0.499187 0.460493 0.499187 0.558866V1.12943C0.499187 1.19502 0.512349 1.23436 0.545139 1.25403C0.571372 1.2737 0.610676 1.28027 0.663142 1.28027H0.709094C0.859932 1.26059 1.06976 1.24748 1.33209 1.2278C1.60097 1.21469 1.87643 1.20813 2.16499 1.20813C2.43387 1.20813 2.63056 1.25404 2.76172 1.35241C2.89289 1.45078 2.95194 1.64753 2.95194 1.93609V2.33613H2.38794C2.00101 2.33613 1.66653 2.36892 1.39109 2.4345C1.11565 2.50008 0.886164 2.59846 0.709094 2.72962C0.532023 2.86078 0.40736 3.02474 0.322104 3.21493C0.243406 3.40511 0.204102 3.62809 0.204102 3.88386V3.92321C0.204102 4.22489 0.249983 4.4741 0.341798 4.66429C0.433612 4.85447 0.551691 5.0053 0.702529 5.11679C0.846809 5.22828 1.01077 5.30698 1.20096 5.34633C1.38459 5.38568 1.56819 5.41192 1.75182 5.41192C1.96824 5.41192 2.17808 5.37913 2.38794 5.30699C2.59781 5.2414 2.80764 5.14303 3.01094 5.01842V5.16271L3.0175 5.15615ZM2.95194 4.21833C2.82077 4.29047 2.67647 4.34949 2.51908 4.3954C2.36168 4.44131 2.19774 4.46754 2.04034 4.46754C1.81081 4.46754 1.64685 4.42819 1.54848 4.35605C1.44355 4.28391 1.39765 4.13308 1.39765 3.91666V3.8773C1.39765 3.75269 1.41081 3.6412 1.43704 3.54939C1.46327 3.45758 1.51573 3.37232 1.58787 3.3133C1.66001 3.25427 1.76492 3.20182 1.89608 3.16903C2.02724 3.13623 2.19121 3.11656 2.39451 3.11656H2.9585V4.21833H2.95194Z" fill="#0B5463"></path></svg>