<svg xmlns="http://www.w3.org/2000/svg" width="18" height="9" viewBox="0 0 18 9" fill="none"><path d="M0.878013 7.34297C1.10755 7.57906 1.40266 7.75614 1.76992 7.88074C2.13061 8.00535 2.57001 8.06437 3.08155 8.06437C3.40946 8.06437 3.7243 8.05125 4.03253 8.03158C4.34077 8.00535 4.61622 7.97256 4.86543 7.93321C4.9966 7.90698 5.06213 7.8414 5.06213 7.73646C5.07525 7.5266 5.09495 5.57227 5.09495 5.57227C5.09495 5.17878 5.18022 4.90989 5.35073 4.75249C5.52124 4.60166 5.77696 4.52295 6.11799 4.52295C6.20324 4.52295 6.27543 4.52296 6.33446 4.52952C6.39348 4.52952 6.4656 4.54263 6.55741 4.55575V6.12971C6.55741 6.35925 6.58364 6.54943 6.63611 6.70027C6.68857 6.84455 6.76726 6.9626 6.87219 7.0413C6.97712 7.12656 7.10826 7.17902 7.2591 7.21181C7.4165 7.2446 7.59362 7.25772 7.80348 7.25772H8.68882C8.78719 7.25772 8.88555 7.25772 8.99703 7.2446C9.10852 7.23804 9.22001 7.21836 9.32494 7.19869C9.43643 7.17246 9.54135 7.14622 9.63972 7.10688C9.7381 7.06753 9.8365 7.02162 9.91519 6.96259C10.0726 7.0872 10.2628 7.1659 10.4989 7.20525C10.7284 7.2446 10.8727 7.26428 11.0957 7.26428H15.706C15.9159 7.26428 16.1258 7.26428 16.3488 7.25772C16.5718 7.25772 16.775 7.2446 16.9652 7.2446C17.1554 7.2446 17.2931 7.23149 17.3784 7.22493C17.4768 7.21181 17.5423 7.18558 17.5817 7.13311C17.621 7.08065 17.6473 7.02818 17.6604 6.96916C17.6998 6.79209 17.7325 6.57566 17.7522 6.32645C17.7719 6.07724 17.785 5.86082 17.785 5.66408V5.29682C17.785 4.85743 17.726 4.48361 17.6079 4.17537C17.4899 3.86714 17.3193 3.61793 17.1029 3.4343C16.8865 3.24412 16.6242 3.11295 16.3094 3.02769C16.0012 2.94244 15.6536 2.90309 15.2733 2.90309C15.1683 2.90309 15.0437 2.90309 14.8797 2.9162C14.7157 2.92276 14.5453 2.949 14.3682 2.98179C14.1846 3.01458 14.0009 3.06705 13.8173 3.12607C13.6336 3.19165 13.4632 3.2769 13.3058 3.38839V0.660191C13.3058 0.607725 13.2861 0.56182 13.2533 0.529029C13.2205 0.496238 13.1746 0.476562 13.1287 0.476562H12.3155C12.2696 0.476562 12.2302 0.496238 12.1974 0.529029C12.1646 0.568378 12.1516 0.607725 12.1516 0.660191V6.12971H10.9907C10.9514 6.12971 10.8989 6.12971 10.8399 6.12971C10.7809 6.12971 10.7284 6.1166 10.6628 6.11004C10.6038 6.09692 10.6366 6.08381 10.5907 6.05757C10.5448 6.0379 10.512 6.01166 10.4923 5.97887V3.60481C10.4923 3.55891 10.4792 3.51956 10.4464 3.48677C10.4137 3.45398 10.3743 3.4343 10.3284 3.4343H9.5479C9.49543 3.4343 9.44956 3.45398 9.41677 3.48677C9.38398 3.51956 9.36433 3.55891 9.36433 3.60481V5.82803C9.36433 5.90017 9.3446 5.95264 9.31181 5.99199C9.27902 6.03134 9.23315 6.06413 9.18068 6.0838C9.12822 6.10348 9.07575 6.11659 9.01673 6.12315C8.9577 6.12315 8.89867 6.12971 8.84621 6.12971H8.49861H8.08544C7.92804 6.12971 7.82312 6.11003 7.76409 6.07068C7.70507 6.03133 7.67227 5.94608 7.67227 5.81491V3.78844C7.67227 3.72942 7.6592 3.69007 7.63296 3.66383C7.60673 3.6376 7.56735 3.62448 7.52145 3.61137C7.36405 3.58514 7.17385 3.55235 6.93776 3.53267C6.70822 3.50644 6.47216 3.49988 6.2295 3.49988C5.48843 3.49988 4.92444 3.66384 4.5244 3.98519C4.13091 4.30654 3.92758 4.80496 3.92758 5.48701V5.55915C3.92758 5.67719 3.90788 6.77241 3.90132 6.91669C3.77672 6.93637 3.64557 6.94948 3.51441 6.95604C3.38325 6.9626 3.23238 6.96916 3.07499 6.96916C2.67494 6.96916 2.36017 6.91669 2.11752 6.80521C1.88142 6.69372 1.69782 6.54288 1.57322 6.35269C1.44861 6.15594 1.36336 5.92641 1.33057 5.66408C1.29122 5.40175 1.27149 5.11319 1.27149 4.80496C1.27149 4.7197 1.2715 4.61477 1.28462 4.47705C1.29117 4.34589 1.30432 4.20817 1.31744 4.077C1.33056 3.96551 1.2781 3.90649 1.16661 3.90649H0.477974C0.379602 3.90649 0.314007 3.96551 0.300891 4.08356C0.281216 4.18193 0.268129 4.2803 0.248454 4.39179C0.235338 4.50328 0.22219 4.61477 0.215631 4.7197C0.209073 4.82463 0.202576 4.92957 0.196018 5.02138C0.196018 5.11975 0.189453 5.19845 0.189453 5.26403C0.189453 5.72966 0.241919 6.13626 0.353407 6.49041C0.458338 6.84455 0.628783 7.13311 0.85832 7.36921M13.332 4.36556C13.4435 4.28031 13.5747 4.21473 13.7255 4.16226C13.8764 4.1098 14.0272 4.07044 14.1846 4.04421C14.342 4.01798 14.4928 3.9983 14.637 3.99174C14.7813 3.98519 14.8994 3.97863 15.0043 3.97863C15.2929 3.97863 15.5487 4.00487 15.7585 4.05077C15.9684 4.09668 16.1454 4.18193 16.2832 4.29342C16.4209 4.40491 16.5193 4.55575 16.5849 4.73282C16.6505 4.91645 16.6832 5.13942 16.6832 5.41487V5.54604C16.6832 5.78869 16.6701 5.95264 16.6439 6.02478C16.6177 6.09692 16.5652 6.13627 16.4865 6.13627H14.401C14.1714 6.13627 13.9682 6.13627 13.7911 6.13627C13.6206 6.13627 13.4631 6.12971 13.3254 6.12315V4.36556H13.332Z" fill="#0B5463"></path></svg>