<svg xmlns="http://www.w3.org/2000/svg" width="251" height="128" viewBox="0 0 251 128" fill="none"><path d="M67.2817 -171.905C69.7387 -173.375 72.3127 -173.403 75.0075 -172.751C86.5437 -169.957 97.9238 -166.425 108.879 -161.93C117.006 -158.593 124.451 -153.356 131.99 -148.605C141.525 -142.595 150.842 -136.204 160.273 -130.004C162.266 -128.692 164.013 -127.177 165.366 -125.128C180.428 -102.298 196.125 -79.9256 210.75 -56.788C213.464 -52.495 216.432 -48.3073 215.984 -42.7102C215.921 -41.9285 216.475 -41.0942 216.709 -40.3814C221.49 -37.5464 222.852 -32.7431 223.698 -27.8305C225.141 -19.4916 226.155 -11.0757 227.582 -2.73677C228.721 3.89713 230.269 10.531 230.18 17.2459C230.039 27.5005 231.591 37.5485 232.625 47.6613C233.167 52.9668 233.947 58.2683 236.228 63.1606C239.235 73.3869 242.223 83.6212 245.261 93.8394C246.829 99.1165 248.346 104.422 250.14 109.618C251.571 113.765 250.787 117.799 250.21 121.89C250.046 123.105 249.364 123.789 248.217 124.008C245.838 126.608 242.699 126.316 239.664 126.417C233.565 129.184 227.645 126.094 221.639 125.822C217.107 125.62 213.527 123.226 209.958 120.63C205.181 117.159 199.92 114.316 195.501 110.432C187.498 103.401 179.028 104.734 170.221 107.662C167.874 108.444 165.744 109.954 162.936 110.011C159.968 107.739 159.512 103.928 158.377 100.655C156.435 95.0584 153.487 92.187 147.231 91.6321C141.791 91.1502 136.756 90.9962 131.678 93.0172C128.737 94.1877 126.195 92.6446 123.64 92.0006C121.534 88.0479 119.963 84.2368 118.091 80.5878C114.003 72.6336 109.713 64.8454 102.303 59.5683C100.006 57.9321 98.852 55.4576 97.9238 52.8008C96.7343 49.3947 95.3342 46.0737 94.1486 42.6636C91.793 35.888 87.078 33.0571 80.1087 34.0007C76.8288 34.4422 73.5724 35.3615 70.0195 34.3652C65.1094 27.2494 58.8539 20.7937 57.836 11.256C57.7151 10.1422 57.2042 8.92317 56.3891 7.99573C48.9011 -0.517349 42.2829 -9.94576 32.7319 -16.288C29.8849 -18.1794 27.697 -20.7673 25.4155 -23.497C25.3297 -30.0054 24.655 -36.5016 23.0014 -42.856C22.7284 -48.1291 20.1973 -52.7137 18.6374 -57.5696C16.0673 -65.5724 16.9799 -72.1577 23.2081 -78.099C26.1097 -80.8692 29.0776 -83.6313 31.8193 -86.3732C32.412 -88.4427 32.4433 -90.2895 31.7296 -92.4724C24.7408 -97.6281 16.8395 -101.658 8.98882 -105.651C3.94616 -108.219 1.11478 -111.678 0.830078 -117.429C0.892478 -117.963 1.08747 -118.437 1.41117 -118.858C7.60823 -120.782 13.8092 -122.689 19.9984 -124.646C21.2815 -125.051 22.3696 -125.861 23.3329 -126.845C36.0078 -139.76 47.9534 -153.401 60.2423 -166.701C60.9716 -170.787 64.1461 -171.318 67.2739 -171.913L67.2817 -171.905Z" fill="#333333"></path></svg>