<svg xmlns="http://www.w3.org/2000/svg" width="18" height="28" viewBox="0 0 18 28" fill="none"><path d="M8.52311 13.8724C7.08402 15.3668 4.666 14.7675 3.02801 16.9261C1.33932 20.1539 4.19801 23.7301 3.52722 27.371C3.20352 27.3872 2.88373 27.3994 2.56003 27.4075C1.85024 21.215 1.14046 15.0226 0.430664 8.83422C0.645163 8.02422 0.855719 7.21422 1.07022 6.40017C3.2035 5.88177 5.24319 7.21422 7.07228 6.04377C9.09247 5.03532 8.7493 2.32992 10.6681 0.875977C13.0627 2.22462 15.0673 4.16052 17.4423 6.54597C13.4527 9.83051 8.40608 9.40528 4.49831 11.7745C4.76741 12.8721 5.90229 13.0705 6.48728 13.836C7.16198 13.8481 7.8406 13.8602 8.5153 13.8724H8.52311Z" fill="#363635"></path></svg>