<svg xmlns="http://www.w3.org/2000/svg" width="101" height="23" viewBox="0 0 101 23" fill="none"><path d="M14.2679 0.969874C20.7692 2.58987 27.4654 2.30231 34.0525 3.0799C44.5902 4.3273 55.1747 5.1494 65.7475 6.0647C75.3337 6.8909 84.9276 7.59971 94.5176 8.36111C96.1517 8.49071 97.856 8.12214 99.3692 9.04554C100.808 13.3871 100.723 14.9707 98.6243 22.1999C96.3896 23.3906 93.8468 22.6211 91.4211 22.8681C87.0453 22.0865 82.6305 22.6413 78.1846 22.0581C60.9038 19.8063 43.4982 19.5026 26.0848 19.7618C20.6132 19.8428 15.2624 21.2887 9.72446 20.8837C3.07111 20.3977 -0.938076 15.3635 0.208516 8.29219C4.63888 5.3276 9.42806 3.09612 14.264 0.96582L14.2679 0.969874Z" fill="#333333"></path></svg>