<svg xmlns="http://www.w3.org/2000/svg" width="13" height="28" viewBox="0 0 13 28" fill="none"><path d="M5.65571 24.1986C4.78601 25.0774 4.68068 26.2196 4.64168 27.386C2.59029 22.4166 2.99592 16.9653 1.84543 11.8137C1.36573 9.67527 1.56459 7.4154 0.437494 5.36611C-0.3308 3.97291 0.375083 2.73772 1.49828 1.88317C3.26496 0.996223 4.79768 2.10993 6.40447 2.24358C8.04246 2.37723 9.78578 2.76199 10.6321 0.635742C11.6773 1.15009 12.2739 2.06938 12.7458 3.10618C10.7919 7.26147 7.18834 4.37389 4.32576 5.09884C2.60197 9.59838 4.69239 13.8428 5.04339 18.1398C5.20718 20.1526 5.73761 22.1452 5.65961 24.1986H5.65571Z" fill="#525251"></path></svg>