<svg xmlns="http://www.w3.org/2000/svg" width="50" height="53" viewBox="0 0 50 53" fill="none"><path d="M49.6978 33.7719C48.4849 36.9795 46.5934 39.7294 44.3549 42.4469C41.036 43.0828 37.9862 44.6745 35.069 46.3066C34.7219 47.149 34.8467 47.7443 35.4434 48.2182C29.3205 49.3481 23.0259 49.6964 17.3086 52.6853C16.0528 53.3414 15.1675 52.2318 14.4928 51.1788C10.9282 43.0585 7.4065 34.914 3.77953 26.8261C2.44574 23.8535 1.11978 20.897 0.304688 17.7218C2.35997 15.9195 4.88714 14.9961 7.26222 13.8337C16.6768 9.23295 26.1459 4.75368 35.5955 0.233887C37.2101 0.736086 37.8107 2.10093 38.4347 3.56702C40.9814 9.54076 43.6685 15.4538 46.1762 21.4437C47.8297 25.3924 48.8554 29.564 49.7017 33.776L49.6978 33.7719Z" fill="#333333"></path></svg>