<svg xmlns="http://www.w3.org/2000/svg" width="410" height="812" viewBox="0 0 410 812" fill="none"><path d="M-33.9234 811.708C-33.9458 808.768 -33.9832 805.823 -33.9832 802.883C-33.9907 493.763 -33.9832 184.644 -34.0879 -124.472C-34.0879 -130 -33.1681 -134.662 -29.3881 -138.493C-28.6964 -139.194 -28.2179 -140.166 -27.2757 -140.53C-20.527 -143.13 -13.9167 -146.273 -6.62588 -146.803C-4.73775 -146.941 -3.21977 -145.953 -1.69431 -145.042C4.91227 -141.093 11.7619 -138.047 19.277 -136.573C23.5842 -135.731 27.8203 -135.545 32.1275 -135.634C33.5969 -135.666 34.9466 -136.112 36.2702 -136.776C37.7171 -137.501 39.179 -138.213 40.6783 -138.789C50.2349 -142.434 55.245 -140.818 61.4552 -132.07C63.8855 -128.647 66.2223 -125.148 68.5965 -121.689C75.8424 -118.697 83.0846 -115.74 90.5735 -114.193C97.0381 -112.856 103.783 -111.682 110.378 -114.626C113.298 -115.93 116.518 -116.42 119.419 -117.887C120.982 -118.308 121.666 -117.117 122.384 -115.987C123.464 -110.856 126.414 -107.725 130.89 -105.72C137.223 -102.885 142.974 -98.7908 148.833 -94.9717C153.532 -91.9099 153.906 -87.7425 149.782 -83.6722C147.677 -81.5946 145.296 -79.8733 143.202 -77.7349C138.783 -73.2313 136.532 -64.9734 138.756 -59.0078C141.437 -51.8069 142.989 -44.2779 144.776 -36.8057C144.765 -32.9947 145.916 -29.3497 146.07 -25.5346C146.204 -22.1407 148.679 -20.1116 150.979 -18.2081C153.637 -16.009 156.176 -13.5587 158.92 -11.5905C165.934 -6.56441 169.512 1.72186 175.412 7.75635C176.586 8.9592 177.222 10.6075 177.48 12.3571C178.448 18.91 181.761 24.1224 185.279 29.3509C188.371 33.9436 192.301 35.0007 197.045 34.0043C204.093 32.5261 208.756 35.0411 211.679 42.0476C212.008 42.8333 212.214 43.6757 212.513 44.4817C215.082 51.3302 217.594 57.8183 223.397 62.8565C231.144 69.5835 234.643 79.8826 238.745 89.4568C239.078 90.2344 239.205 91.1133 240.166 91.9395C241.392 92.7211 243.25 92.5713 245.236 93.6202C251.431 89.2219 258.419 90.5463 265.403 91.4494C267.351 91.7005 268.678 92.8669 269.77 94.3411C272.731 98.3425 273.872 103.13 274.765 107.431C273.617 109.982 272.062 110.168 270.398 110.124C259.399 109.824 248.444 108.67 237.444 108.289C233.29 108.148 229.484 105.831 225.651 104.17C220.84 102.085 215.994 100.76 210.775 101.267C209.032 101.437 207.26 101.315 205.503 101.291C192.54 101.088 193.471 103.251 187.975 90.3195C187.093 88.2459 185.732 87.1159 183.649 86.7231C177.394 85.5445 172.096 82.179 167.164 78.0156C160.999 72.8114 154.617 67.9271 148.324 62.9091C146.077 61.115 144.017 60.4022 141.246 61.3256C138.536 62.2287 135.713 62.8646 132.864 63.1602C125.181 63.95 119.112 68.4495 113.545 73.6092C108.629 78.1655 103.383 80.4132 96.9221 79.5384C94.7274 79.2387 92.4542 79.3521 90.0613 79.6518C87.16 81.5675 85.6981 84.4106 84.6549 88.1568C81.3236 100.12 80.5496 112.522 78.6578 124.728C77.9249 129.471 77.1622 134.209 76.2537 138.915C76.1939 140.219 75.6928 141.406 75.4012 142.649C75.3003 143.378 75.289 144.12 75.2031 144.853C74.8591 145.991 74.2534 147.044 74.2496 148.291C73.3673 150.608 71.3296 151.867 69.9873 153.767C66.0578 158.076 62.0796 162.332 58.1351 166.625C61.7057 162.754 65.2801 158.886 68.847 155.022C69.1274 154.718 69.4115 154.407 69.6882 154.103C69.9462 153.815 70.2079 153.512 70.4584 153.212C70.5743 153.066 70.694 152.916 70.8136 152.766C71.0529 152.491 71.2959 152.216 71.5427 151.948C71.6623 151.819 71.782 151.685 71.9016 151.555C72.1409 151.304 72.3802 151.045 72.612 150.778C72.7279 150.648 72.8476 150.519 72.9635 150.393C73.2028 150.142 73.4346 149.879 73.6514 149.599C73.7561 149.457 73.8608 149.312 73.9655 149.17C74.1375 148.842 74.2534 148.498 74.302 148.125C74.3468 147.542 74.388 146.963 74.5787 146.412C75.1657 145.521 75.3264 144.512 75.3115 143.447C75.3451 142.986 75.4124 142.54 75.5321 142.095C75.891 140.908 76.2724 139.733 76.2911 138.466C79.1251 126.069 79.828 113.311 81.9031 100.789C82.7182 95.8761 84.0268 91.0971 85.0998 86.2573C86.0794 81.8267 89.2462 79.1172 93.4674 79.5749C102.037 80.5104 109.44 78.4733 115.706 71.7543C123.221 63.6948 133.544 63.5166 142.974 60.9044C144.978 60.3495 146.578 61.5524 148.208 62.816C155.204 68.2308 162.218 73.6457 168.966 79.3885C173.244 83.0254 177.902 85.2894 183.006 86.5206C185.874 87.2131 187.489 88.7764 188.536 91.5223C189.145 93.114 190.028 94.5801 190.637 96.1758C192.114 100.044 194.753 101.724 198.578 101.307C199.21 101.238 199.857 101.335 200.493 101.291C211.762 100.501 222.687 101.627 233.043 107.143C238.076 109.82 243.77 108.625 249.117 108.844C257.851 109.205 266.536 110.837 275.352 109.832C280.516 109.245 284.935 106.333 290.057 105.523C296.664 104.478 302.601 104.543 308.09 109.338C311.305 112.145 315.22 114.036 318.361 116.916C325.543 123.501 334.03 125.801 343.045 126.705C345.479 126.948 347.759 127.47 349.644 129.276C349.954 129.357 350.261 129.507 350.571 129.503C361.346 129.446 366.252 136.866 369.075 146.736C371.516 155.269 373.875 163.827 377.072 172.081C377.681 173.652 378.04 175.341 378.519 176.973C379.229 177.901 378.343 179.415 379.521 180.169V180.14C379.85 182.696 378.429 183.838 376.481 184.547C374.836 185.142 373.378 186.179 372.443 186.592C375.195 186.009 378.485 181.12 382.105 186.491C386.909 198.503 391.728 210.511 396.503 222.536C397.501 225.055 399.161 227.266 399.516 230.085C400.302 231.571 400.074 233.041 399.217 235.261C387.608 240.59 376.724 247.969 369.31 260.46C373.322 264.566 379.902 262.878 381.491 266.522C380.018 263.068 373.823 264.538 370.267 261.193C371.004 255.758 381.383 244.324 388.505 241.356C393.598 248.046 399.105 254.66 400.743 263.768C401.375 267.296 402.766 269.872 405.977 271.196C407.054 275.971 410.785 279.892 409.219 285.331C409.279 285.651 409.238 285.95 409.099 286.242C408.168 287.04 409.047 288.502 408.138 289.308C407.196 292.09 406.25 294.876 405.308 297.659C403.906 299.761 405.514 302.009 405.136 303.912C404.407 306.026 402.971 306.006 401.857 305.937C403.031 305.961 404.347 306.403 404.983 308.112C404.93 314.815 404.781 321.505 402.436 327.864C399.883 336.037 397.038 343.979 391.459 350.499C386.931 355.792 383.148 361.831 377.39 365.824C374.974 367.501 374.567 371.162 371.946 372.766C367.826 375.289 365.392 379.59 362.461 383.385C355.36 392.583 350.35 402.728 349.752 414.975C348.971 417.211 348.088 419.402 347.419 421.593C343.493 424.403 338.636 421.159 335.257 423.881C333.634 425.821 334.879 428.056 333.432 430.069C330.284 432.524 326.317 432.864 322.399 431.697C314.708 429.413 306.953 427.36 299.333 424.812C295.763 423.618 292.865 423.925 290.188 426.991C288.117 429.365 285.477 431.049 282.673 433.147C277.371 430.616 271.92 431.766 266.431 433.05C264.573 433.483 262.524 433.585 260.715 432.985C256.239 431.507 252.104 432.301 248.332 434.954C241.015 440.097 232.486 441.15 224.347 443.39C217.815 445.188 213.081 448.537 210.733 455.669C209.077 460.695 206.471 465.235 203.906 469.844C199.18 478.337 191.998 480.014 183.956 479.909C173.659 479.771 164.996 485.433 155.697 488.843C154.134 489.418 152.792 490.775 152.8 492.654C152.837 500.106 149.061 505.922 145.292 511.345C139.459 519.736 139.452 529.067 140.259 538.569C140.742 544.218 145.333 547.596 148.451 551.601C151.042 554.939 153.316 557.798 152.213 562.553C151.592 565.217 153.592 566.356 155.54 567.518C158.071 569.029 159.926 571.143 157.795 574.735C153.454 576.201 148.829 577.331 146.477 582.628C152.13 589.805 144.81 595.706 144.813 603.004C149.734 603.494 154.639 604.677 159.702 604.624C163.874 604.276 168.009 605.244 172.01 605.985C176.018 606.726 179.447 606.224 183.122 604.859C194.226 600.736 205.286 596.459 216.435 592.482C220.473 591.04 223.513 587.93 227.083 585.727C229.387 584.751 230.564 586.298 231.802 588.043C234.614 592.012 237.182 596.168 239.792 600.286C243.763 606.548 247.573 607.021 253.338 603.105C268.951 592.502 283.626 580.389 299.33 569.932C299.812 569.81 300.291 569.81 300.773 569.899C301.491 570.082 302.104 570.462 302.609 571.037C304.975 575.962 308.587 578.412 314.169 577.529C323.591 570.981 332.98 563.687 342.712 556.951C344.301 555.854 345.722 554.432 347.636 553.958C349.457 553.833 350.391 555.149 351.483 556.474C356.022 561.982 358.763 562.374 364.498 558.114C366.779 556.421 369.886 555.769 371.101 552.407C371.153 547.888 365.867 545.397 366.966 540.387C370.544 535.596 375.831 533.356 380.34 529.962C381.174 529.335 382.172 529.586 382.964 530.359C385.298 536.203 387.862 541.958 389.904 547.92C392.121 554.388 389.478 560.086 386.24 565.242C384.389 568.19 381.607 570.434 379.383 573.123C378.052 574.735 376.47 575.043 374.664 574.921C371.696 575.043 368.738 575.006 366.356 574.038C368.342 575.132 371.262 574.289 373.602 576.023C374.178 576.266 374.829 576.408 375.146 577.74C373.486 579.579 371.617 581.632 369.763 583.702C360.12 594.466 350.373 605.122 340.872 616.037C334.322 623.562 328.37 631.67 322.511 639.835C320.069 643.237 317.688 646.687 314.85 649.725C311.081 652.584 306.639 652.013 302.855 651C293.669 648.538 286.823 652.479 280.284 658.679C280.407 663.693 278.777 668.48 279.091 673.526C279.334 677.495 280.542 680.136 284.572 680.492C286.318 680.646 288.203 680.942 287.193 683.793C275.569 697.563 261.07 706.874 245.778 714.885C227.532 724.443 209.212 733.835 190.917 743.275C188.181 744.685 185.418 746.037 182.617 747.293C175.502 750.48 169.273 755.389 162.554 759.346C144.454 769.997 127.39 782.487 109.885 794.2C107.279 794.957 105.649 797.509 103.166 798.493C98.1821 804.459 91.2391 805.597 84.5315 806.848C79.8467 807.719 74.975 807.383 70.1967 807.695C68.3347 807.816 66.7607 807.042 65.1567 806.289C56.2096 802.11 47.0007 798.704 37.7171 795.532C35.5561 794.795 33.38 794.577 31.133 794.451C22.1111 793.949 13.4593 795.383 4.75151 798.218C-6.4165 801.854 -17.3377 806.224 -28.4198 810.092C-30.2256 810.72 -31.9193 811.826 -33.9122 811.724L-33.9234 811.708Z" fill="#333333"></path></svg>