<svg xmlns="http://www.w3.org/2000/svg" width="140" height="108" viewBox="0 0 140 108" fill="none"><path d="M40.4978 59.721C41.3168 59.6076 42.167 59.5873 43.1576 58.4574C44.1287 53.1964 45.1973 47.4536 46.2386 41.7026C46.6325 39.5358 45.8446 37.6283 44.932 35.7491C42.5336 30.8041 40.2287 25.8104 37.7561 20.9059C34.8233 15.082 35.2874 9.64691 39.1211 4.47102C39.5267 3.92427 39.9089 3.36132 39.6437 2.09773C37.5689 0.975878 35.0417 1.94784 32.6862 1.60764C36.395 0.194196 40.0649 -0.818302 43.3448 2.62014C38.345 6.93743 38.9846 12.2672 40.8839 17.7671C41.7848 20.3672 42.7169 22.9835 43.922 25.4418C46.8703 31.4358 48.0013 37.9442 48.0754 44.4727C48.13 49.4097 46.8158 54.3669 46.0436 59.3039C45.8057 60.8307 45.2206 62.3211 46.3048 64.5162C51.4294 64.9658 56.9323 65.4517 62.1192 65.9053C65.1534 61.8351 63.6987 57.2303 65.4342 53.48C66.7251 53.0466 67.2984 53.9336 67.8366 54.8813C69.2757 57.3842 67.782 60.3649 69.1392 63.3052C76.1279 64.4919 83.1011 63.5037 90.8269 61.912C89.5243 53.5002 95.5186 49.7458 101.263 45.4893C98.9077 40.9331 94.2979 39.2604 91.5991 35.6681C90.238 34.2303 89.7037 32.4524 89.6335 30.4841C89.263 30.1966 88.8964 29.9131 88.5259 29.6255C88.1281 29.3218 87.82 28.9208 87.5002 28.536L87.5119 28.5482C87.1337 28.2404 86.8022 27.884 86.4902 27.5033L86.5019 27.5154C86.1353 27.1955 85.8038 26.8432 85.4801 26.4787L85.4878 26.4868C85.1368 26.1587 84.8092 25.8023 84.4699 25.4621H84.466C84.1423 25.1138 83.807 24.7777 83.4638 24.4537L83.4326 24.4213C83.1323 24.0689 82.8086 23.7409 82.4615 23.4371L82.4108 23.4047C81.935 22.7243 80.9639 22.9714 80.4881 22.291L80.4998 22.3153C80.1254 22.0034 79.79 21.6511 79.4819 21.2704L79.4936 21.2825C79.127 20.9626 78.7955 20.6102 78.4718 20.2417L78.4796 20.2498C78.1286 19.9217 77.7971 19.5694 77.4656 19.217C77.1302 18.8768 76.8065 18.5285 76.4594 18.2045L76.4399 18.1924C75.5351 17.3621 74.369 16.9166 73.4915 16.0499L73.4993 16.0783C73.1249 15.7705 72.7895 15.4141 72.4814 15.0334L72.4932 15.0455C72.1266 14.7296 71.7912 14.3732 71.4714 14.0047L71.4831 14.0168C71.1282 13.6928 70.7967 13.3364 70.4613 12.9881C70.1376 12.6439 69.8022 12.3158 69.4551 11.9999L69.4122 11.9716C68.9247 11.2993 67.9692 11.5342 67.47 10.8862L67.4817 10.9024C67.1307 10.5784 66.8109 10.222 66.4599 9.89797L66.4404 9.88585C65.9334 9.23785 64.974 9.46462 64.4826 8.78827L64.4943 8.8126C64.1238 8.5048 63.8001 8.14435 63.4647 7.8001H63.4608C62.9343 7.17235 61.9827 7.39103 61.4835 6.71468L61.5147 6.72684C61.0116 6.26919 61.0506 5.86419 61.6278 5.51184C63.3243 5.49159 64.8219 6.29351 66.4053 6.75116C67.0722 7.34246 67.7508 7.42747 68.4489 6.81187C69.0924 6.76732 69.7359 6.7228 70.3793 6.6823C76.6388 12.328 82.5395 18.3989 89.3839 23.8664C89.3527 17.5727 89.0642 11.522 91.525 5.86014C92.8276 5.85204 94.1263 5.84802 95.4289 5.83992C95.7838 6.22061 96.0607 6.65395 96.2596 7.13995C96.9889 12.6479 96.6496 18.1883 96.556 23.7044C96.4858 27.884 97.5973 30.9782 101.177 33.2624C103.705 34.8743 106.072 36.8426 108.256 38.9769C111.82 42.4599 111.883 46.2548 108.236 49.6446C106.013 51.7141 103.588 53.561 101.092 55.2781C99.1494 56.6146 97.8859 58.2873 98.3461 60.8752C98.5723 61.8391 98.8921 62.7787 99.0987 63.7467C101.072 68.2503 101.782 73.2804 104.75 78.4887C115.381 75.1231 126.609 73.5882 136.617 67.6914C138.254 68.4528 139.136 69.7812 139.35 71.6117C139.268 74.8234 137.412 76.5001 134.702 77.5369C126.473 80.6837 117.912 82.6197 109.488 85.0618C107.671 85.5883 105.861 85.4951 104.574 83.6889C103.502 84.0291 102.433 84.3693 101.361 84.7054C97.9873 84.7986 97.5973 81.838 96.6262 79.5862C95.4211 76.7998 95.0896 73.5881 92.7379 70.8503C77.7776 72.8632 62.7315 69.5908 47.6386 70.575C45.2051 75.192 44.6903 79.4688 45.8408 83.9885C46.3478 85.9811 47.2486 87.9656 45.4819 89.7922C45.1387 90.8492 44.7955 91.9063 44.4523 92.9593C42.986 95.6606 40.7123 97.2077 37.8575 97.7301C36.4769 99.6377 35.2094 101.432 33.8951 103.19C31.1418 106.863 27.6669 108.414 23.0805 107.774C17.4802 106.992 12.1333 105.291 6.73573 103.716C4.68045 103.117 2.54716 102.805 0.445076 102.363C-0.0853203 101.233 0.554279 100.695 1.42397 100.269C3.29596 100.217 5.01193 100.922 6.71621 101.549C14.2861 104.336 22.047 103.404 29.7534 103.242C32.0427 100.249 34.796 97.8962 35.4005 94.0771C34.9871 93.2063 34.9949 92.2627 34.9793 91.3271C34.8779 89.8489 35.3342 88.5124 35.9426 87.2164C36.2468 86.3132 36.6212 85.4344 36.7031 84.4664C37.1867 77.8001 39.6632 71.4214 39.4019 64.9495C38.7701 62.7828 36.1415 62.5236 36.2039 60.2191C37.4792 58.6072 38.9729 59.0811 40.49 59.7169L40.4978 59.721Z" fill="#555656"></path></svg>