<svg xmlns="http://www.w3.org/2000/svg" width="8" height="10" viewBox="0 0 8 10" fill="none"><path d="M2.89353 7.26428H3.54278V7.53316C3.54278 7.70368 3.50998 7.84795 3.45096 7.95289C3.39194 8.05782 3.30017 8.14307 3.17557 8.20865C3.05096 8.27424 2.90665 8.31358 2.72958 8.33982C2.55251 8.36605 2.34925 8.37261 2.11971 8.37261H1.30642C1.20149 8.37261 1.14904 8.42507 1.14904 8.52344V9.17926C1.14904 9.22517 1.15562 9.26452 1.17529 9.29075C1.19497 9.31698 1.23435 9.33665 1.29338 9.34977C1.32617 9.36289 1.3917 9.36944 1.49007 9.36944C1.58189 9.36944 1.68681 9.376 1.80485 9.38256C1.91634 9.38256 2.02783 9.38913 2.13276 9.38913H2.36885C2.67052 9.38913 2.95912 9.36289 3.228 9.31042C3.49689 9.25796 3.73296 9.16615 3.93626 9.02843C4.13956 8.89726 4.30352 8.70708 4.43469 8.47754C4.56585 8.24145 4.64454 7.93977 4.67077 7.57251V7.27083H5.53649C5.65454 7.27083 5.7857 7.27083 5.93653 7.27083C6.08081 7.27083 6.22511 7.26427 6.36283 7.25116C6.50055 7.2446 6.62513 7.23148 6.74318 7.21836C6.86122 7.20525 6.95307 7.19214 7.01865 7.17246C7.09079 7.14623 7.13668 7.10688 7.16291 7.06753C7.18914 7.02818 7.20879 6.97572 7.22191 6.91669C7.24158 6.75274 7.25473 6.57567 7.25473 6.38548C7.25473 6.1953 7.2613 6.01167 7.2613 5.85427V0.660191C7.2613 0.607725 7.24158 0.56182 7.21534 0.529029C7.18255 0.48968 7.14325 0.476562 7.09734 0.476562H6.28414C6.23823 0.476562 6.19228 0.496238 6.15949 0.529029C6.1267 0.56182 6.10705 0.607725 6.10705 0.660191V5.83459C6.10705 5.97887 6.08739 6.06412 6.04149 6.09036C5.99558 6.11659 5.90373 6.12971 5.75945 6.12971H4.69703V3.24411C4.69703 3.1982 4.68388 3.16541 4.66421 3.13918C4.64453 3.1195 4.60523 3.09328 4.5462 3.0736C4.48062 3.04737 4.39536 3.02769 4.29699 3.00802C4.19206 2.98834 4.08713 2.97523 3.96908 2.96212C3.85103 2.949 3.72646 2.94244 3.5953 2.92932C3.46414 2.92276 3.34606 2.9162 3.23457 2.9162C2.46726 2.9162 1.87706 3.10639 1.46389 3.49333C1.05073 3.88026 0.84082 4.42459 0.84082 5.12631V5.30338C0.84082 5.95264 1.02443 6.4445 1.39168 6.77241C1.75894 7.10032 2.26397 7.27083 2.91323 7.27083M1.94263 5.0345C1.94263 4.68692 2.0344 4.41803 2.22459 4.22784C2.41477 4.03765 2.67715 3.93928 3.01818 3.93928C3.20837 3.93928 3.39197 3.94584 3.56248 3.96552V6.14282H2.89353C2.55906 6.14282 2.31643 6.06413 2.17215 5.90017C2.02131 5.73622 1.94919 5.48701 1.94919 5.14599V5.02794L1.94263 5.0345Z" fill="#0B5463"></path></svg>