<svg xmlns="http://www.w3.org/2000/svg" width="41" height="66" viewBox="0 0 41 66" fill="none"><path d="M35.2925 0.591309C35.1326 3.96495 31.7357 5.5404 31.0454 9.2502C33.3737 15.4912 35.8814 22.2183 38.3891 28.9453C38.1629 29.2086 37.8977 29.4111 37.6052 29.5569C36.8096 30.0429 37.0319 30.6909 37.3595 31.3753C42.3242 42.0673 42.371 42.1928 31.9424 46.4696C27.9996 48.0856 25.0551 50.3738 23.499 54.5372C22.4265 57.4127 20.379 59.2433 17.5359 60.3328C14.7513 61.3979 12.0136 62.6372 9.30308 63.9292C7.77039 64.6581 6.0388 65.9906 4.22921 64.326C0.816733 56.3881 -0.255748 48.2354 2.19343 39.6494C3.90552 37.7378 6.37032 37.0291 8.6908 36.2475C13.0744 34.7692 15.9799 31.7357 18.2574 27.7465C22.3953 20.497 26.6345 13.3083 30.8465 6.09931C32.0555 4.03382 33.44 2.10601 35.2886 0.591309H35.2925Z" fill="#333333"></path></svg>