<svg xmlns="http://www.w3.org/2000/svg" width="27" height="23" viewBox="0 0 27 23" fill="none"><path d="M25.5494 11.0545C26.384 14.1568 26.6532 17.3198 26.5011 20.5315C18.393 22.0826 10.281 22.9696 2.1535 20.6449C3.2299 20.3695 3.93579 19.7863 3.5692 18.5186C3.0583 16.7528 2.64883 14.9222 1.89224 13.2698C0.819745 10.9208 0.320514 8.52728 0.492113 5.95554C1.6933 5.54244 2.26663 6.32815 2.76583 7.2394C3.11682 8.03725 2.7229 9.12265 3.61209 9.62485C3.59649 9.25225 3.655 8.97684 3.772 8.65284C3.967 8.20735 4.20492 7.86715 4.52081 7.5391C8.56898 5.14555 12.8979 3.48909 17.1801 1.70304C19.5981 0.694596 22.1214 -0.4313 23.8764 2.26194C25.5339 4.80534 28.0376 7.51481 25.5455 11.0505L25.5494 11.0545Z" fill="#343434"></path></svg>