<svg xmlns="http://www.w3.org/2000/svg" width="105" height="47" viewBox="0 0 105 47" fill="none"><path d="M70.3444 46.005C68.1253 46.6084 65.9062 47.2321 63.6716 46.0819L63.5741 46.005C62.3846 45.0816 61.2419 44.0853 59.9939 43.255C57.5018 41.5986 55.7351 39.4764 55.1501 36.366C54.4286 32.5509 51.995 29.5458 50.4857 26.0993C38.0877 -2.16159 25.6741 -30.4144 13.2527 -58.6631C8.97834 -68.379 4.66496 -78.0787 0.371094 -87.7866C0.523193 -89.4957 0.105879 -91.2533 0.792274 -92.9138C4.25545 -95.8055 38.8794 -112.001 42.3933 -112.346C44.3316 -110.831 44.9595 -108.417 45.9111 -106.255C50.0568 -96.8221 54.0893 -87.337 58.2155 -77.8965C66.4678 -59.0114 74.7085 -40.1181 83.0466 -21.2735C88.4559 -9.0547 94.0445 3.07504 99.5279 15.2615C101.146 18.8619 102.648 22.5231 104.259 26.1276C104.785 27.3061 104.906 28.428 104.426 29.6187C95.468 34.3977 86.1198 38.2816 76.9705 42.6232C74.7319 43.6843 72.3256 44.4052 70.3405 46.0009L70.3444 46.005Z" fill="#333333"></path></svg>