<svg xmlns="http://www.w3.org/2000/svg" width="39" height="43" viewBox="0 0 39 43" fill="none"><path d="M3.59922 34.8221C3.02592 33.5585 1.41526 33.194 0.947266 31.1569C8.58341 20.9873 16.4262 10.5465 24.1443 0.267578C28.4187 1.62028 34.2725 5.71074 38.1842 9.95513C35.5868 14.6977 32.0261 18.8166 28.9451 23.2756C25.1583 28.7512 21.192 34.0972 17.253 39.4594C16.0947 41.0389 15.1822 43.2663 12.5497 42.1809C12.3274 42.2093 12.1051 42.2376 11.8828 42.27C11.4304 42.2903 10.9897 42.2174 10.5646 42.0473C10.3774 41.9177 10.1902 41.7881 10.003 41.6585C8.0257 40.488 6.75038 38.4144 4.7575 37.2601C3.9346 36.6688 3.47442 35.8954 3.59531 34.8262L3.59922 34.8221Z" fill="#333333"></path></svg>