<svg xmlns="http://www.w3.org/2000/svg" width="15" height="8" viewBox="0 0 15 8" fill="none"><path d="M13.9375 4.5C14.2136 4.5 14.4375 4.27614 14.4375 4C14.4375 3.72386 14.2136 3.5 13.9375 3.5V4.5ZM0.583946 3.64645C0.388684 3.84171 0.388684 4.15829 0.583946 4.35355L3.76593 7.53553C3.96119 7.7308 4.27777 7.7308 4.47303 7.53553C4.6683 7.34027 4.6683 7.02369 4.47303 6.82843L1.64461 4L4.47303 1.17157C4.6683 0.976311 4.6683 0.659728 4.47303 0.464466C4.27777 0.269204 3.96119 0.269204 3.76593 0.464466L0.583946 3.64645ZM13.9375 3.5L0.9375 3.5V4.5L13.9375 4.5V3.5Z" fill="#214956"></path></svg>