<svg xmlns="http://www.w3.org/2000/svg" width="120" height="68" viewBox="0 0 120 68" fill="none"><path d="M1.26194 45.9322C8.69918 33.3286 15.8439 20.5266 25.4534 9.46604C28.0664 6.45689 31.1123 4.22536 34.5365 2.43526C36.3539 1.74676 37.5473 3.75149 39.9692 3.58139C44.4658 -2.53815 50.2651 0.876013 55.7835 2.79166C59.8005 4.18891 65.0031 3.57329 67.0662 8.64388C67.0506 11.3371 65.1201 12.9491 64.695 15.8732C70.346 19.8057 76.2701 23.8314 82.7557 26.8365C91.2616 30.7771 100.189 33.6121 108.788 37.3178C113.066 39.1606 117.29 41.2018 119.587 45.835C117.454 53.9066 114.108 56.5148 106.37 56.4824C99.042 56.45 92.1001 54.4534 85.1659 52.3393C76.3481 52.5863 68.5521 56.6687 60.4986 59.6576C54.4381 61.9054 48.5296 64.8416 42.3754 66.5912C36.7829 68.1829 30.7535 68.9361 25.118 65.2183C18.414 60.7957 11.4955 56.7133 4.62371 52.5701C2.89212 51.5252 0.528732 50.7841 0.177734 48.0989C0.314233 47.7466 0.450708 47.3942 0.591107 47.0419C0.836805 46.6855 1.06304 46.3169 1.26194 45.9322Z" fill="#333333"></path></svg>