<svg xmlns="http://www.w3.org/2000/svg" width="9" height="10" viewBox="0 0 9 10" fill="none"><path d="M0.411595 1.71476C0.544195 1.40696 0.672901 1.09513 1.0044 0.313477C3.18838 2.99052 6.50725 3.85318 8.50404 6.60313C8.81993 6.91093 8.89015 7.14979 8.71465 7.32394C8.57425 7.46164 8.42604 7.53049 8.26614 7.53049C7.99315 7.62769 7.76695 7.78977 7.58365 8.01657C7.17025 8.17452 6.83878 8.44181 6.58528 8.81441L6.53068 8.85079C6.16018 9.17479 5.81696 9.53934 5.34117 9.70944C2.32259 9.02499 2.424 6.03201 1.35931 3.90171C1.30471 3.37117 0.957612 3.00669 0.676814 2.60574C0.485716 2.34249 0.395988 2.04281 0.403788 1.71476H0.411595Z" fill="#414138"></path></svg>