<svg xmlns="http://www.w3.org/2000/svg" width="56" height="41" viewBox="0 0 56 41" fill="none"><path d="M0.492108 9.75536C0.484308 9.44756 0.468706 9.14381 0.441406 8.84006C10.8543 7.32536 21.5325 7.52379 31.5905 3.64794C32.9828 3.11334 34.4453 2.8258 35.6036 1.77685C37.8071 0.169001 40.0885 0.343161 41.746 2.34386C46.8823 8.5525 51.145 15.4577 55.8444 22.0228C55.8678 22.7113 55.9965 23.5212 55.5792 24.0396C49.7449 31.2284 42.3349 36.0965 33.8759 40.6446C29.0048 33.4154 27.0041 25.5139 23.459 18.4547C23.2563 18.0214 23.1003 17.5597 22.995 17.0858C22.8039 16.4864 22.5738 15.9032 22.1643 15.4658C21.1698 15.4456 20.5458 16.7294 19.4499 16.3163C17.3439 15.6643 16.6614 13.534 15.4524 12.0638C12.7029 10.5896 9.94565 10.9906 7.17667 11.4847C4.71578 11.9221 2.2393 12.3716 0.499915 9.75937L0.492108 9.75536Z" fill="#333333"></path></svg>