<svg xmlns="http://www.w3.org/2000/svg" width="72" height="8" viewBox="0 0 72 8" fill="none"><path d="M18.7258 7.95121C17.1619 7.77301 15.9997 7.22628 15.2353 5.53743C10.4188 -5.11 5.48149 -15.6967 0.60653 -26.3198C0.333532 -26.9111 0.294489 -27.6158 0.0253906 -28.8065C16.9747 -37.6233 34.271 -45.4925 51.0253 -53.4912C53.6656 -52.1466 54.1843 -49.9758 55.1593 -48.2262C60.0849 -39.4013 64.9326 -30.5278 69.7452 -21.634C70.4706 -20.2934 70.884 -18.7706 71.4417 -17.3288C71.2428 -17.0575 71.0985 -16.6565 70.8372 -16.535C62.6551 -12.7645 54.8785 -8.0827 46.4468 -4.8913C42.3752 -3.3523 38.5649 -1.23415 34.6376 0.632896C29.3649 3.13984 24.0336 5.52122 18.7297 7.95527L18.7258 7.95121Z" fill="#333333"></path></svg>