<svg xmlns="http://www.w3.org/2000/svg" width="6" height="6" viewBox="0 0 6 6" fill="none"><path d="M3.88076 5.37179C4.00536 5.35868 4.13658 5.34556 4.26118 5.32589C4.38579 5.30622 4.51694 5.28654 4.66122 5.25375C4.74648 5.24063 4.79894 5.22096 4.81861 5.18161C4.83829 5.14226 4.85135 5.0898 4.85135 5.01765V4.42742C4.85135 4.38152 4.83827 4.34872 4.80548 4.32249C4.77269 4.30282 4.73986 4.2897 4.6874 4.2897H4.66122C4.47103 4.30937 4.2284 4.32904 3.93984 4.34872C3.65128 4.36839 3.34302 4.38151 3.01511 4.38151C2.79869 4.38151 2.62158 4.34872 2.48386 4.27658C2.34614 4.211 2.23465 4.11919 2.15595 4.0077C2.07726 3.89621 2.01823 3.77816 1.992 3.64043C1.95921 3.50927 1.94613 3.37155 1.94613 3.24039V3.21416H4.85135C4.9694 3.21416 5.02844 3.14202 5.02844 2.99118V2.49275C5.02844 2.15829 4.98256 1.85662 4.89074 1.57461C4.79893 1.29917 4.66121 1.05652 4.48414 0.853212C4.30707 0.649908 4.08408 0.492518 3.82176 0.387587C3.55943 0.276098 3.25119 0.223633 2.91016 0.223633C2.56914 0.223633 2.26745 0.276098 1.99856 0.387587C1.72968 0.492518 1.50668 0.643357 1.32305 0.840103C1.13942 1.03685 1.0017 1.27294 0.909886 1.55494C0.811513 1.83694 0.765625 2.14517 0.765625 2.49275V3.15514C0.765625 3.59453 0.83781 3.96179 0.975531 4.25035C1.11325 4.53891 1.29028 4.76845 1.5067 4.93896C1.72312 5.10947 1.9527 5.22752 2.20847 5.2931C2.46424 5.35868 2.70032 5.39803 2.92985 5.39803C3.13316 5.39803 3.31019 5.39803 3.46102 5.39148C3.61186 5.38492 3.75615 5.37835 3.88076 5.36524M1.95269 2.34848C1.95269 1.99434 2.04445 1.7189 2.22152 1.52871C2.39859 1.33853 2.62816 1.24671 2.91016 1.24671C3.19216 1.24671 3.41517 1.33852 3.59224 1.53527C3.76275 1.72545 3.85458 2.0009 3.85458 2.34848V2.38127H1.95926V2.34848H1.95269Z" fill="#0B5463"></path></svg>