<svg xmlns="http://www.w3.org/2000/svg" width="4" height="7" viewBox="0 0 4 7" fill="none"><path d="M3.47749 5.94095H2.99868C2.91342 5.94095 2.84789 5.94095 2.80854 5.92783C2.76264 5.92127 2.72982 5.89503 2.70359 5.86224C2.67736 5.82945 2.66428 5.77699 2.65772 5.71141C2.65772 5.64583 2.65115 5.55401 2.65115 5.44252V2.63562H3.46436C3.51027 2.63562 3.55614 2.61595 3.58893 2.58316C3.62172 2.55037 3.64144 2.50447 3.64144 2.45856V1.9339C3.64144 1.888 3.62172 1.84209 3.58893 1.8093C3.54958 1.77651 3.51027 1.75683 3.46436 1.75683H2.65115V0.838691C2.65115 0.746877 2.60519 0.70752 2.50681 0.70752H2.47407L1.64773 0.8518C1.60183 0.864916 1.55588 0.884595 1.52309 0.917386C1.4903 0.950177 1.47065 0.982963 1.47065 1.03543V1.76995H0.631185C0.585278 1.76995 0.539409 1.78963 0.506618 1.82242C0.473827 1.86177 0.454102 1.90111 0.454102 1.94701V2.34706C0.454102 2.39297 0.473827 2.43232 0.506618 2.46511C0.539409 2.49791 0.585278 2.51758 0.631185 2.5307L1.47065 2.6553V5.46219C1.47065 5.75731 1.49688 5.99996 1.54935 6.19015C1.60181 6.38034 1.68707 6.52462 1.79856 6.62299C1.91005 6.72137 2.06091 6.7935 2.23799 6.8263C2.42161 6.85909 2.63803 6.87876 2.88724 6.87876C2.98561 6.87876 3.09052 6.87876 3.18889 6.85909C3.28726 6.84597 3.39217 6.83286 3.4971 6.81319C3.60859 6.79351 3.66762 6.74105 3.66762 6.64923V6.08523C3.66762 5.99341 3.60209 5.95406 3.47749 5.95406" fill="#0B5463"></path></svg>