<svg xmlns="http://www.w3.org/2000/svg" width="52" height="56" viewBox="0 0 52 56" fill="none"><path d="M37.3944 0.989538C40.5651 6.78103 43.2249 12.8277 45.6234 18.9998C47.1015 22.8028 48.6614 26.5652 50.6075 30.1373C51.0326 33.2477 51.8204 36.3703 50.3189 39.4159C48.8213 41.048 47.0546 42.2995 45.1164 43.2836C36.9654 47.4105 28.7833 51.4686 20.3944 55.0529C19.1776 55.8588 17.9375 55.9115 16.085 54.9111C10.8668 43.1095 4.89593 31.0931 0.305664 19.2266C0.92186 16.7966 2.16598 16.2013 3.35547 15.61C13.6748 10.4908 24.0175 5.42023 34.6254 0.961185C35.5614 0.568336 36.4779 0.134986 37.3944 0.985484V0.989538Z" fill="#333333"></path></svg>