<svg xmlns="http://www.w3.org/2000/svg" width="109" height="133" viewBox="0 0 109 133" fill="none"><path d="M54.7539 3.06488C54.4731 5.29642 55.5923 7.08246 56.5673 8.87255C64.8353 24.0438 73.1227 39.207 81.4453 54.3459C82.4983 56.2615 83.364 58.3756 85.7079 59.9268C89.7561 57.27 93.9525 54.5443 98.1177 51.762C99.1511 51.0694 99.5451 49.8909 99.7947 48.6799C101.277 50.0853 101.756 52.0738 102.61 53.8477C101.881 56.7799 99.2331 57.4077 97.1622 58.7158C94.5414 60.3642 91.4837 61.3443 89.2842 64.074C90.8675 66.5566 92.8137 68.209 95.1108 69.4321C100.013 67.233 101.058 61.2187 105.699 59.2585C106.978 60.6274 107.517 62.3244 107.727 64.1671C106.358 67.8405 103.328 70.4689 101.682 74.1989C103.636 76.8962 104.872 80.1848 108.534 80.926C108.632 83.0482 109.58 85.2757 107.832 87.1751C105.793 88.3172 104.436 86.8552 102.887 85.871C99.4709 83.6962 97.1036 80.1848 93.2777 77.7467C86.1759 82.1126 82.1473 90.3949 74.2577 94.3112C75.3574 99.4183 78.181 103.517 80.1544 107.984C82.1472 112.5 85.2243 116.521 85.9263 121.628C85.5948 122.916 84.8304 123.888 83.8359 124.686C81.4608 124.553 80.5249 122.641 79.4758 120.879C76.1452 115.294 73.4893 109.32 70.2407 103.687C69.2267 101.929 68.6417 99.8516 66.8204 98.7257C62.2301 98.8026 57.7568 100.82 53.3577 104.87C56.345 112.961 62.9555 118.737 66.7502 126.367C66.9335 127.161 66.8984 127.946 66.6566 128.72C65.8688 130.101 65.1434 131.535 63.6146 132.227C61.2707 132.296 60.0305 130.607 58.9853 128.858C55.5845 123.167 51.8601 117.7 48.4086 112.046C47.2776 110.195 45.9477 108.219 47.6247 105.914C46.6419 105.202 45.663 104.493 44.6802 103.78C41.0923 102.221 40.5267 97.7699 37.5394 95.6518C34.4467 94.696 31.8064 98.7298 28.6435 96.4658C27.8518 96.3524 27.1655 96.0284 26.6429 95.3804C26.093 91.0145 31.0537 90.7756 32.1847 87.2359C30.1606 81.173 24.6617 76.7707 23.0588 70.1935C23.0588 67.7149 20.9333 66.2326 20.3678 64.0254C19.8296 62.6929 18.8624 61.8586 17.5442 61.4212C13.7768 58.8616 12.0531 54.6051 9.58439 50.9884C6.80761 46.9182 4.22196 42.7102 1.23458 38.7898C0.782185 37.8745 0.224459 37.0038 0.130859 35.9387C0.641756 33.4317 2.59952 32.7999 4.5924 32.2086C5.0955 32.2005 5.57908 32.3139 6.03537 32.5367C12.3377 39.4743 16.5263 48.036 22.2593 55.4191C27.614 62.3082 31.7323 70.0193 35.9833 77.6455C36.9778 79.4315 37.9099 81.2743 40.2226 82.9834C52.7025 76.7018 64.999 69.3794 77.2021 62.3082C76.2739 57.7236 55.4558 15.5632 51.1815 9.21682C49.563 8.27722 47.9679 9.56105 46.3377 9.3788C45.0858 9.35855 44.0367 8.75511 42.9993 8.11521C42.6639 7.75071 42.4572 7.31735 42.3987 6.81515C45.468 4.2596 49.173 2.82593 52.4607 0.65918C52.644 0.71588 52.8311 0.768519 53.0183 0.825219C53.732 1.18972 54.2976 1.71216 54.6134 2.48976C54.6602 2.68416 54.7071 2.87856 54.7539 3.07296V3.06488Z" fill="#555555"></path></svg>