<svg xmlns="http://www.w3.org/2000/svg" width="68" height="17" viewBox="0 0 68 17" fill="none"><path d="M57.3232 1.52175C58.3801 1.87005 59.4331 2.22243 60.4899 2.57073C63.1887 0.0678359 65.4312 0.727937 67.35 3.63583C66.0435 5.37328 64.7331 7.11073 63.4266 8.85223C62.826 6.99733 61.344 6.78272 59.8035 6.86777C51.013 7.33757 42.3122 5.49074 33.5411 5.77829C25.5813 6.03749 17.7229 4.18261 9.75912 4.68076C7.96904 4.79011 6.10484 4.38916 4.29135 5.74186C2.68847 8.99805 3.69856 12.6876 3.31636 16.207C2.25947 15.0204 1.31956 13.3721 1.79146 12.0356C3.27345 7.83977 1.3352 4.32434 0.270508 0.606445C17.2822 2.02394 34.329 1.42455 51.364 1.57845C53.3491 1.59465 55.3381 1.55011 57.3232 1.53391V1.52175Z" fill="#565757"></path></svg>