<svg xmlns="http://www.w3.org/2000/svg" width="5" height="8" viewBox="0 0 5 8" fill="none"><path d="M1.31695 2.56504C1.38253 2.34862 1.47437 2.17811 1.58586 2.0535C1.69735 1.92234 1.83507 1.83052 1.99246 1.77805C2.14986 1.71903 2.32696 1.6928 2.51715 1.6928C2.6352 1.6928 2.75977 1.6928 2.89093 1.69936C3.02209 1.69936 3.15323 1.71247 3.27784 1.71903C3.40244 1.71903 3.52052 1.73215 3.63201 1.7387C3.74349 1.74526 3.83534 1.75182 3.91404 1.75838H3.93366C3.99924 1.75838 4.0452 1.7387 4.07143 1.70591C4.09766 1.66656 4.11074 1.62721 4.11074 1.57475V0.977953C4.11074 0.912372 4.09109 0.86647 4.0583 0.840237C4.02551 0.814005 3.97307 0.787768 3.91404 0.774652C3.88125 0.768094 3.81565 0.754979 3.73039 0.735304C3.64514 0.71563 3.54022 0.702519 3.41561 0.689402C3.29101 0.676286 3.15328 0.663161 2.99588 0.650045C2.83849 0.636928 2.67453 0.630371 2.50402 0.630371C2.23513 0.630371 1.95311 0.669729 1.65799 0.741869C1.36287 0.814009 1.08743 0.951724 0.844782 1.15503C0.60213 1.35833 0.392313 1.63378 0.234917 1.98792C0.0709624 2.34206 -0.0078125 2.80113 -0.0078125 3.35857V4.67021C-0.0078125 5.22109 0.0709624 5.67361 0.234917 6.02775C0.398871 6.3819 0.60213 6.65733 0.844782 6.86064C1.08743 7.06394 1.36287 7.20822 1.65799 7.28692C1.95311 7.36562 2.24169 7.40496 2.50402 7.40496C2.67453 7.40496 2.83849 7.40497 2.99588 7.38529C3.15328 7.37217 3.29101 7.35906 3.41561 7.34594C3.54022 7.33283 3.64514 7.31316 3.73039 7.30004C3.81565 7.28693 3.87469 7.2738 3.91404 7.26068C3.97307 7.24101 4.01895 7.22134 4.0583 7.19511C4.09109 7.16888 4.11074 7.12296 4.11074 7.05738V6.46059C4.11074 6.40812 4.09766 6.36222 4.07143 6.32942C4.0452 6.29663 3.99924 6.27696 3.93366 6.27696H3.91404C3.83534 6.27696 3.74349 6.29007 3.63201 6.29663C3.52052 6.30319 3.40244 6.30976 3.27784 6.31632C3.15323 6.32287 3.02209 6.32943 2.89093 6.33599C2.75977 6.34255 2.6352 6.34254 2.51715 6.34254C2.32696 6.34254 2.14986 6.31631 1.99246 6.25728C1.83507 6.19826 1.69735 6.10645 1.58586 5.97529C1.47437 5.84412 1.38253 5.67361 1.31695 5.45719C1.25137 5.24077 1.21864 4.97844 1.21864 4.67021V3.35857C1.21864 3.04378 1.25137 2.7749 1.31695 2.56504Z" fill="#0B5463"></path></svg>