<svg xmlns="http://www.w3.org/2000/svg" width="290" height="48" viewBox="0 0 290 48" fill="none"><path d="M223.801 -209.318H288.833C290.409 -207.642 289.964 -206.03 288.969 -204.167C280.249 -187.87 271.396 -171.653 262.773 -155.3C261.806 -153.461 260.281 -152.08 258.85 -150.626C248.121 -139.756 237.759 -128.513 226.823 -117.853C214.176 -105.521 203.911 -90.9654 192.722 -77.2886C186.178 -69.2899 178.214 -63.0934 170.605 -56.4271C153.453 -41.4016 136.161 -26.5503 118.923 -11.6261C105.257 0.203964 91.783 12.2567 78.4841 24.5323C72.6848 29.8863 69.3386 37.0913 65.072 43.5956C63.9566 45.2966 63.356 47.4471 60.8679 47.5038C55.2051 47.3742 52.3386 42.4454 48.6883 39.2783C34.1063 26.6342 19.7622 13.6945 5.01637 1.2529C3.15219 -0.318497 0.894098 -1.78864 0.625 -4.72488C2.24349 -9.00572 5.2582 -12.4725 8.46398 -15.1739C20.0196 -24.9222 26.6729 -37.623 31.1228 -52.0166C33.0961 -58.4035 35.5532 -64.604 36.6452 -71.2784C37.8776 -78.8276 42.8227 -84.2019 47.5144 -89.4993C53.0211 -95.7161 59.4405 -100.973 65.7117 -106.351C67.5174 -107.902 69.7755 -108.53 72.057 -109.146C85.625 -112.807 97.7772 -119.17 107.375 -130.028C114.684 -138.298 123.607 -144.429 132.912 -149.666C143.668 -155.717 153.364 -163.181 162.868 -170.977C172.614 -178.968 183.304 -185.027 194.805 -189.781C203.65 -193.438 212.152 -197.841 218.36 -205.758C219.811 -207.609 222.026 -208.067 223.801 -209.306V-209.318Z" fill="#333333"></path></svg>