<svg xmlns="http://www.w3.org/2000/svg" width="29" height="30" viewBox="0 0 29 30" fill="none"><path d="M3.70847 8.14658C4.50016 8.06558 5.10082 7.66463 5.53372 6.98423C5.68582 5.90288 6.26692 5.16578 7.19511 4.69598C10.2332 3.46478 13.1503 1.89338 16.3912 1.24943C16.8358 1.11578 17.2882 1.02265 17.7484 0.965949C18.4855 0.957849 19.0588 1.33449 19.5853 1.81644C22.5415 7.76993 25.5015 13.7234 28.6644 20.09C22.3932 23.9982 15.9271 26.5335 9.84311 29.1701C8.14663 28.6314 7.83468 27.3719 7.35888 26.3108C5.3855 21.9287 3.47842 17.5183 1.52454 13.1281C0.947342 11.8321 0.748444 10.4956 0.939542 9.09023C1.31004 8.72168 1.68051 8.35717 2.17971 8.18707C2.5151 8.13037 2.85444 8.10608 3.19764 8.12228C3.36924 8.13038 3.53687 8.13848 3.70847 8.14658Z" fill="#333333"></path></svg>