<svg xmlns="http://www.w3.org/2000/svg" width="118" height="97" viewBox="0 0 118 97" fill="none"><path d="M62.2108 12.0838C62.3707 14.1817 63.0103 16.1621 63.8332 18.0454C67.9555 27.4819 72.1362 36.886 76.317 46.2941C76.8006 47.3795 77.2413 48.5297 79.0626 49.5948C84.8228 46.7558 91.0199 43.698 97.3769 40.5633C96.4214 35.9909 94.1125 32.5363 92.5214 28.7981C89.1596 20.9047 85.5677 13.1165 82.0266 5.30411C81.6093 4.38476 80.919 3.59501 80.3535 2.74451C81.4728 1.65911 82.8183 1.07187 84.3041 0.780273C86.2892 1.46067 86.8157 3.31152 87.5879 5.03277C91.5698 13.9103 94.9939 23.0512 99.1552 31.8478C99.7324 33.0668 99.9898 34.4802 101.558 35.3429C106.195 35.2457 109.954 30.896 114.974 31.3699C116.927 32.2811 117.637 33.7958 117.04 35.9423C111.023 39.8911 104.249 42.2238 97.8643 45.4031C92.8061 47.9222 87.7283 50.3765 82.2722 53.1872C83.8322 59.1488 86.8508 64.1302 89.0036 69.4398C90.8015 73.8745 93.0167 78.1311 94.7249 82.6185C95.4035 84.4045 95.9884 86.1825 95.5438 88.1427C95.1928 89.1511 94.6039 89.953 93.6796 90.4593C90.5948 90.6536 89.9552 87.9645 88.9841 85.9111C85.6886 78.9532 82.6584 71.8617 79.6359 64.7702C78.5088 62.1296 77.4792 59.3837 75.1509 56.9375C68.599 59.5537 62.3356 62.652 56.158 65.896C51.4469 68.3706 46.2872 70.0878 42.3677 74.0284C41.4746 74.9073 40.449 75.5107 39.2049 75.6565C38.5809 74.8668 37.9569 74.0811 37.1184 73.024C32.6529 74.1256 28.4526 76.1223 24.1939 77.9043C22.4038 78.6535 21.4366 80.4072 20.7931 82.1892C19.2643 86.4457 16.1521 88.6651 12.1976 90.0907C9.38567 91.1032 6.69081 92.4599 3.92963 93.6142C2.61534 94.165 1.66761 95.0115 1.30101 96.4695C0.353315 95.2544 0.345515 93.7762 0.228516 92.3303C5.62218 91.1842 10.3958 88.3614 15.4033 86.1906C16.9321 85.5264 18.0592 83.9833 18.5467 82.335C20.3719 76.179 25.1884 73.7206 30.3753 71.6551C32.0562 70.9828 33.8892 70.5778 35.0787 68.5974C35.2269 64.9524 32.3409 62.2592 31.5648 58.8005C32.1888 58.1201 32.532 57.1319 33.5265 56.8565C33.8112 56.8808 34.0959 56.9091 34.3806 56.9496C35.1645 60.5136 37.2198 63.462 38.261 66.6817C42.1805 66.621 69.6909 54.5561 75.1899 50.6195C74.4645 46.6424 72.4287 43.0703 70.8804 39.3403C67.9983 32.3864 64.9057 25.5257 61.8832 18.6367C61.0018 16.6238 60.37 14.2992 57.5854 14.3073C58.8763 12.9991 60.5416 12.5455 62.2108 12.096V12.0838Z" fill="#525353"></path></svg>