<svg xmlns="http://www.w3.org/2000/svg" width="90" height="72" viewBox="0 0 90 72" fill="none"><path d="M3.41041 26.4474C3.68341 27.4397 3.85891 28.4967 4.92751 28.8734C5.3136 28.8734 5.76989 29.0192 5.94539 28.8531C9.48657 25.4309 13.3787 24.6168 17.7818 26.9456C18.359 27.2493 19.0571 27.3384 19.7084 27.4477C27.914 28.8085 34.6258 33.134 40.2105 39.2333C44.1924 43.583 48.9621 45.1706 54.4221 45.4054C55.9197 43.8867 55.8026 41.9791 54.9758 40.5819C53.0843 37.3824 53.451 33.9682 53.3886 30.5379C53.3262 26.9293 53.7747 23.3006 53.1351 19.9148C52.9479 19.5665 52.8971 19.3761 52.7801 19.2708C47.8896 14.8118 44.8281 9.23089 43.2682 2.7023C43.1551 2.22845 42.7495 1.83156 42.4804 1.39821C43.272 0.551766 44.2509 0.248033 45.3624 0.300682C45.8928 2.11508 46.6338 3.89706 46.9146 5.75196C47.6985 10.9359 50.7483 14.3744 54.7458 17.3795C59.0123 16.9664 62.768 14.2488 67.5884 13.9005C73.6801 19.9958 77.4436 28.1808 82.767 35.0253C84.9003 36.2808 87.5406 35.0253 89.4984 36.7182C88.0905 36.7789 86.628 36.6129 85.4619 37.7226C82.4551 40.7034 80.2438 38.5529 78.4303 36.2525C75.283 32.2592 72.6115 27.8811 69.6982 23.6934C68.5282 22.0127 67.4635 20.2752 65.3576 19.2546C62.8733 19.6394 60.3968 20.4049 58.2245 22.1788C56.5203 29.6307 57.6902 36.5724 60.8882 43.2427C61.6682 44.8708 63.0956 45.7375 64.5191 46.6528C70.2989 50.3788 76.3009 53.7079 82.182 57.2476C84.4284 58.6003 86.2302 60.1879 87.3963 62.5653C87.0648 63.3348 86.7294 64.1042 86.3979 64.8737C84.9315 65.7526 83.5782 65.5137 82.182 64.6024C77.1004 61.2936 71.4845 58.9931 66.4223 55.6519C62.0426 52.7643 57.6434 50.3343 52.2498 49.7673C46.1697 49.1274 40.6786 46.5516 36.3457 41.7969C39.1927 43.8786 41.6964 46.3855 44.949 47.9002C48.2913 49.4554 51.6258 51.0268 55.0422 52.4079C58.4546 53.7889 61.8281 55.2753 65.2679 56.5875C70.5796 58.6125 75.8914 60.6415 80.7898 63.6547C82.8412 64.9183 84.5806 66.4452 85.4268 68.8468C85.0876 69.588 84.7522 70.3291 84.4129 71.0703C73.6372 62.7313 60.3461 60.3013 48.459 54.5787C41.3883 51.1767 34.8988 46.7905 28.6355 42.4449C28.6979 39.0915 31.4044 37.5363 31.732 34.3692C25.6208 30.4529 18.3356 30.0276 12.0839 27.5207C8.89767 28.4886 7.58338 31.842 4.5336 32.1458C2.44322 31.7489 2.23652 29.2136 0.536133 28.4238C1.28103 27.4275 2.27942 26.8281 3.41431 26.4352L3.41041 26.4474Z" fill="#515252"></path></svg>