<svg xmlns="http://www.w3.org/2000/svg" width="25" height="25" viewBox="0 0 25 25" fill="none"><path d="M21.4426 6.78302C21.4504 7.11107 21.4699 7.43914 21.505 7.76719C21.8482 8.10334 22.1368 8.49212 22.441 8.86067C22.4488 9.18871 22.4683 9.51679 22.5034 9.84484C22.8466 10.181 23.1352 10.5698 23.4394 10.9424C23.4433 11.2704 23.4667 11.5944 23.4979 11.9225C24.0985 12.4814 23.8411 13.4615 24.4495 14.0204C24.4651 14.3646 24.4885 14.7048 24.5197 15.045C25.0501 15.7659 25.0657 16.4504 24.391 17.0862C18.7789 19.5365 13.1669 21.9908 7.09463 24.6395C4.22035 19.3664 0.530955 14.9438 0.347656 8.77969C5.75692 5.41009 11.4392 2.61962 17.336 0.294922C17.7221 0.708021 18.1081 1.12114 18.4981 1.53019C18.8413 1.86634 19.1299 2.25512 19.438 2.62367C19.4458 2.95172 19.4653 3.27979 19.5004 3.60784C19.8436 3.94399 20.1322 4.33277 20.4364 4.70537C20.4442 5.03342 20.4637 5.35744 20.5027 5.68549C20.8459 6.02163 21.1345 6.41041 21.4387 6.77896L21.4426 6.78302Z" fill="#333333"></path></svg>