<svg xmlns="http://www.w3.org/2000/svg" width="43" height="34" viewBox="0 0 43 34" fill="none"><path d="M1.59101 13.6891C4.83969 13.8147 7.73342 12.2919 10.7598 11.4576C18.2867 9.37586 25.7552 7.06737 32.783 4.98973C34.3898 3.90433 34.8305 2.55566 35.5012 1.37712C36.1759 0.635968 36.8506 0.640014 37.5292 1.37306C38.9176 2.31266 40.3021 3.25226 41.7139 4.20806C43.0087 7.606 42.3379 11.085 42.3535 14.5032C42.3613 16.6416 41.0821 18.0429 39.292 18.8569C28.337 23.8505 17.3664 28.8118 6.62974 33.6799C4.65246 32.7524 4.58229 31.0433 4.17669 29.6137C3.0925 25.8026 2.18769 21.9349 1.0918 18.1279C0.623805 16.5079 0.678373 15.0783 1.59487 13.6932L1.59101 13.6891Z" fill="#333333"></path></svg>