<svg xmlns="http://www.w3.org/2000/svg" width="21" height="8" viewBox="0 0 21 8" fill="none"><path d="M0.530817 6.70082C0.694771 6.85166 0.884961 6.95659 1.10794 7.02873C1.33092 7.09431 1.56698 7.13367 1.81619 7.13367H1.93428C2.14414 7.13367 2.3474 7.10088 2.54414 7.04185C2.74089 6.97627 2.90491 6.89102 3.02295 6.76641C3.12133 6.94348 3.27212 7.07464 3.46887 7.15334C3.66561 7.23204 3.9214 7.27138 4.22964 7.27138H4.81989C4.91826 7.27138 5.01661 7.27139 5.1281 7.25827C5.23959 7.25171 5.35108 7.23204 5.45601 7.21236C5.5675 7.18613 5.67242 7.1599 5.77079 7.12055C5.86916 7.0812 5.96756 7.03529 6.04626 6.97627C6.20366 7.10087 6.39386 7.18612 6.62995 7.21892C6.85949 7.25826 7.08897 7.27795 7.31851 7.27795H7.59398C7.79073 7.27795 7.98092 7.25827 8.17767 7.21236C8.36786 7.17301 8.52523 7.08776 8.64327 6.96971C8.78755 7.14022 8.9974 7.27139 9.2794 7.35009C9.5614 7.43534 9.85657 7.47468 10.1582 7.47468C10.4599 7.47468 10.7354 7.43534 10.978 7.35009C11.2207 7.26483 11.4174 7.14022 11.5748 6.96971C11.7322 7.07464 11.9027 7.15333 12.0994 7.19924C12.2962 7.24515 12.493 7.27138 12.6963 7.27138H13.0569C13.1553 7.27138 13.2536 7.27139 13.3651 7.25827C13.4766 7.25171 13.5881 7.23204 13.693 7.21236C13.8045 7.18613 13.9095 7.1599 14.0079 7.12055C14.1063 7.0812 14.198 7.03529 14.2833 6.97627C14.4407 7.10087 14.6309 7.18612 14.867 7.21892C15.0965 7.25826 15.3261 7.27795 15.5556 7.27795H15.8441C15.9425 7.27795 16.0409 7.27794 16.1523 7.26483C16.2638 7.25827 16.3753 7.23859 16.4803 7.21892C16.5917 7.19268 16.6967 7.16645 16.7951 7.1271C16.8935 7.08775 16.9853 7.04184 17.0705 6.98282C17.2279 7.10743 17.4181 7.19269 17.6542 7.22548C17.8837 7.26483 18.1133 7.2845 18.3428 7.2845H18.7822C18.9002 7.2845 19.0315 7.2845 19.1823 7.2845C19.3266 7.2845 19.4708 7.27794 19.6085 7.26483C19.7462 7.25827 19.8709 7.24515 19.9889 7.23203C20.107 7.21892 20.1988 7.20581 20.2643 7.18613C20.3365 7.15334 20.3824 7.12055 20.4087 7.0812C20.4349 7.04185 20.4546 6.98939 20.4677 6.93036C20.4874 6.76641 20.5004 6.58933 20.5004 6.39914C20.5004 6.2024 20.507 6.02533 20.507 5.86793V0.673862C20.507 0.621397 20.4873 0.575492 20.4545 0.542701C20.4218 0.503352 20.3824 0.490234 20.3365 0.490234H19.5233C19.4774 0.490234 19.4315 0.50991 19.3987 0.542701C19.3659 0.575492 19.3463 0.621397 19.3463 0.673862V5.84826C19.3463 5.99254 19.3265 6.0778 19.2806 6.10403C19.2347 6.13026 19.1429 6.14338 18.9987 6.14338H18.2379C18.1985 6.14338 18.1461 6.14338 18.0871 6.14338C18.028 6.14338 17.9756 6.13026 17.91 6.1237C17.851 6.11059 17.7985 6.09747 17.7526 6.0778C17.7067 6.05813 17.6739 6.03189 17.6542 5.99909V3.62504C17.6542 3.57913 17.6346 3.53979 17.6018 3.507C17.569 3.47421 17.5296 3.46109 17.4837 3.46109H16.7033C16.6508 3.46109 16.6049 3.48076 16.5721 3.507C16.5393 3.53979 16.5262 3.57913 16.5262 3.62504V5.84826C16.5262 5.9204 16.5066 5.97287 16.4738 6.01221C16.441 6.05156 16.395 6.0778 16.3426 6.10403C16.2901 6.1237 16.2376 6.13682 16.1786 6.14338C16.1196 6.14338 16.0606 6.14994 16.0081 6.14994H15.4441C15.4047 6.14994 15.3523 6.14994 15.2998 6.14994C15.2408 6.14994 15.1818 6.13682 15.1228 6.13027C15.0637 6.11715 15.0113 6.10403 14.9654 6.08435C14.9195 6.06468 14.8866 6.03845 14.867 6.00566V3.63159C14.867 3.58569 14.8473 3.54634 14.8211 3.51355C14.7883 3.48076 14.7489 3.46764 14.703 3.46764H13.9226C13.8702 3.46764 13.8242 3.48732 13.7914 3.51355C13.7586 3.54634 13.7456 3.58569 13.7456 3.63159V5.85482C13.7456 5.92696 13.7258 5.97943 13.693 6.01878C13.6602 6.05813 13.6144 6.08436 13.5619 6.11059C13.5094 6.13027 13.457 6.14338 13.3979 6.14994C13.3389 6.14994 13.2799 6.15649 13.2274 6.15649H12.6766C12.6438 6.15649 12.5913 6.15649 12.5323 6.14338C12.4733 6.13682 12.4143 6.11715 12.3618 6.09747C12.3093 6.0778 12.2568 6.05156 12.2174 6.01221C12.1715 5.97942 12.1454 5.92696 12.1323 5.86793C12.1454 5.80891 12.1519 5.74989 12.1519 5.68431V4.97602C12.1519 4.31365 11.9749 3.82179 11.6273 3.48732C11.2731 3.15286 10.7943 2.9889 10.191 2.9889C9.58764 2.9889 9.08923 3.15285 8.72853 3.49388C8.36783 3.82835 8.18423 4.32677 8.18423 4.98259V5.73022C8.18423 5.82203 8.17765 5.89417 8.15797 5.94664C8.14486 5.99255 8.12519 6.03189 8.08584 6.06468C8.0465 6.09747 8.0071 6.11715 7.95463 6.13027C7.90217 6.14338 7.8497 6.14994 7.79068 6.14994C7.73166 6.14994 7.68577 6.14994 7.64642 6.14994H7.22669C7.18734 6.14994 7.13488 6.14994 7.07586 6.14994C7.01684 6.14994 6.96436 6.13682 6.89878 6.13027C6.83975 6.11715 6.78729 6.10403 6.73482 6.08435C6.68892 6.06468 6.65619 6.03845 6.63651 6.00566V3.63159C6.63651 3.58569 6.61679 3.54634 6.584 3.51355C6.55121 3.48076 6.5119 3.46764 6.46599 3.46764H5.6921C5.63963 3.46764 5.59375 3.48732 5.56096 3.51355C5.52817 3.54634 5.50845 3.58569 5.50845 3.63159V5.85482C5.50845 5.92696 5.4888 5.97943 5.45601 6.01878C5.42322 6.05813 5.37734 6.08436 5.32488 6.11059C5.27241 6.13027 5.21995 6.14338 5.16092 6.14994C5.1019 6.1565 5.04287 6.15649 4.99041 6.15649H4.40015C4.20341 6.15649 4.05911 6.1237 3.97386 6.06468C3.88204 6.00566 3.84273 5.87449 3.84273 5.68431V3.23811C3.84273 3.1922 3.83614 3.15285 3.81647 3.13318C3.79679 3.10694 3.7574 3.08727 3.69182 3.07416C3.5541 3.03481 3.36392 3.00201 3.12126 2.97578C2.87861 2.94954 2.64254 2.94299 2.41301 2.94299C1.62603 2.94299 1.02925 3.13974 0.622641 3.52667C0.216034 3.92016 0.0126953 4.46449 0.0126953 5.16621V5.34328C0.0126953 5.66463 0.0586634 5.94007 0.157036 6.17617C0.255409 6.4057 0.379991 6.60245 0.543946 6.74673M9.29253 5.02193C9.29253 4.66123 9.35815 4.39891 9.49587 4.23496C9.63359 4.071 9.85002 3.9923 10.1582 3.9923C10.4665 3.9923 10.6829 4.071 10.8141 4.23496C10.9452 4.39891 11.0173 4.66123 11.0173 5.02193V5.40231C11.0173 5.74989 10.9518 6.00565 10.8141 6.16305C10.6763 6.32045 10.4599 6.39914 10.1648 6.39914C9.93528 6.39914 9.75159 6.35324 9.61387 6.26143C9.46959 6.16961 9.37781 6.01878 9.32535 5.80236C9.30567 5.67775 9.29909 5.54659 9.29909 5.40231V5.02193H9.29253ZM1.12763 4.95635C1.12763 4.60876 1.22598 4.353 1.42928 4.18249C1.63259 4.01198 1.91461 3.92672 2.27531 3.92672C2.32778 3.92672 2.40646 3.92672 2.50483 3.92672C2.60321 3.92672 2.66875 3.93327 2.70809 3.93983V5.61216C2.70809 5.74989 2.64914 5.84826 2.53766 5.91385C2.42617 5.97943 2.26871 6.01221 2.06541 6.01221H1.93428C1.65883 6.01221 1.45549 5.94007 1.32433 5.79579C1.19317 5.65151 1.12763 5.40887 1.12763 5.0744V4.94979V4.95635Z" fill="#0B5463"></path></svg>