<svg xmlns="http://www.w3.org/2000/svg" width="156" height="109" viewBox="0 0 156 109" fill="none"><path d="M19.317 70.8518C20.1009 69.8271 21.2046 69.2925 22.3122 68.7701C23.0922 68.8592 23.646 69.2966 24.0321 69.9851C24.7419 73.3709 25.6818 76.6149 29.2151 78.6845C33.4037 76.947 36.9995 74.0513 40.4705 71.1717C40.685 66.2956 36.0011 64.708 34.9559 60.9617C35.7008 59.3093 37.2725 59.3701 38.6492 59.0339C42.0422 58.9529 42.5531 62.2901 44.1598 64.0397C43.1693 62.3671 41.4493 60.8321 41.7769 58.3373C42.0772 57.6164 42.5842 57.1223 43.2862 56.8429C47.6464 56.6323 48.1378 61.634 51.718 63.493C55.692 61.7434 59.3814 59.0218 62.6847 55.5671C62.5911 51.3308 57.8838 49.0952 58.5507 44.701C58.9953 43.4131 59.709 42.437 61.152 42.3358C65.1378 43.6237 65.7501 48.4918 69.4824 50.8084C81.0029 43.085 92.0866 34.5395 103.022 26.1399C102.527 22.0291 98.5527 19.672 99.8592 15.5896C100.44 14.6865 101.228 14.1843 102.301 14.237C105.46 15.3669 106.583 18.8539 109.566 21.0774C113.689 19.1091 117.538 16.4199 121.098 13.6456C120.79 9.42149 116.988 7.09682 117.592 3.14403C118.021 1.83588 118.766 0.908436 120.198 0.819336C124.628 3.64623 126.523 8.65607 129.577 12.6656C131.621 15.3507 132.982 18.5745 135.766 21.2232C140.041 19.0889 143.609 15.6099 147.961 13.5484C150.06 12.5562 151.982 11.0132 154.51 11.5518C155.336 12.3456 155.547 13.3581 155.481 14.4718C155.832 15.1482 155.894 15.8731 155.816 16.6183C152.076 19.3359 147.599 20.7655 144.077 23.8597C142.728 25.0423 140.84 25.6782 140.282 28.0434C140.981 31.822 144.732 34.0414 145.848 37.8201C145.317 40.1974 143.761 41.1775 141.534 41.2504C138.02 39.3753 137.334 34.815 133.785 32.3607C128.59 34.7704 124.367 38.8609 119.655 42.1454C117.37 42.7003 116.68 39.9625 114.823 39.6223C111.778 37.9537 110.619 34.3695 107.41 31.741C95.4952 39.0148 84.8599 48.3986 73.7138 56.2718C74.0843 60.7146 77.6177 63.0029 77.0639 66.7816C76.67 68.0816 75.9992 69.0779 74.5484 69.1832C71.1359 68.0208 70.0985 64.2057 67.3959 61.9944C62.8524 63.3066 59.7402 66.7532 56.0236 69.329C55.9104 72.4191 57.7161 74.1161 59.5023 75.8616C64.935 75.1326 67.4739 68.5555 73.2458 69.0617C74.0648 69.5558 75.0125 69.896 75.4337 70.9044C67.9185 76.3031 60.3252 81.5843 52.9153 87.1368C43.8868 93.9003 34.1174 99.5096 25.2567 106.52C24.3285 107.253 23.2989 107.832 21.8559 108.023C19.4301 107.662 16.9731 106.646 14.3796 105.471C10.9282 100.34 7.42599 95.095 3.87311 89.8827C2.93322 88.5057 2.23124 86.7966 0.308556 86.5172C-0.100941 84.233 1.58384 84.0831 3.00343 83.6579C7.2427 84.5813 7.6912 89.7086 11.4976 91.8348C15.7641 90.1095 19.5978 87.3839 23.0454 83.9373C21.852 80.2073 19.4769 77.6801 18.0027 74.6385C17.2188 72.9173 19.1805 72.2288 19.3248 70.8558L19.317 70.8518Z" fill="#515252"></path></svg>