<svg xmlns="http://www.w3.org/2000/svg" width="57" height="52" viewBox="0 0 57 52" fill="none"><path d="M51.4441 33.3823C45.7696 35.0104 40.649 37.9831 35.5283 40.8383C28.6058 44.698 21.2349 47.4479 14.0941 50.7567C13.2049 51.1698 12.1908 51.2954 11.0169 51.6153C7.49136 47.3223 3.77476 43.2359 0.955078 38.3192C4.12966 34.419 9.32045 34.8969 12.2883 31.4868C12.8928 28.6802 12.0154 26.3231 10.6075 24.0956C6.22784 18.7942 6.70751 15.4732 12.4366 12.3992C13.9186 11.6054 15.3694 10.8117 16.6408 9.69792C17.6781 9.03777 18.9261 8.85551 19.9596 8.17512C20.8215 7.76607 21.6249 7.21524 22.596 7.08969C24.2847 6.98035 25.9148 6.68874 27.2174 5.40894C30.6845 3.27459 34.7288 2.8048 38.3948 1.21315C41.1911 -0.0018456 42.7393 1.66269 43.5271 4.34379C45.013 12.8245 49.4434 19.7702 54.2208 26.5418C55.0944 27.7771 55.8706 29.0852 56.6935 30.3569C56.2996 33.9007 53.8426 33.5888 51.448 33.3823H51.4441Z" fill="#333333"></path></svg>