<svg xmlns="http://www.w3.org/2000/svg" width="90" height="66" viewBox="0 0 90 66" fill="none"><path d="M82.3216 2.92595C82.3762 2.10785 82.4269 1.28978 82.4815 0.47168C85.3363 5.47747 87.1147 10.9692 89.1466 16.3436C83.4253 19.0773 78.6673 23.3946 73.3049 26.7197C72.5912 27.6957 73.1177 29.2307 71.9477 30.0042C67.2404 33.8801 62.2095 37.2415 56.8353 40.036C55.4352 40.7731 53.7621 40.4087 52.3776 41.2268C41.0599 49.1647 29.7422 57.1027 18.4167 65.0286C18.0111 65.3121 17.508 65.4417 17.1921 65.5794C11.0691 66.1302 6.70114 63.8014 4.33775 57.9087C3.99455 57.5442 3.65138 57.1797 3.26138 56.8678C2.98448 56.8921 2.70758 56.9002 2.42678 56.8962C1.60779 56.7463 0.874577 56.4264 0.316881 55.75C0.153083 54.8874 0.4456 54.5148 1.31139 54.7537C1.98999 54.0612 2.66467 53.3727 3.34326 52.6802C3.51486 52.5627 3.68646 52.4412 3.85806 52.3197C4.18956 51.7446 4.32215 51.0642 4.70435 50.5093C16.1898 41.2996 27.2462 31.4662 40.1941 24.3869C40.6699 24.3788 41.1379 24.4315 41.602 24.5368C41.836 24.557 42.0739 24.5813 42.3079 24.6056C44.6167 24.3099 45.2758 26.3916 46.4653 27.7119C50.5563 26.5658 51.1998 31.4865 54.3159 32.4666C57.1317 32.1912 59.0856 29.8503 61.5114 28.4531C63.6212 27.2381 65.5595 25.1523 68.3402 26.6994C69.6857 25.6707 71.0312 24.638 72.3767 23.6093C71.6513 20.7338 73.9016 19.7942 75.5356 18.567C77.7781 16.8863 80.4184 15.7685 82.1773 13.5289C83.0353 11.1434 81.7561 9.10627 81.4792 6.95978C81.3076 5.99993 81.292 5.04004 81.5416 4.0883C81.7171 3.63875 81.9784 3.24999 82.3216 2.91789V2.92595Z" fill="#555656"></path></svg>