<svg xmlns="http://www.w3.org/2000/svg" width="43" height="40" viewBox="0 0 43 40" fill="none"><path d="M6.51807 0.932723C7.74266 1.81967 9.11549 2.54863 10.1646 3.62187C18.8693 12.4995 29.6683 18.0034 40.2216 23.9083C41.0913 24.3943 41.883 25.0383 42.7098 25.6093C43.3104 27.7963 41.5632 28.173 40.323 28.8898C35.9823 31.4049 31.5755 33.7903 27.1529 36.1514C26.6888 36.3944 26.2168 36.6051 25.7293 36.7954C24.2512 37.573 22.7498 38.2898 21.2717 39.0634C18.5768 40.4687 16.5098 39.6547 14.8485 37.2045C12.3798 33.5676 10.0553 29.9104 8.46025 25.6782C6.90416 21.5472 4.74357 17.643 2.69998 13.7064C0.457498 9.39312 -0.693009 4.82472 2.68437 0.38188C3.98696 0.37783 5.39098 -0.371375 6.51807 0.932723Z" fill="#333333"></path></svg>