<svg xmlns="http://www.w3.org/2000/svg" width="54" height="42" viewBox="0 0 54 42" fill="none"><path d="M36.5351 36.0889C33.5829 35.1128 31.2117 33.3511 29.6283 30.5363C30.2835 29.3173 29.7726 28.3979 28.9146 27.5677C26.6565 26.4256 24.9249 24.5262 22.8852 23.0763C22.1677 22.5295 21.4111 22.0354 20.674 21.517C18.5719 20.3101 17.0743 18.2689 14.9839 17.0498C14.1766 16.6732 13.4044 16.6287 12.7102 17.3172C11.3257 16.7664 9.93737 16.2115 8.63478 15.6931C6.2831 16.5072 4.9883 18.3378 3.75201 20.1522C2.77311 21.5818 1.87223 23.0114 0.148438 23.5541C2.28172 19.6338 4.69969 15.8429 8.03417 13.012C9.57856 11.6998 9.13789 9.90563 10.2533 8.62583C12.1409 6.45908 13.4161 3.76187 15.5923 1.82597C15.8536 1.46958 16.1539 1.1577 16.4971 0.886349L16.5751 0.813477C23.0101 4.79462 28.6455 9.92594 34.6983 14.4579C40.2167 18.5889 45.6143 22.8981 51.0664 27.1303C51.8698 27.754 52.6732 28.3696 53.1139 29.7223C52.0843 33.2336 49.2452 35.7203 47.3654 38.5472C46.172 38.9725 45.4544 38.4743 44.7095 38.1179C43.5551 38.2475 43.3796 39.4706 42.662 40.0903C42.6464 40.4872 42.6308 40.8841 42.6191 41.281C40.8018 40.0012 38.5827 39.2276 37.5843 36.9313C37.596 36.1658 37.3424 35.7568 36.5351 36.097V36.0889Z" fill="#343333"></path></svg>