<svg xmlns="http://www.w3.org/2000/svg" width="35" height="26" viewBox="0 0 35 26" fill="none"><path d="M17.6711 21.9112C11.7626 17.2456 5.85409 12.584 0.144531 8.07641C0.33173 5.97041 1.56412 5.74769 2.68342 5.52089C6.91489 4.65014 11.1464 3.75508 15.4013 3.03013C20.4556 2.17153 25.5373 1.47897 31.0869 0.640625C33.4815 6.58601 33.1657 13.0701 34.6281 19.141C33.5245 19.8214 32.0737 20.194 32.3779 22.057C32.6431 23.6851 31.8474 24.6571 30.4746 25.2403C26.095 25.9207 22.2418 24.3331 18.5095 22.2352C18.1 22.4904 17.8231 22.385 17.6749 21.9152L17.6711 21.9112Z" fill="#343433"></path></svg>