<svg xmlns="http://www.w3.org/2000/svg" width="81" height="85" viewBox="0 0 81 85" fill="none"><path d="M40.6935 84.07C28.1824 73.3538 15.6752 62.6415 3.16796 51.9212C2.15786 51.0545 0.95278 50.3377 0.738281 48.7987C5.60545 44.2991 9.23629 38.6899 13.382 33.5464C22.0048 22.8422 30.4833 12.0085 39.036 1.24363C39.3363 0.862933 39.8355 0.648303 40.2099 0.376953C43.794 1.79445 76.8189 30.2132 80.3952 35.0125C78.0123 40.0831 73.8705 43.8982 70.5048 48.2965C65.1385 55.3111 59.4992 62.1029 53.9924 69.0041C50.3927 73.5157 46.8086 78.0396 43.2324 82.5715C42.5577 83.4261 41.6919 83.8554 40.6896 84.066L40.6935 84.07Z" fill="#333333"></path></svg>