<svg xmlns="http://www.w3.org/2000/svg" width="51" height="186" viewBox="0 0 51 186" fill="none"><path d="M19.6159 23.145C15.1036 18.1635 11.0788 12.862 8.54385 6.4347C7.09696 2.76946 3.85219 2.59529 0.603516 2.77349C4.79989 -0.85935 7.21006 3.11777 9.95564 5.33312C11.2075 3.57947 8.75056 2.52646 9.47595 1.01581C10.1779 0.359712 11.0125 0.493334 11.8198 0.481184C13.255 1.36003 13.5904 2.9274 13.9921 4.39754C15.1543 8.63384 17.2798 12.2181 20.2906 15.3366C21.7531 16.8513 23.5978 18.4186 22.7047 21.0957C23.3053 22.4686 24.4167 23.3515 25.5165 24.2425C30.996 24.8905 31.6434 29.3131 32.361 33.679C33.2268 35.3517 33.1722 37.4131 34.4046 38.9318H34.4007C34.6971 41.0014 34.3617 43.1884 35.4225 45.1324C38.4216 48.2346 39.4862 51.5881 36.6744 55.4477C36.7134 57.9304 36.573 60.4333 37.431 62.8268C41.1827 68.6426 40.469 75.0092 39.5603 81.4041C39.7124 83.5385 39.5096 85.7295 40.4456 87.7464C43.5656 91.5899 43.8971 94.8866 41.5883 99.0378C41.4908 101.905 41.1242 104.797 42.4151 107.518C43.0274 108.114 43.1366 108.75 42.5633 109.446C42.3254 113.456 42.9377 117.324 44.3417 121.058L44.3495 121.074C44.447 121.71 44.5445 122.341 44.642 122.977C45.7574 124.662 46.1201 126.367 44.7512 128.113C44.6927 129.263 44.8565 130.369 45.3635 131.405C46.0265 131.984 46.1318 132.632 45.5741 133.357C45.968 136.516 45.3479 139.769 46.4126 142.863C46.6934 143.029 46.8026 143.219 46.7402 143.43C46.6739 143.653 46.6037 143.762 46.5218 143.762C46.3385 147.642 46.3268 151.505 47.3564 155.292C48.3353 155.726 49.1075 156.507 49.2518 157.536C49.8758 161.95 50.1058 166.409 50.3554 170.86C50.4256 172.1 49.6223 173.108 48.6668 173.886C48.581 176.972 48.4952 180.058 48.4094 183.14C48.4757 184.493 48.2495 185.59 46.5608 185.376C47.0561 181.435 48.0778 177.519 46.7441 173.44C46.3346 175.732 45.8354 178.017 45.5468 180.325C45.3089 182.241 44.9501 184.015 43.3667 185.254C43.3901 184.566 43.4174 183.877 43.4408 183.185C42.1031 176.182 42.4307 169.261 44.4431 162.432C44.4548 159.577 45.11 156.661 43.6709 153.948C43.3667 153.83 43.238 153.668 43.277 153.462C43.3199 153.231 43.3823 153.113 43.4642 153.113C43.5734 149.89 43.7684 146.658 42.6569 143.543C42.3371 143.393 42.2084 143.211 42.2747 143C42.3449 142.77 42.4268 142.656 42.5204 142.656C42.1109 139.53 43.6631 136.201 41.6117 133.244C38.6439 130.518 37.7936 127.509 40.4612 124.026C40.8395 120.798 40.5275 117.635 39.6189 114.533C38.0901 113.796 37.7001 112.358 37.4115 110.799C36.1986 104.274 35.3601 97.7013 34.8141 91.0796C34.6659 89.2773 34.9662 87.6897 36.4521 86.5435C36.3702 83.7166 36.9395 80.825 35.6994 78.1115C32.7744 76.2971 32.9187 73.215 33.0162 70.3598C33.0942 68.0513 32.7822 65.917 31.9866 63.811C30.7269 57.5861 30.4968 51.2195 29.7051 44.9299C28.8666 38.2838 26.2341 32.8123 21.757 28.1589C20.7196 26.6401 20.4232 24.7771 19.6198 23.149L19.6159 23.145Z" fill="#DFBC62"></path></svg>