<svg xmlns="http://www.w3.org/2000/svg" width="219" height="264" viewBox="0 0 219 264" fill="none"><path d="M44.5385 263.006C43.8677 263.014 43.1969 263.018 42.5222 263.026C41.8865 262.127 40.779 261.52 40.8999 260.159C41.2197 258.595 40.2056 258.203 39.0707 257.915C35.4516 257.87 34.0281 254.347 31.4112 252.715C29.9838 251.16 29.313 249.171 28.9581 247.175C28.2717 243.303 27.831 239.378 27.3669 235.466C27.2031 234.089 27.3982 232.716 28.3731 231.614C31.9377 235.66 31.9026 241.375 34.5273 245.899C35.9118 248.284 36.8478 250.828 40.2368 250.961C41.2508 240.464 39.1917 230.278 39.2463 220.671C38.3415 218.015 35.514 218.788 34.9368 216.629C35.1201 213.973 34.9836 211.316 35.0499 208.667C35.5959 206.286 37.308 208.671 38.2947 207.784C38.5989 202.325 38.4935 196.853 36.9608 191.779C36.2277 189.705 34.0905 190.616 33.1428 189.333C31.2825 185.906 32.0274 182.277 32.3511 178.689C35.2605 175.311 35.475 179.491 37.2105 180.58C37.6316 177.66 38.8562 174.943 38.1426 171.816C34.8432 172.1 36.1185 177.154 32.6943 176.931C29.7849 174.635 31.4424 171.419 31.1304 168.609C31.3956 167.592 31.965 166.815 32.9049 166.357C32.5851 165.96 32.0664 165.968 31.6608 165.697C30.6078 164.85 30.3816 163.737 30.6078 162.465C31.4112 160.849 32.4213 159.249 30.8691 157.5C30.678 156.928 30.6234 156.341 30.7638 155.778C30.9822 154.875 29.9877 154.924 29.6835 154.385C28.8645 150.93 27.2655 147.577 28.6344 143.912C32.082 141.571 31.9338 146.103 33.8019 146.804C35.6349 147.553 37.3392 147.298 39.1527 145.783C39.8703 143.203 39.3788 140.676 37.8033 138.452C36.3213 137.359 34.8783 137.452 32.5617 138.157C31.3254 138.465 31.3956 142.195 28.4706 141.494C26.1346 139.161 27.0978 136.322 27.3201 133.596C30.4167 129.38 35.2293 131.025 39.2346 129.923C41.2664 129.364 43.5479 130.186 45.8099 128.886C46.7849 125.092 45.4238 121.73 43.5323 117.959C37.8735 119 32.1795 119.43 26.8755 121.949C24.4029 120.434 24.9412 118.126 25.3546 115.849C25.573 115.351 25.8966 114.922 26.2983 114.566C31.2318 112.302 37.1052 113.403 41.9528 110.066C41.8514 107.45 41.7617 104.939 40.3617 102.703C37.5576 101.553 35.1357 103.594 32.5305 103.424C31.7739 103.363 31.0329 103.238 30.3426 102.885C29.2701 102.14 28.4979 101.148 28.1001 99.8641C29.0751 95.1783 34.2855 96.7618 36.3564 93.4044C32.1171 94.8867 28.2913 98.1469 23.4553 96.9278C21.2986 95.0203 22.0162 92.5903 22.3126 90.2332C26.2437 87.544 27.3163 84.1582 24.5161 79.7032C23.8258 78.9175 22.726 79.7964 21.8173 79.3954C19.6762 78.3384 20.0545 76.3134 20.0389 74.4504C20.0194 73.9036 19.9804 73.3447 19.723 72.8223C18.9781 71.3157 18.2137 69.8172 18.3853 68.0393C18.9352 65.6093 18.4672 63.2076 17.4766 61.1097C16.4821 58.9996 14.6569 57.7927 12.1844 58.9875C10.2188 58.6756 9.09169 57.5214 8.87329 55.4478C10.2539 53.0907 9.02145 51.3978 7.71106 49.5065C4.11918 44.3306 1.48672 38.6687 0.519531 32.2859C1.13183 30.3217 2.50071 29.3618 4.4156 29.1391C7.24308 31.8647 7.3913 35.9755 9.25938 39.2073C10.8545 41.9654 11.6656 45.2337 14.2981 47.607C17.9641 45.9222 18.9508 41.9573 21.3688 39.7541C21.1972 33.5211 16.5445 28.9285 17.5975 22.9466C18.3385 22.1204 19.2706 21.7398 20.3392 21.6669C24.5121 23.3193 23.9116 28.3331 27.0004 31.7432C31.8441 25.6399 36.9336 19.9942 39.5232 12.4652C39.9405 12.2101 40.3343 11.8537 40.7867 11.7282C41.243 11.5986 41.7539 11.6998 42.2804 11.6998C43.3178 12.3559 42.3974 14.7049 44.4605 14.5146C46.1219 16.0049 44.5931 18.2162 45.8567 20.3182C48.0251 22.5173 50.8409 21.8936 54.0662 20.9459C54.7604 15.0168 53.9218 8.94985 55.7392 3.21506C56.6986 1.82186 58.0168 0.914687 59.5066 0.250488C61.6126 1.47359 61.9168 3.64439 61.5697 5.67343C59.8576 15.6769 62.4394 25.6115 61.8388 35.6069C61.4956 41.2809 61.7101 47.0036 61.8271 52.702C61.8544 54.083 61.9168 55.4802 63.1648 57.0192C66.4993 58.8822 70.567 57.7644 73.9599 58.2504C76.0893 57.7563 76.5378 55.9784 77.7624 55.1076C79.7592 54.0911 81.167 54.8444 82.2005 56.7073C81.9587 59.6517 83.039 62.6892 81.6936 65.5728C81.2217 66.3099 80.5821 66.8323 79.7865 67.1401C74.1627 65.9697 68.5234 64.8519 62.8372 65.8198C60.8326 68.7318 60.8209 71.8341 60.6844 74.9323C60.5791 77.2894 60.9808 79.8774 58.4887 81.384C55.552 80.0637 57.9817 76.2688 55.6184 74.6893C53.645 72.2836 55.1854 68.9546 53.7034 66.4112C51.1373 65.1273 48.9026 65.8118 46.6757 67.1604C46.4105 70.0319 47.3114 72.2836 48.8714 74.2722C51.2816 75.151 53.9959 73.4338 56.0707 75.5439C57.1627 77.3461 57.5254 79.2132 56.5153 81.1977C55.7821 82.2426 54.3742 80.3512 53.7892 81.9105C53.9452 82.5018 53.9258 83.0728 53.918 83.6115C53.8283 83.9314 53.7932 84.1906 53.8205 84.3729C54.0857 83.6722 54.2806 82.8946 55.2556 82.9635C56.7415 83.5831 56.9248 84.9318 57.0223 86.329C57.4123 91.3145 54.7682 93.5461 50.4002 94.2144C45.9386 91.4887 46.2428 86.1468 44.5775 82.8136C46.0985 85.6243 45.806 90.1927 49.0625 93.0925C49.8386 93.9511 50.6537 94.7854 50.9774 95.968C51.3362 97.1587 50.6459 98.2076 50.4041 99.941C50.8058 97.9322 51.5234 96.5917 51.1412 95.0851C52.8377 93.8093 54.304 92.0395 56.7103 92.2946C58.5862 93.7243 57.7243 96.1786 58.7227 98.151C61.8973 100.216 65.5477 101.099 70.1301 101.95C72.201 94.0686 75.4458 86.7502 73.1877 78.4315C74.1588 76.3741 75.7929 75.9975 77.7624 76.4794C81.834 80.7238 80.6367 86.001 80.1453 91.0027C79.8294 94.2103 78.6789 97.3207 78.3396 100.293C79.6539 95.9761 80.8122 91.3713 80.5821 86.491C80.4924 84.5592 80.7536 82.6678 82.883 81.8416C86.3033 83.8909 85.3205 87.8113 86.4749 90.8326C86.7557 96.8063 84.8057 102.407 83.7839 108.171C83.4524 109.256 82.8284 110.111 81.9197 110.738C78.1797 112.176 74.7828 110.07 71.2182 109.588C69.1045 109.301 67.1115 108.195 64.6663 108.41C62.884 112.638 63.8317 116.789 64.1125 122.143C71.8695 118.713 80.6171 120.653 86.0576 112.958C86.9702 112.48 87.8906 112.622 88.8032 112.925C90.2306 113.464 90.8507 112.82 91.1276 111.366C91.4279 109.787 91.9895 108.377 94.0331 109.106C95.7101 113.703 99.0835 117.603 99.2824 122.807C98.3542 123.945 96.9931 124.654 96.2482 126.003C93.8186 126.424 92.9723 123.957 90.9131 122.84C87.1067 123.022 83.1873 123.978 79.3224 125.93C79.7631 129.21 81.6546 131.353 83.2653 133.641C87.2666 134.03 89.3999 129.98 92.9528 129.737C94.7936 130.332 96.8605 130.523 97.8706 132.637C95.7724 136.877 90.7376 137.14 87.5162 140.506C90.3515 143.073 93.0542 142.385 95.6671 141.62C96.9151 139.481 95.6672 137.254 96.6266 135.362C96.9269 134.228 98.5765 133.925 98.0539 131.446C97.8394 130.567 95.1407 131.231 94.8716 129.154C94.6844 127.712 95.2148 126.626 96.3848 125.857C97.2428 124.921 97.8823 123.702 99.2902 123.492C102.816 126.894 106.872 126.185 111.294 125.999C120.077 125.63 128.821 124.569 137.615 124.529C139.71 124.52 141.96 125.051 144.218 123.054C143.255 113.942 140.029 105.465 135.295 97.5313C134.511 96.697 133.887 95.6805 132.818 95.1621C132.171 94.9029 131.637 94.4978 131.262 93.8822C130.693 91.5778 131.761 89.3422 131.531 87.0378C131.598 86.5477 131.746 86.0901 131.952 85.6527C132.506 84.8548 133.072 84.0691 133.688 83.3158C134.066 82.9959 134.503 82.8217 134.987 82.7569C137.635 83.1538 138.091 86.2237 140.423 87.4792C143.368 86.9082 146.039 85.3408 149.171 82.7569C143.219 75.1227 138.785 66.4841 131.793 60.1904C129.273 60.5144 127.885 62.4462 125.798 62.5232C122.69 62.2599 120.834 61.0004 121.992 57.3554C122.838 55.9703 124.8 56.3105 125.611 54.8484C125.108 49.7252 123.841 48.8504 119.141 50.3732C116.766 49.4093 116.844 47.4329 117.218 45.3471C117.776 44.3833 118.923 43.6583 118.342 42.0342C118.634 43.3788 118.174 44.2536 117.429 45.0191C116.852 45.5253 116.189 45.6144 115.471 45.4848C112.874 44.3265 112.332 41.7305 111.415 39.3531C110.148 36.0645 109.73 32.3345 107.215 29.8438C102.683 28.3291 99.6217 32.051 95.8114 32.6018C93.9082 31.4557 93.7952 29.702 94.2632 27.7459C95.3903 24.4452 99.1342 24.6557 101.096 22.5781C100.757 19.654 98.6467 18.9412 96.9814 18.0866C95.1913 17.552 94.1657 19.6094 92.5667 18.9493C90.3008 16.5314 90.6791 14.0366 92.3483 11.4973C97.1803 8.92958 100.495 12.2141 103.982 14.7899C105.577 15.9685 106.384 18.0948 108.658 19.1275C115.467 12.8136 123.185 8.41526 132.615 8.23301C133.579 8.59751 134.347 9.205 134.854 10.1446C134.967 13.7086 132.116 14.0852 129.878 14.9033C125.018 16.6813 120.058 18.1757 116.239 22.0921C115.187 23.1694 113.818 23.9511 113.392 26.2271C119.332 33.9667 125.451 42.0342 131.925 49.3161C136.734 50.0532 140.103 44.5533 144.713 47.3924C145.029 47.7731 145.22 48.2186 145.318 48.7127C144.842 53.2163 140.263 53.1839 137.799 55.9257C139.047 58.781 141.234 60.8141 143.317 63.1468C147.049 62.5879 150.548 61.8752 152.256 57.7968C152.969 56.8208 153.27 55.5207 154.401 54.8808C157.388 54.8039 157.841 57.1731 158.184 59.3844C158.624 62.2316 157.326 64.3295 155.118 66.0062C153.133 67.5168 150.267 67.5168 148.672 70.1898C150.493 73.7943 152.767 77.0545 156.191 79.7073C162.224 77.5405 168.125 75.3009 173.76 72.3201C178.659 69.7281 183.534 67.0835 188.545 64.7385C190.928 63.6248 193.443 62.2397 196.072 64.293C196.524 64.9248 196.715 65.6417 196.692 66.4233C196.064 69.6107 193.502 70.5989 191.068 71.7207C185.905 74.094 180.62 76.1878 175.644 78.9864C174.213 79.7923 172.512 80.2783 171.685 82.4005C174.049 90.9825 179.029 98.6005 181.853 106.494C183.713 107.555 184.914 107.263 185.924 106.741C193.654 102.76 202.058 100.382 209.566 95.8465C211.734 94.5383 214.023 92.404 216.859 94.591C217.732 95.4577 218.232 96.5229 218.411 97.7581C216.196 101.01 212.779 102.488 209.476 103.991C202.952 106.968 196.505 110.147 189.871 112.852C187.667 113.752 185.983 114.78 186.314 117.579C186.158 118.34 186.271 119.045 186.841 119.64C188.291 122.103 189.723 124.561 190.292 127.42C190.222 128.226 190.6 128.769 191.298 129.129C193.506 133.386 195.623 137.667 196.704 142.401C196.891 143.499 197.452 144.398 198.131 145.24C200.974 150.072 203.033 155.337 205.802 160.209C203.431 160.922 201.056 161.639 198.685 162.351C193.252 149.468 187.18 136.885 181.919 123.921C181.154 122.034 180.651 119.993 178.292 118.551C171.05 122.576 163.07 125.395 155.395 128.923C154.763 129.397 154.315 129.988 154.346 130.875C157.092 142.231 160.118 153.482 163.152 164.725C165.048 171.747 164.014 179.147 166.448 186.003C164.911 188.413 163.246 185.906 161.651 186.137C158.831 184.408 158.886 181.362 158.199 178.539C157.599 176.081 158.075 173.339 156.222 170.686C148.094 171.124 139.944 172.557 131.258 174.712C133.965 178.248 137.385 179.734 140.01 182.18C142.034 184.068 144.955 185.242 145.088 188.729C144.725 189.891 144.596 191.151 143.766 192.115C141.5 193.447 140.025 191.71 138.512 190.527C134.667 187.53 130.736 184.663 126.824 181.763C125.307 180.637 123.844 178.843 120.861 180.103C121.668 187.611 125.674 193.787 128.926 200.948C134.355 198.36 140.041 197.518 143.457 192.244C144.815 191.422 144.565 189.43 145.926 188.608C150.165 188.506 154.147 189.292 157.497 192.24C156.004 194.156 153.8 192.929 151.725 193.625C152.314 195.164 154.151 194.302 154.806 195.533C155.224 196.78 154.354 198.052 154.483 199.397C154.186 199.814 153.788 200.053 153.305 200.146C145.193 198.579 139.487 204.289 132.92 206.496C132.44 211.36 135.634 214.349 135.517 218.193C134.491 219.42 133.169 220.117 131.68 220.513C127.951 218.731 128.216 214.046 125.389 211.247C121.216 211.267 117.936 213.977 114.235 215.475C113.79 220.922 118.096 224.13 118.7 228.69C117.117 229.954 115.733 231.541 113.662 232.011C109.906 226.511 107.96 220.048 104.797 214.025C103.19 214.062 102.944 216.374 101.427 216.415C99.7309 216.958 98.2801 215.078 95.9089 216.257C98.3581 223.64 100.881 230.877 105.76 237.005C104.391 238.661 102.668 239.694 100.616 240.148C95.5229 232.4 93.1985 223.3 89.2595 214.985C88.3118 212.988 87.5396 210.878 86.5919 208.87C89.9147 216.334 92.9957 223.911 96.1274 231.461C96.689 232.813 98.2723 234.437 96.377 236.069C95.831 236.385 95.2849 236.701 94.7389 237.017C91.7984 237.612 91.2056 235.146 90.254 233.238C86.8142 226.317 84.0608 219.063 80.7887 212.061C79.9931 210.356 79.5836 208.44 77.4309 207.286C73.4607 207.594 69.8259 209.343 66.2809 212.397C70.524 221.246 70.2121 230.804 70.836 240.225C71.1831 245.49 73.2033 250.2 75.7188 254.703C74.2251 256.02 72.3297 256.169 70.5357 256.619C65.4268 253.096 64.9588 247.32 64.6156 241.914C64.2529 236.223 63.3091 230.59 63.2701 224.871C63.2467 221.457 62.104 218.448 59.1361 216.046C55.244 216.342 51.1061 215.884 46.9721 217.188C44.9324 221.194 45.4628 225.454 46.0829 229.415C47.1866 236.45 46.391 243.562 47.483 250.597C48.1538 254.93 45.8177 258.932 44.5619 263.01L44.5385 263.006Z" fill="#535454"></path></svg>