<svg xmlns="http://www.w3.org/2000/svg" width="118" height="37" viewBox="0 0 118 37" fill="none"><path d="M1.70496 20.602C1.98102 20.6291 2.23004 20.4288 2.26252 20.1527C2.26252 20.1311 2.26252 20.1148 2.26252 20.0932C2.26252 19.7846 2.0135 19.5356 1.70496 19.5356C1.39641 19.5356 1.14746 19.7846 1.14746 20.0932C1.14746 20.3747 1.37478 20.602 1.65626 20.602C1.6725 20.602 1.68872 20.602 1.71038 20.602H1.70496Z" fill="#158285"></path><path d="M3.18933 20.602C3.4654 20.6291 3.71442 20.4288 3.74689 20.1527C3.74689 20.1311 3.74689 20.1148 3.74689 20.0932C3.74689 19.7846 3.49788 19.5356 3.18933 19.5356C2.88079 19.5356 2.63184 19.7846 2.63184 20.0932C2.63184 20.3747 2.85915 20.602 3.14063 20.602C3.15687 20.602 3.1731 20.602 3.19475 20.602H3.18933Z" fill="#158285"></path><path d="M4.50385 26.0963C4.21696 26.0747 3.96794 26.2858 3.94629 26.5673C3.94629 26.5781 3.94629 26.5889 3.94629 26.5997C3.94629 26.9083 4.19531 27.1573 4.50385 27.1573C4.8124 27.1573 5.06141 26.9083 5.06141 26.5997C5.06141 26.3129 4.81784 26.0855 4.53636 26.0909C4.52553 26.0909 4.51468 26.0909 4.50385 26.0909V26.0963Z" fill="#158285"></path><path d="M5.9657 26.0967C5.67881 26.0751 5.42986 26.2862 5.4082 26.5677C5.4082 26.5785 5.4082 26.5893 5.4082 26.6001C5.4082 26.9087 5.65715 27.1577 5.9657 27.1577C6.27424 27.1577 6.52326 26.9087 6.52326 26.6001C6.52326 26.3187 6.28511 26.0913 6.00363 26.0913C5.9928 26.0913 5.97653 26.0913 5.9657 26.0913V26.0967Z" fill="#158285"></path><path d="M9.42962 23.3415C9.38632 22.7677 9.81396 22.2697 10.3877 22.2264C10.431 22.2264 10.4743 22.2264 10.5122 22.2264C10.8911 22.2426 11.2592 22.3346 11.5948 22.5079L11.8763 21.6851C11.4271 21.474 10.9344 21.3549 10.4364 21.3332C9.48374 21.2574 8.65558 21.9611 8.57438 22.9138C8.56897 23.0059 8.56897 23.0979 8.57438 23.1845C8.59062 23.6392 8.68806 24.0831 8.85587 24.5053H6.9613V21.3874H6.07896V24.5107H3.6972V21.3874H2.27356C0.904055 21.3874 9.91725e-05 22.2264 9.91725e-05 23.401C-0.010727 24.4945 0.866187 25.393 1.95963 25.4038C2.02458 25.4038 2.08953 25.4038 2.15449 25.3984H12.0442V24.5053H9.84644C9.59744 24.1643 9.45669 23.7637 9.43504 23.3469L9.42962 23.3415ZM2.8257 24.5107H2.07328C1.45078 24.5702 0.89321 24.1101 0.833667 23.4876C0.833667 23.4551 0.833667 23.4227 0.833667 23.3956C0.833667 22.7731 1.33712 22.2697 1.95963 22.2697C1.99752 22.2697 2.04081 22.2697 2.0787 22.2751H2.83112V24.5107H2.8257Z" fill="#158285"></path><path d="M19.9257 20.7807C20.2018 20.8078 20.4508 20.6075 20.4833 20.3315C20.4833 20.3098 20.4833 20.2936 20.4833 20.2719C20.4833 19.9634 20.2343 19.7144 19.9257 19.7144C19.6172 19.7144 19.3682 19.9634 19.3682 20.2719C19.3682 20.5534 19.5956 20.7807 19.8824 20.7807C19.8987 20.7807 19.9149 20.7807 19.9311 20.7807H19.9257Z" fill="#158285"></path><path d="M21.4033 20.7804C21.6847 20.802 21.9283 20.5963 21.95 20.3149C21.9716 20.0334 21.766 19.7898 21.4845 19.7681C21.4574 19.7681 21.4303 19.7681 21.4033 19.7681C21.1164 19.7465 20.8674 19.9576 20.8457 20.2391C20.8457 20.2499 20.8457 20.2607 20.8457 20.2715C20.8457 20.553 21.0731 20.7804 21.36 20.7804C21.3762 20.7804 21.3924 20.7804 21.4087 20.7804H21.4033Z" fill="#158285"></path><path d="M25.4035 21.2951C24.8893 21.3113 24.3859 21.4521 23.9366 21.7065L24.256 22.5184C24.5753 22.2965 24.9542 22.1828 25.344 22.1882C26.4158 22.1882 26.6215 23.4332 27.2223 24.5159H22.7241V21.3925H21.8418V24.5159H19.4492V23.4332C19.4492 22.1558 18.6643 21.3005 17.495 21.3005C16.315 21.3005 15.5409 22.1503 15.5409 23.4278V23.4116C15.5409 24.1748 15.1729 24.5159 14.4692 24.5159H13.8521V19.7632H12.9697V25.4036H14.4692C15.0375 25.4848 15.6059 25.2304 15.9252 24.754C16.3096 25.225 16.905 25.4685 17.5113 25.4036H28.4078V24.5159C27.5634 24.1424 27.5471 21.3005 25.3981 21.3005L25.4035 21.2951ZM18.5722 24.5159H17.4896C16.9429 24.5646 16.4557 24.1586 16.407 23.6119C16.4016 23.5469 16.4016 23.482 16.407 23.417C16.3366 22.8162 16.7697 22.2694 17.3706 22.1991C17.4084 22.1991 17.4517 22.1936 17.4896 22.1936C18.0905 22.1936 18.5777 22.6862 18.5722 23.2925C18.5722 23.3358 18.5722 23.3791 18.5614 23.417V24.5104L18.5722 24.5159Z" fill="#158285"></path><path d="M25.9664 26.0963C25.6795 26.118 25.4684 26.367 25.4955 26.6539C25.5172 26.9408 25.7662 27.1519 26.0531 27.1248C26.34 27.1032 26.5511 26.8542 26.524 26.5673C26.5132 26.4374 26.4536 26.3129 26.3562 26.2262C26.2479 26.1288 26.1072 26.0801 25.9664 26.0963Z" fill="#158285"></path><path d="M32.6253 24.5109H29.4912V25.404H33.5077V19.769H32.6253V24.5163V24.5109Z" fill="#158285"></path><path d="M31.3204 20.3208H30.4326V24.0396H31.3204V20.3208Z" fill="#158285"></path><path d="M35.5415 19.769H34.6592V25.404H35.5415V19.769Z" fill="#158285"></path><path d="M38.6816 20.0932C38.6816 20.4017 38.9307 20.6507 39.2392 20.6507C39.5477 20.6507 39.7967 20.4017 39.7967 20.0932C39.7967 19.7846 39.5477 19.5356 39.2392 19.5356C38.9307 19.5356 38.6816 19.7846 38.6816 20.0932Z" fill="#158285"></path><path d="M40.1602 20.0932C40.1602 20.4017 40.4092 20.6507 40.7177 20.6507C41.0263 20.6507 41.2753 20.4017 41.2753 20.0932C41.2753 19.7846 41.0263 19.5356 40.7177 19.5356C40.4092 19.5356 40.1602 19.7846 40.1602 20.0932Z" fill="#158285"></path><path d="M42.0107 26.0963C41.7238 26.0747 41.4748 26.2858 41.4531 26.5673C41.4531 26.5781 41.4531 26.5889 41.4531 26.5997C41.4531 26.9083 41.7021 27.1573 42.0107 27.1573C42.3192 27.1573 42.5682 26.9083 42.5682 26.5997C42.5682 26.3129 42.3246 26.0855 42.0431 26.0909C42.0323 26.0909 42.0215 26.0909 42.0107 26.0909V26.0963Z" fill="#158285"></path><path d="M43.4941 26.0967C43.2072 26.0751 42.9582 26.2862 42.9365 26.5677C42.9365 26.5785 42.9365 26.5893 42.9365 26.6001C42.9365 26.9087 43.1855 27.1577 43.4941 27.1577C43.8026 27.1577 44.0516 26.9087 44.0516 26.6001C44.0516 26.3187 43.8134 26.0913 43.5319 26.0913C43.5211 26.0913 43.5049 26.0913 43.4941 26.0913V26.0967Z" fill="#158285"></path><path d="M51.3979 20.786C51.6793 20.813 51.9284 20.6073 51.9554 20.3313C51.9554 20.3096 51.9554 20.2934 51.9554 20.2717C51.9825 19.9632 51.7497 19.6925 51.4411 19.6709C51.1326 19.6492 50.8619 19.8766 50.8403 20.1851C50.8186 20.4937 51.046 20.7643 51.3546 20.786C51.3708 20.786 51.3816 20.786 51.3979 20.786Z" fill="#158285"></path><path d="M54.3632 19.7687C54.0763 19.747 53.8273 19.9581 53.8057 20.2396C53.8057 20.2504 53.8057 20.2613 53.8057 20.2721C53.8057 20.5806 54.0547 20.8297 54.3632 20.8297C54.6718 20.8297 54.9208 20.5806 54.9208 20.2721C54.9208 19.9852 54.6772 19.7579 54.3957 19.7633C54.3849 19.7633 54.3741 19.7633 54.3632 19.7633V19.7687Z" fill="#158285"></path><path d="M55.3587 20.2715C55.3316 20.5801 55.5536 20.8507 55.8621 20.8832C56.1707 20.9103 56.4413 20.6884 56.4738 20.3798C56.5009 20.0713 56.2789 19.8006 55.9704 19.7681C55.9541 19.7681 55.9379 19.7681 55.9217 19.7681C55.6348 19.7465 55.3857 19.9576 55.3641 20.2391C55.3641 20.2499 55.3641 20.2607 55.3641 20.2715H55.3587Z" fill="#158285"></path><path d="M59.2299 24.5109H57.3787V21.3876H56.4964V24.5109H53.8169V21.3876H52.9345V24.5109H50.4174V23.4283C50.4174 22.1508 49.6325 21.2955 48.4633 21.2955C47.2833 21.2955 46.5092 22.1454 46.5092 23.4229V23.4066C46.5092 24.1699 46.1411 24.5109 45.4429 24.5109H44.5443V21.3876H43.6295V24.5109H41.2423V21.3876H39.797C38.4275 21.3876 37.5235 22.2266 37.5235 23.4012C37.5127 24.4947 38.3896 25.3932 39.4831 25.404C39.548 25.404 39.613 25.404 39.6779 25.3986H45.4103C45.9787 25.4798 46.5471 25.2254 46.8665 24.7491C47.2508 25.22 47.8462 25.4636 48.4525 25.3986H60.1177V19.769H59.2353V24.5163L59.2299 24.5109ZM40.3437 24.5109H39.5967C38.9742 24.5704 38.4167 24.1103 38.3572 23.4878C38.3572 23.4553 38.3572 23.4229 38.3572 23.3958C38.3572 22.7733 38.866 22.2699 39.4885 22.2699C39.5264 22.2699 39.5642 22.2699 39.6021 22.2753H40.3491V24.5109H40.3437ZM49.5243 24.5109H48.4417C47.895 24.5596 47.4078 24.1536 47.3591 23.6069C47.3537 23.5419 47.3537 23.477 47.3591 23.412C47.2887 22.8112 47.7217 22.2645 48.3226 22.1941C48.3605 22.1941 48.4038 22.1887 48.4417 22.1887C49.0426 22.1887 49.5297 22.6813 49.5297 23.2821C49.5297 23.3254 49.5297 23.3687 49.5243 23.412V24.5055V24.5109Z" fill="#158285"></path><path d="M62.1372 19.769H61.2549V25.404H62.1372V19.769Z" fill="#158285"></path><path d="M65.1623 21.3872C63.7928 21.3872 62.8888 22.2262 62.8888 23.4009C62.8779 24.4943 63.7549 25.3929 64.8483 25.4037C64.9133 25.4037 64.9782 25.4037 65.0432 25.3983H65.7144C65.6927 25.8855 65.3517 26.037 64.8754 26.037C64.4802 26.037 64.0851 25.9721 63.7116 25.8476L63.8902 26.7894C64.2258 26.8815 64.5668 26.9302 64.9133 26.9248C66.0446 26.9248 66.613 26.508 66.613 25.1655V21.3872H65.1623ZM65.7198 23.3738V24.5105H64.9728C64.3503 24.5701 63.7928 24.11 63.7332 23.4875C63.7332 23.455 63.7332 23.4225 63.7332 23.3955C63.7332 22.7729 64.2421 22.2695 64.8646 22.2695C64.9024 22.2695 64.9403 22.2695 64.9782 22.2749H65.7252V23.3738H65.7198Z" fill="#158285"></path><path d="M46.2984 14.3719C46.2984 13.0998 45.7138 12.4448 44.4147 12.4448H43.7976V13.3272H44.5392C45.1508 13.3272 45.4648 13.6411 45.4648 14.2853V15.5682H43.0127V16.4559H46.2984V14.3665V14.3719Z" fill="#158285"></path><path d="M48.5441 16.2989V12.4448H47.651V16.4451C47.651 17.0026 47.3912 17.1867 47.0177 17.1867C46.8336 17.1867 46.6875 17.1704 46.4601 17.1542L46.3789 17.9283C46.563 17.9716 46.7524 17.9932 46.9365 17.9878C47.8838 17.9878 48.5441 17.6143 48.5441 16.2989Z" fill="#158285"></path><path d="M50.4556 10.8267H49.5732V16.4617H50.4556V10.8267Z" fill="#158285"></path><path d="M53.3612 16.4611H54.0324C54.0107 16.9482 53.6697 17.0998 53.1933 17.0998C52.7982 17.0998 52.4031 17.0348 52.0241 16.9103L52.2082 17.8522C52.4788 17.9442 52.7603 17.993 53.0472 17.9875C54.1082 17.9875 54.8497 17.6194 54.9147 16.4611H56.8039C57.3452 16.526 57.8811 16.277 58.1788 15.8169C58.5631 16.2878 59.1585 16.5314 59.7648 16.4665H64.4525V10.8423H63.5702V15.595H61.7297V14.5123C61.7297 13.2349 60.9449 12.3796 59.7756 12.3796C58.5956 12.3796 57.8215 13.2186 57.8215 14.5069V14.4907C57.8215 15.2539 57.4534 15.6112 56.7497 15.6112H54.9526V12.4554H53.5073C52.1378 12.4554 51.2338 13.2944 51.2338 14.469C51.2121 15.6491 52.0837 16.4719 53.3666 16.4719L53.3612 16.4611ZM58.6713 14.469C58.601 13.8682 59.0286 13.3215 59.6295 13.2511C59.6728 13.2511 59.7107 13.2457 59.754 13.2457C60.3548 13.2457 60.842 13.7383 60.8366 14.3445C60.8366 14.3878 60.8366 14.4312 60.8258 14.469V15.5679H59.7432C59.1965 15.622 58.7093 15.216 58.6606 14.6693C58.6552 14.6044 58.6552 14.5394 58.6606 14.469H58.666H58.6713ZM52.0403 14.469C52.0403 13.8465 52.5438 13.3431 53.1663 13.3431C53.2042 13.3431 53.2475 13.3431 53.2854 13.3485H54.0324V14.469V15.6058H53.2908C52.6683 15.6653 52.1107 15.2052 52.0512 14.5827C52.0512 14.5502 52.0512 14.5178 52.0512 14.4907L52.0403 14.469Z" fill="#158285"></path><path d="M66.478 10.8267H65.5957V16.4617H66.478V10.8267Z" fill="#158285"></path><path d="M18.1395 11.6596C18.4156 11.6867 18.6646 11.4864 18.6971 11.2103C18.6971 11.1941 18.6971 11.1724 18.6971 11.1562C18.6971 10.8476 18.4481 10.5986 18.1395 10.5986C17.831 10.5986 17.582 10.8476 17.582 11.1562C17.582 11.4377 17.8093 11.665 18.0908 11.665C18.1071 11.665 18.1233 11.665 18.1395 11.665V11.6596Z" fill="#158285"></path><path d="M16.6669 11.6596C16.943 11.6867 17.192 11.4864 17.2245 11.2103C17.2245 11.1941 17.2245 11.1724 17.2245 11.1562C17.2245 10.8476 16.9755 10.5986 16.6669 10.5986C16.3584 10.5986 16.1094 10.8476 16.1094 11.1562C16.1094 11.4377 16.3368 11.665 16.6182 11.665C16.6345 11.665 16.6507 11.665 16.6669 11.665V11.6596Z" fill="#158285"></path><path d="M17.0945 16.4613H21.9283V12.4502H21.0461V15.5735H18.6589V12.4502H17.219C15.8495 12.4502 14.9455 13.2892 14.9455 14.4639C14.9293 15.5573 15.8062 16.4559 16.8996 16.4721C16.9646 16.4721 17.0296 16.4721 17.0999 16.4667L17.0945 16.4613ZM15.7791 14.4584C15.7791 13.8359 16.288 13.3325 16.9105 13.3325C16.9484 13.3325 16.9862 13.3325 17.0241 13.3379H17.7711V15.5735H17.0187C16.3962 15.6331 15.8386 15.173 15.7791 14.5505C15.7791 14.518 15.7791 14.4909 15.7791 14.4584Z" fill="#158285"></path><path d="M29.8043 11.1999C30.0641 11.2269 30.2914 11.0375 30.3185 10.783C30.3185 10.7668 30.3185 10.7506 30.3185 10.7343C30.3455 10.4474 30.1398 10.193 29.853 10.166C29.5661 10.1389 29.3117 10.3446 29.2846 10.6315C29.2576 10.9184 29.4632 11.1728 29.7501 11.1999C29.7664 11.1999 29.7826 11.1999 29.7988 11.1999H29.8043Z" fill="#158285"></path><path d="M29.0897 12.3149C29.3604 12.2932 29.566 12.055 29.5444 11.7844C29.5227 11.5137 29.2846 11.308 29.0139 11.3297C28.7433 11.3513 28.5375 11.5895 28.5592 11.8602C28.57 11.9847 28.6242 12.0984 28.7162 12.185C28.819 12.277 28.9544 12.3257 29.0897 12.3149Z" fill="#158285"></path><path d="M29.9886 11.8221C29.9615 12.1144 30.1781 12.3797 30.4758 12.4067C30.7681 12.4338 31.0334 12.2173 31.0605 11.9196C31.0875 11.6273 30.871 11.362 30.5733 11.335C30.557 11.335 30.5407 11.335 30.5245 11.335C30.2538 11.3079 30.0157 11.5082 29.9886 11.7788C29.9886 11.7951 29.9886 11.8059 29.9886 11.8221Z" fill="#158285"></path><path d="M38.9307 10.8423H38.0484V15.595H36.3162V12.45H35.4339V15.5733H33.0467V12.45H32.1644V15.5733H30.3077V13.0075H29.42V15.5733H27.8123V13.0075H26.93V15.5733H24.651V12.3634H23.7633V16.4448C23.7633 17.0024 23.5035 17.1864 23.13 17.1864C22.9459 17.1864 22.7944 17.1702 22.5724 17.1539L22.4912 17.928C22.6753 17.9713 22.8593 17.993 23.0488 17.9875C23.9528 17.9875 24.6131 17.6411 24.651 16.4611H38.9415L38.9307 10.8423Z" fill="#158285"></path><path d="M40.9614 10.8267H40.0791V16.4617H40.9614V10.8267Z" fill="#158285"></path><path d="M19.9364 17.663C19.9364 17.3545 19.6874 17.1055 19.3789 17.1055C19.0703 17.1055 18.8213 17.3545 18.8213 17.663C18.8213 17.9716 19.0703 18.2206 19.3789 18.2206C19.6874 18.2206 19.9364 17.9716 19.9364 17.663Z" fill="#158285"></path><path d="M21.4139 17.663C21.4139 17.3545 21.1649 17.1055 20.8563 17.1055C20.5478 17.1055 20.2988 17.3545 20.2988 17.663C20.2988 17.9716 20.5478 18.2206 20.8563 18.2206C21.1649 18.2206 21.4139 17.9716 21.4139 17.663Z" fill="#158285"></path><path d="M34.2268 17.1651C33.9399 17.1434 33.6909 17.3599 33.6692 17.6414C33.6692 17.6522 33.6692 17.6577 33.6692 17.6685C33.6422 17.977 33.8641 18.2477 34.1727 18.2802C34.4812 18.3072 34.7518 18.0853 34.7843 17.7767C34.8113 17.4682 34.5894 17.1975 34.2809 17.1651C34.2647 17.1651 34.2484 17.1651 34.2322 17.1651H34.2268Z" fill="#158285"></path><path d="M90.0731 9.3592C90.2571 9.38626 90.4412 9.41873 90.6306 9.45121C91.4751 7.89225 92.4657 6.41449 93.5808 5.02874C90.7714 2.84187 87.6102 1.14216 84.2324 0L90.0731 9.3592ZM105.165 21.2301L95.5403 18.1067L106.843 36.208C107.509 31.1522 106.929 26.0098 105.159 21.2301H105.165Z" fill="#158285"></path><path d="M89.3809 14.2575C93.549 7.58318 98.9837 2.71142 106.849 0.00488281L95.541 18.1062L84.2331 36.2075C83.2209 27.9471 85.2183 20.9318 89.3864 14.2575H89.3809Z" fill="#F7941D"></path><path d="M73.0767 10.8043L85.1045 14.7179C86.382 14.0142 87.692 13.37 89.029 12.7963C89.2022 12.374 89.3863 11.9464 89.5866 11.5242C89.9113 10.8097 90.2632 10.1276 90.6312 9.45099C84.7527 8.4604 78.7279 8.92592 73.0713 10.8043H73.0767ZM105.972 14.7179L95.5409 18.1065L118 25.4033C114.839 20.9808 110.73 17.327 105.972 14.7071V14.7179Z" fill="#2BB574"></path><path d="M73.0771 25.3981L85.9169 21.2247C86.3825 19.9688 86.9183 18.7401 87.5246 17.5438C87.8981 15.9199 88.4015 14.3339 89.0349 12.7911C82.6474 15.4219 77.1207 19.7902 73.0771 25.3927V25.3981ZM101.003 9.35925L95.5414 18.1067L118 10.8099C112.528 8.98574 106.703 8.48774 101.003 9.35925Z" fill="#FCB614"></path></svg>