<svg xmlns="http://www.w3.org/2000/svg" width="6" height="10" viewBox="0 0 6 10" fill="none"><path d="M1.1735 8.09546C1.05546 8.10858 0.9178 8.11513 0.747288 8.11513H0.557075C0.458703 8.11513 0.40625 8.16105 0.40625 8.25286V8.91523C0.40625 9.0136 0.445561 9.06608 0.530817 9.08575C0.609515 9.09887 0.707942 9.10542 0.832547 9.11198C0.957153 9.11198 1.04234 9.11198 1.09481 9.11198C1.46863 9.11198 1.77688 9.05952 2.01297 8.95459C2.24906 8.84966 2.43924 8.67258 2.57696 8.41681C2.64255 8.29221 2.68851 8.14138 2.71474 7.97086C2.74097 7.80035 2.75405 7.61016 2.75405 7.40686V6.98714H3.90829C4.02634 6.98714 4.15749 6.98714 4.30833 6.98714C4.45261 6.98714 4.59691 6.98057 4.73463 6.96745C4.87235 6.9609 4.99693 6.94779 5.11497 6.93467C5.23302 6.92156 5.32486 6.90843 5.39045 6.88876C5.46258 6.86253 5.50848 6.82317 5.54127 6.78383C5.5675 6.74448 5.58716 6.69201 5.60027 6.63299C5.61995 6.47559 5.6331 6.29853 5.63966 6.10178C5.63966 5.90504 5.64622 5.72797 5.64622 5.57057V0.376499C5.64622 0.324034 5.62658 0.278119 5.59379 0.245328C5.561 0.212537 5.52161 0.192871 5.4757 0.192871H4.6625C4.61659 0.192871 4.57064 0.212537 4.53785 0.245328C4.50506 0.284677 4.48541 0.324034 4.48541 0.376499V5.5509C4.48541 5.69518 4.46576 5.78043 4.41985 5.80666C4.37394 5.8329 4.28209 5.84601 4.13781 5.84601H2.8V3.32111C2.8 3.2752 2.78028 3.23586 2.75405 3.20307C2.72126 3.17028 2.68195 3.1506 2.63604 3.1506H1.85558C1.80312 3.1506 1.75724 3.17028 1.72445 3.20307C1.69166 3.23586 1.67193 3.2752 1.67193 3.32111V7.33472C1.67193 7.51835 1.65885 7.66262 1.62606 7.76755C1.59327 7.87248 1.54081 7.95118 1.46867 8.00365C1.39653 8.05611 1.30468 8.08891 1.18663 8.10858" fill="#0B5463"></path></svg>