<svg xmlns="http://www.w3.org/2000/svg" width="14" height="36" viewBox="0 0 14 36" fill="none"><path d="M12.5171 0.883301C13.9328 2.4466 13.5623 4.4068 13.574 6.25359C13.613 11.7332 13.4219 17.2169 13.6481 22.6884C13.808 26.54 13.1216 29.78 10.0211 32.2059C9.39323 32.7 9.02275 33.5465 8.53136 34.235C7.59146 34.5833 6.64768 34.9276 5.70778 35.2759C4.13219 34.9681 2.34208 35.3609 0.906894 33.4209C0.571496 29.942 1.5543 26.4185 2.91929 22.9153C5.38408 16.5811 8.65613 10.5952 10.5476 4.00988H10.5398C11.1521 3.45908 10.922 2.47088 11.5382 1.92413H11.5343C11.8424 1.55963 12.2441 1.2883 12.5132 0.883301H12.5171Z" fill="#333333"></path></svg>