<svg xmlns="http://www.w3.org/2000/svg" width="104" height="85" viewBox="0 0 104 85" fill="none"><path d="M95.5757 83.897C96.3908 81.8193 97.7831 80.0981 99.1442 78.1622C96.3206 71.4959 94.0391 64.7405 91.5704 58.058C90.8724 56.6405 93.0875 54.8018 90.5252 53.3316C84.7727 59.4552 79.071 66.1296 69.5083 65.186C69.3328 61.3749 72.9676 61.7435 74.7187 60.0627C74.9605 59.9615 75.2218 59.8683 75.3895 59.7752C75.0658 59.925 74.8201 60.0263 74.5159 60.1397C74.0986 60.326 73.7475 60.5204 73.3848 60.7594C68.0341 64.6959 61.642 65.4533 55.5542 66.4617C46.3658 67.9845 37.8522 71.5971 29.0656 74.3471C24.2998 75.8374 19.4365 76.7892 14.6045 77.9313C11.3519 78.7372 8.81304 77.4656 6.68365 75.0153C3.72748 70.131 3.14637 64.3355 1.11839 59.0745C-0.125704 55.8507 2.49116 54.4616 4.85845 53.441C16.3322 48.504 27.2482 42.2954 39.2406 37.3747C37.4583 31.567 34.5294 26.3708 32.7121 20.7373C32.6731 20.2229 32.7354 19.7248 32.8836 19.2307C33.3126 18.2911 34.0692 17.6269 34.7322 16.8898C37.8873 15.2536 41.1672 13.8604 44.1897 11.9407C47.7659 10.7419 50.8508 8.00414 54.8912 8.25119C55.1681 8.30789 55.3943 8.22284 55.5698 7.99604C56.0885 7.42499 57.0089 7.69228 57.4808 7.02403L57.5744 6.97949C58.1048 6.40844 59.0096 6.62712 59.5166 6.00342L59.5829 5.9751C60.1055 5.36355 61.0141 5.57412 61.5484 4.98282L61.5913 4.9626C62.0983 4.31865 63.0187 4.53329 63.5569 3.94605L63.592 3.92983C64.1185 3.27778 65.0233 3.46411 65.6083 2.94976C66.0451 2.23291 67.0279 2.49615 67.4881 1.82385L67.5622 1.7712C67.9483 1.4796 68.2252 1.02193 68.7439 0.936879L68.6814 1.03007C68.931 0.491421 69.1846 0.487363 69.4459 1.02196L69.3756 0.912604C69.9295 1.0989 70.2454 1.53628 70.4833 2.05468C70.6393 4.53733 71.7937 6.66358 72.7648 8.84653C77.8582 20.2797 83.0022 31.6885 88.041 43.1459C88.7742 44.8105 90.0494 46.4102 89.4956 48.4879C89.2811 48.9253 89.1486 49.3829 89.133 49.8811C89.7375 50.5979 91.0751 49.6745 91.4183 50.9746C95.5055 59.6699 99.3937 68.4584 102.709 77.5061C103.251 78.9924 103.216 80.4747 102.791 82.204C100.334 82.6171 98.5358 85.5818 95.5679 83.8929L95.5757 83.897Z" fill="#333333"></path></svg>