<svg xmlns="http://www.w3.org/2000/svg" width="23" height="39" viewBox="0 0 23 39" fill="none"><path d="M13.4676 34.0274C13.9941 33.3713 14.5206 32.7192 14.9886 32.136C14.9301 29.7749 13.6781 28.0658 12.7655 26.2635C8.67447 18.1554 5.3439 9.63832 0.582031 1.89068C1.74812 0.983483 3.10142 0.86197 4.48981 0.89032C7.94519 10.0352 12.1689 18.8034 16.4121 27.5676C17.0321 28.8474 17.7692 29.9693 19.3955 29.8073L19.6958 30.1718C20.3783 31.0871 21.8369 31.1721 22.0787 32.5653C21.3377 35.9714 18.6858 37.0972 15.9441 38.1219C15.4566 38.1381 14.9925 38.0166 14.5557 37.7979C13.3701 36.9069 14.0331 35.5137 13.6977 34.3878L13.4597 34.0274H13.4676Z" fill="#545454"></path></svg>