<svg xmlns="http://www.w3.org/2000/svg" width="55" height="58" viewBox="0 0 55 58" fill="none"><path d="M49.4016 25.6641C50.5599 30.3337 53.3327 34.3108 54.6548 38.9116C54.9161 40.9973 53.7383 41.9774 52.0886 42.7388C42.4401 47.1938 32.9476 51.989 23.3147 56.4845C21.2009 57.4727 18.9779 58.4163 16.8017 56.5128C10.7333 45.1405 6.30688 32.95 0.733816 21.3265C0.359419 20.5489 0.254093 19.6984 0.413992 18.8236C0.542691 18.289 0.788423 17.8192 1.13162 17.4061C11.5445 10.995 23.0884 7.05839 33.8563 1.40865C35.2134 0.695852 36.9177 -0.0331339 38.6493 0.687765C41.1648 1.97566 41.703 4.67699 42.6312 7.00169C45.0765 13.1455 48.099 19.0747 49.4093 25.6641H49.4016Z" fill="#333333"></path></svg>