<svg xmlns="http://www.w3.org/2000/svg" width="100" height="42" viewBox="0 0 100 42" fill="none"><path d="M0.618055 2.60638C6.62011 -0.346066 12.665 -3.19727 18.6125 -6.26717C39.1575 -16.8741 60.116 -26.5576 80.9262 -36.5773C84.8379 -38.4606 88.6911 -40.4734 92.3063 -42.2959C93.8351 -42.0002 93.8039 -40.5989 94.6385 -40.0522C98.051 -23.7753 99.3419 -7.27157 99.8762 9.34555C100.052 14.7685 97.9691 17.6642 93.1994 20.0173C81.6282 25.7197 69.2381 28.3481 56.9765 31.4545C45.8226 34.2773 34.6843 37.1528 23.6045 40.2754C22.3253 40.6358 21.0032 40.8302 19.7006 41.1056C18.2771 41.9642 16.8029 41.3729 15.3872 41.4782C12.7235 38.6959 11.4912 35.2817 10.1769 31.9405C7.41181 24.9097 4.40095 17.9883 1.41747 11.0587C0.216281 8.27232 -0.427134 5.55882 0.621958 2.60638H0.618055Z" fill="#333333"></path></svg>