<svg xmlns="http://www.w3.org/2000/svg" width="16" height="8" viewBox="0 0 16 8" fill="none"><path d="M12.3237 3.83942H7.32635C7.287 3.83942 7.23455 3.83942 7.18209 3.83942C7.12306 3.83942 7.06403 3.8263 7.00501 3.81974C6.94598 3.80662 6.89352 3.79351 6.84105 3.77384C6.79514 3.75416 6.76242 3.72793 6.74274 3.69514V1.32108C6.74274 1.27517 6.72302 1.23583 6.69679 1.20303C6.664 1.17024 6.6247 1.15712 6.57879 1.15712H5.79832C5.74586 1.15712 5.69998 1.17024 5.66719 1.20303C5.6344 1.23583 5.61468 1.27517 5.61468 1.32108V3.5443C5.61468 3.61644 5.59503 3.6689 5.56224 3.70825C5.52289 3.7476 5.48357 3.77383 5.43111 3.80007C5.37864 3.81974 5.32618 3.83286 5.26715 3.83942C5.20813 3.83942 5.1491 3.84598 5.09663 3.84598H2.70289V1.31452C2.70289 1.26862 2.68317 1.22926 2.65693 1.19647C2.62414 1.16368 2.58484 1.15057 2.53893 1.15057H1.75847C1.706 1.15057 1.66013 1.16368 1.62734 1.19647C1.59454 1.22926 1.58138 1.26862 1.58138 1.31452V5.32812C1.58138 5.51175 1.5683 5.65603 1.52895 5.76096C1.49616 5.86589 1.4437 5.94459 1.37156 5.99706C1.29942 6.04952 1.20757 6.08232 1.08952 6.10199C0.971473 6.11511 0.833816 6.12166 0.663303 6.12166H0.473091C0.374718 6.12166 0.322266 6.16757 0.322266 6.25938V6.92176C0.322266 7.02013 0.361576 7.0726 0.446832 7.09227C0.525531 7.10539 0.623958 7.11194 0.748563 7.11194C0.873168 7.11194 0.958434 7.11194 1.00434 7.11194C1.37816 7.11194 1.68633 7.05948 1.92242 6.95455C2.15852 6.84962 2.34869 6.67255 2.48641 6.41678C2.552 6.29217 2.59796 6.14134 2.62419 5.97083C2.65042 5.80032 2.6635 5.61013 2.6635 5.40683V4.9871H4.91955C5.01792 4.9871 5.11628 4.9871 5.22777 4.97398C5.33925 4.96743 5.45074 4.94775 5.55567 4.92807C5.66716 4.90184 5.77208 4.87561 5.87045 4.83626C5.96883 4.79691 6.06067 4.751 6.14593 4.69198C6.30332 4.81658 6.49352 4.90184 6.72961 4.93464C6.96571 4.96743 7.18864 4.99366 7.41817 4.99366H15.4913C15.5372 4.99366 15.5831 4.98054 15.6159 4.95431C15.6487 4.92808 15.6684 4.88873 15.6684 4.84282V4.00993C15.6684 3.96402 15.6487 3.92467 15.6159 3.89188C15.5831 3.85909 15.5372 3.84598 15.4913 3.84598H13.6223C13.4845 3.79351 13.3599 3.66891 13.255 3.4656C13.15 3.26886 13.091 3.03932 13.091 2.79011V2.69174C13.091 2.31793 13.2025 2.04904 13.4255 1.89164C13.6485 1.73425 13.9632 1.65555 14.3764 1.65555C14.4748 1.65555 14.5535 1.65555 14.6322 1.65555C14.7043 1.65555 14.7765 1.65555 14.8486 1.6621C14.9142 1.6621 14.9863 1.66867 15.065 1.67522C15.1372 1.68178 15.2224 1.68834 15.3208 1.6949C15.4454 1.70801 15.511 1.65554 15.511 1.5375V0.88168C15.511 0.822657 15.4913 0.783313 15.4585 0.763638C15.4257 0.743964 15.3733 0.724288 15.3077 0.711172C15.1109 0.678381 14.9339 0.652141 14.7765 0.632467C14.6191 0.61935 14.4354 0.612793 14.219 0.612793C13.9173 0.612793 13.6288 0.652144 13.3599 0.717726C13.091 0.789866 12.8484 0.901358 12.6451 1.05875C12.4418 1.21615 12.2778 1.4129 12.1597 1.65555C12.0417 1.8982 11.9827 2.19332 11.9827 2.53434V2.63271C11.9827 2.89504 12.0154 3.13113 12.0745 3.341C12.14 3.55086 12.2188 3.71482 12.3172 3.83942" fill="#0B5463"></path></svg>