<svg xmlns="http://www.w3.org/2000/svg" width="294" height="155" viewBox="0 0 294 155" fill="none"><path d="M78.3048 -43.2158C79.662 -38.4004 80.2119 -33.4432 80.1924 -28.4617C80.1768 -25.0881 81.1011 -22.4394 83.6517 -20.305C88.5695 -16.1902 93.3782 -11.9377 98.2961 -7.82698C99.7352 -6.62413 101.17 -5.45774 102.134 -3.80534C104.216 -0.225151 106.771 2.95004 109.766 5.73238C111.451 7.29973 112.628 9.21538 112.909 11.4834C114.029 20.4339 119.984 26.4764 124.399 33.0739C126.945 34.0702 129.032 33.329 131.177 33.0779C136.321 32.4785 141.457 31.9116 145.661 36.3989C147.237 38.0837 148.305 39.9062 149.089 42.0082C150.049 44.588 151.148 47.1274 151.882 49.7761C153.434 55.3893 156.874 59.4636 161.269 62.8049C163.73 64.676 165.617 66.9521 167.185 69.698C170.41 75.3518 173.846 80.8922 176.335 86.9428C178.386 91.9243 182.73 93.0097 186.166 91.5882C192.281 89.0569 198.311 90.1626 204.367 90.9807C208.739 91.572 212.097 93.9615 213.614 98.5461C214.741 101.948 215.861 105.35 217.156 109.275C224.909 105.917 232.486 103.475 240.629 104.034C242.513 104.123 243.886 105.476 245.399 106.512C251.932 110.988 258.573 115.309 264.887 120.096C269.119 123.304 273.752 124.47 278.759 125.236C283.72 125.997 288.685 126.212 293.665 126.414C292.912 127.208 292.226 128.034 292.398 129.269C285.327 128.22 278.26 127.167 271.19 126.127C269.458 125.871 268.163 124.721 266.787 123.778C259.7 118.918 252.583 114.106 245.61 109.076C242.852 107.087 240.025 106.278 236.722 106.44C232.19 106.658 227.631 107.079 223.59 109.153C216.91 112.583 209.98 111.923 203.038 111.247C200.553 111.004 198.085 110.611 195.589 110.68C188.584 110.87 181.689 109.384 174.681 109.396C171.023 109.404 167.657 107.294 164.323 105.816C158.379 103.183 152.354 101.831 145.88 102.272C141.734 102.556 137.553 102.256 133.392 102.406C129.968 102.527 127.686 100.944 126.154 97.9224C125.92 97.4647 125.611 97.0233 125.487 96.5332C123.716 89.466 118.408 87.0522 112.293 85.8412C110.405 85.4686 108.974 84.5777 107.469 83.4072C98.1518 76.1699 88.7411 69.0581 78.8235 61.4927C69.7015 64.5423 59.1989 63.8255 51.2858 71.4597C50.9231 71.808 50.4161 71.9903 50.0534 72.3386C43.2129 78.9522 35.2647 81.6212 25.8736 80.5682C20.9284 80.0133 18.6431 82.2448 17.3483 87.3397C14.6651 97.8697 12.6761 108.501 12.1145 119.444C11.7596 126.341 9.85641 133.04 8.21062 139.739C7.29023 140.593 8.15213 142.035 7.25124 142.893C7.25124 143.226 7.23953 143.558 7.21223 143.89C6.29574 144.761 7.12644 146.19 6.26845 147.077C6.22945 147.749 6.19434 148.426 6.15534 149.098C5.86675 149.442 5.55475 149.766 5.22326 150.066L5.17645 150.115C4.88005 150.471 4.56026 150.799 4.22096 151.107L4.17806 151.155C3.88166 151.508 3.56577 151.84 3.22257 152.148L3.17966 152.196C2.87937 152.553 2.56348 152.885 2.22418 153.197L2.18908 153.237C1.88098 153.594 1.56118 153.934 1.22579 154.266H1.21409C0.297593 154.476 -0.150904 154.209 0.153294 153.16C1.52998 151.447 2.90277 149.734 4.27946 148.025C5.13745 147.146 4.32236 145.745 5.19595 144.874C5.21545 144.198 5.23495 143.521 5.25445 142.845C6.14754 141.962 5.33635 140.549 6.17874 139.649C6.36984 134.453 7.37993 129.362 8.24963 124.272C10.3166 112.203 11.4905 99.9716 14.8523 88.1416C17.0324 80.4669 19.2085 78.4581 26.6497 78.369C40.1202 78.2151 35.4363 79.8594 46.5864 71.4192C49.1447 69.4833 51.6797 67.515 54.2927 65.6642C55.2365 64.9959 56.3363 64.4127 57.44 64.1576C63.6136 62.7239 69.8185 61.4441 75.996 60.0185C78.4959 59.4434 80.559 60.1926 82.5363 61.7033C89.3807 66.9278 96.389 71.9295 103.066 77.3768C107.754 81.2 112.769 84.0835 118.588 85.2459C121.856 85.8979 123.786 87.6678 125.249 90.7417C129.367 99.3885 127.483 100.446 139.913 100.203C140.244 100.194 140.583 100.231 140.911 100.198C150.95 99.1252 160.415 101.3 169.541 105.544C172.154 106.759 175.04 107.399 177.809 107.335C187.988 107.1 198.085 108.671 208.248 108.578C209.683 108.566 211.263 109.052 212.772 107.517C211.516 103.41 209.972 99.2832 207.823 95.4154C207.129 94.168 206.052 93.2932 204.625 93.1677C198.381 92.6169 192.2 91.1589 185.967 94.0587C181.12 96.3186 177.025 94.083 174.767 88.9557C172.056 82.8159 168.991 76.8705 165.586 71.1074C163.192 67.0533 160.033 63.7445 156.421 60.9378C153.925 58.9938 152.127 56.7339 151.102 53.6438C149.858 49.8854 148.383 46.204 146.894 42.5387C144.468 36.5731 140.326 34.2767 134.149 35.3621C130.678 35.9696 127.214 36.0709 123.665 35.3824C120.284 31.304 117.262 26.9706 114.383 22.5277C112.66 19.8709 112.188 16.7524 111.439 13.7514C110.975 11.8924 110.593 10.0173 109.345 8.53902C102.005 -0.132008 95.219 -9.37004 85.7304 -15.8095C84.0729 -16.9354 82.6884 -18.4866 81.144 -19.7988C79.0614 -21.5686 77.9967 -23.7799 78.2346 -26.6068C78.5271 -30.0979 76.8969 -33.4027 77.322 -36.9059C77.7627 -38.9836 76.2924 -41.3812 78.297 -43.1996L78.3048 -43.2158Z" fill="#525353"></path></svg>