<svg xmlns="http://www.w3.org/2000/svg" width="11" height="9" viewBox="0 0 11 9" fill="none"><path d="M10.2583 0.772978C10.3792 1.42908 10.5001 2.08922 10.621 2.74532C10.2232 3.12602 9.82536 3.50674 9.43146 3.88339L8.96348 3.91578H8.49546C7.93386 4.51518 6.99787 4.26004 6.44797 4.88778C6.12038 4.92423 5.79667 4.94449 5.46517 4.94044C4.71638 5.94078 3.13692 4.83512 2.52463 6.18782C2.44663 7.24081 2.3842 8.29787 1.37801 8.93372C-0.0766797 7.30968 -0.11176 5.65729 1.30003 3.98464L1.43262 3.80642C1.98641 3.25562 2.88728 3.49054 3.40988 2.8709C3.72578 2.83445 4.0456 2.81419 4.3654 2.81824C5.2039 1.89485 6.60397 2.77774 7.42297 1.79764C7.95726 1.18609 8.90105 1.40075 9.41585 0.740596H9.40804C9.70054 0.400397 9.98135 0.388217 10.2543 0.760817L10.2583 0.772978Z" fill="#535454"></path></svg>