<svg xmlns="http://www.w3.org/2000/svg" width="5" height="6" viewBox="0 0 5 6" fill="none"><path d="M2.99092 5.28075C3.02371 5.31354 3.06958 5.33321 3.11549 5.33321H3.87626C3.92216 5.33321 3.96811 5.31354 4.0009 5.28075C4.03369 5.2414 4.05334 5.20206 4.05334 5.15615V1.93609C4.05334 1.35897 3.88281 0.926123 3.54835 0.65068C3.21388 0.368678 2.72203 0.230957 2.08589 0.230957C1.77765 0.230957 1.49563 0.244078 1.23986 0.276869C0.984089 0.303102 0.767675 0.335889 0.590605 0.375238C0.479116 0.40147 0.420086 0.460493 0.420086 0.558866V1.12943C0.420086 1.19502 0.433247 1.23436 0.466038 1.25403C0.49227 1.2737 0.531575 1.28027 0.58404 1.28027H0.629992C0.78083 1.26059 0.99066 1.24748 1.25299 1.2278C1.52187 1.21469 1.79733 1.20813 2.08589 1.20813C2.35477 1.20813 2.55154 1.25404 2.6827 1.35241C2.81387 1.45078 2.87284 1.64753 2.87284 1.93609V2.33613H2.30884C1.92191 2.33613 1.58743 2.36892 1.31199 2.4345C1.03654 2.50008 0.807063 2.59846 0.629992 2.72962C0.452921 2.86078 0.328259 3.02474 0.243002 3.21493C0.164304 3.40511 0.125 3.62809 0.125 3.88386V3.92321C0.125 4.22489 0.170882 4.4741 0.262696 4.66429C0.35451 4.85447 0.47259 5.0053 0.623428 5.11679C0.767707 5.22828 0.931668 5.30698 1.12186 5.34633C1.30548 5.38568 1.48909 5.41192 1.67272 5.41192C1.88914 5.41192 2.09898 5.37913 2.30884 5.30699C2.5187 5.2414 2.72861 5.14303 2.93192 5.01842V5.16271C2.93192 5.20861 2.95156 5.24796 2.98435 5.28731M2.87284 4.21833C2.74167 4.29047 2.59745 4.34949 2.44005 4.3954C2.28266 4.44131 2.11864 4.46754 1.96124 4.46754C1.7317 4.46754 1.56775 4.42819 1.46938 4.35605C1.36445 4.28391 1.31855 4.13308 1.31855 3.91666V3.8773C1.31855 3.75269 1.33171 3.6412 1.35794 3.54939C1.38417 3.45102 1.43662 3.37232 1.50876 3.3133C1.5809 3.25427 1.68582 3.20182 1.81698 3.16903C1.94814 3.13623 2.1121 3.11656 2.31541 3.11656H2.8794V4.21833H2.87284Z" fill="#0B5463"></path></svg>