<svg xmlns="http://www.w3.org/2000/svg" width="96" height="16" viewBox="0 0 96 16" fill="none"><path d="M4.21262 0.295898C7.4925 11.4577 8.1477 12.3892 19.1105 11.6035C27.9089 10.9758 36.6877 10.8583 45.4821 10.6964C55.7976 10.5101 66.0194 11.4658 76.2685 12.535C81.202 13.0493 86.1471 13.8431 91.1313 13.8634C92.6289 13.8715 94.1421 13.8472 95.4252 14.8678C94.0173 14.9447 92.547 14.7625 91.3887 15.9005C86.0497 16.1719 80.8315 14.8556 75.5197 14.5964C68.5973 14.2562 61.7489 13.2195 54.7563 13.1263C49.0077 13.0534 43.2123 13.4138 37.4287 12.94C32.659 12.5471 27.8231 12.6242 23.0144 13.5395C20.105 14.0903 17.0474 13.7743 14.0562 13.9039C9.17338 14.1145 5.92082 11.6602 3.65883 7.33889C2.74624 5.59739 2.70333 3.17553 0.402344 2.40603C1.40074 1.16673 2.69164 0.510548 4.21653 0.295898H4.21262Z" fill="#505252"></path></svg>