<svg xmlns="http://www.w3.org/2000/svg" width="43" height="32" viewBox="0 0 43 32" fill="none"><path d="M15.6599 28.236C13.6046 29.2566 11.5454 30.2813 9.49009 31.3019C8.519 31.152 7.46602 31.3261 6.09323 29.9491C4.87644 25.7817 1.56925 21.6588 0.90625 16.2642C2.98104 14.2271 5.64085 13.5669 8.00813 12.4451C16.3307 8.50443 24.739 4.75412 33.1395 0.987626C34.1847 0.517827 35.382 0.404449 36.5052 0.125C38.7282 4.82299 41.3256 9.35494 42.4878 14.5308C41.6922 15.5514 40.53 16.0334 39.5004 16.7097H39.5082C39.0597 17.4387 38.1003 17.1957 37.5855 17.8032L37.5231 17.8316C37.0083 18.4715 36.1035 18.2609 35.5536 18.8198L35.5146 18.84C35.0193 19.5164 34.1028 19.3058 33.5412 19.8485L33.5101 19.8606C33.0187 20.5572 32.1021 20.3507 31.5288 20.8731L31.5055 20.8852C31.0219 21.6021 30.1015 21.3955 29.5126 21.9018H29.5009C28.9978 22.647 28.093 22.4729 27.4456 22.8819L27.352 22.8981C24.5986 27.3774 19.9147 27.2964 15.6638 28.24L15.6599 28.236Z" fill="#333333"></path></svg>