<svg xmlns="http://www.w3.org/2000/svg" width="217" height="64" viewBox="0 0 217 64" fill="none"><path d="M1.41451 36.7355C3.0993 32.0375 5.3964 27.7244 8.35648 23.7311C12.7947 17.7452 17.0339 11.5932 21.3551 5.51421C21.7997 5.25501 22.1936 4.94307 22.3691 4.41252L22.3535 4.39235C23.8433 3.5864 24.8573 4.59079 25.9259 5.39674C33.0082 10.7468 40.2934 15.8416 46.2954 22.5727C46.3539 22.8117 46.4085 23.0466 46.467 23.2855C49.8405 26.5741 53.409 29.5549 57.6365 31.6568C60.2807 32.969 62.4686 32.6491 64.2587 30.2799C67.9285 25.4199 71.5906 20.5558 75.1396 15.6027C78.7822 10.52 82.2024 5.26308 86.2038 0.925534C87.6546 0.330186 88.458 1.11997 89.3628 1.46827C89.5968 1.46827 89.8308 1.46827 90.0648 1.46827C94.1169 1.94212 96.3905 5.33191 99.3506 7.59181C100.177 8.47066 101.207 9.26448 100.634 10.7549C102.552 12.1562 104.471 13.5615 106.39 14.9628C107.759 14.8453 109.034 15.1734 110.247 15.8133C112.205 16.9149 113.613 18.7253 115.368 20.0901C116.152 21.1512 117.205 22.0341 117.489 23.4395C119.841 25.5981 122.142 27.8256 125.024 29.2512C125.473 29.4739 125.933 29.7169 126.296 30.0571C134.528 37.7764 144.22 43.4869 152.745 50.8336C161.294 58.1965 170.283 65.0126 179.105 72.0313C190.824 81.3544 202.571 90.645 214.294 99.9641C215.074 100.584 215.757 101.341 216.482 102.03C215.32 102.09 214.158 102.208 212.992 102.208C175.669 102.216 138.346 102.216 101.024 102.208C99.8615 102.208 98.6954 102.098 97.5332 102.042C93.2823 100.823 91.7808 96.5013 88.9923 93.6582C87.5415 92.18 86.1375 90.9205 84.3474 89.9647C70.8652 82.7678 56.9501 76.4295 43.8813 68.4227C30.559 60.2579 17.1665 52.2227 3.96511 43.8514C2.29202 42.7903 -0.246841 41.9479 0.474654 38.8821L0.494125 38.8335C1.08302 38.2665 0.868517 37.3147 1.41451 36.7274V36.7355Z" fill="#333333"></path></svg>