<svg xmlns="http://www.w3.org/2000/svg" width="58" height="71" viewBox="0 0 58 71" fill="none"><path d="M48.0829 15.2408C48.0829 23.6609 41.2621 30.4817 32.8421 30.4817V21.5256C36.3086 21.5256 39.1268 18.7161 39.1268 15.2408C39.1268 11.7656 36.3086 8.95605 32.8421 8.95605C29.3755 8.95605 26.5572 11.7743 26.5572 15.2408C26.5572 19.4595 24.8456 23.2719 22.0792 26.0296C19.3215 28.7786 15.5178 30.4817 11.3164 30.4817V21.5256C14.783 21.5256 17.6012 18.7161 17.6012 15.2408C17.6012 11.0222 19.3129 7.2098 22.0792 4.4521C24.8369 1.70304 28.6407 0 32.8421 0C41.2621 0 48.0829 6.82078 48.0829 15.2408Z" fill="#755CF0"></path><path d="M29.7042 42.9299C32.0038 42.9299 33.8797 44.8058 33.8797 47.1054C33.8797 49.4049 32.0038 51.2808 29.7042 51.2808C27.4047 51.2808 25.5288 49.4049 25.5288 47.1054C25.5288 44.8058 27.4047 42.9299 29.7042 42.9299ZM47.7979 44.0451C48.6537 43.2498 49.7689 42.8521 50.9446 42.9299C53.0021 43.0682 54.6705 44.7367 54.8088 46.7941C54.8866 47.9698 54.4976 49.085 53.6937 49.9409C52.8983 50.7967 51.8091 51.2635 50.642 51.2635H48.8007V53.6149H50.642C52.4402 53.6149 54.1778 52.8628 55.414 51.5402C56.6588 50.2088 57.2813 48.4626 57.1516 46.6299C56.9268 43.4054 54.3334 40.8033 51.1089 40.5872C49.2762 40.4575 47.5385 41.0799 46.1986 42.3248C44.8846 43.5523 44.1238 45.29 44.1238 47.0967C44.1238 49.3962 42.2479 51.2722 39.9484 51.2722H34.701C35.6432 50.1397 36.2138 48.6874 36.2138 47.0967C36.2138 43.5005 33.2918 40.5785 29.6956 40.5785C26.0993 40.5785 23.1774 43.5091 23.1774 47.0967C23.1774 48.6874 23.7479 50.1397 24.6902 51.2722H20.0912C17.7917 51.2722 15.9157 49.3962 15.9157 47.0967C15.9157 45.4283 15.276 43.7598 14.0052 42.489L12.3454 44.1488C13.9706 45.7741 13.9706 48.428 12.3454 50.0532C10.7202 51.6785 8.06623 51.6785 6.441 50.0532C4.81578 48.428 4.81578 45.7741 6.441 44.1488L4.78119 42.489C2.2396 45.0306 2.2396 49.1715 4.78119 51.7131C7.32277 54.2546 11.4637 54.2546 14.0052 51.7131C14.2819 51.4364 14.5239 51.1425 14.74 50.8313C15.9157 52.517 17.8781 53.6236 20.0825 53.6236H39.9397C43.536 53.6236 46.4579 50.7016 46.4579 47.1054C46.4579 45.9383 46.9334 44.849 47.7892 44.0537" fill="#383878"></path><path d="M10.7453 42.4113C11.3418 41.8148 11.3418 40.8466 10.7453 40.2501C10.1488 39.6536 9.18058 39.6536 8.58409 40.2501C7.9876 40.8466 7.9876 41.8148 8.58409 42.4113C9.18058 43.0078 10.1488 43.0078 10.7453 42.4113Z" fill="#383878"></path><path d="M29.7034 38.6944C30.5679 38.6944 31.2681 37.9941 31.2681 37.1297C31.2681 36.2652 30.5679 35.5649 29.7034 35.5649C28.8389 35.5649 28.1387 36.2652 28.1387 37.1297C28.1387 37.9941 28.8389 38.6944 29.7034 38.6944Z" fill="#383878"></path><path d="M13.6416 58.439C13.0624 58.439 12.5351 58.7502 12.2498 59.2602L9.544 64.1359L6.83816 59.2602C6.56153 58.7588 6.02556 58.439 5.44636 58.439H5.34263C4.4695 58.439 3.75195 59.1478 3.75195 60.0296V70.9653H6.01692V62.1995L8.49798 66.4527C8.70546 66.8072 9.07718 67.0233 9.49213 67.0233C9.90709 67.0233 10.2788 66.8072 10.4863 66.4527L12.9673 62.1995V70.9653H15.2323V60.0296C15.2323 59.1565 14.5148 58.439 13.6416 58.439Z" fill="#383878"></path><path d="M17.0732 62.1821V67.343H17.0819C17.2202 69.3659 18.9059 70.9652 20.9634 70.9652H25.2426V68.7262H20.9634C20.0557 68.7262 19.3123 67.9914 19.3123 67.075V66.029H24.1015V63.79H19.3123V62.3809C19.3123 61.4732 20.0471 60.7297 20.9634 60.7297H25.2426V58.4907H20.9634C18.8887 58.4907 17.1856 60.1246 17.0819 62.1821" fill="#383878"></path><path d="M27.1797 62.1821V70.9652H29.4187V66.029H34.0869V63.79H29.4187V62.3809C29.4187 61.4732 30.1535 60.7297 31.0699 60.7297H35.3491V58.4907H31.0699C28.9951 58.4907 27.2921 60.1246 27.1883 62.1821" fill="#383878"></path><path d="M42.5671 66.0117H38.8757V62.3809C38.8757 61.4732 39.6105 60.7297 40.5269 60.7297H40.9245C41.8323 60.7297 42.5757 61.4645 42.5757 62.3809V66.0117H42.5671ZM40.9159 58.4907H40.5183C38.4435 58.4907 36.7405 60.1332 36.6367 62.1821V70.9652H38.8757V68.2594H42.5671V70.9652H44.8061V62.1821C44.7024 60.1332 42.9993 58.4907 40.9245 58.4907" fill="#383878"></path><path d="M54.0304 67.1787L49.4832 59.3206C49.2066 58.8278 48.6792 58.5166 48.1173 58.5166C47.2528 58.5166 46.5439 59.2255 46.5439 60.09V70.9911H48.8089V62.3376L53.3561 70.1958C53.6327 70.6885 54.1601 70.9997 54.722 70.9997C55.5865 70.9997 56.2953 70.2909 56.2953 69.4264V58.5253H54.0304V67.1787Z" fill="#383878"></path><path d="M2.59344 53.3559C2.52428 53.5201 2.43783 53.6671 2.32545 53.7881C2.21307 53.9091 2.0834 54.0042 1.92779 54.0734C1.77219 54.1426 1.61657 54.1771 1.43503 54.1771C1.32265 54.1771 1.21027 54.1599 1.09788 54.1253C0.994146 54.0907 0.890411 54.0475 0.803963 53.987C0.70887 53.9264 0.631072 53.8573 0.553269 53.7795C0.475465 53.7017 0.414942 53.6066 0.354428 53.5028C0.302559 53.3991 0.259335 53.2954 0.233401 53.1743C0.207466 53.062 0.190187 52.9409 0.190187 52.8112C0.190187 52.6211 0.224767 52.4482 0.285281 52.2753C0.345795 52.111 0.440886 51.9641 0.553269 51.843C0.665651 51.722 0.795317 51.6269 0.950924 51.5491C1.09789 51.4799 1.26214 51.4454 1.43503 51.4454C1.54741 51.4454 1.65981 51.4627 1.77219 51.4972C1.87593 51.5318 1.97967 51.575 2.06611 51.6356C2.16121 51.6961 2.23902 51.7652 2.31682 51.8517C2.39463 51.9295 2.45512 52.0246 2.51564 52.1283C2.5675 52.2321 2.61074 52.3358 2.63668 52.4568C2.66261 52.5778 2.67989 52.6989 2.67989 52.8199C2.67989 53.0101 2.64532 53.183 2.58481 53.3472M2.68854 52.0419C2.61938 51.9295 2.55022 51.8257 2.46377 51.7306C2.37732 51.6355 2.28223 51.5577 2.16985 51.4886C2.06611 51.4194 1.95373 51.3676 1.82406 51.333C1.70303 51.2984 1.57336 51.2725 1.44369 51.2725C1.31401 51.2725 1.18434 51.2898 1.06331 51.333C0.942283 51.3676 0.821261 51.4194 0.717523 51.4886C0.613785 51.5577 0.510037 51.6355 0.423588 51.7306C0.33714 51.8257 0.259341 51.9295 0.198827 52.0419C0.129669 52.1542 0.0864462 52.2839 0.0518669 52.4136C0.0172876 52.5433 0 52.6816 0 52.8199C0 52.9582 0.0172876 53.0965 0.0518669 53.2262C0.0864462 53.3559 0.129669 53.4769 0.198827 53.5979C0.259341 53.7103 0.33714 53.8141 0.423588 53.9092C0.510037 54.0042 0.60514 54.082 0.717523 54.1512C0.821261 54.2204 0.933638 54.2722 1.06331 54.3068C1.18434 54.3414 1.31401 54.3673 1.44369 54.3673C1.57336 54.3673 1.70303 54.35 1.82406 54.3068C1.94509 54.2722 2.06611 54.2204 2.16985 54.1512C2.27359 54.082 2.37732 54.0042 2.46377 53.9092C2.55022 53.8141 2.62803 53.7103 2.68854 53.5979C2.74906 53.4855 2.80091 53.3559 2.83549 53.2262C2.87007 53.0965 2.88736 52.9582 2.88736 52.8199C2.88736 52.6816 2.87007 52.5433 2.83549 52.4136C2.80091 52.2839 2.74906 52.1542 2.68854 52.0419Z" fill="#383878"></path><path d="M1.40837 52.7765H1.21818V52.2405H1.4343C1.48617 52.2405 1.53805 52.2406 1.58128 52.2578C1.61586 52.2665 1.65042 52.2838 1.67636 52.3011C1.70229 52.3183 1.71958 52.3529 1.72822 52.3789C1.73687 52.4134 1.74553 52.448 1.74553 52.4912C1.74553 52.5345 1.74551 52.5777 1.72822 52.6123C1.71958 52.6469 1.69367 52.6728 1.66773 52.6987C1.6418 52.7246 1.6072 52.742 1.56397 52.7506C1.52075 52.7592 1.46888 52.7679 1.40837 52.7679M1.68501 52.9581C1.68501 52.9581 1.65909 52.9235 1.6418 52.9148C1.75418 52.8889 1.84926 52.8284 1.90113 52.7506C1.96165 52.6728 1.98759 52.5777 1.98759 52.4653C1.98759 52.3183 1.94436 52.2146 1.84927 52.1368C1.76282 52.059 1.61585 52.0244 1.42566 52.0244H0.950195V53.6064H1.20954V52.9754H1.33922C1.33922 52.9754 1.39109 52.9754 1.39973 52.984C1.41702 52.984 1.42566 53.0013 1.4343 53.0186L1.77146 53.5546C1.77146 53.5546 1.81469 53.5978 1.84927 53.5978H2.09132L1.71094 53.0099C1.71094 53.0099 1.68502 52.9667 1.66773 52.9494" fill="#383878"></path></svg>