<svg xmlns="http://www.w3.org/2000/svg" width="59" height="81" viewBox="0 0 59 81" fill="none"><path d="M0.631836 78.3326C2.25422 74.9711 4.73848 72.0471 5.19088 68.475C6.94197 66.4055 9.22733 67.3895 11.0174 66.5593C12.2654 65.968 13.2482 64.996 13.9346 63.8255C18.3377 56.3047 24.0511 49.7761 28.774 42.4862C36.453 30.6359 44.4558 19.0083 52.2791 7.25527C53.6831 5.14522 55.325 3.13238 55.7657 0.475586C56.9084 0.856285 57.8171 1.56914 58.5308 2.55734C55.871 5.20198 53.9717 8.45412 51.8969 11.5605C42.9114 25.0186 34.0038 38.5334 24.9403 51.9348C21.1339 57.5643 17.0194 62.9629 12.9362 68.6167C11.3918 68.8962 9.77723 69.1918 7.99884 69.5117C5.82656 73.0879 4.36408 77.1662 1.677 80.4548C0.776108 80.0377 0.678636 79.1993 0.631836 78.3286V78.3326Z" fill="#525252"></path></svg>