<svg xmlns="http://www.w3.org/2000/svg" width="27" height="33" viewBox="0 0 27 33" fill="none"><path d="M25.6962 27.7951C23.4186 29.0992 21.8742 31.5981 18.7698 32.2501C16.5702 29.0385 14.2575 25.7579 12.0423 22.4045C8.24378 16.6495 4.50762 10.8499 0.748047 5.06655C1.37594 4.6656 2.00377 4.26462 2.63167 3.86367H2.63557C5.15495 3.06987 6.86709 0.546745 9.90127 0.137695C13.8363 6.25318 17.7597 12.3484 21.6831 18.4436C21.9912 18.8203 22.3773 19.1241 22.662 19.521L22.6346 19.5007C23.2898 20.0272 23.0909 21.0113 23.672 21.5783L23.6643 21.5662C24.2805 22.0968 24.0698 23.0809 24.6977 23.6074L24.7134 23.6358C25.0254 24.0043 25.3724 24.3324 25.6727 24.709L25.6493 24.6887C26.4371 25.7093 26.3592 26.7462 25.7001 27.7951H25.6962Z" fill="#333333"></path></svg>