<svg xmlns="http://www.w3.org/2000/svg" width="112" height="110" viewBox="0 0 112 110" fill="none"><path d="M107.648 86.324C108.935 88.4381 110.815 90.1431 111.638 92.5772C107.663 99.0653 101.513 103.379 96.9698 108.98C90.2813 109.279 84.1311 109.883 78.2226 106.327C69.5179 101.09 59.5691 99.8267 49.8932 97.7693C42.9591 96.2951 36.06 94.671 29.0908 93.3629C27.172 93.0024 24.6409 93.0308 23.5372 90.5481C22.2151 86.4333 22.0513 82.0918 21.634 77.8636C20.9437 70.8247 18.0304 64.6687 15.589 58.29C14.9572 57.7716 15.2224 56.7469 14.536 56.2569C14.5399 51.9436 18.9586 52.3729 20.464 50.2426C18.0889 51.1417 16.0648 55.0297 12.4106 52.1947C8.45599 44.5402 4.50145 36.8858 0.550781 29.2353C6.74004 24.2052 13.951 20.9491 20.6512 16.8059C22.4568 15.6881 24.1299 14.0965 26.7117 13.8697C29.4768 16.3645 29.9059 20.3942 31.8442 23.4925C33.7512 26.5381 35.0694 30.0332 38.166 33.2651C38.6574 28.8911 35.1045 27.0605 35.124 23.7597C37.0662 21.674 40.0184 20.9247 41.9216 18.6405C41.8436 15.5828 39.2697 13.4363 39.1254 9.79132C45.1274 6.66068 51.2894 3.44906 57.1432 0.399414C59.3038 1.67111 59.7524 3.43287 60.4115 4.96376C63.9916 13.3067 68.0397 21.3945 72.1464 29.4702C76.7289 38.4814 81.1008 47.6102 85.3596 56.7915C89.0801 64.8105 93.6782 72.0802 100.094 78.0944C102.796 80.6297 105.14 83.5741 107.648 86.3362V86.324Z" fill="#333333"></path></svg>