<svg xmlns="http://www.w3.org/2000/svg" width="167" height="111" viewBox="0 0 167 111" fill="none"><path d="M147.8 20.6533C151.076 20.058 153.01 16.3927 156.594 16.5061C157.284 15.8622 157.292 15.1736 156.711 14.4487L156.703 14.4285C156.157 13.8736 156.111 12.6667 156.43 12.6343C160.17 12.2333 162.881 8.31699 166.995 9.32543C166.301 11.5853 165.342 13.7035 163.821 15.5098C160.498 18.0086 158.552 22.5811 153.689 22.7633C152.694 23.8325 151.696 24.9058 150.701 25.975C151.099 29.3891 148.576 30.8917 146.482 32.4347C136.849 39.5303 127.567 47.124 117.899 54.1629C116.035 55.5197 114.268 57.3988 111.635 55.9975C110.294 56.1514 109.596 57.2895 108.667 58.0792C108.059 58.8528 107.232 58.9257 106.363 58.869C104.475 58.5855 103.122 59.8572 101.605 60.6429C100.478 61.4043 99.2996 62.0766 98.1219 62.7489C91.1955 66.7665 83.8441 69.9133 76.8943 73.8783C75.4981 74.6761 73.673 74.9435 73.1309 76.8996C73.0412 77.5719 72.8267 78.2158 72.6473 78.8638C72.1169 80.7957 71.1341 81.2128 69.617 79.8399C69.3167 79.5928 68.9891 79.4025 68.6264 79.2769C67.6007 79.2405 66.7232 79.7751 65.7794 80.0788C62.4254 81.148 59.8086 84.9429 55.6551 83.0191C54.1185 84.06 52.0359 83.7076 50.6553 85.1454C50.1093 89.1306 47.9448 89.7826 44.7235 88.2476C43.3741 88.9645 41.7517 89.0981 40.648 90.3293C41.0809 93.2413 38.8189 94.0634 37.0484 95.0921C33.749 97.0078 30.1571 98.3038 26.7641 100.029C26.1284 100.219 25.4732 100.147 24.8258 100.118C24.4163 100.191 24.0341 100.341 23.6792 100.58C23.3243 100.961 22.9694 101.341 22.6106 101.718C17.6499 106.699 11.172 108.255 4.85797 110.195C4.34707 110.174 3.86348 110.045 3.39548 109.838C2.33469 109.154 1.35973 108.348 0.509538 107.38C0.26384 106.882 0.228725 106.367 0.396424 105.837C3.298 103.026 6.26975 100.446 10.6065 102.739C11.9988 102.589 12.7359 101.406 13.7148 100.604C17.0883 95.5984 21.9087 93.6139 27.5909 93.4398C27.9536 93.0672 28.3163 92.6986 28.679 92.326C35.192 87.0205 41.7712 81.8689 50.6475 81.9701C51.3261 81.2695 52.0047 80.5648 52.6794 79.8642C56.5715 74.7045 60.1245 73.1574 64.6055 74.6762C66.614 73.6313 68.6264 72.5904 70.6349 71.5455C70.9391 68.6578 72.5927 68.6417 74.6597 69.5043C76.0285 69.3464 76.7462 68.1759 77.7056 67.3862C80.4004 62.6639 84.1287 60.0881 89.6277 61.1816C90.4311 61.0803 91.1215 60.7603 91.6402 60.1002C92.2602 55.552 94.9356 54.7947 98.6679 56.0016C99.3465 55.2969 100.029 54.5922 100.708 53.8835C101.788 51.7977 103.024 50.1008 105.598 51.8099C108.285 51.0363 110.048 48.582 112.645 47.6465C111.932 43.4426 115.098 43.3211 117.633 42.5313C117.981 42.1668 118.332 41.8064 118.679 41.4419C119.505 39.2387 121.51 38.1492 122.918 36.5292C123.023 36.185 123.171 35.8529 123.253 35.5208C123.191 35.2049 123.167 34.885 123.097 34.5731C122.941 34.2896 122.832 33.994 122.707 33.7024C122.516 33.4391 122.38 33.1516 122.239 32.86C122.04 32.6008 121.892 32.3132 121.752 32.0257C121.553 31.7705 121.405 31.4829 121.268 31.1954C121.073 30.9443 120.921 30.6648 120.773 30.3854C120.57 30.1424 120.414 29.867 120.266 29.5876C120.063 29.3446 119.911 29.0692 119.763 28.7938C119.564 28.5508 119.416 28.2754 119.275 27.9959C119.08 27.7529 118.928 27.4816 118.776 27.2102C118.569 26.9713 118.413 26.7039 118.261 26.4326C118.059 26.1896 117.903 25.9223 117.75 25.6469C117.548 25.3999 117.396 25.1245 117.251 24.845C117.048 24.598 116.892 24.3266 116.729 24.0513C116.51 23.8083 116.346 23.5369 116.187 23.2574C115.972 23.0063 115.808 22.7269 115.656 22.4393C115.45 22.1801 115.293 21.8926 115.153 21.5969C114.954 21.3296 114.81 21.038 114.677 20.7383C114.486 20.467 114.354 20.1673 114.229 19.8635C114.049 19.5841 113.928 19.2763 113.819 18.9604C113.663 18.6607 113.574 18.3407 113.523 18.0046C113.441 17.6684 113.457 17.3364 113.554 17.0083L113.655 16.5182C113.769 15.6839 114.084 14.9549 114.708 14.392C114.888 14.3758 115.067 14.3596 115.251 14.3393C115.617 14.3717 115.964 14.473 116.292 14.635C116.444 14.7322 116.592 14.8416 116.748 14.9347C117.037 15.1494 117.29 15.4126 117.524 15.688C117.766 15.9432 117.973 16.2347 118.164 16.5263C118.382 16.7896 118.558 17.0852 118.729 17.3809C118.749 17.3647 118.979 17.8183 118.998 17.8021C119.209 18.0572 119.373 18.3448 119.525 18.6364C119.732 18.8915 119.888 19.175 120.036 19.4626C120.239 19.7137 120.395 19.9931 120.543 20.2766C120.746 20.5237 120.902 20.7991 121.054 21.0785C121.257 21.3256 121.409 21.601 121.557 21.8804C121.756 22.1275 121.904 22.4029 122.044 22.6824C122.239 22.9254 122.391 23.1967 122.544 23.468C122.746 23.707 122.906 23.9743 123.054 24.2456C123.257 24.4846 123.409 24.7519 123.554 25.0273C123.753 25.2662 123.901 25.5376 124.041 25.8089C124.232 26.0479 124.388 26.3071 124.544 26.5703C124.755 26.7971 124.919 27.0523 125.082 27.3074C125.301 27.5302 125.472 27.7813 125.644 28.0405C125.663 28.0283 125.909 28.4211 125.929 28.409C126.151 28.6317 126.326 28.891 126.49 29.1542C126.705 29.3851 126.869 29.6483 127.021 29.9156C127.22 30.1424 127.38 30.3976 127.532 30.6487C127.727 30.8471 127.89 31.0779 128.054 31.2966C128.257 31.4465 128.444 31.6247 128.659 31.7705C128.963 31.811 129.244 31.8596 129.552 31.8232C129.911 31.6369 130.242 31.5073 130.574 31.3331C133.226 29.5471 131.151 28.0283 130.262 26.6311C126.514 20.7546 122.731 14.8983 118.924 9.05817C117.735 7.23567 116.21 5.42533 117.661 2.98724C117.949 1.87754 117.364 -0.244662 119.736 1.05944C122.848 2.57008 125.004 5.08513 126.814 8.04567C130.273 13.7035 134.025 19.1508 137.773 24.197C139.875 25.0516 140.924 23.8892 141.965 22.7917C142.125 22.5001 142.312 22.2044 142.457 21.9088C142.492 21.6212 142.566 21.3296 142.601 21.038C142.535 20.7586 142.504 20.4792 142.437 20.1997C142.293 19.9365 142.195 19.6611 142.086 19.3857C141.911 19.1265 141.786 18.851 141.665 18.5675C141.486 18.3043 141.357 18.0168 141.24 17.7211C141.064 17.4457 140.944 17.15 140.838 16.8422C140.682 16.5466 140.593 16.2307 140.542 15.9026C140.46 15.5705 140.472 15.2425 140.565 14.9144L140.667 14.4285C140.776 13.578 141.107 12.8449 141.72 12.2576L141.689 12.3103C141.934 12.7517 142.351 13.0271 142.683 13.3835L142.671 13.3714C142.987 13.7318 143.33 14.068 143.646 14.4285L143.654 14.4446C144.274 14.9752 144.056 15.9755 144.715 16.4818L144.688 16.4615C144.984 16.8544 145.331 17.1946 145.682 17.5348L145.67 17.5267C145.986 17.8871 146.329 18.2193 146.641 18.5838L146.653 18.608C147.277 19.1345 147.067 20.1592 147.78 20.629L147.8 20.6533Z" fill="#565757"></path></svg>