<svg xmlns="http://www.w3.org/2000/svg" width="4" height="6" viewBox="0 0 4 6" fill="none"><path d="M3.29957 0.802416C3.20119 0.769625 3.0504 0.743385 2.85366 0.723711C2.65691 0.704036 2.42077 0.690918 2.14532 0.690918C1.8502 0.690918 1.58133 0.736833 1.33868 0.822089C1.08947 0.913904 0.87962 1.04506 0.695992 1.22869C0.512363 1.41232 0.374625 1.6353 0.269694 1.90418C0.164764 2.17307 0.112305 2.49442 0.112305 2.85512V3.68801C0.112305 4.04871 0.164764 4.37006 0.269694 4.63894C0.374625 4.90783 0.518921 5.13736 0.695992 5.31443C0.87962 5.49806 1.08947 5.62923 1.33868 5.72105C1.58789 5.81286 1.85676 5.85221 2.14532 5.85221C2.42077 5.85221 2.65691 5.83909 2.85366 5.81286C3.0504 5.78663 3.20119 5.76039 3.29957 5.73415C3.37827 5.71448 3.4308 5.68825 3.45047 5.65546C3.4767 5.62267 3.48322 5.5702 3.48322 5.49806V4.91438C3.48322 4.86848 3.47013 4.83569 3.43734 4.80946C3.40455 4.78978 3.37173 4.77667 3.31926 4.77667H3.293C3.20119 4.78978 3.12249 4.79634 3.04379 4.80946C2.96509 4.81602 2.8864 4.82257 2.80114 4.82913C2.71588 4.82913 2.62411 4.82913 2.51262 4.83569C2.40769 4.83569 2.28312 4.83569 2.13884 4.83569C2.03391 4.83569 1.92891 4.81601 1.82398 4.78322C1.72561 4.75043 1.63384 4.68485 1.54859 4.59959C1.46989 4.51434 1.40427 4.39629 1.35181 4.23889C1.29934 4.08805 1.27311 3.89787 1.27311 3.66178V2.82889C1.27311 2.59935 1.29934 2.4026 1.35181 2.25177C1.40427 2.10093 1.46989 1.98288 1.54859 1.89106C1.62728 1.80581 1.71905 1.74679 1.82398 1.70744C1.92235 1.67465 2.02735 1.65497 2.13884 1.65497C2.28312 1.65497 2.40769 1.65497 2.51262 1.65497C2.61755 1.65497 2.71588 1.66153 2.80114 1.66153C2.8864 1.66153 2.96509 1.66809 3.04379 1.68121C3.12249 1.68777 3.20119 1.70088 3.293 1.714H3.31926C3.36517 1.714 3.40455 1.70088 3.43734 1.68121C3.47013 1.66153 3.48322 1.62874 3.48322 1.57628V0.992598C3.48322 0.920458 3.47015 0.867989 3.45047 0.835199C3.42424 0.802408 3.37827 0.776178 3.29957 0.756504" fill="#0B5463"></path></svg>