<svg xmlns="http://www.w3.org/2000/svg" width="56" height="46" viewBox="0 0 56 46" fill="none"><path d="M1.41024 25.4468C12.0572 17.7194 22.9108 10.3161 33.8892 3.10708C35.3244 2.16343 36.8376 1.5073 38.5497 1.40605C39.0099 0.778302 39.9225 1.07394 40.3749 0.429989L40.488 0.401661C42.36 0.162711 42.824 1.77866 43.0307 2.9815C44.1383 9.50199 47.9798 14.1393 52.4765 18.0394C53.3033 21.7816 52.847 25.2484 52.9328 28.6868C53.0186 32.1333 52.9679 35.507 54.4187 38.828C55.4366 41.1608 55.6511 43.9067 53.2604 45.7008C44.4699 47.3168 38.7018 41.6994 33.7176 36.1793C29.5134 31.5218 24.6892 29.517 19.2058 28.0752C16.1638 27.2774 13.1609 26.3257 10.5011 25.4549C7.40452 25.6048 6.14483 28.4478 3.78145 29.3348C1.73006 28.7759 0.193449 28.0307 1.41414 25.4427L1.41024 25.4468Z" fill="#333333"></path></svg>