<svg xmlns="http://www.w3.org/2000/svg" width="38" height="51" viewBox="0 0 38 51" fill="none"><path d="M16.0685 20.4357H16.062L3.87691 11.6346C3.21453 11.1558 2.28329 11.2149 1.6865 11.8117C1.02412 12.474 1.03068 13.5496 1.6865 14.2054L9.94322 22.4162L1.43729 29.44C0.807702 29.9581 0.630653 30.8697 1.05038 31.5977C1.52256 32.4043 2.5587 32.6798 3.36535 32.2141L15.839 24.9674C16.1538 24.7837 16.4489 24.528 16.6719 24.2132C17.5441 22.9999 17.2753 21.3079 16.062 20.4357" fill="#2BB49B"></path><path d="M35.5921 32.4433L23.0267 25.0194C22.5873 24.7571 22.0692 24.6194 21.5118 24.6391C20.0034 24.7046 19.1377 25.6556 19.1377 27.2492C19.1377 32.7843 19.1574 43.7561 19.1574 49.383C19.1574 50.229 19.8722 50.9373 20.7379 50.9964C21.6691 51.0554 22.4758 50.3471 22.5349 49.4158L24.2531 31.6301L34.1165 35.4732C34.8773 35.7683 35.7627 35.4797 36.1889 34.7583C36.6677 33.9517 36.3988 32.9155 35.5921 32.4367" fill="#0B5463"></path><path d="M37.0358 12.1656C36.7866 11.2671 35.8553 10.7359 34.9503 10.9851L24.1817 13.956L22.5226 1.41677C22.3914 0.603555 21.6765 -0.0129109 20.824 0.000205436C19.8927 0.0133218 19.1517 0.787188 19.1582 1.71845C19.191 5.75172 19.1582 13.8183 19.1582 17.845C19.1582 20.042 21.3946 20.9077 22.7521 20.2846L36.1045 14.1527C36.8456 13.8117 37.2522 12.9788 37.0293 12.1656" fill="#3F7DBF"></path></svg>