<svg xmlns="http://www.w3.org/2000/svg" width="99" height="132" viewBox="0 0 99 132" fill="none"><path d="M2.58673 0.314637C5.9641 5.89553 8.62782 11.8693 11.4982 17.7256C22.227 39.6279 32.8076 61.6113 43.7627 83.3921C48.4699 92.7476 53.0563 102.164 57.7129 111.544C58.3915 112.908 58.8751 114.447 60.946 115.602C68.1765 113.034 74.5919 107.465 82.076 104.926C83.9753 105.562 84.4979 107.097 85.2389 108.425C88.4837 114.265 91.6934 120.13 94.9888 125.937C95.7766 127.326 96.3772 129.392 98.6977 128.116C98.6002 129.59 97.4458 130.356 96.658 131.364C93.3158 129.509 92.3641 125.824 90.6442 122.762C87.8089 117.72 85.4222 112.394 81.7172 107.263C74.4165 111.207 67.2834 115.063 60.3727 118.797C57.7753 117.169 56.8626 114.901 55.8174 112.775C46.0597 92.9298 36.3683 73.0485 26.5716 53.2237C17.9955 35.8655 9.31031 18.5679 0.671875 1.24611C1.14377 0.565707 1.80283 0.306537 2.58673 0.314637Z" fill="#525252"></path></svg>