<svg xmlns="http://www.w3.org/2000/svg" width="56" height="51" viewBox="0 0 56 51" fill="none"><path d="M41.7634 0.807277C43.3585 1.04623 44.5401 2.0101 45.3981 3.31825C48.5766 8.16204 51.7005 13.0463 54.7971 17.9468C55.1324 18.4814 55.1558 19.2307 55.2728 19.6964C54.4577 21.8753 52.6481 22.5922 51.1662 23.633C39.3453 31.9517 27.505 40.238 15.6647 48.5243C14.1593 49.5773 12.7124 50.8206 10.7118 50.6586C6.56998 44.8023 3.24726 38.4641 0.330078 32.4499C0.638176 29.6918 2.19812 28.5659 3.6918 27.5129C16.3628 18.5827 29.0651 9.70106 41.7595 0.803223L41.7634 0.807277Z" fill="#333333"></path></svg>