<svg xmlns="http://www.w3.org/2000/svg" width="28" height="26" viewBox="0 0 28 26" fill="none"><path d="M14.4661 23.0609C12.3172 23.9073 10.1722 24.7538 7.5709 25.7784C4.60302 21.6515 3.18735 16.755 0.667969 11.8545C6.98202 7.6547 12.637 3.00939 19.4541 0.295898C24.3603 3.88824 25.8111 9.66758 27.6597 15.0298C28.4358 17.2856 26.3415 19.1931 24.2082 20.0598C22.3596 20.8091 20.4798 21.4814 18.6897 22.3602C18.2568 22.5303 17.8279 22.7207 17.4106 22.9232C17.0206 23.15 16.6228 23.3808 16.2289 23.6076C16.0105 23.6441 15.792 23.6846 15.5736 23.7251C15.1252 23.6481 14.7586 23.4254 14.47 23.0609H14.4661Z" fill="#333333"></path></svg>