<svg xmlns="http://www.w3.org/2000/svg" width="5" height="7" viewBox="0 0 5 7" fill="none"><path d="M4.20058 0.517033C3.96449 0.353079 3.68905 0.241587 3.38081 0.176005C3.07258 0.110424 2.74467 0.0776367 2.39709 0.0776367C2.0495 0.0776367 1.48543 0.0907551 1.17719 0.11043C0.875519 0.130104 0.606647 0.162888 0.370552 0.195679C0.278738 0.208795 0.213191 0.235028 0.160726 0.267819C0.108261 0.307168 0.0820312 0.372756 0.0820312 0.458012V6.60302C0.0820312 6.64892 0.101677 6.69483 0.134468 6.72762C0.167259 6.76041 0.213208 6.78009 0.259115 6.78009H1.15102C1.19692 6.78009 1.23623 6.76041 1.26902 6.72762C1.30181 6.69483 1.32154 6.64892 1.32154 6.60302V4.26831C1.41991 4.26831 1.55105 4.28142 1.70845 4.28798C1.86584 4.29454 2.27247 4.3011 2.39052 4.3011C2.7381 4.3011 3.06601 4.26831 3.37425 4.19617C3.68248 4.13059 3.95792 4.01254 4.19402 3.84859C4.43011 3.68463 4.62029 3.46821 4.75801 3.19932C4.89573 2.93044 4.96784 2.60253 4.96784 2.20904V2.13035C4.96784 1.73686 4.89573 1.40894 4.75801 1.14006C4.62029 0.877731 4.43011 0.66131 4.19402 0.503914M3.7349 2.2156C3.7349 2.5763 3.62999 2.84519 3.42668 3.02226C3.22338 3.19933 2.87583 3.29114 2.39709 3.29114C2.35774 3.29114 2.03636 3.29114 1.96422 3.29114C1.89208 3.29114 1.8134 3.29114 1.7347 3.28458C1.65601 3.28458 1.57724 3.28459 1.5051 3.27803C1.43296 3.27803 1.37394 3.27803 1.34115 3.27803V1.14006C1.3805 1.1335 1.43952 1.12694 1.5051 1.12694C1.57069 1.12694 1.64943 1.12694 1.72157 1.12038C1.80027 1.12038 1.8724 1.12039 1.95109 1.11383C2.02323 1.11383 2.35766 1.11383 2.40357 1.11383C2.84953 1.11383 3.18401 1.19253 3.40699 1.34992C3.62997 1.50732 3.74146 1.7762 3.74146 2.15658V2.23527L3.7349 2.2156Z" fill="#0B5463"></path></svg>