<svg xmlns="http://www.w3.org/2000/svg" width="166" height="120" viewBox="0 0 166 120" fill="none"><path d="M100.316 0.452904C106.318 11.6228 112.41 22.7441 118.287 33.9828C122.655 42.3339 126.766 50.8348 130.954 59.2872C131.563 60.5103 132.28 61.7941 132.44 63.1184C133.618 72.8789 136.512 82.449 136.215 92.3431C135.888 103.294 139.277 113.468 141.348 123.925C141.695 125.679 142.845 126.979 143.867 128.348C150.099 136.678 156.327 145.013 162.521 153.377C163.628 154.871 164.966 156.224 165.57 158.079C138.579 158.293 111.583 158.407 84.5914 158.018C72.8837 150.691 62.6307 141.299 51.7224 132.843C36.2669 120.859 21.0492 108.551 5.74957 96.3527C4.05698 95.004 2.50479 93.465 0.628906 91.7802C8.26115 79.5695 17.5392 68.9625 25.265 57.1244C21.3885 52.1794 17.0673 48.3846 12.8787 44.0065C14.6025 38.7294 19.2279 35.3152 21.4431 30.3458C21.1701 29.228 21.6537 28.6448 22.6833 28.4383C27.1409 24.0157 30.0581 18.3214 34.0868 13.5505C39.262 7.42288 45.1822 2.8586 53.6568 3.38915C57.6153 3.6362 61.6049 3.38912 65.579 3.36077C65.852 3.29192 66.1211 3.22306 66.3941 3.15016C70.5437 2.68036 74.7089 2.86668 78.8584 2.96388C84.3808 3.08943 89.8447 3.01653 94.9614 0.537938C96.7944 -0.34901 98.526 0.0965125 100.312 0.461012L100.316 0.452904Z" fill="#333333"></path></svg>