<svg xmlns="http://www.w3.org/2000/svg" width="54" height="45" viewBox="0 0 54 45" fill="none"><path d="M19.5402 8.59093C18.5457 7.99559 17.5512 7.40025 16.5606 6.8049C17.5083 6.77655 18.456 6.75225 19.3998 6.7239C19.8093 6.42419 20.211 6.1164 20.5386 5.71545C22.8435 4.2858 22.4847 2.40662 21.3966 0.381622C16.1238 -9.41126 10.855 -19.2082 5.59003 -29.0051C3.97934 -31.9981 2.38032 -34.9991 0.832031 -37.8989C1.91232 -40.171 3.85842 -40.8959 5.57051 -41.8598C18.0036 -48.8339 30.4523 -55.7715 42.9088 -62.7011C44.2231 -63.4341 45.6037 -64.0376 46.9531 -64.7018C48.8407 -65.6292 50.3305 -66.9131 50.7088 -69.1973C52.0582 -67.6866 52.8148 -65.8358 53.5207 -63.9566C48.2401 -63.1911 44.0048 -59.9147 39.473 -57.4482C29.1576 -51.8309 19.002 -45.8977 8.78408 -40.0819C7.34889 -39.2638 5.64459 -38.798 4.5331 -36.2708C9.75126 -24.3598 17.1144 -13.0239 23.019 -0.898193C24.0603 1.24426 25.5306 3.18421 27.8043 4.30201C29.6255 4.26151 31.3766 3.88891 33.1316 2.65366C34.637 -3.51448 31.1153 -9.62997 32.2463 -16.5352C34.0286 -15.1744 34.1807 -13.6152 34.3796 -12.2058C36.197 0.588165 38.8295 13.2727 38.6423 26.334C38.5838 30.4852 41.3333 33.632 43.8448 36.6412C44.617 37.5686 45.6856 37.1596 46.6567 36.9287C45.6895 40.837 41.7896 41.6186 39.5276 44.1458C38.9231 44.806 38.2796 44.7007 37.6166 44.2511C38.0144 34.3043 31.829 26.9131 28.2722 18.5094C27.7574 17.2903 26.7941 16.2576 26.369 14.9454C25.8269 12.9973 26.2833 10.2636 23.0307 10.4985C21.6735 10.2433 20.2539 10.1056 19.5402 8.59499V8.59093Z" fill="#545454"></path></svg>