<svg xmlns="http://www.w3.org/2000/svg" width="30" height="41" viewBox="0 0 30 41" fill="none"><path d="M11.702 23.4541C11.6981 23.1342 11.6669 22.8183 11.6162 22.5064C11.3081 22.1581 10.996 21.8179 10.6723 21.4818C10.3213 21.1497 10.0171 20.7649 9.68564 20.4085L9.72077 20.3964C8.52348 16.7676 6.07432 13.9488 3.98783 10.8991C2.76324 9.10904 1.47236 7.37562 0.680664 5.25342C2.37325 3.20008 3.99956 1.61655 6.35905 0.822754C9.97042 2.32935 10.6685 6.22542 12.6731 9.00372C17.8171 16.9458 22.9495 24.8959 28.1208 32.8177C28.8579 33.9476 29.8251 34.9196 29.9811 36.3655C29.6028 38.9291 26.9508 38.7266 25.6755 40.1968C24.2286 41.3024 23.4486 40.2251 22.6569 39.1964L22.6375 39.1559C22.3372 38.7833 21.9901 38.4553 21.682 38.0908L21.6976 38.107C21.0736 37.5845 21.2959 36.5923 20.6524 36.082L20.629 36.0415C20.317 35.681 20.0011 35.3287 19.6774 34.9844L19.6852 34.9925C19.3381 34.6523 18.991 34.3121 18.6946 33.9193L18.7219 33.9396C18.0628 33.4293 18.2735 32.4329 17.6651 31.8902V31.8821C17.3336 31.5257 16.9865 31.1896 16.6823 30.8089L16.7056 30.8291C16.0621 30.3067 16.2727 29.3145 15.6604 28.7758L15.6526 28.7636C15.3289 28.4072 14.9857 28.067 14.6776 27.6944L14.6971 27.7107C14.0653 27.1923 14.2838 26.196 13.6481 25.6776L13.6325 25.6452C13.3283 25.2766 12.9812 24.9445 12.6731 24.58L12.6848 24.5962C12.3065 24.26 11.9711 23.8875 11.6942 23.4582L11.702 23.4541Z" fill="#333333"></path></svg>