<svg xmlns="http://www.w3.org/2000/svg" width="54" height="58" viewBox="0 0 54 58" fill="none"><path d="M16.5073 53.5574C13.9684 47.3771 10.6964 41.5735 8.08728 35.4134C5.5679 29.468 2.83011 23.6077 0.423828 17.5408C3.23571 14.9529 32.2125 1.89568 37.5632 0.927734C40.6715 4.31758 41.5841 8.97912 43.4522 13.1223C45.7259 21.5827 50.051 29.1805 53.5141 37.5194C48.7874 40.7959 43.9709 43.0031 39.1505 45.1942C38.6981 45.4007 38.2146 45.5546 37.731 45.668C31.413 47.1908 25.9842 50.1999 21.9595 55.6472C21.3667 56.4531 20.5321 57.0768 19.7599 57.7208C19.5376 57.9071 19.1515 57.8747 18.781 57.9557C17.1625 56.9918 17.377 54.9627 16.5112 53.5574H16.5073Z" fill="#333333"></path></svg>