<svg xmlns="http://www.w3.org/2000/svg" width="11" height="8" viewBox="0 0 11 8" fill="none"><path d="M0.433594 2.03703C2.71508 0.453485 5.38656 1.52673 7.80065 0.870632C8.03074 0.817982 8.22183 0.886787 8.37003 1.07714C8.68592 1.40519 8.97451 1.75352 9.23581 2.13017C9.31771 2.64452 9.39575 3.1629 9.47765 3.67725C9.50105 4.28475 9.89884 4.71812 10.1484 5.21627C10.3707 6.11131 10.7295 7.05902 9.38401 7.35062C9.08371 7.03472 8.80681 6.69853 8.55331 6.34213C8.46751 5.81158 8.38565 5.277 8.29985 4.74645C8.26475 4.143 7.89032 3.71774 7.57832 3.26009C5.40604 1.54694 2.75798 2.80653 0.433594 2.03298V2.03703Z" fill="#BDA15B"></path></svg>