<svg xmlns="http://www.w3.org/2000/svg" width="186" height="138" viewBox="0 0 186 138" fill="none"><path d="M89.551 30.8108C90.6859 29.7537 92.0431 29.207 93.5251 28.9599C97.9204 31.5317 97.7682 37.4487 101.559 40.7778C105.053 40.0083 108.442 38.8986 111.293 36.2013C110.993 31.1429 106.711 27.6437 106.699 22.6338C107.842 21.6497 109.195 21.1475 110.615 20.7911C113.306 21.678 114.191 24.1931 115.357 26.457C116.363 28.4051 117.065 30.5678 118.914 32.0825C122.919 31.9164 126.152 30.098 129.147 27.425C128.652 22.2936 124.974 18.7782 123.586 14.2423C124.647 12.9787 126.117 12.6627 127.599 12.3752C130.423 13.0839 131.269 15.6719 132.408 17.9277C133.476 20.0459 134.174 22.4111 136.659 23.9096C141.729 22.3908 146.576 19.9932 151.108 16.9314C150.476 11.6907 146.553 7.99715 146.775 2.93061C148.21 1.87356 149.771 1.11622 151.522 0.84082C154.77 6.23946 156.837 12.2375 159.532 17.9156C162.527 24.2255 164.715 30.9485 168.596 36.7967C169.142 38.1777 170.499 38.8945 171.181 40.1662C171.361 40.6279 171.447 41.1099 171.462 41.604C171.209 43.1552 171.22 44.6456 171.891 46.136C176.091 55.4833 179.687 65.1385 185.046 73.9027C184.843 76.5271 183.431 77.7056 180.951 77.6084C178.369 76.8673 177.698 74.4211 176.598 72.3354C172.316 64.203 169.438 55.3497 165.183 47.9342C163.495 46.1117 161.447 46.8366 160.219 45.5042C159.501 44.6942 159.282 43.7221 159.357 42.6529C159.481 41.0491 160.687 39.8989 161.17 37.8132C159.505 33.2975 157.251 28.5833 154.661 23.9379C150.476 24.4158 147.247 26.3477 143.558 28.7736C146.069 34.8972 147.54 41.2354 151.993 46.14C152.692 47.2861 152.294 48.5659 152.407 49.785C156.732 62.587 164.025 73.5503 172.063 84.0641C171.4 86.729 169.762 88.0129 167.098 87.8549C163.311 84.1937 161.092 79.3175 158.347 75.5956C159.813 80.0182 162.796 84.3922 164.2 89.5073C163.498 91.7996 162.009 92.9417 159.673 92.8486C157.2 91.8199 156.72 89.2724 155.695 87.1502C153.842 83.323 152.793 79.0745 150.075 75.1946C140.489 78.9611 131.558 83.6956 122.568 88.9403C124.085 94.0555 126.433 98.2513 128.098 102.726C128.933 104.97 130.189 107.133 128.941 109.648C127.626 111.329 126.008 111.701 124.113 110.855C121.741 108.036 122.549 103.937 120.408 100.973C119.331 99.4824 118.933 97.5061 117.135 95.9185C112.764 96.4207 109.304 99.2961 105.607 101.961C105.752 107.019 110.49 109.81 111.048 114.504C110.178 117.076 108.556 118.376 105.841 117.821C103.63 116.403 104.332 112.839 101.001 111.462C91.6999 117.63 82.1918 124.281 73.4442 130.052C71.9856 132.952 73.058 134.981 72.122 136.73C71.2406 137.929 70.0707 138.176 68.7252 137.844C63.5694 133.932 61.327 127.784 58.129 122.438C54.2212 115.901 49.0537 110.037 47.1622 102.07C45.4501 103.269 43.6132 104.444 41.3902 103.306C40.4932 102.69 40.0448 101.791 39.881 100.714C39.725 98.3889 41.944 97.2752 42.5563 95.0963C42.1585 91.2164 40.1306 87.9238 38.2508 84.0763C32.8806 85.9636 28.2863 88.5313 23.5557 90.9451C23.8521 95.4081 25.9697 98.7291 27.1475 101.791C28.7699 103.476 30.4743 102.836 31.812 103.5C33.138 104.197 34.8812 104.051 35.7821 105.61C36.0863 107.218 35.1893 108.251 34.031 108.927C28.4892 112.155 22.9161 115.342 16.5319 116.488C14.4337 115.674 11.8246 116.108 10.3114 113.823C10.1632 111.256 12.8269 110.932 14.0437 108.664C12.7957 104.164 10.2958 99.8713 8.0299 95.7241C5.90832 94.9708 4.12602 96.2668 2.36714 95.5702C1.38434 94.2985 0.740847 92.8688 0.514648 91.2448C2.23454 88.0979 5.44424 87.3608 8.29512 86.0365C10.8613 84.8458 13.5406 83.8778 16.017 81.9986C16.2588 76.7863 11.4736 73.2992 11.3956 68.1963C12.55 67.1068 13.9384 66.5681 15.4477 66.313C19.9872 68.828 19.6713 74.66 23.0292 78.2645C27.0384 78.548 29.9282 75.8345 33.3173 74.0606C32.861 68.7065 29.2692 64.8064 28.4931 59.9059C29.6124 58.776 31.0397 58.371 32.5139 58.0753C37.736 60.1368 37.8491 66.0174 40.7273 70.4116C51.577 65.8149 61.8768 60.4527 72.3561 55.2808C71.7282 50.0037 68.3624 46.1481 67.7268 41.3448C68.7875 40.2554 70.1604 39.8423 71.5448 39.4454C74.0642 40.3607 74.6414 42.8393 75.7334 44.9412C76.8956 47.1768 77.4923 49.8093 80.0234 51.6682C84.8632 49.9551 89.4496 47.3469 93.9775 44.5524C94.1374 39.1618 89.4848 35.7923 89.5316 30.8067L89.551 30.8108Z" fill="#535353"></path></svg>