<svg xmlns="http://www.w3.org/2000/svg" width="40" height="36" viewBox="0 0 40 36" fill="none"><path d="M36.3744 4.9658C29.9629 3.1919 23.4031 2.2077 16.8434 3.09465C12.7133 3.65355 9.42952 6.75993 6.05214 9.20613C5.00305 9.96348 4.52724 11.4255 4.69884 12.8997C8.20492 15.5281 14.8661 16.5285 27.2251 16.2896C26.1799 17.942 25.0723 19.5376 23.5123 20.7243C20.3845 21.1212 17.249 20.4529 14.1407 20.6959C11.2469 20.9227 8.34532 18.8856 5.43984 20.7C4.25815 23.0247 4.25426 25.2805 5.36965 27.4189C8.00993 29.8692 12.8732 27.0706 14.2499 31.8577C12.9161 33.1618 11.5823 34.4699 10.2524 35.774C9.7805 34.4294 8.7392 34.0852 7.49511 34.0042C5.32283 33.8665 3.24806 33.2955 0.732576 32.1696C-0.386715 24.6973 0.584363 17.1117 1.76605 9.49366C5.30723 6.20102 9.31252 3.69807 13.4348 1.54753C16.9604 -0.29117 21.0085 0.466187 24.7057 1.04939C29.5183 1.81078 34.2918 1.77438 39.1005 1.70553C38.4297 3.00153 37.677 4.22869 36.3783 4.95769L36.3744 4.9658Z" fill="#535453"></path></svg>