<svg xmlns="http://www.w3.org/2000/svg" width="174" height="144" viewBox="0 0 174 144" fill="none"><path d="M173.655 130.369C173.924 132.446 172.746 133.916 171.697 135.443C167.021 139.307 161.089 139.007 155.727 140.558C146.488 143.235 137.175 145.556 127.655 141.753C119.196 140.441 111.329 137.023 103.288 134.248C101.934 133.783 100.811 132.539 99.6452 131.571C91.1589 124.537 83.3316 116.793 76.3351 108.158C74.4982 105.89 72.3961 103.999 70.0366 102.31C56.3321 92.4889 42.6705 82.5988 29.0206 72.6925C26.2477 70.6797 23.1044 69.4728 20.0039 68.2861C16.2326 66.8443 13.3505 64.5359 11.147 61.0893C9.31011 58.2098 7.0053 55.6866 5.26981 52.7058C2.91423 48.6558 1.30354 44.3547 0.59375 39.4016C0.909648 37.1255 2.68411 36.0927 4.75889 35.0802C11.0807 31.9941 18.0344 30.3823 23.9975 26.5388C33.3769 20.4962 43.5246 16.0817 53.4345 11.1853C61.3865 7.26083 69.5803 3.87098 77.6688 0.242188C80.2623 0.926636 81.2295 3.30402 82.2357 5.38976C99.1304 40.3938 116.891 74.9362 133.747 109.965C134.624 111.791 135.264 113.836 137.592 115.27C141.956 114.586 145.497 111.163 149.608 109.134C159.697 104.153 159.631 104.003 165.243 113.962C168.257 119.312 171.307 124.642 173.651 130.364L173.655 130.369Z" fill="#333333"></path></svg>