<svg xmlns="http://www.w3.org/2000/svg" width="110" height="142" viewBox="0 0 110 142" fill="none"><path d="M103.712 115.276C102.164 116.601 100.46 117.637 98.5681 118.338C91.9187 118.443 85.9712 114.442 79.197 114.495C76.3071 119.642 74.4624 124.867 74.5053 130.703C73.4016 131.857 72.1107 132.602 70.5117 132.683C67.4385 129.326 67.7623 125.494 69.139 121.566C70.7809 116.88 72.5787 112.251 74.3922 106.84C66.097 111.259 58.1644 115.001 50.3372 119.638C52.2287 126.475 55.1381 132.367 58.5154 138.041C56.6591 139.41 54.8183 140.807 52.5056 141.253C48.8708 135.344 46.7999 128.653 43.8554 122.396C41.9834 118.415 39.975 114.466 38.5047 110.291C37.6857 107.962 36.2232 107.136 33.9651 107.517C31.122 106.318 30.2991 104.029 30.7203 101.065C31.122 99.9228 32.2413 99.3437 32.8497 98.1165C32.3622 95.241 31.0089 92.6045 29.7609 90.215C28.3647 88.9635 26.9997 90.1421 25.7791 89.6561C23.6224 88.4897 23.0881 86.6186 23.5912 84.2858C23.9422 82.9047 25.4983 82.3539 25.9 80.1629C24.1645 74.9181 20.9275 69.7139 18.9463 64.6352C16.9612 63.161 15.4246 64.2829 13.9816 63.89C12.0473 63.0517 11.3414 61.5451 11.7313 59.4432C12.1057 57.8718 14.0362 57.4262 14.3092 55.2149C11.1736 46.6047 6.96168 38.0308 2.81211 29.4206C1.57972 26.861 -0.222073 24.3581 0.80362 21.1586C1.35742 20.1785 2.19593 19.8018 3.26062 19.899C7.75339 22.3169 9.05598 27.7722 13.5448 31.162C17.8192 29.8255 22.0312 27.2781 26.1964 24.6618C26.5552 19.3644 21.9727 15.6992 22.7839 10.6326C23.7745 8.72914 25.3267 8.11759 27.3118 8.50639C30.0807 10.0656 30.5799 13.0828 31.6758 15.7558C32.8926 18.7285 33.1578 22.1549 35.5563 24.7631C39.1794 24.6618 42.0069 22.5882 45.0527 21.0978C45.2165 17.2301 43.3601 14.4761 42.1979 11.4912C41.0357 8.51044 39.0585 5.70784 40.0647 2.17625C40.9577 0.912652 42.1511 0.714204 43.5161 1.11515C47.8568 4.80065 49.097 10.422 51.2654 15.3306C54.0733 21.681 57.7471 27.7682 58.6402 34.9326C58.3789 36.0018 57.8173 36.8604 56.9242 37.4679C54.319 38.0551 53.4455 36.0099 52.5407 34.2076C51.5423 32.2231 50.6063 30.2265 48.5861 28.3635C42.7829 29.9956 37.0383 32.2231 31.3131 34.56C31.8864 39.0393 32.994 42.3319 35.4549 45.1548C40.4547 45.1588 44.261 39.6832 49.604 42.0201C49.9199 42.4008 50.1227 42.8422 50.2124 43.3363C50.0447 46.2766 47.7281 47.2 45.7508 48.419C43.6214 49.7312 41.1489 50.4603 39.0039 52.8052C40.638 57.9487 42.3695 63.2177 45.9731 68.2235C51.7022 65.8502 56.9476 62.8451 62.5558 60.7999C65.1649 59.8481 67.6765 58.0459 70.6833 59.3338C71.3268 59.7509 71.7597 60.3341 71.9742 61.0874C71.8182 64.3193 69.2793 65.1131 67.0681 66.2269C63.6556 67.94 59.9584 69.0457 56.4289 71.5364C56.7253 76.3114 58.4218 80.6529 60.7384 85.6992C70.0866 81.4103 78.846 76.2911 88.4282 73.3144C89.4383 73.8328 89.0405 75.1166 89.6996 75.8294C91.6145 78.3242 90.1871 80.7664 89.5319 83.1842C88.7792 85.9666 87.7535 88.6638 86.7785 91.9443C91.7315 88.7691 96.2477 85.9706 100.623 82.2C97.1407 79.1301 91.9616 79.685 89.489 75.5783C89.2823 73.9016 89.5436 72.4719 91.322 71.8523C97.1213 73.2981 102.757 75.1976 107.889 78.466C108.93 80.3249 108.4 82.6253 109.469 84.4883C110.104 88.5423 107.94 91.7904 106.586 95.2815C104.558 100.53 101.4 105.394 101.403 110.935C101.637 113.016 103.607 113.559 103.708 115.268L103.712 115.276Z" fill="#535454"></path></svg>