<svg xmlns="http://www.w3.org/2000/svg" width="40" height="26" viewBox="0 0 40 26" fill="none"><path d="M18.7701 8.19373C22.9899 6.26188 27.194 4.28954 31.4411 2.42249C33.4067 1.55984 35.3918 0.652612 37.607 0.721462C38.2271 2.28881 39.3034 3.6739 39.4321 6.08365C27.9584 13.2845 15.6891 19.4041 3.50564 25.6897C2.01195 23.9158 1.6297 21.7571 1.5049 19.5094C0.771708 18.5698 1.45419 17.2535 0.709293 16.3139C0.662493 15.9575 0.611843 15.5971 0.565043 15.2407C0.405145 14.54 0.440199 13.7058 1.00569 13.3939C6.55925 10.3443 12.144 7.32703 18.7662 8.19778L18.7701 8.19373Z" fill="#333333"></path></svg>