<svg xmlns="http://www.w3.org/2000/svg" width="29" height="31" viewBox="0 0 29 31" fill="none"><path d="M10.7493 30.0801C9.75485 29.8533 8.66288 29.5738 8.23778 28.5694C5.7184 22.5997 2.46976 16.9378 0.667969 10.3849C6.83382 6.52124 13.4598 4.34639 19.6374 0.956543C23.7987 6.96268 25.2573 13.6411 28.5606 19.4164C27.7026 20.3682 27.141 20.9919 26.5833 21.6115C26.5404 21.8343 26.4974 22.053 26.4545 22.2757C26.1698 22.9075 25.7487 23.4218 25.2144 23.8349C24.8361 24.0658 24.4383 24.2602 24.0249 24.4222C20.8542 26.0138 17.6601 27.5609 14.4973 29.1809C13.3 29.7236 12.2664 30.9872 10.7493 30.0801Z" fill="#333333"></path></svg>