<svg xmlns="http://www.w3.org/2000/svg" width="129" height="88" viewBox="0 0 129 88" fill="none"><path d="M0.493638 43.4368C0.00614166 40.2332 0.556057 37.135 1.39065 34.0691C3.96463 31.5217 7.4551 31.3718 10.5946 30.4282C40.4918 21.4534 70.697 13.645 100.68 4.98204C104.635 3.83995 108.788 3.0421 112.992 3.46735C114.552 3.1069 115.89 4.50011 117.458 4.08701C117.992 3.75086 118.468 3.32159 119.01 2.99759C119.961 2.41034 121.12 2.42245 122.083 1.84735C122.508 1.64485 122.945 1.49907 123.405 1.40592C124.372 1.27227 125.269 0.717443 126.291 0.923993C126.818 1.05764 127.266 1.31681 127.66 1.70156C129.087 3.86021 127.839 5.49643 126.837 7.35133C122.606 15.1678 118.476 23.041 114.131 30.7886C112.938 32.9149 112.996 34.7941 113.932 37.1188C118.058 47.3612 116.853 55.6394 109.767 62.0505C105.43 65.975 103.363 70.5271 101.909 75.861C101.413 77.6713 101.015 79.5424 100.107 80.8344C94.9549 89.2422 88.4029 87.9624 81.4415 84.2242C71.5511 78.9147 60.8184 78.1978 49.9882 78.2869C45.6085 78.3234 41.42 78.1168 37.5161 75.6301C34.8563 73.9332 31.8455 73.84 28.823 74.7513C23.5503 76.3429 18.0747 76.918 12.7318 78.1492C11.281 78.4813 9.7834 78.9187 8.46521 77.6997C5.08003 69.9277 4.05824 64.6344 5.05663 59.661C2.66595 56.2266 1.28145 52.2536 1.19565 47.835C0.318158 44.996 2.02632 44.5546 4.0933 44.506C7.82168 44.4169 11.5462 44.4047 14.0227 44.8097C10.384 43.372 5.2984 45.8424 0.493638 43.4327V43.4368Z" fill="#333333"></path></svg>