<svg xmlns="http://www.w3.org/2000/svg" width="49" height="71" viewBox="0 0 49 71" fill="none"><path d="M15.4244 71.0035C12.164 70.3069 11.8832 67.3423 11.8091 64.9204C11.3645 50.3323 6.02546 36.9309 2.65979 23.0597C1.92659 20.0465 0.869697 17.1183 0.608398 13.9877C0.725398 12.6472 1.91885 12.4568 2.72225 11.8493C11.5401 8.4878 20.3228 5.03718 28.6219 0.0273438C32.2567 4.19479 33.2551 9.04671 35.0842 13.3721C36.0085 15.5591 36.964 17.7178 37.9662 19.8683C41.133 26.6723 44.1984 33.5289 47.2326 40.4017C48.2115 42.6171 48.9291 44.9377 47.6616 47.3434C46.2459 48.3721 44.5377 48.4815 42.9465 48.9027C34.1872 51.2233 26.6642 55.407 21.4382 63.4341C19.6832 66.1313 17.4446 68.4884 15.4283 71.0035H15.4244Z" fill="#333333"></path></svg>