<svg xmlns="http://www.w3.org/2000/svg" width="12" height="10" viewBox="0 0 12 10" fill="none"><path d="M11.4801 0.46401H10.6669C10.621 0.46401 10.5751 0.483675 10.5423 0.516466C10.5095 0.549257 10.4898 0.595172 10.4898 0.647638V5.82203C10.4898 5.96631 10.4702 6.05157 10.4243 6.0778C10.3783 6.10404 10.2866 6.11715 10.1423 6.11715H9.39466C9.35531 6.11715 9.30942 6.11715 9.25039 6.10403C9.19137 6.09092 9.13234 6.0778 9.07988 6.05813C9.02741 6.03846 8.97488 6.01222 8.93554 5.97287C8.88963 5.93352 8.86339 5.88761 8.85028 5.82859C8.86339 5.76957 8.86997 5.71054 8.86997 5.64496V4.93668C8.86997 4.2743 8.69295 3.78244 8.34536 3.44797C7.99122 3.12006 7.51243 2.94955 6.90908 2.94955C6.30573 2.94955 5.80732 3.12007 5.44662 3.45453C5.08592 3.789 4.90232 4.28742 4.90232 4.94323V5.69087C4.90232 5.78269 4.89574 5.85482 4.87607 5.90728C4.86295 5.95319 4.84328 5.99255 4.80393 6.02534C4.77114 6.05813 4.72519 6.0778 4.67272 6.08436C4.62026 6.09747 4.56779 6.10404 4.50877 6.1106C4.44975 6.1106 4.40386 6.1106 4.36451 6.1106H3.36109V3.57914C3.36109 3.53323 3.34801 3.49388 3.31522 3.46109C3.28243 3.4283 3.24304 3.40862 3.19713 3.40862H2.41675C2.36428 3.40862 2.31841 3.4283 2.28562 3.46109C2.25283 3.49388 2.2331 3.53323 2.2331 3.57914V7.59274C2.2331 7.77637 2.21346 7.92065 2.18723 8.02558C2.15444 8.13051 2.10198 8.20921 2.02984 8.26168C1.9577 8.31414 1.86585 8.34692 1.7478 8.3666C1.62976 8.37972 1.49202 8.38627 1.32151 8.38627H1.13137C1.033 8.38627 0.980469 8.43219 0.980469 8.51744V9.17982C0.980469 9.27819 1.01986 9.33065 1.10512 9.35032C1.18381 9.36344 1.28216 9.37 1.40677 9.37C1.53137 9.37 1.61664 9.37 1.66911 9.37C2.04292 9.37 2.35117 9.31754 2.58727 9.21261C2.82336 9.10768 3.01354 8.92404 3.15126 8.67483C3.21684 8.55023 3.26273 8.3994 3.28896 8.22888C3.31519 8.05837 3.32835 7.86818 3.32835 7.66488V7.24516H4.31864C4.51538 7.24516 4.70558 7.22548 4.90232 7.17957C5.09251 7.14022 5.24988 7.05497 5.36793 6.93692C5.51221 7.10743 5.72205 7.2386 6.00405 7.32385C6.28605 7.40911 6.58115 7.44846 6.88282 7.44846C7.1845 7.44846 7.45994 7.40911 7.7026 7.32385C7.94525 7.2386 8.14202 7.11399 8.29941 6.93692C8.45681 7.04185 8.62735 7.12055 8.8241 7.16646C9.02084 7.21237 9.21753 7.23859 9.42083 7.23859H9.93239C10.0504 7.23859 10.1816 7.23859 10.3324 7.23859C10.4767 7.23859 10.621 7.23204 10.7587 7.21892C10.8964 7.21236 11.0211 7.19925 11.1392 7.18614C11.2572 7.17302 11.3424 7.1599 11.408 7.14022C11.4801 7.10743 11.526 7.07464 11.5588 7.03529C11.585 6.99594 11.6048 6.94348 11.6179 6.88446C11.6376 6.7205 11.6506 6.54999 11.6572 6.35325C11.6572 6.1565 11.6638 5.97943 11.6638 5.82203V0.627964C11.6638 0.575499 11.6441 0.529583 11.6113 0.496793C11.5785 0.464002 11.5391 0.444336 11.4932 0.444336M7.73542 5.40887C7.73542 5.75645 7.66988 6.01222 7.53216 6.16962C7.39444 6.32701 7.17794 6.40571 6.88282 6.40571C6.65329 6.40571 6.46968 6.3598 6.33196 6.26799C6.18768 6.17617 6.0959 6.02534 6.04344 5.80892C6.02376 5.68431 6.01718 5.55315 6.01718 5.40887V5.02849C6.01718 4.66779 6.0828 4.40547 6.22052 4.24151C6.35824 4.07756 6.58115 3.99886 6.88282 3.99886C7.1845 3.99886 7.40748 4.07756 7.53864 4.24151C7.66981 4.40547 7.74198 4.66779 7.74198 5.02849V5.40887H7.73542Z" fill="#0B5463"></path></svg>