<svg xmlns="http://www.w3.org/2000/svg" width="235" height="184" viewBox="0 0 235 184" fill="none"><path d="M229.257 43.9089C230.634 47.3919 232.006 50.8708 233.383 54.3538C234.592 60.1008 234.479 65.4873 229.565 69.5697C227.05 71.299 224.218 72.3723 221.387 73.2997C205.159 78.6255 193.073 91.0062 179.15 100.2C167.134 108.134 155.715 117.096 144.101 125.699C134.507 132.802 124.706 139.598 115.257 146.912C113.989 147.726 112.78 148.626 111.548 149.492C106.127 152.813 100.655 156.142 95.6634 160.055C86.3736 167.336 75.8242 171.548 64.955 175.214C60.2399 176.801 55.5015 178.352 50.8995 180.252C44.1525 183.038 37.3081 184.46 30.0697 183.046C22.0748 181.698 13.9356 181.686 5.56623 180.592C4.55224 172.65 13.5066 165.806 6.67382 158.256C10.7415 154.563 14.0019 151.039 19.4501 151.999C21.9617 144.661 14.9067 145.58 12.8085 142.737C12.2235 141.643 12.1806 140.57 12.5706 139.606C14.1423 135.706 13.179 132.64 10.1058 129.971C7.16521 127.416 5.04753 124.01 2.23565 121.296C1.51026 120.596 0.492364 119.834 0.543064 118.809C1.00326 109.883 -2.18692 100.605 3.58894 92.1767C6.36182 88.1308 8.3196 83.4409 11.0574 79.3261C13.6119 75.4867 13.0776 71.0965 13.5885 66.3175C24.6644 62.6887 34.9057 56.1763 47.1633 56.3869C50.7864 56.4477 54.3081 55.0707 58.0131 55.2691C60.2399 55.3866 61.3982 53.2441 62.693 51.7294C67.8137 45.7435 72.0139 39.1218 74.35 31.4471C76.3312 24.9388 80.8669 21.7068 86.8416 20.2367C97.1532 17.7054 107.621 15.7048 116.801 9.70671C119.235 8.11911 122.086 8.2001 124.57 8.82784C128.419 9.79579 132.031 9.77149 135.821 8.72254C140.536 7.41439 145.291 7.25241 149.67 9.7472C152.533 7.6007 155.099 5.60001 157.267 3.31581C160.138 0.290466 162.895 -0.114529 166.682 1.09237C174.115 3.46161 181.751 5.1545 189.161 7.60879C194.422 9.35029 199.176 8.26087 204.114 6.42623C209.032 4.60373 214.043 2.02387 219.32 5.49876C220.513 9.03036 221.285 12.6268 221.18 16.2475C219.706 17.0939 218.891 15.2998 217.705 15.8546C217.619 16.1705 217.374 16.5796 217.483 16.7618C219.772 20.6498 221.044 25.1372 224.273 28.4987C225.4 29.6691 225.466 31.6617 225.536 33.4032C226.543 36.9267 223.727 39.3729 222.709 42.2484C224.998 43.836 227.861 40.5555 229.253 43.9089H229.257Z" fill="#333333"></path></svg>