<svg xmlns="http://www.w3.org/2000/svg" width="70" height="72" viewBox="0 0 70 72" fill="none"><path d="M68.6572 0.611328C69.7804 2.46217 69.7102 4.53984 69.7102 6.60534C69.6907 22.9349 69.6791 39.2685 69.6635 55.5981C65.6192 55.8411 61.8557 57.0115 58.2404 58.9434C51.1386 62.7382 43.9743 66.4116 36.8101 70.0768C35.3632 70.818 34.006 72.0168 32.2549 71.6442C30.9835 71.0002 30.7807 69.7407 30.4141 68.6188C28.1209 61.584 25.2857 54.6747 24.0338 47.3644C22.6103 39.0498 17.8289 33.473 11.7333 28.6737C7.38089 25.2434 3.14159 21.7118 0.0996094 16.1349C7.25606 11.3073 14.319 6.51217 21.4208 1.77773C23.3318 0.50603 25.5509 0.627544 27.7231 0.627544C41.3691 0.627544 55.0151 0.619432 68.6611 0.615382L68.6572 0.611328Z" fill="#333333"></path></svg>