<svg xmlns="http://www.w3.org/2000/svg" width="124" height="104" viewBox="0 0 124 104" fill="none"><path d="M69.3237 101.522C68.7972 96.7871 70.4196 93.4702 74.9865 91.9028C76.4138 91.4128 77.6346 90.4043 77.6463 88.3145C76.2345 86.2652 73.6878 86.168 71.6754 85.0948C65.334 81.7171 58.6807 80.5871 51.4852 80.5547C43.4474 80.5223 35.1249 80.6803 27.6759 76.3387C26.6424 75.7353 25.4373 75.4679 24.279 75.6907C17.2708 77.0434 10.1923 78.0761 4.01088 80.1133C2.41579 81.4741 2.53671 82.7661 2.32221 83.9324C1.10932 82.4137 0.984517 80.4818 0.46582 78.7039C7.44677 76.3428 14.7982 75.6947 21.8806 73.775C24.8602 72.9691 27.8709 73.451 30.5463 75.1844C33.9393 77.3795 37.6364 78.0437 41.5559 77.7197C48.0689 77.1851 54.4687 78.8821 60.9661 78.7808C62.9941 78.7484 64.8465 79.7002 66.6951 80.4778C70.5522 82.0937 74.382 83.7867 78.2585 85.354C80.2514 86.16 82.2287 87.1967 84.6428 86.8201C86.6279 85.1515 87.9929 82.596 90.7384 81.6118C91.9123 77.7967 93.2384 74.0707 94.1743 70.2394C94.8256 67.5745 95.9176 65.6953 98.2771 64.1604C104.825 59.8998 108.16 50.1636 106.217 42.339C105.609 39.8888 103.542 38.4065 102.704 36.2235C102.501 34.2431 103.628 32.8985 104.447 31.4081C109.072 23.0124 113.678 14.6047 118.28 6.19282C118.861 5.13172 119.473 4.04231 118.432 2.88806C118.136 1.92821 118.67 1.44622 119.399 1.07767C121.806 0.409426 122.324 2.5843 123.385 3.93699C116.853 14.1065 110.262 24.2356 104.833 35.7943C109.131 39.8645 108.226 45.498 108.546 50.9615C108.908 57.162 103.554 60.078 101.99 65.1729C98.1016 66.2988 96.5494 69.1459 95.6251 72.9772C94.537 77.4929 92.9146 81.8426 93.3319 86.6257C93.4801 88.3388 93.2734 90.1087 94.654 91.433C93.8935 92.5751 92.7898 93.1178 91.5184 93.377C90.0911 92.9072 89.8765 91.3277 89.0146 90.3881C83.3441 90.9389 78.9918 94.2154 74.4288 97.9454C73.1691 99.1118 74.1363 101.785 72.276 103.093C70.8096 103.542 69.8151 103.04 69.3159 101.526L69.3237 101.522Z" fill="#525252"></path></svg>