<svg xmlns="http://www.w3.org/2000/svg" width="42" height="44" viewBox="0 0 42 44" fill="none"><path d="M0.444173 43.3127C0.151675 40.9191 1.14229 38.9914 2.41758 37.1041C10.0342 25.8208 17.6157 14.5132 25.2012 3.20564C26.0553 1.93394 26.7768 0.544783 28.4733 0.00208359C30.669 -0.0141164 32.1197 1.48034 32.9114 3.40814C34.0736 6.24314 34.3076 9.45071 36.0041 12.0994C37.6499 14.6712 39.2723 17.2591 41.1989 20.3088C33.8669 25.999 26.3712 30.9481 19.4643 35.557C17.3311 35.8121 16.8552 34.3217 15.6931 33.8195C10.3189 36.4196 6.11085 41.1419 0.463692 43.333L0.45198 43.3127H0.444173Z" fill="#333333"></path></svg>