<svg xmlns="http://www.w3.org/2000/svg" width="100" height="108" viewBox="0 0 100 108" fill="none"><path d="M0.688477 83.3832C1.08627 82.1884 1.79224 81.2164 2.70873 80.3943C5.98081 79.5154 8.14525 82.4598 11.1443 83.1321C13.7963 80.9532 15.5318 78.183 16.4288 74.8499C15.3524 71.7192 11.2028 71.4114 10.8362 67.8636C11.4875 66.272 12.3455 64.8221 13.574 63.6354C15.7892 63.4815 17.2673 64.895 18.8233 66.2153C27.0601 73.1975 36.0535 78.997 44.6997 84.3349C46.4976 84.1527 47.1528 83.3589 47.6442 82.4476C48.042 81.7105 48.4827 80.941 48.2214 79.3656C45.1131 76.2511 40.9596 73.7118 37.0674 70.8566C32.1847 67.2723 27.0992 63.9959 22.31 60.2699C20.7266 59.0387 18.952 57.9128 18.9208 55.4787C19.303 54.3326 19.7282 53.2148 20.7227 52.4655C27.103 54.7416 32.0794 59.4194 37.5666 63.2021C42.5196 66.6162 47.2424 70.3949 52.1603 73.2177C54.5042 72.8977 55.019 71.6058 54.9488 69.273C46.7706 63.1373 38.023 57.2486 29.5249 50.9994C27.6686 49.6346 25.3403 48.7072 24.7397 46.022C25.157 44.8556 25.7224 43.7864 26.6584 42.9683C29.8174 42.5228 31.9936 44.5802 34.2517 46.2852C41.2365 51.5705 48.5607 56.3252 55.7249 61.331C56.8364 62.1086 57.9166 62.8983 59.9563 63.0441C64.9717 56.7788 69.7726 49.9505 73.6726 42.3163C70.498 38.8211 67.1323 36.4964 63.1427 34.8926C59.9915 37.2578 58.3964 40.7489 56.2358 43.7338C54.4146 46.2528 52.1214 48.5208 49.1262 47.0466C42.7341 43.8998 36.4473 40.4087 31.779 34.5929C32.4342 32.9851 33.2065 31.4542 34.5324 30.3121C38.4792 31.4906 41.178 34.7792 44.645 36.7678C46.5053 37.8329 48.0108 39.6311 50.5614 39.785C53.0651 37.1647 55.2413 34.2446 56.3294 30.3364C53.4747 27.2584 49.8125 25.4804 46.6341 23.0342C44.9025 21.7018 42.9096 20.6123 42.7536 17.9879C43.2255 16.8499 43.6077 15.6511 44.6373 14.8776C46.3689 14.9505 47.8158 15.72 49.2237 16.7244C58.0064 22.9978 67.1362 28.7245 75.9657 34.9169C82.0341 39.1735 82.4202 41.9518 78.1887 48.124C71.434 57.9776 65.1824 68.1714 59.0477 78.2842C59.2349 80.779 60.6194 82.1601 62.6318 84.2458C73.7428 67.9932 83.8281 51.6596 94.0343 35.7431C92.9033 33.0944 90.9572 32.3168 89.3466 31.1828C78.5826 23.6296 67.7017 16.2586 56.9573 8.67702C55.0424 7.32837 52.8506 6.21056 52.6673 3.35127C53.1002 2.17272 53.5526 1.01039 54.5588 0.208496C55.1516 2.45219 57.0626 3.34318 58.7006 4.47718C70.7359 12.8323 82.7946 21.1429 94.8221 29.5142C96.4562 30.6523 98.3594 31.4866 99.3812 33.2767C99.8492 35.0992 98.9561 36.4154 98.1254 37.6871C86.8233 54.9806 76.0398 72.6426 64.3672 89.6809C63.9889 90.2317 63.4897 90.6894 62.8891 91.3698C58.7747 89.5513 57.9479 84.5617 54.6837 82.233C53.0652 82.0629 52.5269 83.2617 51.899 84.2296C48.2838 89.8186 44.7348 95.4522 41.0844 101.017C39.6999 103.127 38.6625 105.597 35.7337 107.104C32.0755 105.099 28.5109 102.333 24.8683 99.7047C18.1759 94.8771 11.4719 90.0657 4.77174 85.2462C3.52764 84.3511 2.19387 83.6667 0.688477 83.3872V83.3832Z" fill="#525353"></path></svg>