<svg xmlns="http://www.w3.org/2000/svg" width="304" height="10" viewBox="0 0 304 10" fill="none"><path d="M303.801 -209.318C299.055 -202.619 292.955 -197.715 285.584 -194.495C280.518 -192.28 275.507 -189.923 270.386 -187.861C264.275 -185.399 258.706 -182.11 253.624 -177.777C248.476 -173.386 242.938 -169.494 237.802 -165.092C230.536 -158.867 222.159 -154.578 214.012 -149.892C212.156 -148.823 209.94 -148.422 207.515 -147.58C206.871 -146.555 206.906 -144.716 205.214 -143.813C201.165 -141.647 198.143 -138.087 194.855 -134.928C188.982 -129.282 182.992 -123.823 176.369 -119.1C173.289 -116.901 169.997 -115.358 166.553 -114.099C162.79 -112.722 158.933 -111.604 155.087 -110.474C152.47 -109.704 150.232 -108.412 148.184 -106.517C142.588 -101.337 136.882 -96.2826 131.192 -91.2161C129.41 -89.6285 127.912 -87.8262 126.532 -85.8418C122.784 -80.4553 119.523 -74.9392 119.379 -67.9732C119.348 -66.4828 118.599 -64.9843 118.065 -63.5344C114.434 -53.6808 110.741 -43.8514 107.141 -33.9856C106.353 -31.8311 105.234 -30.0086 103.697 -28.3562C98.4909 -22.7591 93.3586 -17.081 88.1794 -11.4556C85.5274 -8.57195 83.3941 -5.255 80.9762 -2.19321C77.8367 1.77579 74.1122 5.25069 70.5944 8.89162C69.7208 9.79477 68.5742 10.0135 67.0844 9.55988C65.6141 6.39684 66.1797 2.80449 66.1017 -0.488144C65.6727 -19.2882 61.6752 -37.5294 58.5201 -55.9002C54.0156 -82.1158 49.3825 -108.307 44.7961 -134.506C43.9615 -139.269 43.045 -144.02 42.2572 -148.791C41.5123 -153.307 39.4805 -157.243 37.4213 -161.2C34.8161 -166.202 31.6649 -170.936 30.2414 -176.545C30.0386 -177.347 29.5706 -178.137 29.0597 -178.789C21.4937 -188.469 13.1829 -197.407 4.22078 -205.705C2.98059 -206.856 1.83794 -208.119 0.652344 -209.33H303.801V-209.318Z" fill="#333333"></path></svg>