<svg xmlns="http://www.w3.org/2000/svg" width="128" height="52" viewBox="0 0 128 52" fill="none"><path d="M56.3415 -96.0522C57.0786 -93.3509 55.0897 -90.281 57.3711 -87.7862C60.4365 -87.4419 61.197 -84.7851 62.2383 -82.4726C72.464 -59.7886 81.8513 -36.7077 92.2915 -14.1209C100.13 2.84453 107.478 20.057 114.849 37.2533C116.081 40.1247 118.885 41.3114 120.601 43.5996C121.05 43.9601 121.53 44.2922 122.099 44.4501C123.877 44.8754 125.983 44.1221 127.344 46.0013C122.742 49.7921 120.644 50.3955 116.393 49.144C115.122 49.4721 115.742 51.3432 114.576 51.7725C114.061 51.246 114.303 50.7722 114.4 50.3105C112.805 48.1396 110.356 46.6938 109.389 43.9803C105.208 34.2563 100.762 24.6497 97.0533 14.7151C96.7257 12.9007 95.4037 11.6371 94.6393 10.0616C90.4273 -0.444061 85.486 -10.6055 80.9464 -20.9573C71.0483 -43.536 61.0254 -66.0539 50.9908 -88.5638C50.2732 -90.3741 49.9378 -92.2938 49.5283 -94.1933C49.7428 -96.8663 48.877 -99.2072 47.8084 -101.613C32.3684 -136.374 16.9986 -171.167 1.62106 -205.957C1.13746 -207.046 0.782531 -208.197 0.365234 -209.318H3.36824C11.215 -191.567 19.0617 -173.812 26.9085 -156.061C31.9082 -144.749 36.9002 -133.434 41.9312 -122.134C42.9023 -119.955 43.5613 -117.59 45.172 -115.755C50.2732 -110.029 52.5976 -102.605 56.3376 -96.0482L56.3415 -96.0522Z" fill="#E0BD62"></path></svg>