<svg xmlns="http://www.w3.org/2000/svg" width="41" height="34" viewBox="0 0 41 34" fill="none"><path d="M1.49178 22.6191C3.09077 18.9174 2.52136 14.8269 3.43005 10.9916C3.70305 9.83733 3.50417 8.56969 4.17496 7.29799C5.50485 5.41474 7.61863 4.8923 9.82602 5.03C14.9584 5.35805 19.7124 4.35363 24.1467 1.55913C25.0866 0.967833 26.3736 0.971889 27.5007 0.70459C31.5723 4.23213 35.6478 7.75971 40.2263 11.7247C36.6578 16.5684 29.9343 17.994 27.9024 24.0933C27.2433 26.1426 28.9866 28.1392 27.6723 30.9378C19.2952 33.0478 10.3915 33.5176 1.29288 32.6145C0.115085 28.9938 2.05728 25.8267 1.49568 22.6191H1.49178Z" fill="#333333"></path></svg>