<svg xmlns="http://www.w3.org/2000/svg" width="59" height="87" viewBox="0 0 59 87" fill="none"><path d="M12.4709 14.4712C12.4709 14.135 12.4709 13.7989 12.4787 13.4668C11.8508 12.9282 12.1199 11.944 11.5154 11.3972C10.166 8.30302 8.81275 5.20886 7.46336 2.11872C7.69346 1.81902 7.94695 1.54766 8.23164 1.30061C8.71914 0.968511 9.23004 0.693086 9.79554 0.514886C10.2089 0.401487 10.6184 0.38531 11.0435 0.43796C11.4725 0.55541 11.8586 0.753836 12.2213 1.02114C14.6549 3.62933 15.0371 7.30269 16.7297 10.2997C17.1547 11.6483 18.0752 12.7338 18.6173 14.0217C21.2615 20.9836 23.6677 28.063 27.829 33.899C33.2422 34.2676 36.4011 28.2695 41.6661 30.0434C42.6606 31.226 43.23 32.6192 43.5342 34.1379C42.3798 37.1147 39.5172 37.4468 37.1733 38.601C35.2506 39.5447 33.1368 40.1117 31.3545 41.6426C31.6275 45.8343 34.5136 48.8961 35.3911 52.7112C35.4808 54.0801 36.2451 55.1696 36.8145 56.3441C36.9549 56.7572 37.1148 57.1622 37.3098 57.555C37.7973 58.3043 38.2185 59.09 38.6358 59.8838C40.1022 62.5487 41.0811 65.5173 43.1637 67.8582C48.2258 67.7043 51.6695 62.901 56.7005 63.1764C57.7691 64.7559 58.0382 66.6392 58.5452 68.4333C53.2178 69.3446 49.002 72.8721 44.0685 74.3301C43.7955 77.7807 45.8235 79.7409 46.3968 82.183C45.0942 83.155 46.2836 85.4676 44.4273 86.148C44.1348 86.1277 43.8384 86.0994 43.5498 86.0589C43.3392 82.665 41.5179 80.0365 39.8058 76.8492C33.5853 78.5704 28.1137 81.6484 22.4276 84.127C21.0743 84.9208 20.3333 83.8475 19.4909 83.0902C19.1594 82.3815 18.8278 81.6686 18.4963 80.9599C18.5002 79.5708 18.5081 78.1816 18.512 76.7965C19.2803 75.8448 20.2475 76.0959 21.2108 76.3065C26.7097 78.8782 30.5278 75.0469 34.8762 72.7587C34.9152 68.6884 33.5542 65.5699 30.9568 62.7471C27.244 63.4477 24.1669 65.3675 21.1444 67.2264C20.2748 70.2396 23.3869 72.4954 22.1584 75.3426C20.2942 77.4486 18.9995 74.4678 17.3342 74.7553C15.0644 70.6122 12.7946 66.469 10.5248 62.3299C11.1722 61.1352 12.0575 60.2887 13.4498 60.1956C19.3544 61.9897 23.4103 58.1787 27.9967 55.5017C27.2596 51.4517 25.5241 48.3939 23.6404 45.3119C19.0931 45.563 15.7196 48.1793 12.272 50.0423C10.8719 51.9093 12.1472 54.0234 11.2151 55.7406C10.3688 57.393 8.84002 56.9597 7.48283 57.0488C5.13895 52.3062 2.79506 47.5637 0.451172 42.8211C0.66177 41.4968 1.35989 40.5896 2.57669 40.1238C5.20137 39.9011 5.65765 43.0722 8.21603 43.8012C12.0809 42.5822 16.2344 41.0918 20.1031 38.1353C19.4791 31.2098 14.6822 26.0379 12.9935 19.6471C12.9272 19.2097 12.9428 18.7642 13.0286 18.3349C13.0754 17.9218 13.0559 17.5046 12.9623 17.0996C12.8258 16.727 12.6464 16.3706 12.4241 16.0426C12.3305 15.8725 12.2369 15.7024 12.1394 15.5323C12.077 15.1273 12.1862 14.7749 12.4709 14.4874V14.4712Z" fill="#555555"></path></svg>