<svg xmlns="http://www.w3.org/2000/svg" width="65" height="87" viewBox="0 0 65 87" fill="none"><path d="M36.4045 4.43349C31.0304 5.74163 27.341 9.81595 22.5674 13.0114C26.9198 24.4769 30.9095 35.7116 36.0067 46.7033C40.9675 44.6256 45.55 42.6695 50.1597 40.7984C51.5481 40.2354 52.3281 39.2877 52.6089 37.8217C53.8062 39.2634 54.1416 41.0657 54.5628 42.8315C52.8312 45.7718 49.6294 46.0674 47.0008 47.412C44.8051 48.5379 42.1883 48.8579 40.2773 51.0854C40.5893 54.783 41.4979 58.3065 44.107 61.3643C49.5747 60.6515 54.0207 57.5937 58.7358 55.2407C59.9253 56.8161 59.7459 58.6548 59.6601 60.4732C59.1609 63.6646 56.4076 64.1182 54.2353 65.2198C51.8758 66.4146 49.056 66.609 46.9423 68.8527C46.5991 72.6151 48.666 75.5554 49.9647 78.6739C54.8787 78.7671 58.342 75.2112 62.7177 74.952C63.7941 77.6412 64.3362 80.4518 64.5273 83.3476C63.564 82.4485 62.6709 80.946 61.2162 81.5535C57.1251 83.2626 52.4178 83.3759 48.9079 86.5957C47.7184 86.5187 46.5211 86.5471 45.3316 86.4985C44.6023 86.458 43.9237 86.2798 43.3972 85.7088C43.5649 80.5815 42.2779 75.9442 39.0526 71.7403C33.1481 71.8942 28.1133 77.0984 21.8499 75.1059C20.1222 74.0326 19.2252 72.5787 19.8804 70.4281C24.1314 68.2128 29.0843 68.2087 33.3158 65.8719C34.1777 65.3981 35.2228 65.2806 36.2056 64.1547C37.0168 60.3801 34.6105 57.3709 33.0974 53.9932C29.4665 53.4586 26.5649 55.3541 23.484 56.399C21.1323 57.2009 18.8469 58.432 16.3081 57.0793C15.4891 56.403 15.0366 55.5525 15.1185 54.4387C16.0467 51.7981 18.4725 51.2757 20.5902 50.3887C23.6595 49.1008 26.795 47.9709 29.8214 45.0184C27.1421 36.2543 23.4176 27.7371 19.541 19.1066C15.5436 19.7789 13.3518 22.8691 10.4853 24.7564C7.98544 26.4047 5.75468 28.6767 2.4124 28.1826C1.13711 27.7088 0.236209 26.9069 0.162109 25.3922C1.3984 22.0469 4.61585 20.9777 7.05333 19.0418C14.1279 13.4204 21.6236 8.39845 28.8074 2.93095C30.2621 1.82531 31.7831 0.748001 33.6317 0.391602C35.2541 1.22185 35.8117 2.84184 36.4123 4.42943L36.4045 4.43349Z" fill="#535353"></path></svg>