<svg xmlns="http://www.w3.org/2000/svg" width="5" height="6" viewBox="0 0 5 6" fill="none"><path d="M3.84973 1.32071C3.67265 1.12397 3.44974 0.966568 3.18086 0.855079C2.91853 0.74359 2.61028 0.68457 2.25613 0.68457C1.90199 0.68457 1.59374 0.74359 1.33141 0.855079C1.06908 0.966568 0.846092 1.12397 0.662464 1.32071C0.485393 1.51746 0.347674 1.75356 0.25586 2.02244C0.164046 2.29133 0.118164 2.58644 0.118164 2.91434V3.63575C0.118164 3.9571 0.164046 4.25222 0.25586 4.52766C0.347674 4.79654 0.485393 5.03264 0.662464 5.22939C0.839534 5.42613 1.06252 5.58352 1.33141 5.69501C1.59374 5.8065 1.90199 5.86552 2.25613 5.86552C2.61028 5.86552 2.91853 5.8065 3.18086 5.69501C3.44319 5.58352 3.6661 5.42613 3.84973 5.22939C4.0268 5.03264 4.16451 4.79654 4.25633 4.52766C4.34814 4.25877 4.3941 3.9571 4.3941 3.63575V2.91434C4.3941 2.59299 4.34814 2.29789 4.25633 2.02244C4.16451 1.75356 4.0268 1.51746 3.84973 1.32071ZM3.2136 3.63575C3.2136 4.00301 3.13491 4.29812 2.97095 4.51454C2.807 4.73096 2.57093 4.84245 2.25613 4.84245C1.94134 4.84245 1.69871 4.73096 1.54132 4.51454C1.37736 4.29812 1.29859 4.00301 1.29859 3.63575V2.91434C1.29859 2.54709 1.37736 2.25197 1.54132 2.03555C1.69871 1.81913 1.94134 1.70764 2.25613 1.70764C2.57093 1.70764 2.807 1.81913 2.97095 2.03555C3.13491 2.25197 3.2136 2.54709 3.2136 2.91434V3.63575Z" fill="#0B5463"></path></svg>