<svg xmlns="http://www.w3.org/2000/svg" width="115" height="79" viewBox="0 0 115 79" fill="none"><path d="M114.207 0.835938C114.293 1.50419 114.379 2.17242 114.461 2.84066C109.247 5.64326 103.861 8.03682 98.3929 10.2481C97.7065 10.9447 97.0201 11.6373 96.3337 12.3339C93.5803 17.8783 88.4675 20.6728 83.7368 23.8804C82.7618 24.5406 81.5489 24.4838 80.4764 23.7994C79.7471 24.1396 79.0139 24.4838 78.2846 24.824C77.528 26.5898 76.4751 28.0397 74.8839 29.1737C65.2743 36.0101 55.8676 43.1503 46.2698 50.0069C44.2964 51.4163 42.2255 53.3279 39.4331 51.8375C38.7077 52.5301 37.9823 53.2266 37.253 53.9192C37.0151 54.2837 36.8435 54.6806 36.7343 55.1099C36.5939 55.7943 36.2897 56.3937 35.8763 56.9405C32.3352 60.2331 28.5483 63.1734 24.3324 65.49C23.7318 65.7411 23.0922 65.7573 22.4565 65.7735C22.0548 65.8586 21.6844 66.0287 21.3529 66.2838L20.3388 67.3814C19.6018 68.4465 18.3265 68.6895 17.3905 69.4509C15.9553 69.4874 14.4694 69.3294 13.3384 70.5647C12.1567 76.0646 6.86056 79.7176 1.3655 78.8307C1.0145 78.4783 0.663504 78.126 0.316406 77.7736C7.98765 71.0952 16.5364 65.6723 24.6639 59.658C45.8174 44.0048 67.2828 28.8093 88.4714 13.2087C94.4227 8.82659 100.99 6.06852 107.679 3.41173C109.855 2.54908 112.035 1.69454 114.211 0.839991L114.207 0.835938Z" fill="#545555"></path></svg>