<svg xmlns="http://www.w3.org/2000/svg" width="58" height="56" viewBox="0 0 58 56" fill="none"><path d="M5.47277 15.0673C11.8297 12.0298 18.1827 8.98823 24.5397 5.95074C24.5202 4.84509 24.9648 3.99863 25.8579 3.40733C27.3594 2.33003 28.9623 2.04652 30.69 2.76337C32.675 1.94527 34.664 1.12718 36.8129 0.240234C39.0398 2.57303 39.2817 5.86568 40.8923 8.41717C45.7127 16.0474 50.3419 23.8031 55.0765 31.49C56.1529 33.2355 57.3307 34.9082 57.6193 37.0344C58.0171 39.6588 55.9696 40.1732 54.3706 40.9022C44.3282 45.4746 34.2546 49.966 24.1186 54.3117C22.0555 55.1946 19.9417 55.3201 17.8474 55.0204C15.7336 53.6434 15.4489 51.2944 14.6221 49.2694C12.3523 42.5748 9.09192 36.3378 6.32294 29.874C4.49775 25.6175 2.57119 21.4095 0.6875 17.1773C1.3349 14.1479 3.47599 14.7878 5.47668 15.0754L5.47277 15.0673Z" fill="#333333"></path></svg>