<svg xmlns="http://www.w3.org/2000/svg" width="187" height="64" viewBox="0 0 187 64" fill="none"><path d="M7.36709 -180.231C7.16039 -181.475 6.41548 -182.414 5.64328 -183.293C2.32831 -187.068 1.50542 -191.713 1.26362 -196.565C1.05302 -200.826 -0.288559 -204.993 0.273037 -209.314H3.276C3.042 -203.924 3.9312 -198.606 4.6995 -193.341C5.35469 -188.85 8.95436 -185.999 12.4214 -183.682C14.6756 -182.175 17.1989 -181.325 18.8486 -178.798C19.9913 -177.044 22.3586 -176.983 24.2267 -176.352C34.8268 -172.759 45.4464 -169.224 56.0894 -165.765C60.0869 -164.465 63.8348 -162.687 67.4461 -160.496C76.9348 -154.745 86.6262 -149.346 95.9588 -143.34C106.902 -136.293 116.644 -127.861 123.805 -116.395C135.668 -97.3929 147.75 -78.5321 160.059 -59.8373C165.047 -52.2638 169.126 -44.2934 172.523 -35.8857C174.43 -34.0875 175.936 -32.026 176.474 -29.3328C178.868 -17.7376 180.3 -5.98456 181.481 5.79282C181.7 7.97171 181.782 10.2762 180.772 12.37C178.638 13.7106 178.724 15.8449 178.892 17.5297C178.974 18.7123 179.906 17.7808 179.278 18.0197C179.001 18.125 178.79 18.0197 178.872 17.7808C179.313 16.4645 177.73 14.31 180.362 13.8969C181.466 14.5287 182.218 15.5412 182.273 16.7723C182.671 25.8808 184.391 34.8758 184.445 44.0126C184.453 45.0453 184.313 46.0781 183.778 46.9813C182.995 47.8075 182.316 49.0184 180.924 47.933C180.982 48.0909 181.037 48.2448 181.341 49.0791C182.027 50.3063 182.374 47.046 183.229 48.1517C186.36 51.8615 187.862 55.8872 185.584 60.6783C184.847 60.0182 184.11 59.358 183.24 58.5764C182.842 58.2119 182.936 57.4221 182.819 57.2682C182.932 57.4262 182.819 58.224 183.24 58.5764C183.326 60.1883 183.279 61.6746 183.236 63.1609C180.253 62.7924 179.875 60.2571 179.204 57.9486C176.571 48.9536 175.596 39.4928 175.585 30.356C175.557 13.5931 171.876 -2.52182 169.887 -18.9283C168.962 -26.5423 167.363 -33.6784 162.262 -39.8506C159.314 -43.4187 159.907 -48.9388 157.305 -53.2196C149.392 -66.2363 140.606 -78.6131 132.299 -91.3382C127.911 -98.0571 122.88 -104.351 118.969 -111.357C112.67 -122.632 103.607 -130.481 92.8857 -136.909C81.6576 -143.644 71.2018 -151.954 59.3693 -157.394C45.1539 -163.926 30.5914 -170.094 14.6054 -170.516C13.8371 -170.661 13.1468 -170.993 12.5384 -171.496C11.6882 -173.225 9.78116 -173.363 8.45907 -174.391C7.10188 -176.141 8.40837 -178.421 7.37877 -180.24L7.36709 -180.231Z" fill="#E3C063"></path></svg>