<svg xmlns="http://www.w3.org/2000/svg" width="71" height="41" viewBox="0 0 71 41" fill="none"><path d="M7.71837 23.5996H6.05422V29.3237C5.69689 29.3782 4.42072 29.3918 4.05998 29.3918C2.8927 29.3918 1.69136 29.0821 1.69136 27.908V24.5423H0V27.9795C0 30.2153 1.83432 31.0287 4.05998 31.0287C4.80527 31.0287 6.59533 30.8313 7.71837 30.5727V23.603V23.5996Z" fill="#575756"></path><path d="M3.11688 20.8566C2.51111 21.4624 2.90246 22.5616 3.82472 22.5616C4.74697 22.5616 5.15537 21.4726 4.52238 20.8566C4.1072 20.4516 3.49122 20.4788 3.11688 20.8566Z" fill="#575756"></path><path d="M28.9165 26.87C28.9165 27.8161 28.2632 27.9794 27.3307 27.7922C27.1231 27.7514 26.9495 27.6936 26.81 27.6187C27.0074 27.0912 26.9155 27.275 26.9359 23.5996H25.2581V26.87C25.2581 27.6051 24.8736 28.0169 23.7404 27.7991C23.5498 27.7616 23.383 27.7106 23.2333 27.6459C23.3048 27.2205 23.2639 27.1014 23.2741 23.5996H21.61V27.0912C21.61 27.3771 21.5113 27.5642 21.3173 27.6527C20.9259 27.8297 20.5039 27.7752 20.3202 27.7854C20.2759 27.7854 19.5477 27.7854 19.5851 27.7854C19.2822 27.7854 18.9283 27.7514 18.6424 27.6459C18.7241 27.2341 18.6867 26.8189 18.6969 26.1077C18.6629 24.3993 17.5636 23.8208 15.8552 23.8208H15.566L18.4076 21.5202V19.5532L12.8911 24.0556V25.359C16.0288 25.3692 15.971 25.3318 16.3147 25.393C16.6958 25.4611 17.0225 25.7503 17.0225 26.2574V26.9789C17.0225 27.5676 16.5087 27.782 15.9131 27.782C11.7 27.782 11.7374 27.8195 11.3699 27.6493C11.1759 27.5608 11.0772 27.3737 11.0772 27.0878V19.8969H9.41309V27.0878C9.41309 28.7043 10.4374 29.3203 12.0607 29.3203H15.9267C16.7299 29.3203 17.3628 29.1773 17.8257 28.8915C18.6628 29.2386 19.1801 29.3203 19.8063 29.3203C19.8403 29.3203 20.3542 29.3203 20.3202 29.3203C20.6367 29.3066 21.5113 29.3883 22.2464 29.0004C23.3524 29.3271 25.2173 29.5789 26.0988 28.8336C26.9495 29.2318 27.5553 29.3169 28.1883 29.3169C29.7707 29.3169 30.5875 28.6498 30.5875 26.9346V23.5962H28.9131V26.8666L28.9165 26.87Z" fill="#575756"></path><path d="M39.0544 27.0913V19.9004H37.3936V27.0913C37.3936 27.9523 36.4646 27.7549 35.5083 27.7855V21.7041H33.8441V27.7855H32.0303V29.3237H36.4101C37.2507 29.3237 37.9007 29.1502 38.3635 28.7962C38.8264 28.4457 39.0544 27.8774 39.0544 27.0913Z" fill="#575756"></path><path d="M33.987 30.3073C33.6364 30.5898 33.5479 31.1717 33.7181 31.5767H33.2383V32.3322H35.5694V31.5767H34.5995C34.4736 31.3997 34.409 31.0151 34.6064 30.9131C34.8786 30.7701 35.3176 30.9301 35.5694 31.0968V30.2937C35.4265 30.2052 35.2938 30.1406 35.1747 30.1031C34.7595 29.967 34.2626 30.0759 33.9836 30.3073H33.987Z" fill="#575756"></path><path d="M42.1817 19.9004H40.5176V29.3237H42.1817V19.9004Z" fill="#575756"></path><path d="M48.6309 29.1501C49.5634 29.4291 50.0875 29.2828 52.5548 29.3236V24.0862C51.7142 23.7561 50.4073 23.5859 49.9343 23.5859C48.0762 23.5859 46.623 24.6001 46.623 26.414C46.623 26.921 46.7115 27.3566 46.8851 27.7242C47.2288 28.4422 47.8482 28.9187 48.6309 29.1501ZM49.9343 25.0697C50.3018 25.0697 50.489 25.1037 50.8906 25.1956V27.7854C50.1317 27.7378 49.2775 27.942 48.6615 27.4247C48.3757 27.1831 48.2327 26.8462 48.2327 26.414C48.2327 25.6619 48.7228 25.0697 49.9377 25.0697H49.9343Z" fill="#575756"></path><path d="M47.7326 22.2826C48.1104 22.6604 48.723 22.6876 49.1381 22.2826C49.7847 21.653 49.3083 20.5776 48.4371 20.5776C47.5659 20.5776 47.1099 21.6632 47.7292 22.2826H47.7326Z" fill="#575756"></path><path d="M49.9346 21.5921C49.9346 22.1196 50.3668 22.5756 50.9317 22.5756C51.8233 22.5756 52.2623 21.4866 51.6327 20.8706C50.9964 20.2444 49.9346 20.6834 49.9346 21.5921Z" fill="#575756"></path><path d="M55.8318 31.8319C56.247 31.4983 56.4546 30.9777 56.4546 30.2664V23.603H54.7939V30.018C54.7939 30.5829 54.6101 30.9198 53.9907 30.9198C53.7082 30.9198 53.3543 30.8211 53.0889 30.7258V32.1245C53.2454 32.179 53.4224 32.2266 53.6164 32.2709C54.3004 32.4206 55.2125 32.3321 55.8352 31.8353L55.8318 31.8319Z" fill="#575756"></path><path d="M59.7628 19.9004H58.0986V29.3237H59.7628V19.9004Z" fill="#575756"></path><path d="M63.6113 30.2664V23.603H61.9472V30.018C61.9472 30.5761 61.7702 30.9198 61.144 30.9198C60.8616 30.9198 60.5076 30.8211 60.2422 30.7258V32.1245C61.3788 32.5261 62.393 32.3083 62.9851 31.8319C63.4003 31.4983 63.6079 30.9777 63.6079 30.2664H63.6113Z" fill="#575756"></path><path d="M61.9887 20.8568C61.3796 21.4659 61.7777 22.5618 62.6966 22.5618C63.6154 22.5618 64.0306 21.4795 63.3977 20.8568C62.9859 20.4552 62.3665 20.479 61.9921 20.8568H61.9887Z" fill="#575756"></path><path d="M67.8217 23.5859C64.1259 23.5859 63.7754 27.2852 65.4872 28.6226C66.5966 29.4972 67.9851 29.2998 68.7644 29.3237C68.744 29.4836 68.8767 30.2221 68.3356 30.6407C68.0497 30.8619 67.7026 30.9742 67.2976 30.9742C66.6 30.9742 66.018 30.8346 65.1775 30.365V31.9169C66.4468 32.5226 68.2573 32.5703 69.3906 31.7977C69.6969 31.5902 69.9487 31.3111 70.1461 30.9606C70.3468 30.61 70.4455 30.171 70.4455 29.6435V24.0862C69.6254 23.7629 68.3186 23.5859 67.8285 23.5859H67.8217ZM68.7746 27.7854C68.0191 27.7378 67.1581 27.942 66.5455 27.4247C66.2597 27.1831 66.1167 26.8462 66.1167 26.414C66.1167 25.6653 66.6034 25.0697 67.8217 25.0697C68.1927 25.0697 68.3764 25.1037 68.778 25.1956V27.7854H68.7746Z" fill="#575756"></path><path d="M2.11675 39.5332L0.524099 36.062H0V40.9557H0.524099V37.2361L1.88536 40.1866H2.33115L3.66861 37.2361V40.9557H4.19271V36.062H3.66861L2.11675 39.5332Z" fill="#575756"></path><path d="M6.12909 36.062H5.6084V40.9557H6.12909V36.062Z" fill="#575756"></path><path d="M10.6379 39.9723L8.04129 36.062H7.54785V40.9557H8.0685V37.0319L10.6651 40.9557H11.162V36.062H10.6379V39.9723Z" fill="#575756"></path><path d="M13.0988 36.062H12.5781V40.9557H13.0988V36.062Z" fill="#575756"></path><path d="M14.7423 37.3822C14.7423 36.8377 15.12 36.4736 15.7734 36.4736C16.2873 36.4736 16.6106 36.6199 16.9135 36.8922L17.2504 36.5553C16.8318 36.1775 16.4201 36.0176 15.7939 36.0176C14.824 36.0176 14.2284 36.5689 14.2284 37.3993C14.2284 37.7906 14.3543 38.0935 14.5994 38.3113C15.4229 39.0328 16.9407 38.3794 16.9407 39.6181C16.9407 40.1864 16.5017 40.5234 15.7871 40.5234C15.2357 40.5234 14.858 40.394 14.453 39.9891L14.0957 40.3464C14.5551 40.8058 15.0384 40.993 15.77 40.993C17.652 40.993 17.7813 39.2574 17.0462 38.6346C16.3247 38.0084 14.7389 38.5393 14.7389 37.3788L14.7423 37.3822Z" fill="#575756"></path><path d="M18.0537 36.5316H19.4694V40.9557H19.9901V36.5316H21.4058V36.062H18.0537V36.5316Z" fill="#575756"></path><path d="M25.6462 37.4233C25.6462 36.5793 25.0472 36.062 24.1964 36.062H22.3213V40.9557H22.842V38.7845H24.0161L25.1289 40.9557H25.7415L24.5776 38.7369C25.2106 38.6076 25.6428 38.1379 25.6428 37.4233H25.6462ZM22.842 38.3217V36.5282H24.1488C24.7171 36.5282 25.1255 36.8311 25.1255 37.4301C25.1255 38.029 24.7205 38.3217 24.1488 38.3217H22.842Z" fill="#575756"></path><path d="M27.8953 38.4068L26.7417 36.062H26.1768L27.6333 38.9343V40.9557H28.154V38.9343L29.5969 36.062H29.0354L27.8953 38.4068Z" fill="#575756"></path><path d="M32.3472 36.5315C31.8877 36.9909 31.8877 37.4741 31.8877 38.5121C31.8877 39.5501 31.8877 40.0299 32.3472 40.4893C33.021 41.1632 34.161 41.1768 34.8485 40.4893C35.3079 40.0299 35.3079 39.5467 35.3079 38.5121C35.3079 37.4775 35.3079 36.9943 34.8485 36.5315C34.1644 35.8508 33.0244 35.8508 32.3472 36.5315ZM34.4435 40.1797C33.9977 40.6425 33.2081 40.6493 32.7555 40.1797C32.4458 39.8632 32.4118 39.5331 32.4118 38.5087C32.4118 37.4844 32.4458 37.1543 32.7555 36.8378C33.2081 36.3715 33.9943 36.3749 34.4435 36.8378C34.7532 37.1543 34.7872 37.4844 34.7872 38.5087C34.7872 39.5331 34.7532 39.8632 34.4435 40.1797Z" fill="#575756"></path><path d="M36.54 40.9557H37.0607V38.7982H39.2047V38.3319H37.0607V36.5316H39.5757V36.062H36.54V40.9557Z" fill="#575756"></path><path d="M45.0814 38.2536H42.757V36.062H42.2363V40.9557H42.757V38.7233H45.0814V40.9557H45.6021V36.062H45.0814V38.2536Z" fill="#575756"></path><path d="M47.2934 36.5315C46.834 36.9909 46.834 37.4742 46.834 38.5121C46.834 39.5501 46.834 40.0299 47.2934 40.4894C47.974 41.17 49.1141 41.17 49.7948 40.4894C50.2542 40.0299 50.2542 39.5467 50.2542 38.5121C50.2542 37.4776 50.2542 36.9943 49.7948 36.5315C49.1039 35.844 47.9672 35.8577 47.2934 36.5315ZM49.3898 40.1797C48.9371 40.6459 48.1476 40.6425 47.7018 40.1797C47.3921 39.8632 47.3581 39.5331 47.3581 38.5087C47.3581 37.4844 47.3921 37.1543 47.7018 36.8378C48.151 36.3715 48.9371 36.3715 49.3898 36.8378C49.6994 37.1543 49.7335 37.4844 49.7335 38.5087C49.7335 39.5331 49.6994 39.8632 49.3898 40.1797Z" fill="#575756"></path><path d="M54.3106 39.2984C54.3106 40.0403 53.8376 40.5269 53.123 40.5269C52.4083 40.5269 51.9421 40.0403 51.9421 39.2984V36.062H51.418V39.3393C51.418 40.316 52.1326 40.9966 53.123 40.9966C54.1133 40.9966 54.8347 40.316 54.8347 39.3393V36.062H54.3106V39.2984Z" fill="#575756"></path><path d="M56.4073 37.3822C56.4073 36.8377 56.7851 36.4736 57.4385 36.4736C57.9558 36.4736 58.2757 36.6199 58.5786 36.8922L58.9155 36.5553C58.4969 36.1775 58.0817 36.0176 57.4589 36.0176C56.4924 36.0176 55.8935 36.5689 55.8935 37.3993C55.8935 37.7906 56.016 38.0935 56.2644 38.3113C56.8974 38.866 57.9116 38.6074 58.3744 39.0056C58.7726 39.3561 58.7964 40.5234 57.4521 40.5234C56.9042 40.5234 56.5265 40.394 56.1181 39.9891L55.7607 40.3464C56.2202 40.8058 56.7034 40.993 57.4385 40.993C59.3171 40.993 59.4566 39.2608 58.7147 38.6346C57.9932 38.0084 56.4073 38.5393 56.4073 37.3788V37.3822Z" fill="#575756"></path><path d="M60.7424 36.062H60.2217V40.9557H60.7424V36.062Z" fill="#575756"></path><path d="M65.2492 39.9723L62.6526 36.062H62.1592V40.9557H62.6833V37.0319L65.2765 40.9557H65.7733V36.062H65.2492V39.9723Z" fill="#575756"></path><path d="M68.7133 38.8527H69.918C69.8941 39.1624 70.0099 39.6695 69.6423 40.1085C69.2033 40.6428 68.3355 40.6632 67.8693 40.1834C67.5596 39.8669 67.529 39.5299 67.529 38.5056C67.529 37.4812 67.563 37.1511 67.8693 36.8346C68.4444 36.2459 69.6559 36.3548 69.9044 37.4813H70.4284C70.1596 35.892 68.3627 35.6265 67.4643 36.525C67.0049 36.9844 67.0049 37.4676 67.0049 38.5056C67.0049 39.5435 67.0049 40.0234 67.4643 40.4828C68.1415 41.1601 69.3224 41.1805 70.0201 40.4284C70.323 40.1051 70.4387 39.7273 70.4387 39.1624V38.3865H68.7133V38.8459V38.8527Z" fill="#575756"></path><path d="M19.8169 15.1939V9.03076H17.7615V13.1418H15.7093V9.03076H13.6572V15.1939C13.8036 15.1939 20.0688 15.1939 19.8169 15.1939Z" fill="#006E43"></path><path d="M11.6016 15.1937V6.97168L9.54615 9.02379V13.1382H2.67857L0.623047 15.1937H11.6016Z" fill="#006E43"></path><path d="M56.785 5.94759V2.69418L54.7295 0.64209V4.89263V5.94759V15.194H56.785V5.94759Z" fill="#006E43"></path><path d="M52.6738 15.1937V4.94678H50.6183V13.1382H46.5107V15.1937H52.6738Z" fill="#006E43"></path><path d="M42.403 9.04114V13.1385H40.3475V9.04114H38.292V13.1385H36.2365V9.04114H34.1844V13.1385H32.1255V9.04114H31.9145V9.02751H28.0178V6.97201H40.3475V4.91992H25.9624V11.083H30.07V13.1385H23.7129V15.194H44.4551V9.04114H42.3996H42.403Z" fill="#006E43"></path><path d="M69.8189 15.1937L67.7634 13.1382H60.8924V9.02718L58.8369 6.97168V15.1903H69.8155L69.8189 15.1937Z" fill="#006E43"></path><path d="M48.5659 11.9678H47.7219V11.5151H48.5659V10.8447H47.7219H47.0515V11.9678H46.541V12.6382H48.5659V11.9678Z" fill="#006E43"></path></svg>