<svg xmlns="http://www.w3.org/2000/svg" width="5" height="8" viewBox="0 0 5 8" fill="none"><path d="M0.920357 2.52806V2.67889C0.920357 2.94122 0.95317 3.17731 1.02531 3.38061C1.09089 3.58392 1.17616 3.75443 1.28109 3.89215H1.104C1.02531 3.89215 0.940054 3.89215 0.861356 3.89215C0.7761 3.89215 0.703896 3.89872 0.631756 3.89872C0.566174 3.89872 0.520312 3.89872 0.513753 3.89872C0.389148 3.89872 0.317037 3.96429 0.297362 4.0889C0.284246 4.20694 0.271091 4.36435 0.257975 4.55453C0.244859 4.74472 0.238281 4.92179 0.238281 5.07919C0.238281 5.83338 0.421968 6.39081 0.789225 6.75151C1.15648 7.11221 1.89754 7.29584 2.65829 7.29584H2.73698C2.77633 7.29584 2.82221 7.29585 2.86812 7.28929C2.98616 7.27617 2.86812 7.21059 2.86812 7.0991V6.44328C2.86812 6.33179 2.80259 6.27932 2.67798 6.27932H2.57303C2.16642 6.27932 1.87131 6.19407 1.68113 6.017C1.49094 5.83993 1.39251 5.58416 1.3794 5.2497C1.3794 5.22346 1.3794 5.17756 1.3794 5.11854C1.3794 5.05951 1.3794 5.01361 1.3794 4.98737C1.41875 4.98737 1.47128 4.98737 1.5303 4.98737C1.58933 4.98737 1.64829 4.98737 1.71387 4.98737H4.49453C4.54699 4.98737 4.59295 4.97425 4.62574 4.94146C4.65853 4.90867 4.67161 4.86933 4.67161 4.82342V4.0102C4.67161 3.9643 4.65853 3.92494 4.62574 3.89215C4.59295 3.85936 4.54699 3.84625 4.49453 3.84625H2.62547C2.55333 3.82002 2.48122 3.78066 2.41564 3.70852C2.35006 3.64294 2.28446 3.56424 2.23199 3.47243C2.17953 3.38061 2.13365 3.27569 2.10086 3.15764C2.06807 3.03959 2.04834 2.91498 2.04834 2.77726V2.68545C2.04834 2.30508 2.15985 2.03619 2.38938 1.8788C2.61892 1.7214 2.94026 1.64926 3.36654 1.64926C3.55017 1.64926 3.71412 1.64926 3.85184 1.66238C3.98956 1.67549 4.15351 1.68205 4.33714 1.69517C4.47486 1.70829 4.54048 1.65582 4.54048 1.53777V0.881952C4.54048 0.822928 4.52083 0.783584 4.48148 0.763909C4.44213 0.744235 4.38959 0.724556 4.32401 0.717997C4.12727 0.685207 3.94367 0.658977 3.77971 0.639303C3.61576 0.626186 3.42558 0.619629 3.21572 0.619629C2.90748 0.619629 2.61239 0.652422 2.33694 0.724562C2.0615 0.796702 1.81229 0.908187 1.60243 1.05903C1.39257 1.20986 1.22205 1.4066 1.104 1.64926C0.9794 1.89191 0.920357 2.18048 0.920357 2.52806Z" fill="#0B5463"></path></svg>