<svg xmlns="http://www.w3.org/2000/svg" width="4" height="6" viewBox="0 0 4 6" fill="none"><path d="M3.27379 0.68457C3.09672 0.68457 2.89338 0.710806 2.66385 0.76983C2.43431 0.828853 2.21132 0.940341 1.9949 1.11741V0.927219C1.9949 0.881312 1.97526 0.835413 1.94247 0.802623C1.90968 0.769832 1.86381 0.750156 1.8179 0.750156H1.03744C0.991528 0.750156 0.945659 0.769832 0.912868 0.802623C0.880077 0.835413 0.860352 0.881312 0.860352 0.927219V5.6032C0.860352 5.64911 0.880077 5.69501 0.912868 5.73436C0.945659 5.77371 0.991528 5.79339 1.03744 5.79339H1.85721C1.90311 5.79339 1.94906 5.77371 1.98185 5.73436C2.01464 5.69501 2.03429 5.65566 2.03429 5.6032V2.00932C2.22448 1.91095 2.41467 1.83225 2.61141 1.77323C2.8016 1.71421 3.02458 1.68797 3.26723 1.68797C3.31314 1.68797 3.35901 1.66829 3.3918 1.6355C3.42459 1.60271 3.44431 1.5568 3.44431 1.5109V0.868198C3.44431 0.822291 3.42459 0.776382 3.3918 0.743591C3.35901 0.710801 3.31314 0.691125 3.26723 0.691125" fill="#0B5463"></path></svg>