<svg xmlns="http://www.w3.org/2000/svg" width="51" height="56" viewBox="0 0 51 56" fill="none"><path d="M5.29259 15.5904C5.71379 14.3187 6.78628 13.776 7.82367 13.2495C15.7367 9.2522 23.6654 5.27915 31.5901 1.29801C34.5346 -0.184292 35.9932 1.70705 36.9682 4.07629C41.1606 14.2458 45.9264 24.144 50.0409 34.35C51.3708 37.6467 50.2593 39.6919 47.3304 40.9555C37.5064 45.1918 27.9202 49.983 18.182 54.4258C13.0575 56.7627 11.7588 56.1673 9.41489 50.8254C8.51789 48.7842 7.32836 46.8766 6.84087 44.6572C5.43298 40.1131 4.09529 35.4435 1.77871 31.3813C-1.08777 26.3553 -0.0347567 22.4147 3.35822 18.5145C4.13041 17.6235 4.91819 16.7568 5.29259 15.5864V15.5904Z" fill="#333333"></path></svg>